<svg xmlns="http://www.w3.org/2000/svg" viewBox="0 0 174.99 143.93"><defs><style type="text/css">.cls-1{fill:#fac79e;}.cls-2{fill:#e45e5d;}.cls-3{fill:#f8a05f;}</style></defs><title>Asset 5</title><g id="Layer_2" data-name="Layer 2"><g id="Design"><path class="cls-1" d="M146.53,51.12h25.61a2.57,2.57,0,0,0,0-5.14H146.53a2.57,2.57,0,0,0,0,5.14Z"/><path class="cls-1" d="M146.53,5.14h7.66v7.79l-.05,0-9,6.32a2.57,2.57,0,0,0,2.95,4.21l7.23-5.06a10.24,10.24,0,0,0,19.42-4.59V2.64s0,0,0-.07A2.57,2.57,0,0,0,172.14,0H146.53a2.57,2.57,0,0,0,0,5.14Zm23,8.71a5.12,5.12,0,1,1-10.23,0V5.14h10.23Z"/><path class="cls-1" d="M172.14,118.28a2.57,2.57,0,0,0-2.57,2.57v7.6h-23A2.57,2.57,0,0,0,144,131h0a2.57,2.57,0,0,0,2.57,2.57h23v7.78a2.57,2.57,0,0,0,5.14,0V131h0V120.85A2.57,2.57,0,0,0,172.14,118.28Z"/><path class="cls-1" d="M159.34,72.63A15.65,15.65,0,1,0,175,88.28,15.67,15.67,0,0,0,159.34,72.63Zm0,26.16a10.51,10.51,0,1,1,10.51-10.51A10.52,10.52,0,0,1,159.34,98.79Z"/><path class="cls-2" d="M61.67,0H20.56A20.56,20.56,0,0,0,0,20.57v102.8a20.56,20.56,0,0,0,41.12,0V102.79H61.67A51.38,51.38,0,0,0,61.67,0Z"/><polygon class="cls-3" points="47.03 0.01 40.32 0.01 0 48.06 0 56.05 47.03 0.01"/><polygon class="cls-3" points="60.45 0.01 53.74 0.01 0 64.05 0 72.04 60.45 0.01"/><path class="cls-3" d="M72.83,1.24a51,51,0,0,0-5.9-1L0,80v8Z"/><polygon class="cls-3" points="33.61 0.01 26.9 0.01 0 32.06 0 40.06 33.61 0.01"/><path class="cls-3" d="M83.27,4.78a51,51,0,0,0-5-2L0,96v8Z"/><path class="cls-3" d="M41.12,102.78h.18l64.78-77.2a51.55,51.55,0,0,0-2.94-4.49L5.55,137.38a20.62,20.62,0,0,0,3.95,3.29L41.12,103Z"/><path class="cls-3" d="M112.22,42.23l-50.8,60.54h.25a51.55,51.55,0,0,0,6.85-.47L113,49.3A51.32,51.32,0,0,0,112.22,42.23Z"/><path class="cls-3" d="M40.71,127.46l-12.59,15A20.58,20.58,0,0,0,40.71,127.46Z"/><path class="cls-3" d="M110,68.88a51,51,0,0,0,2.67-11.18L76.73,100.52a51.1,51.1,0,0,0,10.6-4.64Z"/><path class="cls-3" d="M92.22,10.1a51.58,51.58,0,0,0-4.3-2.87L0,112v8Z"/><path class="cls-3" d="M99.83,17q-1.73-1.92-3.64-3.66L.42,127.5a20.41,20.41,0,0,0,2,5.58Z"/><path class="cls-3" d="M41.12,119v-8l-26.82,32a20.53,20.53,0,0,0,5.9,1Z"/><path class="cls-3" d="M110.71,36a51,51,0,0,0-2.09-5.5L48,102.78h6.71Z"/><circle class="cls-1" cx="20.59" cy="20.57" r="20.56" transform="translate(-8.07 15.53) rotate(-35)"/><path class="cls-1" d="M109.36,111.56a20.56,20.56,0,1,1-33.69,23.59l-30.79-44A20.56,20.56,0,0,1,78.58,67.57Z"/></g></g></svg>