<svg xmlns="http://www.w3.org/2000/svg" viewBox="0 0 175.64 143.93"><defs><style>.cls-1{fill:#e45e5d;}.cls-2{fill:#c7bdcd;}.cls-3{fill:#f69e98;}</style></defs><title>Asset 3</title><g id="Layer_2" data-name="Layer 2"><g id="Design"><path class="cls-1" d="M61.67,0H20.56A20.56,20.56,0,0,0,0,20.57v102.8a20.56,20.56,0,0,0,41.12,0V102.79H61.67A51.38,51.38,0,0,0,61.67,0Z"/><path class="cls-2" d="M147.19,51.12h25.61a2.57,2.57,0,1,0,0-5.14H147.19a2.57,2.57,0,0,0,0,5.14Z"/><path class="cls-2" d="M147.19,5.14h7.66v7.79l-.05,0-9,6.32a2.57,2.57,0,0,0,2.95,4.21l7.23-5.06a10.24,10.24,0,0,0,19.42-4.59V2.64s0,0,0-.07A2.57,2.57,0,0,0,172.79,0H147.19a2.57,2.57,0,0,0,0,5.14Zm23,8.71a5.12,5.12,0,1,1-10.23,0V5.14h10.23Z"/><path class="cls-2" d="M172.79,118.28a2.57,2.57,0,0,0-2.57,2.57v7.6h-23a2.57,2.57,0,0,0-2.57,2.57h0a2.57,2.57,0,0,0,2.57,2.57h23v7.78a2.57,2.57,0,0,0,5.14,0V131h0V120.85A2.57,2.57,0,0,0,172.79,118.28Z"/><path class="cls-2" d="M160,72.63a15.65,15.65,0,1,0,15.65,15.65A15.67,15.67,0,0,0,160,72.63Zm0,26.16A10.51,10.51,0,1,1,170.5,88.28,10.52,10.52,0,0,1,160,98.79Z"/><path class="cls-3" d="M2.77,133.64A20.62,20.62,0,0,0,7,138.77H34.14a20.62,20.62,0,0,0,4.21-5.13Z"/><path class="cls-3" d="M0,92.52v5.14H84a51.48,51.48,0,0,0,8.41-5.14Z"/><rect class="cls-3" y="102.8" width="41.12" height="5.13"/><rect class="cls-3" y="113.08" width="41.12" height="5.14"/><path class="cls-3" d="M.68,15.41H98.3a51.8,51.8,0,0,0-5.86-5.14H2.78A20.41,20.41,0,0,0,.68,15.41Z"/><path class="cls-3" d="M0,123.36H0a20.53,20.53,0,0,0,.67,5.12H40.45a20.53,20.53,0,0,0,.67-5.12H0Z"/><path class="cls-3" d="M0,56.53H112.8c.17-1.69.26-3.4.26-5.13H0Z"/><path class="cls-3" d="M0,82.24v5.14H98.32a51.79,51.79,0,0,0,4.43-5.14Z"/><path class="cls-3" d="M0,20.57V25.7H106.14a51.58,51.58,0,0,0-3.39-5.14Z"/><path class="cls-3" d="M20.81,0h-.25A20.46,20.46,0,0,0,7,5.14H84A51.07,51.07,0,0,0,61.67,0Z"/><path class="cls-3" d="M0,30.85V36H110.69a51,51,0,0,0-1.94-5.14Z"/><path class="cls-3" d="M0,72v5.13H106.14A51.24,51.24,0,0,0,108.75,72Z"/><path class="cls-3" d="M0,61.68v5.14H110.69A50.92,50.92,0,0,0,112,61.68Z"/><path class="cls-3" d="M0,41.22v5.14H112.8a51.15,51.15,0,0,0-.77-5.14Z"/><circle class="cls-2" cx="20.59" cy="20.57" r="20.56" transform="translate(-8.07 15.53) rotate(-35)"/><path class="cls-2" d="M109.36,111.56a20.56,20.56,0,0,1-33.69,23.59l-30.79-44A20.56,20.56,0,0,1,78.58,67.57Z"/></g></g></svg>