<?xml version="1.0" encoding="UTF-8" standalone="no"?>
<!-- Generator: Adobe Illustrator 21.0.0, SVG Export Plug-In . SVG Version: 6.00 Build 0)  -->

<svg
   xmlns:dc="http://purl.org/dc/elements/1.1/"
   xmlns:cc="http://creativecommons.org/ns#"
   xmlns:rdf="http://www.w3.org/1999/02/22-rdf-syntax-ns#"
   xmlns:svg="http://www.w3.org/2000/svg"
   xmlns="http://www.w3.org/2000/svg"
   xmlns:sodipodi="http://sodipodi.sourceforge.net/DTD/sodipodi-0.dtd"
   xmlns:inkscape="http://www.inkscape.org/namespaces/inkscape"
   version="1.1"
   id="Layer_1"
   x="0px"
   y="0px"
   viewBox="0 0 163.60767 144.2"
   xml:space="preserve"
   sodipodi:docname="riot-im-logo-1.svg"
   width="163.60767"
   height="144.2"
   inkscape:version="0.92.2 (5c3e80d, 2017-08-06)"><metadata
     id="metadata3918"><rdf:RDF><cc:Work
         rdf:about=""><dc:format>image/svg+xml</dc:format><dc:type
           rdf:resource="http://purl.org/dc/dcmitype/StillImage" /></cc:Work></rdf:RDF></metadata><defs
     id="defs3916" /><sodipodi:namedview
     pagecolor="#ffffff"
     bordercolor="#666666"
     borderopacity="1"
     objecttolerance="10"
     gridtolerance="10"
     guidetolerance="10"
     inkscape:pageopacity="0"
     inkscape:pageshadow="2"
     inkscape:window-width="1918"
     inkscape:window-height="2071"
     id="namedview3914"
     showgrid="false"
     inkscape:zoom="0.98333333"
     inkscape:cx="81.80767"
     inkscape:cy="72.1"
     inkscape:window-x="1912"
     inkscape:window-y="0"
     inkscape:window-maximized="0"
     inkscape:current-layer="Layer_1" /><style
     type="text/css"
     id="style3856">
	.st0{fill:#7DC8A2;}
	.st1{fill:#AFDBC5;}
	.st2{fill:#764D80;}
	.st3{fill:#764D80;stroke:#764D80;stroke-miterlimit:10;}
</style><g
     id="Layer_3"
     transform="translate(-38.19233,-47.9)"><g
       id="g3910"><g
         id="g3886"><g
           id="g3884"><path
             class="st0"
             d="M 100.6,48.1 H 59.7 c -0.1,0 -0.2,0 -0.3,0 -11.4,0 -20.6,9.2 -20.6,20.6 v 102.8 c 0,11.4 9.2,20.6 20.6,20.6 11.4,0 20.6,-9.2 20.6,-20.6 v -20.6 h 20.6 c 28.3,0 51.4,-23.1 51.4,-51.4 0,-28.3 -23.1,-51.4 -51.4,-51.4 z"
             id="path3858"
             inkscape:connector-curvature="0"
             style="fill:#7dc8a2" /><path
             class="st1"
             d="M 59.5,186.9 C 51,186.9 44.1,180 44.1,171.5 V 68.6 c 0,-8.5 6.9,-15.4 15.3,-15.4 0.1,0 0.2,0 0.3,0 h 40.9 c 25.5,0 46.3,20.8 46.3,46.3 0,25.5 -20.8,46.3 -46.3,46.3 H 74.9 v 25.7 c 0,8.4 -6.9,15.4 -15.4,15.4 z"
             id="path3860"
             inkscape:connector-curvature="0"
             style="fill:#afdbc5" /><path
             class="st0"
             d="m 59.5,181.7 c -5.7,0 -10.3,-4.6 -10.3,-10.3 V 68.6 c 0,-5.6 4.5,-10.2 10.1,-10.3 0.1,0 0.2,0 0.3,0 h 41 c 22.7,0 41.1,18.5 41.1,41.1 0,22.6 -18.5,41.1 -41.1,41.1 H 69.8 v 30.8 c 0,5.8 -4.6,10.4 -10.3,10.4 z"
             id="path3862"
             inkscape:connector-curvature="0"
             style="fill:#7dc8a2" /><path
             class="st1"
             d="m 59.5,176.6 c -2.9,0 -5.2,-2.3 -5.2,-5.2 V 68.6 c 0,-2.8 2.2,-5.1 5,-5.2 h 0.2 41.1 c 19.9,0 36,16.2 36,36 0,19.8 -16.1,36 -36,36 H 64.7 v 36 c 0,2.9 -2.3,5.2 -5.2,5.2 z"
             id="path3864"
             inkscape:connector-curvature="0"
             style="fill:#afdbc5" /><path
             class="st0"
             d="m 59.5,130.3 h 41.1 c 17,0 30.9,-13.8 30.9,-30.9 0,-17.1 -13.8,-30.9 -30.9,-30.9 H 59.5 Z"
             id="path3866"
             inkscape:connector-curvature="0"
             style="fill:#7dc8a2" /><path
             class="st1"
             d="M 64.7,125.2 V 73.7 h 36 c 14.2,0 25.7,11.5 25.7,25.7 0,14.2 -11.5,25.7 -25.7,25.7 z"
             id="path3868"
             inkscape:connector-curvature="0"
             style="fill:#afdbc5" /><path
             class="st0"
             d="M 69.8,120.1 V 78.9 h 30.8 c 11.4,0 20.6,9.2 20.6,20.6 0,11.4 -9.2,20.6 -20.6,20.6 z"
             id="path3870"
             inkscape:connector-curvature="0"
             style="fill:#7dc8a2" /><path
             class="st1"
             d="M 74.9,115 V 84 h 25.7 c 8.5,0 15.5,6.9 15.5,15.5 0,8.6 -6.9,15.5 -15.5,15.5 z"
             id="path3872"
             inkscape:connector-curvature="0"
             style="fill:#afdbc5" /><path
             class="st0"
             d="M 80,109.8 V 89.1 h 20.6 c 5.7,0 10.4,4.6 10.4,10.4 0,5.8 -4.6,10.4 -10.4,10.4 z"
             id="path3874"
             inkscape:connector-curvature="0"
             style="fill:#7dc8a2" /><path
             class="st1"
             d="M 85.2,104.7 V 94.2 h 15.4 c 2.9,0 5.2,2.3 5.2,5.2 0,2.9 -2.3,5.2 -5.2,5.2 z"
             id="path3876"
             inkscape:connector-curvature="0"
             style="fill:#afdbc5" /><g
             id="g3882"><circle
               transform="matrix(0.8192,-0.5736,0.5736,0.8192,-28.7245,46.1263)"
               class="st2"
               cx="58.799999"
               cy="68.599998"
               id="ellipse3878"
               r="20.6"
               style="fill:#764d80" /><path
               class="st2"
               d="m 147.6,159.6 c 6.5,9.3 4.3,22.1 -5,28.6 -9.3,6.5 -22.1,4.3 -28.6,-5 l -30.8,-44 c -6.5,-9.3 -4.3,-22.1 5,-28.6 9.3,-6.5 22.1,-4.3 28.6,5 z"
               id="path3880"
               inkscape:connector-curvature="0"
               style="fill:#764d80" /></g></g></g><g
         id="g3908"><g
           id="g3896"><path
             class="st2"
             d="M 183.6,80.7 H 200 c 0.9,0 1.6,-0.7 1.6,-1.6 0,-0.9 -0.7,-1.6 -1.6,-1.6 h -16.4 c -0.9,0 -1.6,0.7 -1.6,1.6 0,0.9 0.7,1.6 1.6,1.6 z"
             id="path3888"
             inkscape:connector-curvature="0"
             style="fill:#764d80" /><path
             class="st2"
             d="m 183.6,51.3 h 4.9 v 5 0 l -5.8,4 c -0.7,0.5 -0.9,1.5 -0.4,2.3 0.5,0.7 1.5,0.9 2.3,0.4 l 4.6,-3.2 c 1.1,2.2 3.3,3.6 5.9,3.6 3.6,0 6.6,-3 6.6,-6.6 v -7.2 0 c 0,-0.6 -0.3,-1.1 -0.7,-1.4 -0.3,-0.2 -0.6,-0.3 -0.9,-0.3 v 0 h -9.8 -6.5 c -0.9,0 -1.6,0.7 -1.6,1.6 -0.2,1.1 0.5,1.8 1.4,1.8 z m 14.7,5.6 c 0,1.8 -1.5,3.3 -3.3,3.3 -1.8,0 -3.3,-1.5 -3.3,-3.3 v -5.6 h 6.5 z"
             id="path3890"
             inkscape:connector-curvature="0"
             style="fill:#764d80" /><path
             class="st2"
             d="m 200,123.7 c -0.9,0 -1.6,0.7 -1.6,1.6 v 4.9 h -14.7 c -0.9,0 -1.6,0.7 -1.6,1.6 v 0 c 0,0.9 0.7,1.6 1.6,1.6 h 14.7 v 5 c 0,0.9 0.7,1.6 1.6,1.6 0.9,0 1.6,-0.7 1.6,-1.6 v -6.6 0 -6.5 c 0,-0.9 -0.7,-1.6 -1.6,-1.6 z"
             id="path3892"
             inkscape:connector-curvature="0"
             style="fill:#764d80" /><path
             class="st2"
             d="m 191.8,94.5 c -5.5,0 -10,4.5 -10,10 0,5.5 4.5,10 10,10 5.5,0 10,-4.5 10,-10 0,-5.5 -4.5,-10 -10,-10 z m 0,16.7 c -3.7,0 -6.7,-3 -6.7,-6.7 0,-3.7 3,-6.7 6.7,-6.7 3.7,0 6.7,3 6.7,6.7 0,3.7 -3,6.7 -6.7,6.7 z"
             id="path3894"
             inkscape:connector-curvature="0"
             style="fill:#764d80" /></g><g
           id="g3902"><path
             class="st2"
             d="m 201.1,157 c -0.3,-0.3 -0.6,-0.4 -1.1,-0.4 h -16.5 c -0.4,0 -0.7,0.1 -1.1,0.4 -0.3,0.3 -0.4,0.6 -0.4,1.1 0,0.4 0.1,0.7 0.4,1.1 0.3,0.4 0.6,0.4 1.1,0.4 H 200 c 0.3,0 0.7,-0.1 1.1,-0.4 0.3,-0.3 0.4,-0.6 0.4,-1.1 0,-0.4 -0.1,-0.8 -0.4,-1.1 z"
             id="path3898"
             inkscape:connector-curvature="0"
             style="fill:#764d80" /><path
             class="st2"
             d="m 201.5,175.3 v -0.2 c 0,-0.4 -0.1,-0.8 -0.4,-1.1 -0.3,-0.3 -0.6,-0.4 -1.1,-0.4 h -16.5 c -0.3,0 -0.7,0 -1.1,0.3 -0.3,0.3 -0.4,0.6 -0.4,1.1 0,0.5 0.1,0.7 0.4,1.1 0.3,0.4 0.6,0.4 1.1,0.4 h 12.1 l -7.3,4.9 c -0.4,0.4 -0.6,0.8 -0.6,1.3 0,0.5 0.3,1 0.7,1.3 l 7.3,5 h -12.1 c -0.3,0 -0.7,0.1 -1.1,0.4 -0.3,0.3 -0.4,0.6 -0.4,1.1 0,0.5 0.1,0.7 0.4,1.1 0.3,0.4 0.6,0.4 1.1,0.4 H 200 c 0.4,0 0.7,-0.1 1.1,-0.4 0.4,-0.3 0.4,-0.6 0.4,-1.1 v -0.2 c 0,-0.5 -0.1,-1.1 -0.7,-1.4 l -9.2,-6.1 9.2,-6.1 c 0.4,-0.3 0.7,-0.8 0.7,-1.4 z"
             id="path3900"
             inkscape:connector-curvature="0"
             style="fill:#764d80" /></g><g
           id="g3906"><path
             class="st3"
             d="m 190.7,146.1 c 0.3,0 0.6,0.1 0.9,0.4 0.2,0.2 0.4,0.5 0.4,0.9 0,0.3 -0.1,0.6 -0.4,0.9 -0.2,0.2 -0.5,0.4 -0.9,0.4 h -0.5 c -0.3,0 -0.6,-0.1 -0.9,-0.4 -0.2,-0.2 -0.4,-0.5 -0.4,-0.9 0,-0.4 0.1,-0.7 0.4,-0.9 0.2,-0.2 0.5,-0.4 0.9,-0.4 z"
             id="path3904"
             inkscape:connector-curvature="0"
             style="fill:#764d80;stroke:#764d80;stroke-miterlimit:10" /></g></g></g></g></svg>