<svg xmlns="http://www.w3.org/2000/svg" viewBox="0 0 174.36 143.93"><defs><style type="text/css">.cls-1{fill:#764d80;}.cls-2{fill:#f69e98;}</style></defs><title>Asset 2</title><g id="Layer_2" data-name="Layer 2"><g id="Design"><path class="cls-1" d="M61.67,0H20.56A20.56,20.56,0,0,0,0,20.57v102.8a20.56,20.56,0,0,0,41.12,0V102.79H61.67A51.38,51.38,0,0,0,61.67,0Z"/><path class="cls-2" d="M20.56,139.54A16.19,16.19,0,0,1,4.39,123.37V20.57a16.21,16.21,0,0,1,16-16.17H61.67a47,47,0,0,1,0,94H36.73v25A16.19,16.19,0,0,1,20.56,139.54ZM20.39,5.9A14.7,14.7,0,0,0,5.89,20.57v102.8a14.67,14.67,0,0,0,29.34,0V96.9H61.67a45.49,45.49,0,0,0,0-91H20.39Z"/><path class="cls-2" d="M20.56,134.4a11,11,0,0,1-11-11V20.57a11.09,11.09,0,0,1,10.79-11H61.67a41.85,41.85,0,0,1,0,83.7H31.59v30.11A11,11,0,0,1,20.56,134.4ZM20.3,11A9.57,9.57,0,0,0,11,20.57v102.8a9.53,9.53,0,1,0,19.05,0V91.75H61.67a40.35,40.35,0,0,0,0-80.7H20.3Z"/><path class="cls-2" d="M20.56,129.25a5.89,5.89,0,0,1-5.88-5.88V20.57a5.94,5.94,0,0,1,5.61-5.88H61.67a36.71,36.71,0,0,1,0,73.42H26.44v35.25A5.89,5.89,0,0,1,20.56,129.25ZM20.31,16.19a4.42,4.42,0,0,0-4.13,4.38v102.8a4.38,4.38,0,0,0,8.77,0V86.61H61.67a35.21,35.21,0,0,0,0-70.42Z"/><path class="cls-2" d="M61.67,83H19.81V19.83H61.67a31.57,31.57,0,0,1,0,63.14Zm-40.36-1.5H61.67a30.07,30.07,0,0,0,0-60.14H21.32Z"/><path class="cls-2" d="M61.67,77.83H25V25H61.67a26.43,26.43,0,0,1,0,52.85Zm-35.22-1.5H61.67a24.93,24.93,0,0,0,0-49.85H26.46Z"/><path class="cls-2" d="M61.67,72.69H30.1V30.12H61.67a21.29,21.29,0,0,1,0,42.57ZM31.6,71.19H61.67a19.79,19.79,0,0,0,0-39.57H31.6Z"/><path class="cls-2" d="M61.67,67.55H35.24V35.26H61.67a16.14,16.14,0,0,1,0,32.29ZM36.74,66H61.67a14.64,14.64,0,0,0,0-29.29H36.74Z"/><path class="cls-2" d="M61.67,62.41H40.38v-22H61.67a11,11,0,0,1,0,22Zm-19.79-1.5H61.67a9.5,9.5,0,0,0,0-19H41.88Z"/><path class="cls-2" d="M61.67,57.26H45.52V45.54H61.67a5.86,5.86,0,0,1,0,11.72ZM47,55.76H61.67a4.36,4.36,0,0,0,0-8.72H47Z"/><path class="cls-2" d="M61.18,52.16H51.89a.75.75,0,1,1,0-1.5h9.29a.75.75,0,0,1,0,1.5Z"/><path class="cls-2" d="M20.56,124.12a.75.75,0,0,1-.75-.75v-36a.75.75,0,0,1,1.5,0v36A.75.75,0,0,1,20.56,124.12Z"/><circle class="cls-2" cx="20.59" cy="20.57" r="20.56" transform="translate(-8.07 15.53) rotate(-35)"/><path class="cls-2" d="M109.36,111.56a20.56,20.56,0,1,1-33.69,23.59l-30.79-44A20.56,20.56,0,0,1,78.58,67.57Z"/><path class="cls-2" d="M145.91,51.12h25.61a2.57,2.57,0,0,0,0-5.14H145.91a2.57,2.57,0,1,0,0,5.14Z"/><path class="cls-2" d="M145.91,5.14h7.66v7.79l-.05,0-9,6.32a2.57,2.57,0,0,0,2.95,4.21l7.23-5.06a10.24,10.24,0,0,0,19.42-4.59V2.64s0,0,0-.07A2.57,2.57,0,0,0,171.51,0H145.91a2.57,2.57,0,1,0,0,5.14Zm23,8.71a5.12,5.12,0,1,1-10.23,0V5.14h10.23Z"/><path class="cls-2" d="M171.51,118.28a2.57,2.57,0,0,0-2.57,2.57v7.6h-23a2.57,2.57,0,0,0-2.57,2.57h0a2.57,2.57,0,0,0,2.57,2.57h23v7.78a2.57,2.57,0,0,0,5.14,0V131h0V120.85A2.57,2.57,0,0,0,171.51,118.28Z"/><path class="cls-2" d="M158.71,72.63a15.65,15.65,0,1,0,15.65,15.65A15.67,15.67,0,0,0,158.71,72.63Zm0,26.16a10.51,10.51,0,1,1,10.51-10.51A10.52,10.52,0,0,1,158.71,98.79Z"/></g></g></svg>