<?xml version="1.0" encoding="UTF-8" standalone="no"?>
<!-- Generator: Adobe Illustrator 21.0.0, SVG Export Plug-In . SVG Version: 6.00 Build 0)  -->

<svg
   xmlns:dc="http://purl.org/dc/elements/1.1/"
   xmlns:cc="http://creativecommons.org/ns#"
   xmlns:rdf="http://www.w3.org/1999/02/22-rdf-syntax-ns#"
   xmlns:svg="http://www.w3.org/2000/svg"
   xmlns="http://www.w3.org/2000/svg"
   xmlns:sodipodi="http://sodipodi.sourceforge.net/DTD/sodipodi-0.dtd"
   xmlns:inkscape="http://www.inkscape.org/namespaces/inkscape"
   version="1.1"
   id="Layer_1"
   x="0px"
   y="0px"
   viewBox="0 0 163.7 144.10001"
   xml:space="preserve"
   sodipodi:docname="riot-im-logo-2.svg"
   width="163.7"
   height="144.10001"
   inkscape:version="0.92.2 (5c3e80d, 2017-08-06)"><metadata
     id="metadata64"><rdf:RDF><cc:Work
         rdf:about=""><dc:format>image/svg+xml</dc:format><dc:type
           rdf:resource="http://purl.org/dc/dcmitype/StillImage" /></cc:Work></rdf:RDF></metadata><defs
     id="defs62" /><sodipodi:namedview
     pagecolor="#ffffff"
     bordercolor="#666666"
     borderopacity="1"
     objecttolerance="10"
     gridtolerance="10"
     guidetolerance="10"
     inkscape:pageopacity="0"
     inkscape:pageshadow="2"
     inkscape:window-width="640"
     inkscape:window-height="480"
     id="namedview60"
     showgrid="false"
     inkscape:zoom="0.98333333"
     inkscape:cx="81.9"
     inkscape:cy="72"
     inkscape:window-x="0"
     inkscape:window-y="0"
     inkscape:window-maximized="0"
     inkscape:current-layer="Layer_1" /><style
     type="text/css"
     id="style2">
	.st0{fill:#F69E98;}
	.st1{fill:#764D80;}
</style><g
     id="Layer_3"
     transform="translate(-38.1,-47.9)"><g
       id="g26"><g
         id="g24"><g
           id="g12"><path
             class="st0"
             d="M 183.6,80.7 H 200 c 0.9,0 1.6,-0.7 1.6,-1.6 0,-0.9 -0.7,-1.6 -1.6,-1.6 h -16.4 c -0.9,0 -1.6,0.7 -1.6,1.6 0,0.9 0.7,1.6 1.6,1.6 z"
             id="path4"
             inkscape:connector-curvature="0"
             style="fill:#f69e98" /><path
             class="st0"
             d="m 183.6,51.3 h 4.9 v 5 0 l -5.8,4 c -0.7,0.5 -0.9,1.5 -0.4,2.3 0.5,0.7 1.5,0.9 2.3,0.4 l 4.6,-3.2 c 1.1,2.2 3.3,3.6 5.9,3.6 3.6,0 6.6,-3 6.6,-6.6 v -7.2 0 c 0,-0.6 -0.3,-1.1 -0.7,-1.4 -0.3,-0.2 -0.6,-0.3 -0.9,-0.3 v 0 h -9.8 -6.5 c -0.9,0 -1.6,0.7 -1.6,1.6 -0.2,1.1 0.5,1.8 1.4,1.8 z m 14.7,5.6 c 0,1.8 -1.5,3.3 -3.3,3.3 -1.8,0 -3.3,-1.5 -3.3,-3.3 v -5.6 h 6.5 z"
             id="path6"
             inkscape:connector-curvature="0"
             style="fill:#f69e98" /><path
             class="st0"
             d="m 200,123.7 c -0.9,0 -1.6,0.7 -1.6,1.6 v 4.9 h -14.7 c -0.9,0 -1.6,0.7 -1.6,1.6 v 0 c 0,0.9 0.7,1.6 1.6,1.6 h 14.7 v 5 c 0,0.9 0.7,1.6 1.6,1.6 0.9,0 1.6,-0.7 1.6,-1.6 v -6.6 0 -6.5 c 0,-0.9 -0.7,-1.6 -1.6,-1.6 z"
             id="path8"
             inkscape:connector-curvature="0"
             style="fill:#f69e98" /><path
             class="st0"
             d="m 191.8,94.5 c -5.5,0 -10,4.5 -10,10 0,5.5 4.5,10 10,10 5.5,0 10,-4.5 10,-10 0,-5.5 -4.5,-10 -10,-10 z m 0,16.7 c -3.7,0 -6.7,-3 -6.7,-6.7 0,-3.7 3,-6.7 6.7,-6.7 3.7,0 6.7,3 6.7,6.7 0,3.7 -3,6.7 -6.7,6.7 z"
             id="path10"
             inkscape:connector-curvature="0"
             style="fill:#f69e98" /></g><g
           id="g18"><path
             class="st0"
             d="m 201.1,157 c -0.3,-0.3 -0.6,-0.4 -1.1,-0.4 h -16.5 c -0.4,0 -0.7,0.1 -1.1,0.4 -0.3,0.3 -0.4,0.6 -0.4,1.1 0,0.4 0.1,0.7 0.4,1.1 0.3,0.4 0.6,0.4 1.1,0.4 H 200 c 0.3,0 0.7,-0.1 1.1,-0.4 0.3,-0.3 0.4,-0.6 0.4,-1.1 0,-0.4 -0.1,-0.8 -0.4,-1.1 z"
             id="path14"
             inkscape:connector-curvature="0"
             style="fill:#f69e98" /><path
             class="st0"
             d="m 201.5,175.3 v -0.2 c 0,-0.4 -0.1,-0.8 -0.4,-1.1 -0.3,-0.3 -0.6,-0.4 -1.1,-0.4 h -16.5 c -0.3,0 -0.7,0 -1.1,0.3 -0.3,0.3 -0.4,0.6 -0.4,1.1 0,0.5 0.1,0.7 0.4,1.1 0.3,0.4 0.6,0.4 1.1,0.4 h 12.1 l -7.3,4.9 c -0.4,0.4 -0.6,0.8 -0.6,1.3 0,0.5 0.3,1 0.7,1.3 l 7.3,5 h -12.1 c -0.3,0 -0.7,0.1 -1.1,0.4 -0.3,0.3 -0.4,0.6 -0.4,1.1 0,0.5 0.1,0.7 0.4,1.1 0.3,0.4 0.6,0.4 1.1,0.4 H 200 c 0.4,0 0.7,-0.1 1.1,-0.4 0.4,-0.3 0.4,-0.6 0.4,-1.1 v -0.2 c 0,-0.5 -0.1,-1.1 -0.7,-1.4 l -9.2,-6.1 9.2,-6.1 c 0.4,-0.3 0.7,-0.8 0.7,-1.4 z"
             id="path16"
             inkscape:connector-curvature="0"
             style="fill:#f69e98" /></g><g
           id="g22"><path
             class="st0"
             d="m 190.7,146.1 c 0.3,0 0.6,0.1 0.9,0.4 0.2,0.2 0.4,0.5 0.4,0.9 0,0.3 -0.1,0.6 -0.4,0.9 -0.2,0.2 -0.5,0.4 -0.9,0.4 h -0.5 c -0.3,0 -0.6,-0.1 -0.9,-0.4 -0.2,-0.2 -0.4,-0.5 -0.4,-0.9 0,-0.4 0.1,-0.7 0.4,-0.9 0.2,-0.2 0.5,-0.4 0.9,-0.4 z"
             id="path20"
             inkscape:connector-curvature="0"
             style="fill:#f69e98" /></g></g></g></g><g
     id="g57"
     transform="translate(-38.1,-47.9)"><path
       class="st1"
       d="M 99.9,48 H 58.7 c -11.4,0 -20.6,9.2 -20.6,20.6 0,0 0,0 0,0 v 102.8 c 0,11.4 9.2,20.6 20.6,20.6 11.4,0 20.6,-9.2 20.6,-20.6 v -20.6 h 20.5 c 28.4,0 51.4,-23 51.4,-51.4 C 151.2,71 128.2,48 99.9,48 Z"
       id="path29"
       inkscape:connector-curvature="0"
       style="fill:#764d80" /><path
       class="st0"
       d="m 58.7,187.6 c -8.9,0 -16.2,-7.2 -16.2,-16.2 V 68.6 c 0,-8.9 7.1,-16.1 16,-16.2 h 41.3 c 26,0 47,21 47,47 0,26 -21,47 -47,47 H 74.9 v 25 c 0,9 -7.2,16.2 -16.2,16.2 z M 58.6,53.9 c -8,0.1 -14.5,6.6 -14.5,14.7 v 102.8 c 0,8.1 6.6,14.7 14.7,14.7 8.1,0 14.7,-6.6 14.7,-14.7 v -26.5 h 26.4 c 25.1,0 45.5,-20.4 45.5,-45.5 0,-25.1 -20.4,-45.5 -45.5,-45.5 0,0 -41.3,0 -41.3,0 z"
       id="path31"
       inkscape:connector-curvature="0"
       style="fill:#f69e98" /><path
       class="st0"
       d="m 58.7,182.4 c -6.1,0 -11,-4.9 -11,-11 V 68.6 c 0,-6 4.8,-10.8 10.8,-11 h 41.3 c 23.1,0 41.9,18.7 41.9,41.9 0,23.2 -18.7,41.8 -41.9,41.8 h -30 v 30.1 c 0,6.1 -4.9,11 -11.1,11 0.1,0 0.1,0 0,0 z M 58.5,59 c -5.2,0.1 -9.3,4.4 -9.3,9.6 v 102.8 c -0.2,5.3 4,9.7 9.2,9.8 5.2,0.1 9.7,-4 9.8,-9.2 0,-0.2 0,-0.4 0,-0.6 v -31.6 h 31.6 c 22.3,0 40.3,-18.1 40.3,-40.4 0,-22.3 -18.1,-40.3 -40.3,-40.3 z"
       id="path33"
       inkscape:connector-curvature="0"
       style="fill:#f69e98" /><path
       class="st0"
       d="m 58.7,177.3 c -3.2,0 -5.9,-2.6 -5.9,-5.9 V 68.6 c 0,-3.1 2.5,-5.7 5.6,-5.9 h 41.4 c 20.3,0 36.7,16.4 36.7,36.7 0,20.3 -16.4,36.7 -36.7,36.7 H 64.6 v 35.2 c 0,3.3 -2.6,6 -5.9,6 z M 58.5,64.2 c -2.3,0.2 -4.1,2.1 -4.1,4.4 v 102.8 c 0,2.4 2,4.4 4.4,4.4 2.4,0 4.4,-2 4.4,-4.4 v -36.8 h 36.7 c 19.4,0 35.2,-15.8 35.2,-35.2 0,-19.4 -15.8,-35.2 -35.2,-35.2 z"
       id="path35"
       inkscape:connector-curvature="0"
       style="fill:#f69e98" /><path
       class="st0"
       d="M 99.9,131 H 58 V 67.9 h 41.9 c 17.4,0 31.6,14.1 31.6,31.6 0,17.5 -14.2,31.5 -31.6,31.5 z M 59.5,129.5 H 99.9 C 116.5,129.5 130,116 130,99.4 130,82.8 116.5,69.3 99.9,69.3 H 59.5 Z"
       id="path37"
       inkscape:connector-curvature="0"
       style="fill:#f69e98" /><path
       class="st0"
       d="M 99.9,125.9 H 63.2 V 73 h 36.7 c 14.6,0.3 26.2,12.3 25.9,26.9 -0.3,14.3 -11.8,25.7 -25.9,26 z M 64.6,124.4 H 99.8 C 113.6,124.1 124.5,112.7 124.2,99 123.9,85.6 113.2,74.8 99.8,74.6 H 64.6 Z"
       id="path39"
       inkscape:connector-curvature="0"
       style="fill:#f69e98" /><path
       class="st0"
       d="M 99.9,120.7 H 68.3 V 78.2 h 31.6 c 11.8,0.3 21.1,10 20.8,21.7 -0.3,11.4 -9.5,20.6 -20.8,20.8 z M 69.8,119.2 H 99.9 C 110.8,119 119.5,109.9 119.2,99 119,88.4 110.4,79.9 99.9,79.7 H 69.8 Z"
       id="path41"
       inkscape:connector-curvature="0"
       style="fill:#f69e98" /><path
       class="st0"
       d="M 99.9,115.6 H 73.4 V 83.3 h 26.4 c 8.9,0 16.1,7.2 16.1,16.1 0,8.9 -7.1,16.2 -16,16.2 z m -25,-1.6 h 24.9 c 8.1,0 14.6,-6.6 14.6,-14.6 0,-8 -6.6,-14.6 -14.6,-14.6 v 0 H 74.9 Z"
       id="path43"
       inkscape:connector-curvature="0"
       style="fill:#f69e98" /><path
       class="st0"
       d="M 99.9,110.4 H 78.6 v -22 h 21.3 c 6.1,0 11,4.9 11,11 0,6.1 -5,11 -11,11 z m -19.8,-1.5 h 19.8 c 5.2,0 9.5,-4.3 9.5,-9.5 0,-5.2 -4.3,-9.5 -9.5,-9.5 H 80.1 Z"
       id="path45"
       inkscape:connector-curvature="0"
       style="fill:#f69e98" /><path
       class="st0"
       d="M 99.9,105.3 H 83.7 V 93.6 h 16.1 c 3.2,0 5.9,2.6 5.9,5.9 0,3.3 -2.6,5.8 -5.8,5.8 0,0 0,0 0,0 z m -14.7,-1.5 h 14.7 c 2.4,0 4.4,-2 4.4,-4.4 0,-2.4 -2,-4.4 -4.4,-4.4 H 85.2 Z"
       id="path47"
       inkscape:connector-curvature="0"
       style="fill:#f69e98" /><path
       class="st0"
       d="m 99.4,100.2 h -9.3 c -0.4,0 -0.8,-0.3 -0.8,-0.8 0,-0.5 0.3,-0.8 0.8,-0.8 h 9.3 c 0.4,0 0.8,0.3 0.8,0.8 0,0.5 -0.4,0.8 -0.8,0.8 z"
       id="path49"
       inkscape:connector-curvature="0"
       style="fill:#f69e98" /><path
       class="st0"
       d="m 58.7,172.2 c -0.4,0 -0.8,-0.3 -0.8,-0.8 v -36 c 0,-0.4 0.3,-0.8 0.8,-0.8 0.4,0 0.8,0.3 0.8,0.8 v 36 c 0,0.4 -0.3,0.8 -0.8,0.8 z"
       id="path51"
       inkscape:connector-curvature="0"
       style="fill:#f69e98" /><circle
       transform="matrix(0.8192,-0.5736,0.5736,0.8192,-28.7215,46.1209)"
       class="st0"
       cx="58.799999"
       cy="68.599998"
       id="ellipse53"
       r="20.6"
       style="fill:#f69e98" /><path
       class="st0"
       d="m 147.5,159.6 c 6.5,9.3 4.3,22.1 -5.1,28.6 -9.4,6.5 -22.1,4.3 -28.6,-5.1 L 83,139.1 c -6.5,-9.3 -4.2,-22.1 5.1,-28.6 9.3,-6.5 22.1,-4.2 28.6,5.1 z"
       id="path55"
       inkscape:connector-curvature="0"
       style="fill:#f69e98" /></g></svg>