<svg xmlns="http://www.w3.org/2000/svg" viewBox="0 0 174.99 143.93"><defs><style>.cls-1{fill:#764d80;}.cls-2{fill:#7dc8a2;}.cls-3{fill:#afdbc5;}</style></defs><title>Asset 4</title><g id="Layer_2" data-name="Layer 2"><g id="Design"><path class="cls-1" d="M146.53,51.12h25.61a2.57,2.57,0,0,0,0-5.14H146.53a2.57,2.57,0,0,0,0,5.14Z"/><path class="cls-1" d="M146.53,5.14h7.66v7.79l-.05,0-9,6.32a2.57,2.57,0,0,0,2.95,4.21l7.23-5.06a10.24,10.24,0,0,0,19.42-4.59V2.64s0,0,0-.07A2.57,2.57,0,0,0,172.14,0H146.53a2.57,2.57,0,0,0,0,5.14Zm23,8.71a5.12,5.12,0,1,1-10.23,0V5.14h10.23Z"/><path class="cls-1" d="M172.14,118.28a2.57,2.57,0,0,0-2.57,2.57v7.6h-23A2.57,2.57,0,0,0,144,131h0a2.57,2.57,0,0,0,2.57,2.57h23v7.78a2.57,2.57,0,0,0,5.14,0V131h0V120.85A2.57,2.57,0,0,0,172.14,118.28Z"/><path class="cls-1" d="M159.34,72.63A15.65,15.65,0,1,0,175,88.28,15.67,15.67,0,0,0,159.34,72.63Zm0,26.16a10.51,10.51,0,1,1,10.51-10.51A10.52,10.52,0,0,1,159.34,98.79Z"/><path class="cls-2" d="M62.33,0H21.22A20.56,20.56,0,0,0,.66,20.57v102.8a20.56,20.56,0,0,0,41.12,0V102.79H62.33A51.38,51.38,0,0,0,62.33,0Z"/><path class="cls-3" d="M21.22,138.81A15.45,15.45,0,0,1,5.79,123.37V20.57A15.45,15.45,0,0,1,21.09,5.14H62.33a46.26,46.26,0,0,1,0,92.51H36.65v25.71A15.45,15.45,0,0,1,21.22,138.81Z"/><path class="cls-2" d="M21.22,133.68a10.32,10.32,0,0,1-10.3-10.3V20.57A10.33,10.33,0,0,1,21,10.27H62.33a41.13,41.13,0,0,1,0,82.26H31.52v30.84A10.32,10.32,0,0,1,21.22,133.68Z"/><path class="cls-3" d="M21.22,128.55A5.18,5.18,0,0,1,16,123.37V20.57a5.2,5.2,0,0,1,5-5.17H62.33a36,36,0,0,1,0,72H26.39v36A5.18,5.18,0,0,1,21.22,128.55Z"/><path class="cls-2" d="M21.27,82.28H62.33a30.87,30.87,0,0,0,0-61.75H21.22Z"/><path class="cls-3" d="M26.39,77.15l0-51.49h36a25.75,25.75,0,0,1,0,51.49Z"/><path class="cls-2" d="M31.51,72l0-41.23H62.33a20.62,20.62,0,0,1,0,41.23Z"/><path class="cls-3" d="M36.64,66.9l0-31H62.33a15.49,15.49,0,0,1,0,31Z"/><path class="cls-2" d="M41.76,61.77l0-20.72H62.33a10.36,10.36,0,0,1,0,20.72Z"/><path class="cls-3" d="M46.89,56.64V46.18H62.33a5.23,5.23,0,0,1,0,10.47Z"/><circle class="cls-1" cx="20.56" cy="20.57" r="20.56" transform="translate(-8.08 15.51) rotate(-35)"/><path class="cls-1" d="M109.34,111.57a20.56,20.56,0,1,1-33.69,23.59l-30.79-44A20.56,20.56,0,0,1,78.55,67.58Z"/></g></g></svg>