<?xml version="1.0" encoding="UTF-8" standalone="no"?>
<!-- Generator: Adobe Illustrator 21.0.0, SVG Export Plug-In . SVG Version: 6.00 Build 0)  -->

<svg
   xmlns:dc="http://purl.org/dc/elements/1.1/"
   xmlns:cc="http://creativecommons.org/ns#"
   xmlns:rdf="http://www.w3.org/1999/02/22-rdf-syntax-ns#"
   xmlns:svg="http://www.w3.org/2000/svg"
   xmlns="http://www.w3.org/2000/svg"
   xmlns:sodipodi="http://sodipodi.sourceforge.net/DTD/sodipodi-0.dtd"
   xmlns:inkscape="http://www.inkscape.org/namespaces/inkscape"
   version="1.1"
   id="Layer_1"
   x="0px"
   y="0px"
   viewBox="0 0 163.89999 144.10001"
   xml:space="preserve"
   sodipodi:docname="riot-im-logo-4.svg"
   width="163.89999"
   height="144.10001"
   inkscape:version="0.92.2 (5c3e80d, 2017-08-06)"><metadata
     id="metadata70"><rdf:RDF><cc:Work
         rdf:about=""><dc:format>image/svg+xml</dc:format><dc:type
           rdf:resource="http://purl.org/dc/dcmitype/StillImage" /></cc:Work></rdf:RDF></metadata><defs
     id="defs68" /><sodipodi:namedview
     pagecolor="#ffffff"
     bordercolor="#666666"
     borderopacity="1"
     objecttolerance="10"
     gridtolerance="10"
     guidetolerance="10"
     inkscape:pageopacity="0"
     inkscape:pageshadow="2"
     inkscape:window-width="640"
     inkscape:window-height="480"
     id="namedview66"
     showgrid="false"
     inkscape:zoom="0.98333333"
     inkscape:cx="82.1"
     inkscape:cy="72"
     inkscape:window-x="0"
     inkscape:window-y="0"
     inkscape:window-maximized="0"
     inkscape:current-layer="Layer_1" /><style
     type="text/css"
     id="style2">
	.st0{fill:#C7BDCD;}
	.st1{fill:#E45E5D;}
	.st2{fill:#F69E98;}
</style><g
     id="Layer_3"
     transform="translate(-37.9,-47.9)"><g
       id="g26"><g
         id="g24"><g
           id="g12"><path
             class="st0"
             d="M 183.6,80.7 H 200 c 0.9,0 1.6,-0.7 1.6,-1.6 0,-0.9 -0.7,-1.6 -1.6,-1.6 h -16.4 c -0.9,0 -1.6,0.7 -1.6,1.6 0,0.9 0.7,1.6 1.6,1.6 z"
             id="path4"
             inkscape:connector-curvature="0"
             style="fill:#c7bdcd" /><path
             class="st0"
             d="m 183.6,51.3 h 4.9 v 5 0 l -5.8,4 c -0.7,0.5 -0.9,1.5 -0.4,2.3 0.5,0.7 1.5,0.9 2.3,0.4 l 4.6,-3.2 c 1.1,2.2 3.3,3.6 5.9,3.6 3.6,0 6.6,-3 6.6,-6.6 v -7.2 0 c 0,-0.6 -0.3,-1.1 -0.7,-1.4 -0.3,-0.2 -0.6,-0.3 -0.9,-0.3 v 0 h -9.8 -6.5 c -0.9,0 -1.6,0.7 -1.6,1.6 -0.2,1.1 0.5,1.8 1.4,1.8 z m 14.7,5.6 c 0,1.8 -1.5,3.3 -3.3,3.3 -1.8,0 -3.3,-1.5 -3.3,-3.3 v -5.6 h 6.5 z"
             id="path6"
             inkscape:connector-curvature="0"
             style="fill:#c7bdcd" /><path
             class="st0"
             d="m 200,123.7 c -0.9,0 -1.6,0.7 -1.6,1.6 v 4.9 h -14.7 c -0.9,0 -1.6,0.7 -1.6,1.6 v 0 c 0,0.9 0.7,1.6 1.6,1.6 h 14.7 v 5 c 0,0.9 0.7,1.6 1.6,1.6 0.9,0 1.6,-0.7 1.6,-1.6 v -6.6 0 -6.5 c 0,-0.9 -0.7,-1.6 -1.6,-1.6 z"
             id="path8"
             inkscape:connector-curvature="0"
             style="fill:#c7bdcd" /><path
             class="st0"
             d="m 191.8,94.5 c -5.5,0 -10,4.5 -10,10 0,5.5 4.5,10 10,10 5.5,0 10,-4.5 10,-10 0,-5.5 -4.5,-10 -10,-10 z m 0,16.7 c -3.7,0 -6.7,-3 -6.7,-6.7 0,-3.7 3,-6.7 6.7,-6.7 3.7,0 6.7,3 6.7,6.7 0,3.7 -3,6.7 -6.7,6.7 z"
             id="path10"
             inkscape:connector-curvature="0"
             style="fill:#c7bdcd" /></g><g
           id="g18"><path
             class="st0"
             d="m 201.1,157 c -0.3,-0.3 -0.6,-0.4 -1.1,-0.4 h -16.5 c -0.4,0 -0.7,0.1 -1.1,0.4 -0.3,0.3 -0.4,0.6 -0.4,1.1 0,0.4 0.1,0.7 0.4,1.1 0.3,0.4 0.6,0.4 1.1,0.4 H 200 c 0.3,0 0.7,-0.1 1.1,-0.4 0.3,-0.3 0.4,-0.6 0.4,-1.1 0,-0.4 -0.1,-0.8 -0.4,-1.1 z"
             id="path14"
             inkscape:connector-curvature="0"
             style="fill:#c7bdcd" /><path
             class="st0"
             d="m 201.5,175.3 v -0.2 c 0,-0.4 -0.1,-0.8 -0.4,-1.1 -0.3,-0.3 -0.6,-0.4 -1.1,-0.4 h -16.5 c -0.3,0 -0.7,0 -1.1,0.3 -0.3,0.3 -0.4,0.6 -0.4,1.1 0,0.5 0.1,0.7 0.4,1.1 0.3,0.4 0.6,0.4 1.1,0.4 h 12.1 l -7.3,4.9 c -0.4,0.4 -0.6,0.8 -0.6,1.3 0,0.5 0.3,1 0.7,1.3 l 7.3,5 h -12.1 c -0.3,0 -0.7,0.1 -1.1,0.4 -0.3,0.3 -0.4,0.6 -0.4,1.1 0,0.5 0.1,0.7 0.4,1.1 0.3,0.4 0.6,0.4 1.1,0.4 H 200 c 0.4,0 0.7,-0.1 1.1,-0.4 0.4,-0.3 0.4,-0.6 0.4,-1.1 v -0.2 c 0,-0.5 -0.1,-1.1 -0.7,-1.4 l -9.2,-6.1 9.2,-6.1 c 0.4,-0.3 0.7,-0.8 0.7,-1.4 z"
             id="path16"
             inkscape:connector-curvature="0"
             style="fill:#c7bdcd" /></g><g
           id="g22"><path
             class="st0"
             d="m 190.7,146.1 c 0.3,0 0.6,0.1 0.9,0.4 0.2,0.2 0.4,0.5 0.4,0.9 0,0.3 -0.1,0.6 -0.4,0.9 -0.2,0.2 -0.5,0.4 -0.9,0.4 h -0.5 c -0.3,0 -0.6,-0.1 -0.9,-0.4 -0.2,-0.2 -0.4,-0.5 -0.4,-0.9 0,-0.4 0.1,-0.7 0.4,-0.9 0.2,-0.2 0.5,-0.4 0.9,-0.4 z"
             id="path20"
             inkscape:connector-curvature="0"
             style="fill:#c7bdcd" /></g></g></g></g><g
     id="g63"
     transform="translate(-37.9,-47.9)"><path
       class="st1"
       d="M 99.6,48 H 58.5 c -11.4,0 -20.6,9.2 -20.6,20.6 0,0 0,0 0,0 v 102.8 c 0,11.4 9.2,20.6 20.6,20.6 11.4,0 20.6,-9.2 20.6,-20.6 V 150.8 H 99.6 C 128,150.8 151,127.8 151,99.4 151,71 128,48 99.6,48 Z"
       id="path29"
       inkscape:connector-curvature="0"
       style="fill:#e45e5d" /><path
       class="st2"
       d="m 40.7,181.7 c 1.1,1.9 2.6,3.7 4.2,5.1 H 72 c 1.7,-1.5 3.1,-3.2 4.2,-5.1 z"
       id="path31"
       inkscape:connector-curvature="0"
       style="fill:#f69e98" /><path
       class="st2"
       d="m 37.9,140.6 v 5.1 h 84 c 3,-1.4 5.8,-3.2 8.4,-5.1 z"
       id="path33"
       inkscape:connector-curvature="0"
       style="fill:#f69e98" /><rect
       x="37.900002"
       y="150.8"
       class="st2"
       width="41.099998"
       height="5.0999999"
       id="rect35"
       style="fill:#f69e98" /><rect
       x="37.900002"
       y="161.10001"
       class="st2"
       width="41.099998"
       height="5.0999999"
       id="rect37"
       style="fill:#f69e98" /><path
       class="st2"
       d="m 38.6,63.4 h 97.6 c -1.8,-1.9 -3.8,-3.6 -5.9,-5.1 H 40.7 c -0.9,1.6 -1.6,3.3 -2.1,5.1 z"
       id="path39"
       inkscape:connector-curvature="0"
       style="fill:#f69e98" /><path
       class="st2"
       d="m 37.9,171.4 v 0 c 0,1.7 0.2,3.4 0.7,5.1 h 39.8 c 0.4,-1.7 0.7,-3.4 0.7,-5.1 0,0 -41.2,0 -41.2,0 z"
       id="path41"
       inkscape:connector-curvature="0"
       style="fill:#f69e98" /><path
       class="st2"
       d="m 37.9,104.6 h 112.8 c 0.2,-1.7 0.3,-3.4 0.3,-5.1 H 37.9 Z"
       id="path43"
       inkscape:connector-curvature="0"
       style="fill:#f69e98" /><path
       class="st2"
       d="m 37.9,130.3 v 5.1 h 98.3 c 1.6,-1.6 3.1,-3.3 4.4,-5.1 z"
       id="path45"
       inkscape:connector-curvature="0"
       style="fill:#f69e98" /><path
       class="st2"
       d="m 37.9,68.6 v 5.1 H 144 c -1,-1.8 -2.2,-3.5 -3.4,-5.1 z"
       id="path47"
       inkscape:connector-curvature="0"
       style="fill:#f69e98" /><path
       class="st2"
       d="m 58.7,48 h -0.2 c -5,0 -9.8,1.8 -13.6,5.1 h 77 C 114.9,49.7 107.3,48 99.6,48 Z"
       id="path49"
       inkscape:connector-curvature="0"
       style="fill:#f69e98" /><path
       class="st2"
       d="M 37.9,78.9 V 84 h 110.7 c -0.6,-1.7 -1.2,-3.5 -1.9,-5.1 z"
       id="path51"
       inkscape:connector-curvature="0"
       style="fill:#f69e98" /><path
       class="st2"
       d="m 37.9,120 v 5.1 H 144 c 1,-1.7 1.8,-3.4 2.6,-5.1 z"
       id="path53"
       inkscape:connector-curvature="0"
       style="fill:#f69e98" /><path
       class="st2"
       d="m 37.9,109.7 v 5.1 h 110.7 c 0.5,-1.7 1,-3.4 1.3,-5.1 z"
       id="path55"
       inkscape:connector-curvature="0"
       style="fill:#f69e98" /><path
       class="st2"
       d="m 37.9,89.3 v 5.1 h 112.8 c -0.2,-1.7 -0.4,-3.4 -0.8,-5.1 z"
       id="path57"
       inkscape:connector-curvature="0"
       style="fill:#f69e98" /><circle
       transform="matrix(0.8192,-0.5736,0.5736,0.8192,-28.7665,45.9782)"
       class="st0"
       cx="58.5"
       cy="68.599998"
       id="ellipse59"
       r="20.6"
       style="fill:#c7bdcd" /><path
       class="st0"
       d="m 147.3,159.6 c 6.5,9.3 4.3,22.1 -5.1,28.6 -9.4,6.5 -22.1,4.3 -28.6,-5.1 l -30.8,-44 c -6.5,-9.3 -4.2,-22.1 5.1,-28.6 9.3,-6.5 22.1,-4.2 28.6,5.1 z"
       id="path61"
       inkscape:connector-curvature="0"
       style="fill:#c7bdcd" /></g></svg>