<svg xmlns="http://www.w3.org/2000/svg" viewBox="0 0 174.99 143.93"><defs><style type="text/css">.cls-1{fill:#764d80;}.cls-2{fill:#afdbc5;}</style></defs><title>Asset 1</title><g id="Layer_2" data-name="Layer 2"><g id="Design"><path class="cls-1" d="M61.67,0H20.56A20.56,20.56,0,0,0,0,20.57v102.8a20.56,20.56,0,0,0,41.12,0V102.79H61.67A51.38,51.38,0,0,0,61.67,0Z"/><circle class="cls-2" cx="20.59" cy="20.57" r="20.56" transform="matrix(0.82, -0.57, 0.57, 0.82, -8.07, 15.53)"/><path class="cls-2" d="M109.36,111.56a20.56,20.56,0,1,1-33.69,23.59l-30.79-44A20.56,20.56,0,0,1,78.58,67.57Z"/><path class="cls-2" d="M146.53,51.12h25.61a2.57,2.57,0,0,0,0-5.14H146.53a2.57,2.57,0,0,0,0,5.14Z"/><path class="cls-2" d="M146.53,5.14h7.66v7.79l-.05,0-9,6.32a2.57,2.57,0,1,0,2.95,4.21l7.23-5.06a10.24,10.24,0,0,0,19.42-4.59V2.64s0,0,0-.07A2.57,2.57,0,0,0,172.14,0H146.53a2.57,2.57,0,0,0,0,5.14Zm23,8.71a5.12,5.12,0,1,1-10.23,0V5.14h10.23Z"/><path class="cls-2" d="M172.14,118.28a2.57,2.57,0,0,0-2.57,2.57v7.6h-23A2.57,2.57,0,0,0,144,131h0a2.57,2.57,0,0,0,2.57,2.57h23v7.78a2.57,2.57,0,0,0,5.14,0V131h0V120.85A2.57,2.57,0,0,0,172.14,118.28Z"/><path class="cls-2" d="M159.34,72.63A15.65,15.65,0,1,0,175,88.28,15.67,15.67,0,0,0,159.34,72.63Zm0,26.16a10.51,10.51,0,1,1,10.51-10.51A10.52,10.52,0,0,1,159.34,98.79Z"/></g></g></svg>