<svg width="18" height="18" viewBox="0 0 18 18" fill="none" xmlns="http://www.w3.org/2000/svg">
<path fill-rule="evenodd" clip-rule="evenodd" d="M8.56492 4.7659C9.60808 4.66254 10.5519 5.05294 11.0122 5.90446C11.2091 6.26884 11.6642 6.40456 12.0286 6.20759C12.393 6.01062 12.5287 5.55555 12.3317 5.19116C11.5107 3.67245 9.89203 3.12706 8.41702 3.27321C5.91255 3.52137 4.83552 5.53838 5.27315 7.20425C5.50106 8.0718 6.01113 8.62683 6.61493 9H11.4496C11.299 8.9214 11.1451 8.85419 10.9923 8.7957C10.4784 8.59897 9.88735 8.4702 9.35846 8.35499L9.35839 8.35497C9.25076 8.33152 9.1457 8.30864 9.0444 8.28585C7.70219 7.98399 6.94756 7.6744 6.72393 6.82313C6.52759 6.07574 6.95155 4.92576 8.56492 4.7659ZM12.9372 11H11.3798C11.575 11.4977 11.5295 12.0072 11.267 12.3926C10.9822 12.8107 10.3242 13.25 8.98945 13.25C6.91808 13.25 6.30505 12.1319 6.22771 11.8222C6.12735 11.4203 5.72021 11.1759 5.31834 11.2763C4.91647 11.3766 4.67204 11.7838 4.7724 12.1856C5.02738 13.2066 6.27536 14.75 8.98945 14.75C10.6457 14.75 11.8569 14.1912 12.5068 13.237C12.9731 12.5523 13.0889 11.751 12.9372 11Z" fill="black"/>
<path d="M3.5 9L14.5 9" stroke="black" stroke-width="1.5" stroke-linecap="round" stroke-linejoin="round"/>
</svg>
