<?xml version="1.0" encoding="UTF-8" standalone="no"?>
<!--
Copyright (c) 2016, Missive
From https://github.com/missive/emoji-mart/blob/master/src/svgs/index.js
Licensed under BSD-3-Clause: https://github.com/missive/emoji-mart/blob/master/LICENSE
-->
<svg
    xmlns="http://www.w3.org/2000/svg"
    viewBox="0 0 24 24"
    width="24"
    height="24"
>
    <path d="M12 0C5.373 0 0 5.372 0 12c0 6.627 5.373 12 12 12 6.628 0 12-5.373 12-12 0-6.628-5.372-12-12-12m9.949 11H17.05c.224-2.527 1.232-4.773 1.968-6.113A9.966 9.966 0 0 1 21.949 11M13 11V2.051a9.945 9.945 0 0 1 4.432 1.564c-.858 1.491-2.156 4.22-2.392 7.385H13zm-2 0H8.961c-.238-3.165-1.536-5.894-2.393-7.385A9.95 9.95 0 0 1 11 2.051V11zm0 2v8.949a9.937 9.937 0 0 1-4.432-1.564c.857-1.492 2.155-4.221 2.393-7.385H11zm4.04 0c.236 3.164 1.534 5.893 2.392 7.385A9.92 9.92 0 0 1 13 21.949V13h2.04zM4.982 4.887C5.718 6.227 6.726 8.473 6.951 11h-4.9a9.977 9.977 0 0 1 2.931-6.113M2.051 13h4.9c-.226 2.527-1.233 4.771-1.969 6.113A9.972 9.972 0 0 1 2.051 13m16.967 6.113c-.735-1.342-1.744-3.586-1.968-6.113h4.899a9.961 9.961 0 0 1-2.931 6.113" />
</svg>
