<?xml version="1.0" encoding="UTF-8" standalone="no"?>
<!--
Copyright (c) 2016, Missive
From https://github.com/missive/emoji-mart/blob/master/src/svgs/index.js
Licensed under BSD-3-Clause: https://github.com/missive/emoji-mart/blob/master/LICENSE
-->
<svg
    xmlns="http://www.w3.org/2000/svg"
    viewBox="0 0 24 24"
    width="24"
    height="24"
>
    <path d="M17 4.978c-1.838 0-2.876.396-3.68.934.513-1.172 1.768-2.934 4.68-2.934a1 1 0 0 0 0-2c-2.921 0-4.629 1.365-5.547 2.512-.064.078-.119.162-.18.244C11.73 1.838 10.798.023 9.207.023 8.579.022 7.85.306 7 .978 5.027 2.54 5.329 3.902 6.492 4.999 3.609 5.222 0 7.352 0 12.969c0 4.582 4.961 11.009 9 11.009 1.975 0 2.371-.486 3-1 .629.514 1.025 1 3 1 4.039 0 9-6.418 9-11 0-5.953-4.055-8-7-8M8.242 2.546c.641-.508.943-.523.965-.523.426.169.975 1.405 1.357 3.055-1.527-.629-2.741-1.352-2.98-1.846.059-.112.241-.356.658-.686M15 21.978c-1.08 0-1.21-.109-1.559-.402l-.176-.146c-.367-.302-.816-.452-1.266-.452s-.898.15-1.266.452l-.176.146c-.347.292-.477.402-1.557.402-2.813 0-7-5.389-7-9.009 0-5.823 4.488-5.991 5-5.991 1.939 0 2.484.471 3.387 1.251l.323.276a1.995 1.995 0 0 0 2.58 0l.323-.276c.902-.78 1.447-1.251 3.387-1.251.512 0 5 .168 5 6 0 3.617-4.187 9-7 9" />
</svg>
