<?xml version="1.0" encoding="UTF-8" standalone="no"?>
<!--
Copyright (c) 2016, Missive
From https://github.com/missive/emoji-mart/blob/master/src/svgs/index.js
Licensed under BSD-3-Clause: https://github.com/missive/emoji-mart/blob/master/LICENSE
-->
<svg
    xmlns="http://www.w3.org/2000/svg"
    viewBox="0 0 24 24"
    width="24"
    height="24"
>
    <path d="M15.5 8a1.5 1.5 0 1 0 .001 3.001A1.5 1.5 0 0 0 15.5 8M8.5 8a1.5 1.5 0 1 0 .001 3.001A1.5 1.5 0 0 0 8.5 8" />
    <path d="M18.933 0h-.027c-.97 0-2.138.787-3.018 1.497-1.274-.374-2.612-.51-3.887-.51-1.285 0-2.616.133-3.874.517C7.245.79 6.069 0 5.093 0h-.027C3.352 0 .07 2.67.002 7.026c-.039 2.479.276 4.238 1.04 5.013.254.258.882.677 1.295.882.191 3.177.922 5.238 2.536 6.38.897.637 2.187.949 3.2 1.102C8.04 20.6 8 20.795 8 21c0 1.773 2.35 3 4 3 1.648 0 4-1.227 4-3 0-.201-.038-.393-.072-.586 2.573-.385 5.435-1.877 5.925-7.587.396-.22.887-.568 1.104-.788.763-.774 1.079-2.534 1.04-5.013C23.929 2.67 20.646 0 18.933 0M3.223 9.135c-.237.281-.837 1.155-.884 1.238-.15-.41-.368-1.349-.337-3.291.051-3.281 2.478-4.972 3.091-5.031.256.015.731.27 1.265.646-1.11 1.171-2.275 2.915-2.352 5.125-.133.546-.398.858-.783 1.313M12 22c-.901 0-1.954-.693-2-1 0-.654.475-1.236 1-1.602V20a1 1 0 1 0 2 0v-.602c.524.365 1 .947 1 1.602-.046.307-1.099 1-2 1m3-3.48v.02a4.752 4.752 0 0 0-1.262-1.02c1.092-.516 2.239-1.334 2.239-2.217 0-1.842-1.781-2.195-3.977-2.195-2.196 0-3.978.354-3.978 2.195 0 .883 1.148 1.701 2.238 2.217A4.8 4.8 0 0 0 9 18.539v-.025c-1-.076-2.182-.281-2.973-.842-1.301-.92-1.838-3.045-1.853-6.478l.023-.041c.496-.826 1.49-1.45 1.804-3.102 0-2.047 1.357-3.631 2.362-4.522C9.37 3.178 10.555 3 11.948 3c1.447 0 2.685.192 3.733.57 1 .9 2.316 2.465 2.316 4.48.313 1.651 1.307 2.275 1.803 3.102.035.058.068.117.102.178-.059 5.967-1.949 7.01-4.902 7.19m6.628-8.202c-.037-.065-.074-.13-.113-.195a7.587 7.587 0 0 0-.739-.987c-.385-.455-.648-.768-.782-1.313-.076-2.209-1.241-3.954-2.353-5.124.531-.376 1.004-.63 1.261-.647.636.071 3.044 1.764 3.096 5.031.027 1.81-.347 3.218-.37 3.235" />
</svg>
