<svg width="18" height="17" viewBox="0 0 18 17" fill="none" xmlns="http://www.w3.org/2000/svg">
<path fill-rule="evenodd" clip-rule="evenodd" d="M7.00262 5.60945C7.02444 6.31867 7.18204 6.99371 7.45029 7.60945H5.83106L5.49798 11.0235H8.60274L8.757 9.44233C9.29964 9.94168 9.94406 10.3321 10.6556 10.579L10.6122 11.0235H12.7966C13.3489 11.0235 13.7966 11.4712 13.7966 12.0235C13.7966 12.5758 13.3489 13.0235 12.7966 13.0235H10.4171L10.1823 15.4305C10.1287 15.9802 9.63959 16.3823 9.08991 16.3287C8.54024 16.2751 8.13811 15.786 8.19174 15.2363L8.40762 13.0235H5.30286L5.06803 15.4305C5.0144 15.9802 4.52533 16.3823 3.97565 16.3287C3.42598 16.2751 3.02385 15.786 3.07748 15.2363L3.29336 13.0235H1.6665C1.11422 13.0235 0.666504 12.5758 0.666504 12.0235C0.666504 11.4712 1.11422 11.0235 1.6665 11.0235H3.48848L3.82156 7.60945H2.26807C1.71578 7.60945 1.26807 7.16173 1.26807 6.60945C1.26807 6.05716 1.71578 5.60945 2.26807 5.60945H4.01668L4.28073 2.90297C4.33436 2.3533 4.82343 1.95117 5.37311 2.0048C5.92278 2.05842 6.32491 2.5475 6.27128 3.09717L6.02618 5.60945H7.00262Z" fill="#8D99A5"/>
<path fill-rule="evenodd" clip-rule="evenodd" d="M14.4224 5.37843C14.4224 6.50754 13.5071 7.42287 12.3779 7.42287C11.2488 7.42287 10.3335 6.50754 10.3335 5.37843C10.3335 4.24931 11.2488 3.33398 12.3779 3.33398C13.5071 3.33398 14.4224 4.24931 14.4224 5.37843ZM15.8496 7.45454C16.2133 6.84764 16.4224 6.13745 16.4224 5.37843C16.4224 3.14474 14.6116 1.33398 12.3779 1.33398C10.1443 1.33398 8.3335 3.14474 8.3335 5.37843C8.3335 7.61211 10.1443 9.42287 12.3779 9.42287C13.1369 9.42287 13.8471 9.21381 14.454 8.85013C14.4853 8.89368 14.5205 8.93528 14.5597 8.97444L16.293 10.7078C16.6835 11.0983 17.3167 11.0983 17.7072 10.7078C18.0977 10.3172 18.0977 9.68408 17.7072 9.29356L15.9739 7.56023C15.9347 7.52107 15.8931 7.48584 15.8496 7.45454Z" fill="#8D99A5"/>
</svg>
