<svg width="20" height="20" viewBox="0 0 20 20" fill="none" xmlns="http://www.w3.org/2000/svg">
<path d="M9.99999 15.8335C9.08333 15.8335 8.33333 16.5835 8.33333 17.5002C8.33333 18.4168 9.08333 19.1668 9.99999 19.1668C10.9167 19.1668 11.6667 18.4168 11.6667 17.5002C11.6667 16.5835 10.9167 15.8335 9.99999 15.8335ZM4.99999 0.833496C4.08333 0.833496 3.33333 1.5835 3.33333 2.50016C3.33333 3.41683 4.08333 4.16683 4.99999 4.16683C5.91666 4.16683 6.66666 3.41683 6.66666 2.50016C6.66666 1.5835 5.91666 0.833496 4.99999 0.833496ZM4.99999 5.8335C4.08333 5.8335 3.33333 6.5835 3.33333 7.50016C3.33333 8.41683 4.08333 9.16683 4.99999 9.16683C5.91666 9.16683 6.66666 8.41683 6.66666 7.50016C6.66666 6.5835 5.91666 5.8335 4.99999 5.8335ZM4.99999 10.8335C4.08333 10.8335 3.33333 11.5835 3.33333 12.5002C3.33333 13.4168 4.08333 14.1668 4.99999 14.1668C5.91666 14.1668 6.66666 13.4168 6.66666 12.5002C6.66666 11.5835 5.91666 10.8335 4.99999 10.8335ZM15 4.16683C15.9167 4.16683 16.6667 3.41683 16.6667 2.50016C16.6667 1.5835 15.9167 0.833496 15 0.833496C14.0833 0.833496 13.3333 1.5835 13.3333 2.50016C13.3333 3.41683 14.0833 4.16683 15 4.16683ZM9.99999 10.8335C9.08333 10.8335 8.33333 11.5835 8.33333 12.5002C8.33333 13.4168 9.08333 14.1668 9.99999 14.1668C10.9167 14.1668 11.6667 13.4168 11.6667 12.5002C11.6667 11.5835 10.9167 10.8335 9.99999 10.8335ZM15 10.8335C14.0833 10.8335 13.3333 11.5835 13.3333 12.5002C13.3333 13.4168 14.0833 14.1668 15 14.1668C15.9167 14.1668 16.6667 13.4168 16.6667 12.5002C16.6667 11.5835 15.9167 10.8335 15 10.8335ZM15 5.8335C14.0833 5.8335 13.3333 6.5835 13.3333 7.50016C13.3333 8.41683 14.0833 9.16683 15 9.16683C15.9167 9.16683 16.6667 8.41683 16.6667 7.50016C16.6667 6.5835 15.9167 5.8335 15 5.8335ZM9.99999 5.8335C9.08333 5.8335 8.33333 6.5835 8.33333 7.50016C8.33333 8.41683 9.08333 9.16683 9.99999 9.16683C10.9167 9.16683 11.6667 8.41683 11.6667 7.50016C11.6667 6.5835 10.9167 5.8335 9.99999 5.8335ZM9.99999 0.833496C9.08333 0.833496 8.33333 1.5835 8.33333 2.50016C8.33333 3.41683 9.08333 4.16683 9.99999 4.16683C10.9167 4.16683 11.6667 3.41683 11.6667 2.50016C11.6667 1.5835 10.9167 0.833496 9.99999 0.833496Z" fill="#8D99A5"/>
</svg>
