<svg width="16" height="16" viewBox="0 0 16 16" fill="none" xmlns="http://www.w3.org/2000/svg">
<path fill-rule="evenodd" clip-rule="evenodd" d="M6.82942 1.08081C6.8741 0.622751 6.539 0.215191 6.08094 0.170502C5.62287 0.125813 5.21531 0.460918 5.17062 0.918981L4.85379 4.16656H2.66669C2.20645 4.16656 1.83335 4.53966 1.83335 4.9999C1.83335 5.46013 2.20645 5.83323 2.66669 5.83323H4.69119L4.26842 10.1666H2.00002C1.53978 10.1666 1.16669 10.5397 1.16669 10.9999C1.16669 11.4601 1.53978 11.8332 2.00002 11.8332H4.10582L3.83729 14.5856C3.7926 15.0437 4.12771 15.4513 4.58577 15.496C5.04383 15.5406 5.45139 15.2055 5.49608 14.7475L5.7804 11.8332H9.77249L9.50396 14.5856C9.45927 15.0437 9.79437 15.4513 10.2524 15.496C10.7105 15.5406 11.1181 15.2055 11.1627 14.7475L11.4471 11.8332H14.3334C14.7936 11.8332 15.1667 11.4601 15.1667 10.9999C15.1667 10.5397 14.7936 10.1666 14.3334 10.1666H11.6097L12.0324 5.83323H14.3334C14.7936 5.83323 15.1667 5.46013 15.1667 4.9999C15.1667 4.53966 14.7936 4.16656 14.3334 4.16656H12.195L12.4961 1.08081C12.5408 0.622751 12.2057 0.215191 11.7476 0.170502C11.2895 0.125813 10.882 0.460918 10.8373 0.918981L10.5205 4.16656H6.52837L6.82942 1.08081ZM9.93509 10.1666L10.3579 5.83323H6.36577L5.943 10.1666H9.93509Z" fill="#737D8C"/>
</svg>
