<svg width="18" height="18" viewBox="0 0 18 18" fill="none" xmlns="http://www.w3.org/2000/svg">
<path fill-rule="evenodd" clip-rule="evenodd" d="M10.079 1.44694C9.48309 0.85102 8.51691 0.85102 7.92099 1.44694L1.44694 7.92099C0.85102 8.51691 0.85102 9.48309 1.44694 10.079L7.92099 16.5531C8.51691 17.149 9.48309 17.149 10.079 16.5531L16.5531 10.079C17.149 9.48309 17.149 8.51691 16.5531 7.92099L10.079 1.44694ZM9 4.25C9.41421 4.25 9.75 4.58579 9.75 5V11.1893L11.4697 9.46966C11.7626 9.17677 12.2374 9.17677 12.5303 9.46966C12.8232 9.76255 12.8232 10.2374 12.5303 10.5303L9.53259 13.5281C9.52504 13.5357 9.51732 13.5431 9.50945 13.5504C9.44549 13.6097 9.37372 13.6558 9.29761 13.6886C9.20637 13.7281 9.10574 13.75 9 13.75C8.89426 13.75 8.79363 13.7281 8.70239 13.6886C8.62599 13.6556 8.55396 13.6093 8.48983 13.5498C8.48224 13.5427 8.47481 13.5355 8.46752 13.5282L5.46967 10.5303C5.17678 10.2374 5.17678 9.76255 5.46967 9.46966C5.76256 9.17677 6.23744 9.17677 6.53033 9.46966L8.25 11.1893L8.25 5C8.25 4.58579 8.58579 4.25 9 4.25Z" fill="black"/>
</svg>
