<svg width="18" height="18" viewBox="0 0 18 18" fill="none" xmlns="http://www.w3.org/2000/svg">
<path fill-rule="evenodd" clip-rule="evenodd" d="M17 9C17 13.4183 13.4183 17 9 17C4.58172 17 1 13.4183 1 9C1 4.58172 4.58172 1 9 1C13.4183 1 17 4.58172 17 9ZM5.25 9C5.25 8.58579 5.58579 8.25 6 8.25H8.25V6C8.25 5.58579 8.58579 5.25 9 5.25C9.41421 5.25 9.75 5.58579 9.75 6V8.25H12C12.4142 8.25 12.75 8.58579 12.75 9C12.75 9.41421 12.4142 9.75 12 9.75H9.75V12C9.75 12.4142 9.41421 12.75 9 12.75C8.58579 12.75 8.25 12.4142 8.25 12V9.75H6C5.58579 9.75 5.25 9.41421 5.25 9Z" fill="black"/>
</svg>
