<svg width="18" height="18" viewBox="0 0 18 18" fill="none" xmlns="http://www.w3.org/2000/svg">
<path fill-rule="evenodd" clip-rule="evenodd" d="M1.53033 0.46967C1.23744 0.176777 0.762563 0.176777 0.46967 0.46967C0.176777 0.762563 0.176777 1.23744 0.46967 1.53033L4.3982 5.45886C3.81109 6.13809 3.38896 7.01315 3.21555 7.99387C1.96379 8.20624 1 9.465 1 10.981C1 12.6455 2.16209 14 3.59014 14H12.9393L16.4697 17.5303C16.7626 17.8232 17.2374 17.8232 17.5303 17.5303C17.8232 17.2374 17.8232 16.7626 17.5303 16.4697L1.53033 0.46967ZM17 10.9817C16.998 11.8303 16.6946 12.5985 16.2081 13.1475L7.07635 4.01569C7.18805 4.00529 7.30083 4 7.41451 4C8.75982 4 9.99711 4.71787 10.8072 5.94503C11.0993 5.85476 11.4011 5.80939 11.7058 5.80939C13.0303 5.80939 14.2138 6.65743 14.8199 8.00337C16.0519 8.23522 17 9.48685 17 10.9817Z" fill="black"/>
</svg>
