<svg width="18" height="16" viewBox="0 0 18 16" fill="none" xmlns="http://www.w3.org/2000/svg">
    <mask id="hole">
        <rect width="100%" height="100%" fill="white"/>
        <circle cx="13" cy="11" r="5" fill="black"/>
    </mask>
    <path fill-rule="evenodd" clip-rule="evenodd" d="M8.20757 14.9221C12.1427 14.9221 15.3327 11.7309 15.3327 7.79434C15.3327 3.85781 12.1427 0.666626 8.20757 0.666626C4.27246 0.666626 1.08243 3.85781 1.08243 7.79434C1.08243 8.89706 1.33275 9.9413 1.77965 10.8733L0.90483 13.7175C0.644577 14.5636 1.43951 15.3549 2.28444 15.0908L5.10044 14.2104C6.03948 14.6664 7.09367 14.9221 8.20757 14.9221Z" fill="#737D8C" mask="url(#hole)"/>
    <path fill-rule="evenodd" clip-rule="evenodd" d="M13.6 8.19998C13.6 7.8686 13.3314 7.59998 13 7.59998C12.6686 7.59998 12.4 7.8686 12.4 8.19998L12.4 12.3514L10.8243 10.7757C10.59 10.5414 10.2101 10.5414 9.97574 10.7757C9.74142 11.01 9.74142 11.3899 9.97574 11.6242L12.5757 14.2242C12.8101 14.4585 13.19 14.4585 13.4243 14.2242L16.0243 11.6242C16.2586 11.3899 16.2586 11.01 16.0243 10.7757C15.79 10.5414 15.4101 10.5414 15.1757 10.7757L13.6 12.3514L13.6 8.19998Z" fill="#7C7C7C"/>
</svg>
