<svg width="33" height="34" viewBox="0 0 33 34" fill="none" xmlns="http://www.w3.org/2000/svg">
<path fill-rule="evenodd" clip-rule="evenodd" d="M16.5 33.0033C25.6127 33.0033 33 25.6153 33 16.5017C33 7.38804 25.6127 0 16.5 0C7.3873 0 0 7.38804 0 16.5017C0 25.6153 7.3873 33.0033 16.5 33.0033Z" fill="#007EFF"/>
<path fill-rule="evenodd" clip-rule="evenodd" d="M6.58926 13.9425L23.1738 8.20474C23.8466 7.97197 24.5807 8.32874 24.8135 9.00162C24.9079 9.27466 24.9079 9.57152 24.8135 9.84456L19.0763 26.4307C18.8435 27.1036 18.1094 27.4604 17.4366 27.2276C17.0622 27.0981 16.7681 26.8035 16.6392 26.4288L14.4756 20.1424C14.2173 19.3917 13.6275 18.8019 12.8769 18.5436L6.59115 16.3798C5.91798 16.1481 5.5601 15.4145 5.7918 14.7412C5.92075 14.3666 6.21482 14.072 6.58926 13.9425Z" fill="white"/>
</svg>
