<svg width="24" height="24" viewBox="0 0 24 24" fill="none" xmlns="http://www.w3.org/2000/svg">
<path fill-rule="evenodd" clip-rule="evenodd" d="M13 2.5C13 2.77614 12.7761 3 12.5 3C12.2239 3 12 2.77614 12 2.5C12 2.22386 12.2239 2 12.5 2C12.7761 2 13 2.22386 13 2.5ZM11 5C11 5.55228 10.5523 6 10 6C9.44772 6 9 5.55228 9 5C9 4.44772 9.44772 4 10 4C10.5523 4 11 4.44772 11 5ZM14.7778 11.3056L18.6333 18.2389C18.8466 18.6247 18.9556 19.0594 18.9495 19.5002C18.9434 19.9409 18.8225 20.3725 18.5987 20.7522C18.3749 21.132 18.0559 21.4468 17.6732 21.6656C17.2906 21.8845 16.8575 21.9997 16.4167 22H7.58334C7.14253 21.9997 6.70943 21.8845 6.32677 21.6656C5.94412 21.4468 5.62514 21.132 5.40132 20.7522C5.17751 20.3725 5.0566 19.9409 5.05052 19.5002C5.04444 19.0594 5.15341 18.6247 5.36667 18.2389L9.22222 11.3056L9.19445 8.11111H8.66667C8.51933 8.11111 8.37802 8.05258 8.27383 7.94839C8.16965 7.84421 8.11111 7.7029 8.11111 7.55556C8.11111 7.40821 8.16965 7.26691 8.27383 7.16272C8.37802 7.05853 8.51933 7 8.66667 7H15.3333C15.4807 7 15.622 7.05853 15.7262 7.16272C15.8304 7.26691 15.8889 7.40821 15.8889 7.55556C15.8889 7.7029 15.8304 7.84421 15.7262 7.94839C15.622 8.05258 15.4807 8.11111 15.3333 8.11111H14.8056L14.7778 11.3056ZM10.3333 11.4389C10.3338 11.5362 10.3089 11.6319 10.2611 11.7167L8.88334 14.2C10.0819 14.237 11.271 14.4256 12.4222 14.7611C13.4944 15.0808 14.6039 15.2583 15.7222 15.2889L13.7389 11.7167C13.6911 11.6319 13.6662 11.5362 13.6667 11.4389L13.6944 8.11111H10.3056L10.3333 11.4389ZM14.5 5C14.7761 5 15 4.77614 15 4.5C15 4.22386 14.7761 4 14.5 4C14.2239 4 14 4.22386 14 4.5C14 4.77614 14.2239 5 14.5 5Z" fill="#737D8C"/>
</svg>
