<svg width="24" height="24" viewBox="0 0 24 24" fill="none" xmlns="http://www.w3.org/2000/svg">
<path fill-rule="evenodd" clip-rule="evenodd" d="M12 10C12.8284 10 13.5 9.32843 13.5 8.5C13.5 7.67157 12.8284 7 12 7C11.1716 7 10.5 7.67157 10.5 8.5C10.5 9.32843 11.1716 10 12 10ZM11 13C10.4477 13 10 12.5523 10 12C10 11.4477 10.4477 11 11 11H12C12.5523 11 13 11.4477 13 12V15.5H13.5C14.0523 15.5 14.5 15.9477 14.5 16.5C14.5 17.0523 14.0523 17.5 13.5 17.5H12C11.4477 17.5 11 17.0523 11 16.5L11 13Z" fill="black"/>
</svg>
