<svg width="14" height="14" viewBox="0 0 14 14" fill="none" xmlns="http://www.w3.org/2000/svg">
<path d="M13.7855 1.25024L10.4345 4.60126L11.5953 5.76207C12.0553 6.22202 11.7267 7.01049 11.077 7.01049H7.73326C7.33172 7.01049 7.00319 6.68196 7.00319 6.28042V2.9221C7.00319 2.27234 7.79166 1.94381 8.25161 2.40375L9.41242 3.56456L12.7634 0.213545C13.0482 -0.0711818 13.5081 -0.0711818 13.7928 0.213545C14.0703 0.505573 14.0703 0.965517 13.7855 1.25024ZM1.25024 13.7855L4.60126 10.4345L5.76207 11.5953C6.22202 12.0553 7.01049 11.7267 7.01049 11.077V7.73326C7.01049 7.33172 6.68196 7.00319 6.28042 7.00319H2.9221C2.27234 7.00319 1.94381 7.79166 2.40375 8.25161L3.56456 9.41242L0.213545 12.7634C-0.0711818 13.0482 -0.0711818 13.5081 0.213545 13.7928C0.505573 14.0703 0.965517 14.0703 1.25024 13.7855Z" fill="currentColor"/>
</svg>
