<svg width="16" height="16" viewBox="0 0 16 16" fill="none" xmlns="http://www.w3.org/2000/svg">
<path d="M13.4592 2.79256C13.2332 2.50193 12.8144 2.44957 12.5237 2.67562C12.2334 2.90141 12.1809 3.31959 12.406 3.61019L12.4065 3.61084L12.4072 3.6117L12.4163 3.6238C12.4251 3.63567 12.4394 3.65505 12.4582 3.6816C12.496 3.73475 12.5521 3.81645 12.6206 3.92406C12.7577 4.13961 12.9431 4.45704 13.1289 4.85521C13.5024 5.65557 13.8663 6.75746 13.8663 8.00185C13.8663 9.24624 13.5024 10.3481 13.1289 11.1485C12.9431 11.5467 12.7577 11.8641 12.6206 12.0796C12.5521 12.1873 12.496 12.269 12.4582 12.3221C12.4394 12.3487 12.4251 12.368 12.4163 12.3799L12.4072 12.392L12.4065 12.3929L12.4059 12.3936C12.1809 12.6842 12.2335 13.1023 12.5237 13.3281C12.8144 13.5541 13.2332 13.5018 13.4592 13.2111L12.9624 12.8247C13.4593 13.2111 13.4592 13.2111 13.4592 13.2111L13.4606 13.2094L13.4625 13.207L13.468 13.1997L13.4857 13.1763C13.5003 13.1566 13.5204 13.1292 13.5453 13.0941C13.5951 13.024 13.6639 12.9236 13.7455 12.7955C13.9083 12.5396 14.1229 12.1713 14.3371 11.7123C14.7636 10.7984 15.1997 9.50032 15.1997 8.00185C15.1997 6.50338 14.7636 5.20528 14.3371 4.29136C14.1229 3.83239 13.9083 3.46409 13.7455 3.20822C13.6639 3.08011 13.5951 2.97967 13.5453 2.9096C13.5204 2.87455 13.5003 2.84706 13.4857 2.82745L13.468 2.80398L13.4625 2.79675L13.4606 2.79427L13.4598 2.79332C13.4598 2.79332 13.4592 2.79256 12.933 3.20185L13.4592 2.79256Z" fill="currentColor"/>
<path d="M11.7265 5.19271C11.5005 4.90207 11.0816 4.84972 10.791 5.07577C10.5011 5.30122 10.4483 5.71848 10.6723 6.00901L10.6746 6.01206C10.6775 6.01606 10.6832 6.02372 10.6911 6.03488C10.707 6.05722 10.7319 6.09338 10.7628 6.14206C10.825 6.23976 10.9103 6.38575 10.9961 6.56964C11.1696 6.94143 11.3336 7.44332 11.3336 8.002C11.3336 8.56067 11.1696 9.06257 10.9961 9.43436C10.9103 9.61824 10.825 9.76424 10.7628 9.86194C10.7319 9.91061 10.707 9.94678 10.6911 9.96912C10.6832 9.98028 10.6775 9.98794 10.6746 9.99193L10.6723 9.99499C10.4483 10.2855 10.5011 10.7028 10.791 10.9282C11.0816 11.1543 11.5005 11.1019 11.7265 10.8113L11.2003 10.402C11.7265 10.8113 11.7265 10.8113 11.7265 10.8113L11.7277 10.8098L11.7292 10.8079L11.733 10.8029L11.7439 10.7883C11.7527 10.7766 11.7642 10.7608 11.7782 10.7411C11.8061 10.7019 11.8437 10.647 11.8877 10.5778C11.9755 10.4398 12.0902 10.2429 12.2044 9.99821C12.4309 9.51285 12.6669 8.81475 12.6669 8.002C12.6669 7.18925 12.4309 6.49114 12.2044 6.00579C12.0902 5.7611 11.9755 5.56424 11.8877 5.42623C11.8437 5.35704 11.8061 5.30214 11.7782 5.26287C11.7642 5.24323 11.7527 5.22745 11.7439 5.21571L11.733 5.20113L11.7292 5.19614L11.7277 5.19423L11.7271 5.19342C11.7271 5.19342 11.7265 5.19271 11.2003 5.602L11.7265 5.19271Z" fill="currentColor"/>
<path d="M2.40721 13.2113C2.63325 13.502 3.0521 13.5543 3.34273 13.3283C3.63304 13.1025 3.6856 12.6843 3.46042 12.3937L3.45992 12.3931L3.45927 12.3922L3.45017 12.3801C3.44133 12.3682 3.4271 12.3489 3.40824 12.3223C3.3705 12.2692 3.31436 12.1875 3.24588 12.0799C3.10871 11.8643 2.92338 11.5469 2.73756 11.1487C2.36406 10.3483 2.00011 9.24644 2.00011 8.00205C2.00011 6.75766 2.36406 5.65577 2.73756 4.85541C2.92338 4.45724 3.10871 4.13982 3.24588 3.92426C3.31436 3.81665 3.3705 3.73495 3.40824 3.68181C3.4271 3.65525 3.44133 3.63587 3.45017 3.62401L3.45927 3.6119L3.45992 3.61104L3.46052 3.61026C3.68559 3.31968 3.633 2.90159 3.34273 2.67582C3.0521 2.44977 2.63325 2.50213 2.40721 2.79276L2.90404 3.17919C2.4072 2.79277 2.40721 2.79276 2.40721 2.79276L2.40588 2.79447L2.40397 2.79695L2.39843 2.80418L2.38078 2.82765C2.36617 2.84726 2.34603 2.87476 2.32114 2.90981C2.27138 2.97987 2.20252 3.08031 2.121 3.20842C1.95817 3.4643 1.74351 3.83259 1.52932 4.29156C1.10282 5.20549 0.666774 6.50359 0.666774 8.00205C0.666774 9.50052 1.10282 10.7986 1.52932 11.7125C1.74351 12.1715 1.95817 12.5398 2.121 12.7957C2.20252 12.9238 2.27138 13.0242 2.32114 13.0943C2.34603 13.1294 2.36617 13.1568 2.38078 13.1765L2.39843 13.1999L2.40397 13.2072L2.40588 13.2096L2.40662 13.2106C2.40662 13.2106 2.40721 13.2113 2.93344 12.8021L2.40721 13.2113Z" fill="currentColor"/>
<path d="M4.13995 10.8112C4.366 11.1018 4.78485 11.1542 5.07548 10.9281C5.36535 10.7027 5.41819 10.2854 5.19419 9.99489L5.1919 9.99184C5.18892 9.98785 5.18329 9.98019 5.17537 9.96903C5.1595 9.94669 5.1346 9.91052 5.10363 9.86185C5.04146 9.76415 4.95612 9.61815 4.87031 9.43427C4.69681 9.06248 4.53285 8.56058 4.53285 8.00191C4.53285 7.44323 4.69681 6.94133 4.87031 6.56955C4.95612 6.38566 5.04146 6.23967 5.10363 6.14197C5.1346 6.09329 5.1595 6.05713 5.17537 6.03478C5.18329 6.02363 5.18892 6.01597 5.1919 6.01197L5.19419 6.00891C5.41819 5.71838 5.36535 5.30113 5.07548 5.07567C4.78485 4.84963 4.366 4.90198 4.13995 5.19261L4.66619 5.60191C4.13995 5.19261 4.13995 5.19261 4.13995 5.19261L4.13877 5.19414L4.1373 5.19605L4.13348 5.20104L4.12251 5.21562C4.11377 5.22736 4.10221 5.24313 4.08826 5.26278C4.06038 5.30205 4.02277 5.35695 3.97875 5.42613C3.89092 5.56415 3.77625 5.76101 3.66207 6.0057C3.43557 6.49105 3.19952 7.18915 3.19952 8.00191C3.19952 8.81466 3.43557 9.51276 3.66207 9.99812C3.77625 10.2428 3.89092 10.4397 3.97875 10.5777C4.02277 10.6469 4.06038 10.7018 4.08826 10.741C4.10221 10.7607 4.11377 10.7765 4.12251 10.7882L4.13348 10.8028L4.1373 10.8078L4.13877 10.8097L4.1394 10.8105C4.1394 10.8105 4.13995 10.8112 4.66619 10.4019L4.13995 10.8112Z" fill="currentColor"/>
<circle cx="7.99996" cy="8.0013" r="1.33333" fill="currentColor"/>
</svg>
