<svg width="16" height="16" viewBox="0 0 16 16" fill="none" xmlns="http://www.w3.org/2000/svg">
<path d="M5.10228 3.76439C5.10228 2.23766 6.39969 1 8.00012 1C9.60054 1 10.8979 2.23766 10.8979 3.76439V7.89859C10.8979 9.42532 9.60054 10.663 8.00012 10.663C6.39969 10.663 5.10228 9.42532 5.10228 7.89859V3.76439Z" fill="currentColor"/>
<path d="M2.92879 7.01612C3.44175 7.01612 3.85759 7.4128 3.85759 7.90214C3.85759 10.0766 5.70512 11.8419 7.98894 11.8476C7.99267 11.8476 7.99641 11.8475 8.00016 11.8475C8.00388 11.8475 8.0076 11.8476 8.01132 11.8476C10.295 11.8418 12.1424 10.0765 12.1424 7.90214C12.1424 7.4128 12.5582 7.01612 13.0712 7.01612C13.5842 7.01612 14 7.4128 14 7.90214C14 10.7596 11.8008 13.1261 8.92895 13.5515V14.114C8.92895 14.6033 8.51311 15 8.00016 15C7.4872 15 7.07136 14.6033 7.07136 14.114V13.5516C4.1994 13.1263 2 10.7597 2 7.90214C2 7.4128 2.41583 7.01612 2.92879 7.01612Z" fill="currentColor"/>
</svg>
