<svg width="10" height="12" viewBox="0 0 10 12" fill="none" xmlns="http://www.w3.org/2000/svg">
<path d="M0.833374 1C0.833374 0.447715 1.20647 0 1.66671 0H2.50004C2.96028 0 3.33337 0.447715 3.33337 1V11C3.33337 11.5523 2.96028 12 2.50004 12H1.66671C1.20647 12 0.833374 11.5523 0.833374 11V1Z" fill="#737D8C"/>
<path d="M6.66671 1C6.66671 0.447715 7.0398 0 7.50004 0H8.33337C8.79361 0 9.16671 0.447715 9.16671 1V11C9.16671 11.5523 8.79361 12 8.33337 12H7.50004C7.0398 12 6.66671 11.5523 6.66671 11V1Z" fill="#737D8C"/>
</svg>
