<svg width="24" height="24" viewBox="0 0 24 24" fill="none" xmlns="http://www.w3.org/2000/svg">
<mask id="path-1-inside-1_1123_14017" fill="white">
<path fill-rule="evenodd" clip-rule="evenodd" d="M18.7093 21.9506C16.7941 23.2445 14.4853 24 12 24C9.29855 24 6.80558 23.1073 4.8 21.6009C1.88532 19.4116 0 15.926 0 12C0 5.37258 5.37258 0 12 0C18.6274 0 24 5.37258 24 12C24 16.1421 21.9013 19.7941 18.7093 21.9506ZM12 12.6C13.9882 12.6 15.6 10.8539 15.6 8.7C15.6 6.54609 13.9882 4.8 12 4.8C10.0118 4.8 8.4 6.54609 8.4 8.7C8.4 10.8539 10.0118 12.6 12 12.6ZM12 21.6C14.5944 21.6 16.9484 20.5709 18.6761 18.8986C17.6076 16.2607 15.0211 14.4 12 14.4C8.9789 14.4 6.39239 16.2607 5.32394 18.8986C7.05162 20.5709 9.40563 21.6 12 21.6Z"/>
</mask>
<path fill-rule="evenodd" clip-rule="evenodd" d="M18.7093 21.9506C16.7941 23.2445 14.4853 24 12 24C9.29855 24 6.80558 23.1073 4.8 21.6009C1.88532 19.4116 0 15.926 0 12C0 5.37258 5.37258 0 12 0C18.6274 0 24 5.37258 24 12C24 16.1421 21.9013 19.7941 18.7093 21.9506ZM12 12.6C13.9882 12.6 15.6 10.8539 15.6 8.7C15.6 6.54609 13.9882 4.8 12 4.8C10.0118 4.8 8.4 6.54609 8.4 8.7C8.4 10.8539 10.0118 12.6 12 12.6ZM12 21.6C14.5944 21.6 16.9484 20.5709 18.6761 18.8986C17.6076 16.2607 15.0211 14.4 12 14.4C8.9789 14.4 6.39239 16.2607 5.32394 18.8986C7.05162 20.5709 9.40563 21.6 12 21.6Z" fill="currentColor"/>
<path d="M18.7093 21.9506L19.5643 23.2161L18.7093 21.9506ZM4.8 21.6009L3.88276 22.822H3.88276L4.8 21.6009ZM18.6761 18.8986L19.7383 19.996L20.4782 19.2797L20.0916 18.3252L18.6761 18.8986ZM5.32394 18.8986L3.90838 18.3252L3.52177 19.2797L4.26173 19.996L5.32394 18.8986ZM12 25.5273C14.7995 25.5273 17.4045 24.6752 19.5643 23.2161L17.8543 20.6851C16.1837 21.8137 14.1711 22.4727 12 22.4727V25.5273ZM3.88276 22.822C6.14374 24.5203 8.95648 25.5273 12 25.5273V22.4727C9.64061 22.4727 7.46743 21.6943 5.71724 20.3797L3.88276 22.822ZM-1.52727 12C-1.52727 16.4266 0.600567 20.3567 3.88276 22.822L5.71724 20.3797C3.17008 18.4665 1.52727 15.4253 1.52727 12H-1.52727ZM12 -1.52727C4.52909 -1.52727 -1.52727 4.52909 -1.52727 12H1.52727C1.52727 6.21607 6.21607 1.52727 12 1.52727V-1.52727ZM25.5273 12C25.5273 4.52909 19.4709 -1.52727 12 -1.52727V1.52727C17.7839 1.52727 22.4727 6.21607 22.4727 12H25.5273ZM19.5643 23.2161C23.1587 20.7878 25.5273 16.6707 25.5273 12H22.4727C22.4727 15.6135 20.6439 18.8004 17.8543 20.6851L19.5643 23.2161ZM14.0727 8.7C14.0727 10.1278 13.0319 11.0727 12 11.0727V14.1273C14.9445 14.1273 17.1273 11.58 17.1273 8.7H14.0727ZM12 6.32727C13.0319 6.32727 14.0727 7.27217 14.0727 8.7H17.1273C17.1273 5.82 14.9445 3.27273 12 3.27273V6.32727ZM9.92727 8.7C9.92727 7.27217 10.9681 6.32727 12 6.32727V3.27273C9.05549 3.27273 6.87273 5.82 6.87273 8.7H9.92727ZM12 11.0727C10.9681 11.0727 9.92727 10.1278 9.92727 8.7H6.87273C6.87273 11.58 9.05549 14.1273 12 14.1273V11.0727ZM17.6138 17.8012C16.1595 19.2089 14.1822 20.0727 12 20.0727V23.1273C15.0065 23.1273 17.7372 21.9329 19.7383 19.996L17.6138 17.8012ZM12 15.9273C14.3779 15.9273 16.4175 17.3908 17.2605 19.4719L20.0916 18.3252C18.7977 15.1306 15.6643 12.8727 12 12.8727V15.9273ZM6.7395 19.4719C7.58245 17.3908 9.62215 15.9273 12 15.9273V12.8727C8.33566 12.8727 5.20233 15.1306 3.90838 18.3252L6.7395 19.4719ZM12 20.0727C9.81778 20.0727 7.84046 19.2089 6.38615 17.8012L4.26173 19.996C6.26278 21.9329 8.99347 23.1273 12 23.1273V20.0727Z" fill="currentColor" mask="url(#path-1-inside-1_1123_14017)"/>
</svg>
