<svg width="149" height="32" viewBox="0 0 149 32" fill="none" xmlns="http://www.w3.org/2000/svg">
<path fill-rule="evenodd" clip-rule="evenodd" d="M16.3571 32C25.1936 32 32.3571 24.8366 32.3571 16C32.3571 7.16344 25.1936 0 16.3571 0C7.5205 0 0.357056 7.16344 0.357056 16C0.357056 24.8366 7.5205 32 16.3571 32Z" fill="#0DBD8B"/>
<path fill-rule="evenodd" clip-rule="evenodd" d="M13.4318 7.45512C13.4318 6.80928 13.9565 6.28573 14.6037 6.28573C18.9901 6.28573 22.546 9.83425 22.546 14.2116C22.546 14.8574 22.0214 15.381 21.3742 15.381C20.727 15.381 20.2023 14.8574 20.2023 14.2116C20.2023 11.1259 17.6957 8.62452 14.6037 8.62452C13.9565 8.62452 13.4318 8.10096 13.4318 7.45512Z" fill="white"/>
<path fill-rule="evenodd" clip-rule="evenodd" d="M24.8996 13.0422C25.5467 13.0422 26.0714 13.5658 26.0714 14.2116C26.0714 18.589 22.5155 22.1375 18.129 22.1375C17.4819 22.1375 16.9572 21.6139 16.9572 20.9681C16.9572 20.3223 17.4819 19.7987 18.129 19.7987C21.2211 19.7987 23.7277 17.2973 23.7277 14.2116C23.7277 13.5658 24.2524 13.0422 24.8996 13.0422Z" fill="white"/>
<path fill-rule="evenodd" clip-rule="evenodd" d="M19.3008 24.5448C19.3008 25.1906 18.7762 25.7142 18.129 25.7142C13.7426 25.7142 10.1867 22.1656 10.1867 17.7883C10.1867 17.1425 10.7113 16.6189 11.3585 16.6189C12.0057 16.6189 12.5303 17.1425 12.5303 17.7883C12.5303 20.8739 15.0369 23.3754 18.129 23.3754C18.7762 23.3754 19.3008 23.8989 19.3008 24.5448Z" fill="white"/>
<path fill-rule="evenodd" clip-rule="evenodd" d="M7.81455 18.9578C7.16737 18.9578 6.64272 18.4342 6.64272 17.7884C6.64272 13.411 10.1986 9.86251 14.5851 9.86251C15.2323 9.86251 15.7569 10.3861 15.7569 11.0319C15.7569 11.6777 15.2323 12.2013 14.5851 12.2013C11.493 12.2013 8.98638 14.7027 8.98638 17.7884C8.98638 18.4342 8.46173 18.9578 7.81455 18.9578Z" fill="white"/>
<path d="M56.3571 17.2858H45.0714C45.2048 18.4667 45.6333 19.4096 46.3571 20.1144C47.0809 20.8001 48.0333 21.1429 49.2143 21.1429C49.9952 21.1429 50.7 20.9525 51.3286 20.5715C51.9571 20.1905 52.4048 19.6763 52.6714 19.0286H56.1C55.6429 20.5334 54.7857 21.7525 53.5286 22.6858C52.2905 23.6001 50.8238 24.0572 49.1286 24.0572C46.919 24.0572 45.1286 23.3239 43.7571 21.8572C42.4048 20.3905 41.7286 18.5334 41.7286 16.2858C41.7286 14.0953 42.4143 12.2572 43.7857 10.7715C45.1571 9.28578 46.9286 8.54293 49.1 8.54293C51.2714 8.54293 53.0238 9.27626 54.3571 10.7429C55.7095 12.1905 56.3857 14.0191 56.3857 16.2286L56.3571 17.2858ZM49.1 11.3144C48.0333 11.3144 47.1476 11.6286 46.4429 12.2572C45.7381 12.8858 45.3 13.7239 45.1286 14.7715H53.0143C52.8619 13.7239 52.4429 12.8858 51.7571 12.2572C51.0714 11.6286 50.1857 11.3144 49.1 11.3144ZM58.7254 19.2858V2.28578H62.1254V19.3429C62.1254 20.1048 62.5445 20.4858 63.3826 20.4858L63.9826 20.4572V23.6858C63.6588 23.7429 63.3159 23.7715 62.954 23.7715C61.4873 23.7715 60.4112 23.4001 59.7254 22.6572C59.0588 21.9144 58.7254 20.7905 58.7254 19.2858ZM79.817 17.2858H68.5312C68.6646 18.4667 69.0932 19.4096 69.817 20.1144C70.5408 20.8001 71.4932 21.1429 72.6741 21.1429C73.4551 21.1429 74.1598 20.9525 74.7884 20.5715C75.417 20.1905 75.8646 19.6763 76.1312 19.0286H79.5598C79.1027 20.5334 78.2455 21.7525 76.9884 22.6858C75.7503 23.6001 74.2836 24.0572 72.5884 24.0572C70.3789 24.0572 68.5884 23.3239 67.217 21.8572C65.8646 20.3905 65.1884 18.5334 65.1884 16.2858C65.1884 14.0953 65.8741 12.2572 67.2455 10.7715C68.617 9.28578 70.3884 8.54293 72.5598 8.54293C74.7312 8.54293 76.4836 9.27626 77.817 10.7429C79.1693 12.1905 79.8455 14.0191 79.8455 16.2286L79.817 17.2858ZM72.5598 11.3144C71.4932 11.3144 70.6074 11.6286 69.9027 12.2572C69.1979 12.8858 68.7598 13.7239 68.5884 14.7715H76.4741C76.3217 13.7239 75.9027 12.8858 75.217 12.2572C74.5312 11.6286 73.6455 11.3144 72.5598 11.3144ZM95.1567 15.2001V23.7144H91.7567V14.8286C91.7567 12.581 90.8234 11.4572 88.9567 11.4572C87.9472 11.4572 87.1376 11.781 86.5281 12.4286C85.9376 13.0763 85.6424 13.962 85.6424 15.0858V23.7144H82.2424V8.88578H85.3853V10.8572C85.7472 10.1905 86.2996 9.63816 87.0424 9.20007C87.7853 8.76197 88.7091 8.54293 89.8138 8.54293C91.871 8.54293 93.3567 9.32388 94.271 10.8858C95.5281 9.32388 97.2043 8.54293 99.2996 8.54293C101.033 8.54293 102.366 9.08578 103.3 10.1715C104.233 11.2382 104.7 12.6477 104.7 14.4001V23.7144H101.3V14.8286C101.3 12.581 100.366 11.4572 98.4996 11.4572C97.471 11.4572 96.6519 11.7905 96.0424 12.4572C95.4519 13.1048 95.1567 14.0191 95.1567 15.2001ZM121.608 17.2858H110.323C110.456 18.4667 110.884 19.4096 111.608 20.1144C112.332 20.8001 113.284 21.1429 114.465 21.1429C115.246 21.1429 115.951 20.9525 116.58 20.5715C117.208 20.1905 117.656 19.6763 117.923 19.0286H121.351C120.894 20.5334 120.037 21.7525 118.78 22.6858C117.542 23.6001 116.075 24.0572 114.38 24.0572C112.17 24.0572 110.38 23.3239 109.008 21.8572C107.656 20.3905 106.98 18.5334 106.98 16.2858C106.98 14.0953 107.665 12.2572 109.037 10.7715C110.408 9.28578 112.18 8.54293 114.351 8.54293C116.523 8.54293 118.275 9.27626 119.608 10.7429C120.961 12.1905 121.637 14.0191 121.637 16.2286L121.608 17.2858ZM114.351 11.3144C113.284 11.3144 112.399 11.6286 111.694 12.2572C110.989 12.8858 110.551 13.7239 110.38 14.7715H118.265C118.113 13.7239 117.694 12.8858 117.008 12.2572C116.323 11.6286 115.437 11.3144 114.351 11.3144ZM127.177 8.88578V10.8572C127.519 10.2096 128.081 9.66674 128.862 9.22864C129.662 8.7715 130.624 8.54293 131.748 8.54293C133.5 8.54293 134.853 9.07626 135.805 10.1429C136.777 11.2096 137.262 12.6286 137.262 14.4001V23.7144H133.862V14.8286C133.862 13.781 133.615 12.962 133.119 12.3715C132.643 11.762 131.91 11.4572 130.919 11.4572C129.834 11.4572 128.977 11.781 128.348 12.4286C127.738 13.0763 127.434 13.9715 127.434 15.1144V23.7144H124.034V8.88578H127.177ZM147.192 20.6858V23.6286C146.773 23.7429 146.182 23.8001 145.421 23.8001C142.525 23.8001 141.078 22.3429 141.078 19.4286V11.6001H138.821V8.88578H141.078V5.02864H144.478V8.88578H147.249V11.6001H144.478V19.0858C144.478 20.2477 145.03 20.8286 146.135 20.8286L147.192 20.6858Z" fill="black"/>
</svg>
