<svg width="64" height="64" viewBox="0 0 64 64" fill="none" xmlns="http://www.w3.org/2000/svg">
<rect width="64" height="64" fill="white"/>
<path d="M17.7773 3H11.5439V9.23334H17.7773V3Z" fill="#5DEFC4"/>
<path d="M9.23331 3H3V9.23334H9.23331V3Z" fill="#5DEFC4"/>
<path d="M9.23331 11.5414H3V17.7747H9.23331V11.5414Z" fill="#5DEFC4"/>
<path d="M17.7773 11.5414H11.5439V17.7747H17.7773V11.5414Z" fill="#FD0177"/>
<path d="M17.7773 20.0467H11.5439V26.2801H17.7773V20.0467Z" fill="#5DEFC4"/>
<path d="M26.0861 20.0467H19.8525V26.2801H26.0861V20.0467Z" fill="#5DEFC4"/>
<path d="M26.0861 37.1832H19.8525V43.4165H26.0861V37.1832Z" fill="#5DEFC4"/>
<path d="M26.0861 28.6146H19.8525V34.8479H26.0861V28.6146Z" fill="#FD0177"/>
<path d="M17.7773 37.1832H11.5439V43.4165H17.7773V37.1832Z" fill="#FFE160"/>
<path d="M17.7773 45.9736H11.5439V52.207H17.7773V45.9736Z" fill="#C86AF8"/>
<path d="M17.7773 54.7687H11.5439V61.002H17.7773V54.7687Z" fill="#5DEFC4"/>
<path d="M9.23331 54.7687H3V61.002H9.23331V54.7687Z" fill="#5DEFC4"/>
<path d="M9.23331 45.9736H3V52.207H9.23331V45.9736Z" fill="#238EF0"/>
<path d="M34.3984 28.6146H28.165V34.8479H34.3984V28.6146Z" fill="#5DEFC4"/>
<path d="M43.6269 28.6146H37.3936V34.8479H43.6269V28.6146Z" fill="#5DEFC4"/>
<path d="M43.6269 20.9484H37.3936V27.1818H43.6269V20.9484Z" fill="#FD0177"/>
<path d="M43.6269 37.1832H37.3936V43.4165H43.6269V37.1832Z" fill="#5DEFC4"/>
<path d="M52.1718 37.1832H45.9385V43.4165H52.1718V37.1832Z" fill="#FD0177"/>
<path d="M52.1718 45.9736H45.9385V52.207H52.1718V45.9736Z" fill="#5DEFC4"/>
<path d="M52.1718 54.7687H45.9385V61.002H52.1718V54.7687Z" fill="#5DEFC4"/>
<path d="M60.4794 54.7687H54.2461V61.002H60.4794V54.7687Z" fill="#5DEFC4"/>
<path d="M60.4794 45.9736H54.2461V52.207H60.4794V45.9736Z" fill="#FBDF75"/>
<path d="M52.1718 19.5995H45.9385V25.8328H52.1718V19.5995Z" fill="#5DEFC4"/>
<path d="M52.1718 11.5414H45.9385V17.7747H52.1718V11.5414Z" fill="#5DEFC4"/>
<path d="M52.1718 3H45.9385V9.23334H52.1718V3Z" fill="#238EF0"/>
<path d="M60.4794 3H54.2461V9.23334H60.4794V3Z" fill="#5DEFC4"/>
<path d="M60.4794 11.5414H54.2461V17.7747H60.4794V11.5414Z" fill="#C86AF8"/>
</svg>
