<?xml version="1.0" encoding="UTF-8"?>
<svg width="334px" height="293px" viewBox="0 0 334 293" version="1.1" xmlns="http://www.w3.org/2000/svg" xmlns:xlink="http://www.w3.org/1999/xlink">
    <!-- Generator: Sketch 52.6 (67491) - http://www.bohemiancoding.com/sketch -->
    <title>alt black logotype</title>
    <desc>Created with Sketch.</desc>
    <g id="Page-1" stroke="none" stroke-width="1" fill="none" fill-rule="evenodd">
        <g id="alt-black-logotype" transform="translate(-71.000000, -93.000000)">
            <g id="Group-17" transform="translate(75.000000, 97.000000)">
                <path d="M83.6089795,81.3669988 L83.6089795,122.62072 L125.566883,122.57759 C126.099705,122.57759 126.585875,122.563213 127.069589,122.532064 C138.101709,121.806044 146.725079,112.775129 146.725079,101.973492 C146.725079,90.6087715 137.254595,81.3669988 125.608625,81.3669988 L83.6089795,81.3669988 Z M42.1126914,285.126882 C19.1964277,285.126882 0.616403324,266.99796 0.616403324,244.632726 L0.616403324,167.456616 C0.466623823,166.057291 0.385595568,164.634005 0.385595568,163.193947 C0.383140166,161.727531 0.461713019,160.280285 0.616403324,158.852207 L0.616403324,40.8728429 C0.616403324,18.5076092 19.1964277,0.376291002 42.1126914,0.376291002 L125.608625,0.376291002 C183.015916,0.376291002 229.720111,45.9525832 229.720111,101.973492 C229.720111,155.236486 187.089427,199.758492 132.667905,203.333479 C130.354916,203.489226 127.970721,203.568297 125.608625,203.568297 L83.6089795,203.609031 L83.6089795,244.632726 C83.6089795,266.99796 65.0314105,285.126882 42.1126914,285.126882 Z" id="Fill-1" fill="#A2DDEF"></path>
                <path d="M83.6089795,81.3669988 L83.6089795,122.62072 L125.566883,122.57759 C126.099705,122.57759 126.585875,122.563213 127.069589,122.532064 C138.101709,121.806044 146.725079,112.775129 146.725079,101.973492 C146.725079,90.6087715 137.254595,81.3669988 125.608625,81.3669988 L83.6089795,81.3669988 Z M42.1126914,285.126882 C19.1964277,285.126882 0.616403324,266.99796 0.616403324,244.632726 L0.616403324,167.456616 C0.466623823,166.057291 0.385595568,164.634005 0.385595568,163.193947 C0.383140166,161.727531 0.461713019,160.280285 0.616403324,158.852207 L0.616403324,40.8728429 C0.616403324,18.5076092 19.1964277,0.376291002 42.1126914,0.376291002 L125.608625,0.376291002 C183.015916,0.376291002 229.720111,45.9525832 229.720111,101.973492 C229.720111,155.236486 187.089427,199.758492 132.667905,203.333479 C130.354916,203.489226 127.970721,203.568297 125.608625,203.568297 L83.6089795,203.609031 L83.6089795,244.632726 C83.6089795,266.99796 65.0314105,285.126882 42.1126914,285.126882 Z" id="Stroke-3" stroke="#368BD6" stroke-width="7.31760436"></path>
                <path d="M42.112937,244.632007 L42.112937,40.8721241 L125.60887,40.8721241 C160.188292,40.8721241 188.221613,68.2284423 188.221613,101.972773 C188.221613,134.31778 162.466905,160.792332 129.881269,162.932053 C128.466958,163.025501 127.04528,163.073423 125.60887,163.073423 L41.8821292,163.15489" id="Stroke-5" stroke="#368BD6" stroke-width="7.31760436" stroke-linecap="round"></path>
                <path d="M76.3063694,17.6478871 C82.6683151,26.5062832 85.1114398,37.2552053 83.1864049,47.9010949 C81.2589146,58.5541728 75.1940725,67.8342832 66.1090863,74.0377962 C47.352273,86.8449715 21.4060437,82.3858222 8.27210017,64.0963611 C1.91015446,55.237965 -0.532970194,44.4914391 1.39452011,33.8407572 C3.31955501,23.1900754 9.38439712,13.9075689 18.4718387,7.70645204 C37.228652,-5.10072328 63.1724259,-0.641573933 76.3063694,17.6478871 Z M188.563159,285.10364 C175.48569,285.10364 162.619385,279.089419 154.543569,267.844503 L95.8963005,186.170906 C82.7451692,167.855088 87.2999393,142.602549 106.066574,129.771412 C124.833209,116.930692 150.710687,121.37786 163.861819,139.693679 L222.509087,221.367276 C235.662674,239.683094 231.107904,264.935633 212.341269,277.76677 C205.092923,282.724309 196.786299,285.10364 188.563159,285.10364 Z" id="Combined-Shape" fill="#368BD6"></path>
                <path d="M292.369925,66.0049901 C290.529323,66.0049901 289.097744,64.6169023 289.097744,62.832218 C289.097744,61.0475337 290.529323,59.659446 292.369925,59.659446 L325.909774,59.659446 C327.750376,59.659446 329.181955,61.0475337 329.181955,62.832218 C329.181955,64.6169023 327.750376,66.0049901 325.909774,66.0049901 L292.369925,66.0049901 Z M292.369925,7.70530356 C290.529323,7.70530356 289.097744,6.31721579 289.506767,4.135935 C289.506767,2.35125072 290.938346,0.963162945 292.778947,0.963162945 L306.07218,0.963162945 L326.114286,0.963162945 C326.72782,0.963162945 327.341353,1.1614612 327.954887,1.55805771 C328.772932,2.15295247 329.386466,3.14444373 329.386466,4.33423325 L329.386466,18.6117075 C329.386466,25.7504446 323.251128,31.6993922 315.888722,31.6993922 C310.571429,31.6993922 306.07218,28.9232167 303.822556,24.5606551 L294.415038,30.9061992 C292.778947,31.8976905 290.733835,31.501094 289.711278,30.1130062 C288.688722,28.5266202 289.097744,26.5436376 290.529323,25.5521464 L302.390977,17.6202162 L302.390977,7.70530356 L292.369925,7.70530356 Z M322.433083,18.8100058 L322.228571,7.70530356 L308.935338,7.70530356 L308.935338,18.8100058 C308.935338,22.3793743 312.003008,25.3538481 315.684211,25.3538481 C319.365414,25.3538481 322.433083,22.3793743 322.433083,18.8100058 Z M325.909774,151.273239 C327.750376,151.273239 329.181955,152.661327 329.181955,154.446011 L329.181955,167.335398 L329.181955,180.423082 C329.181955,182.207767 327.750376,183.595854 325.909774,183.595854 C324.069173,183.595854 322.637594,182.207767 322.637594,180.423082 L322.637594,170.50817 L292.574436,170.50817 C290.733835,170.50817 289.302256,169.120082 289.302256,167.335398 C289.302256,165.550713 290.733835,164.162626 292.574436,164.162626 L322.637594,164.162626 L322.637594,154.446011 C322.637594,152.661327 324.069173,151.273239 325.909774,151.273239 Z M309.13985,93.3701491 C320.38797,93.3701491 329.590977,102.29357 329.590977,113.199974 C329.590977,124.106378 320.38797,133.0298 309.13985,133.0298 C297.891729,133.0298 288.688722,124.106378 288.688722,113.199974 C288.688722,102.29357 297.891729,93.3701491 309.13985,93.3701491 Z M309.13985,126.485957 C316.706767,126.485957 322.842105,120.53701 322.842105,113.199974 C322.842105,105.862939 316.706767,99.9139914 309.13985,99.9139914 C301.572932,99.9139914 295.437594,105.862939 295.437594,113.199974 C295.437594,120.53701 301.572932,126.485957 309.13985,126.485957 Z M328.159398,217.306557 C328.772932,217.901452 328.977444,218.694645 328.977444,219.487838 C328.977444,220.47933 328.772932,221.074224 328.159398,221.669119 C327.341353,222.264014 326.523308,222.462312 325.909774,222.462312 L292.165414,222.462312 C291.142857,222.462312 290.529323,222.462312 289.915789,221.669119 C289.302256,220.875926 289.097744,220.281031 289.097744,219.487838 C289.097744,218.496347 289.302256,217.901452 289.915789,217.306557 C290.733835,216.711663 291.347368,216.513364 292.165414,216.513364 L325.909774,216.513364 C326.932331,216.513364 327.545865,216.711663 328.159398,217.306557 Z M328.977444,253.595138 C328.977444,254.784927 328.36391,255.776419 327.545865,256.371313 L308.730827,268.467507 L327.545865,280.5637 C328.772932,281.158595 328.977444,282.348385 328.977444,283.339876 L328.977444,283.736472 C328.977444,284.727964 328.977444,285.322858 328.159398,285.917753 C327.341353,286.512648 326.72782,286.710946 325.909774,286.710946 L292.369925,286.710946 C291.347368,286.710946 290.733835,286.710946 290.120301,285.917753 C289.506767,285.12456 289.302256,284.727964 289.302256,283.736472 C289.302256,282.744981 289.506767,282.150086 290.120301,281.555192 C290.938346,280.960297 291.756391,280.761999 292.369925,280.761999 L317.115789,280.761999 L302.186466,270.847086 C301.368421,270.252191 300.754887,269.2607 300.754887,268.269209 C300.754887,267.277717 301.16391,266.484524 301.981955,265.691331 L316.911278,255.974717 L292.165414,255.974717 C291.142857,255.974717 290.529323,255.974717 289.915789,255.181524 C289.302256,254.388331 289.097744,253.991734 289.097744,253.000243 C289.097744,252.008752 289.302256,251.413857 289.915789,250.818962 C290.733835,250.224068 291.55188,250.224068 292.165414,250.224068 L325.909774,250.224068 C326.932331,250.224068 327.545865,250.422366 328.159398,251.017261 C328.772932,251.612155 328.977444,252.405348 328.977444,253.198541 L328.977444,253.595138 Z M306.890226,195.692048 C307.503759,195.692048 308.117293,195.890346 308.730827,196.485241 C309.13985,196.881837 309.548872,197.476732 309.548872,198.269925 C309.548872,198.86482 309.344361,199.459715 308.730827,200.054609 C308.321805,200.451206 307.708271,200.847802 306.890226,200.847802 L305.867669,200.847802 C305.254135,200.847802 304.640602,200.649504 304.027068,200.054609 C303.618045,199.658013 303.209023,199.063118 303.209023,198.269925 C303.209023,197.476732 303.413534,196.881837 304.027068,196.485241 C304.43609,196.088644 305.049624,195.692048 305.867669,195.692048 L306.890226,195.692048 Z" id="Combined-Shape" fill="#212121"></path>
            </g>
        </g>
    </g>
</svg>