<svg xmlns="http://www.w3.org/2000/svg" viewBox="0 0 576 512"><!-- Font Awesome Pro 6.0.0-alpha1 by @fontawesome - https://fontawesome.com License - https://fontawesome.com/license (Commercial License) --><path d="M480 288H352C343 288 336 295 336 304S343 320 352 320H480C489 320 496 313 496 304S489 288 480 288ZM192 256C227 256 256 227 256 192S227 128 192 128S128 157 128 192S157 256 192 256ZM192 160C210 160 224 174 224 192S210 224 192 224S160 210 160 192S174 160 192 160ZM224 288H160C116 288 80 324 80 368C80 377 87 384 96 384S112 377 112 368C112 342 134 320 160 320H224C250 320 272 342 272 368C272 377 279 384 288 384S304 377 304 368C304 324 268 288 224 288ZM512 32H64C29 32 0 61 0 96V416C0 451 29 480 64 480H512C547 480 576 451 576 416V96C576 61 547 32 512 32ZM544 416C544 434 530 448 512 448H64C46 448 32 434 32 416V96C32 78 46 64 64 64H512C530 64 544 78 544 96V416ZM480 224H352C343 224 336 231 336 240S343 256 352 256H480C489 256 496 249 496 240S489 224 480 224ZM480 160H352C343 160 336 167 336 176S343 192 352 192H480C489 192 496 185 496 176S489 160 480 160Z"/></svg>