<svg xmlns="http://www.w3.org/2000/svg" viewBox="0 0 576 512"><!-- Font Awesome Pro 6.0.0-alpha1 by @fontawesome - https://fontawesome.com License - https://fontawesome.com/license (Commercial License) --><path d="M256 352C212 352 176 388 176 432C176 441 183 448 192 448C201 448 208 441 208 432C208 405 230 384 256 384H320C347 384 368 406 368 432C368 441 375 448 384 448S400 441 400 432C400 388 364 352 320 352H256ZM224 256C224 291 253 320 288 320S352 291 352 256S323 192 288 192S224 221 224 256ZM320 256C320 274 306 288 288 288S256 274 256 256S270 224 288 224S320 238 320 256ZM571 244L512 192C512 192 512 192 512 192V48C512 39 505 32 496 32H400C391 32 384 39 384 48V79L299 4C293 -1 283 -1 277 4L5 244C-1 250 -2 260 4 267C10 273 20 274 27 268L64 235V432C64 476 100 512 144 512H432C476 512 512 476 512 432V235L549 268C552 271 556 272 560 272C564 272 569 270 572 267C578 260 577 250 571 244ZM416 64H480V164L416 108V64ZM480 208V432C480 458 458 480 432 480H144C118 480 96 458 96 432V208C96 208 96 207 96 207L288 37L480 207C480 207 480 208 480 208Z"/></svg>