<svg xmlns="http://www.w3.org/2000/svg" aria-hidden="true" role="img" width="1.46em" height="1em" preserveAspectRatio="xMidYMid meet" viewBox="0 0 2048 1408"><path fill="currentColor" d="M1024 384H640v384h384V384zm128 640v128H512v-128h640zm0-768v640H512V256h640zm640 768v128h-512v-128h512zm0-256v128h-512V768h512zm0-256v128h-512V512h512zm0-256v128h-512V256h512zM256 1216V256H128v960q0 26 19 45t45 19t45-19t19-45zm1664 0V128H384v1088q0 33-11 64h1483q26 0 45-19t19-45zM2048 0v1216q0 80-56 136t-136 56H192q-80 0-136-56T0 1216V128h256V0h1792z"/></svg>