<svg version="1.0" xmlns="http://www.w3.org/2000/svg"
 width="1007.000000pt" height="1073.000000pt" viewBox="0 0 1007.000000 1073.000000"
 preserveAspectRatio="xMidYMid meet">

<g transform="translate(0.000000,1073.000000) scale(0.100000,-0.100000)"
fill="#000000" stroke="none">
<path d="M4955 10719 c-88 -8 -143 -21 -242 -58 -100 -37 -4085 -1696 -4138
-1723 -217 -110 -397 -291 -481 -486 -90 -209 -98 -341 -58 -962 105 -1652
475 -2970 1162 -4135 446 -759 917 -1391 1421 -1908 519 -533 1335 -1103 1907
-1332 430 -173 726 -144 1259 122 322 162 749 444 1150 761 681 540 1340 1348
1945 2387 497 854 817 1749 1004 2810 97 549 166 1275 169 1775 1 239 1 247
-26 345 -75 269 -225 457 -483 604 -118 66 -4168 1748 -4276 1775 -104 26
-208 35 -313 25z m265 -2714 c150 -54 249 -168 296 -340 18 -67 19 -123 19
-1295 0 -1168 -1 -1228 -19 -1295 -55 -206 -186 -327 -399 -370 -83 -16 -135
-12 -238 19 -165 50 -277 171 -325 351 -18 67 -19 127 -19 1295 0 1172 1 1228
19 1295 29 106 67 173 135 238 72 69 141 103 258 126 74 15 95 16 157 5 39 -7
91 -20 116 -29z m-18 -4000 c230 -48 419 -230 479 -461 36 -139 26 -323 -25
-461 -45 -125 -173 -265 -296 -325 -113 -55 -186 -71 -325 -71 -206 0 -346 54
-475 183 -82 81 -125 149 -159 249 -43 125 -44 326 -3 458 65 208 252 381 462
427 88 19 252 19 342 1z"/>
</g>
</svg>
