<?xml version="1.0" standalone="no"?>
<svg version="1.0" xmlns="http://www.w3.org/2000/svg"
 width="1368.000000pt" height="1222.000000pt" viewBox="0 0 1368.000000 1222.000000"
 preserveAspectRatio="xMidYMid meet">

<g transform="translate(0.000000,1222.000000) scale(0.100000,-0.100000)"
fill="#000000" stroke="none">
<path d="M1975 11769 c-504 -51 -937 -344 -1162 -787 -61 -120 -103 -247 -136
-407 l-22 -110 0 -4445 0 -4445 22 -110 c66 -321 193 -565 405 -776 214 -212
453 -337 773 -402 l110 -22 3005 0 3005 0 110 22 c321 66 565 193 776 405 273
275 410 607 426 1034 6 158 6 162 -20 217 -28 61 -62 89 -131 108 -34 9 -45 7
-95 -18 -43 -22 -62 -38 -80 -73 -23 -40 -26 -61 -32 -215 -13 -290 -74 -488
-211 -681 -147 -209 -362 -346 -651 -417 l-92 -22 -3000 0 c-2862 0 -3004 1
-3080 18 -177 40 -319 102 -450 195 -203 144 -349 379 -412 664 -17 80 -18
262 -18 4523 l0 4440 22 92 c110 449 380 720 833 835 l85 22 1687 3 1687 4 3
-1423 3 -1423 23 -80 c47 -167 113 -274 254 -411 140 -137 234 -193 398 -236
l85 -23 1583 0 c1572 0 1584 0 1599 20 11 16 13 36 8 95 -10 123 -42 221 -103
320 -50 80 -3314 3346 -3402 3404 -61 40 -124 69 -215 98 -32 10 -393 13
-1775 14 -954 1 -1771 -2 -1815 -7z m6598 -3587 c-109 -1 -702 -1 -1318 1
-1102 3 -1121 3 -1180 23 -188 65 -298 176 -361 364 -18 52 -19 120 -22 1375
l-2 1320 1540 -1540 1540 -1540 -197 -3z"/>
<path d="M11979 9610 c-75 -12 -160 -42 -228 -82 -42 -24 -664 -639 -2498
-2473 l-2443 -2440 -44 -205 c-181 -835 -347 -1598 -352 -1612 -5 -16 -21 -18
-152 -18 l-146 0 -286 284 c-258 257 -292 288 -355 318 -60 28 -81 33 -145 33
-64 0 -85 -5 -144 -33 -61 -29 -96 -59 -288 -249 -120 -119 -220 -215 -222
-212 -2 2 -144 339 -316 749 -171 410 -326 769 -345 798 -67 99 -172 152 -305
152 -133 0 -238 -53 -304 -152 -20 -30 -171 -384 -341 -798 -169 -410 -320
-778 -337 -817 l-30 -73 -222 0 -222 0 -55 -28 c-135 -68 -135 -236 0 -304
l55 -28 285 0 c163 0 302 4 323 10 20 6 49 25 65 43 18 21 157 339 403 919
206 488 377 888 380 888 3 0 169 -388 369 -863 200 -474 374 -879 387 -899 55
-86 153 -115 240 -70 27 13 146 130 330 322 159 165 291 300 294 300 3 0 136
-137 297 -304 179 -186 306 -310 330 -322 35 -17 68 -19 376 -22 l337 -3 923
191 c507 105 943 195 968 201 43 10 164 129 2485 2452 1832 1834 2448 2456
2472 2498 110 188 117 423 21 626 -54 113 -145 215 -571 639 -426 423 -494
483 -612 533 -109 47 -266 68 -377 51z m245 -389 c52 -26 124 -93 513 -483
513 -514 508 -507 508 -648 0 -65 -5 -85 -33 -142 -29 -60 -75 -108 -515 -537
l-482 -470 -642 642 -643 642 468 468 c257 258 484 482 504 498 93 75 209 86
322 30z m-2032 -4304 l-1778 -1778 -784 -154 c-432 -85 -792 -156 -801 -159
-11 -2 -15 2 -13 13 3 9 74 369 159 801 l154 784 1778 1778 1778 1778 642
-642 643 -643 -1778 -1778z"/>
</g>
</svg>
