<svg width="25" height="24" viewBox="0 0 25 24" fill="none" xmlns="http://www.w3.org/2000/svg">
<path d="M20.8421 7.10595C19.9703 5.6121 18.7876 4.42942 17.2939 3.55764C15.8 2.68581 14.169 2.25001 12.3999 2.25001C10.6311 2.25001 8.9996 2.68594 7.50597 3.55764C6.01212 4.42938 4.82953 5.6121 3.95765 7.10595C3.08592 8.59976 2.65002 10.231 2.65002 11.9997C2.65002 14.1242 3.26987 16.0346 4.50987 17.7315C5.74973 19.4284 7.35145 20.6027 9.3149 21.2543C9.54345 21.2967 9.71264 21.2669 9.82265 21.1656C9.9327 21.0641 9.98766 20.937 9.98766 20.7848C9.98766 20.7595 9.98548 20.531 9.98126 20.0993C9.9769 19.6676 9.97485 19.291 9.97485 18.9696L9.68285 19.0202C9.49667 19.0543 9.26181 19.0687 8.97826 19.0646C8.69484 19.0607 8.40061 19.031 8.09598 18.9757C7.79121 18.921 7.50775 18.7941 7.24536 18.5952C6.98311 18.3963 6.79693 18.1359 6.68688 17.8145L6.55993 17.5224C6.47531 17.3279 6.3421 17.1119 6.1601 16.875C5.97811 16.638 5.79406 16.4773 5.60789 16.3927L5.519 16.329C5.45978 16.2868 5.40482 16.2358 5.35399 16.1766C5.30321 16.1174 5.2652 16.0582 5.23981 15.9988C5.21437 15.9395 5.23545 15.8908 5.30326 15.8526C5.37107 15.8144 5.49361 15.7959 5.67143 15.7959L5.92524 15.8338C6.09451 15.8677 6.3039 15.9691 6.55366 16.1384C6.80329 16.3077 7.0085 16.5277 7.16933 16.7984C7.36408 17.1455 7.59873 17.4099 7.87392 17.5919C8.14889 17.7739 8.42613 17.8648 8.70537 17.8648C8.98461 17.8648 9.22579 17.8436 9.429 17.8015C9.63198 17.7592 9.82243 17.6955 10.0002 17.611C10.0764 17.0437 10.2838 16.6079 10.6222 16.3033C10.1399 16.2526 9.70619 16.1762 9.32099 16.0747C8.93601 15.9731 8.53818 15.8081 8.12777 15.5794C7.71714 15.3509 7.37649 15.0673 7.10574 14.7289C6.83495 14.3904 6.61271 13.9459 6.43934 13.3959C6.26588 12.8457 6.17913 12.211 6.17913 11.4916C6.17913 10.4674 6.51351 9.59578 7.18213 8.87633C6.86892 8.10629 6.89849 7.24304 7.27093 6.28668C7.51638 6.21043 7.88037 6.26765 8.36273 6.45801C8.84517 6.64845 9.1984 6.8116 9.42277 6.94686C9.64714 7.08208 9.82692 7.19666 9.96236 7.2896C10.7496 7.06963 11.562 6.95962 12.3998 6.95962C13.2377 6.95962 14.0503 7.06963 14.8376 7.2896L15.32 6.98505C15.6498 6.78185 16.0394 6.59563 16.4877 6.42635C16.9363 6.25716 17.2793 6.21056 17.5164 6.28682C17.8971 7.24322 17.931 8.10642 17.6177 8.87647C18.2863 9.59591 18.6208 10.4677 18.6208 11.4918C18.6208 12.2111 18.5337 12.8478 18.3605 13.4023C18.1871 13.9568 17.963 14.4008 17.688 14.7353C17.4127 15.0697 17.0699 15.3511 16.6595 15.5795C16.249 15.808 15.851 15.973 15.466 16.0747C15.0809 16.1763 14.6472 16.2527 14.1648 16.3035C14.6048 16.6842 14.8248 17.2851 14.8248 18.106V20.7845C14.8248 20.9367 14.8777 21.0637 14.9836 21.1652C15.0894 21.2665 15.2565 21.2964 15.485 21.2539C17.4487 20.6024 19.0505 19.4281 20.2903 17.7311C21.53 16.0343 22.15 14.1238 22.15 11.9993C22.1496 10.2309 21.7135 8.59976 20.8421 7.10595Z" fill="black"/>
</svg>
