<?xml version="1.0" encoding="utf-8"?>
<!-- Generator: Adobe Illustrator 16.0.0, SVG Export Plug-In . SVG Version: 6.00 Build 0)  -->
<!DOCTYPE svg PUBLIC "-//W3C//DTD SVG 1.1//EN" "http://www.w3.org/Graphics/SVG/1.1/DTD/svg11.dtd">
<svg version="1.1" xmlns="http://www.w3.org/2000/svg" xmlns:xlink="http://www.w3.org/1999/xlink" x="0px" y="0px" width="248px"
	 height="775px" viewBox="0 0 248 775" enable-background="new 0 0 248 775" xml:space="preserve">
<g>
	<path d="M23.479,745.505c3.159,0,16.155-1.713,16.155,1.481c0,3.404,2.259,19.697,0,21.764c-1.746,1.597-16.155,0.707-16.155-1.481
		C23.479,760.014,23.479,752.76,23.479,745.505z"/>
	<path d="M207.693,745.505c2.017,0,16.969-0.421,16.969,0.392c0,4.06,2.531,20.14,0,22.854c-1.172,1.257-16.969-0.461-16.969-0.392
		C207.693,760.74,207.693,753.123,207.693,745.505z"/>
	<path fill="#FFFFFF" stroke="#FFFFFF" stroke-width="3" stroke-linecap="round" stroke-linejoin="round" d="M27.895,692.972
		c-3.758,5.307-7.516,10.614-11.274,15.921c72.756,0,145.513,0,218.269,0c-4.029-5.656-8.058-11.313-12.087-16.969
		c0,4.258,2.89,13.013-2.483,13.022c-5.929,0.01-11.858,0.021-17.787,0.031c-22.484,0.041-44.968,0.081-67.452,0.122
		c-35.729,0.063-71.457,0.128-107.185,0.192C27.895,701.186,27.895,697.078,27.895,692.972z"/>
	<path stroke="#A89187" stroke-width="3" stroke-linecap="round" stroke-linejoin="round" d="M223.035,705.292
		c-64.541,0-129.083,0-193.624,0c-2.665,0-1.284-85.526-1.284-94.233c0-5.442-3.7-21.294,3.222-21.294c14.145,0,28.289,0,42.433,0
		c49.323,0,98.646,0,147.969,0C224.362,589.765,223.035,693.056,223.035,705.292z"/>
	<path stroke="#A89187" stroke-width="3" stroke-linecap="round" stroke-linejoin="round" d="M38.587,428.214
		c58.112-0.077,116.224-0.155,174.336-0.232c0,32.356,0,64.712,0,97.068c0,1.896-80.589,0.906-87.168,0.906
		c-6.578,0-87.168,0.986-87.168-0.904C38.587,492.772,38.587,460.493,38.587,428.214z"/>
	<path stroke="#A89187" stroke-width="3" stroke-linecap="round" stroke-linejoin="round" d="M28.127,360.339
		c64.969-0.194,129.939-0.389,194.908-0.583c0,2.754,0.052,28.709-0.053,28.709c-5.056,0-10.111,0-15.167,0
		c-26.947,0-53.895,0-80.842,0c-27.337,0-54.673,0-82.01,0c-5.542,0-11.084,0-16.627,0
		C27.913,388.465,28.127,363.207,28.127,360.339z"/>
	<path stroke="#A89187" stroke-width="3" stroke-linecap="round" stroke-linejoin="round" d="M24.989,321.055
		c-5.385,3.138-10.77,6.275-16.155,9.413c77.328,0,154.655,0,231.983,0c-7.277-2.836-17.478-4.783-23.628-9.586
		c-4.938-3.855-17.4-1.339-23.934-1.339c-20.35,0-40.699,0-61.05,0c-18.669,0-37.339,0-56.009,0
		C60.085,319.542,40.667,316.441,24.989,321.055z"/>
	<path fill="#9B6D5D" stroke="#000000" stroke-width="3" stroke-linecap="round" stroke-linejoin="round" d="M8.834,330.467
		c69.39,0,138.779,0,208.17,0c3.842,0,21.099-2.661,24.162,0c2.368,2.057,0,20.269,0,23.64c0,4.436,1.532,6.232-2.733,6.232
		c-33.636,0-67.272,0-100.908,0c-34.843,0-69.686,0-104.528,0c-7.821,0-15.643,0-23.464,0
		C8.038,360.339,8.834,334.028,8.834,330.467z"/>
	<path fill="#9B6D5D" stroke="#000000" stroke-width="3" stroke-linecap="round" stroke-linejoin="round" d="M28.127,532.815
		c0-48.117,0-96.233,0-144.351c3.324,12.816,6.648,25.633,9.973,38.449c2.227,8.585,0.487,19.266,0.487,28.044
		c0,18.241,0,36.482,0,54.724c0,5.09,0,10.181,0,15.271C38.587,528.751,31.108,531.027,28.127,532.815z"/>
	<path fill="#9B6D5D" stroke="#000000" stroke-width="3" stroke-linecap="round" stroke-linejoin="round" d="M223.384,531.188
		c0-47.574,0-95.149,0-142.724c-4.019,12.891-8.037,25.781-12.056,38.672c-2.845,9.125-0.264,22.729-0.264,32.17
		c0,17.952,0,35.904,0,53.856c0,4.229,0,8.46,0,12.689C211.064,528.065,222.784,532.021,223.384,531.188z"/>
	<path fill="#9B6D5D" stroke="#000000" stroke-width="3" stroke-linecap="round" stroke-linejoin="round" d="M210.831,428.214
		c-38.446,0-76.893,0-115.338,0c-18.309,0-36.617,0-54.925,0c-7.181,0-10.689-32.533-12.44-39.749c65.085,0,130.171,0,195.256,0
		C219.199,401.715,215.016,414.964,210.831,428.214z"/>
	<path fill="#9B6D5D" stroke="#000000" stroke-width="2" stroke-linecap="round" stroke-linejoin="round" d="M38.587,526.188
		c-3.487,2.209-6.973,4.418-10.46,6.627c65.085,0,130.171,0,195.256,0c-11.325-6.092-15.011-6.627-27.502-6.627
		c-19.525,0-39.051,0-58.576,0C104.399,526.188,71.493,526.188,38.587,526.188z"/>
	<path fill="#9B6D5D" stroke="#000000" stroke-width="3" stroke-linecap="round" stroke-linejoin="round" d="M223.035,531.188
		c0,17.131,0,34.263,0,51.394c0,10.81-4.947,7.183-15.22,7.183c-41.38,0-82.759,0-124.138,0c-16.165,0-32.33,0-48.495,0
		c-1.011,0-6.277,0.752-7.055,0c-2.252-2.178,0-18.575,0-21.646c0-5.434-3.273-35.304,2.517-35.304c13.75,0,27.5,0,41.25,0
		c33.001,0,66.002,0,99.004,0c12.415,0,24.83,0,37.244,0C212.106,532.815,220.604,534.688,223.035,531.188z"/>
	<path fill="#9B6D5D" stroke="#000000" stroke-width="3" stroke-linecap="round" stroke-linejoin="round" d="M16.621,708.893
		c68.485,0,136.97,0,205.455,0c13.539,0,12.465-1.649,12.465,12.888c0,3.505,2.471,21.352,0,23.725c-0.832,0.799-6.396,0-7.474,0
		c-38.011,0-76.022,0-114.034,0c-27.982,0-55.965,0-83.947,0c-0.963,0-12.465,0.313-12.465-0.266
		C16.621,733.124,16.621,721.008,16.621,708.893z"/>
	<path fill="#A89187" stroke="#000000" stroke-width="3" stroke-linecap="round" stroke-linejoin="round" d="M89.029,448.318
		C109.202,448.318,88.337,455.058,89.029,448.318L89.029,448.318z"/>
	<path fill="#A89187" stroke="#000000" stroke-width="3" stroke-linecap="round" stroke-linejoin="round" d="M82.985,477.374
		c0-5.353-2.561-17.53,0.582-22.196c3.071-4.559,13.877-5.654,18.015-1.978c4.81,4.274,2.092,16.912,2.092,22.642
		C103.673,479.124,86.613,477.374,82.985,477.374z"/>
	<path fill="#A89187" stroke="#000000" stroke-width="3" stroke-linecap="round" stroke-linejoin="round" d="M152.836,448.669
		C172.324,448.669,152.064,455.404,152.836,448.669L152.836,448.669z"/>
	<path fill="#A89187" stroke="#000000" stroke-width="3" stroke-linecap="round" stroke-linejoin="round" d="M147.024,477.374
		c0-10.656-4.375-25.145,9.415-25.452c15.288-0.342,11.136,13.527,11.272,25.452C160.816,477.374,153.92,477.374,147.024,477.374z"
		/>
	<path fill="#138AFF" d="M150.162,438.906c4.523,0,9.047,0,13.57,0c0.737,0,1.468,8.916,0.609,9.763c-1.49,1.471-11.276,0-13.57,0
		C149.464,448.669,150.162,440.49,150.162,438.906z"/>
	<path fill="#FA002A" d="M86.704,438.906c4.412,0,8.824,0,13.236,0c0.724,0,1.424,8.587,0.594,9.412c-1.438,1.431-11.01,0-13.236,0
		C86.023,448.318,86.704,440.441,86.704,438.906z"/>
	<path fill="#A89187" stroke="#000000" stroke-width="3" stroke-linecap="round" stroke-linejoin="round" d="M72.292,487.022
		c13.005-0.619,25.475-3.884,38.47,0C99.004,491.56,84.179,490.542,72.292,487.022z"/>
	<path fill="#A89187" stroke="#000000" stroke-width="3" stroke-linecap="round" stroke-linejoin="round" d="M139.47,485.975
		c12.53-2.478,25.354-2.805,37.89,0C164.578,489.576,152.303,489.279,139.47,485.975z"/>
	<path fill="#FFFFFF" stroke="#000000" stroke-width="3" stroke-linecap="round" stroke-linejoin="round" d="M77.522,528.863
		c-1.743-13.947-3.487-27.894-5.23-41.841c12.375,3.379,26.186,4.788,38.47,0c-1.734,13.793-3.468,27.586-5.202,41.379
		C104.792,534.516,80.778,530.206,77.522,528.863z"/>
	<path fill="#FFFFFF" stroke="#000000" stroke-width="3" stroke-linecap="round" stroke-linejoin="round" d="M144.468,527.583
		c-1.743-13.675-3.487-27.351-5.23-41.025c12.7,1.468,25.633,4.516,38.122-0.583c-1.631,13.573-3.261,27.146-4.892,40.72
		C171.641,533.582,148.497,529.772,144.468,527.583z"/>
	<path stroke="#A89187" stroke-width="3" stroke-linecap="round" stroke-linejoin="round" d="M89.029,468.541
		c1.163-4.087,4.891-4.929,7.787-2.092c3.368,3.3,1.395,12.064,1.395,16.329c0,1.746-6.656,2.468-8.136,1.337
		C88.374,482.814,89.195,471.016,89.029,468.541z"/>
	<path stroke="#A89187" stroke-width="3" stroke-linecap="round" stroke-linejoin="round" d="M152.836,468.541
		c1.254-3.979,6.669-5.564,8.426-1.046c1.704,4.381,0.407,10.96,0.407,15.637c0,1.516-6.341,1.937-7.555,0.983
		C152.343,482.725,153.046,471.101,152.836,468.541z"/>
	<path fill="#FFFFFF" stroke="#000000" stroke-width="3" stroke-linecap="round" stroke-linejoin="round" d="M52.186,616.961
		c9.825,0,19.651,0,29.476,0c7.587,0,13.005,0.039,13.643,4.916c1.578,12.059,0,24.322,0,36.483c0,3.226,2.469,22.835,0,24.963
		C91.518,686.586,71.385,686,66.333,686c-7.587,0-14.148,0.584-14.148-7.593C52.186,657.926,52.186,637.443,52.186,616.961z"/>
	<path fill="#FFFFFF" stroke="#000000" stroke-width="3" stroke-linecap="round" stroke-linejoin="round" d="M154.579,616.961
		c9.441,0,18.884,0,28.325,0c7.656,0,14.562-0.084,14.562-0.084s1,29.322,1,41.483c0,3.352,1.525,22.682-1,24.963
		c-3.428,3.097-24.131,2.01-28.799,2.01c-7.656,0-14.088,1.447-14.088-6.926C154.579,657.926,154.579,637.443,154.579,616.961z"/>
	
		<line fill="none" stroke="#000000" stroke-width="3" stroke-linecap="round" stroke-linejoin="round" x1="52.418" y1="623.237" x2="95.305" y2="623.237"/>
	
		<line fill="none" stroke="#000000" stroke-width="3" stroke-linecap="round" stroke-linejoin="round" x1="52.418" y1="629.514" x2="95.305" y2="629.514"/>
	
		<line fill="none" stroke="#000000" stroke-width="3" stroke-linecap="round" stroke-linejoin="round" x1="52.418" y1="636.022" x2="95.305" y2="636.022"/>
	
		<line fill="none" stroke="#000000" stroke-width="3" stroke-linecap="round" stroke-linejoin="round" x1="52.418" y1="642.298" x2="95.305" y2="642.298"/>
	
		<line fill="none" stroke="#000000" stroke-width="3" stroke-linecap="round" stroke-linejoin="round" x1="52.418" y1="648.574" x2="95.305" y2="648.574"/>
	
		<line fill="none" stroke="#000000" stroke-width="3" stroke-linecap="round" stroke-linejoin="round" x1="52.418" y1="655.315" x2="95.305" y2="655.315"/>
	
		<line fill="none" stroke="#000000" stroke-width="3" stroke-linecap="round" stroke-linejoin="round" x1="52.418" y1="661.592" x2="95.305" y2="661.592"/>
	
		<line fill="none" stroke="#000000" stroke-width="3" stroke-linecap="round" stroke-linejoin="round" x1="52.418" y1="667.867" x2="95.305" y2="667.867"/>
	
		<line fill="none" stroke="#000000" stroke-width="3" stroke-linecap="round" stroke-linejoin="round" x1="52.418" y1="674.376" x2="95.305" y2="674.376"/>
	
		<line fill="none" stroke="#000000" stroke-width="3" stroke-linecap="round" stroke-linejoin="round" x1="52.418" y1="680.188" x2="95.305" y2="680.188"/>
	
		<line fill="none" stroke="#000000" stroke-width="3" stroke-linecap="round" stroke-linejoin="round" x1="154.579" y1="680.188" x2="197.466" y2="680.188"/>
	
		<line fill="none" stroke="#000000" stroke-width="3" stroke-linecap="round" stroke-linejoin="round" x1="197.466" y1="674.376" x2="154.579" y2="674.376"/>
	
		<line fill="none" stroke="#000000" stroke-width="3" stroke-linecap="round" stroke-linejoin="round" x1="154.579" y1="667.867" x2="197.466" y2="667.867"/>
	
		<line fill="none" stroke="#000000" stroke-width="3" stroke-linecap="round" stroke-linejoin="round" x1="197.466" y1="661.592" x2="154.347" y2="661.592"/>
	
		<line fill="none" stroke="#000000" stroke-width="3" stroke-linecap="round" stroke-linejoin="round" x1="154.579" y1="655.083" x2="197.466" y2="655.083"/>
	
		<line fill="none" stroke="#000000" stroke-width="3" stroke-linecap="round" stroke-linejoin="round" x1="197.466" y1="648.574" x2="154.579" y2="648.574"/>
	
		<line fill="none" stroke="#000000" stroke-width="3" stroke-linecap="round" stroke-linejoin="round" x1="154.579" y1="642.298" x2="197.466" y2="642.298"/>
	
		<line fill="none" stroke="#000000" stroke-width="3" stroke-linecap="round" stroke-linejoin="round" x1="197.233" y1="636.022" x2="154.347" y2="636.022"/>
	
		<line fill="none" stroke="#000000" stroke-width="3" stroke-linecap="round" stroke-linejoin="round" x1="154.579" y1="629.514" x2="197.466" y2="629.514"/>
	
		<line fill="none" stroke="#000000" stroke-width="3" stroke-linecap="round" stroke-linejoin="round" x1="197.466" y1="623.237" x2="154.579" y2="623.237"/>
	<path fill="#00A0C6" stroke="#000000" stroke-width="3" stroke-linecap="round" stroke-linejoin="round" d="M33.125,325.239
		c-25.42-7.872-22.199-34.098-22.199-54.789c0-42.416,0-84.831,0-127.246c0-28.447,0-56.895,0-85.341
		c0-10.257,5.495-30.726,12.552-38.875c8.181-9.447,15.71-8.368,26.724-8.368c41.683,0,83.367,0,125.049,0
		c12.19,0,24.382,0,36.572,0c14.664,0,18.38,22.919,19.844,32.682c3.566,23.78,0.016,50.738-0.017,74.711
		c-0.061,44.251-0.12,88.502-0.181,132.753c-0.021,15.772,2.705,34.35-0.067,49.948c-4.094,23.034-26.079,26.152-45.616,26.152
		c-24.446,0-48.892,0-73.337,0c-17.071,0-34.141,0-51.211,0C51.919,326.866,42.127,328.066,33.125,325.239z"/>
	<path fill="#B2B2B2" stroke="#000000" stroke-width="3" stroke-linecap="round" stroke-linejoin="round" d="M11.426,81.981
		c0,0-4.276-48.269,11.457-64.237C33.306,7.166,50.319,8.317,63.961,8.409c20.418,0.139,40.804-1.307,61.23-1.105
		c19.618,0.194,39.238,0.579,58.835,1.557c12.724,0.635,32.357-2.202,41.021,9.595c12.248,16.676,7.542,42.58,7.355,61.701
		C159.332,72.943,82.5,67.75,10.926,81.981C10.926,60.368,11.426,81.981,11.426,81.981z"/>
	<path fill="#5FCDFF" stroke="#FFFFFF" stroke-width="4" stroke-linecap="round" stroke-linejoin="round" d="M40.912,75.24
		c20.338-2.99,127.254-6.821,189.026,4.917c0,0-13.688,6.593-30.438,8.343S92.146,92.863,64.323,90.932S13.75,81.75,13.75,81.75
		S20.574,78.23,40.912,75.24z"/>
	<path fill="#FFFFFF" d="M115.179,77.332c3.402-0.008,8.518,2.63,8.833,6.509c0.413,5.079-5.4,4.999-10.169,4.999
		C102.482,88.839,105.933,77.457,115.179,77.332z"/>
	<g>
		<path fill="#FFFFFF" d="M58.229,15.386c0,0,1.961-0.371,5.398-0.95c1.718-0.288,3.805-0.639,6.202-1.001
			c1.198-0.186,2.473-0.383,3.816-0.592c0.671-0.108,1.365-0.145,2.077-0.165c0.711-0.038,1.438-0.077,2.182-0.116
			c2.974-0.165,6.195-0.343,9.603-0.531c1.704-0.094,3.454-0.191,5.243-0.29c1.791-0.065,3.621-0.131,5.482-0.199
			c1.861-0.067,3.753-0.135,5.668-0.204c1.915-0.078,3.854-0.142,5.811-0.146c3.913-0.034,7.888-0.113,11.862-0.112
			c3.974,0.058,7.948,0.116,11.86,0.173c3.908,0.105,7.752,0.276,11.473,0.405c3.724,0.114,7.313,0.323,10.718,0.502
			c3.405,0.18,6.624,0.351,9.596,0.508c0.743,0.041,1.47,0.08,2.181,0.119c0.712,0.01,1.405,0.056,2.078,0.168
			c1.346,0.2,2.622,0.391,3.821,0.569c2.397,0.371,4.488,0.694,6.209,0.96c3.441,0.554,5.404,0.903,5.404,0.903
			s-1.993,0.104-5.475,0.229c-1.74,0.052-3.854,0.114-6.277,0.187c-1.211,0.029-2.5,0.061-3.858,0.094
			c-0.68,0.029-1.373-0.011-2.08-0.089c-0.709-0.062-1.436-0.104-2.177-0.145c-2.965-0.157-6.177-0.327-9.575-0.507
			c-3.397-0.179-6.98-0.388-10.686-0.501c-3.706-0.128-7.536-0.299-11.427-0.403c-3.891-0.057-7.843-0.114-11.795-0.172
			c-3.952-0.001-7.904,0.078-11.794,0.112c-1.945,0.004-3.875,0.068-5.781,0.146c-1.906,0.069-3.79,0.137-5.642,0.204
			c-1.853,0.067-3.674,0.133-5.457,0.198c-1.782,0.099-3.525,0.195-5.223,0.289c-3.395,0.188-6.604,0.365-9.566,0.529
			c-1.483,0.03-2.896,0.292-4.255,0.268c-1.359-0.025-2.649-0.049-3.861-0.071c-2.423-0.035-4.538-0.101-6.279-0.154
			C60.223,15.488,58.229,15.386,58.229,15.386z"/>
	</g>
	<path fill="none" d="M116.458,156.481c8.772-0.803,9.491,13.631,0.581,14.412c-9.341,0.819-10.673-14.175-1.046-14.412"/>
	<path fill="none" d="M135.751,177.867c11.777-0.966,12.044,19.061-0.232,19.061c-11.693,0-12.345-17.563-0.813-19.061"/>
	<path fill="none" d="M157.252,172.171c5.84,0.357,5.739,9.569,0,9.88c-5.527,0.299-7.17-8.9-1.278-9.88"/>
	<path fill="#FFFFFF" d="M54.278,272.473c5.917-0.316,5.729,8.368-0.582,8.368C48.644,280.841,48.415,272.093,54.278,272.473z"/>
	<path fill="none" d="M68.922,245.277c5.931,0.427,5.621,9.741-0.581,8.947C62.766,253.511,63.651,245.81,68.922,245.277z"/>
	<path fill="#FFFFFF" d="M80.893,126.379c6.038,0.781,5.136,10.197-1.046,8.95C74.511,134.252,75.5,126.647,80.893,126.379z"/>
	<path fill="#FFFFFF" d="M121.223,136.026c18.989-1.031,18.354,31.343-1.627,29.288C101.918,163.496,103.33,135.417,121.223,136.026
		z"/>
	<path fill="#FFFFFF" d="M194.909,204.599c6.386,0.066,5.252,10.026-0.813,8.833C188.955,212.42,189.615,204.922,194.909,204.599z"
		/>
	<path fill="#FFFFFF" d="M82.752,192.744c6.248,0.989,5.361,10.666-0.93,9.879C75.683,201.855,76.775,192.83,82.752,192.744z"/>
	<path fill="#FFFFFF" d="M110.995,219.94c12.846-0.112,10.541,21.928-1.337,19.351C97.91,236.742,99.227,221.05,110.995,219.94z"/>
	<path fill="#FFFFFF" d="M69.735,237.721c6.04,0.184,5.436,9.665-0.581,8.95C63.742,246.029,64.141,237.697,69.735,237.721z"/>
	<path fill="#FFFFFF" d="M131.566,269.917c10.091-0.993,9.887,16.556-1.046,15.341C120.902,284.189,121.745,269.115,131.566,269.917
		z"/>
	<path fill="#FFFFFF" d="M88.796,271.425c8.547-0.025,8.925,13.603,0.232,14.412C79.063,286.765,79.05,270.264,88.796,271.425z"/>
	<path fill="#FFFFFF" d="M113.9,301.994c5.854,0.712,5.103,9.822-0.813,8.947C107.618,310.133,108.316,302.222,113.9,301.994z"/>
	<path fill="#FFFFFF" d="M161.955,101.189c16.449,0,14.901,24.912-1.326,23.689C145.994,123.776,147.606,101.189,161.955,101.189z"
		/>
	<path fill="#FFFFFF" d="M77.755,131.61c6.405,0.829,5.375,10.894-1.046,9.82C71.124,140.497,71.671,131.319,77.755,131.61z"/>
	<path fill="#FFFFFF" d="M116.458,156.481c8.772-0.803,9.491,13.631,0.581,14.412C107.421,171.737,106.5,156.222,116.458,156.481z"
		/>
	<path fill="#FFFFFF" d="M157.252,172.171c6.524,0.399,5.24,10.462-1.046,9.764C150.636,181.315,150.877,171.705,157.252,172.171z"
		/>
	<path fill="#FFFFFF" d="M135.751,177.867c12.164-0.998,11.87,20.258-1.046,19.061C122.98,195.841,123.935,177.979,135.751,177.867z
		"/>
	<path fill="#FFFFFF" d="M128.777,232.26c5.366,0.46,6.006,8.833,0.232,8.833C123.101,241.093,123.097,233.083,128.777,232.26z"/>
	<path fill="#FFFFFF" d="M189.679,210.292c6.547,1.463,4.641,11.675-0.93,9.938C183.078,218.461,183.363,210.384,189.679,210.292z"
		/>
	<path fill="#FFFFFF" d="M68.922,245.277c5.931,0.427,5.621,9.741-0.581,8.947C62.766,253.511,63.651,245.81,68.922,245.277z"/>
	<path fill="#FFFFFF" stroke="#FFFFFF" stroke-width="3" stroke-linecap="round" stroke-linejoin="round" d="M200.371,16.083
		c4.592,0.373,6.263-2.197,10.25,0.382c3.212,2.078,4.354,5.475,5.574,8.912c2.677,7.546,2.713,15.214,1.145,23.132
		C213.73,38.401,210.21,21.842,200.371,16.083z"/>
	<path fill="#FFFFFF" stroke="#FFFFFF" stroke-width="3" stroke-linecap="round" stroke-linejoin="round" d="M30.219,49.323
		c-0.129-8.019,1.417-42.977,16.969-35.797C34.464,24.341,33.322,42.523,30.219,57.691C30.219,54.902,30.219,52.113,30.219,49.323z"
		/>
	<path fill="#FFFFFF" stroke="#FFFFFF" stroke-width="3" stroke-linecap="round" stroke-linejoin="round" d="M35.914,317.218
		c-10.886-7.727-10.705-20.436-10.683-32.51c0.038-20.669,0.075-41.338,0.112-62.007c0.076-41.676,0.151-83.352,0.227-125.028
		c1.272,43.192,2.544,86.385,3.815,129.577c0.595,20.188,1.189,40.375,1.784,60.563c0.479,16.278,4.948,26.469,20.203,33.01
		C45.047,320.502,41.541,319.866,35.914,317.218z"/>
</g>
</svg>
