<svg viewBox="0 0 24 24" fill="none" xmlns="http://www.w3.org/2000/svg">
    <circle cx="12" cy="12" r="12" fill="white" />
    <path fill-rule="evenodd" clip-rule="evenodd"
        d="M12 24C18.6274 24 24 18.6274 24 12C24 5.37258 18.6274 0 12 0C5.37262 0 0 5.37258 0 12C0 18.6274 5.37262 24 12 24ZM14.9324 4.82915C14.5333 4.65738 14.0965 4.52818 13.6223 4.44158V2.43478H10.9521V4.38116C10.3274 4.46569 9.7517 4.62502 9.22452 4.85913C8.3998 5.21891 7.75102 5.7286 7.27887 6.38819C6.80639 7.04112 6.57031 7.80732 6.57031 8.68678V8.69677C6.57031 9.78277 6.92935 10.6656 7.64776 11.3451C8.36651 12.0247 9.4341 12.5078 10.8512 12.7943L12.3679 13.0941C13.266 13.2806 13.9046 13.5138 14.284 13.7936C14.6698 14.0668 14.8624 14.4466 14.8624 14.9329V14.9429C14.8624 15.3094 14.7497 15.6325 14.5234 15.9123C14.3037 16.1855 13.9912 16.3987 13.5853 16.5519C13.1861 16.6985 12.7072 16.7718 12.1484 16.7718C11.6029 16.7718 11.1138 16.6985 10.6814 16.5519C10.249 16.3987 9.8964 16.1888 9.62364 15.9223C9.35768 15.6492 9.19124 15.326 9.12466 14.9529L9.10496 14.843H6.26087L6.27072 15.0029C6.33084 15.889 6.6036 16.6485 7.08899 17.2815C7.57473 17.9078 8.24015 18.3908 9.08492 18.7306C9.64538 18.9499 10.268 19.097 10.9521 19.1719V21.1531H13.6223V19.1151C14.1929 19.0242 14.713 18.8794 15.1821 18.6806C16.0533 18.3075 16.7188 17.7845 17.1777 17.1116C17.6433 16.432 17.876 15.6292 17.876 14.7031V14.6931C17.876 13.9402 17.7198 13.2973 17.4073 12.7643C17.1012 12.2246 16.6257 11.7782 15.9803 11.4251C15.3349 11.072 14.5099 10.7955 13.5054 10.5956L11.9786 10.2858C11.1539 10.1192 10.5486 9.89604 10.1627 9.61621C9.77683 9.33638 9.5839 8.96994 9.5839 8.51688V8.50689C9.5839 8.16043 9.68037 7.85728 9.8733 7.59744C10.0727 7.3376 10.3587 7.1344 10.7313 6.98782C11.1039 6.83459 11.5462 6.75796 12.0584 6.75796C12.5574 6.75796 12.9966 6.83126 13.3757 6.97783C13.7615 7.12441 14.071 7.33428 14.3037 7.60744C14.5367 7.87395 14.6797 8.19707 14.733 8.57684L14.7429 8.69677H17.587L17.5768 8.50689C17.5302 7.66741 17.2809 6.93119 16.8285 6.29824C16.376 5.6653 15.7439 5.17561 14.9324 4.82915Z"
        fill="#1161FE" />
</svg>
