<svg viewBox="0 0 24 24" fill="none" xmlns="http://www.w3.org/2000/svg">
    <g clip-path="url(#clip0_29053_183063)">
        <path fill-rule="evenodd" clip-rule="evenodd"
            d="M10.7459 0L0.790039 4.34075V10.8988C0.790039 16.941 5.03362 22.5986 10.7459 24V17.6846C8.13423 17.1112 6.17969 14.7838 6.17969 12C6.17969 9.21615 8.13423 6.88881 10.7459 6.31539V0ZM13.2539 17.6845C15.8654 17.1109 17.8197 14.7837 17.8197 12C17.8197 9.2163 15.8654 6.88906 13.2539 6.31549L13.2539 0L23.2098 4.34075V10.8988C23.2098 16.941 18.9662 22.5986 13.2539 24L13.2539 17.6845Z"
            fill="#D539EE" />
        <circle cx="12" cy="12" r="3.5" fill="#D539EE" />
        <path fill-rule="evenodd" clip-rule="evenodd"
            d="M13.2442 21V17.6846C15.8556 17.111 17.8099 14.7838 17.8099 12.0001C17.8099 9.21637 15.8556 6.88913 13.2442 6.31555V3.00007C12.5098 3.00005 12.5053 3 12.0098 3C11.658 3 11.0098 3 10.7361 3.00007L10.7361 6.31546C8.12446 6.88888 6.16992 9.21622 6.16992 12.0001C6.16992 14.7839 8.12446 17.1113 10.7361 17.6847V21C11.0098 21 11.5098 21 12.0098 21C12.5053 21 12.5098 21 13.2442 21ZM11.9902 15.5001C13.9232 15.5001 15.4902 13.9331 15.4902 12.0001C15.4902 10.0671 13.9232 8.50007 11.9902 8.50007C10.0572 8.50007 8.49023 10.0671 8.49023 12.0001C8.49023 13.9331 10.0572 15.5001 11.9902 15.5001Z"
            fill="white" />
    </g>
    <defs>
        <clipPath id="clip0_29053_183063">
            <rect width="24" height="24" fill="white" />
        </clipPath>
    </defs>
</svg>
