<svg viewBox="0 0 24 24" fill="none" xmlns="http://www.w3.org/2000/svg">
    <path
        d="M10.9558 0L1 4.34075V10.8988C1 16.941 5.24358 22.5986 10.9558 24V21H13.4641L13.4641 24C19.1763 22.5986 23.4199 16.941 23.4199 10.8988V4.34075L13.4641 0V3H10.9558L10.9558 0Z"
        fill="#6147FF" />
    <path
        d="M13.4713 4.79524C13.9208 4.8801 14.3338 5.00676 14.7119 5.17483C15.1321 5.36011 15.5015 5.58762 15.8202 5.85694C16.0842 6.08035 16.3133 6.33286 16.5075 6.61406C16.9364 7.23387 17.1726 7.95492 17.2162 8.77722L17.2265 8.96292H14.5328L14.5233 8.84568C14.4725 8.47388 14.337 8.15701 14.1166 7.8963C13.8962 7.62862 13.6029 7.42325 13.2375 7.27937C12.8791 7.13589 12.463 7.06416 11.9905 7.06416C11.7479 7.06416 11.522 7.08301 11.3119 7.12073C11.1026 7.15803 10.91 7.21419 10.7332 7.28921C10.3804 7.43268 10.1101 7.6319 9.92065 7.88646C9.73833 8.14102 9.64716 8.43781 9.64716 8.77722V8.78706C9.64716 9.23059 9.82949 9.58969 10.1949 9.86351C10.4343 10.0431 10.7617 10.1984 11.1787 10.33C11.3991 10.3997 11.6441 10.4628 11.9144 10.5194L13.3603 10.8227C13.9137 10.9367 14.4099 11.0761 14.8483 11.2408C15.1638 11.3593 15.4492 11.4909 15.7045 11.6352C16.3157 11.9812 16.7659 12.4186 17.0561 12.9469C17.3518 13.4692 17.5 14.0988 17.5 14.8363V14.8461C17.5 15.7529 17.2796 16.5395 16.8389 17.2048C16.4036 17.864 15.7734 18.3764 14.949 18.7416C14.5043 18.9363 14.012 19.0781 13.4713 19.1671V21.1634H10.9425V19.2228C10.2948 19.1495 9.70503 19.0056 9.1739 18.7908C8.37403 18.4579 7.7438 17.9849 7.28402 17.3712C6.82423 16.7514 6.5658 16.0074 6.50872 15.1396L6.5 14.983H9.19292L9.21195 15.0908C9.27457 15.4561 9.43233 15.7725 9.68442 16.0402C9.94285 16.3013 10.2766 16.5067 10.6864 16.6567C11.0955 16.8002 11.5592 16.8719 12.0753 16.8719C12.6049 16.8719 13.0583 16.8002 13.4364 16.6567C13.8209 16.5067 14.1166 16.2981 14.3251 16.0304C14.5391 15.7561 14.6462 15.4397 14.6462 15.081V15.0712C14.6462 14.5948 14.4638 14.2226 14.0984 13.9554C13.7385 13.6811 13.1336 13.4528 12.283 13.27L10.8474 12.9765C9.50526 12.6957 8.49373 12.2226 7.81356 11.5569C7.1326 10.8916 6.79252 10.0267 6.79252 8.96292V8.95349C6.79252 8.09183 7.01607 7.34168 7.46397 6.7022C7.91107 6.05616 8.52544 5.55688 9.30628 5.20434C9.68363 5.03136 10.0871 4.89977 10.5176 4.81C10.6563 4.78089 10.7982 4.7563 10.9425 4.73621V2.83008H13.4713V4.79524Z"
        fill="white" />
</svg>
