<svg viewBox="0 0 24 24" fill="none" xmlns="http://www.w3.org/2000/svg">
    <path
        d="M24 12C23.977 11.175 23.7254 10.3716 23.272 9.68071C22.8199 8.99106 22.1839 8.43934 21.4355 8.0894C21.7203 7.31418 21.7803 6.4751 21.6143 5.66667C21.447 4.85696 21.0562 4.11111 20.4879 3.51213C19.8876 2.94381 19.143 2.55428 18.3333 2.3857C17.5249 2.21967 16.6858 2.27969 15.9106 2.5645C15.5619 1.81481 15.0115 1.17752 14.3206 0.725415C13.6296 0.273308 12.8263 0.0204342 12 0C11.175 0.0217114 10.3742 0.272031 9.68455 0.725415C8.99489 1.1788 8.447 1.81609 8.10089 2.5645C7.32439 2.27969 6.48276 2.21711 5.67178 2.3857C4.86079 2.55172 4.11367 2.94253 3.51341 3.51213C2.94508 4.11239 2.55683 4.85951 2.39208 5.66794C2.22605 6.47637 2.28991 7.31545 2.57599 8.0894C1.82631 8.43934 1.18774 8.98978 0.733078 9.67944C0.278417 10.3691 0.0242656 11.1737 0 12C0.0255428 12.8263 0.278417 13.6296 0.733078 14.3206C1.18774 15.0102 1.82631 15.5619 2.57599 15.9106C2.28991 16.6845 2.22605 17.5236 2.39208 18.3321C2.55811 19.1418 2.94508 19.8876 3.51213 20.4879C4.11239 21.0536 4.85824 21.4419 5.66667 21.6092C6.47509 21.7778 7.31418 21.7165 8.0894 21.4355C8.43934 22.1839 8.98978 22.8199 9.68071 23.2733C10.3704 23.7254 11.175 23.977 12 24C12.8263 23.9796 13.6296 23.728 14.3206 23.2759C15.0115 22.8238 15.5619 22.1852 15.9106 21.4368C16.682 21.742 17.5275 21.8148 18.341 21.6462C19.1533 21.4776 19.8991 21.0753 20.4866 20.4879C21.0741 19.9004 21.4776 19.1545 21.6462 18.341C21.8148 17.5275 21.742 16.682 21.4355 15.9106C22.1839 15.5607 22.8199 15.0102 23.2733 14.3193C23.7254 13.6296 23.977 12.825 24 12Z"
        fill="#1ECBAC" />
    <path fill-rule="evenodd" clip-rule="evenodd"
        d="M10.8689 17C11.2732 17 11.6011 16.7998 11.8416 16.4438L16.7268 8.66858C16.8689 8.43494 17 8.16797 17 7.91211C17 7.36707 16.519 7 16.0054 7C15.6775 7 15.3826 7.17798 15.1531 7.55615L10.8362 14.6084L8.80322 11.9722C8.54102 11.6273 8.27881 11.505 7.95093 11.505C7.41528 11.505 7 11.9388 7 12.495C7 12.6245 7.02319 12.7488 7.06689 12.8691C7.11328 12.9968 7.18311 13.12 7.27319 13.2402L9.86328 16.4438C10.1584 16.8331 10.4753 17 10.8689 17Z"
        fill="white" />
</svg>
