<svg viewBox="0 0 24 24" fill="none" xmlns="http://www.w3.org/2000/svg">
    <g clip-path="url(#clip0_28984_171441)">
        <circle cx="11.9996" cy="12" r="8.4" fill="white" />
        <path fill-rule="evenodd" clip-rule="evenodd"
            d="M7.8904 21.1595H5.5979C3.70684 21.1595 2.82998 20.2826 2.82998 18.3916V16.1096C2.82998 15.8877 2.77716 15.7399 2.61869 15.5708L1.00231 13.9439C-0.328817 12.6127 -0.339382 11.3767 1.00231 10.0456L2.61869 8.41862C2.77716 8.26016 2.82998 8.10169 2.82998 7.8904V5.5979C2.82998 3.69627 3.70684 2.82998 5.5979 2.82998H7.8904C8.10169 2.82998 8.26016 2.77716 8.41862 2.61869L10.0456 1.00231C11.3767 -0.328817 12.6127 -0.339382 13.9439 1.00231L15.5708 2.61869C15.7399 2.77716 15.8877 2.82998 16.1096 2.82998H18.3916C20.2932 2.82998 21.1595 3.7174 21.1595 5.5979V7.8904C21.1595 8.10169 21.2228 8.26016 21.3813 8.41862L22.9977 10.0456C24.3288 11.3767 24.3394 12.6127 22.9977 13.9439L21.3813 15.5708C21.2228 15.7399 21.1595 15.8877 21.1595 16.1096V18.3916C21.1595 20.2932 20.2826 21.1595 18.3916 21.1595H16.1096C15.8877 21.1595 15.7399 21.2228 15.5708 21.3813L13.9439 22.9977C12.6127 24.3288 11.3767 24.3394 10.0456 22.9977L8.41862 21.3813C8.26016 21.2228 8.10169 21.1595 7.8904 21.1595ZM8.07776 11.86C8.26875 11.9111 8.44125 12.0362 8.62992 12.2852L10.7052 14.9637L15.7837 6.66738C16.0591 6.21357 16.413 6 16.8064 6C17.4229 6 18 6.44048 18 7.09453C18 7.40156 17.8427 7.72192 17.6722 8.00229L11.8099 17.3326C11.5213 17.7598 11.1278 18 10.6427 18C10.1704 18 9.79014 17.7998 9.43594 17.3326L6.32783 13.4883C6.21973 13.344 6.13594 13.1962 6.08027 13.043C6.02783 12.8985 6 12.7494 6 12.594C6 11.9266 6.49834 11.406 7.14111 11.406C7.4987 11.406 7.7912 11.5272 8.07776 11.86Z"
            fill="#1161FE" />
    </g>
    <defs>
        <clipPath id="clip0_28984_171441">
            <rect width="24" height="24" fill="white" />
        </clipPath>
    </defs>
</svg>
