<svg viewBox="0 0 40 40" fill="none" xmlns="http://www.w3.org/2000/svg">
    <path d="M37.0533 16.8397C36.6148 16.84 36.1762 16.8404 35.7377 16.8409C35.1041 16.8416 34.4705 16.8422 33.8368 16.8423C33.1635 16.8423 32.4902 16.8402 31.8169 16.838C30.2766 16.8331 28.7363 16.8281 27.1963 16.8497C25.2073 16.8772 23.8685 18.3644 23.8611 20.4976C23.8538 22.6559 23.8555 24.8142 23.8598 26.9725C23.864 29.2098 25.1845 30.7137 27.2546 30.7279C30.5254 30.7505 33.7964 30.7547 37.0673 30.7445C37.0674 30.8459 37.0674 30.9472 37.0675 31.0486C37.0683 32.2796 37.0691 33.5105 37.0657 34.7415C37.0596 37.0047 35.4504 38.6119 33.1896 38.6121C23.4063 38.6136 13.6229 38.6135 3.83957 38.6123C1.65639 38.6121 0.0107127 37.0079 0.00761403 34.8301C-0.00274452 27.4799 -0.00221312 20.1296 0.00726008 12.7793C0.0100932 10.5891 1.65498 8.98838 3.88127 8.98457C6.91897 8.97935 9.95668 8.98013 12.9944 8.98091C14.1769 8.98122 15.3595 8.98152 16.5421 8.98147C17.959 8.98143 19.3759 8.98123 20.7928 8.98103C24.88 8.98046 28.9671 8.97989 33.0542 8.98298C34.9412 8.98439 36.3568 9.95429 36.8906 11.6001C36.9675 11.837 37.0441 12.0881 37.0455 12.333C37.0542 13.8255 37.0541 15.3181 37.0533 16.8397Z" fill="#656C76"/>
    <path d="M33.2653 2.74958C32.4474 1.77626 31.3779 1.20855 29.9587 1.43165C27.7488 1.77906 25.5399 2.13106 23.3313 2.48355C18.0685 3.32347 12.8058 4.16438 7.54323 5.00528L6.55925 5.16251C5.47575 5.33572 4.38428 5.51043 3.3005 5.68453C3.13407 5.71126 3.00874 5.85758 3.02483 6.02896C3.04057 6.19667 3.18639 6.32034 3.35492 6.32034H34.2045L34.2278 6.0933C34.3491 4.90616 34.1079 3.75235 33.2653 2.74958Z" fill="#656C76"/>
    <path d="M27.9784 19.3177H38.249C39.2165 19.3177 40.0008 20.1021 40.0008 21.0696V26.7461C40.0008 27.7136 39.2165 28.4979 38.249 28.4979H27.9784C27.0109 28.4979 26.2266 27.7136 26.2266 26.7461V21.0696C26.2266 20.1021 27.0109 19.3177 27.9784 19.3177Z" fill="#656C76"/>
    <circle cx="30.8234" cy="23.912" r="3.02262" fill="#1ECBAC"/>
</svg>
