<svg width="162px" height="48px" viewBox="0 0 162 48" version="1.1" xmlns="http://www.w3.org/2000/svg">
    <desc>Download on the Google Play Store.</desc>
    <defs>
        <linearGradient x1="91.488428%" y1="4.9481245%" x2="-38.3517333%" y2="71.9074222%"
                        id="linearGradient-1">
            <stop stop-color="#00A0FF" offset="0%" />
            <stop stop-color="#00A1FF" offset="1%" />
            <stop stop-color="#00BEFF" offset="26%" />
            <stop stop-color="#00D2FF" offset="51%" />
            <stop stop-color="#00DFFF" offset="76%" />
            <stop stop-color="#00E3FF" offset="100%" />
        </linearGradient>
        <linearGradient x1="107.684729%" y1="50%" x2="-130.640394%" y2="50%"
                        id="linearGradient-2">
            <stop stop-color="#FFE000" offset="0%" />
            <stop stop-color="#FFBD00" offset="41%" />
            <stop stop-color="#FFA500" offset="78%" />
            <stop stop-color="#FF9C00" offset="100%" />
        </linearGradient>
        <linearGradient x1="86.219293%" y1="17.8768889%" x2="-50.1497903%" y2="194.702638%"
                        id="linearGradient-3">
            <stop stop-color="#FF3A44" offset="0%" />
            <stop stop-color="#C31162" offset="100%" />
        </linearGradient>
        <linearGradient x1="-18.7537448%" y1="-54.0521474%" x2="42.1210306%"
                        y2="24.9170664%"
                        id="linearGradient-4">
            <stop stop-color="#32A071" offset="0%" />
            <stop stop-color="#2DA771" offset="7%" />
            <stop stop-color="#15CF74" offset="48%" />
            <stop stop-color="#06E775" offset="80%" />
            <stop stop-color="#00F076" offset="100%" />
        </linearGradient>
    </defs>
    <g id="Page-1" stroke="none" stroke-width="1" fill="none" fill-rule="evenodd">
        <g id="Google-Play-badge" fill-rule="nonzero">
            <rect id="Rectangle-path" fill="#000000" x="0" y="0" width="162" height="48" rx="6" />
            <path
                d="M156,0.96 C158.783515,0.96 161.04,3.21648486 161.04,6 L161.04,42 C161.04,44.7835151 158.783515,47.04 156,47.04 L6,47.04 C3.21648486,47.04 0.96,44.7835151 0.96,42 L0.96,6 C0.96,3.21648486 3.21648486,0.96 6,0.96 L156,0.96 Z M156,0 L6,0 C2.6862915,2.13162821e-15 0,2.6862915 0,6 L0,42 C0,45.3137085 2.6862915,48 6,48 L156,48 C159.313708,48 162,45.3137085 162,42 L162,6 C162,2.6862915 159.313708,2.13162821e-15 156,0 Z"
                id="Shape" fill="#A6A6A6" />
            <path
                d="M56.904,12.288 C56.9452243,13.1774773 56.6199211,14.0449523 56.004,14.688 C55.3157397,15.4029639 54.3557806,15.791311 53.364,15.756 C51.8428083,15.7440945 50.4769778,14.8214594 49.8980302,13.4146952 C49.3190825,12.007931 49.6398426,10.3911869 50.712,9.312 C51.4086396,8.60079116 52.3686947,8.20981851 53.364,8.232 C53.8713092,8.23030972 54.3736031,8.33240198 54.84,8.532 C55.2742254,8.70714427 55.6607809,8.98266787 55.968,9.336 L55.332,9.972 C54.8464162,9.39441174 54.1174618,9.07882784 53.364,9.12 C52.6066192,9.11628465 51.8804152,9.42130519 51.3528432,9.96472697 C50.8252713,10.5081487 50.541874,11.2430609 50.568,12 C50.5519223,13.1438276 51.2255718,14.1850074 52.2755199,14.63911 C53.325468,15.0932125 54.5455111,14.8710548 55.368,14.076 C55.7372514,13.6758439 55.9502196,13.1562016 55.968,12.612 L53.364,12.612 L53.364,11.748 L56.856,11.748 C56.8880078,11.9262169 56.9040713,12.1069316 56.904,12.288 Z M62.4,9.288 L59.16,9.288 L59.16,11.568 L62.112,11.568 L62.112,12.432 L59.16,12.432 L59.16,14.712 L62.4,14.712 L62.4,15.6 L58.2,15.6 L58.2,8.4 L62.4,8.4 L62.4,9.288 Z M66.336,15.6 L65.412,15.6 L65.412,9.288 L63.396,9.288 L63.396,8.4 L68.4,8.4 L68.4,9.288 L66.336,9.288 L66.336,15.6 Z M71.928,15.6 L71.928,8.4 L72.852,8.4 L72.852,15.6 L71.928,15.6 Z M76.956,15.6 L76.032,15.6 L76.032,9.288 L74.016,9.288 L74.016,8.4 L78.96,8.4 L78.96,9.288 L76.956,9.288 L76.956,15.6 Z M88.332,14.664 C86.8715878,16.1162735 84.5124122,16.1162735 83.052,14.664 C81.6363227,13.1654806 81.6363227,10.8225194 83.052,9.324 C83.7503981,8.62049603 84.7006989,8.22483956 85.692,8.22483956 C86.6833011,8.22483956 87.6336019,8.62049603 88.332,9.324 C89.7537186,10.8201118 89.7537186,13.1678882 88.332,14.664 Z M83.736,14.064 C84.8175887,15.1410781 86.5664113,15.1410781 87.648,14.064 C88.710238,12.8930054 88.710238,11.1069946 87.648,9.936 C86.5664113,8.85892192 84.8175887,8.85892192 83.736,9.936 C82.673762,11.1069946 82.673762,12.8930054 83.736,14.064 Z M90.696,15.6 L90.696,8.4 L91.824,8.4 L95.328,14.004 L95.328,8.4 L96.252,8.4 L96.252,15.6 L95.292,15.6 L91.632,9.732 L91.632,15.6 L90.696,15.6 Z"
                id="Shape" stroke="#FFFFFF" stroke-width="0.5" fill="#FFFFFF" />
            <path
                d="M81.768,26.1 C78.95451,26.1132401 76.6832087,28.4024174 76.692025,31.2159247 C76.7008414,34.0294321 78.9864446,36.3043299 81.7999624,36.2999373 C84.6134801,36.2955447 86.8919688,34.0135212 86.892,31.2 C86.9117676,29.8372485 86.3774779,28.5248517 85.4115062,27.5634044 C84.4455344,26.6019571 83.1306436,26.0738348 81.768,26.1 Z M81.768,34.296 C80.4998728,34.3846863 79.3064075,33.6891762 78.7584256,32.5421245 C78.2104436,31.3950728 78.419323,30.0296194 79.285159,29.0988456 C80.1509951,28.1680719 81.4978054,27.8611589 82.6814254,28.3248997 C83.8650454,28.7886405 84.6449026,29.9287792 84.648,31.2 C84.6870513,31.9952063 84.4032392,32.7724713 83.8609684,33.3554125 C83.3186976,33.9383536 82.5639505,34.2775396 81.768,34.296 Z M70.596,26.1 C67.7809194,26.1066237 65.503593,28.3928962 65.5080063,31.2079812 C65.5124195,34.0230661 67.796903,36.302187 70.6119906,36.2999843 C73.4270781,36.2977816 75.7079922,34.0150884 75.708,31.2 C75.7277676,29.8372485 75.1934779,28.5248517 74.2275062,27.5634044 C73.2615344,26.6019571 71.9466436,26.0738348 70.584,26.1 L70.596,26.1 Z M70.596,34.296 C69.3272109,34.3896877 68.1302658,33.6976456 67.5784221,32.5513159 C67.0265783,31.4049863 67.2321873,30.0377538 68.096776,29.1044321 C68.9613648,28.1711103 70.3089091,27.8617171 71.4940246,28.3244312 C72.6791401,28.7871453 73.4605457,29.9277613 73.464,31.2 C73.5030513,31.9952063 73.2192392,32.7724713 72.6769684,33.3554125 C72.1346976,33.9383536 71.3799505,34.2775396 70.584,34.296 L70.596,34.296 Z M57.288,27.672 L57.288,29.832 L62.472,29.832 C62.3907161,30.8493646 61.9678136,31.8093534 61.272,32.556 C60.2232275,33.6242696 58.7718519,34.1995896 57.276,34.14 C54.0948398,34.14 51.516,31.5611602 51.516,28.38 C51.516,25.1988398 54.0948398,22.62 57.276,22.62 C58.7373549,22.5961666 60.1485143,23.1528625 61.2,24.168 L62.724,22.644 C61.2899035,21.1918298 59.3288621,20.3823049 57.288,20.4 C54.3827529,20.2869348 51.6484723,21.7724061 50.1622249,24.2712685 C48.6759775,26.7701308 48.6759775,29.8818692 50.1622249,32.3807315 C51.6484723,34.8795939 54.3827529,36.3650652 57.288,36.252 C59.366118,36.3459052 61.3832889,35.5364115 62.82,34.032 C64.0772109,32.6507059 64.7484517,30.8349134 64.692,28.968 C64.6958722,28.5131858 64.6556846,28.0590658 64.572,27.612 L57.288,27.672 Z M111.66,29.352 C111.019296,27.4670521 109.281513,26.1732637 107.292,26.1 C105.965236,26.097406 104.696574,26.6440891 103.787255,27.6102403 C102.877937,28.5763915 102.409075,29.8758277 102.492,31.2 C102.462529,32.5551554 102.985397,33.864034 103.940463,34.8258889 C104.895528,35.7877438 106.20067,36.3198705 107.556,36.3 C109.26103,36.3091908 110.856772,35.4617346 111.804,34.044 L110.064,32.844 C109.535695,33.7247306 108.583028,34.2626004 107.556,34.26 C106.49231,34.3005421 105.51197,33.6866398 105.084,32.712 L111.912,29.892 L111.66,29.352 Z M104.7,31.056 C104.650862,30.3061971 104.905591,29.568174 105.40676,29.0083093 C105.907929,28.4484447 106.613352,28.113866 107.364,28.08 C108.155244,28.0278619 108.90128,28.4528191 109.26,29.16 L104.7,31.056 Z M99.156,36 L101.4,36 L101.4,21 L99.156,21 L99.156,36 Z M95.484,27.24 L95.4,27.24 C94.7159545,26.4752121 93.7380686,26.0386559 92.712,26.04 C89.9881763,26.172086 87.8476045,28.4189755 87.8476045,31.146 C87.8476045,33.8730245 89.9881763,36.119914 92.712,36.252 C93.7413947,36.2693085 94.7256191,35.8299226 95.4,35.052 L95.472,35.052 L95.472,35.784 C95.472,37.74 94.428,38.784 92.748,38.784 C91.6035636,38.7572129 90.5888737,38.0412401 90.18,36.972 L88.224,37.788 C88.977218,39.6201732 90.767077,40.81183 92.748,40.8 C95.376,40.8 97.548,39.252 97.548,35.484 L97.548,26.4 L95.484,26.4 L95.484,27.24 Z M92.916,34.296 C91.3114651,34.1545918 90.0808516,32.810754 90.0808516,31.2 C90.0808516,29.589246 91.3114651,28.2454082 92.916,28.104 C93.6913435,28.143789 94.4177831,28.4949242 94.9306198,29.0777958 C95.4434564,29.6606674 95.6992476,30.4259002 95.64,31.2 C95.7061618,31.9776593 95.451189,32.7485174 94.9343644,33.3333452 C94.4175397,33.9181731 93.6838925,34.2660166 92.904,34.296 L92.916,34.296 Z M122.172,21 L116.808,21 L116.808,36 L119.052,36 L119.052,30.312 L122.184,30.312 C123.927221,30.4372366 125.594369,29.5782107 126.504156,28.0859676 C127.413943,26.5937244 127.413943,24.7182756 126.504156,23.2260324 C125.594369,21.7337893 123.927221,20.8747634 122.184,21 L122.172,21 Z M122.172,28.2 L119.04,28.2 L119.04,23.088 L122.22,23.088 C123.641581,23.088 124.794,24.2404191 124.794,25.662 C124.794,27.0835809 123.641581,28.236 122.22,28.236 L122.172,28.2 Z M136.008,26.04 C134.338455,25.9402067 132.768824,26.8405056 132.012,28.332 L134.004,29.16 C134.405287,28.4204018 135.20535,27.9874267 136.044,28.056 C136.619434,27.9887935 137.197744,28.1555641 137.649034,28.5188522 C138.100324,28.8821403 138.386758,29.4114899 138.444,29.988 L138.444,30.144 C137.723271,29.7623989 136.919511,29.5645502 136.104,29.568 C133.956,29.568 131.784,30.768 131.784,32.94 C131.826825,33.8756506 132.246288,34.7541954 132.946958,35.3757568 C133.647627,35.9973182 134.569918,36.3090392 135.504,36.24 C136.655075,36.3226597 137.759483,35.7704558 138.384,34.8 L138.456,34.8 L138.456,36 L140.616,36 L140.616,30.228 C140.616,27.6 138.624,26.076 136.068,26.076 L136.008,26.04 Z M135.732,34.26 C135,34.26 133.98,33.888 133.98,32.988 C133.98,31.788 135.252,31.392 136.38,31.392 C137.09285,31.3744103 137.797357,31.5484649 138.42,31.896 C138.264835,33.239298 137.143828,34.2630486 135.792,34.296 L135.732,34.26 Z M148.488,26.4 L145.92,32.904 L145.848,32.904 L143.184,26.4 L140.784,26.4 L144.78,35.496 L142.5,40.548 L144.84,40.548 L150.984,26.4 L148.488,26.4 Z M128.316,36 L130.56,36 L130.56,21 L128.316,21 L128.316,36 Z"
                id="Shape" fill="#FFFFFF" />
            <path
                d="M12.528,9.048 C12.1368779,9.51733 11.9394644,10.1181539 11.976,10.728 L11.976,37.272 C11.9394644,37.8818461 12.1368779,38.48267 12.528,38.952 L12.612,39.036 L27.48,24.18 L27.48,23.832 L12.612,8.964 L12.528,9.048 Z"
                id="Shape" fill="url(#linearGradient-1)" />
            <path
                d="M32.4,29.136 L27.48,24.18 L27.48,23.832 L32.4,18.864 L32.508,18.924 L38.4,22.272 C40.08,23.22 40.08,24.78 38.4,25.74 L32.532,29.076 L32.4,29.136 Z"
                id="Shape" fill="url(#linearGradient-2)" />
            <path
                d="M32.544,29.064 L27.48,24 L12.528,38.952 C13.2344613,39.5730269 14.2829148,39.6032707 15.024,39.024 L32.556,29.064"
                id="Shape" fill="url(#linearGradient-3)" />
            <path
                d="M32.544,18.936 L15.012,8.976 C14.2709148,8.39672927 13.2224613,8.42697312 12.516,9.048 L27.48,24 L32.544,18.936 Z"
                id="Shape" fill="url(#linearGradient-4)" />
            <path
                d="M32.4,28.956 L15.012,38.856 C14.3004462,39.3880037 13.3235538,39.3880037 12.612,38.856 L12.528,38.94 L12.612,39.024 C13.3222149,39.5600151 14.3017851,39.5600151 15.012,39.024 L32.544,29.064 L32.4,28.956 Z"
                id="Shape" fill="#000000" opacity="0.2" />
            <path
                d="M12.528,38.784 C12.1368779,38.31467 11.9394644,37.7138461 11.976,37.104 L11.976,37.284 C11.9394644,37.8938461 12.1368779,38.49467 12.528,38.964 L12.612,38.88 L12.528,38.784 Z M38.4,25.56 L32.4,28.956 L32.508,29.064 L38.4,25.728 C39.0804841,25.4083358 39.5381621,24.7492796 39.6,24 C39.4632354,24.6778055 39.0200471,25.2539503 38.4,25.56 Z"
                id="Shape" fill="#000000" opacity="0.12" />
            <path
                d="M15.012,9.144 L38.4,22.44 C39.0200471,22.7460497 39.4632354,23.3221945 39.6,24 C39.5381621,23.2507204 39.0804841,22.5916642 38.4,22.272 L15.012,8.976 C13.332,8.028 11.964,8.82 11.964,10.74 L11.964,10.92 C12,8.988 13.344,8.196 15.012,9.144 Z"
                id="Shape" fill="#FFFFFF" opacity="0.25" />
        </g>
    </g>
</svg>
