<svg width="25" height="24" viewBox="0 0 25 24" fill="none" xmlns="http://www.w3.org/2000/svg">
<path fill-rule="evenodd" clip-rule="evenodd" d="M16.9803 1.2796C17.0771 2.54383 16.6773 3.79601 15.8657 4.77022C15.0784 5.74949 13.8854 6.31354 12.629 6.3006C12.5491 5.07276 12.9605 3.86352 13.7727 2.93921C14.5952 2.00238 15.7404 1.40982 16.9803 1.2796ZM20.9539 8.70795C19.5086 9.59652 18.6192 11.1635 18.5974 12.86C18.5994 14.7794 19.7489 16.5115 21.5166 17.2592C21.1766 18.3636 20.6642 19.4073 19.9982 20.3517C19.1038 21.6896 18.1661 22.9967 16.6777 23.0208C15.9698 23.0372 15.492 22.8336 14.9941 22.6215C14.4747 22.4003 13.9335 22.1697 13.0867 22.1697C12.1885 22.1697 11.6231 22.4077 11.0778 22.6372C10.6065 22.8355 10.1503 23.0275 9.50727 23.0542C8.08982 23.1067 7.00654 21.6263 6.07964 20.3009C4.22703 17.5943 2.78444 12.6733 4.71844 9.32483C5.62662 7.69286 7.32468 6.65727 9.19136 6.59696C9.99528 6.58042 10.7667 6.89028 11.443 7.16193C11.9602 7.36969 12.4219 7.5551 12.7999 7.5551C13.1321 7.5551 13.5809 7.37701 14.1038 7.16946C14.9276 6.84251 15.9356 6.44246 16.9628 6.55027C18.5589 6.60021 20.038 7.39984 20.9539 8.70795Z" fill="#17191C"/>
</svg>
