<svg width="17" height="17" viewBox="0 0 17 17" fill="none" xmlns="http://www.w3.org/2000/svg">
<path fill-rule="evenodd" clip-rule="evenodd" d="M6.12012 1.02C6.12012 0.45667 6.57679 0 7.14012 0C10.8957 0 13.9401 3.04446 13.9401 6.8C13.9401 7.36333 13.4834 7.82 12.9201 7.82C12.3568 7.82 11.9001 7.36333 11.9001 6.8C11.9001 4.17112 9.76899 2.04 7.14012 2.04C6.57679 2.04 6.12012 1.58333 6.12012 1.02Z" fill="#1E1E1E"/>
<path fill-rule="evenodd" clip-rule="evenodd" d="M10.8799 15.98C10.8799 16.5433 10.4232 17 9.85988 17C6.10435 17 3.05989 13.9555 3.05989 10.2C3.05989 9.63667 3.51656 9.18 4.07989 9.18C4.64322 9.18 5.09989 9.63667 5.09989 10.2C5.09989 12.8289 7.23101 14.96 9.85988 14.96C10.4232 14.96 10.8799 15.4167 10.8799 15.98Z" fill="#1E1E1E"/>
<path fill-rule="evenodd" clip-rule="evenodd" d="M1.02 10.88C0.45667 10.88 -1.99617e-08 10.4233 -4.45856e-08 9.86C-2.08745e-07 6.10447 3.04446 3.06 6.8 3.06C7.36333 3.06 7.82 3.51667 7.82 4.08C7.82 4.64334 7.36333 5.1 6.8 5.1C4.17113 5.1 2.04 7.23113 2.04 9.86C2.04 10.4233 1.58333 10.88 1.02 10.88Z" fill="#1E1E1E"/>
<path fill-rule="evenodd" clip-rule="evenodd" d="M15.98 6.12C16.5433 6.12 17 6.57666 17 7.14C17 10.8955 13.9555 13.94 10.2 13.94C9.63667 13.94 9.18 13.4833 9.18 12.92C9.18 12.3567 9.63667 11.9 10.2 11.9C12.8289 11.9 14.96 9.76887 14.96 7.14C14.96 6.57666 15.4167 6.12 15.98 6.12Z" fill="#1E1E1E"/>
</svg>
