<svg width="25" height="24" viewBox="0 0 25 24" fill="none" xmlns="http://www.w3.org/2000/svg">
<mask id="mask0" mask-type="alpha" maskUnits="userSpaceOnUse" x="2" y="1" width="22" height="22">
<path d="M2.10154 1.5H23.1003V22.3716H2.10154V1.5Z" fill="white"/>
</mask>
<g mask="url(#mask0)">
<path fill-rule="evenodd" clip-rule="evenodd" d="M23.1 11.999C23.1 6.20003 18.399 1.49902 12.6 1.49902C6.801 1.49902 2.1 6.20003 2.1 11.999C2.1 17.2399 5.9397 21.5838 10.9594 22.3715V15.0342H8.29336V11.999H10.9594V9.68574C10.9594 7.05418 12.5269 5.60059 14.9254 5.60059C16.0742 5.60059 17.2758 5.80566 17.2758 5.80566V8.38965H15.9518C14.6474 8.38965 14.2406 9.19903 14.2406 10.0294V11.999H17.1527L16.6872 15.0342H14.2406V22.3715C19.2603 21.5838 23.1 17.2399 23.1 11.999Z" fill="#1877F2"/>
</g>
<path fill-rule="evenodd" clip-rule="evenodd" d="M16.6872 15.0342L17.1527 11.999H14.2406V10.0294C14.2406 9.19903 14.6474 8.38965 15.9518 8.38965H17.2758V5.80566C17.2758 5.80566 16.0742 5.60059 14.9254 5.60059C12.5269 5.60059 10.9594 7.05418 10.9594 9.68574V11.999H8.29336V15.0342H10.9594V22.3715C11.494 22.4553 12.0419 22.499 12.6 22.499C13.1581 22.499 13.706 22.4553 14.2406 22.3715V15.0342H16.6872Z" fill="white"/>
</svg>
