<svg width="25" height="24" viewBox="0 0 25 24" fill="none" xmlns="http://www.w3.org/2000/svg">
<path d="M21.9431 22.5022C22.5832 22.5022 23.1022 21.9832 23.1022 21.343V2.65915C23.1022 2.01886 22.5832 1.5 21.9431 1.5H3.25914C2.61884 1.5 2.09998 2.01886 2.09998 2.65915V21.343C2.09998 21.9831 2.61876 22.5022 3.25914 22.5022H21.9431Z" fill="white"/>
<path d="M16.5913 22.5022V14.369H19.3212L19.73 11.1993H16.5913V9.17572C16.5913 8.25803 16.8461 7.63266 18.1621 7.63266L19.8405 7.63192V4.79696C19.5502 4.75833 18.5539 4.67203 17.3947 4.67203C14.9748 4.67203 13.318 6.14917 13.318 8.86181V11.1993H10.5811V14.369H13.318V22.5022H16.5913Z" fill="#3C5A99"/>
</svg>
