<svg width="24" height="24" viewBox="0 0 24 24" fill="none" xmlns="http://www.w3.org/2000/svg">
<path d="M12.0005 20.3296L15.3166 10.1293H8.68921L12.0005 20.3296Z" fill="#E24329"/>
<path d="M4.04348 10.1293L3.03364 13.2283C2.94226 13.5097 3.04095 13.8203 3.28214 13.9957L11.9996 20.3296L4.04348 10.1293Z" fill="#FCA326"/>
<path d="M4.04248 10.1289H8.68727L6.68828 3.98572C6.58597 3.67143 6.1401 3.67143 6.03411 3.98572L4.04248 10.1289Z" fill="#E24329"/>
<path d="M19.9602 10.1293L20.9664 13.2283C21.0577 13.5097 20.9591 13.8203 20.7179 13.9957L11.9991 20.3296L19.9602 10.1293Z" fill="#FCA326"/>
<path d="M19.9616 10.1289H15.3168L17.3121 3.98572C17.4144 3.67143 17.8603 3.67143 17.9663 3.98572L19.9616 10.1289Z" fill="#E24329"/>
<path d="M11.9991 20.3296L15.3153 10.1293H19.9601L11.9991 20.3296Z" fill="#FC6D26"/>
<path d="M11.9985 20.3296L4.04248 10.1293H8.68727L11.9985 20.3296Z" fill="#FC6D26"/>
</svg>
