<svg width="24" height="24" viewBox="0 0 24 24" fill="none" xmlns="http://www.w3.org/2000/svg">
<path d="M22.501 12.2332C22.501 11.3699 22.4296 10.7399 22.2748 10.0866H12.2153V13.9832H18.12C18.001 14.9515 17.3582 16.4099 15.9296 17.3898L15.9096 17.5203L19.0902 19.935L19.3106 19.9566C21.3343 18.1249 22.501 15.4299 22.501 12.2332Z" fill="white"/>
<path d="M12.2147 22.5C15.1075 22.5 17.5361 21.5666 19.3099 19.9567L15.929 17.3899C15.0242 18.0082 13.8099 18.4399 12.2147 18.4399C9.38142 18.4399 6.97669 16.6083 6.11947 14.0766L5.99382 14.0871L2.68656 16.5954L2.64331 16.7132C4.40519 20.1433 8.02423 22.5 12.2147 22.5Z" fill="white"/>
<path d="M6.12022 14.0766C5.89403 13.4233 5.76313 12.7233 5.76313 12C5.76313 11.2766 5.89403 10.5766 6.10832 9.92329L6.10233 9.78414L2.75361 7.23551L2.64405 7.28658C1.91789 8.70994 1.50122 10.3083 1.50122 12C1.50122 13.6916 1.91789 15.2899 2.64405 16.7133L6.12022 14.0766Z" fill="white"/>
<path d="M12.2148 5.55997C14.2267 5.55997 15.5838 6.41163 16.3576 7.12335L19.3814 4.23C17.5243 2.53834 15.1076 1.5 12.2148 1.5C8.02426 1.5 4.4052 3.85665 2.64331 7.28662L6.10759 9.92332C6.97671 7.39166 9.38146 5.55997 12.2148 5.55997Z" fill="white"/>
</svg>
