<svg width="24" height="24" viewBox="0 0 24 24" fill="none" xmlns="http://www.w3.org/2000/svg">
<path d="M22.501 12.2333C22.501 11.37 22.4296 10.74 22.2748 10.0867H12.2153V13.9833H18.12C18.001 14.9517 17.3582 16.41 15.9296 17.3899L15.9096 17.5204L19.0902 19.9351L19.3106 19.9567C21.3343 18.125 22.501 15.43 22.501 12.2333Z" fill="#4285F4"/>
<path d="M12.2147 22.5001C15.1075 22.5001 17.5361 21.5667 19.3099 19.9567L15.929 17.39C15.0242 18.0083 13.8099 18.44 12.2147 18.44C9.38142 18.44 6.97669 16.6083 6.11947 14.0767L5.99382 14.0871L2.68656 16.5955L2.64331 16.7133C4.40519 20.1433 8.02423 22.5001 12.2147 22.5001Z" fill="#34A853"/>
<path d="M6.12022 14.0767C5.89403 13.4234 5.76313 12.7233 5.76313 12C5.76313 11.2767 5.89403 10.5767 6.10832 9.92337L6.10233 9.78423L2.75361 7.2356L2.64405 7.28667C1.91789 8.71002 1.50122 10.3084 1.50122 12C1.50122 13.6917 1.91789 15.29 2.64405 16.7133L6.12022 14.0767Z" fill="#FBBC05"/>
<path d="M12.2148 5.55997C14.2267 5.55997 15.5838 6.41163 16.3576 7.12335L19.3814 4.23C17.5243 2.53834 15.1076 1.5 12.2148 1.5C8.02426 1.5 4.4052 3.85665 2.64331 7.28662L6.10759 9.92332C6.97671 7.39166 9.38146 5.55997 12.2148 5.55997Z" fill="#EB4335"/>
</svg>
