<svg width="20" height="20" viewBox="0 0 20 20" fill="none" xmlns="http://www.w3.org/2000/svg">
<g clip-path="url(#clip0_4244_203)">
<path d="M11.0054 17.2033C10.7192 17.3348 10.4074 17.405 10.0911 17.4096C9.62287 17.4048 9.1673 17.2609 8.78524 16.9971C8.65787 17.3144 8.45841 17.5995 8.20182 17.831C7.94524 18.0626 7.63819 18.2344 7.30371 18.3337C7.34816 18.3337 7.39049 18.3337 7.43494 18.3337H12.4213C12.1196 18.2476 11.8387 18.103 11.5954 17.9088C11.3522 17.7147 11.1515 17.4747 11.0054 17.2033Z" fill="black"/>
<path d="M5.59233 13.8942C5.61193 13.8889 5.63053 13.8805 5.64735 13.8694C5.6791 13.5971 5.71508 13.3352 5.7553 13.0856C5.74691 12.9449 5.77002 12.8041 5.82302 12.6731C6.11298 11.0868 6.51722 9.97294 7.07596 9.29637C7.09365 9.27503 7.1193 9.26142 7.14728 9.25851C7.17526 9.25561 7.20328 9.26367 7.22518 9.2809C7.24707 9.29813 7.26104 9.32313 7.26401 9.35041C7.26699 9.37768 7.25873 9.40498 7.24105 9.42631C7.18391 9.49645 7.12676 9.57277 7.07173 9.65322C6.64844 10.272 6.31404 11.2126 6.07277 12.477H6.09816C6.14375 12.4702 6.19014 12.4702 6.23573 12.477C6.40082 12.5121 6.65902 12.6462 7.05692 13.036C7.10771 10.7691 8.44108 8.94158 10.0919 8.94158C11.548 8.94158 12.765 10.371 13.0549 12.2729C13.1926 12.0053 13.4153 11.7882 13.6899 11.654C13.7577 11.6293 13.8293 11.6161 13.9016 11.6149C13.7518 10.9261 13.485 10.2666 13.1121 9.66353C13.0571 9.58308 13.002 9.50676 12.9449 9.43663C12.9357 9.42642 12.9287 9.41445 12.9244 9.40149C12.9201 9.38852 12.9186 9.37484 12.92 9.36128C12.9214 9.34774 12.9256 9.33461 12.9325 9.32273C12.9393 9.31085 12.9486 9.30047 12.9597 9.29224C12.9703 9.28351 12.9826 9.27695 12.9959 9.27294C13.0091 9.26893 13.0232 9.26756 13.0369 9.26891C13.0507 9.27025 13.0641 9.2743 13.0763 9.28078C13.0885 9.28727 13.0992 9.29608 13.1079 9.30668C13.5312 9.82648 13.8825 10.6041 14.145 11.6582C14.7101 11.8644 14.7248 12.7927 14.7375 13.5476C14.7375 13.9065 14.7375 14.2779 14.8243 14.3727C14.9111 14.4676 15.0952 14.447 15.3535 14.3397C15.3831 14.0118 15.3978 13.7209 15.4063 13.4755C15.4063 13.0856 15.4063 12.836 15.4063 12.836V12.574C15.4063 10.5113 12.6846 6.94487 12.6846 6.94487L12.3692 4.26334C12.3692 1.80251 10.0919 1.8252 10.0919 1.8252C10.0919 1.8252 7.80615 1.80251 7.80615 4.25302L7.50138 6.94487C7.50138 6.94487 4.77961 10.5092 4.77961 12.574V12.8319C4.77961 12.8319 4.76902 13.0814 4.77961 13.4713C4.77961 13.5311 4.77961 13.5951 4.77961 13.6611C5.1246 13.7889 5.47804 13.923 5.59233 13.8942ZM10.0813 5.21837C10.7163 5.27613 11.7279 5.42465 11.7745 5.72993C11.8084 5.96507 11.4168 6.41475 11.3385 6.50138C11.1755 6.68084 10.6083 7.26872 10.0962 7.26872C9.58397 7.26872 9.01676 6.68084 8.85591 6.50138C8.7776 6.41475 8.38606 5.96507 8.4178 5.72993C8.4559 5.41846 9.47815 5.27613 10.0813 5.21837Z" fill="black"/>
<path d="M10.0925 7.0621C10.3698 7.0621 10.7952 6.78776 11.174 6.3649C11.464 6.04518 11.5698 5.81003 11.5613 5.7564C11.5084 5.6512 10.8164 5.49237 10.0798 5.42224C9.36657 5.49237 8.67449 5.6512 8.62158 5.76052C8.69778 5.98983 8.83166 6.19689 9.01101 6.36284C9.39197 6.78776 9.81526 7.0621 10.0925 7.0621Z" fill="black"/>
<path d="M10.6623 15.9489C10.4189 13.7769 10.6432 13.3273 10.8337 13.1788C10.8804 13.1432 10.9358 13.1201 10.9945 13.1117C11.0531 13.1035 11.113 13.1102 11.1681 13.1313C11.3598 13.2237 11.5271 13.3577 11.657 13.5232C11.8962 13.7769 12.0634 13.9358 12.2179 13.8491C12.328 13.7852 12.4846 13.4366 12.6412 13.1169C12.7216 12.9456 12.8042 12.7621 12.8952 12.5868C12.6835 10.6457 11.5195 9.14819 10.0993 9.14819C8.53949 9.14819 7.27173 10.9531 7.27173 13.1705C7.27173 13.1973 7.27173 13.2241 7.27173 13.2509C7.52995 13.5149 7.83895 13.8698 8.21567 14.3338C8.36367 14.5155 8.4994 14.7064 8.62204 14.9052C8.79699 15.1841 8.909 15.4961 8.9506 15.8205C8.9922 16.1449 8.96245 16.4741 8.86331 16.7864C9.21862 17.0463 9.64882 17.1907 10.093 17.199C10.3777 17.1979 10.659 17.1382 10.9184 17.0236C10.862 16.9 10.8173 16.7716 10.7851 16.64C10.7302 16.4122 10.6892 16.1815 10.6623 15.9489Z" fill="black"/>
<path d="M8.04303 14.459C7.74673 14.0918 7.49487 13.8009 7.279 13.5658L7.17105 13.4503L7.061 13.3348C6.5721 12.8397 6.31389 12.7037 6.17843 12.681C6.15951 12.678 6.14023 12.678 6.12129 12.681C6.10076 12.6833 6.08122 12.6909 6.06454 12.7028C6.04786 12.7147 6.03461 12.7307 6.02605 12.7489C6.02565 12.7538 6.02565 12.7586 6.02605 12.7634C5.98416 12.8712 5.96753 12.9869 5.97738 13.1017C5.97738 13.1595 5.97738 13.2173 5.97738 13.2749C5.97738 13.3327 5.97738 13.341 5.97738 13.374C6.00594 13.5827 5.96198 13.7947 5.8525 13.9763C5.83155 13.9994 5.80732 14.0196 5.78055 14.0362L5.7361 14.0629C5.70773 14.0774 5.67795 14.0892 5.6472 14.098H5.62393C5.44826 14.1289 5.16254 14.0279 4.80063 13.8917L4.6948 13.8505C4.24188 13.6752 3.71276 13.473 3.32545 13.473C3.23797 13.4644 3.14967 13.4777 3.06893 13.5116C2.98819 13.5455 2.91767 13.599 2.86406 13.6669C2.58046 14.0794 3.2154 14.7271 3.72758 15.2511C4.04294 15.5749 4.29056 15.8286 4.31808 16.0184C4.36675 16.3691 3.99002 16.5031 3.65774 16.6228C3.48628 16.6669 3.32623 16.7457 3.18788 16.8538C3.13709 16.9116 3.1392 16.9508 3.14979 16.9797C3.19635 17.1384 3.57308 17.4871 5.56466 18.0502C5.78512 18.1124 6.00914 18.1621 6.23558 18.1987C6.64453 18.2591 7.06268 18.2065 7.44245 18.0468C7.82223 17.8871 8.14838 17.6267 8.38379 17.2952C8.47591 17.159 8.55187 17.0129 8.61025 16.86L8.65257 16.7589C8.65257 16.7239 8.67163 16.6847 8.68221 16.6496C8.75827 16.3728 8.77591 16.0838 8.73407 15.8002C8.69223 15.5165 8.59179 15.2441 8.43881 14.9994C8.31764 14.812 8.18549 14.6316 8.04303 14.459Z" fill="black"/>
<path d="M16.0589 14.3171C15.8816 14.3336 15.71 14.3863 15.5552 14.4717L15.3245 14.5687C15.0704 14.6635 14.8164 14.7089 14.6513 14.4903C14.6122 14.4329 14.5856 14.3683 14.573 14.3006C14.5437 14.1377 14.5282 13.9728 14.5265 13.8075C14.5265 13.723 14.5265 13.6342 14.5265 13.5393C14.5265 12.9391 14.5054 12.2171 14.2154 11.9346C14.1785 11.8974 14.1346 11.8673 14.0863 11.8459C14.0596 11.8345 14.0321 11.8255 14.0037 11.8191H13.972C13.9001 11.8109 13.8272 11.8208 13.7603 11.8479C13.5106 11.947 13.2926 12.2605 13.1022 12.6277L13.0112 12.8071C12.9772 12.8772 12.9455 12.9453 12.9138 13.0133C12.882 13.0814 12.8545 13.1392 12.827 13.2011C12.6408 13.6136 12.4947 13.9292 12.3254 14.0262C12.0122 14.2056 11.7391 13.9168 11.5 13.6611C11.3921 13.5236 11.2558 13.4098 11.1 13.3269C11.0796 13.3194 11.0582 13.3152 11.0365 13.3145C11.0108 13.3139 10.9859 13.3228 10.9666 13.3393C10.8354 13.4424 10.647 13.9148 10.8735 15.926C10.8978 16.148 10.936 16.3684 10.9878 16.586C11.0166 16.7008 11.0548 16.8133 11.1021 16.9222C11.1169 16.9532 11.1317 16.9841 11.1486 17.015C11.1656 17.0459 11.1762 17.0769 11.1931 17.1079C11.3664 17.4217 11.6184 17.6878 11.9256 17.8813C12.2328 18.0746 12.5853 18.1891 12.9501 18.214C13.3149 18.239 13.6804 18.1735 14.0122 18.0237C14.3441 17.8739 14.6317 17.6448 14.8482 17.3574C14.9843 17.1771 15.1093 16.989 15.2228 16.7943C16.2387 15.0307 16.2578 14.5254 16.1795 14.3809C16.1676 14.3603 16.15 14.3434 16.1286 14.332C16.1073 14.3208 16.0831 14.3155 16.0589 14.3171Z" fill="black"/>
</g>
<defs>
<clipPath id="clip0_4244_203">
<rect width="14.4446" height="16.5081" fill="white" transform="translate(2.63892 1.8252)"/>
</clipPath>
</defs>
</svg>
