<svg width="25" height="24" viewBox="0 0 25 24" fill="none" xmlns="http://www.w3.org/2000/svg">
<path d="M9.04151 21C6.61526 21 4.35358 20.2943 2.44995 19.0767C4.0662 19.1813 6.9185 18.9308 8.69264 17.2386C6.02376 17.1161 4.82015 15.0692 4.66316 14.1945C4.88992 14.2819 5.97143 14.3869 6.58195 14.142C3.51187 13.3722 3.0409 10.678 3.14556 9.85573C3.7212 10.2581 4.69804 10.3981 5.0818 10.3631C2.22105 8.31618 3.25022 5.23707 3.75609 4.57226C5.80907 7.4165 8.88585 9.01393 12.6922 9.10278C12.6205 8.78802 12.5826 8.46032 12.5826 8.12373C12.5826 5.70819 14.535 3.75 16.9435 3.75C18.2019 3.75 19.3358 4.28457 20.1317 5.13963C20.9726 4.94258 22.2382 4.4813 22.8569 4.0824C22.545 5.20208 21.5742 6.13612 20.9869 6.48231C20.9918 6.49408 20.9821 6.47048 20.9869 6.48231C21.5027 6.40428 22.8985 6.13603 23.45 5.76192C23.1773 6.39094 22.1479 7.4368 21.3032 8.02232C21.4604 14.9535 16.1573 21 9.04151 21Z" fill="white"/>
</svg>
