<svg width="20" height="20" viewBox="0 0 20 20" fill="none" xmlns="http://www.w3.org/2000/svg">
<g clip-path="url(#clip0)">
<path d="M18.3333 2.49951H5.83333C5.25833 2.49951 4.80833 2.79118 4.50833 3.23285L0 9.99951L4.50833 16.7578C4.80833 17.1995 5.25833 17.4995 5.83333 17.4995H18.3333C19.25 17.4995 20 16.7495 20 15.8328V4.16618C20 3.24951 19.25 2.49951 18.3333 2.49951ZM15.8333 12.9912L14.6583 14.1662L11.6667 11.1745L8.675 14.1662L7.5 12.9912L10.4917 9.99951L7.5 7.00784L8.675 5.83284L11.6667 8.82451L14.6583 5.83284L15.8333 7.00784L12.8417 9.99951L15.8333 12.9912Z" fill="white"/>
</g>
<defs>
<clipPath id="clip0">
<rect width="20" height="20" fill="white"/>
</clipPath>
</defs>
</svg>
