<svg width="24" height="24" viewBox="0 0 24 24" fill="none" xmlns="http://www.w3.org/2000/svg">
<path fill-rule="evenodd" clip-rule="evenodd" d="M4 17.8689V2.51551C4 2.06669 4.53728 1.83452 4.86986 2.13591C8.18767 5.14263 10.9111 7.48209 13.102 9.36399L13.102 9.36403C18.3295 13.8544 20.5243 15.7398 20.5243 17.8689C20.5243 19.4181 19.6538 20.0153 18.1044 20.79C16.5549 21.5648 14.4534 22 12.2621 22C10.0709 22 7.96938 21.5648 6.41992 20.79C4.87047 20.0153 4 18.9646 4 17.8689ZM12.2621 20.9673C16.2548 20.9673 19.4915 19.5801 19.4915 17.869C19.4915 16.1578 16.2548 14.7707 12.2621 14.7707C8.26947 14.7707 5.03277 16.1578 5.03277 17.869C5.03277 19.5801 8.26947 20.9673 12.2621 20.9673ZM16.2618 8.67876C16.1718 8.64549 16.1718 8.51831 16.2618 8.48504L17.84 7.90103C17.8683 7.89057 17.8906 7.86828 17.901 7.84001L18.4851 6.26174C18.5183 6.17182 18.6455 6.17182 18.6788 6.26174L19.2628 7.84001C19.2733 7.86828 19.2955 7.89057 19.3238 7.90103L20.9021 8.48504C20.992 8.51831 20.992 8.64549 20.9021 8.67876L19.3238 9.26277C19.2955 9.27323 19.2733 9.29552 19.2628 9.32379L18.6788 10.9021C18.6455 10.992 18.5183 10.992 18.4851 10.9021L17.901 9.32379C17.8906 9.29552 17.8683 9.27323 17.84 9.26277L16.2618 8.67876ZM13.2618 5.45232C13.1718 5.48559 13.1718 5.61276 13.2618 5.64604L14.0862 5.95111C14.1145 5.96157 14.1368 5.98386 14.1472 6.01213L14.4523 6.83657C14.4856 6.92649 14.6127 6.92649 14.646 6.83657L14.9511 6.01213C14.9615 5.98386 14.9838 5.96157 15.0121 5.95111L15.8365 5.64603C15.9265 5.61276 15.9265 5.48559 15.8365 5.45232L15.0121 5.14725C14.9838 5.13679 14.9615 5.1145 14.9511 5.08623L14.646 4.26178C14.6127 4.17187 14.4856 4.17187 14.4523 4.26178L14.1472 5.08623C14.1368 5.1145 14.1145 5.13679 14.0862 5.14725L13.2618 5.45232Z" fill="white"/>
</svg>
