<svg width="32" height="32" viewBox="0 0 32 32" fill="none" xmlns="http://www.w3.org/2000/svg">
<path fill-rule="evenodd" clip-rule="evenodd" d="M16 0C7.16344 0 0 7.16344 0 16C0 24.8366 7.16344 32 16 32C24.8366 32 32 24.8366 32 16C32 7.16344 24.8366 0 16 0ZM17.2511 6.97409C16.9775 6.68236 16.5885 6.50012 16.157 6.50012C15.793 6.50012 15.4593 6.62973 15.1996 6.84532C15.1545 6.88267 15.1115 6.92281 15.0707 6.96564L8.79618 13.5539C8.22485 14.1538 8.24801 15.1032 8.8479 15.6746C9.4478 16.2459 10.3973 16.2227 10.9686 15.6228L14.657 11.7501V23.0589C14.657 23.8874 15.3285 24.5589 16.157 24.5589C16.9854 24.5589 17.657 23.8874 17.657 23.0589V11.7502L21.3452 15.6228C21.9165 16.2227 22.866 16.2459 23.4659 15.6746C24.0658 15.1032 24.0889 14.1538 23.5176 13.5539L17.2511 6.97409Z" fill="#0DBD8B"/>
</svg>
