<svg height="42" width="37" xmlns="http://www.w3.org/2000/svg" xmlns:xlink="http://www.w3.org/1999/xlink"><mask id="a" fill="#fff"><path d="m23.521 14.596h-1.777a.454.454 0 0 1 -.456-.45v-4.14a8.974 8.974 0 0 0 -8.57-9 8.884 8.884 0 0 0 -9.253 8.82v4.365a.454.454 0 0 1 -.456.45h-1.78a1.218 1.218 0 0 0 -1.229 1.215v15.93a1.218 1.218 0 0 0 1.229 1.214h22.247a1.218 1.218 0 0 0 1.231-1.215v-15.974a1.153 1.153 0 0 0 -1.186-1.215zm-17.276-4.77a6.114 6.114 0 0 1 6.473-6.075 6.251 6.251 0 0 1 5.88 6.255v4.185a.454.454 0 0 1 -.456.45h-11.486a.454.454 0 0 1 -.456-.45v-4.365zm20.255 11.174c6.344.019 11.481 5.156 11.5 11.5 0 6.351-5.149 11.5-11.5 11.5s-11.5-5.149-11.5-11.5 5.149-11.5 11.5-11.5z" fill="#fff" fill-rule="evenodd"/></mask><g fill="#000" fill-rule="evenodd"><path d="m-.909 32.909h19.773c2.392-6.604 4.34-10.526 5.844-11.766s1.808-8.258.912-21.052h-26.529z" mask="url(#a)" transform="translate(0 -1)"/><path d="m26.5 21c-5.799 0-10.5 4.701-10.5 10.5s4.701 10.5 10.5 10.5 10.5-4.701 10.5-10.5c-.017-5.792-4.708-10.483-10.5-10.5zm1.444 16.012h-2.888v-2.493h3.019v2.494zm.131-9.712-.787 5.775h-1.575l-.788-5.775v-1.312h3.15z" fill-rule="nonzero"/></g></svg>