<svg width="9" height="12" viewBox="0 0 9 12" fill="none" xmlns="http://www.w3.org/2000/svg">
    <path fill-rule="evenodd" clip-rule="evenodd" d="M0 1C0 0.447715 0.447715 0 1 0H4.19231C6.09295 0 7.5 1.64388 7.5 3.5C7.5 4.25349 7.26813 4.97201 6.86549 5.55977C7.84346 6.1788 8.5 7.25485 8.5 8.5C8.5 10.4594 6.87427 12 4.92857 12H1C0.447715 12 0 11.5523 0 11V1ZM2 2V5H4.19231C4.84067 5 5.5 4.4053 5.5 3.5C5.5 2.5947 4.84067 2 4.19231 2H2ZM2 7V10H4.92857C5.82319 10 6.5 9.30206 6.5 8.5C6.5 7.69794 5.82319 7 4.92857 7H2Z" fill="#737D8C"/>
</svg>
