<svg width="16" height="16" viewBox="0 0 16 16" fill="none" xmlns="http://www.w3.org/2000/svg">
<path fill-rule="evenodd" clip-rule="evenodd" d="M4 3C4 2.44772 4.44772 2 5 2H8.19231C10.093 2 11.5 3.64388 11.5 5.5C11.5 6.25349 11.2681 6.97201 10.8655 7.55977C11.8435 8.1788 12.5 9.25485 12.5 10.5C12.5 12.4594 10.8743 14 8.92857 14H5C4.44772 14 4 13.5523 4 13V3ZM6 4V7H8.19231C8.84067 7 9.5 6.4053 9.5 5.5C9.5 4.5947 8.84067 4 8.19231 4H6ZM6 9V12H8.92857C9.82319 12 10.5 11.3021 10.5 10.5C10.5 9.69794 9.82319 9 8.92857 9H6Z" fill="currentColor" />
</svg>
