<svg width="13" height="10" viewBox="0 0 13 10" fill="none" xmlns="http://www.w3.org/2000/svg">
<path d="M1.66666 4C1.11332 4 0.666656 4.44667 0.666656 5C0.666656 5.55333 1.11332 6 1.66666 6C2.21999 6 2.66666 5.55333 2.66666 5C2.66666 4.44667 2.21999 4 1.66666 4ZM1.66666 0C1.11332 0 0.666656 0.446667 0.666656 1C0.666656 1.55333 1.11332 2 1.66666 2C2.21999 2 2.66666 1.55333 2.66666 1C2.66666 0.446667 2.21999 0 1.66666 0ZM1.66666 8C1.11332 8 0.666656 8.45333 0.666656 9C0.666656 9.54667 1.11999 10 1.66666 10C2.21332 10 2.66666 9.54667 2.66666 9C2.66666 8.45333 2.21999 8 1.66666 8ZM4.33332 9.66667H12.3333C12.7 9.66667 13 9.36667 13 9C13 8.63333 12.7 8.33333 12.3333 8.33333H4.33332C3.96666 8.33333 3.66666 8.63333 3.66666 9C3.66666 9.36667 3.96666 9.66667 4.33332 9.66667ZM4.33332 5.66667H12.3333C12.7 5.66667 13 5.36667 13 5C13 4.63333 12.7 4.33333 12.3333 4.33333H4.33332C3.96666 4.33333 3.66666 4.63333 3.66666 5C3.66666 5.36667 3.96666 5.66667 4.33332 5.66667ZM3.66666 1C3.66666 1.36667 3.96666 1.66667 4.33332 1.66667H12.3333C12.7 1.66667 13 1.36667 13 1C13 0.633333 12.7 0.333333 12.3333 0.333333H4.33332C3.96666 0.333333 3.66666 0.633333 3.66666 1Z" fill="currentColor"/>
</svg>
