<svg width="16" height="16" viewBox="0 0 16 16" fill="none" xmlns="http://www.w3.org/2000/svg">
<g clip-path="url(#clip0_2793_14169)">
<path d="M2.66669 7C2.11335 7 1.66669 7.44667 1.66669 8C1.66669 8.55333 2.11335 9 2.66669 9C3.22002 9 3.66669 8.55333 3.66669 8C3.66669 7.44667 3.22002 7 2.66669 7ZM2.66669 3C2.11335 3 1.66669 3.44667 1.66669 4C1.66669 4.55333 2.11335 5 2.66669 5C3.22002 5 3.66669 4.55333 3.66669 4C3.66669 3.44667 3.22002 3 2.66669 3ZM2.66669 11C2.11335 11 1.66669 11.4533 1.66669 12C1.66669 12.5467 2.12002 13 2.66669 13C3.21335 13 3.66669 12.5467 3.66669 12C3.66669 11.4533 3.22002 11 2.66669 11ZM5.33335 12.6667H13.3334C13.7 12.6667 14 12.3667 14 12C14 11.6333 13.7 11.3333 13.3334 11.3333H5.33335C4.96669 11.3333 4.66669 11.6333 4.66669 12C4.66669 12.3667 4.96669 12.6667 5.33335 12.6667ZM5.33335 8.66667H13.3334C13.7 8.66667 14 8.36667 14 8C14 7.63333 13.7 7.33333 13.3334 7.33333H5.33335C4.96669 7.33333 4.66669 7.63333 4.66669 8C4.66669 8.36667 4.96669 8.66667 5.33335 8.66667ZM4.66669 4C4.66669 4.36667 4.96669 4.66667 5.33335 4.66667H13.3334C13.7 4.66667 14 4.36667 14 4C14 3.63333 13.7 3.33333 13.3334 3.33333H5.33335C4.96669 3.33333 4.66669 3.63333 4.66669 4Z" fill="currentColor"/>
</g>
<defs>
<clipPath id="clip0_2793_14169">
<rect width="16" height="16" fill="white"/>
</clipPath>
</defs>
</svg>
