<svg width="16" height="16" viewBox="0 0 16 16" fill="none" xmlns="http://www.w3.org/2000/svg">
<path d="M5.14288 7.99777L6.47622 6.66443C6.5905 6.55015 6.64765 6.41047 6.64765 6.24539C6.64765 6.08031 6.5905 5.94062 6.47622 5.82634C6.36193 5.71205 6.22225 5.65491 6.05717 5.65491C5.89209 5.65491 5.75241 5.71205 5.63812 5.82634L3.86669 7.59777C3.8032 7.66126 3.75876 7.72475 3.73336 7.78824C3.70796 7.85174 3.69526 7.92158 3.69526 7.99777C3.69526 8.07396 3.70796 8.1438 3.73336 8.20729C3.75876 8.27078 3.8032 8.33428 3.86669 8.39777L5.65717 10.1882C5.77145 10.3025 5.91114 10.3597 6.07622 10.3597C6.2413 10.3597 6.38098 10.3025 6.49526 10.1882C6.60955 10.074 6.66669 9.93428 6.66669 9.7692C6.66669 9.60412 6.60955 9.46443 6.49526 9.35015L5.14288 7.99777ZM10.8572 7.99777L9.50479 9.35015C9.3905 9.46443 9.33336 9.60412 9.33336 9.7692C9.33336 9.93428 9.3905 10.074 9.50479 10.1882C9.61907 10.3025 9.75876 10.3597 9.92384 10.3597C10.0889 10.3597 10.2286 10.3025 10.3429 10.1882L12.1334 8.39777C12.1969 8.33428 12.2413 8.27078 12.2667 8.20729C12.2921 8.1438 12.3048 8.07396 12.3048 7.99777C12.3048 7.92158 12.2921 7.85174 12.2667 7.78824C12.2413 7.72475 12.1969 7.66126 12.1334 7.59777L10.3429 5.80729C10.2921 5.7438 10.2286 5.69936 10.1524 5.67396C10.0762 5.64856 10 5.63586 9.92384 5.63586C9.84764 5.63586 9.77463 5.64856 9.70479 5.67396C9.63495 5.69936 9.56828 5.7438 9.50479 5.80729C9.3905 5.92158 9.33336 6.06126 9.33336 6.22634C9.33336 6.39142 9.3905 6.5311 9.50479 6.64539L10.8572 7.99777ZM2.28574 14.8549C1.98098 14.8549 1.71431 14.7406 1.48574 14.5121C1.25717 14.2835 1.14288 14.0168 1.14288 13.7121V2.28348C1.14288 1.97872 1.25717 1.71205 1.48574 1.48348C1.71431 1.25491 1.98098 1.14062 2.28574 1.14062H13.7143C14.0191 1.14062 14.2857 1.25491 14.5143 1.48348C14.7429 1.71205 14.8572 1.97872 14.8572 2.28348V13.7121C14.8572 14.0168 14.7429 14.2835 14.5143 14.5121C14.2857 14.7406 14.0191 14.8549 13.7143 14.8549H2.28574ZM2.28574 13.7121H13.7143V2.28348H2.28574V13.7121Z" fill="currentColor"/>
</svg>
