<svg width="14" height="14" viewBox="0 0 14 14" fill="none" xmlns="http://www.w3.org/2000/svg">
<path d="M4.14288 6.99997L5.47622 5.66663C5.5905 5.55235 5.64765 5.41266 5.64765 5.24758C5.64765 5.0825 5.5905 4.94282 5.47622 4.82854C5.36193 4.71425 5.22225 4.65711 5.05717 4.65711C4.89209 4.65711 4.75241 4.71425 4.63812 4.82854L2.86669 6.59997C2.8032 6.66346 2.75876 6.72695 2.73336 6.79044C2.70796 6.85393 2.69526 6.92377 2.69526 6.99997C2.69526 7.07616 2.70796 7.146 2.73336 7.20949C2.75876 7.27298 2.8032 7.33647 2.86669 7.39996L4.65717 9.19044C4.77145 9.30473 4.91114 9.36187 5.07622 9.36187C5.2413 9.36187 5.38098 9.30473 5.49526 9.19044C5.60955 9.07616 5.66669 8.93647 5.66669 8.77139C5.66669 8.60631 5.60955 8.46663 5.49526 8.35235L4.14288 6.99997ZM9.85717 6.99997L8.50479 8.35235C8.3905 8.46663 8.33336 8.60631 8.33336 8.77139C8.33336 8.93647 8.3905 9.07616 8.50479 9.19044C8.61907 9.30473 8.75876 9.36187 8.92384 9.36187C9.08891 9.36187 9.2286 9.30473 9.34288 9.19044L11.1334 7.39996C11.1969 7.33647 11.2413 7.27298 11.2667 7.20949C11.2921 7.146 11.3048 7.07616 11.3048 6.99997C11.3048 6.92377 11.2921 6.85393 11.2667 6.79044C11.2413 6.72695 11.1969 6.66346 11.1334 6.59997L9.34288 4.80949C9.29209 4.746 9.2286 4.70155 9.15241 4.67616C9.07622 4.65076 9.00003 4.63806 8.92384 4.63806C8.84765 4.63806 8.77463 4.65076 8.70479 4.67616C8.63495 4.70155 8.56828 4.746 8.50479 4.80949C8.3905 4.92377 8.33336 5.06346 8.33336 5.22854C8.33336 5.39362 8.3905 5.5333 8.50479 5.64758L9.85717 6.99997ZM1.28574 13.8571C0.980979 13.8571 0.714312 13.7428 0.48574 13.5143C0.257169 13.2857 0.142883 13.019 0.142883 12.7143V1.28568C0.142883 0.980918 0.257169 0.714251 0.48574 0.485679C0.714312 0.257108 0.980979 0.142822 1.28574 0.142822H12.7143C13.0191 0.142822 13.2857 0.257108 13.5143 0.485679C13.7429 0.714251 13.8572 0.980918 13.8572 1.28568V12.7143C13.8572 13.019 13.7429 13.2857 13.5143 13.5143C13.2857 13.7428 13.0191 13.8571 12.7143 13.8571H1.28574ZM1.28574 12.7143H12.7143V1.28568H1.28574V12.7143Z" fill="currentColor"/>
</svg>
