<svg width="20" height="20" viewBox="0 0 20 20" fill="none" xmlns="http://www.w3.org/2000/svg">
<mask id="path-1-inside-1" fill="white">
<path fill-rule="evenodd" clip-rule="evenodd" d="M10 20C15.5228 20 20 15.5228 20 10C20 4.47715 15.5228 0 10 0C4.47715 0 0 4.47715 0 10C0 15.5228 4.47715 20 10 20ZM13.389 11.7659C13.6794 11.3162 14.2793 11.187 14.729 11.4774C15.1788 11.7677 15.308 12.3676 15.0176 12.8174C13.9565 14.461 12.1059 15.5526 9.99965 15.5526C7.89343 15.5526 6.04281 14.461 4.98167 12.8174C4.69133 12.3677 4.82053 11.7677 5.27025 11.4774C5.71997 11.187 6.31991 11.3162 6.61025 11.7659C7.32946 12.88 8.57908 13.6141 9.99965 13.6141C11.4202 13.6141 12.6698 12.88 13.389 11.7659ZM8 8C8 8.82843 7.44036 9.5 6.75 9.5C6.05964 9.5 5.5 8.82843 5.5 8C5.5 7.17157 6.05964 6.5 6.75 6.5C7.44036 6.5 8 7.17157 8 8ZM13.25 9.5C13.9404 9.5 14.5 8.82843 14.5 8C14.5 7.17157 13.9404 6.5 13.25 6.5C12.5596 6.5 12 7.17157 12 8C12 8.82843 12.5596 9.5 13.25 9.5Z"/>
</mask>
<path fill-rule="evenodd" clip-rule="evenodd" d="M10 20C15.5228 20 20 15.5228 20 10C20 4.47715 15.5228 0 10 0C4.47715 0 0 4.47715 0 10C0 15.5228 4.47715 20 10 20ZM13.389 11.7659C13.6794 11.3162 14.2793 11.187 14.729 11.4774C15.1788 11.7677 15.308 12.3676 15.0176 12.8174C13.9565 14.461 12.1059 15.5526 9.99965 15.5526C7.89343 15.5526 6.04281 14.461 4.98167 12.8174C4.69133 12.3677 4.82053 11.7677 5.27025 11.4774C5.71997 11.187 6.31991 11.3162 6.61025 11.7659C7.32946 12.88 8.57908 13.6141 9.99965 13.6141C11.4202 13.6141 12.6698 12.88 13.389 11.7659ZM8 8C8 8.82843 7.44036 9.5 6.75 9.5C6.05964 9.5 5.5 8.82843 5.5 8C5.5 7.17157 6.05964 6.5 6.75 6.5C7.44036 6.5 8 7.17157 8 8ZM13.25 9.5C13.9404 9.5 14.5 8.82843 14.5 8C14.5 7.17157 13.9404 6.5 13.25 6.5C12.5596 6.5 12 7.17157 12 8C12 8.82843 12.5596 9.5 13.25 9.5Z" fill="black"/>
<path d="M14.1748 11.4164C14.0254 11.6478 14.0919 11.9565 14.3233 12.1059C14.5546 12.2553 14.8633 12.1888 15.0127 11.9574L14.1748 11.4164ZM15.148 11.7479C15.2974 11.5165 15.2309 11.2078 14.9995 11.0584C14.7681 10.909 14.4595 10.9755 14.3101 11.2069L15.148 11.7479ZM15.0127 11.9574L15.148 11.7479L14.3101 11.2069L14.1748 11.4164L15.0127 11.9574ZM14.729 11.4774L15.27 10.6394L15.27 10.6394L14.729 11.4774ZM13.389 11.7659L12.5511 11.225V11.225L13.389 11.7659ZM15.0176 12.8174L14.1797 12.2764V12.2764L15.0176 12.8174ZM4.98167 12.8174L5.8196 12.2764L5.8196 12.2764L4.98167 12.8174ZM5.27025 11.4774L4.72928 10.6394L4.72928 10.6394L5.27025 11.4774ZM6.61025 11.7659L5.77233 12.3069L6.61025 11.7659ZM19.0026 10C19.0026 14.972 14.972 19.0026 10 19.0026V20.9974C16.0737 20.9974 20.9974 16.0737 20.9974 10H19.0026ZM10 0.997378C14.972 0.997378 19.0026 5.02799 19.0026 10H20.9974C20.9974 3.92632 16.0737 -0.997378 10 -0.997378V0.997378ZM0.997378 10C0.997378 5.02799 5.02799 0.997378 10 0.997378V-0.997378C3.92632 -0.997378 -0.997378 3.92632 -0.997378 10H0.997378ZM10 19.0026C5.02799 19.0026 0.997378 14.972 0.997378 10H-0.997378C-0.997378 16.0737 3.92632 20.9974 10 20.9974V19.0026ZM15.27 10.6394C14.3575 10.0503 13.1402 10.3125 12.5511 11.225L14.227 12.3069C14.2259 12.3086 14.2229 12.312 14.2187 12.315C14.215 12.3174 14.2118 12.3186 14.2092 12.3192C14.2067 12.3197 14.2033 12.32 14.1989 12.3192C14.1939 12.3183 14.1898 12.3164 14.1881 12.3153L15.27 10.6394ZM15.8555 13.3583C16.4447 12.4458 16.1825 11.2286 15.27 10.6394L14.1881 12.3153C14.1863 12.3142 14.1829 12.3113 14.18 12.307C14.1775 12.3033 14.1764 12.3001 14.1758 12.2976C14.1753 12.2951 14.175 12.2917 14.1758 12.2873C14.1767 12.2822 14.1786 12.2781 14.1797 12.2764L15.8555 13.3583ZM9.99965 16.55C12.4589 16.55 14.6186 15.2742 15.8555 13.3583L14.1797 12.2764C13.2943 13.6478 11.7528 14.5552 9.99965 14.5552V16.55ZM4.14375 13.3583C5.38067 15.2742 7.54041 16.55 9.99965 16.55V14.5552C8.24645 14.5552 6.70495 13.6478 5.8196 12.2764L4.14375 13.3583ZM4.72928 10.6394C3.81679 11.2286 3.55464 12.4458 4.14375 13.3583L5.8196 12.2764C5.8207 12.2781 5.82261 12.2822 5.8235 12.2873C5.82426 12.2917 5.824 12.2951 5.82346 12.2976C5.82292 12.3001 5.82175 12.3033 5.81926 12.307C5.81635 12.3113 5.81294 12.3142 5.81122 12.3153L4.72928 10.6394ZM7.44818 11.225C6.85907 10.3125 5.64178 10.0503 4.72928 10.6394L5.81122 12.3153C5.8095 12.3164 5.80542 12.3183 5.80034 12.3192C5.79597 12.32 5.79256 12.3197 5.79004 12.3192C5.78752 12.3186 5.7843 12.3174 5.78064 12.315C5.77637 12.3121 5.77344 12.3086 5.77233 12.3069L7.44818 11.225ZM9.99965 12.6167C8.93153 12.6167 7.99128 12.0662 7.44818 11.225L5.77233 12.3069C6.66764 13.6937 8.22663 14.6115 9.99965 14.6115V12.6167ZM12.5511 11.225C12.008 12.0662 11.0678 12.6167 9.99965 12.6167V14.6115C11.7727 14.6115 13.3316 13.6937 14.227 12.3069L12.5511 11.225ZM6.75 10.4974C8.15374 10.4974 8.99738 9.20127 8.99738 8H7.00262C7.00262 8.19305 6.93691 8.33907 6.86768 8.42215C6.80022 8.50311 6.75428 8.50262 6.75 8.50262V10.4974ZM4.50262 8C4.50262 9.20127 5.34626 10.4974 6.75 10.4974V8.50262C6.74572 8.50262 6.69978 8.50311 6.63232 8.42215C6.56309 8.33907 6.49738 8.19305 6.49738 8H4.50262ZM6.75 5.50262C5.34626 5.50262 4.50262 6.79873 4.50262 8H6.49738C6.49738 7.80695 6.56309 7.66093 6.63232 7.57785C6.69978 7.49689 6.74572 7.49738 6.75 7.49738V5.50262ZM8.99738 8C8.99738 6.79873 8.15374 5.50262 6.75 5.50262V7.49738C6.75428 7.49738 6.80022 7.49689 6.86768 7.57785C6.93691 7.66093 7.00262 7.80695 7.00262 8H8.99738ZM13.5026 8C13.5026 8.19305 13.4369 8.33907 13.3677 8.42215C13.3002 8.50311 13.2543 8.50262 13.25 8.50262V10.4974C14.6537 10.4974 15.4974 9.20127 15.4974 8H13.5026ZM13.25 7.49738C13.2543 7.49738 13.3002 7.49689 13.3677 7.57785C13.4369 7.66093 13.5026 7.80695 13.5026 8H15.4974C15.4974 6.79873 14.6537 5.50262 13.25 5.50262V7.49738ZM12.9974 8C12.9974 7.80695 13.0631 7.66093 13.1323 7.57785C13.1998 7.49689 13.2457 7.49738 13.25 7.49738V5.50262C11.8463 5.50262 11.0026 6.79873 11.0026 8H12.9974ZM13.25 8.50262C13.2457 8.50262 13.1998 8.50311 13.1323 8.42215C13.0631 8.33907 12.9974 8.19305 12.9974 8H11.0026C11.0026 9.20127 11.8463 10.4974 13.25 10.4974V8.50262Z" fill="black" mask="url(#path-1-inside-1)"/>
</svg>
