<svg width="16" height="16" viewBox="0 0 16 16" fill="none" xmlns="http://www.w3.org/2000/svg">
<g clip-path="url(#clip0_2793_4893)">
<path d="M2.66667 14H13.3333C13.7 14 14 13.7 14 13.3333C14 12.9667 13.7 12.6667 13.3333 12.6667H2.66667C2.3 12.6667 2 12.9667 2 13.3333C2 13.7 2.3 14 2.66667 14ZM2 6.14V9.86667C2 10.1667 2.36 10.3133 2.56667 10.1L4.42667 8.24C4.56 8.10667 4.56 7.9 4.42667 7.76667L2.56667 5.9C2.36 5.69333 2 5.84 2 6.14ZM8 11.3333H13.3333C13.7 11.3333 14 11.0333 14 10.6667C14 10.3 13.7 10 13.3333 10H8C7.63333 10 7.33333 10.3 7.33333 10.6667C7.33333 11.0333 7.63333 11.3333 8 11.3333ZM2 2.66667C2 3.03333 2.3 3.33333 2.66667 3.33333H13.3333C13.7 3.33333 14 3.03333 14 2.66667C14 2.3 13.7 2 13.3333 2H2.66667C2.3 2 2 2.3 2 2.66667ZM8 6H13.3333C13.7 6 14 5.7 14 5.33333C14 4.96667 13.7 4.66667 13.3333 4.66667H8C7.63333 4.66667 7.33333 4.96667 7.33333 5.33333C7.33333 5.7 7.63333 6 8 6ZM8 8.66667H13.3333C13.7 8.66667 14 8.36667 14 8C14 7.63333 13.7 7.33333 13.3333 7.33333H8C7.63333 7.33333 7.33333 7.63333 7.33333 8C7.33333 8.36667 7.63333 8.66667 8 8.66667Z" fill="currentColor"/>
</g>
<defs>
<clipPath id="clip0_2793_4893">
<rect width="16" height="16" fill="white"/>
</clipPath>
</defs>
</svg>
