<svg width="16" height="16" viewBox="0 0 16 16" fill="none" xmlns="http://www.w3.org/2000/svg">
<path d="M9.97188 3.74903C10.0777 3.39637 9.87755 3.02471 9.52489 2.91892C9.17223 2.81312 8.80058 3.01324 8.69478 3.3659L6.02811 12.2548C5.92231 12.6075 6.12243 12.9791 6.4751 13.0849C6.82776 13.1907 7.19941 12.9906 7.30521 12.6379L9.97188 3.74903Z" fill="currentColor"/>
<path d="M3.98237 4.82315C3.69951 4.58744 3.27914 4.62566 3.04343 4.90851L0.821206 7.57518C0.615181 7.82241 0.615181 8.18153 0.821206 8.42876L3.04343 11.0954C3.27914 11.3783 3.69951 11.4165 3.98237 11.1808C4.26522 10.9451 4.30343 10.5247 4.06772 10.2418L2.20116 8.00197L4.06772 5.76209C4.30343 5.47924 4.26522 5.05886 3.98237 4.82315Z" fill="currentColor"/>
<path d="M12.0177 4.82315C12.3005 4.58744 12.7209 4.62566 12.9566 4.90851L15.1788 7.57518C15.3849 7.82241 15.3849 8.18153 15.1788 8.42876L12.9566 11.0954C12.7209 11.3783 12.3005 11.4165 12.0177 11.1808C11.7348 10.9451 11.6966 10.5247 11.9323 10.2418L13.7989 8.00197L11.9323 5.76209C11.6966 5.47924 11.7348 5.05886 12.0177 4.82315Z" fill="currentColor"/>
</svg>
