<svg width="16" height="16" viewBox="0 0 16 16" fill="none" xmlns="http://www.w3.org/2000/svg">
<path fill-rule="evenodd" clip-rule="evenodd" d="M8.08596 3.60016L6.28068 12.4045H4.79997C4.35814 12.4045 3.99997 12.7627 3.99997 13.2045C3.99997 13.6464 4.35814 14.0045 4.79997 14.0045H6.92104C6.92979 14.0047 6.93852 14.0047 6.94722 14.0045H9.06664C9.50846 14.0045 9.86664 13.6464 9.86664 13.2045C9.86664 12.7627 9.50846 12.4045 9.06664 12.4045H7.91397L9.71924 3.60016H11.2C11.6418 3.60016 12 3.24199 12 2.80016C12 2.35833 11.6418 2.00016 11.2 2.00016H9.08168C9.07107 1.99995 9.06048 1.99995 9.04993 2.00016H6.9333C6.49147 2.00016 6.1333 2.35833 6.1333 2.80016C6.1333 3.24199 6.49147 3.60016 6.9333 3.60016H8.08596Z" fill="currentColor"/>
</svg>
