<svg width="8" height="13" viewBox="0 0 8 13" fill="none" xmlns="http://www.w3.org/2000/svg">
<path fill-rule="evenodd" clip-rule="evenodd" d="M4.08599 1.60016L2.28071 10.4045H0.8C0.358172 10.4045 0 10.7627 0 11.2045C0 11.6464 0.358172 12.0045 0.8 12.0045H2.92107C2.92982 12.0047 2.93855 12.0047 2.94725 12.0045H5.06667C5.50849 12.0045 5.86667 11.6464 5.86667 11.2045C5.86667 10.7627 5.50849 10.4045 5.06667 10.4045H3.914L5.71927 1.60016H7.2C7.64183 1.60016 8 1.24199 8 0.800158C8 0.358331 7.64183 0.00015831 7.2 0.00015831H5.08171C5.0711 -5.33571e-05 5.06051 -5.22589e-05 5.04996 0.00015831H2.93333C2.4915 0.00015831 2.13333 0.358331 2.13333 0.800158C2.13333 1.24199 2.4915 1.60016 2.93333 1.60016H4.08599Z" fill="#8E99A4"/>
</svg>
