<svg width="13" height="12" viewBox="0 0 13 12" fill="none" xmlns="http://www.w3.org/2000/svg">
<path d="M4.33334 2.66663H12.3333C12.7 2.66663 13 2.36663 13 1.99996C13 1.63329 12.7 1.33329 12.3333 1.33329H4.33334C3.96668 1.33329 3.66668 1.63329 3.66668 1.99996C3.66668 2.36663 3.96668 2.66663 4.33334 2.66663ZM12.3333 9.33329H4.33334C3.96668 9.33329 3.66668 9.63329 3.66668 9.99996C3.66668 10.3666 3.96668 10.6666 4.33334 10.6666H12.3333C12.7 10.6666 13 10.3666 13 9.99996C13 9.63329 12.7 9.33329 12.3333 9.33329ZM12.3333 5.33329H4.33334C3.96668 5.33329 3.66668 5.63329 3.66668 5.99996C3.66668 6.36663 3.96668 6.66663 4.33334 6.66663H12.3333C12.7 6.66663 13 6.36663 13 5.99996C13 5.63329 12.7 5.33329 12.3333 5.33329ZM2.00001 8.66663H0.666677C0.48001 8.66663 0.333344 8.81329 0.333344 8.99996C0.333344 9.18663 0.48001 9.33329 0.666677 9.33329H1.66668V9.66663H1.33334C1.14668 9.66663 1.00001 9.81329 1.00001 9.99996C1.00001 10.1866 1.14668 10.3333 1.33334 10.3333H1.66668V10.6666H0.666677C0.48001 10.6666 0.333344 10.8133 0.333344 11C0.333344 11.1866 0.48001 11.3333 0.666677 11.3333H2.00001C2.18668 11.3333 2.33334 11.1866 2.33334 11V8.99996C2.33334 8.81329 2.18668 8.66663 2.00001 8.66663ZM0.666677 1.33329H1.00001V2.99996C1.00001 3.18663 1.14668 3.33329 1.33334 3.33329C1.52001 3.33329 1.66668 3.18663 1.66668 2.99996V0.999959C1.66668 0.813293 1.52001 0.666626 1.33334 0.666626H0.666677C0.48001 0.666626 0.333344 0.813293 0.333344 0.999959C0.333344 1.18663 0.48001 1.33329 0.666677 1.33329ZM2.00001 4.66663H0.666677C0.48001 4.66663 0.333344 4.81329 0.333344 4.99996C0.333344 5.18663 0.48001 5.33329 0.666677 5.33329H1.53334L0.413343 6.63996C0.36001 6.69996 0.333344 6.77996 0.333344 6.85329V6.99996C0.333344 7.18663 0.48001 7.33329 0.666677 7.33329H2.00001C2.18668 7.33329 2.33334 7.18663 2.33334 6.99996C2.33334 6.81329 2.18668 6.66663 2.00001 6.66663H1.13334L2.25334 5.35996C2.30668 5.29996 2.33334 5.21996 2.33334 5.14663V4.99996C2.33334 4.81329 2.18668 4.66663 2.00001 4.66663Z" fill="currentColor"/>
</svg>
