<svg width="16" height="16" viewBox="0 0 16 16" fill="none" xmlns="http://www.w3.org/2000/svg">
<g clip-path="url(#clip0_2793_4634)">
<path d="M5.33331 4.66406H13.3333C13.7 4.66406 14 4.36406 14 3.9974C14 3.63073 13.7 3.33073 13.3333 3.33073H5.33331C4.96665 3.33073 4.66665 3.63073 4.66665 3.9974C4.66665 4.36406 4.96665 4.66406 5.33331 4.66406ZM13.3333 11.3307H5.33331C4.96665 11.3307 4.66665 11.6307 4.66665 11.9974C4.66665 12.3641 4.96665 12.6641 5.33331 12.6641H13.3333C13.7 12.6641 14 12.3641 14 11.9974C14 11.6307 13.7 11.3307 13.3333 11.3307ZM13.3333 7.33073H5.33331C4.96665 7.33073 4.66665 7.63073 4.66665 7.9974C4.66665 8.36406 4.96665 8.66406 5.33331 8.66406H13.3333C13.7 8.66406 14 8.36406 14 7.9974C14 7.63073 13.7 7.33073 13.3333 7.33073ZM2.99998 10.6641H1.66665C1.47998 10.6641 1.33331 10.8107 1.33331 10.9974C1.33331 11.1841 1.47998 11.3307 1.66665 11.3307H2.66665V11.6641H2.33331C2.14665 11.6641 1.99998 11.8107 1.99998 11.9974C1.99998 12.1841 2.14665 12.3307 2.33331 12.3307H2.66665V12.6641H1.66665C1.47998 12.6641 1.33331 12.8107 1.33331 12.9974C1.33331 13.1841 1.47998 13.3307 1.66665 13.3307H2.99998C3.18665 13.3307 3.33331 13.1841 3.33331 12.9974V10.9974C3.33331 10.8107 3.18665 10.6641 2.99998 10.6641ZM1.66665 3.33073H1.99998V4.9974C1.99998 5.18406 2.14665 5.33073 2.33331 5.33073C2.51998 5.33073 2.66665 5.18406 2.66665 4.9974V2.9974C2.66665 2.81073 2.51998 2.66406 2.33331 2.66406H1.66665C1.47998 2.66406 1.33331 2.81073 1.33331 2.9974C1.33331 3.18406 1.47998 3.33073 1.66665 3.33073ZM2.99998 6.66406H1.66665C1.47998 6.66406 1.33331 6.81073 1.33331 6.9974C1.33331 7.18406 1.47998 7.33073 1.66665 7.33073H2.53331L1.41331 8.6374C1.35998 8.6974 1.33331 8.7774 1.33331 8.85073V8.9974C1.33331 9.18406 1.47998 9.33073 1.66665 9.33073H2.99998C3.18665 9.33073 3.33331 9.18406 3.33331 8.9974C3.33331 8.81073 3.18665 8.66406 2.99998 8.66406H2.13331L3.25331 7.3574C3.30665 7.2974 3.33331 7.2174 3.33331 7.14406V6.9974C3.33331 6.81073 3.18665 6.66406 2.99998 6.66406Z" fill="currentColor"/>
</g>
<defs>
<clipPath id="clip0_2793_4634">
<rect width="16" height="16" fill="white"/>
</clipPath>
</defs>
</svg>
