<?xml version="1.0" encoding="UTF-8" standalone="no"?>
<svg
   width="20"
   height="20"
   viewBox="0 0 20 20"
   fill="none"
   xmlns="http://www.w3.org/2000/svg">
    <g clip-path="url(#clip0_2168_154906)">
        <path fill-rule="evenodd" clip-rule="evenodd" d="M14.5467 15.8667L13.6667 13.7333H7.00005L6.13338 15.8667C5.93338 16.3467 5.46672 16.6667 4.94672 16.6667C4.02672 16.6667 3.40005 15.72 3.76005 14.88L5.00323 12.0059H15.6635L16.9067 14.88C17.2667 15.72 16.6534 16.6667 15.7334 16.6667C15.2134 16.6667 14.7467 16.3467 14.5467 15.8667ZM13.6435 7.33594L11.7334 2.92C11.4934 2.36 10.9467 2 10.3334 2C9.72005 2 9.17338 2.36 8.93338 2.92L7.02326 7.33594H9.32912L10.3334 4.64L11.3376 7.33594H13.6435Z" fill="currentColor"/>
        <path d="M1 9.67708C1 10.4104 1.6 11.0104 2.33333 11.0104H18.3333C19.0667 11.0104 19.6667 10.4104 19.6667 9.67708C19.6667 8.94375 19.0667 8.34375 18.3333 8.34375H2.33333C1.6 8.34375 1 8.94375 1 9.67708Z" fill="currentColor"/>
    </g>
    <defs>
        <clipPath id="clip0_2168_154906">
            <rect width="20" height="20" fill="white"/>
        </clipPath>
    </defs>
</svg>
