<svg width="20" height="20" viewBox="0 0 20 20" fill="none" xmlns="http://www.w3.org/2000/svg">
<g clip-path="url(#clip0_1456_146350)">
<path d="M1 18.6667C1 19.4 1.6 20 2.33333 20H18.3333C19.0667 20 19.6667 19.4 19.6667 18.6667C19.6667 17.9333 19.0667 17.3333 18.3333 17.3333H2.33333C1.6 17.3333 1 17.9333 1 18.6667ZM7 11.7333H13.6667L14.5467 13.8667C14.7467 14.3467 15.2133 14.6667 15.7333 14.6667C16.6533 14.6667 17.2667 13.72 16.9067 12.88L11.7333 0.92C11.4933 0.36 10.9467 0 10.3333 0C9.72 0 9.17333 0.36 8.93333 0.92L3.76 12.88C3.4 13.72 4.02667 14.6667 4.94667 14.6667C5.46667 14.6667 5.93333 14.3467 6.13333 13.8667L7 11.7333ZM10.3333 2.64L12.8267 9.33333H7.84L10.3333 2.64Z" fill="#C1C6CD"/>
</g>
<defs>
<clipPath id="clip0_1456_146350">
<rect width="20" height="20" fill="white"/>
</clipPath>
</defs>
</svg>
