<svg width="14" height="12" viewBox="0 0 14 12" fill="none" xmlns="http://www.w3.org/2000/svg">
<path d="M2.1458 0.893371C2.20888 0.465499 1.90205 0.0690897 1.46046 0.00796516C1.01887 -0.0531594 0.609758 0.244148 0.546674 0.67202L0.00822047 4.32413C-0.0548633 4.752 0.251974 5.14841 0.69356 5.20954C1.13515 5.27066 1.54426 4.97336 1.60735 4.54548L2.1458 0.893371Z" fill="currentColor"/>
<path d="M10.2226 7.67587C10.2857 7.248 9.97885 6.85159 9.53726 6.79046C9.09568 6.72934 8.68656 7.02664 8.62348 7.45452L8.08502 11.1066C8.02194 11.5345 8.32878 11.9309 8.77036 11.992C9.21195 12.0532 9.62107 11.7559 9.68415 11.328L10.2226 7.67587Z" fill="currentColor"/>
<path d="M5.21224 0.00574343C5.65509 0.0575575 5.97074 0.447414 5.91727 0.876513L5.90255 0.993287C5.89309 1.06788 5.87936 1.17541 5.86224 1.30757C5.828 1.57178 5.78013 1.93492 5.72561 2.33035C5.6179 3.11153 5.48009 4.04989 5.36895 4.58829C5.28147 5.01211 4.85597 5.28697 4.41856 5.20221C3.98115 5.11744 3.69748 4.70515 3.78496 4.28133C3.88411 3.80099 4.01552 2.91329 4.12447 2.12309C4.17828 1.73284 4.22559 1.37397 4.25946 1.11259C4.27639 0.981947 4.28994 0.875787 4.29925 0.802389L4.31351 0.689266C4.36698 0.260167 4.76938 -0.0460706 5.21224 0.00574343Z" fill="currentColor"/>
<path d="M13.9918 7.67587C14.0549 7.248 13.748 6.85159 13.3064 6.79046C12.8649 6.72934 12.4557 7.02664 12.3927 7.45452L11.8542 11.1066C11.7911 11.5345 12.098 11.9309 12.5395 11.992C12.9811 12.0532 13.3902 11.7559 13.4533 11.328L13.9918 7.67587Z" fill="currentColor"/>
</svg>
