<svg width="16" height="16" viewBox="0 0 16 16" fill="none" xmlns="http://www.w3.org/2000/svg">
<path d="M3.1458 2.89337C3.20888 2.4655 2.90205 2.06909 2.46046 2.00797C2.01887 1.94684 1.60976 2.24415 1.54667 2.67202L1.00822 6.32413C0.945137 6.752 1.25197 7.14841 1.69356 7.20954C2.13515 7.27066 2.54426 6.97336 2.60735 6.54548L3.1458 2.89337Z" fill="currentColor"/>
<path d="M11.2226 9.67587C11.2857 9.248 10.9789 8.85159 10.5373 8.79046C10.0957 8.72934 9.68656 9.02664 9.62348 9.45452L9.08502 13.1066C9.02194 13.5345 9.32878 13.9309 9.77036 13.992C10.212 14.0532 10.6211 13.7559 10.6842 13.328L11.2226 9.67587Z" fill="currentColor"/>
<path d="M6.21224 2.00574C6.65509 2.05756 6.97074 2.44741 6.91727 2.87651L6.90255 2.99329C6.89309 3.06788 6.87936 3.17541 6.86224 3.30757C6.828 3.57178 6.78013 3.93492 6.72561 4.33035C6.6179 5.11153 6.48009 6.04989 6.36895 6.58829C6.28147 7.01211 5.85597 7.28697 5.41856 7.20221C4.98115 7.11744 4.69748 6.70515 4.78496 6.28133C4.88411 5.80099 5.01552 4.91329 5.12447 4.12309C5.17828 3.73284 5.22559 3.37397 5.25946 3.11259C5.27639 2.98195 5.28994 2.87579 5.29925 2.80239L5.31351 2.68927C5.36698 2.26017 5.76938 1.95393 6.21224 2.00574Z" fill="currentColor"/>
<path d="M14.9918 9.67587C15.0549 9.248 14.748 8.85159 14.3064 8.79046C13.8649 8.72934 13.4557 9.02664 13.3927 9.45452L12.8542 13.1066C12.7911 13.5345 13.098 13.9309 13.5395 13.992C13.9811 14.0532 14.3902 13.7559 14.4533 13.328L14.9918 9.67587Z" fill="currentColor"/>
</svg>
