<svg width="20" height="20" viewBox="0 0 20 20" fill="none" xmlns="http://www.w3.org/2000/svg">
<g clip-path="url(#clip0_1456_146365)">
<path d="M7.00042 13.7333H13.6671L14.5471 15.8667C14.7471 16.3467 15.2137 16.6667 15.7337 16.6667C16.6537 16.6667 17.2671 15.72 16.9071 14.88L11.7337 2.92C11.4937 2.36 10.9471 2 10.3337 2C9.72042 2 9.17375 2.36 8.93375 2.92L3.76042 14.88C3.40042 15.72 4.02708 16.6667 4.94708 16.6667C5.46708 16.6667 5.93375 16.3467 6.13375 15.8667L7.00042 13.7333ZM10.3337 4.64L12.8271 11.3333H7.84042L10.3337 4.64Z" fill="#C1C6CD"/>
<path d="M0.5 9.66927C0.5 10.6787 1.32386 11.5026 2.33333 11.5026H18.3333C19.3428 11.5026 20.1667 10.6787 20.1667 9.66927C20.1667 8.6598 19.3428 7.83594 18.3333 7.83594H2.33333C1.32386 7.83594 0.5 8.6598 0.5 9.66927Z" fill="#C1C6CD" stroke="white"/>
</g>
<defs>
<clipPath id="clip0_1456_146365">
<rect width="20" height="20" fill="white"/>
</clipPath>
</defs>
</svg>
