<svg width="20" height="20" viewBox="0 0 20 20" fill="none" xmlns="http://www.w3.org/2000/svg">
<mask id="path-1-inside-1" fill="white">
<path fill-rule="evenodd" clip-rule="evenodd" d="M8.83268 19.9326C3.85983 19.3544 0 15.128 0 10C0 4.47715 4.47715 0 10 0C15.1526 0 19.395 3.89699 19.9407 8.9044C19.906 8.88852 19.8701 8.87447 19.833 8.8624C16.7196 7.85038 13.2389 8.47712 10.8486 10.8893C8.46405 13.2956 7.84019 16.7967 8.83268 19.9326ZM10.7222 19.2778L19.2195 10.7805C16.7328 9.97252 14.0596 10.4993 12.2608 12.3145C10.4761 14.1155 9.94832 16.7851 10.7222 19.2778Z"/>
</mask>
<path fill-rule="evenodd" clip-rule="evenodd" d="M8.83268 19.9326C3.85983 19.3544 0 15.128 0 10C0 4.47715 4.47715 0 10 0C15.1526 0 19.395 3.89699 19.9407 8.9044C19.906 8.88852 19.8701 8.87447 19.833 8.8624C16.7196 7.85038 13.2389 8.47712 10.8486 10.8893C8.46405 13.2956 7.84019 16.7967 8.83268 19.9326ZM10.7222 19.2778L19.2195 10.7805C16.7328 9.97252 14.0596 10.4993 12.2608 12.3145C10.4761 14.1155 9.94832 16.7851 10.7222 19.2778Z" fill="black"/>
<path d="M8.83268 19.9326L8.7175 20.9233C9.05357 20.9624 9.38653 20.8284 9.6019 20.5675C9.81726 20.3065 9.88566 19.9542 9.78357 19.6316L8.83268 19.9326ZM19.9407 8.9044L19.5254 9.81119C19.8517 9.96064 20.2331 9.92324 20.5242 9.71327C20.8152 9.5033 20.9711 9.15314 20.9322 8.79635L19.9407 8.9044ZM19.833 8.8624L20.1413 7.91388L20.1413 7.91388L19.833 8.8624ZM10.8486 10.8893L11.557 11.5913L10.8486 10.8893ZM10.7222 19.2778L9.76968 19.5735C9.87326 19.9072 10.1439 20.1623 10.483 20.2461C10.8222 20.3298 11.1804 20.2301 11.4275 19.983L10.7222 19.2778ZM19.2195 10.7805L19.9248 11.4857C20.1702 11.2403 20.2704 10.8851 20.1894 10.5476C20.1083 10.2102 19.8578 9.93913 19.5277 9.8319L19.2195 10.7805ZM12.2608 12.3145L12.9693 13.0165L12.2608 12.3145ZM-0.997378 10C-0.997378 15.6401 3.24762 20.2874 8.7175 20.9233L8.94786 18.9419C4.47204 18.4215 0.997378 14.6158 0.997378 10H-0.997378ZM10 -0.997378C3.92632 -0.997378 -0.997378 3.92632 -0.997378 10H0.997378C0.997378 5.02799 5.02799 0.997378 10 0.997378V-0.997378ZM20.9322 8.79635C20.332 3.28845 15.6672 -0.997378 10 -0.997378V0.997378C14.638 0.997378 18.458 4.50552 18.9492 9.01244L20.9322 8.79635ZM19.5246 9.81093L19.5254 9.81119L20.356 7.9976C20.2866 7.96583 20.215 7.93783 20.1413 7.91388L19.5246 9.81093ZM11.557 11.5913C13.6521 9.47718 16.7269 8.9015 19.5246 9.81093L20.1413 7.91388C16.7123 6.79926 12.8258 7.47705 10.1401 10.1873L11.557 11.5913ZM9.78357 19.6316C8.88863 16.804 9.46516 13.7023 11.557 11.5913L10.1401 10.1873C7.46293 12.8889 6.79174 16.7894 7.88179 20.2335L9.78357 19.6316ZM11.4275 19.983L19.9248 11.4857L18.5143 10.0752L10.017 18.5725L11.4275 19.983ZM19.5277 9.8319C16.7239 8.92094 13.6455 9.50024 11.5524 11.6124L12.9693 13.0165C14.4738 11.4983 16.7417 11.0241 18.9113 11.729L19.5277 9.8319ZM11.5524 11.6124C9.47765 13.7061 8.89993 16.7721 9.76968 19.5735L11.6747 18.9821C10.9967 16.7982 11.4746 14.5248 12.9693 13.0165L11.5524 11.6124Z" fill="black" mask="url(#path-1-inside-1)"/>
</svg>
