<svg width="16" height="16" viewBox="0 0 16 16" fill="none" xmlns="http://www.w3.org/2000/svg">
<path d="M9.93167 4.76958C9.48979 3.88101 8.58375 3.47362 7.58232 3.58148C6.03349 3.74829 5.62648 4.94831 5.81497 5.72822C6.02118 6.58143 6.69765 6.91317 7.89252 7.21717H13.28C13.6776 7.21717 14 7.56757 14 7.99981C14 8.43204 13.6776 8.78244 13.28 8.78244H2.72C2.32235 8.78244 2 8.43204 2 7.99981C2 7.56757 2.32235 7.21717 2.72 7.21717H4.90308C4.69392 6.91824 4.52701 6.55948 4.42223 6.12592C4.0021 4.38757 5.03605 2.28279 7.44033 2.02384C8.85635 1.87133 10.4103 2.44045 11.1984 4.02524C11.3875 4.40548 11.2572 4.88035 10.9074 5.08589C10.5576 5.29143 10.1208 5.14981 9.93167 4.76958Z" fill="currentColor"/>
<path d="M10.2846 10.0868H11.7797C11.9254 10.8705 11.8142 11.7067 11.3665 12.4212C10.7426 13.4169 9.57984 14 7.98987 14C5.38435 14 4.18628 12.3895 3.94151 11.324C3.84516 10.9047 4.07981 10.4798 4.4656 10.3751C4.8514 10.2704 5.24225 10.5254 5.3386 10.9448C5.41285 11.268 6.00136 12.4347 7.98987 12.4347C9.27118 12.4347 9.90296 11.9764 10.1763 11.5401C10.4284 11.1378 10.472 10.6062 10.2846 10.0868Z" fill="currentColor"/>
</svg>
