<svg width="12" height="12" viewBox="0 0 12 12" fill="none" xmlns="http://www.w3.org/2000/svg">
<path d="M7.93167 2.76958C7.48979 1.88101 6.58375 1.47362 5.58232 1.58148C4.03349 1.74829 3.62648 2.94831 3.81497 3.72822C4.02118 4.58143 4.69765 4.91317 5.89252 5.21717H11.28C11.6776 5.21717 12 5.56757 12 5.99981C12 6.43204 11.6776 6.78244 11.28 6.78244H0.72C0.322355 6.78244 0 6.43204 0 5.99981C0 5.56757 0.322355 5.21717 0.72 5.21717H2.90308C2.69392 4.91824 2.52701 4.55948 2.42223 4.12592C2.0021 2.38757 3.03605 0.282791 5.44033 0.0238381C6.85635 -0.128674 8.41032 0.440447 9.19844 2.02524C9.38753 2.40548 9.25724 2.88035 8.90743 3.08589C8.55763 3.29143 8.12076 3.14981 7.93167 2.76958Z" fill="#8E99A4"/>
<path d="M8.28458 8.08683H9.77971C9.92538 8.87051 9.8142 9.70668 9.36651 10.4212C8.74261 11.4169 7.57984 12 5.98987 12C3.38435 12 2.18628 10.3895 1.94151 9.32405C1.84516 8.90469 2.07981 8.47984 2.4656 8.37511C2.8514 8.27038 3.24225 8.52544 3.3386 8.9448C3.41285 9.268 4.00136 10.4347 5.98987 10.4347C7.27118 10.4347 7.90296 9.97636 8.17634 9.54006C8.42836 9.13783 8.47197 8.60621 8.28458 8.08683Z" fill="#8E99A4"/>
</svg>
