<svg width="10" height="12" viewBox="0 0 10 12" fill="none" xmlns="http://www.w3.org/2000/svg">
<path d="M5.19333 9.3C7.21333 9.04 8.66667 7.22667 8.66667 5.19333V0.833333C8.66667 0.373333 8.29333 0 7.83333 0C7.37333 0 7 0.373333 7 0.833333V5.26667C7 6.38 6.24667 7.39333 5.15333 7.61333C3.65333 7.92667 2.33333 6.78 2.33333 5.33333V0.833333C2.33333 0.373333 1.96 0 1.5 0C1.04 0 0.666667 0.373333 0.666667 0.833333V5.33333C0.666667 7.71333 2.75333 9.61333 5.19333 9.3ZM0 11.3333C0 11.7 0.3 12 0.666667 12H8.66667C9.03333 12 9.33333 11.7 9.33333 11.3333C9.33333 10.9667 9.03333 10.6667 8.66667 10.6667H0.666667C0.3 10.6667 0 10.9667 0 11.3333Z" fill="#8E99A4"/>
</svg>
