<svg width="16" height="16" viewBox="0 0 16 16" fill="none" xmlns="http://www.w3.org/2000/svg">
<path d="M8.19333 11.3C10.2133 11.04 11.6667 9.22667 11.6667 7.19333V2.83333C11.6667 2.37333 11.2933 2 10.8333 2C10.3733 2 10 2.37333 10 2.83333V7.26667C10 8.38 9.24667 9.39333 8.15333 9.61333C6.65333 9.92667 5.33333 8.78 5.33333 7.33333V2.83333C5.33333 2.37333 4.96 2 4.5 2C4.04 2 3.66667 2.37333 3.66667 2.83333V7.33333C3.66667 9.71333 5.75333 11.6133 8.19333 11.3ZM3 13.3333C3 13.7 3.3 14 3.66667 14H11.6667C12.0333 14 12.3333 13.7 12.3333 13.3333C12.3333 12.9667 12.0333 12.6667 11.6667 12.6667H3.66667C3.3 12.6667 3 12.9667 3 13.3333Z" fill="currentColor"/>
</svg>
