
<svg width="112px" height="104px" viewBox="0 0 112 104" version="1.1" xmlns="http://www.w3.org/2000/svg" xmlns:xlink="http://www.w3.org/1999/xlink">
    <g id="Experiments" stroke="none" stroke-width="1" fill="none" fill-rule="evenodd">
        <g id="Home" transform="translate(-796.000000, -174.000000)">
            <g id="Group-11" transform="translate(621.000000, 193.000000)">
                <g id="Square-logo" transform="translate(177.000000, -17.000000)">
                    <path d="M28.7405867,28.5813527 L28.7405867,43.0723278 L43.1636162,43.0571778 C43.3467737,43.0571778 43.5138944,43.0521278 43.6801712,43.0411861 C47.4724623,42.7861611 50.4367461,39.6139193 50.4367461,35.8196861 C50.4367461,31.8276611 47.1812672,28.5813527 43.1779648,28.5813527 L28.7405867,28.5813527 Z M14.4762377,100.155003 C6.59877202,100.155003 0.211888643,93.7869528 0.211888643,85.9308361 L0.211888643,58.8215943 C0.160401939,58.3300611 0.132548476,57.8301111 0.132548476,57.3242693 C0.131704432,56.8091693 0.158713851,56.3008028 0.211888643,55.7991693 L0.211888643,14.3571861 C0.211888643,6.5010694 6.59877202,0.132177738 14.4762377,0.132177738 L43.1779648,0.132177738 C62.9117211,0.132177738 78.9662882,16.1415194 78.9662882,35.8196861 C78.9662882,54.5290943 64.3119907,70.1681028 45.6045923,71.4238693 C44.8095024,71.4785778 43.9899356,71.5063528 43.1779648,71.5063528 L28.7405867,71.5206611 L28.7405867,85.9308361 C28.7405867,93.7869528 22.3545474,100.155003 14.4762377,100.155003 Z" id="Fill-1" fill="#A2DDEF" fill-rule="nonzero"></path>
                    <path d="M28.7405867,28.5813527 L28.7405867,43.0723278 L43.1636162,43.0571778 C43.3467737,43.0571778 43.5138944,43.0521278 43.6801712,43.0411861 C47.4724623,42.7861611 50.4367461,39.6139193 50.4367461,35.8196861 C50.4367461,31.8276611 47.1812672,28.5813527 43.1779648,28.5813527 L28.7405867,28.5813527 Z M14.4762377,100.155003 C6.59877202,100.155003 0.211888643,93.7869528 0.211888643,85.9308361 L0.211888643,58.8215943 C0.160401939,58.3300611 0.132548476,57.8301111 0.132548476,57.3242693 C0.131704432,56.8091693 0.158713851,56.3008028 0.211888643,55.7991693 L0.211888643,14.3571861 C0.211888643,6.5010694 6.59877202,0.132177738 14.4762377,0.132177738 L43.1779648,0.132177738 C62.9117211,0.132177738 78.9662882,16.1415194 78.9662882,35.8196861 C78.9662882,54.5290943 64.3119907,70.1681028 45.6045923,71.4238693 C44.8095024,71.4785778 43.9899356,71.5063528 43.1779648,71.5063528 L28.7405867,71.5206611 L28.7405867,85.9308361 C28.7405867,93.7869528 22.3545474,100.155003 14.4762377,100.155003 Z" id="Stroke-3" stroke="#368BD6" stroke-width="2.51086957"></path>
                    <path d="M14.4763221,85.9305836 L14.4763221,14.3569336 L43.1780493,14.3569336 C55.0647254,14.3569336 64.7011793,23.9662419 64.7011793,35.8194336 C64.7011793,47.1810918 55.8479984,56.4806668 44.6466862,57.2322753 C44.1605169,57.2651003 43.6718153,57.2819336 43.1780493,57.2819336 L14.3969819,57.3105503" id="Stroke-5" stroke="#368BD6" stroke-width="2.51086957" stroke-linecap="round"></path>
                    <path d="M26.2303145,6.1990794 C28.4172333,9.31072107 29.2570575,13.0864377 28.5953267,16.8259627 C27.9327519,20.5680127 25.8479624,23.8277877 22.7249984,26.0068627 C16.2773438,30.5055711 7.35832749,28.9392293 2.84353443,22.5147877 C0.656615595,19.4031461 -0.183208504,15.6282711 0.479366288,11.8870627 C1.14109704,8.1458544 3.22588652,4.88523775 6.34969454,2.7070044 C12.7973491,-1.79170393 21.7155214,-0.225362262 26.2303145,6.1990794 Z M64.8185861,100.146839 C60.323206,100.146839 55.9004137,98.0342553 53.1243518,94.0843136 L32.9643533,65.3952636 C28.4436519,58.9615636 30.0093542,50.0912386 36.4603849,45.5841136 C42.9114157,41.0736218 51.8067987,42.6357553 56.3275,49.0694553 L76.4874987,77.7585053 C81.0090441,84.1922053 79.443342,93.0625303 72.9923112,97.5696553 C70.5006923,99.3110636 67.6452906,100.146839 64.8185861,100.146839 Z" id="Combined-Shape" fill="#368BD6" fill-rule="nonzero"></path>
                    <path d="M97.0646617,23.1852217 C96.4319548,23.1852217 95.9398495,22.6976355 95.9398495,22.0707389 C95.9398495,21.4438424 96.4319548,20.9562562 97.0646617,20.9562562 L108.593985,20.9562562 C109.226692,20.9562562 109.718797,21.4438424 109.718797,22.0707389 C109.718797,22.6976355 109.226692,23.1852217 108.593985,23.1852217 L97.0646617,23.1852217 Z M97.0646617,2.70660098 C96.4319548,2.70660098 95.9398495,2.21901478 96.0804512,1.45280788 C96.0804512,0.825911331 96.5725565,0.338325122 97.2052632,0.338325122 L101.774812,0.338325122 L108.664286,0.338325122 C108.875188,0.338325122 109.08609,0.407980295 109.296993,0.547290639 C109.578195,0.756256159 109.789098,1.10453202 109.789098,1.52246305 L109.789098,6.53763546 C109.789098,9.04522168 107.680075,11.1348768 105.149248,11.1348768 C103.321428,11.1348768 101.774812,10.1597044 101.001504,8.62729063 L97.7676691,10.8562562 C97.2052632,11.204532 96.5022558,11.0652217 96.1507519,10.5776355 C95.7992481,10.0203941 95.9398495,9.32384236 96.4319548,8.97556651 L100.509399,6.18935962 L100.509399,2.70660098 L97.0646617,2.70660098 Z M107.398872,6.60729063 L107.328572,2.70660098 L102.759022,2.70660098 L102.759022,6.60729063 C102.759022,7.86108374 103.813534,8.90591134 105.078947,8.90591134 C106.344361,8.90591134 107.398872,7.86108374 107.398872,6.60729063 Z M108.593985,53.1369458 C109.226692,53.1369458 109.718797,53.624532 109.718797,54.2514286 L109.718797,58.7790147 L109.718797,63.3762563 C109.718797,64.0031526 109.226692,64.490739 108.593985,64.490739 C107.961278,64.490739 107.469173,64.0031526 107.469173,63.3762563 L107.469173,59.8934975 L97.1349624,59.8934975 C96.5022558,59.8934975 96.0101505,59.4059113 96.0101505,58.7790147 C96.0101505,58.1521181 96.5022558,57.664532 97.1349624,57.664532 L107.469173,57.664532 L107.469173,54.2514286 C107.469173,53.624532 107.961278,53.1369458 108.593985,53.1369458 Z M102.829323,32.7976353 C106.695865,32.7976353 109.859399,35.9321181 109.859399,39.7631526 C109.859399,43.5941873 106.695865,46.7286698 102.829323,46.7286698 C98.9627821,46.7286698 95.7992481,43.5941873 95.7992481,39.7631526 C95.7992481,35.9321181 98.9627821,32.7976353 102.829323,32.7976353 Z M102.829323,44.4300492 C105.430451,44.4300492 107.539474,42.3403941 107.539474,39.7631526 C107.539474,37.1859113 105.430451,35.0962563 102.829323,35.0962563 C100.228195,35.0962563 98.119173,37.1859113 98.119173,39.7631526 C98.119173,42.3403941 100.228195,44.4300492 102.829323,44.4300492 Z M109.367293,76.3321181 C109.578195,76.5410837 109.648496,76.8197046 109.648496,77.0983252 C109.648496,77.4466009 109.578195,77.6555664 109.367293,77.864532 C109.08609,78.0734975 108.804887,78.1431526 108.593985,78.1431526 L96.994361,78.1431526 C96.6428572,78.1431526 96.4319548,78.1431526 96.2210526,77.864532 C96.0101505,77.5859113 95.9398495,77.3769458 95.9398495,77.0983252 C95.9398495,76.7500492 96.0101505,76.5410837 96.2210526,76.3321181 C96.5022558,76.1231526 96.7131579,76.0534975 96.994361,76.0534975 L108.593985,76.0534975 C108.945489,76.0534975 109.156391,76.1231526 109.367293,76.3321181 Z M109.648496,89.0790147 C109.648496,89.4969458 109.437594,89.8452218 109.156391,90.0541873 L102.688722,94.3031526 L109.156391,98.5521181 C109.578195,98.7610837 109.648496,99.1790147 109.648496,99.5272907 L109.648496,99.6666009 C109.648496,100.014877 109.648496,100.223842 109.367293,100.432808 C109.08609,100.641773 108.875188,100.711429 108.593985,100.711429 L97.0646617,100.711429 C96.7131579,100.711429 96.5022558,100.711429 96.2913533,100.432808 C96.0804512,100.154187 96.0101505,100.014877 96.0101505,99.6666009 C96.0101505,99.3183252 96.0804512,99.1093596 96.2913533,98.9003941 C96.5725565,98.6914286 96.8537593,98.6217735 97.0646617,98.6217735 L105.571053,98.6217735 L100.439098,95.1390147 C100.157895,94.9300492 99.9469926,94.5817735 99.9469926,94.2334975 C99.9469926,93.8852218 100.087594,93.6066009 100.368797,93.3279803 L105.500752,89.9148769 L96.994361,89.9148769 C96.6428572,89.9148769 96.4319548,89.9148769 96.2210526,89.6362563 C96.0101505,89.3576353 95.9398495,89.2183252 95.9398495,88.8700492 C95.9398495,88.5217735 96.0101505,88.312808 96.2210526,88.1038424 C96.5022558,87.8948769 96.7834586,87.8948769 96.994361,87.8948769 L108.593985,87.8948769 C108.945489,87.8948769 109.156391,87.964532 109.367293,88.1734975 C109.578195,88.382463 109.648496,88.6610837 109.648496,88.9397046 L109.648496,89.0790147 Z M102.056015,68.7397046 C102.266917,68.7397046 102.47782,68.8093596 102.688722,69.0183252 C102.829323,69.1576353 102.969925,69.3666009 102.969925,69.6452218 C102.969925,69.8541873 102.899624,70.0631526 102.688722,70.2721181 C102.54812,70.4114286 102.337218,70.550739 102.056015,70.550739 L101.704511,70.550739 C101.493609,70.550739 101.282707,70.4810837 101.071805,70.2721181 C100.931203,70.132808 100.790601,69.9238424 100.790601,69.6452218 C100.790601,69.3666009 100.860902,69.1576353 101.071805,69.0183252 C101.212406,68.8790147 101.423308,68.7397046 101.704511,68.7397046 L102.056015,68.7397046 Z" id="Combined-Shape" fill="#212121" fill-rule="nonzero"></path>
                </g>
            </g>
        </g>
    </g>
</svg>
