<svg width="42" height="48" viewBox="0 0 42 48" fill="none" xmlns="http://www.w3.org/2000/svg">
<path d="M30.698 39.0212C30.311 39.1906 29.9633 39.3437 29.6152 39.4954C28.251 40.0891 26.87 40.6362 25.4256 41.0072C23.2336 41.5702 21.0195 41.7469 18.7631 41.4781C16.6575 41.2275 14.6489 40.6535 12.6984 39.8424C9.86868 38.6651 7.37318 36.9987 5.28583 34.7487C3.62488 32.9585 2.37977 30.9024 1.47847 28.6351C0.76252 26.8348 0.254488 24.9837 0.0859446 23.0485C-0.0657928 21.3039 -0.0254576 19.5641 0.278017 17.8363C0.811499 14.7972 1.94761 11.9972 3.68347 9.45011C4.95835 7.57974 6.52614 5.98103 8.32106 4.59638C10.1602 3.17813 12.1616 2.05697 14.3363 1.25929C16.9879 0.286434 19.7259 -0.159439 22.5594 0.0512591C24.5896 0.202443 26.5459 0.644476 28.396 1.50071C30.7465 2.58875 32.9088 3.97772 34.8929 5.64075C35.848 6.4413 36.6138 7.41608 37.3889 8.38702C38.4625 9.73184 39.3869 11.1659 40.1259 12.7152C40.8327 14.1978 41.4795 15.7149 41.7187 17.3496C41.8862 18.4928 41.9727 19.6567 41.9852 20.8124C42.0173 23.8193 41.9876 26.8271 41.9852 29.8345C41.9818 33.9054 41.9842 37.9769 41.978 42.0478C41.9756 43.6345 41.4781 45.0643 40.5446 46.34C39.8104 47.3435 38.7545 47.7913 37.5656 47.9377C36.3325 48.0894 35.1234 47.9804 33.9824 47.429C32.8612 46.8871 32.08 46.0194 31.5431 44.9126C30.8848 43.5553 30.7066 42.1044 30.6985 40.6195C30.6956 40.1016 30.698 38.5174 30.698 37.9539V39.0212ZM30.698 37.9539L30.7628 34.4204C30.7854 29.8379 30.7888 25.2553 30.796 20.6728C30.7974 19.8492 30.796 19.0256 30.5866 18.2183C30.1871 16.6781 29.5408 15.2561 28.4575 14.0792C27.6229 13.1721 26.5963 12.4891 25.501 11.9334C24.871 11.6137 24.2141 11.3013 23.5327 11.1362C21.1789 10.5655 18.8918 10.8213 16.6657 11.7884C14.0203 12.9374 12.3498 14.9225 11.4768 17.6337C11.037 18.9997 10.8833 20.3906 10.9933 21.8213C11.1503 23.8601 11.92 25.6282 13.2919 27.1329C14.4467 28.3995 15.4026 29.1319 16.9915 29.7822C18.7422 30.4993 21.4512 30.2449 23.2956 29.7822L30.698 37.9539Z" fill="white"/>
</svg>
