<svg width="18" height="18" viewBox="0 0 18 18" fill="none" xmlns="http://www.w3.org/2000/svg">
<path fill-rule="evenodd" clip-rule="evenodd" d="M16.2962 6.95039C17.2815 8.16305 17.3023 9.84863 16.3296 11.0714C14.9497 12.806 12.5144 15 9.02365 15C5.5329 15 3.09759 12.806 1.71772 11.0714C0.744983 9.84863 0.765783 8.16305 1.75111 6.95039C3.16323 5.21247 5.6278 3 9.02365 3C12.4195 3 14.8841 5.21247 16.2962 6.95039ZM13 9C13 11.2091 11.2091 13 9 13C6.79086 13 5 11.2091 5 9C5 6.79086 6.79086 5 9 5C11.2091 5 13 6.79086 13 9ZM9 11C10.1046 11 11 10.1046 11 9C11 7.89543 10.1046 7 9 7C7.89543 7 7 7.89543 7 9C7 10.1046 7.89543 11 9 11Z" fill="black"/>
</svg>
