<svg width="22" height="19" viewBox="0 0 22 19" fill="none" xmlns="http://www.w3.org/2000/svg">
<path d="M3 15.5C2.45 15.5 1.97933 15.3043 1.588 14.913C1.196 14.521 1 14.05 1 13.5V2.5C1 1.95 1.196 1.479 1.588 1.087C1.97933 0.695667 2.45 0.5 3 0.5H19C19.55 0.5 20.021 0.695667 20.413 1.087C20.8043 1.479 21 1.95 21 2.5V13.5C21 14.05 20.8043 14.521 20.413 14.913C20.021 15.3043 19.55 15.5 19 15.5H3ZM3 13.5H19V2.5H3V13.5ZM1 18.5C0.716667 18.5 0.479333 18.404 0.288 18.212C0.096 18.0207 0 17.7833 0 17.5C0 17.2167 0.096 16.9793 0.288 16.788C0.479333 16.596 0.716667 16.5 1 16.5H21C21.2833 16.5 21.5207 16.596 21.712 16.788C21.904 16.9793 22 17.2167 22 17.5C22 17.7833 21.904 18.0207 21.712 18.212C21.5207 18.404 21.2833 18.5 21 18.5H1ZM3 13.5V2.5V13.5Z" fill="currentColor"/>
</svg>
