<svg width="21" height="19" viewBox="0 0 21 19" fill="none" xmlns="http://www.w3.org/2000/svg">
<path d="M20 2V7.005L18 7.003V4H2V14H13V16H2C1.45 16 0.979333 15.8043 0.588 15.413C0.196 15.021 0 14.55 0 14V2C0 1.45 0.196 0.979333 0.588 0.588C0.979333 0.196 1.45 0 2 0H18C18.55 0 19.021 0.196 19.413 0.588C19.8043 0.979333 20 1.45 20 2Z" fill="currentColor"/>
<path fill-rule="evenodd" clip-rule="evenodd" d="M15 8L20 8.005C20.55 8.005 21 8.45 21 9V18C21 18.55 20.55 19 20
19H15C14.45 19 14 18.55 14 18V9C14 8.45 14.45 8 15 8ZM15 17H20V10H15V17Z" fill="currentColor"/>
</svg>
