<svg width="18" height="18" viewBox="0 0 18 18" fill="none" xmlns="http://www.w3.org/2000/svg">
<path d="M8.99182 17C9.45808 17 9.84254 16.6564 9.90798 16.1738C10.6196 11.1595 11.2986 10.4724 16.1411 9.92434C16.6319 9.86708 17 9.46626 17 9C17 8.52556 16.6401 8.1411 16.1493 8.07566C11.3313 7.44581 10.7096 6.83231 9.90798 1.818C9.82618 1.33538 9.45808 1 8.99182 1C8.53374 1 8.14928 1.33538 8.07566 1.82618C7.37219 6.84049 6.69325 7.52761 1.85072 8.07566C1.35992 8.13292 1 8.52556 1 9C1 9.46626 1.35174 9.8589 1.85072 9.92434C6.66871 10.5951 7.26585 11.1677 8.07566 16.182C8.16564 16.6646 8.54192 17 8.99182 17Z" fill="black"/>
</svg>
