<svg width="18" height="18" viewBox="0 0 18 18" fill="none" xmlns="http://www.w3.org/2000/svg">
    <path fill-rule="evenodd" clip-rule="evenodd" d="M6.5 3C7.32843 3 8 2.32843 8 1.5C8 0.671573 7.32843 0 6.5 0C5.67157 0 5 0.671573 5 1.5C5 2.32843 5.67157 3 6.5 3ZM15.2041 14.7404L11.598 8.73148L11.624 6.96296H12.1176C12.2554 6.96296 12.3876 6.91224 12.485 6.82194C12.5825 6.73164 12.6372 6.60918 12.6372 6.48148C12.6372 6.35378 12.5825 6.23132 12.485 6.14102C12.3876 6.05073 12.2554 6 12.1176 6H5.88237C5.74456 6 5.6124 6.05073 5.51495 6.14102C5.41751 6.23132 5.36277 6.35378 5.36277 6.48148C5.36277 6.60918 5.41751 6.73164 5.51495 6.82194C5.6124 6.91224 5.74456 6.96296 5.88237 6.96296H6.376L6.40198 8.73148L2.79592 14.7404C2.59646 15.0747 2.49454 15.4515 2.50023 15.8335C2.50591 16.2155 2.619 16.5895 2.82833 16.9186C3.03766 17.2477 3.336 17.5206 3.69389 17.7102C4.05179 17.8999 4.45686 17.9997 4.86914 18H13.1309C13.5431 17.9997 13.9482 17.8999 14.3061 17.7102C14.664 17.5206 14.9623 17.2477 15.1717 16.9186C15.381 16.5895 15.4941 16.2155 15.4998 15.8335C15.5055 15.4515 15.4035 15.0747 15.2041 14.7404ZM7.37364 9.08778C7.41831 9.01432 7.44159 8.93136 7.44118 8.84704L7.4152 6.96296H10.5848L10.5588 8.84704C10.5584 8.93136 10.5817 9.01432 10.6264 9.08778L12.4814 12.1837C11.4354 12.1572 10.3977 12.0034 9.3949 11.7263C8.31816 11.4355 7.20603 11.2721 6.08502 11.24L7.37364 9.08778ZM13 3.5C13 4.32843 12.3284 5 11.5 5C10.6716 5 10 4.32843 10 3.5C10 2.67157 10.6716 2 11.5 2C12.3284 2 13 2.67157 13 3.5Z" fill="#737D8C"/>
</svg>
