<svg width="18" height="18" viewBox="0 0 18 18" fill="none" xmlns="http://www.w3.org/2000/svg">
<path fill-rule="evenodd" clip-rule="evenodd" d="M9 17C13.4183 17 17 13.4183 17 9C17 4.58172 13.4183 1 9 1C4.58172 1 1 4.58172 1 9C1 13.4183 4.58172 17 9 17ZM9 13.9167C9.55228 13.9167 10 13.469 10 12.9167C10 12.3644 9.55228 11.9167 9 11.9167C8.44772 11.9167 8 12.3644 8 12.9167C8 13.469 8.44772 13.9167 9 13.9167ZM7.61072 7.49307C7.61072 6.72339 8.23521 6.10417 8.99961 6.10417C9.76178 6.10417 10.3885 6.73089 10.3885 7.49307C10.3885 7.84605 10.2375 7.97202 9.64273 8.38297C9.37919 8.56505 9.01775 8.81799 8.73629 9.189C8.43501 9.58614 8.24961 10.0814 8.24961 10.7111H9.74961C9.74961 10.4027 9.83156 10.2271 9.93133 10.0956C10.0509 9.93794 10.2242 9.80442 10.4954 9.61706C10.5238 9.59739 10.5539 9.57694 10.5853 9.5556C11.0769 9.22121 11.8885 8.6692 11.8885 7.49307C11.8885 5.90248 10.5902 4.60417 8.99961 4.60417C7.41122 4.60417 6.11072 5.89054 6.11072 7.49307H7.61072Z" fill="black"/>
</svg>
