<svg width="221" height="148" viewBox="0 0 221 148" fill="none" xmlns="http://www.w3.org/2000/svg">
    <defs>
        <mask id="mountains">
            <rect x="0" y="0" width="100%" height="100%" fill="white" />
            <path d="M109.918 67.966L80.2282 114.975C79.0024 116.916 80.3971 119.447 82.6927 119.447H142.073C144.369 119.447 145.763 116.916 144.538 114.975L114.847 67.966C113.704 66.1548 111.062 66.1548 109.918 67.966Z" fill="black"/>
            <path d="M141.995 82.4526L121.1 114.956C119.853 116.896 121.246 119.447 123.552 119.447H165.342C167.648 119.447 169.041 116.896 167.794 114.956L146.899 82.4526C145.751 80.6677 143.142 80.6677 141.995 82.4526Z" fill="black"/>
            <circle cx="161.936" cy="61.1488" r="11.6596" fill="black"/>
        </mask>
    </defs>
    <rect x="0.5" y="0.5" width="220" height="147" rx="7.5" stroke="#E3E8F0"/>
    <rect x="57" y="14" width="10" height="10" rx="1.5" fill="#E3E8F0"/>
    <rect x="70" y="14" width="60" height="10" rx="1.5" fill="#E3E8F0"/>
    <path d="M0 8C0 3.58173 3.58172 0 8 0H45C45.5523 0 46 0.447715 46 1V147C46 147.552 45.5523 148 45 148H8C3.58172 148 0 144.418 0 140V8Z" fill="#E3E8F0"/>
    <rect x="57" y="32" width="137" height="102.021" rx="5.82979" fill="#E3E8F0" mask="url(#mountains)"/>
</svg>
