<svg width="221" height="148" viewBox="0 0 221 148" fill="none" xmlns="http://www.w3.org/2000/svg">
    <defs>
        <mask id="mountains">
            <rect x="0" y="0" width="100%" height="100%" fill="white" />
            <path d="M75.1545 94.3387L64.9688 110.466C64.5483 111.132 65.0268 112 65.8143 112H86.1857C86.9732 112 87.4517 111.132 87.0312 110.466L76.8455 94.3387C76.4531 93.7173 75.5469 93.7173 75.1545 94.3387Z" fill="black"/>
            <path d="M86.1588 99.3085L78.9905 110.459C78.5627 111.125 79.0405 112 79.8317 112H94.1683C94.9595 112 95.4373 111.125 95.0095 110.459L87.8412 99.3085C87.4475 98.6962 86.5525 98.6962 86.1588 99.3085Z" fill="black"/>
            <circle cx="93" cy="92" r="4" fill="black"/>
        </mask>
    </defs>
    <rect x="0.5" y="0.5" width="220" height="147" rx="7.5" stroke="#E3E8F0"/>
    <rect x="57" y="14" width="10" height="10" rx="1.5" fill="#E3E8F0"/>
    <rect x="57" y="64" width="10" height="10" rx="1.5" fill="#E3E8F0"/>
    <rect x="57" y="125" width="10" height="10" rx="1.5" fill="#E3E8F0"/>
    <rect x="70" y="14" width="60" height="10" rx="1.5" fill="#E3E8F0"/>
    <rect x="70" y="64" width="60" height="10" rx="1.5" fill="#E3E8F0"/>
    <rect x="70" y="125" width="60" height="10" rx="1.5" fill="#E3E8F0"/>
    <path d="M57 32.5C57 31.6716 57.6716 31 58.5 31H208.5C209.328 31 210 31.6716 210 32.5V54.5C210 55.3284 209.328 56 208.5 56H58.5C57.6716 56 57 55.3284 57 54.5V32.5Z" fill="#E3E8F0"/>
    <path d="M0 8C0 3.58173 3.58172 0 8 0H45C45.5523 0 46 0.447715 46 1V147C46 147.552 45.5523 148 45 148H8C3.58172 148 0 144.418 0 140V8Z" fill="#E3E8F0"/>
    <rect x="57" y="82" width="47" height="35" rx="2" fill="#E3E8F0" mask="url(#mountains)" />
</svg>
