<svg width="8" height="14" viewBox="0 0 8 14" fill="none" xmlns="http://www.w3.org/2000/svg">
<path d="M1.33333 0.333008C0.6 0.333008 0 0.933008 0 1.66634L0.00666682 3.78634C0.00666682 4.13967 0.146667 4.47301 0.393333 4.72634L2.66667 6.99967L0.393333 9.28634C0.146667 9.53301 0.00666682 9.87301 0.00666682 10.2263L0 12.333C0 13.0663 0.6 13.6663 1.33333 13.6663H6.66667C7.4 13.6663 8 13.0663 8 12.333V10.2263C8 9.87301 7.86 9.53301 7.61333 9.28634L5.33333 6.99967L7.60667 4.73301C7.86 4.47967 8 4.13967 8 3.78634V1.66634C8 0.933008 7.4 0.333008 6.66667 0.333008H1.33333ZM6.66667 10.273V11.6663C6.66667 12.033 6.36667 12.333 6 12.333H2C1.63333 12.333 1.33333 12.033 1.33333 11.6663V10.273C1.33333 10.093 1.40667 9.92634 1.52667 9.79967L4 7.33301L6.47333 9.80634C6.59333 9.92634 6.66667 10.0997 6.66667 10.273Z" fill="currentColor"/>
</svg>
