<svg width="16" height="16" viewBox="0 0 16 16" fill="none" xmlns="http://www.w3.org/2000/svg">
<path d="M13.3333 3.33331H2.66659C1.93325 3.33331 1.33992 3.93331 1.33992 4.66665L1.33325 11.3333C1.33325 12.0666 1.93325 12.6666 2.66659 12.6666H13.3333C14.0666 12.6666 14.6666 12.0666 14.6666 11.3333V4.66665C14.6666 3.93331 14.0666 3.33331 13.3333 3.33331ZM7.33325 5.66665C7.33325 5.48255 7.48249 5.33331 7.66658 5.33331H8.33325C8.51735 5.33331 8.66658 5.48255 8.66658 5.66665V6.33331C8.66658 6.51741 8.51735 6.66665 8.33325 6.66665H7.66659C7.48249 6.66665 7.33325 6.51741 7.33325 6.33331V5.66665ZM7.33325 7.66665C7.33325 7.48255 7.48249 7.33331 7.66658 7.33331H8.33325C8.51735 7.33331 8.66658 7.48255 8.66658 7.66665V8.33331C8.66658 8.51741 8.51735 8.66665 8.33325 8.66665H7.66659C7.48249 8.66665 7.33325 8.51741 7.33325 8.33331V7.66665ZM5.33325 5.66665C5.33325 5.48255 5.48249 5.33331 5.66658 5.33331H6.33325C6.51735 5.33331 6.66658 5.48255 6.66658 5.66665V6.33331C6.66658 6.51741 6.51735 6.66665 6.33325 6.66665H5.66659C5.48249 6.66665 5.33325 6.51741 5.33325 6.33331V5.66665ZM5.33325 7.66665C5.33325 7.48255 5.48249 7.33331 5.66658 7.33331H6.33325C6.51735 7.33331 6.66658 7.48255 6.66658 7.66665V8.33331C6.66658 8.51741 6.51735 8.66665 6.33325 8.66665H5.66659C5.48249 8.66665 5.33325 8.51741 5.33325 8.33331V7.66665ZM4.66658 8.33331C4.66658 8.51741 4.51735 8.66665 4.33325 8.66665H3.66659C3.48249 8.66665 3.33325 8.51741 3.33325 8.33331V7.66665C3.33325 7.48255 3.48249 7.33331 3.66659 7.33331H4.33325C4.51735 7.33331 4.66658 7.48255 4.66658 7.66665V8.33331ZM4.66658 6.33331C4.66658 6.51741 4.51735 6.66665 4.33325 6.66665H3.66659C3.48249 6.66665 3.33325 6.51741 3.33325 6.33331V5.66665C3.33325 5.48255 3.48249 5.33331 3.66659 5.33331H4.33325C4.51735 5.33331 4.66658 5.48255 4.66658 5.66665V6.33331ZM10.6666 11C10.6666 11.1841 10.5173 11.3333 10.3333 11.3333H5.66659C5.48249 11.3333 5.33325 11.1841 5.33325 11V10.3333C5.33325 10.1492 5.48249 9.99998 5.66658 9.99998H10.3333C10.5173 9.99998 10.6666 10.1492 10.6666 10.3333V11ZM10.6666 8.33331C10.6666 8.51741 10.5173 8.66665 10.3333 8.66665H9.66658C9.48249 8.66665 9.33325 8.51741 9.33325 8.33331V7.66665C9.33325 7.48255 9.48249 7.33331 9.66658 7.33331H10.3333C10.5173 7.33331 10.6666 7.48255 10.6666 7.66665V8.33331ZM10.6666 6.33331C10.6666 6.51741 10.5173 6.66665 10.3333 6.66665H9.66658C9.48249 6.66665 9.33325 6.51741 9.33325 6.33331V5.66665C9.33325 5.48255 9.48249 5.33331 9.66658 5.33331H10.3333C10.5173 5.33331 10.6666 5.48255 10.6666 5.66665V6.33331ZM12.6666 8.33331C12.6666 8.51741 12.5173 8.66665 12.3333 8.66665H11.6666C11.4825 8.66665 11.3333 8.51741 11.3333 8.33331V7.66665C11.3333 7.48255 11.4825 7.33331 11.6666 7.33331H12.3333C12.5173 7.33331 12.6666 7.48255 12.6666 7.66665V8.33331ZM12.6666 6.33331C12.6666 6.51741 12.5173 6.66665 12.3333 6.66665H11.6666C11.4825 6.66665 11.3333 6.51741 11.3333 6.33331V5.66665C11.3333 5.48255 11.4825 5.33331 11.6666 5.33331H12.3333C12.5173 5.33331 12.6666 5.48255 12.6666 5.66665V6.33331Z" fill="#8D99A5"/>
</svg>
