<svg width="18" height="18" viewBox="0 0 18 18" fill="none" xmlns="http://www.w3.org/2000/svg">
<path d="M2.9722 17C2.43527 17 2 16.5647 2 16.0278V9.29493C2 9.12977 2.21388 9 2.4861 9H3.45831C3.73052 9 3.94441 9.12977 3.94441 9.29493V16.0278C3.94441 16.5647 3.50914 17 2.9722 17Z" fill="black"/>
<path d="M4.67853 1C2.71201 1 2.00037 2.32352 2.00037 3.14492V11.7828H3.46227C6.54174 10.3832 9.54358 13.0302 12.7136 12.9997C15.8837 12.9693 16.0001 11.2655 16.0001 10.4136V3.57086C16.0001 0.786973 14.0724 3.46432 10.7987 2.38431C7.95667 1.44674 7.44433 1 4.67853 1Z" fill="black"/>
</svg>
