<svg width="22" height="23" viewBox="0 0 22 23" fill="none" xmlns="http://www.w3.org/2000/svg">
<path fill-rule="evenodd" clip-rule="evenodd" d="M11 22.5C17.0751 22.5 22 17.5751 22 11.5C22 5.42487 17.0751 0.5 11 0.5C4.92487 0.5 0 5.42487 0 11.5C0 17.5751 4.92487 22.5 11 22.5ZM11.0002 18.2605C11.7596 18.2605 12.3752 17.6449 12.3752 16.8855C12.3752 16.1261 11.7596 15.5105 11.0002 15.5105C10.2408 15.5105 9.6252 16.1261 9.6252 16.8855C9.6252 17.6449 10.2408 18.2605 11.0002 18.2605ZM9.0899 9.42801C9.0899 8.3697 9.94859 7.51827 10.9996 7.51827C12.0476 7.51827 12.9093 8.38001 12.9093 9.42801C12.9093 9.91336 12.7018 10.0866 11.8839 10.6516C11.5215 10.902 11.0246 11.2498 10.6376 11.7599C10.2233 12.306 9.96838 12.9869 9.96838 13.8528H12.0309C12.0309 13.4287 12.1436 13.1873 12.2807 13.0065C12.4452 12.7897 12.6834 12.6061 13.0563 12.3485C13.0955 12.3215 13.1368 12.2933 13.18 12.264C13.8559 11.8042 14.9718 11.0452 14.9718 9.42801C14.9718 7.24094 13.1867 5.45577 10.9996 5.45577C8.8156 5.45577 7.0274 7.22452 7.0274 9.42801H9.0899Z" fill="currentColor"/>
</svg>
