<?xml version="1.0" encoding="utf-8"?>
<!-- Generator: Adobe Illustrator 21.0.0, SVG Export Plug-In . SVG Version: 6.00 Build 0)  -->
<svg version="1.1" id="Layer_1" xmlns="http://www.w3.org/2000/svg" xmlns:xlink="http://www.w3.org/1999/xlink" x="0px" y="0px"
	 viewBox="0 0 400 400" style="enable-background:new 0 0 400 400;" xml:space="preserve">
<style type="text/css">
	.st0{fill:#7DC8A2;}
	.st1{fill:#AFDBC5;}
	.st2{fill:#764D80;}
</style>
<g>
	<path class="st0" d="M212.8,38.8h-91.2c-0.2,0-0.4,0-0.6,0c-25.3,0-45.9,20.5-45.9,45.9v229.5c0,25.3,20.5,45.9,45.9,45.9
		s45.9-20.5,45.9-45.9v-45.9h45.9c63.2,0,114.7-51.5,114.7-114.7S276,38.8,212.8,38.8z"/>
	<path class="st1" d="M121,348.6c-19,0-34.4-15.5-34.4-34.4V84.7c0-18.9,15.3-34.3,34.2-34.4c0.2,0,0.5,0,0.7,0h91.3
		c56.9,0,103.3,46.3,103.3,103.3s-46.3,103.3-103.3,103.3h-57.3v57.4C155.4,333.2,140,348.6,121,348.6z"/>
	<path class="st0" d="M121,337.2c-12.7,0-23-10.3-23-23V84.7c0-12.5,10.1-22.7,22.5-23c0.2,0,0.5,0,0.7,0l91.5,0
		c50.6,0,91.8,41.2,91.8,91.8s-41.2,91.8-91.8,91.8H144v68.8C144,326.9,133.7,337.2,121,337.2z"/>
	<path class="st1" d="M121,325.7c-6.4,0-11.6-5.2-11.6-11.6V84.7c0-6.2,5-11.3,11.1-11.5l0.5,0l91.8,0c44.3,0,80.4,36.1,80.4,80.4
		s-36,80.4-80.4,80.4h-80.2v80.3C132.6,320.5,127.4,325.7,121,325.7z"/>
	<path class="st0" d="M121.1,222.4h91.7c38,0,68.9-30.9,68.9-68.9s-30.9-68.9-68.9-68.9H121L121.1,222.4z"/>
	<path class="st1" d="M132.5,211l-0.1-114.9h80.3c31.7,0,57.5,25.8,57.5,57.5S244.5,211,212.8,211H132.5z"/>
	<path class="st0" d="M144,199.6l-0.1-92h68.9c25.4,0,46,20.6,46,46s-20.6,46-46,46H144z"/>
	<path class="st1" d="M155.4,188.1l-0.1-69.1h57.4c19.1,0,34.6,15.5,34.6,34.6s-15.5,34.6-34.6,34.6H155.4z"/>
	<path class="st0" d="M166.9,176.7l0-46.3h45.9c12.8,0,23.1,10.4,23.1,23.1s-10.4,23.1-23.1,23.1H166.9z"/>
	<path class="st1" d="M178.3,165.2l0-23.4h34.5c6.4,0,11.7,5.2,11.7,11.7s-5.2,11.7-11.7,11.7H178.3z"/>
	<g>
		
			<ellipse transform="matrix(0.8192 -0.5736 0.5736 0.8192 -26.9642 83.8822)" class="st2" cx="119.5" cy="84.7" rx="45.9" ry="45.9"/>
		<path class="st2" d="M317.7,287.8c14.5,20.8,9.5,49.4-11.3,63.9c-20.8,14.5-49.4,9.5-63.9-11.3l-68.7-98.2
			c-14.5-20.8-9.5-49.4,11.3-63.9c20.8-14.5,49.4-9.5,63.9,11.3L317.7,287.8z"/>
	</g>
</g>
</svg>
