<svg width="16" height="16" viewBox="0 0 16 16" fill="none" xmlns="http://www.w3.org/2000/svg">
<path d="M4.00016 6C4.36683 6 4.66683 5.7 4.66683 5.33333V4.28667L7.4935 7.11333C7.7535 7.37333 8.1735 7.37333 8.4335 7.11333L12.2068 3.34C12.4668 3.08 12.4668 2.66 12.2068 2.4C11.9468 2.14 11.5268 2.14 11.2668 2.4L7.96683 5.7L5.60016 3.33333H6.66683C7.0335 3.33333 7.3335 3.03333 7.3335 2.66667C7.3335 2.3 7.0335 2 6.66683 2H4.00016C3.6335 2 3.3335 2.3 3.3335 2.66667V5.33333C3.3335 5.7 3.6335 6 4.00016 6Z" fill="#8D97A5"/>
<path d="M8.00557 8.67107C6.88076 8.62784 4.56757 8.91974 4.0052 9.06763C3.97195 9.07638 3.93363 9.08616 3.89078 9.0971C3.02734 9.31746 0.321813 10.008 0.0294949 12.1958C-0.196977 13.8909 0.937169 14.4039 1.50412 14.3258C1.89653 14.2766 3.02006 14.0989 4.05816 13.9127C5.07753 13.7298 5.07701 13.0573 5.07666 12.6026C5.07665 12.5943 5.07664 12.586 5.07664 12.5778L5.07665 11.6636C5.07665 11.4308 5.29543 11.2962 5.5972 11.2598C6.66548 11.1147 7.5573 11.1143 8.00369 11.1143L8.00745 11.1143C8.45377 11.1143 9.33453 11.1147 10.4028 11.2598C10.7046 11.2962 10.9234 11.4308 10.9234 11.6636L10.9234 12.5778C10.9234 12.586 10.9233 12.5943 10.9233 12.6026C10.923 13.0573 10.9225 13.7298 11.9418 13.9127C12.9799 14.099 14.1035 14.2766 14.4959 14.3258C15.0628 14.4039 16.197 13.8909 15.9705 12.1958C15.6782 10.008 12.9727 9.31747 12.1092 9.0971C12.0664 9.08617 12.0281 9.07639 11.9948 9.06764C11.4324 8.91975 9.13037 8.62783 8.00557 8.67107Z" fill="#8D97A5"/>
</svg>
