<svg width="24" height="24" viewBox="0 0 24 24" fill="none" xmlns="http://www.w3.org/2000/svg">
<mask id="path-1-inside-1" fill="white">
<path fill-rule="evenodd" clip-rule="evenodd" d="M18.1502 21.1214C16.3946 22.3074 14.2782 23 12 23C9.52367 23 7.23845 22.1817 5.4 20.8008C2.72821 18.794 1 15.5988 1 12C1 5.92487 5.92487 1 12 1C18.0751 1 23 5.92487 23 12C23 15.797 21.0762 19.1446 18.1502 21.1214ZM12 12.55C13.8225 12.55 15.3 10.9494 15.3 8.975C15.3 7.00058 13.8225 5.4 12 5.4C10.1775 5.4 8.7 7.00058 8.7 8.975C8.7 10.9494 10.1775 12.55 12 12.55ZM12 20.8C14.3782 20.8 16.536 19.8566 18.1197 18.3237C17.1403 15.9056 14.7693 14.2 12 14.2C9.23066 14.2 6.85969 15.9056 5.88028 18.3237C7.46399 19.8566 9.62183 20.8 12 20.8Z"/>
</mask>
<path fill-rule="evenodd" clip-rule="evenodd" d="M18.1502 21.1214C16.3946 22.3074 14.2782 23 12 23C9.52367 23 7.23845 22.1817 5.4 20.8008C2.72821 18.794 1 15.5988 1 12C1 5.92487 5.92487 1 12 1C18.0751 1 23 5.92487 23 12C23 15.797 21.0762 19.1446 18.1502 21.1214ZM12 12.55C13.8225 12.55 15.3 10.9494 15.3 8.975C15.3 7.00058 13.8225 5.4 12 5.4C10.1775 5.4 8.7 7.00058 8.7 8.975C8.7 10.9494 10.1775 12.55 12 12.55ZM12 20.8C14.3782 20.8 16.536 19.8566 18.1197 18.3237C17.1403 15.9056 14.7693 14.2 12 14.2C9.23066 14.2 6.85969 15.9056 5.88028 18.3237C7.46399 19.8566 9.62183 20.8 12 20.8Z" fill="#8D97A5"/>
<path d="M18.1502 21.1214L18.9339 22.2814L18.1502 21.1214ZM5.4 20.8008L4.55919 21.9202H4.55919L5.4 20.8008ZM18.1197 18.3237L19.0934 19.3296L19.7717 18.6731L19.4173 17.7981L18.1197 18.3237ZM5.88028 18.3237L4.58268 17.7981L4.22829 18.6731L4.90659 19.3296L5.88028 18.3237ZM12 24.4C14.5662 24.4 16.9541 23.619 18.9339 22.2814L17.3665 19.9613C15.835 20.9959 13.9902 21.6 12 21.6V24.4ZM4.55919 21.9202C6.63176 23.477 9.21011 24.4 12 24.4V21.6C9.83723 21.6 7.84514 20.8865 6.24081 19.6814L4.55919 21.9202ZM-0.399998 12C-0.399998 16.0577 1.55052 19.6603 4.55919 21.9202L6.24081 19.6814C3.90591 17.9276 2.4 15.1399 2.4 12H-0.399998ZM12 -0.399998C5.15167 -0.399998 -0.399998 5.15167 -0.399998 12H2.4C2.4 6.69807 6.69807 2.4 12 2.4V-0.399998ZM24.4 12C24.4 5.15167 18.8483 -0.399998 12 -0.399998V2.4C17.3019 2.4 21.6 6.69807 21.6 12H24.4ZM18.9339 22.2814C22.2288 20.0554 24.4 16.2815 24.4 12H21.6C21.6 15.3124 19.9236 18.2337 17.3665 19.9613L18.9339 22.2814ZM13.9 8.975C13.9 10.2838 12.9459 11.15 12 11.15V13.95C14.6991 13.95 16.7 11.615 16.7 8.975H13.9ZM12 6.8C12.9459 6.8 13.9 7.66616 13.9 8.975H16.7C16.7 6.335 14.6991 4 12 4V6.8ZM10.1 8.975C10.1 7.66616 11.0541 6.8 12 6.8V4C9.30086 4 7.3 6.335 7.3 8.975H10.1ZM12 11.15C11.0541 11.15 10.1 10.2838 10.1 8.975H7.3C7.3 11.615 9.30086 13.95 12 13.95V11.15ZM17.146 17.3178C15.8129 18.6081 14.0004 19.4 12 19.4V22.2C14.756 22.2 17.2591 21.1051 19.0934 19.3296L17.146 17.3178ZM12 15.6C14.1797 15.6 16.0494 16.9415 16.8221 18.8493L19.4173 17.7981C18.2312 14.8697 15.359 12.8 12 12.8V15.6ZM7.17788 18.8493C7.95058 16.9415 9.8203 15.6 12 15.6V12.8C8.64102 12.8 5.7688 14.8697 4.58268 17.7981L7.17788 18.8493ZM12 19.4C9.99963 19.4 8.18709 18.6081 6.85397 17.3178L4.90659 19.3296C6.74088 21.1051 9.24402 22.2 12 22.2V19.4Z" fill="#8D97A5" mask="url(#path-1-inside-1)"/>
</svg>
