<?xml version="1.0" standalone="no"?>
<!DOCTYPE svg PUBLIC "-//W3C//DTD SVG 20010904//EN"
 "http://www.w3.org/TR/2001/REC-SVG-20010904/DTD/svg10.dtd">
<svg version="1.0" xmlns="http://www.w3.org/2000/svg"
 width="512.000000pt" height="512.000000pt" viewBox="0 0 512.000000 512.000000"
 preserveAspectRatio="xMidYMid meet">
<metadata>
Created by potrace 1.11, written by Peter Selinger 2001-2013
</metadata>
<g transform="translate(0.000000,512.000000) scale(0.100000,-0.100000)"
fill="#000000" stroke="none">
<path d="M2039 5096 c-2 -2 -33 -6 -69 -9 -36 -4 -87 -9 -115 -13 -61 -7 -274
-52 -286 -60 -5 -3 -55 -96 -111 -207 l-101 -202 -96 -46 c-118 -58 -242 -145
-336 -238 l-71 -70 -139 -26 c-77 -15 -169 -32 -204 -38 l-65 -12 -48 -70
c-43 -62 -158 -281 -158 -300 0 -4 -6 -21 -14 -38 -46 -105 -117 -371 -131
-491 -4 -28 -8 -53 -10 -56 -2 -4 -7 -47 -11 -96 -3 -49 -8 -92 -10 -95 -3 -5
149 -154 302 -296 19 -18 28 -42 39 -105 20 -114 77 -291 137 -426 39 -88 49
-119 44 -145 -3 -17 -8 -50 -11 -72 -4 -22 -8 -47 -10 -55 -3 -8 -7 -33 -10
-55 -3 -22 -7 -51 -10 -65 -4 -23 -16 -99 -17 -110 -1 -20 9 -37 60 -102 144
-181 346 -343 584 -467 119 -62 283 -132 325 -138 34 -5 44 0 312 146 51 28
97 49 101 46 12 -7 168 -19 260 -19 91 0 242 10 300 20 31 5 64 -8 244 -95
l208 -101 107 45 c117 50 307 159 416 240 187 139 445 394 447 442 1 21 -12
152 -17 173 -2 8 -7 42 -10 75 -3 33 -10 87 -14 120 -8 56 -6 64 24 125 66
131 107 273 134 456 l9 60 157 157 157 156 -6 62 c-4 35 -9 79 -12 98 -3 20
-10 65 -15 101 -42 285 -160 618 -286 809 -49 74 -52 76 -120 86 -23 3 -124
21 -223 39 l-181 33 -50 56 c-84 94 -216 192 -355 264 -66 34 -74 42 -103 98
-17 33 -64 123 -105 199 -73 137 -75 140 -118 153 -24 7 -54 15 -68 17 -14 3
-50 9 -80 15 -30 5 -71 13 -90 16 -38 7 -474 17 -481 11z m1000 -648 c122 -66
220 -138 298 -216 40 -40 73 -76 73 -80 0 -4 -30 -22 -66 -40 l-66 -33 -27 28
c-52 54 -117 105 -221 174 -58 39 -105 76 -104 82 3 55 18 127 26 127 6 0 45
-19 87 -42z m-1598 25 c0 -5 2 -17 5 -28 2 -11 6 -41 10 -66 l6 -46 -114 -75
c-111 -75 -127 -87 -199 -155 l-35 -33 -76 32 -77 31 22 26 c67 81 227 203
361 276 83 46 95 51 97 38z m1328 -134 c-3 -67 1 -65 -87 -28 -47 20 -47 20 0
81 29 37 30 38 59 22 29 -14 30 -18 28 -75z m-1047 29 l37 -51 -66 -33 c-36
-19 -68 -33 -70 -31 -3 4 -6 83 -4 123 1 19 31 42 56 43 6 0 27 -23 47 -51z
m1351 -311 l52 -49 -129 -63 c-72 -35 -133 -62 -137 -59 -4 2 -3 21 1 41 5 21
11 63 15 93 4 30 11 77 16 104 5 27 9 50 9 52 0 11 128 -78 173 -119z m-1559
-26 c15 -73 25 -135 23 -137 -5 -5 -26 3 -157 59 -30 13 -67 27 -82 31 -16 3
-28 10 -28 15 0 19 206 180 215 169 2 -2 15 -63 29 -137z m1091 107 c33 -11
81 -31 106 -44 l45 -25 -3 -71 c-1 -39 -5 -73 -7 -75 -2 -3 -24 7 -49 20 -42
24 -203 81 -260 92 l-27 5 52 66 c36 45 57 63 68 59 8 -4 42 -15 75 -27z
m-665 -40 l51 -61 -93 -28 c-51 -15 -126 -41 -167 -58 -77 -32 -96 -37 -87
-22 3 5 2 37 -2 71 l-9 62 36 22 c38 25 175 75 203 76 9 0 39 -28 68 -62z
m1463 -161 l28 -22 -36 -53 -36 -53 -50 52 c-27 29 -48 53 -47 54 6 3 103 43
108 44 3 1 17 -9 33 -22z m-2325 -8 c34 -11 62 -22 62 -24 0 -1 -20 -32 -44
-69 l-45 -66 -45 59 -45 58 22 31 c12 18 25 32 28 32 3 0 33 -9 67 -21z m1344
-15 c270 -97 490 -269 606 -473 l31 -55 -45 -62 c-24 -35 -47 -69 -50 -77 -4
-10 16 -20 76 -37 44 -13 82 -26 85 -29 2 -4 6 -27 10 -51 36 -241 -34 -505
-186 -702 -38 -48 -115 -128 -124 -128 -2 0 -40 13 -84 30 l-81 29 -1 -42 c0
-23 -1 -67 -2 -97 l-2 -54 -58 -28 c-101 -49 -191 -69 -322 -73 -166 -5 -287
16 -456 81 l-67 25 -1 86 c-1 48 -3 88 -4 90 -2 1 -43 -9 -91 -23 l-88 -26
-34 33 c-104 101 -201 294 -235 469 -20 104 -32 309 -20 328 3 5 44 22 91 37
47 15 88 30 93 32 7 4 -21 47 -91 141 l-32 44 22 37 c148 243 404 434 667 495
l61 14 57 -73 c32 -41 60 -74 63 -74 3 0 30 35 60 79 30 44 60 80 67 80 6 0
45 -12 85 -26z m-1041 -100 c35 -14 67 -29 71 -32 3 -4 -16 -32 -43 -62 -28
-30 -76 -92 -106 -137 l-56 -83 -44 66 -44 65 53 72 c29 40 58 78 65 85 7 8
18 22 23 33 6 10 12 19 14 19 1 0 31 -12 67 -26z m1755 -36 c98 -122 100 -126
80 -162 -9 -17 -30 -46 -45 -65 l-28 -34 -29 49 c-15 27 -31 51 -34 54 -3 3
-17 21 -32 40 -14 19 -47 56 -72 81 l-45 47 67 25 c37 14 72 26 78 26 6 1 33
-27 60 -61z m219 -695 c38 -15 72 -28 75 -30 8 -7 7 -187 -2 -220 -8 -32 -14
-35 -93 -49 -16 -2 -38 -7 -48 -10 -17 -6 -18 -1 -11 58 8 72 8 220 0 255 -8
29 -7 29 79 -4z m-2240 -119 c2 -55 10 -124 19 -154 8 -30 13 -57 11 -58 -2
-2 -37 4 -79 14 l-74 17 -11 81 c-6 45 -12 97 -14 117 l-4 36 71 25 c39 14 72
25 74 23 1 -1 4 -47 7 -101z m2581 -6 c45 -17 50 -23 46 -44 -3 -20 -15 -27
-61 -40 -31 -8 -62 -17 -68 -19 -8 -3 -11 3 -9 18 3 12 5 44 5 71 1 42 3 47
19 41 9 -4 40 -16 68 -27z m-2892 -25 c2 -11 6 -37 7 -59 l4 -39 -40 4 c-58 5
-85 18 -85 41 0 11 0 23 -1 28 -1 6 103 51 109 47 1 -1 4 -11 6 -22z m3065
-240 c-4 -26 -10 -66 -14 -88 -3 -22 -8 -48 -11 -57 -3 -10 -8 -30 -10 -45
-10 -57 -66 -212 -95 -261 l-29 -50 -59 61 -59 61 17 30 c43 77 107 276 113
350 2 21 9 27 38 32 19 3 51 10 70 14 19 4 38 5 41 4 3 -2 3 -25 -2 -51z
m-3213 11 c30 -5 32 -9 63 -122 17 -64 47 -155 65 -200 l34 -84 -52 -49 c-28
-27 -54 -49 -57 -49 -9 0 -72 133 -102 215 -28 75 -77 258 -77 289 0 19 14 19
126 0z m2909 -56 c-10 -63 -43 -156 -70 -196 l-24 -35 -107 107 c-59 59 -105
108 -103 110 2 2 36 9 74 15 100 16 135 22 180 31 22 4 44 8 48 9 4 1 5 -18 2
-41z m-2659 17 c41 -8 191 -35 217 -39 12 -1 21 -6 20 -10 -5 -15 -195 -191
-206 -191 -18 0 -65 127 -73 197 -4 38 -3 59 3 55 5 -3 23 -9 39 -12z m367
-247 c21 -35 56 -88 78 -117 22 -29 39 -55 37 -57 -5 -4 -132 -44 -133 -41 -1
1 -15 20 -32 42 -45 59 -104 177 -95 189 5 6 26 33 47 60 l39 48 11 -29 c5
-17 27 -59 48 -95z m1993 -26 c-43 -91 -66 -131 -91 -158 -24 -26 -27 -26 -64
-15 -22 6 -56 18 -76 27 l-37 15 42 42 c48 48 138 180 147 216 6 24 8 23 54
-28 l47 -52 -22 -47z m208 -159 c25 -27 46 -52 46 -58 0 -5 -11 -23 -24 -39
l-23 -30 -62 19 c-63 19 -70 25 -48 43 7 6 24 34 37 62 13 27 25 50 26 50 1 0
23 -21 48 -47z m-2444 -17 c0 -4 11 -22 25 -38 26 -31 25 -48 -3 -48 -9 -1
-35 -7 -57 -15 -38 -14 -41 -13 -57 8 -24 31 -23 36 20 94 l37 52 17 -22 c10
-12 18 -26 18 -31z m1620 -284 l0 -78 -36 -18 c-20 -9 -73 -26 -118 -36 l-81
-20 -20 27 c-11 15 -32 47 -47 70 l-28 43 23 1 c42 1 82 10 152 31 39 12 75
22 81 24 6 1 24 9 40 17 16 9 30 16 32 17 1 0 2 -35 2 -78z m-750 28 c58 -16
125 -30 150 -33 25 -3 46 -6 47 -6 1 -1 -17 -33 -40 -72 l-42 -70 -58 6 c-61
6 -163 39 -185 60 -8 7 -13 35 -13 66 -1 91 -1 92 19 84 9 -4 64 -20 122 -35z
m376 -203 c31 -61 61 -118 66 -124 7 -9 6 -14 -3 -17 -85 -29 -222 -27 -253 4
-10 10 113 262 126 254 4 -2 32 -55 64 -117z m-463 -102 c20 -8 50 -15 67 -15
35 0 36 -4 12 -50 -38 -75 -45 -80 -84 -68 -34 10 -36 14 -40 57 -3 45 0 91 6
91 2 0 20 -7 39 -15z m835 -50 c-3 -65 -3 -65 -37 -75 -28 -8 -37 -6 -47 8
-21 28 -48 81 -44 84 4 3 117 44 128 47 2 1 2 -28 0 -64z m-385 -151 l169 2
31 -60 c18 -34 33 -64 35 -68 7 -14 -116 -30 -255 -33 -98 -2 -259 14 -299 29
-11 4 -9 15 9 53 45 94 41 91 94 82 26 -4 124 -7 216 -5z"/>
<path d="M2132 3472 c-15 -2 -36 -23 -60 -60 -36 -57 -36 -57 -37 -169 l0
-113 -35 -35 -36 -35 -69 25 c-87 31 -97 32 -222 9 l-103 -18 0 -88 c0 -63 4
-88 13 -89 16 -1 27 -3 133 -33 l90 -26 67 19 c36 11 71 22 76 25 5 4 27 -12
48 -35 l38 -41 1 -106 c0 -103 1 -109 34 -162 18 -30 35 -57 36 -59 2 -1 42
-4 90 -5 l87 -1 40 59 40 59 -1 101 c0 93 2 104 26 139 14 21 32 41 39 46 8 4
46 -1 86 -10 77 -20 68 -21 270 32 l38 10 -3 82 -3 82 -109 24 -109 24 -88
-31 -88 -31 -31 39 -31 39 3 110 4 110 -41 57 -41 56 -64 1 c-36 1 -75 1 -88
-1z"/>
<path d="M3610 1304 c-43 -19 -68 -41 -88 -79 -13 -26 -15 -94 -14 -524 1
-271 4 -503 8 -515 10 -33 52 -85 82 -100 72 -37 157 -24 213 33 45 45 57 88
58 205 1 48 3 92 6 95 3 7 86 5 90 -2 24 -37 194 -279 209 -295 96 -109 275
-60 307 83 15 70 6 96 -81 219 l-69 99 40 41 c22 23 57 75 77 116 33 68 36 84
39 170 4 168 -45 275 -175 377 -99 78 -132 86 -417 89 -204 2 -256 0 -285 -12z"/>
<path d="M4754 1308 c-10 -15 5 -25 31 -20 37 7 33 -26 -6 -59 -38 -31 -32
-60 7 -34 22 14 26 14 49 -1 35 -23 84 -3 86 35 1 14 2 33 3 41 4 40 -11 48
-89 47 -42 0 -78 -4 -81 -9z m136 -52 c0 -53 -46 -58 -50 -6 -3 35 -3 35 25
38 22 2 25 -2 25 -32z"/>
<path d="M4753 1058 c-12 -20 15 -28 88 -27 60 1 79 4 79 15 0 16 1 15 -93 17
-38 1 -71 -1 -74 -5z"/>
<path d="M4813 913 c-32 -6 -63 -50 -63 -89 0 -43 39 -84 81 -84 94 0 128 124
45 164 -19 9 -36 15 -38 15 -1 -1 -13 -4 -25 -6z m77 -83 c0 -53 -53 -79 -92
-43 -26 23 -22 58 8 82 24 19 28 19 55 5 22 -11 29 -22 29 -44z"/>
<path d="M4897 653 c-4 -3 -7 -16 -7 -28 0 -20 -5 -21 -67 -21 -54 1 -68 -2
-68 -14 0 -12 14 -15 68 -14 63 1 67 -1 67 -22 0 -26 19 -42 29 -26 4 6 6 28
5 49 -1 21 -3 48 -3 61 -1 22 -11 28 -24 15z"/>
<path d="M4810 455 c0 -8 7 -15 15 -15 8 0 15 7 15 15 0 8 -7 15 -15 15 -8 0
-15 -7 -15 -15z"/>
<path d="M4758 369 c-19 -12 -4 -21 39 -21 102 0 125 2 121 14 -5 14 -139 20
-160 7z"/>
<path d="M4757 223 c-17 -16 -3 -23 51 -23 l57 0 -32 -21 c-18 -12 -33 -25
-33 -29 0 -5 15 -20 33 -34 l32 -26 -57 0 c-32 0 -58 -4 -58 -9 0 -14 19 -17
94 -17 84 1 93 14 36 52 -47 31 -48 25 21 75 37 26 15 39 -65 39 -40 0 -76 -3
-79 -7z"/>
</g>
</svg>
