<svg version="1" xmlns="http://www.w3.org/2000/svg" width="1041.333" height="1041.333" viewBox="0 0 781.000000 781.000000"><path d="M298.7 37.6c-.1.1-4.7.5-10.2.8-10.5.8-15.1 1.2-20 2.1-1.6.2-4.8.7-7 1-9.2 1.4-31.8 7-43 10.7-77 25.5-134.6 79.6-160.9 151.1-3.2 8.6-8.6 27.8-10.1 35.4-1.3 7.1-2.5 14.2-3.1 18.3-1 7.3-1.3 47-.4 53.5.5 3.3 1.1 8.4 1.5 11.4.7 5.4 1 7.5 2 12.1.3 1.4.7 3.4.9 4.5 2 10.4 9 32.9 11.2 36.3 1.4 2.2 1.8 2.3 3.1.9 1.3-1.3 1.1-2.6-1.6-11.2-3.3-10.2-7.6-25.9-8.4-31-3.7-22.2-4.1-26.6-4.2-47 0-20.7.4-25.5 4-45.5 4.8-27.3 18.2-59.9 34.9-85 9.6-14.4 16.6-23 29.6-36.1 29.8-30.1 69.7-53.2 113-65.7 11.3-3.3 21.1-5.7 27.5-6.6 2.2-.4 4.7-.8 5.5-1.1.8-.2 3.8-.6 6.5-1 2.8-.3 6.8-.8 9-1.1 8.4-1.1 16.5-1.4 33-1.4 16.6.1 20.3.2 31.5 1.5 14 1.6 12.6 1.4 28 4.2 1.4.2 5.2 1.1 8.5 2 3.3.8 6.7 1.6 7.5 1.8 7.8 1.5 24.2 6.8 38.7 12.6 69.7 27.4 127.1 78.8 158.8 141.9 7.2 14.4 7.1 14.6-2 3-7.9-10-27.8-29.9-39-38.9-30.1-24.3-72.2-44.9-105.5-51.6-.8-.2-4.9-1-9-1.8-7.2-1.5-18.3-3.2-28-4.2-5.9-.6-38.3-.7-43.5-.1-2.2.3-6.5.7-9.5 1.1-6 .6-7.6.8-19.3 3-50.2 9.4-97.8 34.7-135.2 72-13.5 13.5-26.9 29.9-26.1 32 1.1 3 4.2 1.3 9.1-5.2 20.4-27.2 53.9-54.5 87.2-71.2 16.6-8.3 43.3-18 56.3-20.5 1.4-.2 5.9-1.1 10-2 16.1-3.3 26-4.1 49.5-4.1 22.6 0 33 1 52.5 5.1 12.1 2.6 32.8 8.7 41.5 12.4 21.9 9.1 38.8 18.6 56.5 31.3 8.5 6.2 9.7 7.1 19.9 16.1 15.2 13.2 32.5 33.5 44.6 52 6.7 10.3 7.8 11.5 9.5 10.6 2-1.1 1.9-1.6-1.4-11-13.2-36.7-38.4-75.8-66.8-104-11.6-11.5-15.1-14.5-26.5-23.7-40.2-32.1-88.4-54.2-140.3-64.2-9.2-1.7-13.6-2.4-24-3.7-10-1.2-45.3-2.6-46.3-1.8z"/><path d="M536.7 100.3c-.9 2.4.8 3.7 6.4 4.7 3 .6 6.4 1.2 7.6 1.4 6 1.2 22.8 6.2 32.7 9.7 22.2 7.9 50.2 23.6 68.1 38.3 30.3 24.8 55.3 58.5 69.9 94.3 6.8 16.4 10.8 31 15.1 54.3.3 1.8 1.5 11.9 2.1 18 .5 5.9.6 37.9 0 40.5-.2 1.1-.7 5.2-1 9-.4 3.9-.8 8-1 9.2-.3 1.1-.7 3.8-1.1 5.9-1.1 7.3-1.6 9.9-3.5 17.9-6.7 29.1-18.8 58.9-34.3 84.5-4.2 6.9-18.5 28.2-19.6 29-.3.3-3.3 3.9-6.5 8-7.6 9.5-33.8 35.7-43.6 43.5-4.1 3.3-8.1 6.5-8.7 7.2-1.9 1.7-27.2 18.6-32.3 21.5-17.2 9.7-21.4 11.8-36.1 18.1-18.8 8-48.3 16.9-64.3 19.3-2.1.3-4.8.8-6 1-1.1.2-4.5.7-7.5 1-3 .3-6.4.8-7.5 1.1-3.3.8-47.5 1-53.6.3-3-.4-4.6-.8-3.5-.9 1.1-.1 2.9-.4 4-.6 1.1-.2 4-.7 6.5-1 2.5-.3 10.6-2 18-3.7 65.9-14.9 122.7-54.2 160.8-111.3 16.8-25.4 32.8-63.3 37.7-89.5.3-1.4.7-3.6 1-5 .5-2.4 1-5.3 2-11.5.3-1.7.7-5.5 1-8.5.4-3 .8-7.3 1-9.5 1.1-10.1.5-39.7-1-51-.3-2.2-.8-6-1.2-8.5-.3-2.5-.7-5.4-.9-6.5-1-5.2-1.4-7.2-1.8-9.1-1.5-7.6-7.1-26.7-10.6-36.7-4.4-12.3-6.9-16.5-8.8-15.3-1.7 1.1-1.5 3.8.9 9.3 6.3 14.7 14.4 44.5 16.4 60.8.2 1.6.7 5.9 1.2 9.5 1 8.2 1 45.1 0 54.7-.4 4-1.2 9.6-1.7 12.5-.6 2.9-1.3 6.6-1.6 8.3-4.5 26.7-18.4 62-34.4 87.5-15.6 25.1-40.1 51.9-63.5 69.6-38.9 29.4-89.6 48.2-137.5 51-10.7.6-15.4 1-17.2 1.3-1.6.2-.7 4 1 4.5s12.7 2.5 16.7 3.1c7.6 1 14.7 1.8 19 2.1 8.1.4 36.6.4 42-.1 13.6-1.2 18.1-1.8 32-4.1 1.7-.2 7.7-1.6 13.5-3 102.3-24.2 188-99.8 223.9-197.2 6-16.1 13.2-44.5 14.6-57.2.3-3 .8-6.6 1-8 2.3-13.4 2.3-58.1 0-65.3-.2-.6-.6-3.5-.9-6.2-.3-2.8-.8-5.9-1-7-8.3-39.1-19.5-66-39.4-95-10.7-15.6-30-36.9-42.7-47-2.7-2.2-5.9-4.8-7-5.8-4.1-3.8-27.3-18.6-36.5-23.4-20.7-10.7-45.7-19.5-68-23.8-9.2-1.8-9.7-1.8-10.3-.2z"/><path d="M149 247.3c-9.8 10.2-26.6 34.8-36.7 53.7-12.6 23.5-24.7 57.9-28.7 81.3-.3 1.5-1 5.3-1.5 8.5-2.7 14.6-4.4 35.2-4.4 52.7 0 9.7 1.1 30.4 1.8 34.8.2 1.2.6 4.4 1 7.2 1.3 12.5 5.2 30.8 10.1 48.3C116.7 626 185 700.8 270 730.5c8.7 3 27.2 8 33.5 9.1 1.1.1 4.7.7 8 1.3 19.7 3.3 49.8 3.5 71.5.6 15.3-2.1 38.6-8.3 53.5-14.2 31.7-12.5 57.9-29.8 82.6-54.3 18.5-18.4 21.3-22.2 17.4-23.7-1.1-.4-3.4 1.5-7.3 5.8-6.9 7.8-21.8 22.6-26.9 26.7-12.5 10.1-15.9 12.6-24.8 18.5-13.4 8.7-30.3 17.3-45.5 23.1-6.9 2.6-13.2 4.8-14 5-.8.1-4 1-7 1.8-6.2 1.9-19.5 4.7-25.5 5.4-2.2.3-4.6.7-5.3.9-7.3 2.4-49 2.3-64.2-.1-45.5-7.3-84.7-24.7-121.6-53.9-8.9-7-33-30.3-39.4-38-37.8-45.5-62.3-102.5-69.6-162-.3-2.2-.7-5.4-1-7-1-5.2-1.3-53.7-.4-60 .4-3.3 1.1-8.8 1.4-12.1.6-6 4.6-27.3 6.5-34.4 6.3-24 12.7-41.1 23.2-61.9 4.3-8.4 11.2-20.4 15.4-26.7 7.4-11.1 10-14.3 7.1-8.7-6.1 12-14.5 40.1-17.7 59.3-4.1 24.4-4.7 59.4-1.4 81 2.4 15.6 4.4 24.5 8.7 39 14.6 49.2 45.3 95.7 83.8 127 3 2.5 5.7 4.7 6 5 2 2.1 20.8 14.7 31.1 20.8 4.3 2.6 25.6 13.2 26.4 13.2.3 0 2.4.9 4.8 1.9 9.8 4.5 37 12.8 47.7 14.6 1.9.3 6 1 9 1.5 12.8 2.2 14.7 2.2 15.4.4.9-2.4-.5-3.5-5-4-3.3-.4-11.3-1.8-23.4-4.1-10.3-1.9-31.9-9-46.9-15.4-80.1-34.4-137.2-108.1-151.6-195.7-.3-1.7-.7-4.4-.9-6-2.7-16.3-2.7-50.7-.2-68.2.2-1.4.7-4.5 1.1-7 3.5-24.1 15-58.3 26.6-79.7 2.1-3.9 3.9-7.8 3.9-8.6 0-2.9-3-2.6-6 .6z"/><path d="M230.5 281.2c-26.4 2.6-50.4 16.3-65.6 37.3-12.5 17.3-17.9 36.3-17.4 60.3.6 25 8.2 44.9 23.5 61.4 14.3 15.6 31.5 25 53.5 29.3 5.5 1.1 24.9 1.3 32 .3 21.3-2.8 40.5-12 54.2-25.9l5.8-5.8 6.6 7.2c15 16.2 37.8 24.9 65.9 25.1 21.6.2 35.1-2.4 49.5-9.4 7.8-3.8 20.5-13.1 20.5-15 0-1.8 2.2-1 4.4 1.4 3.3 3.7 11.4 9.5 18 12.8 5.8 3 19.6 8.1 19.6 7.3 0-.2 1.5.1 3.3.6 9.5 2.9 36.7 3.1 49.7.5 18.8-3.9 29.9-9.4 41.1-20.5 10.7-10.6 14.7-20.2 14.7-34.7 0-23.3-13.6-38.6-42.9-48.3-5.8-2-11.1-3.7-11.6-3.8-.6-.1-5.7-1.2-11.4-2.3-5.7-1.2-11.5-2.4-12.9-2.6-10.7-2-24.8-7.5-28.8-11.4-6.6-6.3-5.4-17.3 2.4-23.9 9.8-8.1 32.5-8.9 45.1-1.6 5.1 3.1 10 9.3 10.9 14.1l.6 3.4h21.3c16.1 0 21.4-.3 21.7-1.2.6-1.8-1.7-12.5-3.7-17.3-8-18.8-29.1-32.7-56-36.7-34.1-5.1-67.2 5.2-82.9 25.8l-3.4 4.4-1.8-2.8c-7.7-11.9-26-22.9-43.9-26.3-2.7-.5-6.3-1.2-8-1.5-6.3-1.2-29.1-.5-37 1.1-21.6 4.4-38.1 14.4-47 28.4l-2.8 4.5-4.3-5.1c-5.7-6.6-17-15.2-25.9-19.6-16.2-8.1-36.3-11.5-57-9.5zm175 35.8c7.4 2.8 14.5 9.6 16.3 15.8l1.3 4.2h14.4c10.9 0 14.5.3 14.5 1.2.5 16.8 11.2 31.4 30 41.2 9.2 4.7 16.8 7.2 38.5 12.2 10.5 2.4 19.8 4.6 20.8 4.9 4.1 1 13.4 5.8 16 8.2 4.7 4.6 5.5 11.9 2 18.7-1.8 3.5-4.5 6-9.3 8.5-3.1 1.6-4.9 2.2-12 3.8-.8.2-4.4.3-8 .3-19 .1-32.4-7.6-35.9-20.6l-1.1-4.1-10.1.1c-5.5 0-10.4-.1-10.8-.4-.5-.3-1.1-2.8-1.4-5.5-.4-2.8-2.3-8.2-4.2-12.1-7.6-15.5-25.3-26.5-52.5-32.4-36.6-8-44.9-10.6-50.1-15.6-5.4-5.1-6.1-14.5-1.7-20.7 6.8-9.5 28-13.3 43.3-7.7zM257 319c16.3 5 29.8 17.8 34.4 32.7l.7 2.3h-48c-33.9 0-48.1-.3-48.1-1.1 0-.6 1.5-4.1 3.3-7.7 6.2-12.9 20.8-24.5 33.7-27.1 6.8-1.4 17.8-1 24 .9zm89.3 61.8c8.6 4 19.2 7.2 37.6 11.2 16.6 3.7 27.1 7.1 31.7 10.2 10 6.9 9.3 20.8-1.3 28.1-10.6 7.3-32.8 7.6-46.1.8-5.6-2.9-10.2-8.3-12.3-14.3l-1.8-5.3h-35.5l-35.5-.1-3.1 4.8c-9.2 14.1-29.4 21.1-48.5 16.8-17.6-4-32.7-18.9-36.7-36-.8-3.7-.9-5.3-.1-5.8.6-.4 32.7-.7 71.2-.6l70.1.1.6-2.1c.2-1.2.7-4.1.9-6.6.5-5.6.4-5.2 1.3-4.8.4.2 3.8 1.8 7.5 3.6z"/></svg>