<?xml version="1.0" standalone="no"?>
<!DOCTYPE svg PUBLIC "-//W3C//DTD SVG 20010904//EN"
 "http://www.w3.org/TR/2001/REC-SVG-20010904/DTD/svg10.dtd">
<svg version="1.0" xmlns="http://www.w3.org/2000/svg"
 width="440.000000pt" height="440.000000pt" viewBox="0 0 440.000000 440.000000"
 preserveAspectRatio="xMidYMid meet">
<metadata>
Created by potrace 1.14, written by Peter Selinger 2001-2017
</metadata>
<g transform="translate(0.000000,440.000000) scale(0.100000,-0.100000)"
fill="#000000" stroke="none">
<path d="M1678 4124 c-2 -1 -30 -5 -63 -8 -290 -30 -581 -149 -795 -324 -389
-319 -555 -798 -456 -1316 13 -72 59 -196 72 -196 18 0 18 2 -11 89 -14 41
-29 100 -35 130 -5 31 -12 70 -15 86 -13 62 -12 292 1 374 80 500 419 889 919
1056 164 55 282 75 465 80 612 15 1200 -314 1499 -837 28 -49 51 -94 51 -99 0
-6 -22 16 -49 48 -119 144 -299 283 -474 366 -95 46 -260 103 -325 113 -20 3
-44 7 -52 9 -36 10 -122 17 -221 20 -374 8 -724 -128 -1008 -391 -86 -79 -176
-193 -164 -205 7 -7 24 7 53 43 69 85 191 199 286 267 132 93 351 194 474 217
14 3 41 9 60 14 132 34 384 33 572 -3 67 -13 211 -63 295 -102 238 -111 441
-287 582 -503 106 -161 58 27 -57 225 -260 449 -726 759 -1252 833 -72 11
-345 21 -352 14z"/>
<path d="M3025 3780 c-3 -5 11 -14 32 -19 268 -71 355 -107 506 -207 447 -298
657 -847 536 -1399 -108 -488 -439 -906 -904 -1138 -131 -65 -311 -126 -420
-142 -22 -3 -45 -8 -52 -10 -42 -14 -395 -24 -382 -11 2 2 22 7 44 10 105 16
243 56 349 101 422 182 747 580 835 1025 6 30 14 66 17 80 3 14 7 97 9 185 3
190 -16 322 -72 485 -38 111 -45 126 -61 116 -6 -4 1 -36 19 -83 26 -71 58
-187 74 -273 11 -55 14 -350 5 -400 -5 -25 -10 -58 -13 -75 -20 -118 -57 -228
-127 -370 -147 -298 -400 -536 -710 -667 -90 -39 -242 -82 -325 -94 -27 -3
-59 -8 -70 -10 -11 -2 -48 -4 -83 -5 -78 -2 -101 -23 -36 -35 15 -3 31 -7 34
-9 9 -5 180 -18 245 -18 509 -2 1012 249 1340 668 371 474 452 1100 208 1590
-91 183 -262 381 -423 491 -141 97 -324 176 -482 209 -82 18 -85 18 -93 5z"/>
<path d="M879 2942 c-66 -82 -119 -158 -119 -170 0 -6 -4 -12 -9 -14 -16 -6
-110 -213 -145 -320 -54 -162 -79 -316 -80 -493 -1 -136 8 -285 19 -317 2 -7
6 -29 9 -48 17 -115 92 -333 159 -465 125 -246 340 -484 567 -628 151 -95 336
-167 493 -192 17 -3 56 -9 86 -14 68 -11 266 -6 352 8 220 36 440 135 615 275
103 82 218 206 205 219 -6 6 -42 -24 -98 -81 -251 -255 -555 -389 -903 -396
-503 -12 -980 276 -1257 759 -78 135 -166 376 -189 515 -2 14 -6 35 -9 46 -19
85 -26 350 -13 474 20 183 76 376 161 545 38 77 115 205 123 205 2 0 -6 -24
-17 -52 -28 -68 -67 -210 -75 -268 -3 -25 -8 -54 -11 -65 -12 -52 -10 -288 3
-380 13 -92 57 -269 75 -305 4 -8 20 -44 36 -80 65 -152 166 -300 290 -425
196 -198 433 -330 702 -391 114 -26 171 -30 171 -14 0 13 0 13 -120 35 -266
48 -530 187 -722 380 -220 220 -356 492 -403 805 -13 90 -15 356 -2 376 3 5 8
33 12 63 11 86 62 246 115 357 43 93 49 114 31 114 -3 0 -27 -26 -52 -58z"/>
<path d="M1285 2786 c-192 -49 -344 -212 -374 -403 -30 -191 22 -360 148 -480
192 -185 535 -186 726 -2 l41 39 34 -37 c107 -113 310 -165 503 -129 74 14
178 62 219 101 l28 26 52 -40 c86 -64 174 -91 311 -96 265 -9 457 123 457 313
0 146 -142 261 -365 296 -64 11 -157 36 -190 53 -40 21 -54 42 -55 80 0 67 76
113 178 107 74 -5 122 -31 150 -82 l23 -42 115 0 114 0 -6 38 c-15 96 -76 172
-179 222 -139 69 -344 67 -482 -4 -50 -25 -123 -89 -123 -108 0 -6 -20 10 -45
35 -78 81 -187 123 -326 126 -157 4 -284 -42 -365 -132 l-44 -49 -45 45 c-54
53 -138 100 -216 120 -70 18 -219 20 -284 3z m1031 -186 c37 -12 69 -44 83
-82 10 -27 12 -28 91 -28 l80 0 0 -27 c1 -74 77 -164 176 -210 29 -13 118 -40
197 -59 166 -41 202 -59 215 -106 20 -70 -46 -128 -149 -133 -107 -6 -187 33
-209 100 -11 32 -15 35 -48 34 -73 -3 -82 0 -82 24 -1 36 -37 105 -75 141 -62
59 -149 92 -340 131 -153 31 -207 72 -189 142 20 78 134 111 250 73z m-771
-26 c60 -28 145 -125 145 -166 0 -4 -117 -8 -261 -8 l-260 0 7 23 c13 41 55
95 107 136 55 44 186 51 262 15z m468 -331 c15 -7 84 -27 155 -44 199 -48 248
-78 236 -144 -8 -48 -50 -83 -112 -96 -109 -22 -206 12 -241 84 l-21 44 -195
0 -196 1 -14 -27 c-17 -34 -78 -76 -127 -89 -54 -15 -140 -6 -193 19 -75 35
-145 130 -145 197 0 9 85 12 390 12 l390 0 0 36 c0 32 2 35 23 28 12 -3 34
-13 50 -21z"/>
</g>
</svg>
