<svg width="22" height="22" viewBox="0 0 22 22" fill="none" xmlns="http://www.w3.org/2000/svg">
  <path fill-rule="evenodd" clip-rule="evenodd" fill="#000000" d="m 13.693359,4.8320312 c -0.831702,0.014848 -1.62869,0.3142589 -2.236328,0.921875 -1.205391,1.2054645 -1.19044,3.1514722 -0.164062,4.6464848 l -2.9101565,2.96875 -0.2617187,-0.269532 -0.00195,-0.002 C 8.0071963,12.985739 7.8869254,12.852667 7.6484375,12.767578 7.4099496,12.68249 7.0329991,12.769696 6.8398438,12.962891 L 5.8964844,13.90625 c -0.3865104,0.386392 -0.3518945,1.031029 0.015625,1.398438 l 0.2890625,0.289062 -0.1640625,0.167969 c -0.1940263,0.194049 -0.3312306,0.444035 -0.3574219,0.730469 -0.026191,0.286433 0.082836,0.602331 0.3027344,0.822265 0.2199669,0.219905 0.5630302,0.325807 0.84375,0.273438 0.2807198,-0.05237 0.4907236,-0.203587 0.6621093,-0.375 L 13.003906,11.896484 C 14.40572,12.59862 16.0549,12.487976 17.123047,11.419922 18.511821,10.031028 18.283868,7.6569034 16.751953,6.125 15.986,5.3590578 15.009306,4.9188574 14.050781,4.84375 c -0.119815,-0.00939 -0.238607,-0.01384 -0.357422,-0.011719 z m 0.111329,1.7011719 c 0.064,9.655e-4 0.128025,0.00455 0.193359,0.011719 0.522674,0.05732 1.080601,0.3130273 1.550781,0.7832031 0.940357,0.9403487 1.026123,2.2336423 0.371094,2.888672 C 15.26488,10.871761 13.971607,10.786061 13.03125,9.8457031 12.090894,8.905364 12.005137,7.6120286 12.660156,6.9570312 12.946738,6.670459 13.356711,6.5264448 13.804688,6.5332031 Z M 22,11 A 11,11 0 0 1 11,22 11,11 0 0 1 0,11 11,11 0 0 1 11,0 11,11 0 0 1 22,11 Z" />
</svg>
