<svg width="18" height="18" viewBox="0 0 18 18" fill="none" xmlns="http://www.w3.org/2000/svg">
<path d="M15.38 12.27C15.76 11.42 16 10.43 16 9.27V3.05L8.99997 1L5.21997 2.11L15.38 12.27Z" fill="#010101"/>
<path d="M2.21 2.98999L2 3.04999V9.26999C2 15.63 9 17 9 17C9 17 11.71 16.47 13.76 14.53L2.21 2.98999Z" fill="#010101"/>
<path fill-rule="evenodd" clip-rule="evenodd" d="M0.46967 0.46967C0.762563 0.176777 1.23744 0.176777 1.53033 0.46967L16.7203 15.6597C17.0132 15.9526 17.0132 16.4274 16.7203 16.7203C16.4274 17.0132 15.9526 17.0132 15.6597 16.7203L0.46967 1.53033C0.176777 1.23744 0.176777 0.762563 0.46967 0.46967Z" fill="#010101"/>
</svg>
