<svg width="18" height="18" viewBox="0 0 18 18" fill="none" xmlns="http://www.w3.org/2000/svg">
    <path fill-rule="evenodd" clip-rule="evenodd" d="M2 3.05V9.27C2 15.63 9 17 9 17C9 17 16 15.63 16 9.27V3.05L9 1L2 3.05ZM11.9405 5.5196C12.1305 5.3396 12.4305 5.3496 12.6105 5.5396C12.7705 5.7196 12.7705 5.9896 12.6305 6.1696L8.41047 11.2796L8.38047 11.3196C8.10047 11.6596 7.59047 11.7096 7.25047 11.4296C7.22027 11.4145 7.19577 11.388 7.17266 11.363C7.16517 11.3549 7.15782 11.347 7.15047 11.3396L5.34047 9.2596C5.14047 9.0196 5.16047 8.6596 5.40047 8.4596C5.60047 8.2796 5.89047 8.2796 6.10047 8.4196L7.67047 9.5196L11.9405 5.5196Z" fill="currentColor"/>
</svg>
