<?xml version="1.0" encoding="UTF-8" standalone="no"?>
<svg
   xmlns="http://www.w3.org/2000/svg"
   width="24"
   height="24"
   viewBox="0 0 24 24"
   fill="none">
  <path
     style="stroke:none;fill:#03b381;fill-opacity:1"
     d="M 12 2 L 3 4.8496094 L 3 11.5 C 3 17.2 12 21 12 21 C 12 21 21 17.2 21 11.5 L 21 4.8496094 L 12 2 z M 16.541016 7.5332031 C 16.789066 7.5332031 17.037312 7.6240256 17.226562 7.8066406 C 17.605062 8.1718706 17.605063 8.7636762 17.226562 9.1289062 L 11.400391 14.75 C 11.021891 15.1152 10.40975 15.1152 10.03125 14.75 L 10.013672 14.734375 C 10.007572 14.728775 10.002044 14.722597 9.9960938 14.716797 L 7.3242188 12.138672 C 6.9267788 11.755172 6.9267788 11.1335 7.3242188 10.75 C 7.7216487 10.3665 8.3662319 10.3665 8.7636719 10.75 L 10.783203 12.699219 L 15.855469 7.8066406 C 16.044719 7.6240256 16.292966 7.5332031 16.541016 7.5332031 z "
     id="path2" />
</svg>
