<svg width="16" height="16" viewBox="0 0 16 16" fill="none" xmlns="http://www.w3.org/2000/svg">
<path fill-rule="evenodd" clip-rule="evenodd" d="M1.77783 2.71114V8.24003C1.77783 13.8934 8.00005 15.1111 8.00005 15.1111C8.00005 15.1111 14.2223 13.8934 14.2223 8.24003V2.71114L8.00005 0.888916L1.77783 2.71114ZM10.6139 4.90635C10.7827 4.74635 11.0494 4.75524 11.2094 4.92413C11.3516 5.08413 11.3516 5.32413 11.2272 5.48413L7.47608 10.0263L7.44941 10.0619C7.20052 10.3641 6.74719 10.4086 6.44497 10.1597C6.41812 10.1463 6.39635 10.1227 6.37581 10.1005C6.36914 10.0933 6.36261 10.0862 6.35608 10.0797L4.74719 8.23079C4.56941 8.01746 4.58719 7.69746 4.80052 7.51968C4.9783 7.35968 5.23608 7.35968 5.42274 7.48413L6.8183 8.46191L10.6139 4.90635Z" fill="#0DBD8B"/>
</svg>
