<svg width="16" height="16" viewBox="0 0 16 16" fill="none" xmlns="http://www.w3.org/2000/svg">
<path fill-rule="evenodd" clip-rule="evenodd" d="M1.77783 2.71114V8.24003C1.77783 13.8934 8.00005 15.1111 8.00005 15.1111C8.00005 15.1111 14.2223 13.8934 14.2223 8.24003V2.71114L8.00005 0.888916L1.77783 2.71114ZM7.92899 3.91112C7.42232 3.94668 7.04899 4.39113 7.09343 4.89779L7.37788 8.45335C7.40455 8.76446 7.64455 9.00446 7.95566 9.03113H8.00899C8.33788 9.03113 8.61343 8.78224 8.6401 8.45335L8.92455 4.89779V4.75557C8.87121 4.2489 8.42677 3.87557 7.92899 3.91112ZM8 11.5556C8.43201 11.5556 8.78222 11.2054 8.78222 10.7733C8.78222 10.3413 8.43201 9.99112 8 9.99112C7.56799 9.99112 7.21777 10.3413 7.21777 10.7733C7.21777 11.2054 7.56799 11.5556 8 11.5556Z" fill="#FF4B55"/>
</svg>
