<?xml version="1.0" standalone="no"?>
<!DOCTYPE svg PUBLIC "-//W3C//DTD SVG 20010904//EN"
 "http://www.w3.org/TR/2001/REC-SVG-20010904/DTD/svg10.dtd">
<svg version="1.0" xmlns="http://www.w3.org/2000/svg"
 width="2746.000000pt" height="750.000000pt" viewBox="0 0 2746.000000 750.000000"
 preserveAspectRatio="xMidYMid meet">
<metadata>
Created by potrace 1.16, written by Peter Selinger 2001-2019
</metadata>
<g transform="translate(0.000000,750.000000) scale(0.100000,-0.100000)"
fill="#000000" stroke="none">
<path d="M24272 6513 c191 -219 276 -339 368 -524 87 -172 144 -337 187 -539
16 -79 18 -187 23 -1539 l5 -1453 195 -99 c107 -54 199 -98 203 -99 4 0 6 712
4 1583 -2 1245 -5 1596 -16 1647 -57 286 -99 424 -186 607 -90 188 -165 299
-327 486 l-33 37 -258 0 -259 0 94 -107z"/>
<path d="M19295 6589 c-6 -9 91 -155 186 -280 161 -213 221 -322 294 -529 72
-208 111 -436 122 -707 l6 -153 -5161 0 -5162 0 0 -145 0 -145 620 0 620 0 0
-133 c0 -181 8 -172 -172 -180 -249 -10 -425 -57 -557 -146 -142 -97 -201
-214 -201 -403 0 -142 29 -212 167 -402 24 -32 43 -64 43 -70 0 -7 -25 -17
-56 -24 -116 -24 -250 -115 -311 -209 -32 -50 -36 -64 -36 -122 0 -84 28 -158
92 -242 91 -121 259 -259 404 -332 73 -38 89 -42 172 -45 138 -6 257 29 620
183 99 42 231 92 295 112 99 31 129 36 220 37 122 1 175 -14 257 -75 97 -73
154 -185 161 -321 7 -135 -25 -212 -143 -337 -63 -68 -147 -123 -233 -153 -54
-18 -89 -23 -177 -23 -106 0 -113 2 -188 37 -43 21 -160 91 -260 156 -309 201
-344 219 -497 252 -186 41 -402 35 -578 -16 -394 -113 -774 -519 -878 -936
-17 -71 -32 -338 -18 -338 5 0 27 33 49 72 121 217 256 373 465 535 315 245
690 378 1015 359 180 -10 387 -72 615 -186 152 -75 328 -145 430 -171 161 -41
354 -14 448 62 45 37 91 109 114 180 17 56 19 82 15 214 -15 435 -185 830
-417 969 -92 56 -151 71 -270 70 -199 -2 -452 -84 -835 -272 -92 -45 -232 -99
-319 -123 -114 -31 -188 -17 -259 50 -70 65 -74 123 -16 210 115 173 343 250
736 251 228 1 415 34 528 93 158 84 232 231 224 449 -4 86 -7 100 -41 166 -44
83 -48 120 -15 150 52 49 112 58 164 25 51 -33 112 -168 115 -256 1 -21 4 -37
7 -37 4 0 62 63 129 141 l124 140 -22 54 c-46 113 -197 254 -290 270 -47 8
-126 -1 -157 -18 -11 -7 -55 -51 -97 -99 -42 -48 -85 -92 -96 -98 -29 -16 -58
-4 -78 33 -14 27 -17 67 -20 265 l-4 232 516 0 516 0 0 -722 c0 -445 4 -748
10 -788 49 -310 294 -615 590 -733 128 -51 200 -62 390 -61 145 1 188 5 255
22 103 28 274 111 397 194 54 36 100 63 103 60 3 -3 5 -45 5 -94 l0 -89 48
-21 c26 -12 134 -60 240 -108 l192 -88 0 1019 0 1019 -240 0 -240 0 0 -477 c0
-601 -7 -659 -105 -853 -122 -243 -260 -371 -465 -432 -96 -29 -269 -35 -345
-14 -74 22 -149 70 -202 130 -49 56 -113 182 -145 286 l-23 75 -3 838 -3 837
2275 0 2275 0 3 -757 c4 -743 4 -759 25 -833 43 -146 121 -286 230 -409 111
-126 290 -236 458 -282 110 -31 390 -33 508 -6 139 33 281 102 452 219 l70 49
5 -97 5 -96 80 -36 c44 -19 151 -68 237 -107 86 -40 158 -71 160 -70 2 2 2
460 0 1019 l-2 1016 -240 0 -240 0 0 -484 c0 -290 -4 -516 -11 -563 -26 -193
-138 -413 -281 -555 -192 -190 -544 -248 -734 -122 -30 20 -70 54 -89 76 -48
57 -109 178 -142 283 l-28 90 -3 833 -3 832 1116 0 1115 0 2 -1086 3 -1087
155 -69 c85 -38 176 -78 202 -88 l47 -19 4 537 c3 463 6 544 20 585 88 256
358 583 577 696 112 58 178 75 277 68 171 -10 240 -76 231 -221 -11 -168 -124
-294 -309 -342 -82 -22 -258 -22 -358 0 -41 9 -75 15 -76 13 0 -1 -36 -75 -79
-164 l-78 -162 78 -93 c44 -51 89 -104 100 -118 12 -14 158 -187 324 -385 166
-198 315 -373 330 -389 l28 -29 143 104 c78 58 144 109 146 115 2 6 -70 101
-161 212 -178 217 -318 388 -353 431 l-21 27 88 17 c237 45 430 167 505 321
51 104 64 195 43 297 -23 112 -51 164 -132 244 -107 106 -227 169 -383 201
-95 20 -345 14 -434 -10 -64 -17 -219 -82 -383 -161 -64 -30 -118 -55 -121
-55 -3 0 -5 137 -5 305 l0 305 885 0 885 0 0 -753 c0 -718 1 -758 20 -833 43
-173 184 -391 334 -515 88 -74 244 -152 356 -179 169 -42 424 -37 572 11 96
31 232 100 348 177 l105 70 3 -93 3 -93 172 -78 c95 -42 202 -92 239 -111 37
-18 70 -33 73 -33 3 0 4 458 3 1018 l-3 1017 -242 3 -242 2 -3 -537 c-4 -595
-2 -573 -73 -737 -83 -192 -206 -345 -341 -425 -108 -63 -238 -94 -380 -89
-103 4 -118 7 -180 38 -38 18 -89 54 -115 80 -89 89 -163 257 -188 427 -7 46
-11 351 -11 852 l0 781 1115 0 1115 0 0 145 0 145 -2229 0 -2228 0 -6 188 c-9
284 -57 555 -142 803 -72 208 -241 516 -351 636 l-39 43 -243 2 c-134 2 -246
0 -247 -3z m-8304 -2465 c115 -34 170 -108 177 -238 2 -45 -1 -107 -8 -139
-35 -173 -192 -341 -425 -456 -198 -98 -348 -90 -476 26 -117 106 -135 262
-51 433 78 159 287 319 484 369 92 24 226 26 299 5z"/>
<path d="M1723 4913 c-10 -3 -13 -41 -13 -139 l0 -134 1483 -2 1482 -3 2 -313
2 -313 -49 -47 -49 -47 -2 -73 c-1 -40 1 -75 4 -78 3 -3 22 -1 43 6 28 9 33
15 23 22 -11 8 -10 8 4 4 25 -8 68 4 60 17 -3 6 -1 7 6 3 10 -7 107 25 136 45
17 11 197 67 270 84 100 23 104 24 170 30 33 4 76 10 95 14 52 11 308 5 364
-8 27 -6 68 -22 92 -36 23 -14 50 -25 59 -25 9 0 14 -4 11 -9 -3 -5 11 -24 32
-43 88 -80 92 -88 92 -204 0 -93 -2 -106 -22 -126 -18 -18 -20 -18 -15 -3 8
19 -8 34 -78 71 -32 17 -93 41 -125 49 -3 1 -12 4 -20 7 -42 16 -100 25 -100
16 0 -6 -6 -5 -15 2 -28 23 -337 20 -465 -5 -14 -3 -39 -8 -55 -11 -43 -8
-187 -59 -181 -65 2 -2 -6 -5 -19 -5 -26 -2 -97 -36 -135 -64 l-25 -19 25 5
c21 4 22 3 5 -4 -11 -5 -26 -7 -32 -5 -8 3 -13 -3 -13 -13 0 -13 -3 -15 -8 -7
-5 8 -33 -7 -90 -51 -103 -79 -99 -75 -82 -87 12 -8 11 -9 -6 -5 -15 5 -31 -6
-65 -41 -57 -59 -83 -99 -74 -112 3 -6 0 -8 -9 -5 -10 4 -16 -4 -21 -25 -4
-17 -11 -31 -17 -31 -6 0 -7 -7 -4 -16 3 -8 2 -13 -3 -10 -7 5 -16 -17 -39
-104 -13 -51 -8 -127 13 -193 12 -40 21 -54 27 -45 5 8 7 4 3 -12 -5 -19 4
-39 33 -80 22 -31 45 -54 53 -52 8 2 11 0 7 -4 -12 -11 11 -34 28 -27 9 3 12
0 9 -10 -4 -9 12 -29 43 -56 28 -22 53 -41 57 -41 3 0 13 -7 22 -15 9 -10 24
-13 37 -10 14 4 17 3 8 -3 -26 -18 182 -102 255 -102 17 0 44 -5 59 -10 20 -8
29 -8 34 1 6 8 9 8 12 -1 3 -9 47 -12 160 -12 86 0 160 2 165 5 5 3 33 8 63
11 65 8 78 10 105 19 11 3 32 8 48 11 54 9 71 17 56 27 -10 7 -6 8 11 4 16 -3
43 4 75 20 28 14 41 23 30 20 -11 -3 -16 -3 -12 2 5 4 24 8 43 9 20 0 39 5 42
10 4 5 36 24 72 43 36 19 72 40 81 48 14 12 18 11 30 -3 8 -10 12 -19 11 -21
-2 -2 -1 -20 3 -41 5 -33 11 -40 48 -54 23 -9 85 -34 137 -55 158 -66 180 -73
180 -64 0 5 -12 14 -27 20 l-28 11 28 -5 c15 -3 27 -1 27 5 0 5 -5 10 -11 10
-8 0 -9 4 0 13 12 15 17 1135 5 1184 -4 16 -12 31 -18 35 -8 6 -8 8 0 8 13 0
11 34 -6 157 -24 181 -75 308 -152 379 -78 73 -212 144 -273 144 -13 0 -25 5
-27 10 -2 6 -35 12 -75 13 -39 1 -69 5 -67 8 5 9 -384 1 -398 -7 -12 -8 -56
-15 -96 -16 -20 0 -21 -1 -6 -12 13 -10 10 -12 -21 -8 -43 5 -207 -27 -199
-39 6 -11 -57 1 -73 13 -17 14 -18 388 -1 389 7 0 5 3 -4 7 -10 4 845 7 1900
7 l1917 0 -1880 5 -1880 5 1883 3 c1682 2 1883 0 1888 -13 4 -9 14 -13 23 -11
9 3 21 2 26 -2 6 -4 10 -102 10 -259 0 -138 -3 -246 -7 -240 -4 6 -14 -6 -25
-29 -10 -21 -21 -41 -24 -44 -4 -3 -20 -33 -37 -67 -16 -34 -38 -74 -49 -90
-11 -15 -41 -68 -68 -118 -26 -49 -61 -113 -76 -142 -17 -30 -26 -59 -23 -70
4 -12 3 -14 -3 -5 -7 9 -23 -12 -55 -70 -25 -46 -89 -161 -142 -256 -92 -165
-108 -201 -86 -187 6 3 10 1 10 -5 0 -6 -8 -10 -17 -8 -19 3 -66 -69 -58 -90
3 -7 1 -10 -4 -7 -5 3 -15 -11 -22 -30 -7 -19 -17 -35 -22 -35 -5 0 -6 -7 -3
-16 4 -10 2 -13 -6 -8 -8 5 -9 -2 -4 -22 4 -18 3 -24 -2 -16 -7 10 -13 7 -25
-12 -10 -14 -17 -30 -17 -36 0 -6 -7 -13 -15 -16 -10 -4 -13 -13 -10 -24 3
-10 1 -21 -4 -25 -7 -4 -8 1 -4 12 6 16 5 16 -10 4 -9 -7 -14 -18 -10 -25 3
-6 3 -8 -2 -4 -4 4 -20 -1 -34 -11 -14 -10 -34 -21 -44 -24 -26 -10 -74 18
-92 53 -9 18 -21 28 -27 24 -6 -4 -8 -3 -4 4 3 6 2 30 -4 54 -17 65 -21 88
-26 148 -2 30 -9 64 -15 76 -6 11 -9 36 -6 55 4 32 4 31 7 -11 2 -25 7 11 11
80 4 69 10 143 13 165 5 29 4 34 -3 20 -5 -11 -10 -14 -10 -7 -1 7 4 23 11 35
17 33 23 106 22 287 -1 168 -9 228 -47 329 -14 38 -22 50 -28 40 -7 -11 -9 -9
-7 6 3 47 -1 57 -24 50 -16 -4 -19 -4 -9 3 11 8 10 15 -5 41 -10 17 -25 30
-34 28 -8 -1 -14 4 -12 12 4 17 -28 40 -48 34 -11 -4 -12 -3 -2 4 11 8 11 12
0 20 -29 23 -99 53 -110 47 -6 -4 -8 -3 -5 3 3 5 -28 20 -70 32 -64 20 -100
23 -217 24 -138 0 -190 -4 -202 -16 -3 -3 -12 -3 -19 -1 -7 3 -16 1 -20 -5 -3
-6 -15 -11 -26 -11 -25 0 -139 -57 -139 -70 0 -6 -7 -10 -16 -10 -8 0 -12 -4
-9 -10 3 -5 0 -8 -7 -5 -7 3 -25 -6 -41 -19 l-27 -24 76 -68 c42 -38 80 -68
84 -67 4 1 22 -16 39 -38 18 -22 37 -36 43 -33 6 4 8 3 5 -3 -4 -6 3 -19 15
-29 12 -11 18 -13 14 -7 -5 9 -2 11 8 7 9 -3 13 -11 10 -16 -21 -33 24 8 83
77 38 44 78 84 89 90 11 6 19 15 17 20 -2 6 5 11 14 12 10 1 46 11 80 24 74
26 156 21 199 -13 23 -19 26 -26 22 -70 -4 -36 -17 -66 -53 -120 -69 -104
-101 -159 -108 -190 -4 -14 -10 -34 -13 -45 -5 -15 -4 -16 6 -3 10 13 11 12 6
-3 -3 -10 -6 -28 -7 -40 -1 -20 -2 -20 -8 3 -6 20 -10 13 -19 -41 -15 -83 -15
-146 -1 -155 8 -5 8 -8 0 -13 -19 -12 15 -219 48 -296 54 -123 94 -196 103
-184 7 10 8 9 4 -6 -4 -14 10 -41 47 -90 28 -38 55 -67 58 -65 8 7 39 -20 39
-33 0 -6 -7 -2 -15 9 -8 10 -15 14 -15 8 0 -14 55 -66 63 -59 4 3 5 2 2 -2 -8
-11 66 -82 80 -77 7 3 16 1 20 -5 4 -7 -1 -9 -12 -5 -44 14 178 -167 270 -220
26 -15 53 -24 60 -20 6 4 9 3 4 -1 -4 -5 7 -15 24 -22 42 -17 73 -15 34 2 -19
9 -24 14 -12 15 9 0 26 -9 37 -20 11 -11 35 -23 53 -26 24 -4 28 -3 17 5 -13
9 -13 11 1 11 19 0 50 63 43 87 -5 14 -4 15 4 4 7 -10 16 -3 36 33 14 25 37
66 52 91 14 25 22 50 19 55 -3 6 0 10 7 10 7 0 18 10 24 23 36 71 48 94 59
107 21 26 84 150 77 150 -4 0 -2 4 4 8 14 9 82 118 123 197 23 44 27 61 18 68
-8 6 -6 7 6 3 11 -4 20 1 24 12 4 9 22 43 40 75 19 31 31 62 27 69 -4 7 -3 8
5 4 6 -4 14 0 18 11 4 10 22 44 40 76 19 31 31 62 28 67 -4 6 -1 9 5 8 6 -2
21 15 33 37 13 22 43 75 67 119 25 43 57 100 72 127 16 27 25 56 22 66 -5 14
-4 15 4 4 8 -11 13 -8 26 17 9 17 13 37 10 46 -6 16 14 61 23 52 3 -3 0 -12
-7 -20 -6 -9 -10 -20 -8 -26 2 -6 20 18 40 55 21 37 35 73 32 83 -4 12 -3 13
3 4 12 -15 47 53 37 71 -4 7 -4 9 1 5 11 -10 38 29 30 42 -3 6 -3 10 2 10 4 0
7 104 6 230 -2 226 -2 230 17 220 16 -9 20 -7 20 7 0 15 2 15 15 -3 14 -18 15
-17 19 19 1 8 26 12 86 13 l85 1 -85 -7 -85 -6 86 -2 87 -2 -2 128 -1 127
-3895 2 c-2142 1 -3901 -1 -3907 -4z m6627 -10 c-2875 -7 -6607 -7 -6597 -1 7
4 1740 7 3852 5 2112 -1 3347 -3 2745 -4z m-4427 -230 c-398 -2 -1048 -2
-1445 0 -398 1 -73 2 722 2 795 0 1120 -1 723 -2z m3939 0 c-518 -2 -1366 -2
-1885 0 -518 1 -94 2 943 2 1037 0 1461 -1 942 -2z m-3939 -20 c-402 -2 -1064
-2 -1470 0 -406 1 -76 2 732 2 809 0 1141 -1 738 -2z m1611 -1274 c-3 -5 3 -9
14 -9 44 0 312 -81 339 -102 7 -5 18 -6 25 -2 7 4 10 4 6 -1 -9 -10 40 -37 53
-29 5 3 8 0 7 -8 -2 -7 4 -12 12 -10 8 2 12 1 8 -3 -3 -4 5 -23 18 -42 13 -20
24 -42 24 -50 0 -31 -31 -84 -76 -130 -27 -26 -47 -52 -46 -57 3 -10 -18 -36
-30 -36 -5 0 -6 5 -3 10 10 16 -3 12 -45 -16 -22 -15 -37 -31 -34 -36 7 -11
-14 -38 -29 -38 -6 0 -2 6 9 14 10 8 16 17 13 21 -6 5 -127 -60 -139 -76 -3
-3 -39 -21 -80 -40 -41 -18 -77 -37 -78 -41 -2 -5 -8 -6 -12 -3 -5 3 -17 1
-27 -4 -28 -16 -173 -58 -225 -66 -30 -5 -45 -11 -41 -18 4 -6 0 -8 -10 -4
-19 7 -196 -12 -219 -24 -10 -5 -23 -9 -30 -8 -7 0 -4 4 7 9 13 6 -12 9 -75
10 -52 1 -117 6 -145 11 -27 6 -58 11 -67 12 -9 1 -14 5 -12 9 3 4 -3 8 -14 8
-28 0 -99 55 -118 92 -16 30 -18 31 -25 13 -11 -29 -10 -13 2 47 14 64 39 115
90 184 21 29 36 54 33 56 -2 3 2 11 11 18 8 7 15 11 15 8 0 -2 27 22 60 54 32
32 93 80 134 107 41 27 72 51 69 55 -4 3 0 6 9 6 8 0 43 11 77 26 96 39 245
75 311 76 33 0 58 4 55 7 -5 9 112 7 145 -2 14 -4 19 -5 12 -1 -17 8 -5 24 13
18 8 -4 12 -10 9 -15z"/>
<path d="M25340 4775 l0 -145 128 0 127 0 0 145 0 145 -127 0 -128 0 0 -145z"/>
<path d="M3070 4323 c-64 -5 -185 -25 -195 -33 -5 -4 -25 -11 -43 -15 -19 -4
-30 -11 -26 -17 4 -7 2 -8 -4 -4 -11 7 -103 -34 -170 -76 -26 -16 -31 -23 -20
-30 9 -7 7 -8 -8 -4 -12 4 -29 -1 -41 -11 -12 -10 -55 -43 -97 -73 -41 -30
-74 -60 -71 -67 2 -8 -2 -10 -12 -6 -12 5 -14 3 -8 -7 6 -10 4 -12 -8 -7 -10
3 -17 2 -17 -3 0 -6 -7 -10 -15 -10 -13 0 -15 22 -16 133 -1 72 -1 135 0 140
0 4 -89 7 -199 7 l-200 0 0 -893 0 -893 30 -17 c16 -10 36 -15 43 -11 6 4 9 4
5 -1 -4 -4 2 -13 15 -20 12 -6 79 -41 148 -78 70 -37 130 -67 133 -67 4 0 6
172 5 383 0 210 2 400 5 422 5 29 4 34 -3 20 -7 -14 -10 -15 -10 -5 -1 8 5 27
12 41 8 14 14 40 15 57 0 18 5 47 11 64 28 90 63 213 61 217 -1 2 4 7 11 11 6
5 13 29 14 54 0 25 5 49 9 53 4 4 5 -6 1 -22 -4 -20 5 -10 29 34 19 35 33 68
29 74 -3 6 -2 8 3 4 5 -3 20 12 32 34 20 34 20 38 5 32 -10 -3 -4 5 12 18 38
30 46 41 40 57 -3 7 -1 11 4 7 13 -7 69 67 64 85 -3 11 -2 12 4 3 7 -9 20 -2
48 28 21 23 64 60 94 83 31 22 58 44 61 47 14 18 165 74 230 85 8 1 24 5 35 8
11 2 36 5 55 6 29 1 32 3 15 10 -14 6 -15 9 -4 9 8 1 20 -4 26 -10 7 -7 36
-10 77 -7 35 2 63 1 60 -3 -2 -4 26 -14 64 -22 82 -19 151 -56 211 -116 25
-24 49 -44 54 -43 4 1 6 -1 5 -5 -2 -5 12 -38 30 -75 19 -37 35 -77 37 -90 2
-13 7 -48 11 -78 23 -143 1 -410 -44 -545 -9 -27 -17 -52 -17 -55 0 -3 -18
-38 -38 -79 -25 -49 -34 -76 -27 -81 7 -5 6 -11 -5 -20 -13 -11 -15 -10 -9 6
3 11 -7 5 -25 -16 -20 -23 -28 -42 -25 -55 4 -13 2 -16 -4 -7 -13 19 -164
-150 -156 -175 4 -14 3 -15 -4 -4 -8 11 -14 9 -31 -8 -12 -12 -19 -27 -15 -33
4 -6 3 -8 -3 -5 -5 3 -42 -27 -82 -67 l-73 -73 40 -32 c22 -17 42 -31 45 -31
3 0 52 -29 109 -65 57 -36 109 -65 117 -65 8 0 11 -3 8 -7 -4 -3 5 -12 19 -20
32 -16 37 -16 28 0 -4 7 -3 9 2 4 5 -5 9 -14 9 -20 0 -6 15 -20 33 -30 l33
-19 25 23 c13 13 22 29 19 37 -2 7 -1 11 4 8 17 -11 163 182 157 206 -1 7 -1
10 2 5 13 -23 143 220 136 255 -2 13 -1 17 2 9 5 -10 10 -5 19 16 22 52 28 76
17 69 -6 -4 -8 2 -4 16 3 15 7 18 10 9 7 -22 52 143 57 212 19 230 -1 450 -43
485 -10 7 -11 11 -4 7 20 -10 14 21 -19 103 -46 117 -97 205 -151 263 -14 16
-24 29 -20 29 3 0 -9 16 -28 35 -19 19 -40 35 -48 35 -7 0 -11 4 -8 8 3 5 -15
28 -39 52 -25 24 -45 41 -45 36 0 -4 -7 0 -17 9 -30 30 -94 66 -105 59 -6 -4
-8 -3 -5 3 6 9 -43 35 -118 63 -79 30 -254 50 -365 43z"/>
<path d="M16015 4324 c-171 -28 -454 -137 -564 -218 -27 -20 -51 -33 -55 -29
-3 3 -6 42 -6 85 l0 78 -230 0 -230 0 0 -884 0 -885 228 -117 c125 -65 228
-117 230 -116 1 1 3 221 2 490 0 536 6 647 46 773 99 318 454 668 720 709 78
12 128 5 206 -30 101 -44 144 -103 135 -183 -12 -96 -73 -179 -190 -259 -66
-45 -201 -98 -248 -98 -17 0 -29 -4 -27 -9 2 -5 77 -94 168 -197 91 -102 168
-191 172 -197 16 -25 150 59 262 164 94 87 158 169 194 246 50 109 28 261 -55
375 -83 114 -230 219 -379 270 -75 26 -103 30 -218 33 -72 2 -144 1 -161 -1z"/>
</g>
</svg>
