<svg width="18" height="18" viewBox="0 0 18 18" fill="none" xmlns="http://www.w3.org/2000/svg">
<path fill-rule="evenodd" clip-rule="evenodd" d="M10.9454 4.27941C10.653 3.98601 10.6539 3.51114 10.9472 3.21875C11.2406 2.92637 11.7155 2.92719 12.0079 3.22059L15.5312 6.75612C15.8229 7.0488 15.8229 7.52226 15.5312 7.81494L12.0079 11.3505C11.7155 11.6439 11.2407 11.6447 10.9473 11.3523C10.6539 11.06 10.653 10.5851 10.9454 10.2917L13.2292 8H6.36588C4.95064 8 3.75282 9.20272 3.75282 10.75C3.75282 12.2973 4.95064 13.5 6.36588 13.5H7.93524C8.34945 13.5 8.68524 13.8358 8.68524 14.25C8.68524 14.6642 8.34945 15 7.93524 15H6.36588C4.06634 15 2.25282 13.0687 2.25282 10.75C2.25282 8.43128 4.06634 6.5 6.36588 6.5H13.1583L10.9454 4.27941Z" fill="black"/>
</svg>
