<svg xmlns="http://www.w3.org/2000/svg" width="18" height="18" fill="none" viewBox="0 0 18 18"><path fill="currentColor" d="M5 5.25a.75.75 0 0 0 0 1.5h8a.75.75 0 0 0 0-1.5H5ZM5 8.25a.75.75 0 0 0 0 1.5h4a.75.75 0 1 0 0-1.5H5Z"/><path fill="currentColor" fill-rule="evenodd" d="M3 .25A2.75 2.75 0 0 0 .25 3v14a.75.75 0 0 0 1.2.6L4.916 15c.217-.162.48-.25.75-.25H15A2.75 2.75 0 0 0 17.75 12V3A2.75 2.75 0 0 0 15 .25H3ZM1.75 3c0-.69.56-1.25 1.25-1.25h12c.69 0 1.25.56 1.25 1.25v9c0 .69-.56 1.25-1.25 1.25H5.666a2.75 2.75 0 0 0-1.65.55L1.75 15.5V3Z" clip-rule="evenodd"/></svg>