<svg width="18" height="18" viewBox="0 0 18 18" fill="none" xmlns="http://www.w3.org/2000/svg">
<path fill-rule="evenodd" clip-rule="evenodd" d="M17 13.89C17 15.0256 16.1603 16 14.9272 16H3.08038C1.83972 16 1 15.0256 1 13.89C1 13.5371 1.09078 13.1841 1.27234 12.8542L7.20331 2.08951C7.60426 1.36061 8.30024 1 9.00378 1C9.70733 1 10.3957 1.34527 10.7967 2.08951L16.7277 12.8542C16.9092 13.1841 17 13.5371 17 13.89ZM8.92011 5.00263C8.35011 5.04263 7.93011 5.54264 7.98011 6.11264L8.28011 9.85C8.31011 10.2 8.58011 10.47 8.93011 10.5H8.99011C9.36011 10.5 9.67011 10.22 9.70011 9.85L10.0401 6.11264V5.95264C9.98011 5.38264 9.48011 4.96263 8.92011 5.00263ZM10 12.5C10 13.0523 9.55229 13.5 9 13.5C8.44772 13.5 8 13.0523 8 12.5C8 11.9477 8.44772 11.5 9 11.5C9.55229 11.5 10 11.9477 10 12.5Z" fill="black"/>
</svg>
