<?xml version="1.0" encoding="UTF-8" standalone="no"?>
<svg width="28px" height="16px" viewBox="0 0 28 16" version="1.1" xmlns="http://www.w3.org/2000/svg" xmlns:xlink="http://www.w3.org/1999/xlink">
    <!-- Generator: sketchtool 39.1 (31720) - http://www.bohemiancoding.com/sketch -->
    <title>13E7EE68-9B16-4A3D-8F9F-31E4BAB7E438</title>
    <desc>Created with sketchtool.</desc>
    <defs></defs>
    <g id="Screens-revised" stroke="none" stroke-width="1" fill="none" fill-rule="evenodd">
        <g id="02_x-Chat-text-input-markdown-panel-MD_on" transform="translate(-390.000000, -745.000000)">
            <g id="format-buttons-A-Copy" transform="translate(294.000000, 745.000000)">
                <g id="button_text_underline" transform="translate(96.000000, 0.000000)">
                    <rect id="Rectangle-108" fill-opacity="0.1" fill="#000000" x="0" y="0" width="28" height="16" rx="8"></rect>
                    <path d="M17.0092773,4.14746094 L17.0092773,9.22851562 C17.0092773,10.1237024 16.738935,10.8273086 16.1982422,11.3393555 C15.6575494,11.8514023 14.9145555,12.1074219 13.9692383,12.1074219 C13.0239211,12.1074219 12.2925644,11.849612 11.7751465,11.3339844 C11.2577285,10.8183568 10.9990234,10.1093795 10.9990234,9.20703125 L10.9990234,4.14746094 L11.9121094,4.14746094 L11.9121094,9.27148438 C11.9121094,9.92676109 12.091144,10.4298485 12.4492188,10.7807617 C12.8072935,11.1316749 13.3336554,11.3071289 14.0283203,11.3071289 C14.6907585,11.3071289 15.2010073,11.1307798 15.559082,10.7780762 C15.9171567,10.4253726 16.0961914,9.91959965 16.0961914,9.26074219 L16.0961914,4.14746094 L17.0092773,4.14746094 Z" id="U" fill-opacity="0.7" fill="#000000"></path>
                    <path d="M9.5,13.5 L18.7195444,13.5" id="Line" stroke="#4A4A4A" stroke-linecap="round" opacity="0.5" transform="translate(14.109772, 13.500000) scale(1, -1) translate(-14.109772, -13.500000) "></path>
                </g>
            </g>
        </g>
    </g>
</svg>