<?xml version="1.0" encoding="utf-8"?>
<!-- Generator: Adobe Illustrator 15.0.0, SVG Export Plug-In . SVG Version: 6.00 Build 0)  -->
<!DOCTYPE svg PUBLIC "-//W3C//DTD SVG 1.1//EN" "http://www.w3.org/Graphics/SVG/1.1/DTD/svg11.dtd">
<svg version="1.1" id="Layer_1" xmlns="http://www.w3.org/2000/svg" xmlns:xlink="http://www.w3.org/1999/xlink" x="0px" y="0px"
	 width="2048px" height="1792px" viewBox="0 0 2048 1792" enable-background="new 0 0 2048 1792" xml:space="preserve">
<path fill="#76CFA6" d="M1024,672c79.333,0,147.166,28.167,203.5,84.5c56.333,56.334,84.5,124.167,84.5,203.5
	c0,79.334-28.167,147.167-84.5,203.5c-56.334,56.334-124.167,84.5-203.5,84.5c-79.334,0-147.167-28.166-203.5-84.5
	C764.166,1107.167,736,1039.334,736,960c0-79.333,28.166-147.166,84.5-203.5C876.833,700.167,944.666,672,1024,672z M1728,256
	c70.666,0,131,25,181,75s75,110.334,75,181v896c0,70.667-25,131-75,181s-110.334,75-181,75H320c-70.667,0-131-25-181-75
	s-75-110.333-75-181V512c0-70.666,25-131,75-181s110.333-75,181-75h224l51-136c12.666-32.666,35.833-60.833,69.5-84.5
	C698.166,11.834,732.666,0,768,0h512c35.333,0,69.833,11.834,103.5,35.5c33.666,23.667,56.833,51.834,69.5,84.5l51,136H1728z
	 M1024,1408c123.333,0,228.833-43.833,316.5-131.5c87.666-87.666,131.5-193.166,131.5-316.5c0-123.333-43.834-228.833-131.5-316.5
	C1252.833,555.834,1147.333,512,1024,512c-123.334,0-228.834,43.834-316.5,131.5C619.833,731.167,576,836.667,576,960
	c0,123.334,43.833,228.834,131.5,316.5C795.166,1364.167,900.666,1408,1024,1408z"/>
</svg>
