<?xml version="1.0" encoding="UTF-8" standalone="no"?>
<svg width="26px" height="26px" viewBox="-1 -2 26 26" version="1.1" xmlns="http://www.w3.org/2000/svg" xmlns:xlink="http://www.w3.org/1999/xlink" xmlns:sketch="http://www.bohemiancoding.com/sketch/ns">
    <!-- Generator: sketchtool 3.4 (381) - http://www.bohemiancoding.com/sketch -->
    <title>icons_directory</title>
    <desc>Created with sketchtool.</desc>
    <defs></defs>
    <g id="01-Sign-up" stroke="none" stroke-width="1" fill="none" fill-rule="evenodd" sketch:type="MSPage">
        <g id="01_2-Sign-up-2" sketch:type="MSArtboardGroup" transform="translate(-14.000000, -689.000000)" fill="#454545">
            <g id="Left-panel" sketch:type="MSLayerGroup" transform="translate(-4.000000, 0.000000)">
                <g id="right_bottom" transform="translate(0.000000, 626.000000)" sketch:type="MSShapeGroup">
                    <g id="Group-Copy-29" transform="translate(18.000000, 27.000000)">
                        <g id="icons_directory" transform="translate(0.000000, 36.000000)">
                            <path d="M8.74940618,2.46971496 C8.58491686,2.46971496 8.47565321,2.15795724 8.32719715,1.68349169 C8.11698337,1.01306413 7.80106888,0 6.69002375,0 L1.38182898,0 C0.63064133,0 0.0243467933,0.589073634 0.00118764846,1.35391924 L0,19.6264846 C0,20.3895487 0.620546318,21.0095012 1.38182898,21.0095012 L22.6187648,21.0095012 C23.3800475,21.0095012 24,20.3895487 24,19.6264846 L24,3.85213777 C24,3.08966746 23.3800475,2.46971496 22.6187648,2.46971496 L8.74940618,2.46971496 Z M23.1086698,19.5068597 C23.1086698,19.7757653 22.8889549,19.9946556 22.6187648,19.9946556 L1.38182898,19.9946556 C1.11163895,19.9946556 0.890736342,19.7757653 0.890736342,19.5068597 L0.89192399,6.49465558 L23.1086698,6.49465558 L23.1086698,19.5068597 L23.1086698,19.5068597 Z M23.1086698,5.60391924 L0.89192399,5.60391924 L0.89192399,1.36698337 C0.90023753,1.09976247 1.11579572,0.890736342 1.38182898,0.890736342 L6.69002375,0.890736342 C7.10273159,0.890736342 7.24643705,1.2131829 7.47624703,1.94893112 C7.66270784,2.54453682 7.91805226,3.36045131 8.74940618,3.36045131 L22.6187648,3.36045131 C22.8889549,3.36045131 23.1086698,3.5807601 23.1086698,3.85213777 L23.1086698,5.60391924 L23.1086698,5.60391924 Z" id="Fill-137"></path>
                            <path d="M23.1086698,19.5068597 C23.1086698,19.7757653 22.8889549,19.9946556 22.6187648,19.9946556 L1.38182898,19.9946556 C1.11163895,19.9946556 0.890736342,19.7757653 0.890736342,19.5068597 L0.89192399,6.49465558 L23.1086698,6.49465558 L23.1086698,19.5068597 L23.1086698,19.5068597 Z" id="Path-Copy-2" fill-opacity="0.1"></path>
                            <path d="M0.89192399,5.60391924 L0.89192399,1.36698337 C0.90023753,1.09976247 1.11579572,0.890736342 1.38182898,0.890736342 L6.69002375,0.890736342 C7.10273159,0.890736342 7.24643705,1.2131829 7.47624703,1.94893112 C7.66270784,2.54453682 7.91805226,3.36045131 8.74940618,3.36045131 L22.6187648,3.36045131 C22.8889549,3.36045131 23.1086698,3.5807601 23.1086698,3.85213777 L23.1086698,5.60391924 L0.89192399,5.60391924 Z" id="Path-Copy" fill-opacity="0.1"></path>
                        </g>
                    </g>
                </g>
            </g>
        </g>
    </g>
</svg>