<?xml version="1.0" encoding="UTF-8"?>
<!DOCTYPE svg PUBLIC "-//W3C//DTD SVG 1.1//EN" "http://www.w3.org/Graphics/SVG/1.1/DTD/svg11.dtd">
<svg version="1.1" xmlns="http://www.w3.org/2000/svg" xmlns:xlink="http://www.w3.org/1999/xlink" x="0" y="0" width="35" height="35" viewBox="0, 0, 35, 35">
  <g id="Symbols">
    <path d="M17.5,35 C27.165,35 35,27.165 35,17.5 C35,7.835 27.165,0 17.5,0 C7.835,0 0,7.835 0,17.5 C0,27.165 7.835,35 17.5,35 z" fill="#EAF5F0" id="Oval-109"/>
    <path d="M23,28 C21.195,28 16.807,25.624 13.122,20.524 C9.675,15.755 8,12.309 8,9.99 C8,8.164 9.225,7.293 9.883,6.825 L10.045,6.708 C10.773,6.173 11.903,6 12.337,6 C13.097,6 13.417,6.458 13.611,6.857 C13.776,7.195 15.141,10.212 15.28,10.587 C15.492,11.164 15.422,12.005 14.766,12.488 L14.65,12.571 C14.324,12.804 13.718,13.236 13.634,13.761 C13.594,14.016 13.677,14.283 13.889,14.577 C14.946,16.043 18.32,20.346 18.928,20.931 C19.405,21.389 20.009,21.455 20.42,21.098 C20.846,20.729 21.035,20.511 21.037,20.508 L21.081,20.465 C21.116,20.434 21.449,20.162 21.992,20.162 C22.385,20.162 22.783,20.302 23.178,20.576 C24.201,21.287 26.51,22.876 26.51,22.876 L26.547,22.906 C26.842,23.166 27.269,23.917 26.772,24.893 C26.256,25.907 24.655,28 23,28 L23,28 z" fill-opacity="0" stroke="#76CFA6" stroke-width="1" id="path-1"/>
  </g>
</svg>
