<?xml version="1.0" encoding="UTF-8" standalone="no"?>
<svg width="25px" height="25px" viewBox="0 0 25 25" version="1.1" xmlns="http://www.w3.org/2000/svg" xmlns:xlink="http://www.w3.org/1999/xlink">
    <!-- Generator: sketchtool 3.8.3 (29802) - http://www.bohemiancoding.com/sketch -->
    <title>00B600B3-7C80-417D-9C3F-89072AE3B227</title>
    <desc>Created with sketchtool.</desc>
    <defs>
        <path d="M12.5,11 C13.8807119,11 15,9.88071187 15,8.5 C15,7.11928813 13.8807119,6 12.5,6 C11.1192881,6 10,7.11928813 10,8.5 C10,9.88071187 11.1192881,11 12.5,11 Z" id="path-1"></path>
        <mask id="mask-2" maskContentUnits="userSpaceOnUse" maskUnits="objectBoundingBox" x="-1" y="-1" width="7" height="7">
            <rect x="9" y="5" width="7" height="7" fill="white"></rect>
            <use xlink:href="#path-1" fill="black"></use>
        </mask>
        <path d="M17.8898251,19 C17.8898251,15.1340068 17.8898253,12 12.4446367,12 C6.99944805,12 6.99944826,15.1340068 6.99944826,19 C10.784589,19 13.066792,19 17.8898251,19 Z" id="path-3"></path>
        <mask id="mask-4" maskContentUnits="userSpaceOnUse" maskUnits="objectBoundingBox" x="0" y="0" width="10.8903768" height="7" fill="white">
            <use xlink:href="#path-3"></use>
        </mask>
    </defs>
    <g id="Symbols" stroke="none" stroke-width="1" fill="none" fill-rule="evenodd">
        <g id="Right-panel/Header" transform="translate(-32.000000, -23.000000)">
            <g id="icons_people" transform="translate(32.000000, 23.000000)">
                <path d="M12.5,25 C19.4035594,25 25,19.4035594 25,12.5 C25,5.59644063 19.4035594,0 12.5,0 C5.59644063,0 0,5.59644063 0,12.5 C0,19.4035594 5.59644063,25 12.5,25 Z" id="Oval-1-Copy-7" fill="#76CFA6"></path>
                <use id="Oval-39" stroke="#FFFFFF" mask="url(#mask-2)" stroke-width="2" opacity="0.8" xlink:href="#path-1"></use>
                <use id="Oval-40" stroke="#FFFFFF" mask="url(#mask-4)" stroke-width="2" stroke-linecap="round" stroke-linejoin="round" opacity="0.8" xlink:href="#path-3"></use>
            </g>
        </g>
    </g>
</svg>
