<?xml version="1.0" encoding="utf-8"?>
<!-- Generator: Adobe Illustrator 15.0.0, SVG Export Plug-In . SVG Version: 6.00 Build 0)  -->
<!DOCTYPE svg PUBLIC "-//W3C//DTD SVG 1.1//EN" "http://www.w3.org/Graphics/SVG/1.1/DTD/svg11.dtd">
<svg version="1.1" id="Layer_1" xmlns="http://www.w3.org/2000/svg" xmlns:xlink="http://www.w3.org/1999/xlink" x="0px" y="0px"
	 width="35px" height="35px" viewBox="0 0 35 35" enable-background="new 0 0 35 35" xml:space="preserve">
<path id="Oval-109-Copy" opacity="0.15" fill="#76CFA6" enable-background="new    " d="M17.5,35C27.165,35,35,27.165,35,17.5
	S27.165,0,17.5,0S0,7.835,0,17.5S7.835,35,17.5,35z"/>
<g id="Icon">
	<g>
		<path fill="none" stroke="#76CFA6" d="M7.5,12.5h5v-5h-5V12.5z M15,27.5h5v-5h-5V27.5z M7.5,27.5h5v-5h-5V27.5z M7.5,20h5v-5h-5
			V20z M15,20h5v-5h-5V20z M22.5,7.5v5h5v-5H22.5z M15,12.5h5v-5h-5V12.5z M22.5,20h5v-5h-5V20z M22.5,27.5h5v-5h-5V27.5z"/>
	</g>
</g>
</svg>
