<?xml version="1.0" ?><svg height="16px" version="1.1" viewBox="0 0 16 16" width="16px" xmlns="http://www.w3.org/2000/svg" xmlns:sketch="http://www.bohemiancoding.com/sketch/ns" xmlns:xlink="http://www.w3.org/1999/xlink"><title/><defs/><g fill="none" fill-rule="evenodd" id="Icons with numbers" stroke="none" stroke-width="1"><g fill="#000000" id="Group" transform="translate(-384.000000, -144.000000)"><path d="M391.5,157 C389.014719,157 387,154.985281 387,152.5 C387,152.331018 387.009314,152.164211 387.027464,152 L385.018945,152 C385.00639,152.165053 385,152.33178 385,152.5 C385,156.089851 387.910149,159 391.5,159 C395.089851,159 398,156.089851 398,152.5 C398,149.078368 395.356198,146.27423 392,146.018945 L392,148.027464 C394.249941,148.27615 396,150.183701 396,152.5 C396,154.985281 393.985281,157 391.5,157 L391.5,157 Z M388,147 L392,150 L392,144 L388,147 L388,147 Z M388,147" id="Shape"/></g></g></svg>