<?xml version="1.0" encoding="UTF-8"?>
<!DOCTYPE svg PUBLIC "-//W3C//DTD SVG 1.1//EN" "http://www.w3.org/Graphics/SVG/1.1/DTD/svg11.dtd">
<svg version="1.1" xmlns="http://www.w3.org/2000/svg" xmlns:xlink="http://www.w3.org/1999/xlink" x="0" y="0" width="25" height="25" viewBox="0, 0, 25, 25">
  <g id="Symbols">
    <path d="M12.5,25 C19.404,25 25,19.404 25,12.5 C25,5.596 19.404,0 12.5,0 C5.596,0 0,5.596 0,12.5 C0,19.404 5.596,25 12.5,25 z" fill="#76CFA6" id="Oval-1-Copy-7"/>
    <path d="M12.5,11 C13.881,11 15,9.881 15,8.5 C15,7.119 13.881,6 12.5,6 C11.119,6 10,7.119 10,8.5 C10,9.881 11.119,11 12.5,11 z" fill-opacity="0" stroke="#FFFFFF" stroke-width="2" id="path-1" opacity="0.8"/>
    <path d="M17.89,19 C17.89,15.134 17.89,12 12.445,12 C6.999,12 6.999,15.134 6.999,19 C10.785,19 13.067,19 17.89,19 z" fill-opacity="0" stroke="#FFFFFF" stroke-width="2" stroke-linecap="round" stroke-linejoin="round" id="path-3" opacity="0.8"/>
  </g>
</svg>
