<?xml version="1.0" encoding="utf-8"?>
<!-- Generator: Adobe Illustrator 15.0.0, SVG Export Plug-In . SVG Version: 6.00 Build 0)  -->
<!DOCTYPE svg PUBLIC "-//W3C//DTD SVG 1.1//EN" "http://www.w3.org/Graphics/SVG/1.1/DTD/svg11.dtd">
<svg version="1.1" id="Layer_1" xmlns="http://www.w3.org/2000/svg" xmlns:xlink="http://www.w3.org/1999/xlink" x="0px" y="0px"
	 width="500px" height="500px" viewBox="0 0 500 500" enable-background="new 0 0 500 500" xml:space="preserve">
<g id="Layer_1_1_" opacity="0.4">
	<path id="Oval-109-Copy" fill="#76CFA6" d="M250,500c138.571,0,250-111.43,250-250C500,111.429,388.571,0,250,0
		C111.429,0,0,111.429,0,250C0,388.57,111.429,500,250,500z"/>
</g>
<path fill="none" stroke="#FFFFFF" stroke-width="12" stroke-miterlimit="10" d="M250,430c-98.996,0-180-81.003-180-180
	c0-98.998,81.005-180,180-180c98.994,0,180,81.002,180,180C430,348.997,348.995,430,250,430z M322.8,229.2
	c17.686,0,31.201-13.519,31.201-31.2c0-17.683-13.519-31.2-31.201-31.2c-17.682,0-31.2,13.518-31.2,31.2S305.118,229.2,322.8,229.2z
	 M177.2,229.2c17.682,0,31.2-13.519,31.2-31.2c0-17.683-13.519-31.2-31.2-31.2c-17.683,0-31.201,13.518-31.201,31.2
	S159.518,229.2,177.2,229.2z M250,364.4c48.883,0,89.436-30.164,106.081-72.801H143.919C160.564,334.236,201.117,364.4,250,364.4z"
	/>
</svg>
