<?xml version="1.0" encoding="utf-8"?>
<!-- Generator: Adobe Illustrator 21.0.0, SVG Export Plug-In . SVG Version: 6.00 Build 0)  -->
<svg version="1.1"
	 id="svg4196" xmlns="http://www.w3.org/2000/svg" x="0px" y="0px" viewBox="0 0 25 25"
	 style="enable-background:new 0 0 25 25;" xml:space="preserve">
<style type="text/css">
	.st1{opacity:0.7;}
	.st2{fill:none;stroke-linecap:round;}
</style>
<g id="icons_people" transform="translate(50.000000, 725.000000)">
	<path id="Oval-1-Copy-7" fill="#76CFA6" d="M-37.5-700c6.9,0,12.5-5.6,12.5-12.5S-30.6-725-37.5-725S-50-719.4-50-712.5
		S-44.4-700-37.5-700z"/>
	<g id="text3879" transform="matrix(1.0243293,0,0,0.97624855,-24.996028,0.15844144)">
		<g id="Group-3" transform="translate(14.4375,3.9375)" class="st1">
			<path id="Line" class="st2" stroke="#ffffff" d="M-23.2-733.8h4.6"/>
			<path id="path3142" class="st2" stroke="#ffffff" d="M-20.9-736.2v4.8"/>
		</g>
		<path id="path3002" fill="#ffffff" d="M-11.4-731.3l-0.5,2.6h2.2v1h-2.4l-0.7,3.3h-1.1l0.7-3.3
			h-2.3l-0.6,3.3h-1.1l0.6-3.3h-2v-1h2.2l0.5-2.6H-18v-1h2.3l0.6-3.4h1.1l-0.6,3.4h2.4l0.7-3.4h1l-0.7,3.4h2v1H-11.4 M-15.3-728.7
			h2.3l0.5-2.6h-2.3L-15.3-728.7"/>
	</g>
</g>
</svg>
