<?xml version="1.0" encoding="UTF-8" standalone="no"?>
<svg width="35px" height="35px" viewBox="0 0 35 35" version="1.1" xmlns="http://www.w3.org/2000/svg" xmlns:xlink="http://www.w3.org/1999/xlink">
    <!-- Generator: sketchtool 39.1 (31720) - http://www.bohemiancoding.com/sketch -->
    <title>05D354CE-86A7-4B6F-B9BE-F1CEBBD81B21</title>
    <desc>Created with sketchtool.</desc>
    <defs></defs>
    <g id="Extra-icons" stroke="none" stroke-width="1" fill="none" fill-rule="evenodd">
        <g id="Extra-icons-sheet" transform="translate(-542.000000, -366.000000)">
            <g id="icons_video" transform="translate(542.000000, 366.000000)">
                <path d="M17.5,35 C27.1649831,35 35,27.1649831 35,17.5 C35,7.83501688 27.1649831,0 17.5,0 C7.83501688,0 0,7.83501688 0,17.5 C0,27.1649831 7.83501688,35 17.5,35 Z" id="Oval-109-Copy-2" fill="#EAF5F0"></path>
                <g transform="translate(9.000000, 11.500000)" id="Rectangle-20-+-Path-16" stroke="#76CFA6">
                    <g transform="scale(1.0, 0.8)">
                        <rect id="Rectangle-20" x="0" y="0" width="13" height="17" rx="4"></rect>
                        <path d="M13,8.50795206 C13,11.2533934 15.8192656,12.6412404 15.8192656,12.6412404 C16.8995921,13.391019 17.7753697,12.9258617 17.7753697,11.6159552 L17.7753697,5.39994895 C17.7753697,4.08392094 16.8771592,3.5920349 15.8192656,4.37466376 C15.8192656,4.37466376 13,5.76251076 13,8.50795206 Z" id="Path-16"></path>
                    </g>
                </g>
            </g>
        </g>
    </g>
</svg>
