<?xml version="1.0" encoding="utf-8"?>
<!-- Generator: Adobe Illustrator 21.0.0, SVG Export Plug-In . SVG Version: 6.00 Build 0)  -->
<svg version="1.1" id="Layer_1" xmlns="http://www.w3.org/2000/svg" xmlns:xlink="http://www.w3.org/1999/xlink" x="0px" y="0px"
	 viewBox="0 0 25 25" style="enable-background:new 0 0 25 25;" xml:space="preserve">
<g id="icons_people">
	<path id="Oval-1-Copy-7" fill="#76CFA6" d="M12.5,25C19.4,25,25,19.4,25,12.5S19.4,0,12.5,0S0,5.6,0,12.5S5.6,25,12.5,25z"/>
	<g id="text3879" transform="scale(1.0243293,0.97624855)">
		<path id="path3002" fill="#ffffff" d="M15.3,11.1l-0.6,3.3h2.8v1.3h-3l-0.8,4.2h-1.3l0.8-4.2h-3l-0.8,4.2H8.1l0.8-4.2H6.3v-1.3h2.8
			l0.7-3.3H7.1V9.9H10l0.8-4.3h1.4l-0.8,4.3h3l0.8-4.3h1.3l-0.8,4.3h2.6v1.2H15.3 M10.4,14.5h3l0.6-3.3h-3L10.4,14.5"/>
	</g>
</g>
</svg>
