<?xml version="1.0" encoding="UTF-8" standalone="no"?>
<svg width="25px" height="25px" viewBox="0 0 25 25" version="1.1" xmlns="http://www.w3.org/2000/svg" xmlns:xlink="http://www.w3.org/1999/xlink">
    <!-- Generator: sketchtool 39.1 (31720) - http://www.bohemiancoding.com/sketch -->
    <title>5E723325-BD0B-454D-BE25-638AF09A97AC</title>
    <desc>Created with sketchtool.</desc>
    <defs>
        <path d="M5.5,15.8888889 C6.51252204,15.8888889 7.33333333,15.0680776 7.33333333,14.0555556 C7.33333333,13.0430335 6.51252204,12.2222222 5.5,12.2222222 C4.48747796,12.2222222 3.66666667,13.0430335 3.66666667,14.0555556 C3.66666667,15.0680776 4.48747796,15.8888889 5.5,15.8888889 Z" id="path-1"></path>
        <mask id="mask-2" maskContentUnits="userSpaceOnUse" maskUnits="objectBoundingBox" x="0" y="0" width="3.66666667" height="3.66666667" fill="white">
            <use xlink:href="#path-1"></use>
        </mask>
        <rect id="path-3" x="0" y="2.44444444" width="11" height="11" rx="2"></rect>
        <mask id="mask-4" maskContentUnits="userSpaceOnUse" maskUnits="objectBoundingBox" x="0" y="0" width="11" height="11" fill="white">
            <use xlink:href="#path-3"></use>
        </mask>
    </defs>
    <g id="Symbols" stroke="none" stroke-width="1" fill="none" fill-rule="evenodd">
        <g id="Right-panel/Header" transform="translate(-100.000000, -23.000000)">
            <g id="icons_notifications" transform="translate(100.000000, 23.000000)">
                <path d="M12.5,25 C19.4035594,25 25,19.4035594 25,12.5 C25,5.59644063 19.4035594,0 12.5,0 C5.59644063,0 0,5.59644063 0,12.5 C0,19.4035594 5.59644063,25 12.5,25 Z" id="Oval-1-Copy-7" fill="#76CFA6"></path>
                <g id="Group-8" opacity="0.8" transform="translate(7.000000, 4.000000)" stroke="#FFFFFF">
                    <use id="Oval-49" mask="url(#mask-2)" stroke-width="2" xlink:href="#path-1"></use>
                    <use id="Rectangle-15" mask="url(#mask-4)" stroke-width="2" fill="#76CFA6" xlink:href="#path-3"></use>
                    <path d="M4.27777778,1.83333333 L6.72222222,1.83333333" id="Line" stroke-linecap="round"></path>
                </g>
            </g>
        </g>
    </g>
</svg>