<?xml version="1.0" encoding="UTF-8"?>
<svg width="25px" height="25px" viewBox="0 0 25 25" version="1.1" xmlns="http://www.w3.org/2000/svg" xmlns:xlink="http://www.w3.org/1999/xlink">
    <!-- Generator: Sketch 48.2 (47327) - http://www.bohemiancoding.com/sketch -->
    <title>icons_global copy 3</title>
    <desc>Created with Sketch.</desc>
    <defs></defs>
    <g id="LeftPanel-for-Groups-C-Copy" stroke="none" stroke-width="1" fill="none" fill-rule="evenodd" transform="translate(-17.000000, -23.000000)">
        <g id="icons_global-copy-3" transform="translate(17.000000, 23.000000)">
            <path d="M12.5,25 C19.4035594,25 25,19.4035594 25,12.5 C25,5.59644063 19.4035594,0 12.5,0 C5.59644063,0 0,5.59644063 0,12.5 C0,19.4035594 5.59644063,25 12.5,25 Z" id="Oval-1-Copy-7" fill="#76CFA6"></path>
            <g id="Group-8" transform="translate(4.000000, 4.000000)" stroke="#FFFFFF">
                <g id="Group-7">
                    <path d="M2.08438092,4.61393546 C2.3923895,4.84126307 2.76695149,5.05598664 3.20806749,5.25810683 C4.66993461,5.92793711 6.43389447,6.26284722 8.5,6.26284722 C10.5661055,6.26284722 12.3300654,5.92793711 13.7919325,5.25810683 C14.2330485,5.05598664 14.6076105,4.84126307 14.9156191,4.61393546 C15.628357,5.76198958 15.9847222,7.05733842 15.9847222,8.5 C15.9847222,10.5661055 15.2537996,12.3300654 13.7919325,13.7919325 C12.3300654,15.2537996 10.5661055,15.9847222 8.5,15.9847222 C6.43389447,15.9847222 4.66993461,15.2537996 3.20806749,13.7919325 C1.74620037,12.3300654 1.01527778,10.5661055 1.01527778,8.5 C1.01527778,7.05733842 1.371643,5.76198958 2.08438092,4.61393546 Z" id="Combined-Shape"></path>
                    <path d="M14.9123496,12.3913259 C14.604961,12.1658652 14.2314889,11.9528657 13.7919325,11.7523268 C12.3300654,11.0853787 10.5661055,10.7519097 8.5,10.7519097 C6.43389447,10.7519097 4.66993461,11.0853787 3.20806749,11.7523268 C2.76851112,11.9528657 2.39503897,12.1658652 2.08765045,12.3913259 C1.37273284,11.2419685 1.01527778,9.94486586 1.01527778,8.5 C1.01527778,6.43389447 1.74620037,4.66993461 3.20806749,3.20806749 C4.66993461,1.74620037 6.43389447,1.01527778 8.5,1.01527778 C10.5661055,1.01527778 12.3300654,1.74620037 13.7919325,3.20806749 C15.2537996,4.66993461 15.9847222,6.43389447 15.9847222,8.5 C15.9847222,9.94486586 15.6272672,11.2419685 14.9123496,12.3913259 Z" id="Combined-Shape"></path>
                    <path d="M11.3923611,8.5 C11.3923611,6.43389447 11.1099068,4.66993461 10.5449897,3.20806749 C9.98007259,1.74620037 9.29841617,1.01527778 8.5,1.01527778 C7.70158383,1.01527778 7.01992741,1.74620037 6.45501031,3.20806749 C5.8900932,4.66993461 5.60763889,6.43389447 5.60763889,8.5 C5.60763889,10.5661055 5.8900932,12.3300654 6.45501031,13.7919325 C7.01992741,15.2537996 7.70158383,15.9847222 8.5,15.9847222 C9.29841617,15.9847222 9.98007259,15.2537996 10.5449897,13.7919325 C11.1099068,12.3300654 11.3923611,10.5661055 11.3923611,8.5 L11.3923611,8.5 Z" id="icons_settings-copy-4"></path>
                </g>
            </g>
        </g>
    </g>
</svg>