<?xml version="1.0" encoding="UTF-8"?>
<svg width="25px" height="25px" viewBox="0 0 25 25" version="1.1" xmlns="http://www.w3.org/2000/svg" xmlns:xlink="http://www.w3.org/1999/xlink">
    <!-- Generator: Sketch 48.2 (47327) - http://www.bohemiancoding.com/sketch -->
    <title>icons_global copy 4</title>
    <desc>Created with Sketch.</desc>
    <defs></defs>
    <g id="LeftPanel-for-Groups-C-Copy" stroke="none" stroke-width="1" fill="none" fill-rule="evenodd" transform="translate(-17.000000, -23.000000)">
        <g id="icons_global-copy-4" transform="translate(17.000000, 23.000000)">
            <path d="M12.5,25 C19.4035594,25 25,19.4035594 25,12.5 C25,5.59644063 19.4035594,0 12.5,0 C5.59644063,0 0,5.59644063 0,12.5 C0,19.4035594 5.59644063,25 12.5,25 Z" id="Oval-1-Copy-7" fill="#76CFA6"></path>
            <g id="Group-8" transform="translate(5.000000, 5.000000)" stroke="#FFFFFF">
                <g id="Group-7">
                    <path d="M14.9847222,7.5 C14.9847222,5.43389447 14.2537996,3.66993461 12.7919325,2.20806749 C11.3300654,0.746200373 9.56610553,0.0152777778 7.5,0.0152777778 C5.43389447,0.0152777778 3.66993461,0.746200373 2.20806749,2.20806749 C0.746200373,3.66993461 0.0152777778,5.43389447 0.0152777778,7.5 C0.0152777778,9.56610553 0.746200373,11.3300654 2.20806749,12.7919325 C3.66993461,14.2537996 5.43389447,14.9847222 7.5,14.9847222 C9.56610553,14.9847222 11.3300654,14.2537996 12.7919325,12.7919325 C14.2537996,11.3300654 14.9847222,9.56610553 14.9847222,7.5 L14.9847222,7.5 Z" id="icons_settings-copy"></path>
                    <path d="M10.3923611,7.5 C10.3923611,5.43389447 10.1099068,3.66993461 9.54498969,2.20806749 C8.98007259,0.746200373 8.29841617,0.0152777778 7.5,0.0152777778 C6.70158383,0.0152777778 6.01992741,0.746200373 5.45501031,2.20806749 C4.8900932,3.66993461 4.60763889,5.43389447 4.60763889,7.5 C4.60763889,9.56610553 4.8900932,11.3300654 5.45501031,12.7919325 C6.01992741,14.2537996 6.70158383,14.9847222 7.5,14.9847222 C8.29841617,14.9847222 8.98007259,14.2537996 9.54498969,12.7919325 C10.1099068,11.3300654 10.3923611,9.56610553 10.3923611,7.5 L10.3923611,7.5 Z" id="icons_settings-copy-4"></path>
                </g>
                <path d="M0.5,7.5 L14.5,7.5" id="Line-3" stroke-linecap="square"></path>
            </g>
        </g>
    </g>
</svg>