<?xml version="1.0" encoding="UTF-8"?>
<!DOCTYPE svg PUBLIC "-//W3C//DTD SVG 1.1//EN" "http://www.w3.org/Graphics/SVG/1.1/DTD/svg11.dtd">
<svg version="1.1" xmlns="http://www.w3.org/2000/svg" xmlns:xlink="http://www.w3.org/1999/xlink" x="0" y="0" width="16" height="12" viewBox="0, 0, 16, 12">
  <g id="Screens-revised" opacity="0.2">
    <path d="M7.142,0.009 C7.687,0.152 7.921,0.47 8,1 L8,11 C8,11.866 6.974,12.323 6.33,11.743 L3.288,9 L1,9 C0.448,9 0,8.552 0,8 L0,4 C0,3.448 0.448,3 1,3 L3.278,3 L6.332,0.256 C6.744,-0.016 6.487,0.101 7.142,0.009 z M7,1 L3.661,4 L1,4 L1,8 L3.672,8 L7,11 L7,1 z" fill="#000000" id="path-1"/>
    <path d="M9.878,7.667 C10.82,7.667 11.584,6.92 11.584,6 C11.584,5.08 10.82,4.333 9.878,4.333" fill-opacity="0" stroke="#000000" stroke-width="1" stroke-linecap="round" id="Oval-50"/>
    <path d="M10.055,9.333 C11.939,9.333 13.466,7.841 13.466,6 C13.466,4.159 11.939,2.667 10.055,2.667" fill-opacity="0" stroke="#000000" stroke-width="1" stroke-linecap="round" id="Oval-50-Copy"/>
    <path d="M10.055,11 C12.881,11 15.172,8.761 15.172,6 C15.172,3.239 12.881,1 10.055,1" fill-opacity="0" stroke="#000000" stroke-width="1" stroke-linecap="round" id="Oval-50-Copy-2"/>
  </g>
</svg>
