<?xml version="1.0" encoding="utf-8"?>
<!-- Generator: Adobe Illustrator 15.0.0, SVG Export Plug-In . SVG Version: 6.00 Build 0)  -->
<!DOCTYPE svg PUBLIC "-//W3C//DTD SVG 1.1//EN" "http://www.w3.org/Graphics/SVG/1.1/DTD/svg11.dtd">
<svg version="1.1" id="Layer_1" xmlns="http://www.w3.org/2000/svg" xmlns:xlink="http://www.w3.org/1999/xlink" x="0px" y="0px"
	 width="500px" height="500px" viewBox="0 0 500 500" enable-background="new 0 0 500 500" xml:space="preserve">
<g id="Layer_1_1_" opacity="0.15">
	<path id="Oval-109-Copy" fill="#76CFA6" d="M250,500c138.571,0,250-111.429,250-250S388.571,0,250,0S0,111.429,0,250
		S111.429,500,250,500z"/>
</g>
<path fill="#76CFA6" d="M249,60C143.553,60,59,145.5,59,250s84.553,190,190,190c105.448,0,190-85.5,190-190S353.501,60,249,60z
	 M249,416.4c-91.518,0-166.404-74.883-166.404-166.4c0-91.518,74.887-166.4,166.404-166.4c91.517,0,166.404,74.882,166.404,166.4
	C415.404,341.518,340.518,416.4,249,416.4z M321.8,229.2c17.684,0,31.201-13.518,31.201-31.2s-13.519-31.2-31.201-31.2
	c-17.682,0-31.2,13.518-31.2,31.2S304.118,229.2,321.8,229.2z M176.2,229.2c17.682,0,31.2-13.518,31.2-31.2s-13.519-31.2-31.2-31.2
	c-17.683,0-31.201,13.518-31.201,31.2S158.518,229.2,176.2,229.2z M249,364.4c48.883,0,89.436-30.164,106.081-72.801H142.919
	C159.564,334.236,200.117,364.4,249,364.4z"/>
</svg>
