<?xml version="1.0" encoding="utf-8"?>
<!-- Generator: Adobe Illustrator 21.0.0, SVG Export Plug-In . SVG Version: 6.00 Build 0)  -->
<svg version="1.1" id="Layer_1" xmlns="http://www.w3.org/2000/svg" xmlns:xlink="http://www.w3.org/1999/xlink" x="0px" y="0px"
	 viewBox="0 0 35 35" style="enable-background:new 0 0 35 35;" xml:space="preserve">
<style type="text/css">
	.st1{opacity:0.85;}
	.st2{fill:none;stroke:#FFFFFF;stroke-width:1;stroke-linecap:round;stroke-miterlimit:10;}
	.st3{fill:#FFFFFF;}
	.st4{fill:none;stroke:#FFFFFF;stroke-linejoin:round;stroke-miterlimit:10;}
</style>
<g id="Layer_1_1_">
	<path id="Oval-109-Copy" fill="#76CFA6" d="M17.5,35C27.2,35,35,27.2,35,17.5S27.2,0,17.5,0S0,7.8,0,17.5S7.8,35,17.5,35z"/>
</g>
<g id="frame" class="st1">
	<g id="Layer_3">
		<g>
			<g>
				<line class="st2" x1="17.5" y1="21" x2="17.5" y2="26"/>
				<g>
					<polygon class="st3" points="15.5,21.8 17.5,18.3 19.5,21.8 					"/>
				</g>
			</g>
		</g>
	</g>
	<rect x="6.7" y="6.7" class="st4" width="21.6" height="21.6"/>
	<line class="st4" x1="6.7" y1="16.7" x2="28.2" y2="16.7"/>
	<path class="st3" d="M13.3,13.3v-3.1c0-0.1-0.1-0.3-0.3-0.3H9.9c-0.1,0-0.3,0.1-0.3,0.3v3.1c0,0.1,0.1,0.3,0.3,0.3H13
		C13.2,13.5,13.3,13.4,13.3,13.3z"/>
	<path class="st3" d="M19.3,13.3v-3.1c0-0.1-0.1-0.3-0.3-0.3h-3.1c-0.1,0-0.3,0.1-0.3,0.3v3.1c0,0.1,0.1,0.3,0.3,0.3H19
		C19.2,13.5,19.3,13.4,19.3,13.3z"/>
	<path class="st3" d="M25.3,13.3v-3.1c0-0.1-0.1-0.3-0.3-0.3h-3.1c-0.1,0-0.3,0.1-0.3,0.3v3.1c0,0.1,0.1,0.3,0.3,0.3H25
		C25.2,13.5,25.3,13.4,25.3,13.3z"/>
</g>
</svg>
