<?xml version="1.0" encoding="UTF-8" standalone="no"?>
<!DOCTYPE svg PUBLIC "-//W3C//DTD SVG 1.1//EN" "http://www.w3.org/Graphics/SVG/1.1/DTD/svg11.dtd">
<svg width="100%" height="100%" viewBox="0 0 25 25" version="1.1" xmlns="http://www.w3.org/2000/svg" xmlns:xlink="http://www.w3.org/1999/xlink" xml:space="preserve" style="fill-rule:evenodd;clip-rule:evenodd;stroke-linejoin:round;stroke-miterlimit:1.41421;">
    <g transform="matrix(1,0,0,1,-136,-0)">
        <g id="icons_ellipsis" transform="matrix(1,0,0,1,-41.6501,0)">
            <g transform="matrix(1,0,0,1,184.655,11.618)">
                <path d="M0.826,1.764C1.33,1.764 1.652,1.386 1.652,0.882C1.652,0.364 1.33,0 0.826,0C0.336,0 0,0.364 0,0.882C-0.014,1.386 0.336,1.764 0.826,1.764ZM5.488,1.764C5.992,1.764 6.328,1.386 6.328,0.882C6.314,0.364 5.992,0 5.502,0C5.012,0 4.662,0.364 4.662,0.882C4.648,1.386 4.998,1.764 5.488,1.764ZM10.15,1.764C10.668,1.764 10.99,1.386 10.99,0.882C10.99,0.364 10.654,0 10.164,0C9.674,0 9.324,0.364 9.324,0.882C9.324,1.386 9.66,1.764 10.15,1.764Z" style="fill:rgb(205,205,205);"/>
            </g>
        </g>
    </g>
</svg>
