<?xml version="1.0" encoding="UTF-8" standalone="no"?>
<svg width="14px" height="14px" viewBox="0 0 14 14" version="1.1" xmlns="http://www.w3.org/2000/svg" xmlns:xlink="http://www.w3.org/1999/xlink">
    <!-- Generator: sketchtool 39 (31667) - http://www.bohemiancoding.com/sketch -->
    <title>10D08937-6AF5-4D8D-B404-A785610B45B0</title>
    <desc>Created with sketchtool.</desc>
    <defs></defs>
    <g id="Screens-revised" stroke="none" stroke-width="1" fill="none" fill-rule="evenodd">
        <g id="02_18-Chat-message-states" transform="translate(-937.000000, -579.000000)">
            <g id="Group-3-Copy-4" transform="translate(239.000000, 545.000000)">
                <g id="icon_context" transform="translate(698.000000, 34.000000)">
                    <circle id="Oval-69" fill="#EEEEEE" cx="7" cy="7" r="7"></circle>
                    <path d="M2.62841797,7.23193359 C2.62841797,6.93115084 2.70898357,6.70377681 2.87011719,6.54980469 C3.03125081,6.39583256 3.26578622,6.31884766 3.57373047,6.31884766 C3.87093248,6.31884766 4.10099202,6.39762291 4.26391602,6.55517578 C4.42684001,6.71272865 4.50830078,6.93831233 4.50830078,7.23193359 C4.50830078,7.51481261 4.42594483,7.73771077 4.26123047,7.90063477 C4.0965161,8.06355876 3.86735173,8.14501953 3.57373047,8.14501953 C3.27294771,8.14501953 3.04020265,8.0653491 2.87548828,7.90600586 C2.71077392,7.74666261 2.62841797,7.52197411 2.62841797,7.23193359 L2.62841797,7.23193359 Z M5.75976562,7.23193359 C5.75976562,6.93115084 5.84033123,6.70377681 6.00146484,6.54980469 C6.16259846,6.39583256 6.39892422,6.31884766 6.71044922,6.31884766 C7.00765123,6.31884766 7.23771077,6.39762291 7.40063477,6.55517578 C7.56355876,6.71272865 7.64501953,6.93831233 7.64501953,7.23193359 C7.64501953,7.51481261 7.56266358,7.73771077 7.39794922,7.90063477 C7.23323485,8.06355876 7.00407048,8.14501953 6.71044922,8.14501953 C6.40608572,8.14501953 6.1715503,8.0653491 6.00683594,7.90600586 C5.84212157,7.74666261 5.75976562,7.52197411 5.75976562,7.23193359 L5.75976562,7.23193359 Z M8.89648438,7.23193359 C8.89648438,6.93115084 8.97704998,6.70377681 9.13818359,6.54980469 C9.29931721,6.39583256 9.53385263,6.31884766 9.84179688,6.31884766 C10.1389989,6.31884766 10.3690584,6.39762291 10.5319824,6.55517578 C10.6949064,6.71272865 10.7763672,6.93831233 10.7763672,7.23193359 C10.7763672,7.51481261 10.6940112,7.73771077 10.5292969,7.90063477 C10.3645825,8.06355876 10.1354181,8.14501953 9.84179688,8.14501953 C9.54101412,8.14501953 9.30826905,8.0653491 9.14355469,7.90600586 C8.97884032,7.74666261 8.89648438,7.52197411 8.89648438,7.23193359 L8.89648438,7.23193359 Z" id="…" fill="#9B9B9B"></path>
                </g>
            </g>
        </g>
    </g>
</svg>