<?xml version="1.0" encoding="UTF-8" standalone="no"?>
<!DOCTYPE svg PUBLIC "-//W3C//DTD SVG 1.1//EN" "http://www.w3.org/Graphics/SVG/1.1/DTD/svg11.dtd">
<svg width="100%" height="100%" viewBox="0 0 15 15" version="1.1" xmlns="http://www.w3.org/2000/svg" xmlns:xlink="http://www.w3.org/1999/xlink" xml:space="preserve" style="fill-rule:evenodd;clip-rule:evenodd;stroke-linejoin:round;stroke-miterlimit:1.41421;">
    <g transform="matrix(1,0,0,1,-0,-40)">
        <g id="icon_context_fave" transform="matrix(0.600982,0,0,0.600982,0,40)">
            <g transform="matrix(1.66394,0,0,1.66394,1.66394,2.71716)">
                <rect x="0" y="0" width="13" height="13" style="fill:rgb(224,223,224);fill-opacity:0;fill-rule:nonzero;"/>
                <path d="M6.572,-0.495C6.614,-0.486 6.625,-0.486 6.666,-0.472C6.793,-0.427 6.884,-0.337 6.948,-0.221L8.742,3.414L12.754,3.997L12.801,4.006C12.88,4.029 12.951,4.062 13.013,4.117C13.161,4.248 13.218,4.459 13.157,4.646C13.132,4.725 13.087,4.789 13.031,4.849L10.128,7.679L10.813,11.674L10.819,11.722C10.821,11.804 10.812,11.882 10.779,11.958C10.7,12.139 10.517,12.259 10.32,12.259C10.237,12.259 10.162,12.236 10.088,12.201L6.5,10.315L2.912,12.201L2.868,12.222C2.791,12.249 2.714,12.264 2.631,12.256C2.435,12.237 2.265,12.1 2.204,11.913C2.178,11.834 2.177,11.756 2.187,11.674L2.872,7.679L-0.031,4.849L-0.064,4.814C-0.114,4.749 -0.152,4.681 -0.17,4.599C-0.213,4.407 -0.135,4.202 0.024,4.087C0.092,4.038 0.166,4.012 0.246,3.997L4.258,3.414L6.052,-0.221L6.075,-0.264C6.099,-0.299 6.104,-0.309 6.134,-0.34C6.211,-0.423 6.316,-0.478 6.428,-0.495C6.477,-0.502 6.523,-0.499 6.572,-0.495ZM5.038,4.092C5.017,4.13 5.013,4.14 4.987,4.174C4.928,4.251 4.847,4.31 4.755,4.342C4.715,4.357 4.704,4.357 4.662,4.365L1.393,4.841L3.758,7.146L3.791,7.182C3.817,7.216 3.825,7.224 3.846,7.261C3.903,7.364 3.916,7.474 3.902,7.589L3.343,10.845L6.267,9.307L6.311,9.287C6.42,9.249 6.531,9.237 6.643,9.271C6.684,9.283 6.694,9.289 6.733,9.307L9.657,10.845L9.098,7.589L9.092,7.541C9.089,7.425 9.113,7.317 9.18,7.22C9.204,7.185 9.213,7.178 9.242,7.146L11.607,4.841L8.338,4.365L8.291,4.356C8.25,4.344 8.239,4.342 8.2,4.324C8.093,4.275 8.018,4.193 7.962,4.092L6.5,1.13C6.013,2.117 5.525,3.105 5.038,4.092Z" style="fill:rgb(205,205,205);fill-rule:nonzero;"/>
            </g>
        </g>
    </g>
</svg>
