<?xml version="1.0" encoding="UTF-8" standalone="no"?>
<svg width="24px" height="24px" viewBox="0 0 24 24" version="1.1" xmlns="http://www.w3.org/2000/svg" xmlns:xlink="http://www.w3.org/1999/xlink" xmlns:sketch="http://www.bohemiancoding.com/sketch/ns">
    <!-- Generator: sketchtool 3.5.1 (25234) - http://www.bohemiancoding.com/sketch -->
    <title>icons_settings</title>
    <desc>Created with sketchtool.</desc>
    <defs></defs>
    <g id="09-Invitations-and-joining" stroke="none" stroke-width="1" fill="none" fill-rule="evenodd" sketch:type="MSPage">
        <g id="09_1-Invite-members" sketch:type="MSArtboardGroup" transform="translate(-886.000000, -25.000000)">
            <g id="Room-header" sketch:type="MSLayerGroup" transform="translate(210.000000, 0.000000)">
                <g id="icons_settings" transform="translate(676.000000, 25.000000)" sketch:type="MSShapeGroup">
                    <circle id="Oval-1-Copy-7" fill="#76CFA6" cx="12" cy="12" r="12"></circle>
                    <path d="M15,12 C15,11.1718709 14.7070342,10.4648467 14.1210938,9.87890625 C13.5351533,9.29296582 12.8281291,9 12,9 C11.1718709,9 10.4648467,9.29296582 9.87890625,9.87890625 C9.29296582,10.4648467 9,11.1718709 9,12 C9,12.8281291 9.29296582,13.5351533 9.87890625,14.1210938 C10.4648467,14.7070342 11.1718709,15 12,15 C12.8281291,15 13.5351533,14.7070342 14.1210938,14.1210938 C14.7070342,13.5351533 15,12.8281291 15,12 L15,12 Z M19,11.0065104 L19,13.0299479 C19,13.1028649 18.9756947,13.1727427 18.9270833,13.2395833 C18.878472,13.3064239 18.8177087,13.3459201 18.7447917,13.3580729 L17.0585938,13.6132812 C16.9431418,13.9414079 16.8246534,14.2178808 16.703125,14.4427083 C16.9157997,14.7465293 17.2408832,15.1657959 17.6783854,15.7005208 C17.7391496,15.7734379 17.7695312,15.849392 17.7695312,15.9283854 C17.7695312,16.0073789 17.7421878,16.0772566 17.6875,16.1380208 C17.5234367,16.3628483 17.2226584,16.6909701 16.7851562,17.1223958 C16.3476541,17.5538216 16.0620666,17.7695312 15.9283854,17.7695312 C15.8554684,17.7695312 15.7764761,17.7421878 15.6914062,17.6875 L14.4335938,16.703125 C14.1662313,16.8428826 13.8897584,16.9583329 13.6041667,17.0494792 C13.506944,17.8758722 13.4188372,18.4409707 13.3398438,18.7447917 C13.2973088,18.9149314 13.1879349,19 13.0117188,19 L10.9882812,19 C10.9032114,19 10.8287764,18.9741756 10.764974,18.922526 C10.7011716,18.8708765 10.6662327,18.805556 10.6601562,18.7265625 L10.4049479,17.0494792 C10.1072034,16.9522565 9.83376861,16.8398444 9.58463542,16.7122396 L8.29947917,17.6875 C8.23871497,17.7421878 8.16276087,17.7695312 8.07161458,17.7695312 C7.98654471,17.7695312 7.91059061,17.7361114 7.84375,17.6692708 C7.07812117,16.976559 6.5768241,16.4661475 6.33984375,16.1380208 C6.29730882,16.0772566 6.27604167,16.0073789 6.27604167,15.9283854 C6.27604167,15.8554684 6.30034698,15.7855906 6.34895833,15.71875 C6.44010462,15.5911452 6.59505099,15.3891073 6.81380208,15.1126302 C7.03255318,14.8361531 7.19661404,14.6219626 7.30598958,14.4700521 C7.14192626,14.1662311 7.01736154,13.8654529 6.93229167,13.5677083 L5.26432292,13.3216146 C5.18532947,13.3094617 5.12152802,13.2714847 5.07291667,13.2076823 C5.02430531,13.1438799 5,13.072483 5,12.9934896 L5,10.9700521 C5,10.8971351 5.02430531,10.8272573 5.07291667,10.7604167 C5.12152802,10.6935761 5.17925314,10.6540799 5.24609375,10.6419271 L6.94140625,10.3867188 C7.02647612,10.1072035 7.14496452,9.82769237 7.296875,9.54817708 C7.05381823,9.20182118 6.72873467,8.78255454 6.32161458,8.29036458 C6.26085039,8.21744755 6.23046875,8.14453161 6.23046875,8.07161458 C6.23046875,8.01085039 6.25781223,7.94097262 6.3125,7.86197917 C6.4704869,7.64322807 6.76974606,7.31662544 7.21028646,6.88216146 C7.65082686,6.44769748 7.93793336,6.23046875 8.07161458,6.23046875 C8.15060803,6.23046875 8.2296003,6.26085039 8.30859375,6.32161458 L9.56640625,7.296875 C9.8337687,7.15711736 10.1102416,7.04166712 10.3958333,6.95052083 C10.493056,6.12412781 10.5811628,5.5590293 10.6601562,5.25520833 C10.7026912,5.08506859 10.8120651,5 10.9882812,5 L13.0117188,5 C13.0967886,5 13.1712236,5.02582439 13.235026,5.07747396 C13.2988284,5.12912352 13.3337673,5.19444405 13.3398438,5.2734375 L13.5950521,6.95052083 C13.8927966,7.04774354 14.1662314,7.16015561 14.4153646,7.28776042 L15.7096354,6.3125 C15.7643232,6.25781223 15.8372391,6.23046875 15.9283854,6.23046875 C16.0073789,6.23046875 16.083333,6.26085039 16.15625,6.32161458 C16.9401081,7.04470848 17.4414052,7.56119637 17.6601562,7.87109375 C17.7026912,7.9197051 17.7239583,7.98654471 17.7239583,8.07161458 C17.7239583,8.14453161 17.699653,8.21440939 17.6510417,8.28125 C17.5598954,8.4088548 17.404949,8.61089271 17.1861979,8.88736979 C16.9674468,9.16384687 16.803386,9.37803743 16.6940104,9.52994792 C16.8519973,9.83376888 16.976562,10.131509 17.0677083,10.4231771 L18.7356771,10.6783854 C18.8146705,10.6905383 18.878472,10.7285153 18.9270833,10.7923177 C18.9756947,10.8561201 19,10.927517 19,11.0065104 L19,11.0065104 Z" id="icons_settings-copy" fill="#FFFFFF"></path>
                </g>
            </g>
        </g>
    </g>
</svg>