<?xml version="1.0" encoding="UTF-8" standalone="no"?>
<svg width="24px" height="24px" viewBox="0 0 24 24" version="1.1" xmlns="http://www.w3.org/2000/svg" xmlns:xlink="http://www.w3.org/1999/xlink">
    <!-- Generator: Sketch 3.7 (28169) - http://www.bohemiancoding.com/sketch -->
    <title>right_search</title>
    <desc>Created with Sketch.</desc>
    <defs></defs>
    <g id="Symbols" stroke="none" stroke-width="1" fill="none" fill-rule="evenodd">
        <g id="Room-header/Vector-Design" transform="translate(-710.000000, -25.000000)">
            <g id="right_search" transform="translate(710.000000, 25.000000)">
                <g id="Oval-1-Copy-7-+-Group-Copy-5-Copy-Copy-Copy-Copy-Copy-Copy-Copy-Copy-Copy-Copy" fill="#76CFA6">
                    <circle id="Oval-1-Copy-7" cx="12" cy="12" r="12"></circle>
                </g>
                <path d="M14,10.5 C14,9.53645352 13.6575555,8.71224301 12.9726562,8.02734375 C12.287757,7.34244449 11.4635465,7 10.5,7 C9.53645352,7 8.71224301,7.34244449 8.02734375,8.02734375 C7.34244449,8.71224301 7,9.53645352 7,10.5 C7,11.4635465 7.34244449,12.287757 8.02734375,12.9726562 C8.71224301,13.6575555 9.53645352,14 10.5,14 C11.4635465,14 12.287757,13.6575555 12.9726562,12.9726562 C13.6575555,12.287757 14,11.4635465 14,10.5 L14,10.5 Z M18,17 C18,17.2708347 17.9010427,17.5052073 17.703125,17.703125 C17.5052073,17.9010427 17.2708347,18 17,18 C16.7187486,18 16.4843759,17.9010427 16.296875,17.703125 L13.6171875,15.03125 C12.6848912,15.6770866 11.6458391,16 10.5,16 C9.75520461,16 9.04297215,15.8554702 8.36328125,15.5664062 C7.68359035,15.2773423 7.09765871,14.8867212 6.60546875,14.3945312 C6.11327879,13.9023413 5.7226577,13.3164096 5.43359375,12.6367188 C5.1445298,11.9570279 5,11.2447954 5,10.5 C5,9.75520461 5.1445298,9.04297215 5.43359375,8.36328125 C5.7226577,7.68359035 6.11327879,7.09765871 6.60546875,6.60546875 C7.09765871,6.11327879 7.68359035,5.7226577 8.36328125,5.43359375 C9.04297215,5.1445298 9.75520461,5 10.5,5 C11.2447954,5 11.9570279,5.1445298 12.6367188,5.43359375 C13.3164096,5.7226577 13.9023413,6.11327879 14.3945312,6.60546875 C14.8867212,7.09765871 15.2773423,7.68359035 15.5664062,8.36328125 C15.8554702,9.04297215 16,9.75520461 16,10.5 C16,11.6458391 15.6770866,12.6848912 15.03125,13.6171875 L17.7109375,16.296875 C17.9036468,16.4895843 18,16.723957 18,17 L18,17 Z" id="" fill="#FFFFFF"></path>
            </g>
        </g>
    </g>
</svg>