<?xml version="1.0" encoding="UTF-8" standalone="no"?>
<svg width="21px" height="26px" viewBox="-1 -1 21 26" version="1.1" xmlns="http://www.w3.org/2000/svg" xmlns:xlink="http://www.w3.org/1999/xlink" xmlns:sketch="http://www.bohemiancoding.com/sketch/ns">
    <!-- Generator: Sketch 3.4.4 (17249) - http://www.bohemiancoding.com/sketch -->
    <title>Audio</title>
    <desc>Created with Sketch.</desc>
    <defs></defs>
    <g id="05-Voice-and-video" stroke="none" stroke-width="1" fill="none" fill-rule="evenodd" sketch:type="MSPage">
        <g id="05_2-Video-call" sketch:type="MSArtboardGroup" transform="translate(-912.000000, -665.000000)">
            <g id="Audio" sketch:type="MSLayerGroup" transform="translate(912.000000, 665.000000)">
                <path d="M6.51108197,4.57927869 C6.51108197,2.62701639 8.09940984,1.03868852 10.0520656,1.03868852 C12.0047213,1.03868852 13.5930492,2.62701639 13.5930492,4.57927869 L13.5930492,12.448918 C13.5930492,14.4015738 12.0047213,15.9899016 10.0520656,15.9899016 C8.09940984,15.9899016 6.51108197,14.4015738 6.51108197,12.448918 L6.51108197,4.57927869 L6.51108197,4.57927869 Z M10.0520656,16.7767869 C12.4418361,16.7767869 14.3799344,14.839082 14.3799344,12.448918 L14.3799344,4.57927869 C14.3799344,2.18911475 12.4418361,0.251803279 10.0520656,0.251803279 C7.66229508,0.251803279 5.72419672,2.18911475 5.72419672,4.57927869 L5.72419672,12.448918 C5.72419672,14.839082 7.66229508,16.7767869 10.0520656,16.7767869 Z M15.9517377,8.51409836 L15.9517377,12.448918 C15.9517377,15.703082 13.3042623,18.3505574 10.0500984,18.3505574 C6.79554098,18.3505574 4.14845902,15.703082 4.14845902,12.448918 L4.14845902,8.51409836 L3.36157377,8.51409836 L3.36157377,12.448918 C3.36157377,16.0217705 6.17980328,18.9407213 9.70898361,19.1201311 L9.65862295,19.1201311 L9.65862295,23.080918 L6.11567213,23.080918 L6.11567213,23.8678033 L13.9845246,23.8678033 L13.9845246,23.080918 L10.4455082,23.080918 L10.4455082,19.1201311 L10.3912131,19.1201311 C13.9203934,18.9407213 16.738623,16.0217705 16.738623,12.448918 L16.738623,8.51409836 L15.9517377,8.51409836 Z" id="Fill-16" fill="#FFFFFF" sketch:type="MSShapeGroup"></path>
                <path d="M19,3 L0.272141024,20.6874224" id="Path-98" stroke="#FFFFFF" sketch:type="MSShapeGroup"></path>
            </g>
        </g>
    </g>
</svg>