<?xml version="1.0" encoding="UTF-8" standalone="no"?>
<svg width="21px" height="26px" viewBox="-4 -1 21 26" version="1.1" xmlns="http://www.w3.org/2000/svg" xmlns:xlink="http://www.w3.org/1999/xlink" xmlns:sketch="http://www.bohemiancoding.com/sketch/ns">
    <!-- Generator: Sketch 3.4.3 (16618) - http://www.bohemiancoding.com/sketch -->
    <title>Audio</title>
    <desc>Created with Sketch.</desc>
    <defs></defs>
    <g id="05-Voice-and-video" stroke="none" stroke-width="1" fill="none" fill-rule="evenodd" sketch:type="MSPage">
        <g id="05_2-Video-call" sketch:type="MSArtboardGroup" transform="translate(-915.000000, -665.000000)" fill="#FFFFFF">
            <g id="Audio" sketch:type="MSLayerGroup" transform="translate(915.000000, 665.000000)">
                <path d="M3.51108197,4.57927869 C3.51108197,2.62701639 5.09940984,1.03868852 7.05206557,1.03868852 C9.00472131,1.03868852 10.5930492,2.62701639 10.5930492,4.57927869 L10.5930492,12.448918 C10.5930492,14.4015738 9.00472131,15.9899016 7.05206557,15.9899016 C5.09940984,15.9899016 3.51108197,14.4015738 3.51108197,12.448918 L3.51108197,4.57927869 L3.51108197,4.57927869 Z M7.05206557,16.7767869 C9.44183607,16.7767869 11.3799344,14.839082 11.3799344,12.448918 L11.3799344,4.57927869 C11.3799344,2.18911475 9.44183607,0.251803279 7.05206557,0.251803279 C4.66229508,0.251803279 2.72419672,2.18911475 2.72419672,4.57927869 L2.72419672,12.448918 C2.72419672,14.839082 4.66229508,16.7767869 7.05206557,16.7767869 Z M12.9517377,8.51409836 L12.9517377,12.448918 C12.9517377,15.703082 10.3042623,18.3505574 7.05009836,18.3505574 C3.79554098,18.3505574 1.14845902,15.703082 1.14845902,12.448918 L1.14845902,8.51409836 L0.36157377,8.51409836 L0.36157377,12.448918 C0.36157377,16.0217705 3.17980328,18.9407213 6.70898361,19.1201311 L6.65862295,19.1201311 L6.65862295,23.080918 L3.11567213,23.080918 L3.11567213,23.8678033 L10.9845246,23.8678033 L10.9845246,23.080918 L7.4455082,23.080918 L7.4455082,19.1201311 L7.39121311,19.1201311 C10.9203934,18.9407213 13.738623,16.0217705 13.738623,12.448918 L13.738623,8.51409836 L12.9517377,8.51409836 Z" id="Fill-16" sketch:type="MSShapeGroup"></path>
            </g>
        </g>
    </g>
</svg>