<?xml version="1.0" encoding="utf-8"?>
<!-- Generator: Adobe Illustrator 15.0.0, SVG Export Plug-In . SVG Version: 6.00 Build 0)  -->
<!DOCTYPE svg PUBLIC "-//W3C//DTD SVG 1.1//EN" "http://www.w3.org/Graphics/SVG/1.1/DTD/svg11.dtd">
<svg version="1.1" id="Layer_1" xmlns="http://www.w3.org/2000/svg" xmlns:xlink="http://www.w3.org/1999/xlink" x="0px" y="0px"
	 width="500px" height="500px" viewBox="0 0 500 500" enable-background="new 0 0 500 500" xml:space="preserve">
<g>
	<g>
		<g>
			<defs>
				<path id="SVGID_1_" d="M191.667,56.25c33.333-60.417,85.417-60.417,118.75,0l172.916,320.834
					C516.667,437.5,487.5,487.5,416.667,487.5H83.333c-68.75,0-97.917-50-66.667-110.416L191.667,56.25L191.667,56.25z"/>
			</defs>
			<use xlink:href="#SVGID_1_"  overflow="visible" fill="#E8BF37"/>
			<clipPath id="SVGID_2_">
				<use xlink:href="#SVGID_1_"  overflow="visible"/>
			</clipPath>
			<rect x="-100" y="-93.75" clip-path="url(#SVGID_2_)" fill="#E8BF37" width="700" height="685.417"/>
		</g>
	</g>
	<g>
		<g>
			<defs>
				<path id="SVGID_3_" d="M264.584,322.916l6.25-200h-41.667l6.25,200H264.584L264.584,322.916z M250,408.334
					c14.584,0,25-10.418,25-25c0-14.584-10.416-25-25-25c-14.583,0-25,10.416-25,25C225,397.916,235.417,408.334,250,408.334
					L250,408.334L250,408.334z"/>
			</defs>
			<clipPath id="SVGID_4_">
				<use xlink:href="#SVGID_3_"  overflow="visible"/>
			</clipPath>
			<rect x="120.833" y="18.75" clip-path="url(#SVGID_4_)" fill="#FFFFFF" width="258.333" height="493.75"/>
		</g>
	</g>
</g>
</svg>
