<svg width="25" height="26" viewBox="0 0 25 26" fill="none" xmlns="http://www.w3.org/2000/svg">
<path d="M6.12451 19.095L6.12451 6.3457H4.53001L4.53001 19.095H6.12451Z" fill="#571EFA"/>
<path d="M18.9089 13.5161H12.5354C11.6548 13.5161 10.9409 14.23 10.9409 15.1106V16.7029C10.9409 17.5835 11.6548 18.2974 12.5354 18.2974H18.9089C19.7895 18.2974 20.5034 17.5835 20.5034 16.7029V15.1106C20.5034 14.23 19.7895 13.5161 18.9089 13.5161Z" fill="#571EFA"/>
<path d="M14.1277 7.1427H9.31276C8.43214 7.1427 7.71826 7.85658 7.71826 8.7372V10.3295C7.71826 11.2101 8.43214 11.924 9.31276 11.924H14.1277C15.0084 11.924 15.7222 11.2101 15.7222 10.3295V8.7372C15.7222 7.85658 15.0084 7.1427 14.1277 7.1427Z" fill="#341291"/>
</svg>
