<svg width="26" height="14" viewBox="0 0 26 14" fill="none" xmlns="http://www.w3.org/2000/svg">
<path fill-rule="evenodd" clip-rule="evenodd" d="M3.65397 13.1529C3.97397 12.8329 4.00534 12.3247 3.71671 11.9796C1.3073 9.04941 1.3073 4.7953 3.71044 1.85883C3.99906 1.50745 3.97397 0.992943 3.65397 0.672942C3.28377 0.302747 2.66887 0.327845 2.33632 0.735688C-0.593877 4.31843 -0.593877 9.50118 2.33632 13.0902C2.66259 13.498 3.2775 13.5294 3.65397 13.1529ZM6.18259 10.6243C6.49004 10.3169 6.52142 9.83373 6.26416 9.47608C5.17867 7.9451 5.17867 5.88706 6.26416 4.35608C6.51514 3.99843 6.49004 3.5153 6.18259 3.20784L6.17632 3.20157C5.79985 2.8251 5.15985 2.8502 4.8524 3.28314C3.29004 5.44157 3.29004 8.38432 4.8524 10.549C5.16612 10.982 5.79985 11.0071 6.18259 10.6243ZM13.3147 1.03914C10.8864 1.03914 8.92253 3.05652 8.92253 5.55086C8.92253 8.23855 11.6959 11.9446 12.8378 13.3561C13.0888 13.6655 13.5468 13.6655 13.7978 13.3561C14.9335 11.9446 17.7068 8.23855 17.7068 5.55086C17.7068 3.05652 15.7429 1.03914 13.3147 1.03914ZM13.3147 7.16219C12.4488 7.16219 11.7461 6.44031 11.7461 5.55086C11.7461 4.66141 12.4488 3.93953 13.3147 3.93953C14.1806 3.93953 14.8833 4.66141 14.8833 5.55086C14.8833 6.44031 14.1806 7.16219 13.3147 7.16219ZM22.3093 11.9796C22.0207 12.3247 22.0521 12.8329 22.3721 13.1529C22.7485 13.5294 23.3634 13.498 23.6897 13.0902C26.6199 9.50118 26.6199 4.31843 23.6897 0.735688C23.3572 0.327845 22.7423 0.302747 22.3721 0.672942C22.0521 0.992943 22.027 1.50745 22.3156 1.85883C24.7187 4.7953 24.7187 9.04941 22.3093 11.9796ZM19.7619 9.47608C19.5046 9.83373 19.536 10.3169 19.8434 10.6243C20.2262 11.0071 20.8599 10.982 21.1736 10.549C22.736 8.38432 22.736 5.44157 21.1736 3.28314C20.8662 2.8502 20.2262 2.8251 19.8497 3.20157L19.8434 3.20784C19.536 3.5153 19.5109 3.99843 19.7619 4.35608C20.8474 5.88706 20.8474 7.9451 19.7619 9.47608Z" fill="currentColor"/>
</svg>
