<svg width="12" height="12" viewBox="0 0 12 12" fill="none" xmlns="http://www.w3.org/2000/svg">
<path fill-rule="evenodd" clip-rule="evenodd" d="M11.4684 2.04056C11.8589 1.65003 11.8589 1.01687 11.4684 0.626342C11.0779 0.235818 10.4447 0.235818 10.0542 0.626342L6.04718 4.63333L1.81137 0.397522C1.42084 0.00699783 0.78768 0.00699781 0.397156 0.397522C0.0066314 0.788046 0.00663096 1.42121 0.397155 1.81174L4.63297 6.04755L0.62608 10.0544C0.235557 10.445 0.235556 11.0781 0.626081 11.4686C1.0166 11.8592 1.64977 11.8592 2.04029 11.4686L6.04718 7.46176L9.82525 11.2398C10.2158 11.6303 10.8489 11.6303 11.2395 11.2398C11.63 10.8493 11.63 10.2161 11.2395 9.82561L7.46139 6.04755L11.4684 2.04056Z" fill="#A9B2BC"/>
</svg>
