<svg width="32" height="32" viewBox="0 0 32 32" fill="none" xmlns="http://www.w3.org/2000/svg">
<rect width="32" height="32" rx="16" fill="#21262C"/>
<path fill-rule="evenodd" clip-rule="evenodd" d="M21.4684 12.0406C21.8589 11.65 21.8589 11.0169 21.4684 10.6263C21.0779 10.2358 20.4447 10.2358 20.0542 10.6263L16.0472 14.6333L11.8114 10.3975C11.4208 10.007 10.7877 10.007 10.3972 10.3975C10.0066 10.788 10.0066 11.4212 10.3972 11.8117L14.633 16.0475L10.6261 20.0544C10.2356 20.445 10.2356 21.0781 10.6261 21.4686C11.0166 21.8592 11.6498 21.8592 12.0403 21.4686L16.0472 17.4618L19.8252 21.2398C20.2158 21.6303 20.8489 21.6303 21.2395 21.2398C21.63 20.8493 21.63 20.2161 21.2395 19.8256L17.4614 16.0475L21.4684 12.0406Z" fill="#A9B2BC"/>
</svg>
