<svg width="24" height="24" viewBox="0 0 24 24" fill="none" xmlns="http://www.w3.org/2000/svg">
<path fill-rule="evenodd" clip-rule="evenodd" d="M6.66699 12C6.66699 13.1046 5.77156 14 4.66699 14C3.56242 14 2.66699 13.1046 2.66699 12C2.66699 10.8954 3.56242 10 4.66699 10C5.77156 10 6.66699 10.8954 6.66699 12ZM14 12C14 13.1046 13.1046 14 12 14C10.8954 14 10 13.1046 10 12C10 10.8954 10.8954 10 12 10C13.1046 10 14 10.8954 14 12ZM19.333 14C20.4376 14 21.333 13.1046 21.333 12C21.333 10.8954 20.4376 10 19.333 10C18.2284 10 17.333 10.8954 17.333 12C17.333 13.1046 18.2284 14 19.333 14Z" fill="#8E99A4"/>
</svg>
