<svg width="22" height="20" viewBox="0 0 22 20" fill="none" xmlns="http://www.w3.org/2000/svg">
<path fill-rule="evenodd" clip-rule="evenodd" d="M12 0.25C14.2811 0.25 16.3824 1.03493 18.0435 2.34854L18.0645 2.36549C19.294 3.38165 21.75 6.28172 21.75 10C21.75 15.3848 17.3848 19.75 12 19.75C11.3096 19.75 10.75 19.1904 10.75 18.5C10.75 17.8096 11.3096 17.25 12 17.25C16.0041 17.25 19.25 14.0041 19.25 10C19.25 7.32797 17.4103 5.07339 16.4819 4.30089C15.2482 3.32907 13.6934 2.75 12 2.75C8.33522 2.75 5.30553 5.46916 4.8184 9H6.50851C6.9004 9 7.13415 9.43723 6.91677 9.76366L3.90826 14.2813C3.71404 14.5729 3.28596 14.5729 3.09174 14.2813L0.083231 9.76366C-0.134151 9.43723 0.0995979 9 0.491489 9H2.30066C2.80139 4.085 6.95284 0.25 12 0.25Z" fill="#8E99A4"/>
</svg>
