<svg width="22" height="20" viewBox="0 0 22 20" fill="none" xmlns="http://www.w3.org/2000/svg">
<path fill-rule="evenodd" clip-rule="evenodd" d="M10 0.25C7.71886 0.25 5.61758 1.03493 3.95646 2.34854L3.93549 2.36549C2.70597 3.38165 0.25 6.28172 0.25 10C0.25 15.3848 4.61522 19.75 10 19.75C10.6904 19.75 11.25 19.1904 11.25 18.5C11.25 17.8096 10.6904 17.25 10 17.25C5.99594 17.25 2.75 14.0041 2.75 10C2.75 7.32797 4.58973 5.07339 5.51806 4.30089C6.7518 3.32907 8.30655 2.75 10 2.75C13.6648 2.75 16.6945 5.46916 17.1816 9H15.4915C15.0996 9 14.8658 9.43723 15.0832 9.76366L18.0917 14.2813C18.286 14.5729 18.714 14.5729 18.9083 14.2813L21.9168 9.76366C22.1342 9.43723 21.9004 9 21.5085 9H19.6993C19.1986 4.085 15.0472 0.25 10 0.25Z" fill="#8E99A4"/>
</svg>
