<svg width="21" height="21" viewBox="0 0 21 21" fill="none" xmlns="http://www.w3.org/2000/svg">
<path fill-rule="evenodd" clip-rule="evenodd" d="M15.3293 13.5616C16.379 12.1476 17 10.3963 17 8.5C17 3.80558 13.1944 0 8.5 0C3.80558 0 0 3.80558 0 8.5C0 13.1944 3.80558 17 8.5 17C10.3963 17 12.1476 16.379 13.5616 15.3293L18.1161 19.8839C18.6043 20.372 19.3957 20.372 19.8839 19.8839C20.372 19.3957 20.372 18.6043 19.8839 18.1161L15.3293 13.5616ZM9.5 4C9.5 3.44772 9.05228 3 8.5 3C7.94772 3 7.5 3.44772 7.5 4V7.5H4C3.44772 7.5 3 7.94772 3 8.5C3 9.05228 3.44772 9.5 4 9.5H7.5V13C7.5 13.5523 7.94771 14 8.5 14C9.05228 14 9.5 13.5523 9.5 13V9.5H13C13.5523 9.5 14 9.05228 14 8.5C14 7.94772 13.5523 7.5 13 7.5H9.5V4Z" fill="#8E99A4"/>
</svg>
