<?xml version="1.0" encoding="utf-8"?>
<!-- Generator: Adobe Illustrator 21.0.0, SVG Export Plug-In . SVG Version: 6.00 Build 0)  -->
<svg version="1.1" id="Layer_1" xmlns="http://www.w3.org/2000/svg" xmlns:xlink="http://www.w3.org/1999/xlink" x="0px" y="0px"
	 viewBox="0 0 173.6 146.6" style="enable-background:new 0 0 173.6 146.6;" xml:space="preserve">
<style type="text/css">
	.st0{fill:#7DC8A2;}
	.st1{fill:#AFDBC5;}
	.st2{fill:#764D80;}
	.st3{enable-background:new    ;}
	.st4{fill:none;stroke:#764D80;stroke-miterlimit:10;}
</style>
<title>New_logo</title>
<g id="Design">
	<path class="st0" d="M62.3,0H21.2C9.9,0,0.7,9.2,0.7,20.6v102.8c0,11.4,9.2,20.6,20.6,20.6c11.3,0,20.5-9.2,20.6-20.6v-20.6h20.5
		c28.4,0,51.4-23,51.4-51.4S90.7,0,62.3,0z"/>
	<path class="st1" d="M21.2,138.8c-8.5,0-15.4-6.9-15.4-15.4V20.6c0-8.5,6.8-15.3,15.3-15.4h41.2c25.5,0.4,46,21.4,45.6,46.9
		c-0.4,25-20.6,45.2-45.6,45.6H36.6v25.7C36.6,131.9,29.7,138.8,21.2,138.8z"/>
	<path class="st0" d="M21.2,133.7c-5.7,0-10.3-4.6-10.3-10.3V20.6c0-5.6,4.5-10.2,10.1-10.3h41.3c22.7,0,41.1,18.4,41.1,41.1
		S85.1,92.5,62.4,92.5H31.5v30.8C31.5,129.1,26.9,133.7,21.2,133.7z"/>
	<path class="st1" d="M21.2,128.6c-2.9,0-5.2-2.3-5.2-5.2V20.6c0-2.8,2.2-5.1,5-5.2h41.3c19.9,0,36,16.1,36,36s-16.1,36-36,36h-36
		v36C26.4,126.3,24.1,128.6,21.2,128.6z"/>
	<path class="st0" d="M21.3,82.3h41.1c17.1,0,30.9-13.8,30.9-30.9S79.4,20.5,62.3,20.5H21.2L21.3,82.3z"/>
	<path class="st1" d="M26.4,77.2V25.7h36c14.2,0.3,25.5,12,25.2,26.3c-0.3,13.8-11.4,25-25.2,25.2H26.4z"/>
	<path class="st0" d="M31.5,72V30.8h30.8c11.4,0.3,20.4,9.7,20.2,21.1c-0.2,11-9.1,19.9-20.2,20.2H31.5z"/>
	<path class="st1" d="M36.6,66.9v-31h25.7c8.6,0,15.5,6.9,15.5,15.5s-6.9,15.5-15.5,15.5H36.6z"/>
	<path class="st0" d="M41.8,61.8V41.1h20.6c5.7,0,10.4,4.7,10.3,10.4c0,5.7-4.6,10.3-10.3,10.3H41.8z"/>
	<path class="st1" d="M46.9,56.6V46.2h15.5c2.9,0,5.2,2.3,5.2,5.2s-2.3,5.2-5.2,5.2L46.9,56.6z"/>
	<ellipse transform="matrix(0.8192 -0.5736 0.5736 0.8192 -8.0825 15.5141)" class="st2" cx="20.6" cy="20.6" rx="20.6" ry="20.6"/>
	<path class="st2" d="M109.3,111.6c6.7,9.2,4.6,22-4.6,28.7s-22,4.6-28.7-4.6c-0.1-0.2-0.3-0.4-0.4-0.6l-30.8-44
		c-6.5-9.3-4.3-22.1,5-28.6s22.1-4.3,28.6,5L109.3,111.6z"/>
</g>
<g id="Layer_3">
	<path class="st2" d="M145.3,32.7h16.4c0.9,0,1.6-0.7,1.6-1.6c0-0.9-0.7-1.6-1.6-1.6h-16.4c-0.9,0-1.6,0.7-1.6,1.6
		C143.7,32,144.4,32.7,145.3,32.7z"/>
	<path class="st2" d="M145.3,3.3h4.9v5l0,0l-5.8,4c-0.7,0.5-0.9,1.5-0.4,2.3c0.5,0.7,1.5,0.9,2.3,0.4l4.6-3.2c1.6,3.2,5.5,4.6,8.8,3
		c2.2-1.1,3.7-3.4,3.6-5.9V1.7l0,0c0-0.9-0.7-1.6-1.6-1.6l0,0h-16.4c-0.9,0-1.6,0.7-1.6,1.6C143.7,2.6,144.4,3.3,145.3,3.3
		L145.3,3.3z M160,8.9c0,1.8-1.5,3.3-3.3,3.3s-3.3-1.5-3.3-3.3V3.3h6.5V8.9z"/>
	<path class="st2" d="M161.7,75.6c-0.9,0-1.6,0.7-1.6,1.6l0,0v4.9h-14.7c-0.9,0-1.6,0.7-1.6,1.6l0,0l0,0c0,0.9,0.7,1.6,1.6,1.6l0,0
		H160v5c0,0.9,0.7,1.6,1.6,1.6s1.6-0.7,1.6-1.6v-6.6l0,0v-6.5C163.4,76.4,162.6,75.7,161.7,75.6C161.7,75.6,161.7,75.6,161.7,75.6z"
		/>
	<path class="st2" d="M153.5,46.4c-5.5,0-10,4.5-10,10s4.5,10,10,10s10-4.5,10-10S159.1,46.4,153.5,46.4z M153.5,63.2
		c-3.7,0-6.7-3-6.7-6.7c0-3.7,3-6.7,6.7-6.7c3.7,0,6.7,3,6.7,6.7v0C160.2,60.2,157.2,63.2,153.5,63.2L153.5,63.2z"/>
	<g class="st3">
		<path class="st2" d="M145.2,109h16.5c0.3,0,0.5,0.1,0.7,0.3c0.2,0.2,0.3,0.4,0.3,0.7c0,0.3-0.1,0.5-0.3,0.7
			c-0.2,0.2-0.5,0.3-0.7,0.3h-16.5c-0.3,0-0.5-0.1-0.7-0.3c-0.2-0.2-0.3-0.4-0.3-0.7c0-0.3,0.1-0.5,0.3-0.7
			C144.7,109.1,144.9,109,145.2,109z"/>
	</g>
	<g class="st3">
		<path class="st4" d="M145.2,109h16.5c0.3,0,0.5,0.1,0.7,0.3c0.2,0.2,0.3,0.4,0.3,0.7c0,0.3-0.1,0.5-0.3,0.7
			c-0.2,0.2-0.5,0.3-0.7,0.3h-16.5c-0.3,0-0.5-0.1-0.7-0.3c-0.2-0.2-0.3-0.4-0.3-0.7c0-0.3,0.1-0.5,0.3-0.7
			C144.7,109.1,144.9,109,145.2,109z"/>
	</g>
	<g class="st3">
		<path class="st2" d="M145.2,126h16.5c0.3,0,0.5,0.1,0.7,0.3c0.2,0.2,0.3,0.4,0.3,0.7v0.2c0,0.4-0.2,0.7-0.5,1l-9.8,6.5l9.8,6.5
			c0.4,0.2,0.5,0.5,0.5,1v0.2c0,0.3-0.1,0.5-0.3,0.7c-0.2,0.2-0.4,0.3-0.7,0.3h-16.5c-0.3,0-0.5-0.1-0.7-0.3
			c-0.2-0.2-0.3-0.4-0.3-0.7s0.1-0.5,0.3-0.7c0.2-0.2,0.5-0.3,0.7-0.3h13.7l-8.6-5.9c-0.3-0.2-0.5-0.5-0.5-0.9
			c0-0.3,0.2-0.6,0.5-0.9l8.6-5.8h-13.7c-0.3,0-0.5-0.1-0.7-0.3c-0.2-0.2-0.3-0.4-0.3-0.7c0-0.3,0.1-0.5,0.3-0.7
			C144.7,126.1,144.9,126,145.2,126z"/>
	</g>
	<g class="st3">
		<path class="st4" d="M145.2,126h16.5c0.3,0,0.5,0.1,0.7,0.3c0.2,0.2,0.3,0.4,0.3,0.7v0.2c0,0.4-0.2,0.7-0.5,1l-9.8,6.5l9.8,6.5
			c0.4,0.2,0.5,0.5,0.5,1v0.2c0,0.3-0.1,0.5-0.3,0.7c-0.2,0.2-0.4,0.3-0.7,0.3h-16.5c-0.3,0-0.5-0.1-0.7-0.3
			c-0.2-0.2-0.3-0.4-0.3-0.7s0.1-0.5,0.3-0.7c0.2-0.2,0.5-0.3,0.7-0.3h13.7l-8.6-5.9c-0.3-0.2-0.5-0.5-0.5-0.9
			c0-0.3,0.2-0.6,0.5-0.9l8.6-5.8h-13.7c-0.3,0-0.5-0.1-0.7-0.3c-0.2-0.2-0.3-0.4-0.3-0.7c0-0.3,0.1-0.5,0.3-0.7
			C144.7,126.1,144.9,126,145.2,126z"/>
	</g>
	<g class="st3">
		<path class="st2" d="M152.5,98.1c0.3,0,0.6,0.1,0.9,0.4s0.4,0.5,0.4,0.9c0,0.3-0.1,0.6-0.4,0.9c-0.2,0.2-0.5,0.4-0.9,0.4h-0.5
			c-0.3,0-0.6-0.1-0.9-0.4c-0.2-0.2-0.4-0.5-0.4-0.9c0-0.4,0.1-0.7,0.4-0.9s0.5-0.4,0.9-0.4H152.5z"/>
	</g>
	<g class="st3">
		<path class="st4" d="M152.5,98.1c0.3,0,0.6,0.1,0.9,0.4s0.4,0.5,0.4,0.9c0,0.3-0.1,0.6-0.4,0.9c-0.2,0.2-0.5,0.4-0.9,0.4h-0.5
			c-0.3,0-0.6-0.1-0.9-0.4c-0.2-0.2-0.4-0.5-0.4-0.9c0-0.4,0.1-0.7,0.4-0.9s0.5-0.4,0.9-0.4H152.5z"/>
	</g>
</g>
</svg>
