<?xml version="1.0" encoding="utf-8"?>
<!-- Generator: Adobe Illustrator 16.0.0, SVG Export Plug-In . SVG Version: 6.00 Build 0)  -->
<!DOCTYPE svg PUBLIC "-//W3C//DTD SVG 1.1//EN" "http://www.w3.org/Graphics/SVG/1.1/DTD/svg11.dtd">
<svg version="1.1" id="Layer_1" xmlns="http://www.w3.org/2000/svg" xmlns:xlink="http://www.w3.org/1999/xlink" x="0px" y="0px"
	 width="612px" height="578.971px" viewBox="0 0 612 578.971" enable-background="new 0 0 612 578.971" xml:space="preserve">
<radialGradient id="SVGID_1_" cx="306.0005" cy="292.6768" r="282.7137" gradientUnits="userSpaceOnUse">
	<stop  offset="0" style="stop-color:#11546E"/>
	<stop  offset="0.4417" style="stop-color:#00384E"/>
	<stop  offset="0.8344" style="stop-color:#003044"/>
	<stop  offset="1" style="stop-color:#072938"/>
</radialGradient>
<path fill="url(#SVGID_1_)" d="M593.684,292.976c-9.346-109.172-50.16-153.926-50.16-153.926l-63.438-11.308
	c-25.574-32.457-63.932-47.704-63.932-47.704l-29.012-54.586c-78.191-24.099-166.467,1.106-166.467,1.106l-28.273,55.936
	c-43.278,16.722-66.883,47.209-66.883,47.209l-55.567,10.327c-48.198,62.951-51.635,155.895-51.635,155.895l44.259,41.795
	c4.913,42.783,27.042,82.616,27.042,82.616l-9.338,55.575c45.734,68.846,134.251,94.42,134.251,94.42l51.142-27.545
	c36.388,7.377,82.122-0.486,82.122-0.486l55.574,27.041c83.598-30.486,131.545-96.875,131.545-96.875l-7.133-59.506
	c21.148-36.389,23.119-77.202,23.119-77.202L593.684,292.976z M496.314,298.876l18.684,7.863l-0.98,6.89l-19.18,4.913
	C496.801,311.659,496.314,298.876,496.314,298.876z M450.58,282.647l22.129,8.357c0,0,2.457,22.13-1.475,34.427l-21.643,4.426
	C449.592,329.857,455.006,307.728,450.58,282.647z M462.383,190.191c0,0-7.377-10.327-14.268-14.753l16.723-6.882l7.871,6.396
	L462.383,190.191z M406.807,96.267c0,0,45.248,20.16,63.439,47.704l-18.686,9.338c0,0-13.277-17.209-48.191-36.882L406.807,96.267z
	 M400.42,139.05c0,0,23.109,11.803,30.486,23.605l-36.883,18.198L400.42,139.05z M446.154,211.833l-12.791,18.191
	c-7.863-19.179-29.012-37.864-29.012-37.864l20.654-7.871C439.264,199.537,446.154,211.833,446.154,211.833z M374.846,105.118
	c0,0,6.395,1.97,8.357,4.92l-0.486,16.715c0,0-7.871-3.438-18.199-7.863L374.846,105.118z M348.289,140.525
	c0,0,19.674,4.92,32.951,13.277l-0.494,21.635c0,0-21.148-13.277-46.715-17.209L348.289,140.525z M278.457,158.723
	c-26.062,5.901-46.717,16.715-46.717,16.715l-1.969-21.141c13.771-8.852,33.932-13.278,33.932-13.278L278.457,158.723z
	 M235.673,105.612l11.802,15.24c0,0-11.308,4.92-19.666,9.84l-0.494-20.167L235.673,105.612z M217.969,179.377l-38.844-15.741
	c0,0,11.802-12.783,30.981-23.604L217.969,179.377z M207.643,193.142c-16.716,14.753-29.993,38.357-29.993,38.357l-12.297-18.19
	c8.852-11.802,21.148-28.525,21.148-28.525L207.643,193.142z M203.711,97.742l3.444,21.635
	c-26.556,13.772-47.704,34.92-47.704,34.92l-20.654-8.852C162.896,115.445,203.711,97.742,203.711,97.742z M164.858,332.808
	l-21.635-4.92c-2.457-11.802-3.932-31.962-3.932-31.962l20.654-7.376C157.482,310.185,164.858,332.808,164.858,332.808z
	 M145.193,169.537l18.685,6.396c0,0-6.882,10.327-12.784,19.179l-12.296-16.229L145.193,169.537z M104.866,407.554
	c0,0-18.685-29.992-24.586-72.289l22.129,3.932c0,0,7.863,33.932,17.704,54.099L104.866,407.554z M102.896,318.542l-1.475-8.852
	l16.228-5.901c0,0,0.494,7.87,2.464,17.703L102.896,318.542z M165.353,349.523l-29.506,28.524
	c-10.327-15.247-11.308-35.901-11.308-35.901L165.353,349.523z M137.816,419.851l-5.415-7.871l11.802-15.733
	c0,0,3.939,9.338,12.297,18.19L137.816,419.851z M179.125,406.573c-14.266-16.723-18.692-30.981-18.692-30.981l12.791-15.741
	c2.951,12.79,24.586,40.821,24.586,40.821L179.125,406.573z M281.406,463.121c-19.665,0.494-34.912-9.338-34.912-9.338v-21.148
	c18.197,8.357,46.715,11.309,46.715,11.309L281.406,463.121z M307.477,448.369l19.178,36.881c0,0-22.129,7.871-37.871-0.98
	L307.477,448.369z M258.791,500.004l-10.822-3.932l-0.494-19.18c0,0,10.822,6.396,21.148,4.92L258.791,500.004z M269.117,524.104
	l9.834-19.18c0,0,26.555,5.9,58.031,0.494l10.326,19.666C347.309,525.084,306,534.43,269.117,524.104z M366.488,495.578
	l-9.842,2.951l-8.852-14.26c7.377-0.98,19.18-6.883,19.18-6.883L366.488,495.578z M367.469,453.289
	c-12.297,6.881-32.951,9.832-32.951,9.832l-12.783-19.178c21.635,0,45.734-12.291,45.734-12.291V453.289z M391.074,393.295
	l-22.625-7.87l-0.486,25.574c-57.537,32.95-122.45-0.981-122.45-0.981v-23.604l-24.593,6.882
	c-46.715-41.308-39.339-113.11-39.339-113.11l26.062-8.852l-17.704-24.586c36.882-65.895,101.796-73.765,101.796-73.765
	l15.742,20.167l16.227-22.624c80.154,24.092,98.352,76.222,98.352,76.222l-13.771,19.672l23.117,6.883
	C446.641,349.036,391.074,393.295,391.074,393.295z M433.857,405.584l-21.148-6.882c0,0,17.217-13.277,28.029-38.852l12.297,13.771
	C453.035,373.622,444.184,399.196,433.857,405.584z M478.609,419.356l-18.691-5.407c0,0,7.377-6.89,11.316-19.673l14.258,15.247
	L478.609,419.356z M477.621,377.066l-29.506-29.506l43.277-7.376C491.393,340.185,488.938,366.74,477.621,377.066z M510.078,408.048
	l-16.229-16.723c0,0,14.754-26.061,18.197-55.566l20.654-3.445C532.701,332.313,528.275,380.504,510.078,408.048z"/>
<radialGradient id="SVGID_2_" cx="304.0312" cy="95.5283" r="52.1066" gradientUnits="userSpaceOnUse">
	<stop  offset="0" style="stop-color:#98DAF0"/>
	<stop  offset="0.2307" style="stop-color:#94D7ED"/>
	<stop  offset="0.4495" style="stop-color:#89CFE2"/>
	<stop  offset="0.6636" style="stop-color:#76C0D1"/>
	<stop  offset="0.8735" style="stop-color:#5BACBA"/>
	<stop  offset="1" style="stop-color:#479DA8"/>
</radialGradient>
<polygon fill="url(#SVGID_2_)" stroke="#02384D" stroke-width="2" points="305.012,37.749 258.297,80.532 268.129,95.285 
	292.229,69.217 294.686,136.1 306,153.309 316.328,137.575 317.309,69.711 339.438,95.772 349.766,79.057 "/>
<radialGradient id="SVGID_3_" cx="508.3594" cy="239.123" r="50.3255" gradientUnits="userSpaceOnUse">
	<stop  offset="0" style="stop-color:#98DAF0"/>
	<stop  offset="0.2307" style="stop-color:#94D7ED"/>
	<stop  offset="0.4495" style="stop-color:#89CFE2"/>
	<stop  offset="0.6636" style="stop-color:#76C0D1"/>
	<stop  offset="0.8735" style="stop-color:#5BACBA"/>
	<stop  offset="1" style="stop-color:#479DA8"/>
</radialGradient>
<polygon fill="url(#SVGID_3_)" stroke="#02384D" stroke-width="2" points="450.58,252.153 471.721,223.636 551.387,197.567 
	557.287,217.241 540.572,222.161 561.713,236.913 566.139,256.093 521.395,228.549 503.195,234.45 561.227,269.37 551.387,280.679 
	480.086,243.302 "/>
<radialGradient id="SVGID_4_" cx="445.1689" cy="479.3535" r="53.12" gradientUnits="userSpaceOnUse">
	<stop  offset="0" style="stop-color:#98DAF0"/>
	<stop  offset="0.2307" style="stop-color:#94D7ED"/>
	<stop  offset="0.4495" style="stop-color:#89CFE2"/>
	<stop  offset="0.6636" style="stop-color:#76C0D1"/>
	<stop  offset="0.8735" style="stop-color:#5BACBA"/>
	<stop  offset="1" style="stop-color:#479DA8"/>
</radialGradient>
<path fill="url(#SVGID_4_)" stroke="#02384D" stroke-width="2" d="M465.332,444.932l-52.129-19.674l30,28.031l-3.939,25.574
	l-27.535-1.971l-18.686-40.326l5.9,59.506l31.469,37.377l10.822-4.92l9.346-35.408l36.881-0.494l9.834-8.357L465.332,444.932z
	 M432.381,513.281l-11.801-20.16l16.227-0.494L432.381,513.281z M453.529,479.35l3.438-16.229l17.217,17.703L453.529,479.35z"/>
<radialGradient id="SVGID_5_" cx="186.9917" cy="475.1709" r="33.4811" gradientUnits="userSpaceOnUse">
	<stop  offset="0" style="stop-color:#98DAF0"/>
	<stop  offset="0.2307" style="stop-color:#94D7ED"/>
	<stop  offset="0.4495" style="stop-color:#89CFE2"/>
	<stop  offset="0.6636" style="stop-color:#76C0D1"/>
	<stop  offset="0.8735" style="stop-color:#5BACBA"/>
	<stop  offset="1" style="stop-color:#479DA8"/>
</radialGradient>
<polygon fill="url(#SVGID_5_)" stroke="#003549" stroke-width="2" points="216.988,503.449 214.037,438.535 202.729,491.152 
	156.995,511.807 "/>
<radialGradient id="SVGID_6_" cx="182.8125" cy="455.748" r="39.2199" gradientUnits="userSpaceOnUse">
	<stop  offset="0" style="stop-color:#98DAF0"/>
	<stop  offset="0.2307" style="stop-color:#94D7ED"/>
	<stop  offset="0.4495" style="stop-color:#89CFE2"/>
	<stop  offset="0.6636" style="stop-color:#76C0D1"/>
	<stop  offset="0.8735" style="stop-color:#5BACBA"/>
	<stop  offset="1" style="stop-color:#479DA8"/>
</radialGradient>
<polygon fill="url(#SVGID_6_)" stroke="#003549" stroke-width="2" points="143.717,449.357 165.847,495.092 164.858,458.209 
	221.908,416.405 "/>
<radialGradient id="SVGID_7_" cx="108.5537" cy="236.6665" r="46.8235" gradientUnits="userSpaceOnUse">
	<stop  offset="0" style="stop-color:#98DAF0"/>
	<stop  offset="0.2307" style="stop-color:#94D7ED"/>
	<stop  offset="0.4495" style="stop-color:#89CFE2"/>
	<stop  offset="0.6636" style="stop-color:#76C0D1"/>
	<stop  offset="0.8735" style="stop-color:#5BACBA"/>
	<stop  offset="1" style="stop-color:#479DA8"/>
</radialGradient>
<polygon fill="url(#SVGID_7_)" stroke="#02384D" stroke-width="2" points="93.063,250.686 150.6,238.884 163.383,254.617 
	88.637,273.796 53.724,220.191 62.082,199.537 "/>
<radialGradient id="SVGID_8_" cx="305.4434" cy="301.8267" r="81.3949" gradientTransform="matrix(1 -0.0041 0.003 0.7424 -0.9098 78.9924)" gradientUnits="userSpaceOnUse">
	<stop  offset="0" style="stop-color:#983221"/>
	<stop  offset="0.5828" style="stop-color:#7B161A"/>
	<stop  offset="0.7928" style="stop-color:#711A1F"/>
	<stop  offset="1" style="stop-color:#622127"/>
</radialGradient>
<polygon fill="url(#SVGID_8_)" stroke="#02384D" stroke-width="2" points="359.723,283.261 336.119,291.743 326.16,280.679 
	327.141,250.686 316.814,235.933 295.18,235.933 285.221,251.542 285.59,280.31 275.506,291.994 251.9,284.123 222.395,289.53 
	222.395,310.185 253.376,318.549 275.02,312.154 285.221,323.462 285.221,351.861 294.936,367.721 316.57,367.721 326.898,352.968 
	326.898,324.199 336.855,312.028 358.123,317.074 388.492,309.446 388.123,289.53 "/>
</svg>
