<svg width="20" height="20" viewBox="0 0 20 20" fill="none" xmlns="http://www.w3.org/2000/svg">
    <path d="M4.99992 16.6667C4.54159 16.6667 4.14922 16.5035 3.82284 16.1771C3.49645 15.8507 3.33325 15.4584 3.33325 15C3.33325 14.5417 3.49645 14.1493 3.82284 13.823C4.14922 13.4966 4.54159 13.3334 4.99992 13.3334C5.45825 13.3334 5.85061 13.4966 6.177 13.823C6.50339 14.1493 6.66659 14.5417 6.66659 15C6.66659 15.4584 6.50339 15.8507 6.177 16.1771C5.85061 16.5035 5.45825 16.6667 4.99992 16.6667ZM9.99992 16.6667C9.54158 16.6667 9.14922 16.5035 8.82284 16.1771C8.49645 15.8507 8.33325 15.4584 8.33325 15C8.33325 14.5417 8.49645 14.1493 8.82284 13.823C9.14922 13.4966 9.54158 13.3334 9.99992 13.3334C10.4583 13.3334 10.8506 13.4966 11.177 13.823C11.5034 14.1493 11.6666 14.5417 11.6666 15C11.6666 15.4584 11.5034 15.8507 11.177 16.1771C10.8506 16.5035 10.4583 16.6667 9.99992 16.6667ZM14.9999 16.6667C14.5416 16.6667 14.1492 16.5035 13.8228 16.1771C13.4964 15.8507 13.3333 15.4584 13.3333 15C13.3333 14.5417 13.4964 14.1493 13.8228 13.823C14.1492 13.4966 14.5416 13.3334 14.9999 13.3334C15.4583 13.3334 15.8506 13.4966 16.177 13.823C16.5034 14.1493 16.6666 14.5417 16.6666 15C16.6666 15.4584 16.5034 15.8507 16.177 16.1771C15.8506 16.5035 15.4583 16.6667 14.9999 16.6667ZM4.99992 11.6667C4.54159 11.6667 4.14922 11.5035 3.82284 11.1771C3.49645 10.8507 3.33325 10.4584 3.33325 10C3.33325 9.54171 3.49645 9.14935 3.82284 8.82296C4.14922 8.49657 4.54159 8.33337 4.99992 8.33337C5.45825 8.33337 5.85061 8.49657 6.177 8.82296C6.50339 9.14935 6.66659 9.54171 6.66659 10C6.66659 10.4584 6.50339 10.8507 6.177 11.1771C5.85061 11.5035 5.45825 11.6667 4.99992 11.6667ZM9.99992 11.6667C9.54158 11.6667 9.14922 11.5035 8.82284 11.1771C8.49645 10.8507 8.33325 10.4584 8.33325 10C8.33325 9.54171 8.49645 9.14935 8.82284 8.82296C9.14922 8.49657 9.54158 8.33337 9.99992 8.33337C10.4583 8.33337 10.8506 8.49657 11.177 8.82296C11.5034 9.14935 11.6666 9.54171 11.6666 10C11.6666 10.4584 11.5034 10.8507 11.177 11.1771C10.8506 11.5035 10.4583 11.6667 9.99992 11.6667ZM14.9999 11.6667C14.5416 11.6667 14.1492 11.5035 13.8228 11.1771C13.4964 10.8507 13.3333 10.4584 13.3333 10C13.3333 9.54171 13.4964 9.14935 13.8228 8.82296C14.1492 8.49657 14.5416 8.33337 14.9999 8.33337C15.4583 8.33337 15.8506 8.49657 16.177 8.82296C16.5034 9.14935 16.6666 9.54171 16.6666 10C16.6666 10.4584 16.5034 10.8507 16.177 11.1771C15.8506 11.5035 15.4583 11.6667 14.9999 11.6667ZM4.99992 6.66671C4.54159 6.66671 4.14922 6.50351 3.82284 6.17712C3.49645 5.85074 3.33325 5.45837 3.33325 5.00004C3.33325 4.54171 3.49645 4.14935 3.82284 3.82296C4.14922 3.49657 4.54159 3.33337 4.99992 3.33337C5.45825 3.33337 5.85061 3.49657 6.177 3.82296C6.50339 4.14935 6.66659 4.54171 6.66659 5.00004C6.66659 5.45837 6.50339 5.85074 6.177 6.17712C5.85061 6.50351 5.45825 6.66671 4.99992 6.66671ZM9.99992 6.66671C9.54158 6.66671 9.14922 6.50351 8.82284 6.17712C8.49645 5.85074 8.33325 5.45837 8.33325 5.00004C8.33325 4.54171 8.49645 4.14935 8.82284 3.82296C9.14922 3.49657 9.54158 3.33337 9.99992 3.33337C10.4583 3.33337 10.8506 3.49657 11.177 3.82296C11.5034 4.14935 11.6666 4.54171 11.6666 5.00004C11.6666 5.45837 11.5034 5.85074 11.177 6.17712C10.8506 6.50351 10.4583 6.66671 9.99992 6.66671ZM14.9999 6.66671C14.5416 6.66671 14.1492 6.50351 13.8228 6.17712C13.4964 5.85074 13.3333 5.45837 13.3333 5.00004C13.3333 4.54171 13.4964 4.14935 13.8228 3.82296C14.1492 3.49657 14.5416 3.33337 14.9999 3.33337C15.4583 3.33337 15.8506 3.49657 16.177 3.82296C16.5034 4.14935 16.6666 4.54171 16.6666 5.00004C16.6666 5.45837 16.5034 5.85074 16.177 6.17712C15.8506 6.50351 15.4583 6.66671 14.9999 6.66671Z" fill="currentColor" />
</svg>