<svg width="20" height="20" viewBox="0 0 20 20" fill="none" xmlns="http://www.w3.org/2000/svg">
<path fill-rule="evenodd" clip-rule="evenodd" d="M2 3C2 1.34315 3.34315 0 5 0H15C16.6569 0 18 1.34315 18 3V17C18 18.6569 16.6569 20 15 20H5C3.34315 20 2 18.6569 2 17V3ZM5 12.25C5 11.8358 5.33579 11.5 5.75 11.5H14.25C14.6642 11.5 15 11.8358 15 12.25C15 12.6642 14.6642 13 14.25 13H5.75C5.33579 13 5 12.6642 5 12.25ZM5.75 15C5.33579 15 5 15.3358 5 15.75C5 16.1642 5.33579 16.5 5.75 16.5H10.25C10.6642 16.5 11 16.1642 11 15.75C11 15.3358 10.6642 15 10.25 15H5.75Z" fill="black"/>
</svg>
