<svg width="25" height="25" viewBox="0 0 25 25" fill="none" xmlns="http://www.w3.org/2000/svg">
<path fill-rule="evenodd" clip-rule="evenodd" d="M4.5 5.5C4.5 3.84315 5.84315 2.5 7.5 2.5H17.5C19.1569 2.5 20.5 3.84315 20.5 5.5V19.5C20.5 21.1569 19.1569 22.5 17.5 22.5H7.5C5.84315 22.5 4.5 21.1569 4.5 19.5V5.5ZM7.5 14.75C7.5 14.3358 7.83579 14 8.25 14H16.75C17.1642 14 17.5 14.3358 17.5 14.75C17.5 15.1642 17.1642 15.5 16.75 15.5H8.25C7.83579 15.5 7.5 15.1642 7.5 14.75ZM8.25 17.5C7.83579 17.5 7.5 17.8358 7.5 18.25C7.5 18.6642 7.83579 19 8.25 19H12.75C13.1642 19 13.5 18.6642 13.5 18.25C13.5 17.8358 13.1642 17.5 12.75 17.5H8.25Z" fill="black"/>
</svg>
