<svg width="24" height="24" viewBox="0 0 24 24" fill="none" xmlns="http://www.w3.org/2000/svg">
<path fill-rule="evenodd" clip-rule="evenodd" d="M4 5C4 3.34315 5.34315 2 7 2H17C18.6569 2 20 3.34315 20 5V19C20 20.6569 18.6569 22 17 22H7C5.34315 22 4 20.6569 4 19V5ZM7 14.25C7 13.8358 7.33579 13.5 7.75 13.5H16.25C16.6642 13.5 17 13.8358 17 14.25C17 14.6642 16.6642 15 16.25 15H7.75C7.33579 15 7 14.6642 7 14.25ZM7.75 17C7.33579 17 7 17.3358 7 17.75C7 18.1642 7.33579 18.5 7.75 18.5H12.25C12.6642 18.5 13 18.1642 13 17.75C13 17.3358 12.6642 17 12.25 17H7.75Z" fill="black"/>
</svg>
