<svg width="25" height="25" viewBox="0 0 25 25" fill="none" xmlns="http://www.w3.org/2000/svg">
<path fill-rule="evenodd" clip-rule="evenodd" d="M2.5 6.5C2.5 4.29086 4.29086 2.5 6.5 2.5H18.5C20.7091 2.5 22.5 4.29086 22.5 6.5V18.5C22.5 20.7091 20.7091 22.5 18.5 22.5H6.5C4.29086 22.5 2.5 20.7091 2.5 18.5V6.5ZM11.5 8.5C11.5 10.1569 10.1569 11.5 8.5 11.5C6.84315 11.5 5.5 10.1569 5.5 8.5C5.5 6.84315 6.84315 5.5 8.5 5.5C10.1569 5.5 11.5 6.84315 11.5 8.5ZM8.5 19.5C10.1569 19.5 11.5 18.1569 11.5 16.5C11.5 14.8431 10.1569 13.5 8.5 13.5C6.84315 13.5 5.5 14.8431 5.5 16.5C5.5 18.1569 6.84315 19.5 8.5 19.5ZM19.5 16.5C19.5 18.1569 18.1569 19.5 16.5 19.5C14.8431 19.5 13.5 18.1569 13.5 16.5C13.5 14.8431 14.8431 13.5 16.5 13.5C18.1569 13.5 19.5 14.8431 19.5 16.5ZM16.5 11.5C18.1569 11.5 19.5 10.1569 19.5 8.5C19.5 6.84315 18.1569 5.5 16.5 5.5C14.8431 5.5 13.5 6.84315 13.5 8.5C13.5 10.1569 14.8431 11.5 16.5 11.5Z" fill="black"/>
</svg>
