<svg width="24" height="24" viewBox="0 0 24 24" fill="none" xmlns="http://www.w3.org/2000/svg">
<path fill-rule="evenodd" clip-rule="evenodd" d="M2 6C2 3.79086 3.79086 2 6 2H18C20.2091 2 22 3.79086 22 6V18C22 20.2091 20.2091 22 18 22H6C3.79086 22 2 20.2091 2 18V6ZM11 8C11 9.65685 9.65685 11 8 11C6.34315 11 5 9.65685 5 8C5 6.34315 6.34315 5 8 5C9.65685 5 11 6.34315 11 8ZM8 19C9.65685 19 11 17.6569 11 16C11 14.3431 9.65685 13 8 13C6.34315 13 5 14.3431 5 16C5 17.6569 6.34315 19 8 19ZM19 16C19 17.6569 17.6569 19 16 19C14.3431 19 13 17.6569 13 16C13 14.3431 14.3431 13 16 13C17.6569 13 19 14.3431 19 16ZM16 11C17.6569 11 19 9.65685 19 8C19 6.34315 17.6569 5 16 5C14.3431 5 13 6.34315 13 8C13 9.65685 14.3431 11 16 11Z" fill="black"/>
</svg>
