<svg width="20" height="20" viewBox="0 0 20 20" fill="none" xmlns="http://www.w3.org/2000/svg">
<path fill-rule="evenodd" clip-rule="evenodd" d="M0 4C0 1.79086 1.79086 0 4 0H16C18.2091 0 20 1.79086 20 4V16C20 18.2091 18.2091 20 16 20H4C1.79086 20 0 18.2091 0 16V4ZM9 6C9 7.65685 7.65685 9 6 9C4.34315 9 3 7.65685 3 6C3 4.34315 4.34315 3 6 3C7.65685 3 9 4.34315 9 6ZM6 17C7.65685 17 9 15.6569 9 14C9 12.3431 7.65685 11 6 11C4.34315 11 3 12.3431 3 14C3 15.6569 4.34315 17 6 17ZM17 14C17 15.6569 15.6569 17 14 17C12.3431 17 11 15.6569 11 14C11 12.3431 12.3431 11 14 11C15.6569 11 17 12.3431 17 14ZM14 9C15.6569 9 17 7.65685 17 6C17 4.34315 15.6569 3 14 3C12.3431 3 11 4.34315 11 6C11 7.65685 12.3431 9 14 9Z" fill="black"/>
</svg>
