<svg width="24" height="24" viewBox="-0.4 1 24 24" fill="none" xmlns="http://www.w3.org/2000/svg">
<path fill-rule="evenodd" clip-rule="evenodd" d="M19.1001 9C18.7779 9 18.5168 8.73883 18.5168 8.41667V6.08333H16.1834C15.8613 6.08333 15.6001 5.82217 15.6001 5.5C15.6001 5.17783 15.8613 4.91667 16.1834 4.91667H18.5168V2.58333C18.5168 2.26117 18.7779 2 19.1001 2C19.4223 2 19.6834 2.26117 19.6834 2.58333V4.91667H22.0168C22.3389 4.91667 22.6001 5.17783 22.6001 5.5C22.6001 5.82217 22.3389 6.08333 22.0168 6.08333H19.6834V8.41667C19.6834 8.73883 19.4223 9 19.1001 9ZM19.6001 11C20.0669 11 20.5212 10.9467 20.9574 10.8458C21.1161 11.5383 21.2 12.2594 21.2 13C21.2 16.1409 19.6917 18.9294 17.3598 20.6808V20.6807C16.0014 21.7011 14.3635 22.3695 12.5815 22.5505C12.2588 22.5832 11.9314 22.6 11.6 22.6C6.29807 22.6 2 18.302 2 13C2 7.69809 6.29807 3.40002 11.6 3.40002C12.3407 3.40002 13.0618 3.48391 13.7543 3.64268C13.6534 4.07884 13.6001 4.53319 13.6001 5C13.6001 8.31371 16.2864 11 19.6001 11ZM11.5999 20.68C13.6754 20.68 15.5585 19.8567 16.9407 18.5189C16.0859 16.4086 14.0167 14.92 11.5998 14.92C9.18298 14.92 7.11378 16.4086 6.25901 18.5189C7.64115 19.8567 9.52436 20.68 11.5999 20.68ZM11.7426 7.41172C10.3168 7.54168 9.2 8.74043 9.2 10.2C9.2 11.7464 10.4536 13 12 13C13.0308 13 13.9315 12.443 14.4176 11.6135C13.0673 10.6058 12.0929 9.12248 11.7426 7.41172Z" fill="black"/>
</svg>
