<svg width="30" height="30" viewBox="0 0 30 30" fill="none" xmlns="http://www.w3.org/2000/svg">
<path fill-rule="evenodd" clip-rule="evenodd" d="M28 8.5C28 12.0899 25.0899 15 21.5 15C17.9101 15 15 12.0899 15 8.5C15 4.91015 17.9101 2 21.5 2C25.0899 2 28 4.91015 28 8.5ZM22.5 5C22.5 4.44772 22.0523 4 21.5 4C20.9477 4 20.5 4.44772 20.5 5V7.6286H17.9C17.4029 7.6286 17 8.02089 17 8.5048C17 8.98871 17.4029 9.381 17.9 9.381H20.5V12.0096C20.5 12.5619 20.9477 13.0096 21.5 13.0096C22.0523 13.0096 22.5 12.5619 22.5 12.0096V9.381H25.1C25.5971 9.381 26 8.98871 26 8.5048C26 8.02089 25.5971 7.6286 25.1 7.6286H22.5V5ZM21.5 16C23.6351 16 25.5619 15.1078 26.9278 13.6759C26.9755 14.1107 27 14.5525 27 15C27 18.9261 25.1146 22.4117 22.1998 24.601V24.6009C20.348 25.9918 18.0808 26.8595 15.6175 26.9844C15.413 26.9948 15.2071 27 15 27C8.37258 27 3 21.6274 3 15C3 8.37258 8.37258 3 15 3C15.4475 3 15.8893 3.0245 16.3241 3.07223C14.929 4.40304 14.0462 6.26631 14.0018 8.336C12.8183 8.89737 12 10.1031 12 11.5C12 13.433 13.567 15 15.5 15C16.0892 15 16.6445 14.8544 17.1316 14.5972C18.3618 15.4802 19.8702 16 21.5 16ZM14.9998 24.6C17.5942 24.6 19.9482 23.5709 21.6759 21.8986C20.6074 19.2607 18.0209 17.4 14.9998 17.4C11.9787 17.4 9.39221 19.2607 8.32376 21.8986C10.0514 23.5709 12.4054 24.6 14.9998 24.6Z" fill="white"/>
</svg>
