<svg width="24" height="24" viewBox="0 0 24 24" fill="none" xmlns="http://www.w3.org/2000/svg">
<mask id="path-1-inside-1" fill="white">
<path fill-rule="evenodd" clip-rule="evenodd" d="M17.5911 20.2922C15.9951 21.3704 14.0711 22 12 22C9.74879 22 7.67132 21.2561 6 20.0007C3.5711 18.1763 2 15.2716 2 12C2 6.47715 6.47715 2 12 2C17.5228 2 22 6.47715 22 12C22 15.4518 20.2511 18.4951 17.5911 20.2922ZM12 12.5C13.6569 12.5 15 11.0449 15 9.25C15 7.45507 13.6569 6 12 6C10.3431 6 9 7.45507 9 9.25C9 11.0449 10.3431 12.5 12 12.5ZM12 20C14.162 20 16.1236 19.1424 17.5634 17.7488C16.673 15.5506 14.5176 14 12 14C9.48242 14 7.32699 15.5506 6.43662 17.7488C7.87635 19.1424 9.83802 20 12 20Z"/>
</mask>
<path fill-rule="evenodd" clip-rule="evenodd" d="M17.5911 20.2922C15.9951 21.3704 14.0711 22 12 22C9.74879 22 7.67132 21.2561 6 20.0007C3.5711 18.1763 2 15.2716 2 12C2 6.47715 6.47715 2 12 2C17.5228 2 22 6.47715 22 12C22 15.4518 20.2511 18.4951 17.5911 20.2922ZM12 12.5C13.6569 12.5 15 11.0449 15 9.25C15 7.45507 13.6569 6 12 6C10.3431 6 9 7.45507 9 9.25C9 11.0449 10.3431 12.5 12 12.5ZM12 20C14.162 20 16.1236 19.1424 17.5634 17.7488C16.673 15.5506 14.5176 14 12 14C9.48242 14 7.32699 15.5506 6.43662 17.7488C7.87635 19.1424 9.83802 20 12 20Z" fill="black"/>
<path d="M17.5911 20.2922L16.4715 18.6349L17.5911 20.2922ZM6 20.0007L4.79885 21.5999L4.79885 21.5999L6 20.0007ZM17.5634 17.7488L18.9544 19.1859L19.9234 18.2479L19.4171 16.998L17.5634 17.7488ZM6.43662 17.7488L4.5829 16.998L4.07662 18.2479L5.04563 19.1859L6.43662 17.7488ZM12 24C14.4825 24 16.7945 23.244 18.7107 21.9494L16.4715 18.6349C15.1957 19.4968 13.6596 20 12 20V24ZM4.79885 21.5999C6.80462 23.1065 9.30085 24 12 24V20C10.1967 20 8.53802 19.4058 7.20115 18.4016L4.79885 21.5999ZM0 12C0 15.9273 1.88868 19.414 4.79885 21.5999L7.20115 18.4016C5.25353 16.9387 4 14.616 4 12H0ZM12 0C5.37258 0 0 5.37258 0 12H4C4 7.58172 7.58172 4 12 4V0ZM24 12C24 5.37258 18.6274 0 12 0V4C16.4183 4 20 7.58172 20 12H24ZM18.7107 21.9494C21.8977 19.7963 24 16.144 24 12H20C20 14.7596 18.6045 17.1939 16.4715 18.6349L18.7107 21.9494ZM13 9.25C13 10.0941 12.4046 10.5 12 10.5V14.5C14.9091 14.5 17 11.9958 17 9.25H13ZM12 8C12.4046 8 13 8.4059 13 9.25H17C17 6.50425 14.9091 4 12 4V8ZM11 9.25C11 8.4059 11.5954 8 12 8V4C9.09086 4 7 6.50425 7 9.25H11ZM12 10.5C11.5954 10.5 11 10.0941 11 9.25H7C7 11.9958 9.09086 14.5 12 14.5V10.5ZM16.1724 16.3118C15.0906 17.3588 13.6223 18 12 18V22C14.7017 22 17.1567 20.926 18.9544 19.1859L16.1724 16.3118ZM12 16C13.6752 16 15.1146 17.0305 15.7097 18.4996L19.4171 16.998C18.2314 14.0707 15.3599 12 12 12V16ZM8.29033 18.4996C8.88541 17.0305 10.3248 16 12 16V12C8.64008 12 5.76858 14.0707 4.5829 16.998L8.29033 18.4996ZM12 18C10.3777 18 8.90936 17.3588 7.82761 16.3118L5.04563 19.1859C6.84334 20.926 9.2983 22 12 22V18Z" fill="black" mask="url(#path-1-inside-1)"/>
</svg>
