<svg width="25" height="25" viewBox="0 0 25 25" fill="none" xmlns="http://www.w3.org/2000/svg">
<mask id="path-1-inside-1" fill="white">
<path fill-rule="evenodd" clip-rule="evenodd" d="M18.0911 20.7922C16.4951 21.8704 14.5711 22.5 12.5 22.5C10.2488 22.5 8.17132 21.7561 6.5 20.5007C4.0711 18.6763 2.5 15.7716 2.5 12.5C2.5 6.97715 6.97715 2.5 12.5 2.5C18.0228 2.5 22.5 6.97715 22.5 12.5C22.5 15.9518 20.7511 18.9951 18.0911 20.7922ZM12.5 13C14.1569 13 15.5 11.5449 15.5 9.75C15.5 7.95507 14.1569 6.5 12.5 6.5C10.8431 6.5 9.5 7.95507 9.5 9.75C9.5 11.5449 10.8431 13 12.5 13ZM12.5 20.5C14.662 20.5 16.6236 19.6424 18.0634 18.2488C17.173 16.0506 15.0176 14.5 12.5 14.5C9.98242 14.5 7.82699 16.0506 6.93662 18.2488C8.37635 19.6424 10.338 20.5 12.5 20.5Z"/>
</mask>
<path fill-rule="evenodd" clip-rule="evenodd" d="M18.0911 20.7922C16.4951 21.8704 14.5711 22.5 12.5 22.5C10.2488 22.5 8.17132 21.7561 6.5 20.5007C4.0711 18.6763 2.5 15.7716 2.5 12.5C2.5 6.97715 6.97715 2.5 12.5 2.5C18.0228 2.5 22.5 6.97715 22.5 12.5C22.5 15.9518 20.7511 18.9951 18.0911 20.7922ZM12.5 13C14.1569 13 15.5 11.5449 15.5 9.75C15.5 7.95507 14.1569 6.5 12.5 6.5C10.8431 6.5 9.5 7.95507 9.5 9.75C9.5 11.5449 10.8431 13 12.5 13ZM12.5 20.5C14.662 20.5 16.6236 19.6424 18.0634 18.2488C17.173 16.0506 15.0176 14.5 12.5 14.5C9.98242 14.5 7.82699 16.0506 6.93662 18.2488C8.37635 19.6424 10.338 20.5 12.5 20.5Z" fill="black"/>
<path d="M18.0911 20.7922L16.9715 19.1349L18.0911 20.7922ZM6.5 20.5007L5.29885 22.0999L5.29885 22.0999L6.5 20.5007ZM18.0634 18.2488L19.4544 19.6859L20.4234 18.7479L19.9171 17.498L18.0634 18.2488ZM6.93662 18.2488L5.0829 17.498L4.57662 18.7479L5.54563 19.6859L6.93662 18.2488ZM12.5 24.5C14.9825 24.5 17.2945 23.744 19.2107 22.4494L16.9715 19.1349C15.6957 19.9968 14.1596 20.5 12.5 20.5V24.5ZM5.29885 22.0999C7.30462 23.6065 9.80085 24.5 12.5 24.5V20.5C10.6967 20.5 9.03802 19.9058 7.70115 18.9016L5.29885 22.0999ZM0.5 12.5C0.5 16.4273 2.38868 19.914 5.29885 22.0999L7.70115 18.9016C5.75353 17.4387 4.5 15.116 4.5 12.5H0.5ZM12.5 0.5C5.87258 0.5 0.5 5.87258 0.5 12.5H4.5C4.5 8.08172 8.08172 4.5 12.5 4.5V0.5ZM24.5 12.5C24.5 5.87258 19.1274 0.5 12.5 0.5V4.5C16.9183 4.5 20.5 8.08172 20.5 12.5H24.5ZM19.2107 22.4494C22.3977 20.2963 24.5 16.644 24.5 12.5H20.5C20.5 15.2596 19.1045 17.6939 16.9715 19.1349L19.2107 22.4494ZM13.5 9.75C13.5 10.5941 12.9046 11 12.5 11V15C15.4091 15 17.5 12.4958 17.5 9.75H13.5ZM12.5 8.5C12.9046 8.5 13.5 8.9059 13.5 9.75H17.5C17.5 7.00425 15.4091 4.5 12.5 4.5V8.5ZM11.5 9.75C11.5 8.9059 12.0954 8.5 12.5 8.5V4.5C9.59086 4.5 7.5 7.00425 7.5 9.75H11.5ZM12.5 11C12.0954 11 11.5 10.5941 11.5 9.75H7.5C7.5 12.4958 9.59086 15 12.5 15V11ZM16.6724 16.8118C15.5906 17.8588 14.1223 18.5 12.5 18.5V22.5C15.2017 22.5 17.6567 21.426 19.4544 19.6859L16.6724 16.8118ZM12.5 16.5C14.1752 16.5 15.6146 17.5305 16.2097 18.9996L19.9171 17.498C18.7314 14.5707 15.8599 12.5 12.5 12.5V16.5ZM8.79033 18.9996C9.38541 17.5305 10.8248 16.5 12.5 16.5V12.5C9.14008 12.5 6.26858 14.5707 5.0829 17.498L8.79033 18.9996ZM12.5 18.5C10.8777 18.5 9.40936 17.8588 8.32761 16.8118L5.54563 19.6859C7.34334 21.426 9.7983 22.5 12.5 22.5V18.5Z" fill="black" mask="url(#path-1-inside-1)"/>
</svg>
