<svg width="20" height="20" viewBox="0 0 20 20" fill="none" xmlns="http://www.w3.org/2000/svg">
<mask id="path-1-inside-1" fill="white">
<path fill-rule="evenodd" clip-rule="evenodd" d="M15.5911 18.2922C13.9951 19.3704 12.0711 20 10 20C7.74879 20 5.67132 19.2561 4 18.0007C1.5711 16.1763 0 13.2716 0 10C0 4.47715 4.47715 0 10 0C15.5228 0 20 4.47715 20 10C20 13.4518 18.2511 16.4951 15.5911 18.2922ZM10 10.5C11.6569 10.5 13 9.04493 13 7.25C13 5.45507 11.6569 4 10 4C8.34315 4 7 5.45507 7 7.25C7 9.04493 8.34315 10.5 10 10.5ZM10 18C12.162 18 14.1236 17.1424 15.5634 15.7488C14.673 13.5506 12.5176 12 10 12C7.48242 12 5.32699 13.5506 4.43662 15.7488C5.87635 17.1424 7.83802 18 10 18Z"/>
</mask>
<path fill-rule="evenodd" clip-rule="evenodd" d="M15.5911 18.2922C13.9951 19.3704 12.0711 20 10 20C7.74879 20 5.67132 19.2561 4 18.0007C1.5711 16.1763 0 13.2716 0 10C0 4.47715 4.47715 0 10 0C15.5228 0 20 4.47715 20 10C20 13.4518 18.2511 16.4951 15.5911 18.2922ZM10 10.5C11.6569 10.5 13 9.04493 13 7.25C13 5.45507 11.6569 4 10 4C8.34315 4 7 5.45507 7 7.25C7 9.04493 8.34315 10.5 10 10.5ZM10 18C12.162 18 14.1236 17.1424 15.5634 15.7488C14.673 13.5506 12.5176 12 10 12C7.48242 12 5.32699 13.5506 4.43662 15.7488C5.87635 17.1424 7.83802 18 10 18Z" fill="black"/>
<path d="M15.5911 18.2922L14.4715 16.6349L15.5911 18.2922ZM4 18.0007L2.79885 19.5999L2.79885 19.5999L4 18.0007ZM15.5634 15.7488L16.9544 17.1859L17.9234 16.2479L17.4171 14.998L15.5634 15.7488ZM4.43662 15.7488L2.5829 14.998L2.07662 16.2479L3.04563 17.1859L4.43662 15.7488ZM10 22C12.4825 22 14.7945 21.244 16.7107 19.9494L14.4715 16.6349C13.1957 17.4968 11.6596 18 10 18V22ZM2.79885 19.5999C4.80462 21.1065 7.30085 22 10 22V18C8.19673 18 6.53802 17.4058 5.20115 16.4016L2.79885 19.5999ZM-2 10C-2 13.9273 -0.111319 17.414 2.79885 19.5999L5.20115 16.4016C3.25353 14.9387 2 12.616 2 10H-2ZM10 -2C3.37258 -2 -2 3.37258 -2 10H2C2 5.58172 5.58172 2 10 2V-2ZM22 10C22 3.37258 16.6274 -2 10 -2V2C14.4183 2 18 5.58172 18 10H22ZM16.7107 19.9494C19.8977 17.7963 22 14.144 22 10H18C18 12.7596 16.6045 15.1939 14.4715 16.6349L16.7107 19.9494ZM11 7.25C11 8.0941 10.4046 8.5 10 8.5V12.5C12.9091 12.5 15 9.99575 15 7.25H11ZM10 6C10.4046 6 11 6.4059 11 7.25H15C15 4.50425 12.9091 2 10 2V6ZM9 7.25C9 6.4059 9.59543 6 10 6V2C7.09086 2 5 4.50425 5 7.25H9ZM10 8.5C9.59543 8.5 9 8.0941 9 7.25H5C5 9.99575 7.09086 12.5 10 12.5V8.5ZM14.1724 14.3118C13.0906 15.3588 11.6223 16 10 16V20C12.7017 20 15.1567 18.926 16.9544 17.1859L14.1724 14.3118ZM10 14C11.6752 14 13.1146 15.0305 13.7097 16.4996L17.4171 14.998C16.2314 12.0707 13.3599 10 10 10V14ZM6.29033 16.4996C6.88541 15.0305 8.32476 14 10 14V10C6.64008 10 3.76858 12.0707 2.5829 14.998L6.29033 16.4996ZM10 16C8.37775 16 6.90936 15.3588 5.82761 14.3118L3.04563 17.1859C4.84334 18.926 7.2983 20 10 20V16Z" fill="black" mask="url(#path-1-inside-1)"/>
</svg>
