<svg width="24" height="24" viewBox="0 0 24 24" fill="none" xmlns="http://www.w3.org/2000/svg">
<path d="M11 18.5982V15H13V18.5982C13 20.5 12.2383 22 12 22C11.7617 22 11 20.5 11 18.5982Z" fill="black"/>
<path d="M9.5 6C9.17534 5.83333 7.78566 5.2 6.61693 4C5.4482 2.8 6.12239 2 7.13026 2H12V6H9.5Z" fill="black"/>
<path d="M14.5 6C14.8247 5.83333 16.2143 5.2 17.3831 4C18.5518 2.8 17.8776 2 16.8697 2H12V6H14.5Z" fill="black"/>
<path d="M9.42857 6H14.5714L15 10H9L9.42857 6Z" fill="black"/>
<path d="M12 9C8.93114 9 6.32353 10.6927 5.37867 13.0483C4.96746 14.0735 5.89543 15 7 15H17C18.1046 15 19.0325 14.0735 18.6213 13.0483C17.6765 10.6927 15.0689 9 12 9Z" fill="black"/>
</svg>
