<svg width="20" height="20" viewBox="0 0 20 20" fill="none" xmlns="http://www.w3.org/2000/svg">
<path d="M16.5151 18.0831L13.6941 15.2621L15.2621 13.6941L18.0831 16.5151C19.5741 18.0061 20.1529 19.7793 19.9661 19.9661C19.7793 20.1529 18.0061 19.5741 16.5151 18.0831Z" fill="black"/>
<path d="M5.46196 9.38205C5.07677 9.50592 3.49073 10.0989 1.63366 10.0744C-0.223419 10.0499 -0.322049 8.89409 0.468114 8.10392L4.28598 4.28602L7.42196 7.42203L5.46196 9.38205Z" fill="black"/>
<path d="M9.38206 5.46202C9.50592 5.07682 10.0989 3.49077 10.0744 1.63368C10.0499 -0.223421 8.89411 -0.322052 8.10394 0.468119L4.28598 4.28602L7.42196 7.42203L9.38206 5.46202Z" fill="black"/>
<path d="M5.40596 9.43804L9.43793 5.40602L12.9099 8.20604L8.20594 12.9101L5.40596 9.43804Z" fill="black"/>
<path d="M9.774 9.77404C7.31114 12.2369 6.61779 15.7115 7.83827 18.3213C8.31038 19.3308 9.62883 19.3273 10.4169 18.5392L18.5391 10.4169C19.3271 9.62887 19.3307 8.3104 18.3212 7.83829C15.7114 6.61779 12.2369 7.31115 9.774 9.77404Z" fill="black"/>
</svg>
