<svg width="25" height="25" viewBox="0 0 25 25" fill="none" xmlns="http://www.w3.org/2000/svg">
<path d="M19.0151 20.5831L16.1941 17.7621L17.7621 16.1941L20.5831 19.0151C22.0741 20.5061 22.6529 22.2793 22.4661 22.4661C22.2793 22.6529 20.5061 22.0741 19.0151 20.5831Z" fill="black"/>
<path d="M7.96196 11.8821C7.57677 12.0059 5.99073 12.5989 4.13366 12.5744C2.27658 12.5499 2.17795 11.3941 2.96811 10.6039L6.78598 6.78602L9.92196 9.92203L7.96196 11.8821Z" fill="black"/>
<path d="M11.8821 7.96202C12.0059 7.57682 12.5989 5.99077 12.5744 4.13368C12.5499 2.27658 11.3941 2.17795 10.6039 2.96812L6.78598 6.78602L9.92196 9.92203L11.8821 7.96202Z" fill="black"/>
<path d="M7.90596 11.938L11.9379 7.90602L15.4099 10.706L10.7059 15.4101L7.90596 11.938Z" fill="black"/>
<path d="M12.274 12.274C9.81114 14.7369 9.11779 18.2115 10.3383 20.8213C10.8104 21.8308 12.1288 21.8273 12.9169 21.0392L21.0391 12.9169C21.8271 12.1289 21.8307 10.8104 20.8212 10.3383C18.2114 9.11779 14.7369 9.81115 12.274 12.274Z" fill="black"/>
</svg>
