<svg width="24" height="24" viewBox="0 0 24 24" fill="none" xmlns="http://www.w3.org/2000/svg">
    <path d="m11.068 2c-0.32021 4.772e-4 -0.66852 0.17244-0.96484 0.46875-2.5464 2.5435-5.0905 5.0892-7.6348 7.6348-0.79016 0.7902-0.69302 1.9462 1.1641 1.9707 1.855 0.02447 3.4407-0.56671 3.8281-0.69141l2.4355 3.1445c-0.83503 1.9462-0.86902 4.062-0.058594 5.7949 0.47213 1.0095 1.79 1.0049 2.5781 0.2168l3.2773-3.2773 2.8223 2.8223c1.491 1.491 3.2644 2.0696 3.4512 1.8828s-0.39181-1.9602-1.8828-3.4512l-2.8223-2.8223 3.2773-3.2773c0.788-0.788 0.79075-2.106-0.21875-2.5781-1.733-0.81044-3.8468-0.77643-5.793 0.058594l-3.1445-2.4355c0.1247-0.38742 0.71588-1.9731 0.69141-3.8281-0.015311-1.1607-0.47217-1.6336-1.0059-1.6328z" fill="#737d8c"/>
</svg>
