<svg width="24" height="24" viewBox="0 0 24 24" fill="none" xmlns="http://www.w3.org/2000/svg">
    <path fill-rule="evenodd" clip-rule="evenodd" d="M22 12C22 17.5228 17.5228 22 12 22C6.47715 22 2 17.5228 2 12C2 6.47715 6.47715 2 12 2C17.5228 2 22 6.47715 22 12ZM10 12C10 12.5523 10.4477 13 11 13V16.5C11 17.0523 11.4477 17.5 12 17.5H13.5C14.0523 17.5 14.5 17.0523 14.5 16.5C14.5 15.9477 14.0523 15.5 13.5 15.5H13V12C13 11.4477 12.5523 11 12 11H11C10.4477 11 10 11.4477 10 12ZM12 10C12.8284 10 13.5 9.32843 13.5 8.5C13.5 7.67157 12.8284 7 12 7C11.1716 7 10.5 7.67157 10.5 8.5C10.5 9.32843 11.1716 10 12 10Z" fill="black"/>
</svg>
