<svg width="25" height="25" viewBox="0 0 25 25" fill="none" xmlns="http://www.w3.org/2000/svg">
<path fill-rule="evenodd" clip-rule="evenodd" d="M12.5 22.5C18.0228 22.5 22.5 18.0228 22.5 12.5C22.5 6.97715 18.0228 2.5 12.5 2.5C6.97715 2.5 2.5 6.97715 2.5 12.5C2.5 18.0228 6.97715 22.5 12.5 22.5ZM11.5 14.5C13.1569 14.5 14.5 13.1569 14.5 11.5C14.5 9.84315 13.1569 8.5 11.5 8.5C9.84315 8.5 8.5 9.84315 8.5 11.5C8.5 13.1569 9.84315 14.5 11.5 14.5ZM16.5 11.5C16.5 12.5191 16.1951 13.467 15.6716 14.2574L17.7071 16.2929C18.0976 16.6834 18.0976 17.3166 17.7071 17.7071C17.3166 18.0976 16.6834 18.0976 16.2929 17.7071L14.2574 15.6716C13.467 16.1951 12.5191 16.5 11.5 16.5C8.73858 16.5 6.5 14.2614 6.5 11.5C6.5 8.73858 8.73858 6.5 11.5 6.5C14.2614 6.5 16.5 8.73858 16.5 11.5Z" fill="black"/>
</svg>
