<svg width="25" height="25" viewBox="0 0 25 25" fill="none" xmlns="http://www.w3.org/2000/svg">
<path fill-rule="evenodd" clip-rule="evenodd" d="M13.2688 2.79289C12.8782 2.40237 12.2451 2.40237 11.8545 2.79289L7.32365 7.32378C6.93313 7.7143 6.93313 8.34747 7.32365 8.73799C7.71418 9.12851 8.34734 9.12851 8.73787 8.73799L11.5616 5.91421V10.5H6.5C5.39543 10.5 4.5 11.3954 4.5 12.5V20.5C4.5 21.6046 5.39543 22.5 6.5 22.5H18.5C19.6046 22.5 20.5 21.6046 20.5 20.5V12.5C20.5 11.3954 19.6046 10.5 18.5 10.5H13.5618V15.5C13.5618 16.0523 13.1141 16.5 12.5618 16.5C12.0095 16.5 11.5618 16.0523 11.5618 15.5V10.5H13.5616V5.91421L16.3854 8.73799C16.7759 9.12851 17.4091 9.12851 17.7996 8.73799C18.1902 8.34747 18.1902 7.7143 17.7996 7.32378L13.2688 2.79289Z" fill="black"/>
</svg>
