<svg width="24" height="24" viewBox="0 0 24 24" fill="none" xmlns="http://www.w3.org/2000/svg">
<path fill-rule="evenodd" clip-rule="evenodd" d="M12.7688 2.29289C12.3782 1.90237 11.7451 1.90237 11.3545 2.29289L6.82365 6.82378C6.43313 7.2143 6.43313 7.84747 6.82365 8.23799C7.21418 8.62851 7.84734 8.62851 8.23787 8.23799L11.0616 5.41421V10H6C4.89543 10 4 10.8954 4 12V20C4 21.1046 4.89543 22 6 22H18C19.1046 22 20 21.1046 20 20V12C20 10.8954 19.1046 10 18 10H13.0618V15C13.0618 15.5523 12.6141 16 12.0618 16C11.5095 16 11.0618 15.5523 11.0618 15V10H13.0616V5.41421L15.8854 8.23799C16.2759 8.62851 16.9091 8.62851 17.2996 8.23799C17.6902 7.84747 17.6902 7.2143 17.2996 6.82378L12.7688 2.29289Z" fill="black"/>
</svg>
