<svg width="16" height="20" viewBox="0 0 16 20" fill="none" xmlns="http://www.w3.org/2000/svg">
<path fill-rule="evenodd" clip-rule="evenodd" d="M8.76875 0.292893C8.37823 -0.0976311 7.74506 -0.0976311 7.35454 0.292893L2.82365 4.82378C2.43313 5.2143 2.43313 5.84747 2.82365 6.23799C3.21418 6.62851 3.84734 6.62851 4.23787 6.23799L7.06165 3.41421V8H2C0.895431 8 0 8.89543 0 10V18C0 19.1046 0.895431 20 2 20H14C15.1046 20 16 19.1046 16 18V10C16 8.89543 15.1046 8 14 8H9.06177V13C9.06177 13.5523 8.61405 14 8.06177 14C7.50948 14 7.06177 13.5523 7.06177 13V8H9.06165V3.41421L11.8854 6.23799C12.2759 6.62851 12.9091 6.62851 13.2996 6.23799C13.6902 5.84747 13.6902 5.2143 13.2996 4.82378L8.76875 0.292893Z" fill="black"/>
</svg>
