<?xml version="1.0" encoding="UTF-8" standalone="no"?>
<svg width="28px" height="16px" viewBox="0 0 28 16" version="1.1" xmlns="http://www.w3.org/2000/svg" xmlns:xlink="http://www.w3.org/1999/xlink">
    <!-- Generator: sketchtool 39 (31667) - http://www.bohemiancoding.com/sketch -->
    <title>01F3F9B2-8F38-4BAF-A345-AECAC3D88E79</title>
    <desc>Created with sketchtool.</desc>
    <defs></defs>
    <g id="Screens-revised" stroke="none" stroke-width="1" fill="none" fill-rule="evenodd">
        <g id="02_x-Chat-text-input-markdown-panel-MD_off-BUTTONS-ON" transform="translate(-294.000000, -745.000000)">
            <g id="format-buttons-A-Copy" transform="translate(294.000000, 745.000000)">
                <g id="button_text_bold_ON">
                    <rect id="Rectangle-108" fill="#4A4A4A" x="0" y="0" width="28" height="16" rx="8"></rect>
                    <path d="M10.9882812,3.92523872 L13.4321289,3.92523872 C14.5457412,3.92523872 15.3540828,4.0836844 15.8571777,4.40058051 C16.3602727,4.71747663 16.6118164,5.22145922 16.6118164,5.9125434 C16.6118164,6.38162127 16.5017101,6.76654581 16.2814941,7.06732856 C16.0612782,7.36811131 15.7685565,7.54893633 15.4033203,7.60980903 L15.4033203,7.66351997 C15.9010442,7.77452312 16.2600087,7.98220334 16.4802246,8.28656684 C16.7004406,8.59093034 16.8105469,8.99554869 16.8105469,9.50043403 C16.8105469,10.2165834 16.5518418,10.7751716 16.0344238,11.1762153 C15.5170059,11.5772589 14.8142948,11.7777778 13.9262695,11.7777778 L10.9882812,11.7777778 L10.9882812,3.92523872 Z M12.6533203,7.035102 L13.6201172,7.035102 C14.0712913,7.035102 14.3980296,6.96527848 14.6003418,6.82562934 C14.802654,6.6859802 14.9038086,6.45502548 14.9038086,6.13275825 C14.9038086,5.83197549 14.7937023,5.61623872 14.5734863,5.48554145 C14.3532704,5.35484418 14.005048,5.28949653 13.5288086,5.28949653 L12.6533203,5.28949653 L12.6533203,7.035102 Z M12.6533203,8.35639106 L12.6533203,10.4027778 L13.7382812,10.4027778 C14.1966169,10.4027778 14.5349924,10.3150508 14.753418,10.1395942 C14.9718435,9.96413758 15.0810547,9.69558558 15.0810547,9.33393012 C15.0810547,8.68223415 14.6155646,8.35639106 13.6845703,8.35639106 L12.6533203,8.35639106 Z" id="B" fill="#FFFFFF"></path>
                </g>
            </g>
        </g>
    </g>
</svg>