<?xml version="1.0" encoding="UTF-8" standalone="no"?>
<svg width="28px" height="16px" viewBox="0 0 28 16" version="1.1" xmlns="http://www.w3.org/2000/svg" xmlns:xlink="http://www.w3.org/1999/xlink">
    <!-- Generator: sketchtool 39 (31667) - http://www.bohemiancoding.com/sketch -->
    <title>654917CF-20A4-49B6-B0A1-9875D7B733C8</title>
    <desc>Created with sketchtool.</desc>
    <defs></defs>
    <g id="Screens-revised" stroke="none" stroke-width="1" fill="none" fill-rule="evenodd">
        <g id="02_x-Chat-text-input-markdown-panel-MD_off-BUTTONS-ON" transform="translate(-422.000000, -745.000000)">
            <g id="format-buttons-A-Copy" transform="translate(294.000000, 745.000000)">
                <g id="button_text_bullet_ON" transform="translate(128.000000, 0.000000)">
                    <rect id="Rectangle-108" fill="#4A4A4A" x="0" y="0" width="28" height="16" rx="8"></rect>
                    <path d="M5.57421875,5.39496528 C5.57421875,4.79339977 5.71874855,4.33344343 6.0078125,4.01508247 C6.29687645,3.6967215 6.71288791,3.5375434 7.25585938,3.5375434 C7.7910183,3.5375434 8.20507666,3.69769805 8.49804688,4.01801215 C8.79101709,4.33832625 8.9375,4.79730604 8.9375,5.39496528 C8.9375,5.98871825 8.79004054,6.44769803 8.49511719,6.7719184 C8.20019384,7.09613877 7.78711203,7.25824653 7.25585938,7.25824653 C6.71679418,7.25824653 6.30175927,7.09613877 6.01074219,6.7719184 C5.71972511,6.44769803 5.57421875,5.98871825 5.57421875,5.39496528 L5.57421875,5.39496528 Z" id="•" fill="#FFFFFF"></path>
                    <path d="M11.5,5.5 L19.5,5.5" id="Line" stroke="#FFFFFF" stroke-linecap="round"></path>
                    <path d="M11.5,8.5 L19.5,8.5" id="Line-Copy" stroke="#FFFFFF" stroke-linecap="round"></path>
                    <path d="M11.5,11.5 L19.5,11.5" id="Line-Copy-3" stroke="#FFFFFF" stroke-linecap="round"></path>
                </g>
            </g>
        </g>
    </g>
</svg>