<?xml version="1.0" encoding="UTF-8" standalone="no"?>
<svg width="28px" height="16px" viewBox="0 0 28 16" version="1.1" xmlns="http://www.w3.org/2000/svg" xmlns:xlink="http://www.w3.org/1999/xlink">
    <!-- Generator: sketchtool 39 (31667) - http://www.bohemiancoding.com/sketch -->
    <title>BFC0418B-9081-4789-A231-B75953157748</title>
    <desc>Created with sketchtool.</desc>
    <defs></defs>
    <g id="Screens-revised" stroke="none" stroke-width="1" fill="none" fill-rule="evenodd">
        <g id="02_x-Chat-text-input-markdown-panel-MD_off" transform="translate(-390.000000, -745.000000)">
            <g id="format-buttons-A-Copy" transform="translate(294.000000, 745.000000)">
                <g id="button_text_quote" transform="translate(96.000000, 0.000000)">
                    <rect id="Rectangle-108" fill-opacity="0.1" fill="#000000" x="0" y="0" width="28" height="16" rx="8"></rect>
                    <path d="M13.6762695,4.58734809 C13.2019833,4.85981039 12.8185236,5.09442718 12.5258789,5.29120551 C12.2332342,5.48798384 11.9355484,5.74782825 11.6328125,6.07074653 C11.350259,6.37348242 11.1333015,6.69135033 10.9819336,7.02435981 C10.8305656,7.35736929 10.7246097,7.7862387 10.6640625,8.3109809 L11.390625,8.3109809 C12.0162792,8.3109809 12.5082176,8.46486934 12.8664551,8.77265082 C13.2246925,9.08043231 13.4038086,9.53200657 13.4038086,10.1273872 C13.4038086,10.5512174 13.2448746,10.9472909 12.927002,11.3156196 C12.6091293,11.6839482 12.1726916,11.8681098 11.6176758,11.8681098 C10.7498329,11.8681098 10.1292336,11.5830378 9.75585938,11.0128852 C9.38248511,10.4427326 9.19580078,9.69347252 9.19580078,8.76508247 C9.19580078,8.10915471 9.33707541,7.51126029 9.61962891,6.97138129 C9.9021824,6.43150229 10.2452779,5.9496549 10.6489258,5.52582465 C11.0626648,5.09190321 11.5016253,4.72358007 11.9658203,4.42084418 C12.4300153,4.1181083 12.8185206,3.87087769 13.1313477,3.67914497 L13.6762695,4.58734809 Z M19.2768555,4.58734809 C18.8025692,4.85981039 18.4191095,5.09442718 18.1264648,5.29120551 C17.8338202,5.48798384 17.5361343,5.74782825 17.2333984,6.07074653 C16.9407537,6.38357361 16.7212735,6.70396429 16.5749512,7.03192817 C16.4286288,7.35989205 16.3251956,7.7862387 16.2646484,8.3109809 L16.9912109,8.3109809 C17.6168651,8.3109809 18.1088035,8.46486934 18.467041,8.77265082 C18.8252785,9.08043231 19.0043945,9.53200657 19.0043945,10.1273872 C19.0043945,10.5512174 18.8454606,10.9472909 18.5275879,11.3156196 C18.2097152,11.6839482 17.7732775,11.8681098 17.2182617,11.8681098 C16.3504188,11.8681098 15.7298196,11.5830378 15.3564453,11.0128852 C14.983071,10.4427326 14.7963867,9.69347252 14.7963867,8.76508247 C14.7963867,8.10915471 14.9376613,7.51126029 15.2202148,6.97138129 C15.5027683,6.43150229 15.8458639,5.9496549 16.2495117,5.52582465 C16.6632508,5.09190321 17.1022112,4.72358007 17.5664062,4.42084418 C18.0306013,4.1181083 18.4191065,3.87087769 18.7319336,3.67914497 L19.2768555,4.58734809 Z" id="“" fill="#4A4A4A"></path>
                </g>
            </g>
        </g>
    </g>
</svg>