<?xml version="1.0" encoding="utf-8"?>
<!-- Generator: Adobe Illustrator 15.0.0, SVG Export Plug-In . SVG Version: 6.00 Build 0)  -->
<!DOCTYPE svg PUBLIC "-//W3C//DTD SVG 1.1//EN" "http://www.w3.org/Graphics/SVG/1.1/DTD/svg11.dtd">
<svg version="1.1" id="Layer_1" xmlns="http://www.w3.org/2000/svg" xmlns:xlink="http://www.w3.org/1999/xlink" x="0px" y="0px"
	 width="612px" height="612px" viewBox="0 90 612 612" enable-background="new 0 90 612 612" xml:space="preserve">
<path fill="#76CFA6" d="M612,149.5v135.983c0,22.802-27.582,33.979-43.531,18.032l-37.939-37.941L271.787,524.317
	c-9.959,9.958-26.104,9.958-36.062,0l-24.041-24.042c-9.959-9.958-9.959-26.104,0-36.062l258.746-258.746l-37.935-37.937
	C416.48,151.519,427.822,124,450.525,124H586.5C600.583,124,612,135.417,612,149.5z M432.469,411.719l-17,17
	c-4.782,4.782-7.469,11.269-7.469,18.031V600H68V260h280.5c6.763,0,13.248-2.687,18.03-7.468l17-17
	C399.595,219.467,388.218,192,365.5,192H51c-28.167,0-51,22.833-51,51v374c0,28.167,22.833,51,51,51h374c28.167,0,51-22.833,51-51
	V429.749C476,407.031,448.532,395.654,432.469,411.719z"/>
</svg>
