<svg width="24" height="24" viewBox="0 0 24 24" fill="none" xmlns="http://www.w3.org/2000/svg">
<path d="M21.2756 4.69628C21.8922 4.07969 21.8922 3.08 21.2756 2.46342C20.659 1.84683 19.6593 1.84683 19.0427 2.46342L11.8917 9.61447L4.74063 2.46342C4.12404 1.84683 3.12436 1.84683 2.50777 2.46342C1.89118 3.08 1.89118 4.07969 2.50777 4.69628L9.65882 11.8473L2.20145 19.3047C1.58487 19.9213 1.58487 20.921 2.20145 21.5376C2.81804 22.1541 3.81773 22.1541 4.43431 21.5376L11.8917 14.0802L19.349 21.5375C19.9656 22.1541 20.9653 22.1541 21.5819 21.5375C22.1985 20.921 22.1985 19.9213 21.5819 19.3047L14.1245 11.8473L21.2756 4.69628Z" fill="#737D8C"/>
</svg>
