<?xml version="1.0" encoding="UTF-8" standalone="no"?>
<svg width="12px" height="14px" viewBox="-1 -1 12 14" version="1.1" xmlns="http://www.w3.org/2000/svg" xmlns:xlink="http://www.w3.org/1999/xlink" xmlns:sketch="http://www.bohemiancoding.com/sketch/ns">
    <!-- Generator: Sketch 3.4.4 (17249) - http://www.bohemiancoding.com/sketch -->
    <title>Fill 75</title>
    <desc>Created with Sketch.</desc>
    <defs></defs>
    <g id="02-Chat" stroke="none" stroke-width="1" fill="none" fill-rule="evenodd" sketch:type="MSPage">
        <g id="02_x-Chat-MAX" sketch:type="MSArtboardGroup" transform="translate(-280.000000, -546.000000)" fill="currentColor">
            <g id="Group" sketch:type="MSLayerGroup" transform="translate(243.000000, 58.000000)">
                <g id="Group-Copy-13-+-Matrix-HQ-Copy-17-+-Bitmap" transform="translate(1.000000, 181.000000)" sketch:type="MSShapeGroup">
                    <g id="Group-Copy-13">
                        <path d="M45.3400426,312.526774 C45.4870048,312.526774 45.633967,312.470898 45.7464849,312.35838 C45.9699899,312.134109 45.9699899,311.771296 45.7464849,311.547026 L41.3659396,307.168011 C41.1424345,306.943741 40.7788562,306.944506 40.5545857,307.167246 L36.1686823,311.540137 C35.9444119,311.764408 35.9436465,312.127986 36.1671515,312.352256 C36.3906565,312.577292 36.7542349,312.577292 36.9785053,312.353787 L40.3915495,308.950694 L40.3930804,318.425929 C40.3930804,318.742816 40.6510296,319 40.9671515,319 C41.2848042,319 41.5412226,318.742816 41.5412226,318.425929 L41.5396917,308.965237 L44.9343656,312.35838 C45.0461182,312.470898 45.1930804,312.526774 45.3400426,312.526774 L45.3400426,312.526774 Z" id="Fill-75" transform="translate(40.957057, 313.000000) rotate(-180.000000) translate(-40.957057, -313.000000) "></path>
                    </g>
                </g>
            </g>
        </g>
    </g>
</svg>