<?xml version="1.0" encoding="UTF-8" standalone="no"?>
<svg width="14px" height="12px" viewBox="0 0 14 12" version="1.1" xmlns="http://www.w3.org/2000/svg" xmlns:xlink="http://www.w3.org/1999/xlink">
    <!-- Generator: sketchtool 39.1 (31720) - http://www.bohemiancoding.com/sketch -->
    <title>16F5F38E-A6A3-472A-BC13-13F0F12876CF</title>
    <desc>Created with sketchtool.</desc>
    <defs></defs>
    <g id="Typing-Indicator" stroke="none" stroke-width="1" fill="none" fill-rule="evenodd" opacity="0.200000003">
        <g id="typing-indicator" transform="translate(-301.000000, -141.000000)" fill="#000000">
            <g id="unencrypted_icon" transform="translate(301.000000, 141.000000)">
                <g id="Lock-Copy" transform="translate(0.000000, 4.000000)">
                    <g id="Layer_1">
                        <polygon id="Shape" points="1.33333333 0.666666667 0 0.666666667 0 8 5 8 10 8 10 0.666666667 8.66666667 0.666666667"></polygon>
                    </g>
                </g>
                <g id="Lock-Copy-2" transform="translate(6.000000, 0.000000)">
                    <g id="Layer_1">
                        <path d="M7.66666667,3.66666667 C7.66666667,1.63333333 6.03333333,0 4,0 C1.96666667,0 0.333333333,1.63333333 0.333333333,3.66666667 L0.333333333,4.66666667 L7.66666667,4.66666667 L7.66666667,3.66666667 Z M1.66666667,4.66666667 L1.66666667,3.66666667 C1.66666667,2.36666667 2.7,1.33333333 4,1.33333333 C5.3,1.33333333 6.33333333,2.36666667 6.33333333,3.66666667 L6.33333333,4.66666667 L4,4.66666667 L1.66666667,4.66666667 Z" id="Shape"></path>
                    </g>
                </g>
            </g>
        </g>
    </g>
</svg>