<svg width="24" height="24" viewBox="0 0 24 24" fill="none" xmlns="http://www.w3.org/2000/svg">
<path fill-rule="evenodd" clip-rule="evenodd" d="M8.64001 1.44C8.64001 0.64471 9.28472 0 10.08 0C15.3819 0 19.68 4.29807 19.68 9.6C19.68 10.3953 19.0353 11.04 18.24 11.04C17.4447 11.04 16.8 10.3953 16.8 9.6C16.8 5.88865 13.7914 2.88 10.08 2.88C9.28472 2.88 8.64001 2.23529 8.64001 1.44Z" fill="#0DBD8B"/>
<path fill-rule="evenodd" clip-rule="evenodd" d="M15.36 22.56C15.36 23.3553 14.7153 24 13.92 24C8.61805 24 4.31999 19.7019 4.31999 14.4C4.31999 13.6047 4.9647 12.96 5.75999 12.96C6.55528 12.96 7.19999 13.6047 7.19999 14.4C7.19999 18.1114 10.2086 21.12 13.92 21.12C14.7153 21.12 15.36 21.7647 15.36 22.56Z" fill="#0DBD8B"/>
<path fill-rule="evenodd" clip-rule="evenodd" d="M1.44 15.36C0.64471 15.36 -1.40906e-08 14.7153 -3.14722e-08 13.92C-1.4735e-07 8.61805 4.29807 4.31999 9.6 4.31998C10.3953 4.31998 11.04 4.96469 11.04 5.75998C11.04 6.55527 10.3953 7.19998 9.6 7.19998C5.88865 7.19998 2.88 10.2086 2.88 13.92C2.88 14.7153 2.23529 15.36 1.44 15.36Z" fill="#0DBD8B"/>
<path fill-rule="evenodd" clip-rule="evenodd" d="M22.56 8.64001C23.3553 8.64001 24 9.28472 24 10.08C24 15.3819 19.7019 19.68 14.4 19.68C13.6047 19.68 12.96 19.0353 12.96 18.24C12.96 17.4447 13.6047 16.8 14.4 16.8C18.1114 16.8 21.12 13.7914 21.12 10.08C21.12 9.28472 21.7647 8.64001 22.56 8.64001Z" fill="#0DBD8B"/>
</svg>
