<?xml version="1.0" encoding="UTF-8" standalone="no"?>
<svg width="24px" height="24px" viewBox="0 0 24 24" version="1.1" xmlns="http://www.w3.org/2000/svg" xmlns:xlink="http://www.w3.org/1999/xlink" xmlns:sketch="http://www.bohemiancoding.com/sketch/ns">
    <!-- Generator: Sketch 3.4.4 (17249) - http://www.bohemiancoding.com/sketch -->
    <title>icons_archive</title>
    <desc>Created with Sketch.</desc>
    <defs></defs>
    <g id="Page-1" stroke="none" stroke-width="1" fill="none" fill-rule="evenodd" sketch:type="MSPage">
        <g id="ellipsis" sketch:type="MSLayerGroup">
            <g id="03-Input" sketch:type="MSShapeGroup">
                <g id="03_3-Input-filled">
                    <g id="right_default">
                        <g id="right_middle">
                            <g id="Left-panel">
                                <g id="icons_archive">
                                    <rect id="Rectangle-1" fill="#ECECEC" x="0" y="0" width="24" height="24"></rect>
                                    <path d="M7.338,13.154 C7.842,13.154 8.164,12.776 8.164,12.272 C8.164,11.754 7.842,11.39 7.338,11.39 C6.848,11.39 6.512,11.754 6.512,12.272 C6.498,12.776 6.848,13.154 7.338,13.154 L7.338,13.154 L7.338,13.154 Z M12,13.154 C12.504,13.154 12.84,12.776 12.84,12.272 C12.826,11.754 12.504,11.39 12.014,11.39 C11.524,11.39 11.174,11.754 11.174,12.272 C11.16,12.776 11.51,13.154 12,13.154 L12,13.154 L12,13.154 Z M16.662,13.154 C17.18,13.154 17.502,12.776 17.502,12.272 C17.502,11.754 17.166,11.39 16.676,11.39 C16.186,11.39 15.836,11.754 15.836,12.272 C15.836,12.776 16.172,13.154 16.662,13.154 L16.662,13.154 L16.662,13.154 Z" id="Matrix-HQ-Copy-15" fill="#454545"></path>
                                </g>
                            </g>
                        </g>
                    </g>
                </g>
            </g>
        </g>
    </g>
</svg>