<svg width="32" height="12" viewBox="0 0 32 12" fill="none" xmlns="http://www.w3.org/2000/svg">
<path d="M18.8612 6.11398H15.0997C15.1441 6.50759 15.2869 6.82185 15.5282 7.05675C15.7694 7.2853 16.0869 7.39957 16.4805 7.39957C16.7408 7.39957 16.9757 7.33609 17.1852 7.20912C17.3947 7.08214 17.5439 6.91073 17.6328 6.69488H18.7755C18.6232 7.19642 18.3375 7.60273 17.9185 7.91381C17.5058 8.21855 17.0169 8.37092 16.4519 8.37092C15.7155 8.37092 15.1187 8.12649 14.6616 7.63765C14.2109 7.1488 13.9855 6.52981 13.9855 5.78067C13.9855 5.05058 14.214 4.43794 14.6711 3.94274C15.1282 3.44755 15.7187 3.19995 16.4424 3.19995C17.1661 3.19995 17.7502 3.44437 18.1946 3.93322C18.6454 4.41572 18.8708 5.02518 18.8708 5.76163L18.8612 6.11398ZM16.4424 4.12368C16.0869 4.12368 15.7917 4.22843 15.5568 4.43794C15.3219 4.64744 15.1758 4.92678 15.1187 5.27596H17.747C17.6963 4.92678 17.5566 4.64744 17.328 4.43794C17.0995 4.22843 16.8043 4.12368 16.4424 4.12368Z" fill="#454545"/>
<path d="M23.974 5.4188V8.25664H22.8408V5.295C22.8408 4.54586 22.5297 4.17129 21.9075 4.17129C21.5711 4.17129 21.3012 4.27922 21.0981 4.49507C20.9013 4.71093 20.8029 5.00614 20.8029 5.38071V8.25664H19.6696V3.31423H20.7172V3.97131C20.8378 3.74911 21.0219 3.565 21.2695 3.41898C21.5171 3.27296 21.825 3.19995 22.1932 3.19995C22.8789 3.19995 23.3741 3.46025 23.6788 3.98083C24.0978 3.46025 24.6565 3.19995 25.3548 3.19995C25.9326 3.19995 26.377 3.38089 26.6881 3.74276C26.9991 4.09828 27.1547 4.56808 27.1547 5.15216V8.25664H26.0214V5.295C26.0214 4.54586 25.7104 4.17129 25.0882 4.17129C24.7454 4.17129 24.4724 4.28239 24.2692 4.5046C24.0724 4.72045 23.974 5.02518 23.974 5.4188Z" fill="#454545"/>
<path d="M29.9335 8.37092C29.2542 8.37092 28.7432 8.2122 28.4003 7.89477C28.0575 7.57734 27.8702 7.17102 27.8385 6.67583H28.9336C28.9463 6.90438 29.0447 7.08849 29.2288 7.22816C29.4129 7.36783 29.6701 7.43767 30.0002 7.43767C30.2922 7.43767 30.5176 7.38688 30.6763 7.2853C30.835 7.18372 30.9144 7.04723 30.9144 6.87581C30.9144 6.68535 30.816 6.54568 30.6192 6.4568C30.4287 6.36157 30.1938 6.29174 29.9145 6.2473C29.6351 6.20286 29.3558 6.14572 29.0765 6.07588C28.7971 5.9997 28.559 5.85368 28.3622 5.63783C28.1718 5.42197 28.0765 5.12676 28.0765 4.75219C28.0765 4.32049 28.2543 3.95544 28.6098 3.65705C28.9717 3.35232 29.4479 3.19995 30.0383 3.19995C30.3748 3.19995 30.67 3.25391 30.9239 3.36184C31.1842 3.46342 31.3842 3.59992 31.5239 3.77133C31.6699 3.94274 31.7778 4.11733 31.8476 4.29509C31.9238 4.47285 31.9683 4.65379 31.981 4.8379H30.8953C30.8763 4.64109 30.7906 4.47285 30.6382 4.33318C30.4922 4.19351 30.2827 4.12368 30.0097 4.12368C29.7367 4.12368 29.5272 4.17764 29.3812 4.28557C29.2352 4.38715 29.1622 4.52999 29.1622 4.7141C29.1622 4.88551 29.2574 5.01566 29.4479 5.10454C29.6447 5.19342 29.8827 5.26008 30.1621 5.30452C30.4414 5.34897 30.7208 5.41245 31.0001 5.49498C31.2794 5.57117 31.5143 5.72036 31.7048 5.94256C31.9016 6.16477 32 6.45998 32 6.8282C32 7.2726 31.8191 7.64082 31.4572 7.93286C31.1017 8.2249 30.5938 8.37092 29.9335 8.37092Z" fill="#454545"/>
<path fill-rule="evenodd" clip-rule="evenodd" d="M3.85681 1.18284C3.85681 0.82783 4.1446 0.540039 4.49961 0.540039C6.86634 0.540039 8.78494 2.45865 8.78494 4.82537C8.78494 5.18038 8.49715 5.46817 8.14214 5.46817C7.78714 5.46817 7.49934 5.18038 7.49934 4.82537C7.49934 3.16866 6.15632 1.82564 4.49961 1.82564C4.1446 1.82564 3.85681 1.53785 3.85681 1.18284Z" fill="#454545"/>
<path fill-rule="evenodd" clip-rule="evenodd" d="M6.85657 10.6106C6.85657 10.9656 6.56878 11.2534 6.21377 11.2534C3.84705 11.2534 1.92844 9.33481 1.92844 6.96809C1.92844 6.61308 2.21623 6.32529 2.57124 6.32529C2.92625 6.32529 3.21404 6.61308 3.21404 6.96809C3.21404 8.62479 4.55706 9.96782 6.21377 9.96782C6.56878 9.96782 6.85657 10.2556 6.85657 10.6106Z" fill="#454545"/>
<path fill-rule="evenodd" clip-rule="evenodd" d="M0.6428 7.39661C0.287791 7.39661 -1.25798e-08 7.10882 -2.80977e-08 6.75381C-1.3155e-07 4.38708 1.91861 2.46848 4.28533 2.46848C4.64034 2.46848 4.92813 2.75627 4.92813 3.11128C4.92813 3.46628 4.64034 3.75408 4.28533 3.75408C2.62863 3.75408 1.2856 5.0971 1.2856 6.75381C1.2856 7.10882 0.997809 7.39661 0.6428 7.39661Z" fill="#454545"/>
<path fill-rule="evenodd" clip-rule="evenodd" d="M10.0706 4.39685C10.4256 4.39685 10.7134 4.68464 10.7134 5.03965C10.7134 7.40637 8.79477 9.32498 6.42805 9.32498C6.07304 9.32498 5.78525 9.03719 5.78525 8.68218C5.78525 8.32717 6.07304 8.03938 6.42805 8.03938C8.08475 8.03938 9.42778 6.69636 9.42778 5.03965C9.42778 4.68464 9.71557 4.39685 10.0706 4.39685Z" fill="#454545"/>
</svg>
