<svg width="40" height="63" viewBox="0 0 40 63" fill="none" xmlns="http://www.w3.org/2000/svg">
<path d="M19.9689 62V46.6958L1.21506 35.6246L19.9689 62Z" fill="#F2F2F2"/>
<path d="M20.0311 62V46.6958L38.7848 35.6246L20.0311 62Z" fill="#F6F6F6"/>
<path d="M19.9689 42.8917V23.3594L1 31.9341L19.9689 42.8917Z" fill="#D6D6D6"/>
<path d="M20.031 42.8917V23.3594L39 31.9341L20.031 42.8917Z" fill="#F6F6F6"/>
<path d="M1 31.9341L19.9689 1L19.9689 23.3594L1 31.9341Z" fill="#F2F2F2"/>
<path d="M39 31.9341L20.0311 1L20.031 23.3594L39 31.9341Z" fill="#C9C9C9"/>
<path d="M19.9689 23.3594V42.8917L1 31.9341M19.9689 23.3594L1 31.9341M19.9689 23.3594L19.9689 1L1 31.9341M20.031 23.3594V42.8917L39 31.9341M20.031 23.3594L39 31.9341M20.031 23.3594L20.0311 1L39 31.9341M19.9689 62V46.6958L1.21506 35.6246L19.9689 62ZM20.0311 62V46.6958L38.7848 35.6246L20.0311 62Z" stroke="white" stroke-linejoin="round"/>
</svg>
