<svg width="8" height="8" viewBox="0 0 8 8" fill="none" xmlns="http://www.w3.org/2000/svg">
<path fill-rule="evenodd" clip-rule="evenodd" d="M4 8C6.20914 8 8 6.20914 8 4C8 1.79086 6.20914 0 4 0C1.79086 0 0 1.79086 0 4C0 6.20914 1.79086 8 4 8ZM6.53332 5.3468L6.24528 6.23562C6.23346 6.27208 6.21342 6.30534 6.1867 6.33282L5.90913 6.61831L5.59095 6.94559L5.52111 7.01743C5.4003 7.14169 5.19279 7.10832 5.11702 6.95246L4.97216 6.65447C4.96052 6.63052 4.94513 6.60859 4.92657 6.58949L4.63641 6.29104L4.39185 6.0395C4.34478 5.99108 4.28013 5.96377 4.2126 5.96377H3.83831C3.74261 5.96377 3.6553 5.90914 3.61347 5.82307L3.38884 5.36098C3.37228 5.32692 3.36368 5.28955 3.36368 5.25168V4.47996C3.36368 4.38629 3.31132 4.30048 3.22802 4.25764L2.78114 4.02781C2.74577 4.00962 2.70657 4.00013 2.6668 4.00013H2.19658C2.12905 4.00013 2.0644 3.97282 2.01733 3.9244L1.53085 3.42402C1.48223 3.37402 1.45672 3.30599 1.46046 3.23635L1.49316 2.62739C1.4977 2.54285 1.51357 2.45929 1.54034 2.37897L1.65227 2.0432C1.87098 1.38707 2.38792 0.873558 3.0455 0.659224L3.05974 0.654815C3.66901 0.466234 4.32388 0.487134 4.91987 0.714181C4.94274 0.722892 4.96343 0.736497 4.98049 0.754043L5.42152 1.20768C5.51586 1.30471 5.51586 1.45919 5.42152 1.55622L4.70716 2.291C4.66179 2.33766 4.63641 2.40018 4.63641 2.46527V2.71165C4.63641 2.86997 4.49111 2.98843 4.33603 2.95652L3.34587 2.75283C3.1908 2.72093 3.0455 2.83938 3.0455 2.99771V3.09559C3.0455 3.23366 3.15743 3.34559 3.2955 3.34559H3.75004C3.88812 3.34559 4.00004 3.45752 4.00004 3.59559V3.75013C4.00004 3.8882 4.11197 4.00013 4.25004 4.00013H5.16715C5.23467 4.00013 5.29933 4.02745 5.3464 4.07586L5.56243 4.29807C5.58132 4.3175 5.60324 4.33373 5.62734 4.34612L6.19093 4.63596C6.21503 4.64836 6.23695 4.66459 6.25584 4.68402L6.47475 4.90918C6.52012 4.95584 6.5455 5.01836 6.5455 5.08345V5.26973C6.5455 5.2959 6.54139 5.3219 6.53332 5.3468Z" fill="#A9B2BC"/>
</svg>
