<svg width="16" height="12" viewBox="0 0 16 12" fill="none" xmlns="http://www.w3.org/2000/svg">
<path d="M9.27273 1C9.097 1 8.95455 1.14245 8.95455 1.31818C8.95455 1.37624 8.95455 2.90909 8.95455 2.90909C7.26621 2.90909 5.29264 3.38838 3.71946 4.63423C2.17514 5.85722 1.04106 7.83423 1 10.7045C1 10.7045 1 10.8056 1 10.8636C1 11.0394 1.14245 11.1818 1.31818 11.1818C1.40747 11.1818 1.48817 11.145 1.54595 11.0858C1.60189 11.0285 1.78551 10.7045 1.78551 10.7045C3.78319 7.57078 6.88664 7.36364 8.63636 7.36364H8.95455C8.95455 7.36364 8.95455 8.89648 8.95455 8.95455C8.95455 9.13027 9.097 9.27273 9.27273 9.27273C9.34134 9.27273 9.40489 9.25101 9.45686 9.21407C9.47918 9.1982 14.8483 5.41935 14.9058 5.36237C14.964 5.30471 15 5.22474 15 5.13636C15 5.04073 14.9578 4.95495 14.891 4.89662C14.8351 4.84777 9.54804 1.1354 9.48032 1.07705C9.4246 1.02903 9.35205 1 9.27273 1Z" stroke="#9FA9BA" stroke-width="0.8"/>
</svg>
