<svg width="28" height="17" viewBox="0 0 28 17" fill="none" xmlns="http://www.w3.org/2000/svg">
<path d="M26.5913 3.14189C26.3386 3.00069 26.0296 3.00866 25.7844 3.15994L21.5086 5.80347V4.12871C21.5086 2.40351 20.1045 1 18.3793 1H4.12871C2.40351 1 1 2.40351 1 4.12871V12.9038C1 14.629 2.40351 16.032 4.12871 16.032H18.3799C20.1051 16.032 21.5091 14.629 21.5091 12.9038V11.2285L25.7849 13.8721C25.9129 13.9506 26.0583 13.9915 26.2038 13.9915C26.337 13.9915 26.4708 13.9575 26.5913 13.8912C26.8434 13.75 27 13.4835 27 13.1953V3.83728C26.9995 3.54851 26.8429 3.28256 26.5913 3.14189Z" stroke="#9FA9BA"/>
</svg>
