<svg width="15" height="14" viewBox="0 0 15 14" fill="none" xmlns="http://www.w3.org/2000/svg">
<path fill-rule="evenodd" clip-rule="evenodd" d="M2.9999 3.30001C2.9999 5.02501 4.3499 6.37501 6.0749 6.37501C7.7999 6.45001 9.1499 5.02501 9.1499 3.30001C9.1499 1.57501 7.7999 0.225006 6.0749 0.225006C4.3499 0.225006 2.9999 1.57501 2.9999 3.30001ZM4.1249 3.30001C4.1249 2.25001 5.0249 1.35001 6.0749 1.35001C7.1999 1.35001 8.0249 2.25001 8.0249 3.30001C8.0249 4.35001 7.1249 5.25001 6.0749 5.25001C5.0249 5.25001 4.1249 4.35001 4.1249 3.30001Z" fill="white"/>
<path d="M6.0749 6.97501C9.2249 6.97501 11.7749 9.52501 11.7749 12.675C11.7749 12.975 11.5499 13.275 11.1749 13.275C10.8749 13.275 10.5749 13.05 10.5749 12.675C10.4999 10.2 8.3249 8.25001 5.8499 8.32501C3.4499 8.40001 1.5749 10.35 1.4999 12.675C1.4999 12.975 1.2749 13.275 0.899902 13.275C0.524902 13.275 0.299902 13.05 0.299902 12.675C0.449902 9.52501 2.9249 6.97501 6.0749 6.97501Z" fill="white"/>
<path d="M11.025 6.375C10.725 6.375 10.425 6.15 10.425 5.85C10.425 5.55 10.65 5.25 11.025 5.25H12V4.35C12 4.05 12.225 3.75 12.6 3.75C12.9 3.75 13.2 3.975 13.2 4.35V5.25H14.025C14.325 5.25 14.625 5.475 14.625 5.85C14.625 6.225 14.4 6.375 14.025 6.375H13.125V7.275C13.125 7.575 12.9 7.875 12.525 7.875C12.15 7.875 11.925 7.65 11.925 7.275V6.375H11.025Z" fill="white"/>
</svg>
