<?xml version="1.0" encoding="utf-8"?>
<!DOCTYPE svg PUBLIC "-//W3C//DTD SVG 1.1//EN" "http://www.w3.org/Graphics/SVG/1.1/DTD/svg11.dtd">
<svg version="1.1" id="Layer_1" xmlns="http://www.w3.org/2000/svg" xmlns:xlink="http://www.w3.org/1999/xlink" x="0px" y="0px"
	 width="512px" height="533px" viewBox="0 -11.5 512 533" xml:space="preserve">
<g>
	<g>
		<path fill="#FF0064" d="M142.423,517.05c-34.347,0-62.29-27.886-62.29-62.161V128.225c0-3.038,2.462-5.5,5.5-5.5h340.733
			c3.037,0,5.5,2.462,5.5,5.5v326.664c0,34.275-27.942,62.161-62.287,62.161H142.423z M43.042,91.133c-3.038,0-5.5-2.462-5.5-5.5
			V43.041c0-3.038,2.462-5.5,5.5-5.5h103.91L180.956-3.08c1.045-1.249,2.589-1.97,4.217-1.97h141.655
			c1.628,0,3.173,0.721,4.218,1.97l34.001,40.622h103.911c3.037,0,5.5,2.462,5.5,5.5v42.591c0,3.038-2.463,5.5-5.5,5.5H43.042z"/>
		<path fill="#000000" d="M326.828,0.45l35.65,42.592h106.479v42.591H43.042V43.041h106.479L185.173,0.45H326.828 M426.366,128.225
			v326.664c0,31.168-25.553,56.661-56.787,56.661H142.423c-31.237,0-56.79-25.493-56.79-56.661V128.225H426.366 M326.828-10.55
			H185.173c-3.256,0-6.345,1.442-8.435,3.939l-32.354,38.651H43.042c-6.075,0-11,4.925-11,11v42.592c0,6.075,4.925,11,11,11h425.916
			c6.075,0,11-4.925,11-11V43.042c0-6.075-4.925-11-11-11H367.616L335.264-6.61C333.173-9.107,330.084-10.55,326.828-10.55
			L326.828-10.55z M426.366,117.225H85.633c-6.075,0-11,4.925-11,11v326.664c0,37.309,30.411,67.661,67.79,67.661h227.156
			c37.378,0,67.787-30.353,67.787-67.661V128.225C437.366,122.15,432.441,117.225,426.366,117.225L426.366,117.225z"/>
	</g>
</g>
</svg>
