<?xml version="1.0" encoding="UTF-8"?>
<!DOCTYPE svg PUBLIC "-//W3C//DTD SVG 1.1//EN" "http://www.w3.org/Graphics/SVG/1.1/DTD/svg11.dtd">
<svg version="1.1" xmlns="http://www.w3.org/2000/svg" xmlns:xlink="http://www.w3.org/1999/xlink" x="0" y="0" width="35" height="35" viewBox="0, 0, 35, 35">
  <g id="Symbols">
    <path d="M17.5,35 C27.165,35 35,27.165 35,17.5 C35,7.835 27.165,0 17.5,0 C7.835,0 0,7.835 0,17.5 C0,27.165 7.835,35 17.5,35 z" fill="#76CFA6" opacity="0.15" id="Oval-109-Copy"/>
    <g id="file">
      <path d="M10,10.01 C10,7.795 11.782,6 14.004,6 L18.402,6 C18.402,6 25,12.492 25,12.492 L25,24.006 C25,26.212 23.206,28 21,28 L14,28 C11.791,28 10,26.2 10,23.99 L10,10.01 z" fill-opacity="0" stroke="#76CFA6" stroke-width="1" id="path-1"/>
      <path d="M25,13 L20.157,13 C18.966,13 18,12.034 18,10.843 L18,6" fill-opacity="0" stroke="#76CFA6" stroke-width="1" id="path-3"/>
    </g>
    <path d="M21.479,19.066 C21.612,19.066 21.746,19.015 21.848,18.912 C22.051,18.706 22.051,18.374 21.848,18.168 L17.871,14.154 C17.668,13.948 17.338,13.949 17.135,14.153 L13.153,18.162 C12.95,18.367 12.949,18.701 13.152,18.906 C13.355,19.113 13.685,19.113 13.888,18.908 L16.987,15.788 L16.988,24.474 C16.988,24.764 17.222,25 17.509,25 C17.798,25 18.03,24.764 18.03,24.474 L18.029,15.801 L21.111,18.912 C21.212,19.015 21.345,19.066 21.479,19.066 L21.479,19.066 z" fill="#76CFA6" id="Fill-75"/>
  </g>
</svg>
