<?xml version="1.0" encoding="UTF-8" standalone="no"?>
<svg width="11px" height="13px" viewBox="0 0 11 13" version="1.1" xmlns="http://www.w3.org/2000/svg" xmlns:xlink="http://www.w3.org/1999/xlink">
    <!-- Generator: sketchtool 39.1 (31720) - http://www.bohemiancoding.com/sketch -->
    <title>815EF7DE-169A-4322-AE2A-B65CBE91DCED</title>
    <desc>Created with sketchtool.</desc>
    <defs></defs>
    <g id="Left-menu" stroke="none" stroke-width="1" fill="none" fill-rule="evenodd">
        <g id="Left-menu-option-B" transform="translate(-33.000000, -223.000000)" fill="#FFFFFF" stroke="#76CFA6">
            <g id="Left-panel">
                <g id="Room-list" transform="translate(0.000000, 69.000000)">
                    <g id="Group-3" transform="translate(16.000000, 144.000000)">
                        <g id="icon_person" transform="translate(18.000000, 11.000000)">
                            <g>
                                <path d="M5.34291667,5.8555 C5.51425,5.86608333 5.68525,5.88091667 5.85566667,5.90108333 C5.987,5.91666667 6.118,5.93533333 6.24825,5.95783333 C6.96516667,6.08175 7.69391667,6.32633333 8.23175,6.83591667 C8.32116667,6.92058333 8.40433333,7.01166667 8.48041667,7.1085 C8.59608333,7.25566667 8.69475,7.41583333 8.77633333,7.58425 C8.92233333,7.8855 9.0125,8.21083333 9.06841667,8.54008333 C9.13758333,8.9475 9.15758333,9.36266667 9.1635,9.77533333 C9.1685,10.1279167 9.167,10.4805833 9.16725,10.8331667 L8.33333344e-05,10.8331667 C0.000250000001,10.4805833 -0.00125,10.1279167 0.00375,9.77533333 C0.00916666667,9.39616667 0.0268333333,9.01533333 0.083,8.63991667 C0.134833333,8.29291667 0.221666667,7.94891667 0.369333333,7.62966667 C0.44775,7.46033333 0.543,7.29875 0.65525,7.14958333 C0.729,7.05166667 0.809833333,6.95925 0.897,6.87308333 C1.41916667,6.35725 2.13533333,6.10216667 2.84408333,5.97125 C2.97233333,5.94758333 3.10125,5.92775 3.23058333,5.91108333 C3.39841667,5.8895 3.56683333,5.87333333 3.73558333,5.86133333 C3.95191667,5.846 4.16858333,5.8385 4.38533333,5.83458333 C4.48475,5.8335 4.58408333,5.83316667 4.6835,5.8335 C4.9035,5.83583333 5.12333333,5.84183333 5.34291667,5.8555 Z" id="Fill-1" stroke-linejoin="round"></path>
                                <path d="M4.99558333,0.031 C5.28133333,0.0745833333 5.55966667,0.1645 5.81691667,0.29625 C6.32075,0.554333333 6.7375,0.971 6.9955,1.47483333 C7.11691667,1.712 7.20291667,1.967 7.24975,2.22916667 C7.30216667,2.52283333 7.30583333,2.82525 7.26083333,3.12008333 C7.2205,3.38416667 7.14066667,3.642 7.02475,3.88266667 C6.88325,4.17633333 6.68833333,4.44375 6.45233333,4.66866667 C6.21591667,4.89408333 5.93891667,5.07633333 5.638,5.20358333 C5.30525,5.34433333 4.94491667,5.4165 4.58366667,5.4165 C4.22233333,5.4165 3.86208333,5.34433333 3.52925,5.20358333 C3.22833333,5.07633333 2.95133333,4.89408333 2.71491667,4.66866667 C2.479,4.44375 2.284,4.17633333 2.1425,3.88266667 C2.02658333,3.642 1.94675,3.38416667 1.90641667,3.12008333 C1.86141667,2.82525 1.86508333,2.52291667 1.91758333,2.22925 C1.96433333,1.967 2.05033333,1.712 2.17175,1.47483333 C2.42975,0.971 2.8465,0.554333333 3.35033333,0.29625 C3.60758333,0.1645 3.88591667,0.0745833333 4.17166667,0.031 C4.28525,0.0136666667 4.39916667,0.005 4.51391667,0.000666666667 C4.58391667,-0.000166666667 4.58366667,-0.000166666667 4.65333333,0.000666666667 C4.76808333,0.005 4.882,0.0136666667 4.99558333,0.031 Z" id="Fill-2"></path>
                            </g>
                        </g>
                    </g>
                </g>
            </g>
        </g>
    </g>
</svg>
