<svg width="14" height="16" viewBox="0 0 14 16" fill="none" xmlns="http://www.w3.org/2000/svg">
<path fill-rule="evenodd" clip-rule="evenodd" d="M9.21862 14.1909C9.12216 14.6245 8.90577 15.013 8.60857 15.3189C8.19404 15.7393 7.6257 16 7 16C6.3743 16 5.80596 15.7393 5.39143 15.3189C5.09423 15.013 4.87784 14.6245 4.78138 14.1909H1.50428C1.08976 14.1909 0.714339 14.018 0.440596 13.7413C0.16946 13.4646 0 13.0788 0 12.6558C0 12.2354 0.16946 11.8497 0.440596 11.573C0.628305 11.3814 0.865549 11.2404 1.12886 11.1713C1.30615 10.6046 1.44953 9.93947 1.55382 9.2717C1.69721 8.38045 1.77281 7.48387 1.77281 6.80811C1.77281 5.33954 2.3594 4.00665 3.30838 3.0409C3.72551 2.61523 4.21043 2.26139 4.74749 1.998C4.81788 1.4872 5.05251 1.0296 5.39143 0.681077C5.80596 0.260725 6.3743 0 7 0C7.6257 0 8.19404 0.260725 8.60857 0.681077C8.94749 1.0296 9.18212 1.4872 9.25251 1.998C9.78957 2.26139 10.2745 2.61523 10.6916 3.0409C11.6406 4.00665 12.2272 5.33954 12.2272 6.80811C12.2272 7.48387 12.3028 8.38045 12.4462 9.2717C12.5505 9.93947 12.6939 10.6046 12.8711 11.1713C13.1345 11.2404 13.3717 11.3814 13.5594 11.573C13.8305 11.8497 14 12.2354 14 12.6558C14 13.0788 13.8305 13.4646 13.5594 13.7413C13.2857 14.018 12.9102 14.1909 12.4957 14.1909H9.21862ZM9.27337 13.1693H12.4957C12.6339 13.1693 12.759 13.1107 12.8503 13.0176C12.9415 12.9245 12.9963 12.7968 12.9963 12.6558C12.9963 12.5175 12.9415 12.3898 12.8503 12.2966C12.759 12.2035 12.6339 12.145 12.4957 12.145H1.50428C1.36611 12.145 1.24097 12.2035 1.14972 12.2966C1.05847 12.3898 1.00372 12.5175 1.00372 12.6558C1.00372 12.7968 1.05847 12.9245 1.14972 13.0176C1.24097 13.1107 1.36611 13.1693 1.50428 13.1693H4.72663H9.27337ZM11.8153 11.1234H2.18473C2.33073 10.5913 2.45065 10.014 2.5419 9.43399C2.69311 8.47888 2.77393 7.52378 2.77393 6.80811C2.77393 5.62421 3.25102 4.54406 4.0175 3.76455C4.78138 2.98237 5.83985 2.49551 7 2.49551C8.16015 2.49551 9.21862 2.98237 9.9825 3.76455C10.749 4.54406 11.2261 5.62421 11.2261 6.80811C11.2261 7.52378 11.3069 8.47888 11.4581 9.43399C11.5493 10.014 11.6693 10.5913 11.8153 11.1234ZM8.04544 1.58297C8.00372 1.51646 7.95419 1.45527 7.89944 1.40206C7.67002 1.16794 7.35195 1.02428 7 1.02428C6.64804 1.02428 6.32998 1.16794 6.10056 1.40206C6.04581 1.45527 5.99628 1.51646 5.95456 1.58031C6.29087 1.51114 6.64283 1.47389 7 1.47389C7.35717 1.47389 7.70912 1.51114 8.04544 1.58297ZM8.17058 14.1909C8.1054 14.3452 8.01155 14.4835 7.89944 14.6006C7.67002 14.8321 7.35196 14.9784 7 14.9784C6.64804 14.9784 6.32998 14.8321 6.10056 14.6006C5.98845 14.4835 5.8946 14.3452 5.83203 14.1909H8.17058Z" fill="#9FA9BA"/>
</svg>
