<svg width="15" height="19" viewBox="0 0 15 19" fill="none" xmlns="http://www.w3.org/2000/svg">
<path fill-rule="evenodd" clip-rule="evenodd" d="M8.80167 1.34561C8.58197 1.1261 8.27313 1 7.95407 1H3.01704C1.88604 1 1 1.91111 1 3.07424V14.3482C1 15.4874 1.8684 16.4143 2.93589 16.4143H9.99247C11.0392 16.4143 11.9571 15.4866 11.9571 14.4294V4.95051C11.9571 4.65653 11.8216 4.35233 11.5846 4.11536L8.80167 1.34561ZM10.76 4.34286H8.95414C8.70027 4.34286 8.42857 4.18519 8.42857 3.95044V2.02236L10.76 4.34286ZM2.93589 15.6714H9.99247C10.6319 15.6714 11.2143 15.0794 11.2143 14.4294V5.08571H8.95433C8.25474 5.08571 7.68571 4.57649 7.68571 3.95044V1.74286H3.01704C2.3026 1.74286 1.74286 2.32767 1.74286 3.07424V14.3482C1.74286 15.0779 2.27809 15.6714 2.93589 15.6714Z" fill="#9FA9BA"/>
<path d="M8.80167 1.34561L8.73099 1.41635L8.73113 1.41649L8.80167 1.34561ZM11.5846 4.11536L11.6553 4.04465L11.6551 4.04448L11.5846 4.11536ZM10.76 4.34286V4.44286H11.0023L10.8306 4.27198L10.76 4.34286ZM8.42857 2.02236L8.49911 1.95148L8.32857 1.78174V2.02236H8.42857ZM11.2143 5.08571H11.3143V4.98571H11.2143V5.08571ZM7.68571 1.74286H7.78571V1.64286H7.68571V1.74286ZM7.95407 1.1C8.24738 1.1 8.53057 1.2161 8.73099 1.41635L8.87235 1.27487C8.63337 1.0361 8.29888 0.9 7.95407 0.9V1.1ZM3.01704 1.1H7.95407V0.9H3.01704V1.1ZM1.1 3.07424C1.1 1.96369 1.94389 1.1 3.01704 1.1V0.9C1.8282 0.9 0.9 1.85854 0.9 3.07424H1.1ZM1.1 14.3482V3.07424H0.9V14.3482H1.1ZM2.93589 16.3143C1.92966 16.3143 1.1 15.4384 1.1 14.3482H0.9C0.9 15.5364 1.80714 16.5143 2.93589 16.5143V16.3143ZM9.99247 16.3143H2.93589V16.5143H9.99247V16.3143ZM11.8571 14.4294C11.8571 15.4324 10.983 16.3143 9.99247 16.3143V16.5143C11.0954 16.5143 12.0571 15.5409 12.0571 14.4294H11.8571ZM11.8571 4.95051V14.4294H12.0571V4.95051H11.8571ZM11.5139 4.18607C11.7349 4.40711 11.8571 4.68679 11.8571 4.95051H12.0571C12.0571 4.62627 11.9082 4.29755 11.6553 4.04465L11.5139 4.18607ZM8.73113 1.41649L11.5141 4.18624L11.6551 4.04448L8.87221 1.27474L8.73113 1.41649ZM8.95414 4.44286H10.76V4.24286H8.95414V4.44286ZM8.32857 3.95044C8.32857 4.11034 8.42171 4.23581 8.53936 4.31699C8.65675 4.39798 8.8082 4.44286 8.95414 4.44286V4.24286C8.84621 4.24286 8.73488 4.2089 8.65295 4.15237C8.57128 4.09602 8.52857 4.02529 8.52857 3.95044H8.32857ZM8.32857 2.02236V3.95044H8.52857V2.02236H8.32857ZM10.8306 4.27198L8.49911 1.95148L8.35803 2.09323L10.6895 4.41373L10.8306 4.27198ZM9.99247 15.5714H2.93589V15.7714H9.99247V15.5714ZM11.1143 14.4294C11.1143 15.0257 10.5751 15.5714 9.99247 15.5714V15.7714C10.6887 15.7714 11.3143 15.133 11.3143 14.4294H11.1143ZM11.1143 5.08571V14.4294H11.3143V5.08571H11.1143ZM8.95433 5.18571H11.2143V4.98571H8.95433V5.18571ZM7.58571 3.95044C7.58571 4.64187 8.21025 5.18571 8.95433 5.18571V4.98571C8.29924 4.98571 7.78571 4.5111 7.78571 3.95044H7.58571ZM7.58571 1.74286V3.95044H7.78571V1.74286H7.58571ZM3.01704 1.84286H7.68571V1.64286H3.01704V1.84286ZM1.84286 3.07424C1.84286 2.37872 2.36192 1.84286 3.01704 1.84286V1.64286C2.24328 1.64286 1.64286 2.27662 1.64286 3.07424H1.84286ZM1.84286 14.3482V3.07424H1.64286V14.3482H1.84286ZM2.93589 15.5714C2.3428 15.5714 1.84286 15.0326 1.84286 14.3482H1.64286C1.64286 15.1231 2.21337 15.7714 2.93589 15.7714V15.5714Z" fill="#9FA9BA"/>
<path d="M12.0601 17.7143H5.00355C4.60147 17.7143 4.22522 17.5009 3.99716 17.1432C3.88685 16.9701 3.65749 16.9192 3.48422 17.0297C3.31132 17.1401 3.26043 17.3698 3.37093 17.5427C3.73586 18.1152 4.3463 18.4571 5.00355 18.4571H12.0601C13.1115 18.4571 13.9997 17.5596 13.9997 16.4971V7.01826C13.9997 6.71629 13.8686 6.41209 13.6361 6.17976L13.3297 5.88243C13.1824 5.73943 12.9471 5.74314 12.8045 5.89041C12.6617 6.0375 12.6652 6.2728 12.8125 6.41561L13.1148 6.70886C13.2052 6.7993 13.2569 6.91203 13.2569 7.01844V16.4973C13.2569 17.1456 12.6977 17.7143 12.0601 17.7143Z" fill="#9FA9BA" stroke="#9FA9BA" stroke-width="0.2"/>
</svg>
