<svg width="13" height="13" viewBox="0 0 13 13" fill="none" xmlns="http://www.w3.org/2000/svg">
<path fill-rule="evenodd" clip-rule="evenodd" d="M12.9071 1.33095L11.669 0.0928571C11.5452 -0.0309524 11.3595 -0.0309524 11.2357 0.0928571L9.47143 1.85714H0.309524C0.12381 1.85714 0 1.98095 0 2.16667V12.6905C0 12.8762 0.12381 13 0.309524 13H10.8333C11.019 13 11.1429 12.8762 11.1429 12.6905V3.52857L12.9071 1.76429C13.031 1.64048 13.031 1.45476 12.9071 1.33095ZM10.5238 12.381H0.619048V2.47619H8.85238L5.66429 5.66429C5.60238 5.72619 5.57143 5.78809 5.57143 5.88095V7.11905C5.57143 7.30476 5.69524 7.42857 5.88095 7.42857H7.11905C7.21191 7.42857 7.27381 7.39762 7.33571 7.33571L10.5238 4.14762V12.381ZM6.19048 6.80952H6.99524L12.2571 1.54762L11.4524 0.742857L6.19048 6.00476V6.80952Z" fill="#9FA9BA"/>
</svg>
