<?xml version="1.0" encoding="UTF-8"?>
<!DOCTYPE svg PUBLIC "-//W3C//DTD SVG 1.1//EN" "http://www.w3.org/Graphics/SVG/1.1/DTD/svg11.dtd">
<svg version="1.1" xmlns="http://www.w3.org/2000/svg" xmlns:xlink="http://www.w3.org/1999/xlink" x="0" y="0" width="16" height="12" viewBox="0, 0, 16, 12">
  <g id="Screens-revised" opacity="0.2">
    <g>
      <path d="M7.142,0.009 C7.687,0.152 7.921,0.47 8,1 L8,11 C8,11.866 6.974,12.323 6.33,11.743 L3.288,9 L1,9 C0.448,9 0,8.552 0,8 L0,4 C0,3.448 0.448,3 1,3 L3.278,3 L6.332,0.256 C6.744,-0.016 6.487,0.101 7.142,0.009 z M7,1 L3.661,4 L1,4 L1,8 L3.672,8 L7,11 L7,1 z" fill="#000000" id="path-1"/>
      <path d="M13,3.928 C13,4.757 12.328,5.428 11.5,5.428 C10.672,5.428 10,4.757 10,3.928 C10,3.1 10.672,2.428 11.5,2.428 C12.328,2.428 13,3.1 13,3.928 z" fill-opacity="0" stroke="#000000" stroke-width="1" stroke-linecap="round" stroke-linejoin="round" id="path-3"/>
      <path d="M14,9.5 C14,6.84 12.881,6 11.5,6 C10.119,6 9,6.884 9,9.5 L14,9.5 z" fill-opacity="0" stroke="#000000" stroke-width="1" stroke-linecap="round" stroke-linejoin="round" id="path-5"/>
    </g>
  </g>
</svg>
