<?xml version="1.0" encoding="UTF-8" standalone="no"?>
<svg width="25px" height="25px" viewBox="0 0 25 25" version="1.1" xmlns="http://www.w3.org/2000/svg" xmlns:xlink="http://www.w3.org/1999/xlink">
    <!-- Generator: sketchtool 39.1 (31720) - http://www.bohemiancoding.com/sketch -->
    <title>7C98C075-AB4D-45A3-85F9-CCD46F84DA7F</title>
    <desc>Created with sketchtool.</desc>
    <defs>
        <path d="M0,2.00276013 C0,0.896666251 0.889186576,0 1.99983124,0 L4.84793814,0 C4.84793814,0 9.25,4.54127763 9.25,4.54127763 L9.25,10.9954009 C9.25,12.1025104 8.36307111,13 7.24288777,13 L2.00711223,13 C0.898614756,13 0,12.1064574 0,10.9972399 L0,2.00276013 Z" id="path-1"></path>
        <mask id="mask-2" maskContentUnits="userSpaceOnUse" maskUnits="objectBoundingBox" x="0" y="0" width="9.25" height="13" fill="white">
            <use xlink:href="#path-1"></use>
        </mask>
        <path d="M9.28225806,5 L5.82322134,5 C4.97217082,5 4.28225806,4.31002094 4.28225806,3.45903672 L4.28225806,0" id="path-3"></path>
        <mask id="mask-4" maskContentUnits="userSpaceOnUse" maskUnits="objectBoundingBox" x="0" y="0" width="5" height="5" fill="white">
            <use xlink:href="#path-3"></use>
        </mask>
    </defs>
    <g id="Symbols" stroke="none" stroke-width="1" fill="none" fill-rule="evenodd">
        <g id="Right-panel/Header" transform="translate(-66.000000, -23.000000)">
            <g id="icons_files" transform="translate(66.000000, 23.000000)">
                <g id="Group-5-Copy-2" fill="#76CFA6">
                    <path d="M12.5,25 C19.4035594,25 25,19.4035594 25,12.5 C25,5.59644063 19.4035594,0 12.5,0 C5.59644063,0 0,5.59644063 0,12.5 C0,19.4035594 5.59644063,25 12.5,25 Z" id="Oval-1-Copy-7"></path>
                </g>
                <g id="Rectangle-5-+-Rectangle-6-Copy-2" transform="translate(8.000000, 6.000000)" stroke="#FFFFFF" stroke-width="2">
                    <use id="Rectangle-5" mask="url(#mask-2)" opacity="0.8" xlink:href="#path-1"></use>
                    <use id="Rectangle-6" mask="url(#mask-4)" xlink:href="#path-3"></use>
                </g>
            </g>
        </g>
    </g>
</svg>