<svg width="14" height="14" viewBox="0 0 14 14" fill="none" xmlns="http://www.w3.org/2000/svg">
<path fill-rule="evenodd" clip-rule="evenodd" d="M1.79652 0.0898895H10.9556C11.4444 0.0898895 11.842 0.487424 11.842 0.976253V2.15807H13.0238C13.5126 2.15807 13.9102 2.55561 13.9102 3.04444V12.2035C13.9102 12.6924 13.5126 13.0899 13.0238 13.0899H3.8647C3.37587 13.0899 2.97834 12.6924 2.97834 12.2035V11.0217H1.79652C1.30769 11.0217 0.910156 10.6242 0.910156 10.1353V0.976253C0.910156 0.487424 1.30769 0.0898895 1.79652 0.0898895ZM3.56925 12.2035C3.56925 12.3666 3.70191 12.499 3.8647 12.499H13.0238C13.1866 12.499 13.3192 12.3666 13.3192 12.2035V3.04444C13.3192 2.88134 13.1866 2.74898 13.0238 2.74898H11.842V10.1353C11.842 10.6242 11.4444 11.0217 10.9556 11.0217H3.56925V12.2035ZM1.79652 10.4308C1.63373 10.4308 1.50107 10.2984 1.50107 10.1353V0.976253C1.50107 0.813162 1.63373 0.680799 1.79652 0.680799H10.9556C11.1184 0.680799 11.2511 0.813162 11.2511 0.976253V10.1353C11.2511 10.2984 11.1184 10.4308 10.9556 10.4308H1.79652Z" fill="#212121"/>
</svg>
