<svg width="22" height="22" viewBox="0 0 22 22" fill="none" xmlns="http://www.w3.org/2000/svg">
<path d="M19.5201 14.9653C18.3712 14.0417 17.4758 13.6112 16.7039 13.6112C15.7619 13.6112 15.1451 14.2366 14.4929 14.8995L14.2813 15.1131C14.1946 15.1991 14.0855 15.2398 13.9371 15.2398C13.3932 15.2398 12.2251 14.7202 9.75251 12.2469C6.32291 8.81727 6.69205 7.91386 6.88651 7.71874L7.09742 7.5105C8.2904 6.33663 9.32025 5.32278 7.0343 2.47967C6.23424 1.48426 5.45173 1 4.64301 1C3.55248 1 2.71952 1.87696 1.98391 2.65079C1.85901 2.78169 1.73834 2.9097 1.61922 3.0286C0.791599 3.85577 0.793599 5.66391 1.62522 7.86719C2.53951 10.2905 4.34476 12.9269 6.70961 15.2909C10.9237 19.5059 14.9276 21.0015 17.0757 21.0015C17.91 21.0015 18.5656 20.7866 18.9703 20.3802C19.0899 20.2619 19.2172 20.1404 19.3488 20.0161C20.1438 19.2607 21.0449 18.4047 20.9983 17.2741C20.966 16.4939 20.4824 15.7389 19.5201 14.9653Z" stroke="#9FA9BA"/>
</svg>
