<?xml version="1.0" encoding="UTF-8" standalone="no"?>
<!DOCTYPE svg PUBLIC "-//W3C//DTD SVG 1.1//EN" "http://www.w3.org/Graphics/SVG/1.1/DTD/svg11.dtd">
<svg width="100%" height="100%" viewBox="0 0 15 15" version="1.1" xmlns="http://www.w3.org/2000/svg" xmlns:xlink="http://www.w3.org/1999/xlink" xml:space="preserve" style="fill-rule:evenodd;clip-rule:evenodd;stroke-linejoin:round;stroke-miterlimit:1.41421;">
    <g transform="matrix(1,0,0,1,-20,-40)">
        <g id="icon_context_fave_on" transform="matrix(0.600982,0,0,0.600982,20,40)">
            <g transform="matrix(1.66394,0,0,1.66394,-14.9755,2.71716)">
                <g transform="matrix(1,0,0,1,10.0123,0)">
                    <clipPath id="_clip1">
                        <rect x="-1" y="-1" width="15" height="15"/>
                    </clipPath>
                    <g clip-path="url(#_clip1)">
                        <g transform="matrix(0.575972,0,0,0.576771,2.73925,2.16505)">
                            <rect x="-6" y="-6" width="25" height="25" style="fill:rgb(216,216,216);fill-opacity:0;fill-rule:nonzero;"/>
                        </g>
                        <clipPath id="_clip2">
                            <path d="M6.5,9.75L2.679,11.759L3.409,7.504L0.318,4.491L4.59,3.871L6.5,0L8.41,3.871L12.682,4.491L9.591,7.504L10.321,11.759L6.5,9.75Z"/>
                        </clipPath>
                        <g clip-path="url(#_clip2)">
                            <path d="M-0.682,-1L13.682,-1L13.682,12.759L-0.682,12.759L-0.682,-1Z" style="fill:rgb(74,74,74);fill-rule:nonzero;"/>
                        </g>
                    </g>
                </g>
                <g transform="matrix(1,0,0,1,10.0123,0)">
                    <path d="M6.572,-0.495C6.614,-0.486 6.625,-0.486 6.666,-0.472C6.793,-0.427 6.884,-0.337 6.948,-0.221L8.742,3.414L12.754,3.997L12.801,4.006C12.88,4.029 12.951,4.062 13.013,4.117C13.161,4.248 13.218,4.459 13.157,4.646C13.132,4.725 13.087,4.789 13.031,4.849L10.128,7.679L10.813,11.674L10.819,11.722C10.821,11.804 10.812,11.882 10.779,11.958C10.7,12.139 10.517,12.259 10.32,12.259C10.237,12.259 10.162,12.236 10.088,12.201L6.5,10.315L2.912,12.201L2.868,12.222C2.791,12.249 2.714,12.264 2.631,12.256C2.435,12.237 2.265,12.1 2.204,11.913C2.178,11.834 2.177,11.756 2.187,11.674L2.872,7.679L-0.031,4.849L-0.064,4.814C-0.114,4.749 -0.152,4.681 -0.17,4.599C-0.213,4.407 -0.135,4.202 0.024,4.087C0.092,4.038 0.166,4.012 0.246,3.997L4.258,3.414L6.052,-0.221L6.075,-0.264C6.15,-0.372 6.25,-0.453 6.38,-0.485C6.422,-0.496 6.433,-0.495 6.476,-0.499C6.524,-0.499 6.524,-0.499 6.572,-0.495ZM5.038,4.092C5.017,4.13 5.013,4.14 4.987,4.174C4.928,4.251 4.847,4.31 4.755,4.342C4.715,4.357 4.704,4.357 4.662,4.365L1.393,4.841L3.758,7.146L3.791,7.182C3.861,7.273 3.906,7.375 3.909,7.492C3.91,7.536 3.907,7.546 3.902,7.589L3.343,10.845L6.267,9.307L6.311,9.287C6.42,9.249 6.531,9.237 6.643,9.271C6.684,9.283 6.694,9.289 6.733,9.307L9.657,10.845L9.098,7.589L9.092,7.541C9.091,7.498 9.089,7.487 9.095,7.444C9.109,7.328 9.163,7.231 9.242,7.146L11.607,4.841L8.338,4.365L8.291,4.356C8.18,4.323 8.084,4.267 8.013,4.174C7.987,4.14 7.983,4.13 7.962,4.092L6.5,1.13C6.013,2.117 5.525,3.105 5.038,4.092Z" style="fill:rgb(74,74,74);fill-rule:nonzero;"/>
                </g>
            </g>
        </g>
    </g>
</svg>
