<svg width="24" height="24" viewBox="0 0 24 24" fill="none" xmlns="http://www.w3.org/2000/svg">
<path fill-rule="evenodd" clip-rule="evenodd" d="M12.0002 22.6666C17.8912 22.6666 22.6668 17.891 22.6668 12C22.6668 6.10894 17.8912 1.33331 12.0002 1.33331C6.10913 1.33331 1.3335 6.10894 1.3335 12C1.3335 17.891 6.10913 22.6666 12.0002 22.6666Z" stroke="#9FA9BA"/>
<path d="M8.66683 9.99998C9.40321 9.99998 10.0002 9.40303 10.0002 8.66665C10.0002 7.93027 9.40321 7.33331 8.66683 7.33331C7.93045 7.33331 7.3335 7.93027 7.3335 8.66665C7.3335 9.40303 7.93045 9.99998 8.66683 9.99998Z" fill="#9FA9BA"/>
<path d="M16.0003 9.99998C16.7367 9.99998 17.3337 9.40303 17.3337 8.66665C17.3337 7.93027 16.7367 7.33331 16.0003 7.33331C15.2639 7.33331 14.667 7.93027 14.667 8.66665C14.667 9.40303 15.2639 9.99998 16.0003 9.99998Z" fill="#9FA9BA"/>
<path fill-rule="evenodd" clip-rule="evenodd" d="M7.3335 14.6666C7.65072 16.9899 9.65575 18.7085 12.0002 18.6666C14.3446 18.7085 16.3496 16.9899 16.6668 14.6666H7.3335V14.6666Z" stroke="#9FA9BA" stroke-linecap="round" stroke-linejoin="round"/>
</svg>
