<svg width="18" height="18" viewBox="0 0 18 18" fill="none" xmlns="http://www.w3.org/2000/svg">
<path fill-rule="evenodd" clip-rule="evenodd" d="M8.00545 1.06618C7.82268 1.06619 7.66831 1.20186 7.64482 1.38311L7.4704 2.72959C6.80076 2.8906 6.17084 3.15423 5.59936 3.50402L4.52364 2.67618C4.37886 2.56476 4.1739 2.57804 4.04471 2.7072L3.34289 3.40902L2.63925 4.11266C2.51008 4.24184 2.49678 4.44679 2.60818 4.59158L3.43624 5.66766C3.08773 6.23834 2.82293 6.86706 2.66158 7.53692L1.31647 7.71288C1.13542 7.73658 1.00002 7.89085 1 8.07345V9.06618V10.0607C1.00002 10.2435 1.13564 10.3978 1.31687 10.4214L2.66158 10.5957C2.8226 11.2654 3.08622 11.8954 3.43602 12.4669L2.60818 13.5426C2.49671 13.6875 2.51016 13.8927 2.6396 14.0218L3.34255 14.723H3.34324L4.04436 15.4259C4.17359 15.5555 4.37893 15.5688 4.52385 15.4571L5.59949 14.6278C6.17069 14.9777 6.80053 15.2425 7.47045 15.4039L7.64489 16.7486C7.6684 16.9298 7.82272 17.0655 8.00545 17.0655H9H9.99273C10.1755 17.0655 10.3298 16.9299 10.3533 16.7487L10.5278 15.4039C11.1977 15.2425 11.8275 14.9777 12.3987 14.6278L13.4744 15.4571C13.6193 15.5688 13.8246 15.5555 13.9539 15.4259L14.655 14.723H14.6553H14.6557L15.3586 14.0218C15.4881 13.8927 15.5015 13.6875 15.39 13.5426L14.5622 12.4669C14.912 11.8954 15.1756 11.2655 15.3366 10.5958L16.6831 10.4214C16.8644 10.3979 17 10.2435 17 10.0607V9.06618V8.07345C17 7.89085 16.8646 7.73657 16.6835 7.71288L15.3366 7.53686C15.1756 6.86843 14.9119 6.23874 14.5622 5.66732L15.39 4.59158C15.5014 4.4468 15.4881 4.24185 15.359 4.11266L14.6553 3.40902L13.9535 2.7072C13.8243 2.57805 13.6194 2.56478 13.4746 2.67618L12.3989 3.50402C11.8274 3.15422 11.1974 2.89054 10.5278 2.72953L10.3533 1.38311C10.3299 1.20186 10.1755 1.0662 9.99273 1.06618H9H8.00545V1.06618ZM8.325 1.79345H9H9.67318L9.83936 3.07652C9.85943 3.23139 9.97613 3.35616 10.1293 3.38652C10.8891 3.53711 11.5952 3.83463 12.2159 4.25016C12.3456 4.337 12.5163 4.33137 12.64 4.23618L13.6651 3.44731L14.1411 3.92328L14.6189 4.40112L13.83 5.42623C13.7348 5.54994 13.7292 5.72057 13.816 5.85027C14.2315 6.471 14.5291 7.17724 14.6797 7.93521C14.7101 8.08816 14.8346 8.2047 14.9893 8.22492L16.2727 8.39265V9.06618V9.74118L14.9897 9.90736C14.8348 9.92745 14.7101 10.0441 14.6797 10.1973C14.5291 10.9571 14.2315 11.6632 13.816 12.2839C13.7292 12.4136 13.7348 12.5842 13.83 12.7079L14.6186 13.7327L14.1414 14.2087C14.1412 14.2087 14.141 14.2087 14.1407 14.2087L13.6649 14.6857L12.6402 13.8957C12.5165 13.8003 12.3457 13.7946 12.2159 13.8815C11.5948 14.2973 10.8886 14.5965 10.1293 14.747C9.97618 14.7774 9.85952 14.9021 9.83944 15.0569L9.67324 16.3383H9H8.325L8.1588 15.057C8.13872 14.9021 8.02205 14.7774 7.86891 14.747C7.10964 14.5965 6.40344 14.2973 5.78233 13.8815C5.65252 13.7946 5.48172 13.8003 5.358 13.8957L4.33329 14.6857L3.85749 14.2087C3.85727 14.2087 3.85704 14.2087 3.85682 14.2087L3.3796 13.7327L4.16818 12.708C4.26337 12.5843 4.26901 12.4136 4.18222 12.2839C3.76667 11.6632 3.46911 10.9571 3.31853 10.1973C3.28818 10.0442 3.16346 9.92749 3.00864 9.90738L1.72727 9.7412V9.06618V8.39259L3.00904 8.22494C3.16369 8.20468 3.2882 8.08805 3.31853 7.93505C3.46898 7.17588 3.76816 6.47136 4.1826 5.8497C4.26901 5.72004 4.26321 5.54973 4.16818 5.42624L3.37931 4.40112L3.85715 3.92328L4.33313 3.44732L5.35824 4.23618C5.48195 4.33137 5.65261 4.337 5.78233 4.25016C6.40305 3.83463 7.10913 3.53712 7.86891 3.38653C8.02207 3.35614 8.13874 3.23138 8.1588 3.07653L8.325 1.79346V1.79345Z" fill="#9FA9BA"/>
<path d="M8.00545 1.06618L8.00546 1.16618L8.10545 1.16618V1.06618H8.00545ZM7.64482 1.38311L7.54565 1.37026L7.54565 1.37027L7.64482 1.38311ZM7.4704 2.72959L7.49378 2.82682L7.56073 2.81072L7.56957 2.74244L7.4704 2.72959ZM5.59936 3.50402L5.53838 3.58327L5.59289 3.62523L5.65157 3.58931L5.59936 3.50402ZM4.52364 2.67618L4.46265 2.75543L4.46265 2.75543L4.52364 2.67618ZM4.04471 2.7072L3.97401 2.63649L3.974 2.63649L4.04471 2.7072ZM2.63925 4.11266L2.56854 4.04195L2.56854 4.04195L2.63925 4.11266ZM2.60818 4.59158L2.52893 4.65256L2.52893 4.65256L2.60818 4.59158ZM3.43624 5.66766L3.52158 5.71978L3.55739 5.66113L3.51549 5.60667L3.43624 5.66766ZM2.66158 7.53692L2.67455 7.63607L2.74271 7.62716L2.7588 7.56034L2.66158 7.53692ZM1.31647 7.71288L1.3035 7.61373L1.30349 7.61373L1.31647 7.71288ZM1 8.07345L0.9 8.07344V8.07345H1ZM1 10.0607H0.9V10.0608L1 10.0607ZM1.31687 10.4214L1.304 10.5205L1.30401 10.5205L1.31687 10.4214ZM2.66158 10.5957L2.75881 10.5724L2.74272 10.5054L2.67444 10.4966L2.66158 10.5957ZM3.43602 12.4669L3.51527 12.5279L3.55722 12.4733L3.52131 12.4147L3.43602 12.4669ZM2.60818 13.5426L2.52893 13.4816L2.52892 13.4816L2.60818 13.5426ZM2.6396 14.0218L2.56898 14.0926L2.56898 14.0926L2.6396 14.0218ZM3.34255 14.723L3.27193 14.7938L3.3012 14.823H3.34255V14.723ZM3.34324 14.723L3.41404 14.6523L3.38473 14.623H3.34324V14.723ZM4.04436 15.4259L3.97356 15.4965L3.97357 15.4965L4.04436 15.4259ZM4.52385 15.4571L4.5849 15.5363L4.58491 15.5363L4.52385 15.4571ZM5.59949 14.6278L5.65173 14.5425L5.59298 14.5065L5.53843 14.5486L5.59949 14.6278ZM7.47045 15.4039L7.56962 15.391L7.56077 15.3228L7.49387 15.3067L7.47045 15.4039ZM7.64489 16.7486L7.74406 16.7358L7.64489 16.7486ZM8.00545 17.0655L8.00543 17.1655H8.00545V17.0655ZM9.99273 17.0655V17.1655H9.99274L9.99273 17.0655ZM10.3533 16.7487L10.4525 16.7615V16.7615L10.3533 16.7487ZM10.5278 15.4039L10.5044 15.3067L10.4375 15.3228L10.4286 15.391L10.5278 15.4039ZM12.3987 14.6278L12.4598 14.5486L12.4053 14.5065L12.3465 14.5425L12.3987 14.6278ZM13.4744 15.4571L13.4133 15.5363L13.4133 15.5363L13.4744 15.4571ZM13.9539 15.4259L14.0246 15.4966L14.0247 15.4965L13.9539 15.4259ZM14.655 14.723V14.623H14.6135L14.5842 14.6523L14.655 14.723ZM14.6557 14.723V14.823H14.697L14.7263 14.7938L14.6557 14.723ZM15.3586 14.0218L15.4293 14.0926L15.4293 14.0926L15.3586 14.0218ZM15.39 13.5426L15.4693 13.4817L15.4693 13.4816L15.39 13.5426ZM14.5622 12.4669L14.4769 12.4147L14.441 12.4734L14.4829 12.5279L14.5622 12.4669ZM15.3366 10.5958L15.3238 10.4966L15.2555 10.5055L15.2394 10.5724L15.3366 10.5958ZM16.6831 10.4214L16.696 10.5206L16.696 10.5205L16.6831 10.4214ZM17 10.0607L17.1 10.0607V10.0607H17ZM17 8.07345H17.1V8.07344L17 8.07345ZM16.6835 7.71288L16.6965 7.61373L16.6965 7.61373L16.6835 7.71288ZM15.3366 7.53686L15.2394 7.56028L15.2555 7.62711L15.3236 7.63602L15.3366 7.53686ZM14.5622 5.66732L14.4829 5.60633L14.441 5.66085L14.4769 5.71952L14.5622 5.66732ZM15.39 4.59158L15.4693 4.65257L15.4693 4.65257L15.39 4.59158ZM15.359 4.11266L15.4297 4.04196L15.4297 4.04195L15.359 4.11266ZM14.6553 3.40902L14.5846 3.47973H14.5846L14.6553 3.40902ZM13.9535 2.7072L14.0242 2.63649L14.0242 2.63648L13.9535 2.7072ZM13.4746 2.67618L13.4136 2.59693L13.4136 2.59693L13.4746 2.67618ZM12.3989 3.50402L12.3466 3.58931L12.4053 3.62523L12.4598 3.58327L12.3989 3.50402ZM10.5278 2.72953L10.4286 2.74238L10.4375 2.81067L10.5044 2.82676L10.5278 2.72953ZM10.3533 1.38311L10.4525 1.37027L10.4525 1.37026L10.3533 1.38311ZM9.99273 1.06618L9.99274 0.966181H9.99273V1.06618ZM8.00545 1.06618V0.966181H7.90545V1.06618H8.00545ZM8.325 1.79345V1.69345H8.225V1.79345H8.325ZM9.67318 1.79345L9.77235 1.78061L9.76107 1.69345H9.67318V1.79345ZM9.83936 3.07652L9.74019 3.08937V3.08937L9.83936 3.07652ZM10.1293 3.38652L10.1099 3.48461L10.1099 3.48462L10.1293 3.38652ZM12.2159 4.25016L12.2715 4.16706L12.2715 4.16706L12.2159 4.25016ZM12.64 4.23618L12.701 4.31543L12.701 4.31543L12.64 4.23618ZM13.6651 3.44731L13.7358 3.3766L13.6737 3.3145L13.6041 3.36806L13.6651 3.44731ZM14.1411 3.92328L14.2118 3.85257L14.2118 3.85257L14.1411 3.92328ZM14.6189 4.40112L14.6982 4.46211L14.7517 4.39251L14.6896 4.33041L14.6189 4.40112ZM13.83 5.42623L13.7508 5.36525L13.7507 5.36526L13.83 5.42623ZM13.816 5.85027L13.7329 5.90589L13.7329 5.9059L13.816 5.85027ZM14.6797 7.93521L14.5816 7.95469L14.5816 7.9547L14.6797 7.93521ZM14.9893 8.22492L14.9763 8.32408L14.9763 8.32408L14.9893 8.22492ZM16.2727 8.39265H16.3727V8.30486L16.2857 8.29349L16.2727 8.39265ZM16.2727 9.74118L16.2856 9.84035L16.3727 9.82906V9.74118H16.2727ZM14.9897 9.90736L14.9768 9.80819L14.9768 9.80819L14.9897 9.90736ZM14.6797 10.1973L14.5816 10.1779V10.1779L14.6797 10.1973ZM13.816 12.2839L13.7329 12.2283L13.7329 12.2283L13.816 12.2839ZM13.83 12.7079L13.7507 12.7689L13.7508 12.7689L13.83 12.7079ZM14.6186 13.7327L14.6893 13.8035L14.7515 13.7414L14.6979 13.6717L14.6186 13.7327ZM14.1414 14.2087L14.1413 14.3087L14.1827 14.3087L14.212 14.2795L14.1414 14.2087ZM14.1407 14.2087L14.1406 14.1087L14.0992 14.1087L14.0699 14.1381L14.1407 14.2087ZM13.6649 14.6857L13.6039 14.7649L13.6736 14.8187L13.7358 14.7563L13.6649 14.6857ZM12.6402 13.8957L12.7013 13.8165L12.7013 13.8165L12.6402 13.8957ZM12.2159 13.8815L12.1603 13.7984L12.1603 13.7984L12.2159 13.8815ZM10.1293 14.747L10.1099 14.6489L10.1098 14.6489L10.1293 14.747ZM9.83944 15.0569L9.74027 15.0441L9.74027 15.0441L9.83944 15.0569ZM9.67324 16.3383V16.4383H9.7611L9.77241 16.3511L9.67324 16.3383ZM8.325 16.3383L8.22583 16.3511L8.23713 16.4383H8.325V16.3383ZM8.1588 15.057L8.05963 15.0698L8.05963 15.0698L8.1588 15.057ZM7.86891 14.747L7.88837 14.6489L7.88835 14.6489L7.86891 14.747ZM5.78233 13.8815L5.83796 13.7984L5.83795 13.7984L5.78233 13.8815ZM5.358 13.8957L5.29695 13.8165L5.29694 13.8165L5.358 13.8957ZM4.33329 14.6857L4.26249 14.7564L4.32465 14.8187L4.39435 14.7649L4.33329 14.6857ZM3.85749 14.2087L3.92829 14.1381L3.89903 14.1087L3.85758 14.1087L3.85749 14.2087ZM3.85682 14.2087L3.7862 14.2795L3.81551 14.3087L3.85691 14.3087L3.85682 14.2087ZM3.3796 13.7327L3.30035 13.6717L3.24672 13.7414L3.30898 13.8035L3.3796 13.7327ZM4.16818 12.708L4.24743 12.769L4.24743 12.7689L4.16818 12.708ZM4.18222 12.2839L4.26533 12.2283L4.26532 12.2283L4.18222 12.2839ZM3.31853 10.1973L3.22044 10.2168V10.2168L3.31853 10.1973ZM3.00864 9.90738L3.02152 9.80821L3.0215 9.80821L3.00864 9.90738ZM1.72727 9.7412H1.62727V9.82907L1.71441 9.84037L1.72727 9.7412ZM1.72727 8.39259L1.7143 8.29344L1.62727 8.30482V8.39259H1.72727ZM3.00904 8.22494L3.02201 8.32409L3.02203 8.32409L3.00904 8.22494ZM3.31853 7.93505L3.41662 7.95449L3.31853 7.93505ZM4.1826 5.8497L4.26581 5.90517L4.26582 5.90516L4.1826 5.8497ZM4.16818 5.42624L4.24743 5.36525V5.36525L4.16818 5.42624ZM3.37931 4.40112L3.3086 4.33041L3.2465 4.39251L3.30006 4.46211L3.37931 4.40112ZM3.85715 3.92328L3.78644 3.85257L3.78643 3.85257L3.85715 3.92328ZM4.33313 3.44732L4.39411 3.36807L4.32452 3.31451L4.26242 3.37661L4.33313 3.44732ZM5.35824 4.23618L5.29725 4.31543L5.29725 4.31543L5.35824 4.23618ZM5.78233 4.25016L5.7267 4.16706L5.7267 4.16707L5.78233 4.25016ZM7.86891 3.38653L7.88835 3.48462L7.88837 3.48462L7.86891 3.38653ZM8.1588 3.07653L8.25797 3.08937V3.08937L8.1588 3.07653ZM8.325 1.79346L8.425 1.80641V1.79346H8.325ZM8.00545 0.966181C7.77242 0.966194 7.5756 1.13916 7.54565 1.37026L7.74399 1.39597C7.76102 1.26455 7.87294 1.16619 8.00546 1.16618L8.00545 0.966181ZM7.54565 1.37027L7.37123 2.71674L7.56957 2.74244L7.74399 1.39596L7.54565 1.37027ZM7.44702 2.63236C6.7671 2.79584 6.12746 3.06353 5.54716 3.41873L5.65157 3.58931C6.21421 3.24493 6.83442 2.98536 7.49378 2.82682L7.44702 2.63236ZM5.66035 3.42477L4.58462 2.59693L4.46265 2.75543L5.53838 3.58327L5.66035 3.42477ZM4.58463 2.59693C4.40004 2.45488 4.13872 2.47181 3.97401 2.63649L4.11541 2.77792C4.20908 2.68428 4.35768 2.67465 4.46265 2.75543L4.58463 2.59693ZM3.974 2.63649L3.27218 3.33831L3.4136 3.47973L4.11542 2.77792L3.974 2.63649ZM3.27218 3.33831L2.56854 4.04195L2.70997 4.18337L3.4136 3.47973L3.27218 3.33831ZM2.56854 4.04195C2.40385 4.20665 2.3869 4.46796 2.52893 4.65256L2.68744 4.5306C2.60667 4.42563 2.61631 4.27703 2.70997 4.18337L2.56854 4.04195ZM2.52893 4.65256L3.35698 5.72864L3.51549 5.60667L2.68743 4.53059L2.52893 4.65256ZM3.35089 5.61554C2.9971 6.19487 2.72821 6.83326 2.56436 7.5135L2.7588 7.56034C2.91764 6.90087 3.17836 6.2818 3.52158 5.71978L3.35089 5.61554ZM2.64861 7.43776L1.3035 7.61373L1.32944 7.81204L2.67455 7.63607L2.64861 7.43776ZM1.30349 7.61373C1.07266 7.64394 0.900021 7.84064 0.9 8.07344L1.1 8.07346C1.10001 7.94107 1.19819 7.82922 1.32945 7.81204L1.30349 7.61373ZM0.9 8.07345V9.06618H1.1V8.07345H0.9ZM0.9 9.06618V10.0607H1.1V9.06618H0.9ZM0.9 10.0608C0.90002 10.2938 1.07294 10.4905 1.304 10.5205L1.32974 10.3222C1.19835 10.3051 1.10001 10.1932 1.1 10.0607L0.9 10.0608ZM1.30401 10.5205L2.64872 10.6949L2.67444 10.4966L1.32973 10.3222L1.30401 10.5205ZM2.56435 10.6191C2.72784 11.2991 2.99552 11.9388 3.35073 12.5191L3.52131 12.4147C3.17692 11.852 2.91736 11.2318 2.75881 10.5724L2.56435 10.6191ZM3.35677 12.4059L2.52893 13.4816L2.68743 13.6036L3.51527 12.5279L3.35677 12.4059ZM2.52892 13.4816C2.38679 13.6664 2.40394 13.928 2.56898 14.0926L2.71022 13.951C2.61638 13.8574 2.60662 13.7087 2.68745 13.6036L2.52892 13.4816ZM2.56898 14.0926L3.27193 14.7938L3.41317 14.6522L2.71022 13.951L2.56898 14.0926ZM3.34255 14.823H3.34324V14.623H3.34255V14.823ZM3.27243 14.7936L3.97356 15.4965L4.11517 15.3553L3.41404 14.6523L3.27243 14.7936ZM3.97357 15.4965C4.13832 15.6617 4.40013 15.6787 4.5849 15.5363L4.46281 15.3779C4.35773 15.4589 4.20885 15.4492 4.11516 15.3553L3.97357 15.4965ZM4.58491 15.5363L5.66055 14.707L5.53843 14.5486L4.46279 15.3779L4.58491 15.5363ZM5.54726 14.7131C6.12721 15.0683 6.76675 15.3373 7.44704 15.5011L7.49387 15.3067C6.83431 15.1478 6.21417 14.887 5.65173 14.5425L5.54726 14.7131ZM7.37129 15.4167L7.54572 16.7615L7.74406 16.7358L7.56962 15.391L7.37129 15.4167ZM7.54572 16.7615C7.57569 16.9925 7.77245 17.1655 8.00543 17.1655L8.00548 16.9655C7.87299 16.9655 7.7611 16.8672 7.74406 16.7358L7.54572 16.7615ZM8.00545 17.1655H9V16.9655H8.00545V17.1655ZM9 17.1655H9.99273V16.9655H9V17.1655ZM9.99274 17.1655C10.2257 17.1655 10.4225 16.9926 10.4525 16.7615L10.2542 16.7358C10.2371 16.8672 10.1252 16.9655 9.99272 16.9655L9.99274 17.1655ZM10.4525 16.7615L10.627 15.4167L10.4286 15.391L10.2542 16.7358L10.4525 16.7615ZM10.5512 15.5011C11.2315 15.3373 11.871 15.0683 12.451 14.7131L12.3465 14.5425C11.7841 14.887 11.1639 15.1478 10.5044 15.3067L10.5512 15.5011ZM12.3377 14.707L13.4133 15.5363L13.5354 15.3779L12.4598 14.5486L12.3377 14.707ZM13.4133 15.5363C13.5981 15.6787 13.8599 15.6617 14.0246 15.4966L13.8831 15.3553C13.7894 15.4492 13.6405 15.4589 13.5354 15.3779L13.4133 15.5363ZM14.0247 15.4965L14.7258 14.7936L14.5842 14.6523L13.8831 15.3553L14.0247 15.4965ZM14.655 14.823H14.6553V14.623H14.655V14.823ZM14.6553 14.823H14.6557V14.623H14.6553V14.823ZM14.7263 14.7938L15.4293 14.0926L15.288 13.951L14.5851 14.6522L14.7263 14.7938ZM15.4293 14.0926C15.5943 13.928 15.6114 13.6664 15.4693 13.4817L15.3107 13.6036C15.3916 13.7087 15.3818 13.8574 15.288 13.951L15.4293 14.0926ZM15.4693 13.4816L14.6414 12.4059L14.4829 12.5279L15.3108 13.6036L15.4693 13.4816ZM14.6475 12.5191C15.0027 11.9388 15.2704 11.2991 15.4339 10.6192L15.2394 10.5724C15.0809 11.2318 14.8213 11.852 14.4769 12.4147L14.6475 12.5191ZM15.3495 10.695L16.696 10.5206L16.6703 10.3222L15.3238 10.4966L15.3495 10.695ZM16.696 10.5205C16.9271 10.4906 17.1 10.2938 17.1 10.0607L16.9 10.0607C16.9 10.1932 16.8017 10.3052 16.6703 10.3222L16.696 10.5205ZM17.1 10.0607V9.06618H16.9V10.0607H17.1ZM17.1 9.06618V8.07345H16.9V9.06618H17.1ZM17.1 8.07344C17.1 7.84063 16.9273 7.64393 16.6965 7.61373L16.6705 7.81204C16.8018 7.82921 16.9 7.94107 16.9 8.07346L17.1 8.07344ZM16.6965 7.61373L15.3495 7.43771L15.3236 7.63602L16.6706 7.81204L16.6965 7.61373ZM15.4338 7.51345C15.2703 6.83474 15.0026 6.19535 14.6475 5.61511L14.4769 5.71952C14.8212 6.28213 15.0808 6.90212 15.2394 7.56028L15.4338 7.51345ZM14.6414 5.7283L15.4693 4.65257L15.3108 4.53059L14.4829 5.60633L14.6414 5.7283ZM15.4693 4.65257C15.6113 4.46798 15.5944 4.20666 15.4297 4.04196L15.2882 4.18336C15.3819 4.27703 15.3915 4.42563 15.3107 4.53059L15.4693 4.65257ZM15.4297 4.04195L14.726 3.33831L14.5846 3.47973L15.2883 4.18337L15.4297 4.04195ZM14.726 3.33831L14.0242 2.63649L13.8828 2.77792L14.5846 3.47973L14.726 3.33831ZM14.0242 2.63648C13.8595 2.47182 13.5982 2.45489 13.4136 2.59693L13.5356 2.75543C13.6405 2.67466 13.7891 2.68429 13.8828 2.77793L14.0242 2.63648ZM13.4136 2.59693L12.3379 3.42477L12.4598 3.58327L13.5356 2.75543L13.4136 2.59693ZM12.4511 3.41873C11.8707 3.06353 11.2311 2.79579 10.5512 2.6323L10.5044 2.82676C11.1638 2.9853 11.784 3.24491 12.3466 3.58931L12.4511 3.41873ZM10.627 2.71669L10.4525 1.37027L10.2542 1.39596L10.4286 2.74238L10.627 2.71669ZM10.4525 1.37026C10.4226 1.13917 10.2258 0.966206 9.99274 0.966181L9.99272 1.16618C10.1252 1.1662 10.2371 1.26455 10.2542 1.39597L10.4525 1.37026ZM9.99273 0.966181H9V1.16618H9.99273V0.966181ZM9 0.966181H8.00545V1.16618H9V0.966181ZM7.90545 1.06618V1.06618H8.10545V1.06618H7.90545ZM8.325 1.89345H9V1.69345H8.325V1.89345ZM9 1.89345H9.67318V1.69345H9V1.89345ZM9.57401 1.8063L9.74019 3.08937L9.93854 3.06368L9.77235 1.78061L9.57401 1.8063ZM9.74019 3.08937C9.76578 3.28682 9.91456 3.4459 10.1099 3.48461L10.1488 3.28843C10.0377 3.26642 9.95308 3.17596 9.93853 3.06367L9.74019 3.08937ZM10.1099 3.48462C10.8566 3.63261 11.5504 3.92497 12.1603 4.33326L12.2715 4.16706C11.64 3.74429 10.9217 3.44161 10.1488 3.28843L10.1099 3.48462ZM12.1603 4.33326C12.3257 4.44397 12.5433 4.4368 12.701 4.31543L12.579 4.15692C12.4893 4.22594 12.3656 4.23002 12.2715 4.16706L12.1603 4.33326ZM12.701 4.31543L13.7261 3.52656L13.6041 3.36806L12.579 4.15693L12.701 4.31543ZM13.5944 3.51802L14.0704 3.99399L14.2118 3.85257L13.7358 3.3766L13.5944 3.51802ZM14.0704 3.99399L14.5482 4.47183L14.6896 4.33041L14.2118 3.85257L14.0704 3.99399ZM14.5397 4.34013L13.7508 5.36525L13.9092 5.48722L14.6982 4.46211L14.5397 4.34013ZM13.7507 5.36526C13.6294 5.52297 13.6222 5.74052 13.7329 5.90589L13.8991 5.79465C13.8362 5.70061 13.8403 5.5769 13.9093 5.48721L13.7507 5.36526ZM13.7329 5.9059C14.1412 6.51583 14.4337 7.20981 14.5816 7.95469L14.7778 7.91573C14.6246 7.14467 14.3219 6.42617 13.8991 5.79464L13.7329 5.9059ZM14.5816 7.9547C14.6204 8.14971 14.7792 8.2983 14.9763 8.32408L15.0022 8.12576C14.8901 8.11111 14.7998 8.02661 14.7778 7.91572L14.5816 7.9547ZM14.9763 8.32408L16.2598 8.4918L16.2857 8.29349L15.0022 8.12576L14.9763 8.32408ZM16.1727 8.39265V9.06618H16.3727V8.39265H16.1727ZM16.1727 9.06618V9.74118H16.3727V9.06618H16.1727ZM16.2599 9.64201L14.9768 9.80819L15.0025 10.0065L16.2856 9.84035L16.2599 9.64201ZM14.9768 9.80819C14.7794 9.83381 14.6203 9.98259 14.5816 10.1779L14.7778 10.2168C14.7998 10.1057 14.8903 10.0211 15.0025 10.0065L14.9768 9.80819ZM14.5816 10.1779C14.4336 10.9246 14.1412 11.6184 13.7329 12.2283L13.8991 12.3395C14.3219 11.708 14.6246 10.9897 14.7778 10.2167L14.5816 10.1779ZM13.7329 12.2283C13.6222 12.3937 13.6294 12.6112 13.7507 12.7689L13.9093 12.647C13.8403 12.5573 13.8362 12.4336 13.8991 12.3395L13.7329 12.2283ZM13.7508 12.7689L14.5394 13.7937L14.6979 13.6717L13.9092 12.647L13.7508 12.7689ZM14.548 13.6619L14.0708 14.1379L14.212 14.2795L14.6893 13.8035L14.548 13.6619ZM14.1415 14.1087C14.1412 14.1087 14.1409 14.1087 14.1406 14.1087L14.1408 14.3087C14.141 14.3087 14.1412 14.3087 14.1413 14.3087L14.1415 14.1087ZM14.0699 14.1381L13.5941 14.6151L13.7358 14.7563L14.2115 14.2793L14.0699 14.1381ZM13.726 14.6065L12.7013 13.8165L12.5792 13.9749L13.6039 14.7649L13.726 14.6065ZM12.7013 13.8165C12.5435 13.6949 12.3258 13.6876 12.1603 13.7984L12.2715 13.9646C12.3656 13.9016 12.4895 13.9057 12.5792 13.9749L12.7013 13.8165ZM12.1603 13.7984C11.5499 14.207 10.8559 14.5011 10.1099 14.6489L10.1488 14.8451C10.9213 14.692 11.6397 14.3875 12.2715 13.9646L12.1603 13.7984ZM10.1098 14.6489C9.91461 14.6877 9.76588 14.8467 9.74027 15.0441L9.93861 15.0698C9.95317 14.9576 10.0377 14.8671 10.1488 14.8451L10.1098 14.6489ZM9.74027 15.0441L9.57407 16.3254L9.77241 16.3511L9.93861 15.0698L9.74027 15.0441ZM9.67324 16.2383H9V16.4383H9.67324V16.2383ZM9 16.2383H8.325V16.4383H9V16.2383ZM8.42417 16.3254L8.25797 15.0441L8.05963 15.0698L8.22583 16.3511L8.42417 16.3254ZM8.25797 15.0441C8.23237 14.8467 8.08362 14.6877 7.88837 14.6489L7.84945 14.8451C7.96048 14.8671 8.04507 14.9576 8.05963 15.0698L8.25797 15.0441ZM7.88835 14.6489C7.14232 14.5011 6.44837 14.207 5.83796 13.7984L5.7267 13.9646C6.3585 14.3875 7.07695 14.692 7.84947 14.8451L7.88835 14.6489ZM5.83795 13.7984C5.67245 13.6876 5.45469 13.6949 5.29695 13.8165L5.41905 13.9749C5.50875 13.9057 5.63259 13.9016 5.7267 13.9646L5.83795 13.7984ZM5.29694 13.8165L4.27223 14.6066L4.39435 14.7649L5.41906 13.9749L5.29694 13.8165ZM4.40409 14.6151L3.92829 14.1381L3.78669 14.2793L4.26249 14.7564L4.40409 14.6151ZM3.85758 14.1087C3.8573 14.1087 3.85701 14.1087 3.85673 14.1087L3.85691 14.3087C3.85707 14.3087 3.85724 14.3087 3.8574 14.3087L3.85758 14.1087ZM3.92744 14.1379L3.45022 13.6619L3.30898 13.8035L3.7862 14.2795L3.92744 14.1379ZM3.45885 13.7937L4.24743 12.769L4.08893 12.647L3.30035 13.6717L3.45885 13.7937ZM4.24743 12.7689C4.36879 12.6112 4.37599 12.3937 4.26533 12.2283L4.09911 12.3395C4.16204 12.4336 4.15794 12.5573 4.08893 12.647L4.24743 12.7689ZM4.26532 12.2283C3.85701 11.6184 3.5646 10.9246 3.41662 10.1779L3.22044 10.2168C3.37361 10.9897 3.67634 11.708 4.09912 12.3396L4.26532 12.2283ZM3.41662 10.1779C3.37792 9.98263 3.21892 9.83385 3.02152 9.80821L2.99576 10.0065C3.10801 10.0211 3.19843 10.1057 3.22044 10.2168L3.41662 10.1779ZM3.0215 9.80821L1.74013 9.64203L1.71441 9.84037L2.99577 10.0065L3.0215 9.80821ZM1.82727 9.7412V9.06618H1.62727V9.7412H1.82727ZM1.82727 9.06618V8.39259H1.62727V9.06618H1.82727ZM1.74024 8.49175L3.02201 8.32409L2.99607 8.12578L1.7143 8.29344L1.74024 8.49175ZM3.02203 8.32409C3.21921 8.29826 3.37796 8.14956 3.41662 7.95449L3.22044 7.91561C3.19845 8.02654 3.10818 8.11109 2.99605 8.12578L3.02203 8.32409ZM3.41662 7.95449C3.56444 7.20861 3.8584 6.51628 4.26581 5.90517L4.09939 5.79424C3.67793 6.42644 3.37352 7.14314 3.22044 7.91561L3.41662 7.95449ZM4.26582 5.90516C4.37599 5.73984 4.36859 5.5227 4.24743 5.36525L4.08893 5.48722C4.15783 5.57676 4.16204 5.70024 4.09939 5.79425L4.26582 5.90516ZM4.24743 5.36525L3.45856 4.34014L3.30006 4.46211L4.08893 5.48722L4.24743 5.36525ZM3.45002 4.47184L3.92786 3.99399L3.78643 3.85257L3.3086 4.33041L3.45002 4.47184ZM3.92786 3.99399L4.40384 3.51803L4.26242 3.37661L3.78644 3.85257L3.92786 3.99399ZM4.27214 3.52657L5.29725 4.31543L5.41922 4.15693L4.39411 3.36807L4.27214 3.52657ZM5.29725 4.31543C5.45498 4.4368 5.67258 4.44398 5.83796 4.33326L5.7267 4.16707C5.63265 4.23003 5.50891 4.22595 5.41922 4.15693L5.29725 4.31543ZM5.83796 4.33326C6.44787 3.92497 7.14167 3.63261 7.88835 3.48462L7.84947 3.28843C7.07659 3.44162 6.35824 3.7443 5.7267 4.16706L5.83796 4.33326ZM7.88837 3.48462C8.08364 3.44588 8.2324 3.2868 8.25797 3.08937L8.05963 3.06368C8.04508 3.17595 7.9605 3.26641 7.84945 3.28844L7.88837 3.48462ZM8.25797 3.08937L8.42417 1.8063L8.22583 1.78061L8.05963 3.06368L8.25797 3.08937ZM8.425 1.79346V1.79345H8.225V1.79346H8.425Z" fill="#9FA9BA"/>
<path fill-rule="evenodd" clip-rule="evenodd" d="M8.99964 5.42982C6.99417 5.42982 5.36328 7.06258 5.36328 9.06618C5.36328 11.0698 6.99417 12.7026 8.99964 12.7026C11.0035 12.7026 12.636 11.07 12.636 9.06618C12.636 7.06234 11.0035 5.42982 8.99964 5.42982ZM8.99964 6.15709C10.6103 6.15709 11.9087 7.45548 11.9087 9.06618C11.9087 10.6769 10.6103 11.9753 8.99964 11.9753C7.38692 11.9753 6.09055 10.6771 6.09055 9.06618C6.09055 7.45523 7.38692 6.15709 8.99964 6.15709Z" fill="#9FA9BA"/>
<path d="M8.99964 5.32982C6.93891 5.32982 5.26328 7.00738 5.26328 9.06618H5.46328C5.46328 7.11777 7.04943 5.52982 8.99964 5.52982V5.32982ZM5.26328 9.06618C5.26328 11.125 6.93891 12.8026 8.99964 12.8026V12.6026C7.04943 12.6026 5.46328 11.0146 5.46328 9.06618H5.26328ZM8.99964 12.8026C11.0587 12.8026 12.736 11.1253 12.736 9.06618H12.536C12.536 11.0148 10.9483 12.6026 8.99964 12.6026V12.8026ZM12.736 9.06618C12.736 7.00711 11.0587 5.32982 8.99964 5.32982V5.52982C10.9483 5.52982 12.536 7.11756 12.536 9.06618H12.736ZM8.99964 6.25709C10.5551 6.25709 11.8087 7.51071 11.8087 9.06618H12.0087C12.0087 7.40025 10.6656 6.05709 8.99964 6.05709V6.25709ZM11.8087 9.06618C11.8087 10.6217 10.5551 11.8753 8.99964 11.8753V12.0753C10.6656 12.0753 12.0087 10.7321 12.0087 9.06618H11.8087ZM8.99964 11.8753C7.44219 11.8753 6.19055 10.622 6.19055 9.06618H5.99055C5.99055 10.7323 7.33165 12.0753 8.99964 12.0753V11.8753ZM6.19055 9.06618C6.19055 7.51042 7.44219 6.25709 8.99964 6.25709V6.05709C7.33165 6.05709 5.99055 7.40004 5.99055 9.06618H6.19055Z" fill="#9FA9BA"/>
</svg>
