<?xml version="1.0" encoding="UTF-8" standalone="no"?>
<svg width="25px" height="25px" viewBox="0 0 25 25" version="1.1" xmlns="http://www.w3.org/2000/svg" xmlns:xlink="http://www.w3.org/1999/xlink">
    <!-- Generator: sketchtool 39.1 (31720) - http://www.bohemiancoding.com/sketch -->
    <title>6F488856-F8EF-479C-9747-AB6E0945C7DE</title>
    <desc>Created with sketchtool.</desc>
    <defs></defs>
    <g id="Create-group" stroke="none" stroke-width="1" fill="none" fill-rule="evenodd">
        <g id="Chat-Group-5a-Invite-modal" transform="translate(-611.000000, -366.000000)">
            <g id="Group-6" transform="translate(604.000000, 364.000000)">
                <g id="icon_email_user" transform="translate(7.000000, 2.000000)">
                    <circle id="Oval-2" fill="#D8D8D8" cx="12.5" cy="12.5" r="12.5"></circle>
                    <path d="M19.3007812,12.2265625 C19.3007812,12.9713579 19.1835949,13.6523407 18.9492188,14.2695312 C18.7148426,14.8867218 18.3854188,15.3671858 17.9609375,15.7109375 C17.5364562,16.0546892 17.0455757,16.2265625 16.4882812,16.2265625 C16.0768209,16.2265625 15.7200536,16.1171886 15.4179688,15.8984375 C15.1158839,15.6796864 14.9127609,15.3828144 14.8085938,15.0078125 L14.7148438,15.0078125 C14.4596341,15.4140645 14.1445331,15.718749 13.7695312,15.921875 C13.3945294,16.125001 12.9726586,16.2265625 12.5039062,16.2265625 C11.6549437,16.2265625 10.9869816,15.9531277 10.5,15.40625 C10.0130184,14.8593723 9.76953125,14.1197963 9.76953125,13.1875 C9.76953125,12.114578 10.0924447,11.2434929 10.7382812,10.5742188 C11.3841178,9.90494457 12.2512966,9.5703125 13.3398438,9.5703125 C13.7356791,9.5703125 14.1744768,9.6054684 14.65625,9.67578125 C15.1380232,9.7460941 15.5664044,9.84374937 15.9414062,9.96875 L15.7695312,13.6015625 L15.7695312,13.7890625 C15.7695312,14.6224 16.0403619,15.0390625 16.5820312,15.0390625 C16.9934916,15.0390625 17.3203113,14.7734402 17.5625,14.2421875 C17.8046887,13.7109348 17.9257812,13.0338583 17.9257812,12.2109375 C17.9257812,11.320308 17.7434914,10.5377638 17.3789062,9.86328125 C17.0143211,9.18879871 16.4960971,8.66927266 15.8242188,8.3046875 C15.1523404,7.94010234 14.3815148,7.7578125 13.5117188,7.7578125 C12.4023382,7.7578125 11.4375041,7.98697687 10.6171875,8.4453125 C9.7968709,8.90364813 9.17057508,9.55858949 8.73828125,10.4101562 C8.30598742,11.261723 8.08984375,12.2499944 8.08984375,13.375 C8.08984375,14.8854242 8.49348555,16.0468709 9.30078125,16.859375 C10.108077,17.6718791 11.2669195,18.078125 12.7773438,18.078125 C13.9283912,18.078125 15.1289,17.8437523 16.3789062,17.375 L16.3789062,18.65625 C15.2851508,19.1041689 14.0950585,19.328125 12.8085938,19.328125 C10.8815008,19.328125 9.37891164,18.8085989 8.30078125,17.7695312 C7.22265086,16.7304636 6.68359375,15.2812593 6.68359375,13.421875 C6.68359375,12.0624932 6.9752575,10.8528699 7.55859375,9.79296875 C8.14193,8.73306762 8.95051566,7.92187781 9.984375,7.359375 C11.0182343,6.79687219 12.1887955,6.515625 13.4960938,6.515625 C14.6263077,6.515625 15.6328081,6.74999766 16.515625,7.21875 C17.3984419,7.68750234 18.0833309,8.35546441 18.5703125,9.22265625 C19.0572941,10.0898481 19.3007812,11.0911402 19.3007812,12.2265625 L19.3007812,12.2265625 Z M11.2695312,13.21875 C11.2695312,14.4322977 11.746089,15.0390625 12.6992188,15.0390625 C13.7044321,15.0390625 14.2539058,14.2760493 14.3476562,12.75 L14.4414062,10.8828125 C14.1132796,10.7942704 13.7617206,10.75 13.3867188,10.75 C12.7200488,10.75 12.2005227,10.971352 11.828125,11.4140625 C11.4557273,11.856773 11.2695312,12.4583295 11.2695312,13.21875 L11.2695312,13.21875 Z" id="@" fill="#FFFFFF"></path>
                </g>
            </g>
        </g>
    </g>
</svg>
