<?xml version="1.0" encoding="UTF-8"?>
<svg width="16px" height="16px" viewBox="0 0 16 16" version="1.1" xmlns="http://www.w3.org/2000/svg" xmlns:xlink="http://www.w3.org/1999/xlink">
    <!-- Generator: Sketch 52.3 (67297) - http://www.bohemiancoding.com/sketch -->
    <title>Shape</title>
    <desc>Created with Sketch.</desc>
    <g id="agreed" stroke="none" stroke-width="1" fill="none" fill-rule="evenodd">
        <g id="matrix-files-list" transform="translate(-96.000000, -71.000000)" fill="#9FA9BA" fill-rule="nonzero">
            <g id="1-copy" transform="translate(67.000000, 47.000000)">
                <g id="search" transform="translate(17.000000, 16.000000)">
                    <path d="M27.7960817,22.7689061 L24.2910448,19.2638692 C26.6040192,16.4045943 26.2742638,12.2351072 23.5405883,9.77496046 C20.8069128,7.31481375 16.6258535,7.42483371 14.0253436,10.0253436 C11.4248337,12.6258535 11.3148138,16.8069128 13.7749605,19.5405883 C16.2351072,22.2742638 20.4045943,22.6040192 23.2638692,20.2910448 L26.7689061,23.7960817 C27.0539429,24.0713794 27.5070231,24.0674423 27.7872327,23.7872327 C28.0674423,23.5070231 28.0713794,23.0539429 27.7960817,22.7689061 Z M13.4802761,14.9285199 C13.4778286,12.4654797 15.1281652,10.3071276 17.5057384,9.66391787 C19.8833116,9.02070817 22.3967204,10.0526338 23.6363865,12.1809668 C24.8760525,14.3092997 24.5336194,17.0046354 22.8011317,18.7553664 C22.7924145,18.7633572 22.781518,18.7655365 22.7735272,18.7735272 C22.7655365,18.781518 22.7626308,18.7931409 22.7553664,18.8011317 C21.1935085,20.3473331 18.8551963,20.8029027 16.8271177,19.9561226 C14.799039,19.1093426 13.4789257,17.1262773 13.4802761,14.9285199 Z" id="Shape"/>
                </g>
            </g>
        </g>
    </g>
</svg>