<svg width="19" height="21" viewBox="0 0 19 21" fill="none" xmlns="http://www.w3.org/2000/svg">
<path d="M5.95442 20.5157C4.38461 20.5157 2.89601 19.8932 1.75926 18.7835C0.622507 17.6738 0 16.1852 0 14.6425C0 13.1538 0.568376 11.7735 1.62393 10.745L11.2322 1.27208C12.0442 0.460114 13.1538 0 14.3447 0C15.6168 0 16.8348 0.48718 17.6738 1.29915C18.5128 2.13818 19 3.35613 19 4.60114C19 5.79202 18.5399 6.87464 17.7009 7.68661L9.52707 15.7792C8.93162 16.3746 8.11966 16.6994 7.28063 16.6994C6.41453 16.6994 5.54843 16.3476 4.92593 15.7251C4.30342 15.1026 3.9245 14.2635 3.9245 13.3974C3.9245 12.5584 4.27635 11.7464 4.87179 11.151L11.3675 4.73647L12.3148 5.71083L5.81909 12.1254C5.46724 12.4501 5.27778 12.9103 5.27778 13.3974C5.27778 13.9117 5.4943 14.3989 5.87322 14.7778C6.25214 15.1567 6.76638 15.3462 7.28063 15.3462C7.76781 15.3462 8.25499 15.1567 8.57977 14.8319L16.7536 6.73932C17.3219 6.17094 17.6467 5.44017 17.6467 4.62821C17.6467 3.73504 17.2949 2.86895 16.6994 2.2735C16.104 1.70513 15.2379 1.35328 14.3177 1.35328C13.5057 1.35328 12.7208 1.67806 12.1524 2.21937L2.54416 11.6923C1.75926 12.4772 1.32621 13.5057 1.32621 14.6154C1.32621 15.8063 1.81339 16.943 2.67949 17.8091C3.54558 18.6752 4.7094 19.1624 5.92735 19.1624C7.0641 19.1624 8.11966 18.7293 8.90456 17.9444L16.8348 10.1225L17.7821 11.0969L17.1595 11.7194L9.87892 18.9188C8.85043 19.9473 7.44302 20.5157 5.95442 20.5157Z" fill="#9FA9BA"/>
</svg>
