<svg width="439" height="100" viewBox="0 0 439 100" fill="none" xmlns="http://www.w3.org/2000/svg">
<path d="M63.0312 81.4184C62.2423 81.769 61.5336 82.0859 60.824 82.3998C58.0433 83.6284 55.2283 84.7607 52.284 85.5285C47.8159 86.6936 43.3026 87.0591 38.7033 86.5029C34.4113 85.9844 30.317 84.7965 26.3412 83.1179C20.5731 80.6814 15.4864 77.2328 11.2316 72.5765C7.84591 68.8716 5.30791 64.6165 3.47072 59.9244C2.01134 56.1987 0.975775 52.3677 0.632219 48.3629C0.322921 44.7524 0.405139 41.1519 1.02374 37.5762C2.11117 31.2869 4.427 25.4922 7.96533 20.221C10.564 16.3503 13.7598 13.0418 17.4185 10.1763C21.1673 7.2412 25.2469 4.92095 29.6798 3.27016C35.0847 1.25684 40.6658 0.334105 46.4416 0.770143C50.58 1.08302 54.5676 1.99781 58.3389 3.76977C63.13 6.02148 67.5375 8.89596 71.5819 12.3376C73.5287 13.9943 75.0899 16.0116 76.6697 18.021C78.8582 20.8041 80.7424 23.7719 82.2488 26.9782C83.6896 30.0463 85.008 33.186 85.4954 36.569C85.837 38.9349 86.0132 41.3436 86.0387 43.7354C86.1042 49.9581 86.0436 56.1828 86.0387 62.4065C86.0318 70.8313 86.0367 79.2571 86.024 87.6819C86.0191 90.9656 85.0051 93.9245 83.1023 96.5646C81.6057 98.6415 79.4534 99.5682 77.0299 99.8711C74.5163 100.185 72.0517 99.9595 69.7261 98.8183C67.4406 97.6969 65.8481 95.9011 64.7539 93.6106C63.4119 90.8017 63.0488 87.7991 63.0322 84.726C63.0263 83.6542 63.0312 80.3757 63.0312 79.2096V81.4184ZM63.0312 79.2096L63.1633 71.8971C63.2093 62.4135 63.2162 52.9299 63.2309 43.4463C63.2338 41.7419 63.2309 40.0375 62.8041 38.3668C61.9897 35.1795 60.6723 32.2364 58.4641 29.801C56.763 27.9237 54.6703 26.5103 52.4377 25.3601C51.1535 24.6986 49.8146 24.052 48.4256 23.7103C43.6276 22.5294 38.9656 23.0588 34.4279 25.0602C29.0358 27.438 25.6306 31.5461 23.8511 37.157C22.9545 39.9838 22.6413 42.8623 22.8655 45.8232C23.1855 50.0425 24.7545 53.7017 27.5509 56.8155C29.9049 59.4367 31.8533 60.9525 35.0921 62.2984C38.6608 63.7823 44.1827 63.2559 47.9422 62.2984L63.0312 79.2096Z" fill="white"/>
<path d="M150.764 80.3959H141.331V63.4819C139.382 66.2903 136.238 67.7583 132.528 67.7583C125.485 67.7583 117.436 62.5245 117.436 51.5464C117.436 41.398 124.353 34.5686 134.225 34.5686C143.721 34.5686 150.764 40.8874 150.764 51.4825V80.3959ZM134.163 58.8226C138.439 58.8226 141.331 55.6951 141.331 51.1634C141.331 46.6318 138.439 43.5043 134.163 43.5043C129.886 43.5043 126.994 46.6318 126.994 51.1634C126.994 55.6951 129.886 58.8226 134.163 58.8226Z" fill="white"/>
<path d="M174.182 67.7583C165.001 67.7583 158.838 62.3969 158.838 51.7379V35.3983H168.27V51.7379C168.27 56.7163 170.66 58.8226 174.182 58.8226C177.703 58.8226 180.093 56.7163 180.093 51.7379V35.3983H189.525V51.7379C189.525 62.333 183.363 67.7583 174.182 67.7583Z" fill="white"/>
<path d="M211.342 67.7583C204.425 67.7583 196.313 62.5245 196.313 51.5464C196.313 41.398 203.23 34.5686 213.103 34.5686C222.849 34.5686 229.641 41.1427 229.641 51.4825V66.9285H220.963V61.6948C219.328 65.5882 215.807 67.7583 211.342 67.7583ZM213.04 58.8226C217.316 58.8226 220.208 55.6951 220.208 51.1634C220.208 46.6318 217.316 43.5043 213.04 43.5043C208.764 43.5043 205.871 46.6318 205.871 51.1634C205.871 55.6951 208.764 58.8226 213.04 58.8226Z" fill="white"/>
<path d="M238.721 66.9285V21.6118H248.154V66.9285H238.721Z" fill="white"/>
<path d="M262.949 32.5261C259.49 32.5261 256.912 29.9093 256.912 26.3988C256.912 22.8884 259.49 20.2715 262.949 20.2715C266.407 20.2715 268.985 22.8884 268.985 26.3988C268.985 29.9093 266.407 32.5261 262.949 32.5261ZM258.232 66.9285V35.3983H267.665V66.9285H258.232Z" fill="white"/>
<path d="M282.019 67.7583C278.561 67.7583 275.983 65.1414 275.983 61.6309C275.983 58.1205 278.561 55.5036 282.019 55.5036C285.478 55.5036 288.056 58.1205 288.056 61.6309C288.056 65.1414 285.478 67.7583 282.019 67.7583Z" fill="white"/>
<path d="M310.182 67.7583C300.373 67.7583 293.455 60.7374 293.455 51.1634C293.455 41.5895 300.373 34.5686 310.182 34.5686C318.797 34.5686 325.086 39.9938 326.406 47.7806H316.848C315.779 45.1637 313.327 43.5043 310.182 43.5043C305.906 43.5043 303.014 46.6318 303.014 51.1634C303.014 55.6951 305.906 58.8226 310.182 58.8226C313.327 58.8226 315.779 57.1631 316.848 54.5462H326.406C325.086 62.333 318.797 67.7583 310.182 67.7583Z" fill="white"/>
<path d="M334.083 66.9285V21.6118H343.516V38.7811C345.402 36.0366 348.043 34.5686 351.25 34.5686C357.79 34.5686 364.77 39.0364 364.77 50.589V66.9285H355.338V50.589C355.338 45.6105 352.948 43.5043 349.427 43.5043C346.031 43.5043 343.516 45.7382 343.516 50.589V66.9285H334.083Z" fill="white"/>
<path d="M386.563 67.7583C379.646 67.7583 371.534 62.5245 371.534 51.5464C371.534 41.398 378.451 34.5686 388.324 34.5686C398.071 34.5686 404.862 41.1427 404.862 51.4825V66.9285H396.184V61.6948C394.549 65.5882 391.028 67.7583 386.563 67.7583ZM388.261 58.8226C392.537 58.8226 395.43 55.6951 395.43 51.1634C395.43 46.6318 392.537 43.5043 388.261 43.5043C383.985 43.5043 381.092 46.6318 381.092 51.1634C381.092 55.6951 383.985 58.8226 388.261 58.8226Z" fill="white"/>
<path d="M425.953 67.7583C418.219 67.7583 412.937 63.4819 412.937 54.4824V24.2287H422.369V35.3983H437.084V44.0149H422.369V54.4824C422.369 57.8014 423.878 58.8226 425.953 58.8226C428.029 58.8226 429.538 57.8014 429.538 54.4824V53.525H438.97V54.4824C438.97 63.4819 433.688 67.7583 425.953 67.7583Z" fill="white"/>
</svg>
