<svg height="12" viewBox="0 0 71 12" width="71" xmlns="http://www.w3.org/2000/svg">
    <g fill="#454545" fill-rule="evenodd">
        <g transform="translate(18.551433 2)">
            <path d="m.06753266 7.63333335v-5.66666669h1.65455009v.63333334c.30389695-.5 1.01298984-.83333333 1.65455008-.83333333.81039188 0 1.41818577.33333333 1.68831641.9.43896227-.63333333 1.01298982-.9 1.7896154-.9 1.08052251 0 2.1272787.63333333 2.1272787 2.16666667v3.66666666h-1.68831643v-3.26666666c0-.53333334-.30389694-.96666667-.91169086-.96666667-.60779387 0-.94545718.46666667-.94545718.96666667v3.26666666h-1.72208276v-3.26666666c0-.53333334-.30389696-.96666667-.91169086-.96666667-.60779391 0-.94545719.46666667-.94545719.96666667v3.26666666h-1.7896154z"/>
            <path d="m16.9844631 4.8c0 1.76666665-1.3168868 3-3.0389695 3-1.6883165 0-3.0389695-1.26666665-3.0389695-3 0-1.76666666 1.350653-3 3.0389695-3 1.7220827 0 3.0389695 1.26666667 3.0389695 3m-1.755849 0c0-.96666666-.6077939-1.4-1.2831205-1.4-.6415602 0-1.2831205.43333334-1.2831205 1.4 0 .93333335.6415603 1.4 1.2831205 1.4.6753266.03333335 1.2831205-.43333335 1.2831205-1.4" fill-rule="nonzero"/>
            <path d="m30.9974894 7.06666665c-.303897.5-.9454572.7-1.5194848.7-1.3844195 0-2.161045-1-2.161045-2.2v-3.56666665h1.7558491v3.2c0 .53333335.3038969.96666665.9116908.96666665.5740276 0 .9454572-.4.9454572-.96666665v-3.2h1.7558491v4.63333335c0 .5.0337663.9333333.0675327 1h-1.6883165c-.0337663-.1-.0675326-.4-.0675326-.5666667"/>
            <path d="m43.2209002 6.9c-.2701306.53333335-.8441582.9-1.553251.9-1.6883165 0-2.8363717-1.26666665-2.8363717-3 0-1.66666666 1.0805225-2.96666666 2.8026053-2.96666666 1.0129899 0 1.4857184.56666666 1.5870174.83333333v-.66666667h1.6883166v4.63333335c0 .5333333.0337662.9.0337662 1h-1.6883165c-.0337663-.13333335-.0337663-.43333335-.0337663-.6666667zm-1.3168868-.6c.7090929 0 1.3168868-.53333335 1.3168868-1.5 0-.96666667-.5740275-1.5-1.3168868-1.5-.7428592 0-1.3168868.5-1.3168868 1.5 0 .93333335.6077939 1.5 1.3168868 1.5z" fill-rule="nonzero"/>
            <path d="m50.8520906 1.9c.6415599 0 1.1480552.5 1.1480552 1.13333334 0 .63333333-.5064953 1.1-1.1480552 1.1-.6415602 0-1.1142889-.5-1.1142889-1.1 0-.66666667.4727287-1.13333334 1.1142889-1.13333334zm-1.7558494 5.73333335h-1.7558491v-5.66666669h1.7558491z" fill-rule="nonzero"/>
            <path d="m35.083215.266667h1.755849v7.4h-1.755849z"/>
            <path d="m24.9195503.26666667h-1.7220828v2.16666666c-.1350653-.2-.5740276-.56666667-1.5532511-.56666667-1.6207837 0-2.7688389 1.26666667-2.7688389 2.93333334 0 1.73333335 1.2155878 2.96666665 2.8363716 2.96666665.6753266 0 1.2831204-.3 1.5194848-.66666665 0 .23333335.0337663.46666665.0337663.53333335h1.6883164c0-.13333335-.0337663-.5-.0337663-1zm-3.0052032 5.96666668c-.6753266 0-1.2831205-.4666667-1.2831205-1.40000001 0-.93333334.6077939-1.4 1.2831205-1.4.6753265 0 1.2831204.46666666 1.2831204 1.4 0 .90000001-.6077939 1.40000001-1.2831204 1.40000001z" fill-rule="nonzero"/>
        </g>
        <g>
            <path d="m14.0349329 1.05652174-1.7385268-.97826087-1.7385268.97826087-.0132712 9.88695656 1.751798.9913043 1.7385268-.9782608z"/>
            <path d="m3.59050092 6-1.751798-.9782609-1.73852679.9782609v4.9434783l1.75179799.9913043 1.7385268-.9913043z"/>
            <path d="m7.0675545 6.99130435 2.60115457-1.47391305v-1.98260869l-1.73852676-.97826087-.86262781.50869565-3.49032478-1.99565217-1.7385268-.99130435-1.73852679.99130435v1.96956521z"/>
        </g>
    </g>
</svg>
