<?xml version="1.0" encoding="UTF-8" standalone="no"?>
<svg width="7px" height="109px" viewBox="0 0 7 109" version="1.1" xmlns="http://www.w3.org/2000/svg" xmlns:xlink="http://www.w3.org/1999/xlink">
    <!-- Generator: sketchtool 39.1 (31720) - http://www.bohemiancoding.com/sketch -->
    <title>16CB4618-0BD3-4568-BB20-FC56EBC46046</title>
    <desc>Created with sketchtool.</desc>
    <defs></defs>
    <g id="Screens-revised" stroke="none" stroke-width="1" fill="none" fill-rule="evenodd" opacity="0.2">
        <g id="Left-Panel-mention-states" transform="translate(-224.000000, -134.000000)" stroke="#000000">
            <g id="notification-shortcuts" transform="translate(206.000000, 119.000000)">
                <g id="slider" transform="translate(16.000000, 16.000000)">
                    <g id="notif_slider" transform="translate(3.000000, 0.000000)">
                        <path d="M2.5,3.49505001 L2.5,104.507355" id="Line" stroke-linecap="square"></path>
                        <circle id="Oval-187" fill="#F7F7F7" cx="2.5" cy="36.5" r="2.5"></circle>
                        <path d="M2.5,73 C3.88071187,73 5,71.8807119 5,70.5 C5,69.1192881 3.88071187,68 2.5,68 C1.11928813,68 0,69.1192881 0,70.5 C0,71.8807119 1.11928813,73 2.5,73 Z" id="Oval-187-Copy" fill="#F7F7F7"></path>
                        <path d="M2.5,5 C3.88071187,5 5,3.88071187 5,2.5 C5,1.11928813 3.88071187,0 2.5,0 C1.11928813,0 0,1.11928813 0,2.5 C0,3.88071187 1.11928813,5 2.5,5 Z" id="Oval-187-Copy-3" fill="#F7F7F7"></path>
                        <circle id="Oval-187-Copy-2" fill="#F7F7F7" cx="2.5" cy="104.5" r="2.5"></circle>
                    </g>
                </g>
            </g>
        </g>
    </g>
</svg>
