<svg width="42" height="50" viewBox="0 0 42 50" fill="none" xmlns="http://www.w3.org/2000/svg">
<path fill-rule="evenodd" clip-rule="evenodd" d="M1.04021 42.174C1.04021 45.944 4.27657 49 8.26822 49C12.2603 49 15.4962 45.944 15.4962 42.174V35.2587L22.8119 35.2518C23.2234 35.2518 23.6386 35.2385 24.0415 35.2122C33.5209 34.6096 40.9465 27.1046 40.9465 18.1261C40.9465 8.68273 32.8114 1 22.8119 1H8.26822C4.27657 1 1.04021 4.05637 1.04021 7.82645V27.7141C1.01327 27.9548 0.999582 28.1987 1.00001 28.4459C1.00001 28.6887 1.01412 28.9286 1.04021 29.1645V42.174ZM15.4963 21.6066V14.6525H22.812C24.8405 14.6525 26.4901 16.2103 26.4901 18.1261C26.4901 19.9469 24.9881 21.4692 23.0665 21.5916C22.9822 21.5969 22.8975 21.5993 22.8047 21.5993L15.4963 21.6066Z" fill="#A2DDEF"/>
<path d="M15.4963 14.6525V14.0405H14.8844V14.6525H15.4963ZM15.4963 21.6066H14.8844V22.2191L15.4969 22.2185L15.4963 21.6066ZM22.8047 21.5993V20.9874H22.8041L22.8047 21.5993ZM23.0665 21.5916L23.1045 22.2024L23.1053 22.2023L23.0665 21.5916ZM1.04021 29.1645H1.65214V29.1308L1.64843 29.0972L1.04021 29.1645ZM1.00001 28.4459H1.61194L1.61193 28.4449L1.00001 28.4459ZM1.04021 27.7141L1.64834 27.7821L1.65214 27.7482V27.7141H1.04021ZM24.0415 35.2122L24.0027 34.6015L24.0017 34.6016L24.0415 35.2122ZM22.8119 35.2518V34.6399H22.8113L22.8119 35.2518ZM15.4962 35.2587L15.4957 34.6467L14.8843 34.6473V35.2587H15.4962ZM14.8844 14.6525V21.6066H16.1082V14.6525H14.8844ZM15.4969 22.2185L22.8053 22.2112L22.8041 20.9874L15.4957 20.9946L15.4969 22.2185ZM22.8047 22.2112C22.9085 22.2112 23.006 22.2085 23.1045 22.2024L23.0284 20.9809C22.9584 20.9852 22.8865 20.9874 22.8047 20.9874V22.2112ZM23.1053 22.2023C25.3203 22.0612 27.1021 20.2979 27.1021 18.1261H25.8782C25.8782 19.5959 24.6559 20.8772 23.0276 20.9809L23.1053 22.2023ZM27.1021 18.1261C27.1021 15.8399 25.145 14.0405 22.812 14.0405V15.2644C24.536 15.2644 25.8782 16.5808 25.8782 18.1261H27.1021ZM22.812 14.0405H15.4963V15.2644H22.812V14.0405ZM8.26822 48.3881C4.58104 48.3881 1.65214 45.5735 1.65214 42.174H0.428288C0.428288 46.3145 3.97209 49.6119 8.26822 49.6119V48.3881ZM1.65214 42.174V29.1645H0.428288V42.174H1.65214ZM1.64843 29.0972C1.62467 28.8824 1.61193 28.665 1.61193 28.4459H0.388085C0.388085 28.7124 0.403576 28.9748 0.431997 29.2318L1.64843 29.0972ZM1.61193 28.4449C1.61155 28.221 1.62394 28.0001 1.64834 27.7821L0.432085 27.646C0.402599 27.9094 0.387617 28.1765 0.388085 28.447L1.61193 28.4449ZM1.65214 27.7141V7.82645H0.428288V27.7141H1.65214ZM1.65214 7.82645C1.65214 4.42682 4.58109 1.61193 8.26822 1.61193V0.388075C3.97204 0.388075 0.428288 3.68592 0.428288 7.82645H1.65214ZM8.26822 1.61193H22.8119V0.388075H8.26822V1.61193ZM22.8119 1.61193C32.5069 1.61193 40.3346 9.05321 40.3346 18.1261H41.5584C41.5584 8.31226 33.1159 0.388075 22.8119 0.388075V1.61193ZM40.3346 18.1261C40.3346 26.7525 33.1898 34.0175 24.0027 34.6015L24.0804 35.8229C33.8521 35.2017 41.5584 27.4566 41.5584 18.1261H40.3346ZM24.0017 34.6016C23.6124 34.6269 23.2104 34.6399 22.8119 34.6399V35.8637C23.2363 35.8637 23.6649 35.85 24.0813 35.8228L24.0017 34.6016ZM22.8113 34.6399L15.4957 34.6467L15.4968 35.8706L22.8125 35.8637L22.8113 34.6399ZM14.8843 35.2587V42.174H16.1082V35.2587H14.8843ZM14.8843 42.174C14.8843 45.5736 11.9558 48.3881 8.26822 48.3881V49.6119C12.5648 49.6119 16.1082 46.3145 16.1082 42.174H14.8843Z" fill="#368BD6"/>
<path d="M8.26823 42.174V7.82642H22.8119C28.8351 7.82642 33.7181 12.4378 33.7181 18.1261C33.7181 23.5784 29.232 28.0412 23.5561 28.4019C23.3098 28.4176 23.0621 28.4257 22.8119 28.4257L8.22803 28.4395" stroke="#368BD6" stroke-width="1.22385" stroke-linecap="round"/>
<path fill-rule="evenodd" clip-rule="evenodd" d="M15.4227 9.0113C15.758 7.21673 15.3325 5.4048 14.2243 3.91155C11.9366 0.828522 7.41753 0.0768486 4.15037 2.23574C2.56747 3.28105 1.51106 4.84579 1.17575 6.64116C0.84001 8.43653 1.26557 10.2481 2.37372 11.7413C4.66146 14.8243 9.18092 15.576 12.4481 13.4171C14.0306 12.3714 15.087 10.8071 15.4227 9.0113ZM27.852 46.0868C29.2587 47.9824 31.4998 48.9962 33.7777 48.9962C35.21 48.9962 36.6569 48.5951 37.9195 47.7594C41.1883 45.5965 41.9817 41.3397 39.6905 38.2522L29.4751 24.4846C27.1843 21.3972 22.6769 20.6475 19.408 22.8121C16.1392 24.975 15.3458 29.2318 17.6365 32.3192L27.852 46.0868Z" fill="#368BD6"/>
</svg>
