<?xml version="1.0" encoding="UTF-8" standalone="no"?>
<svg width="26px" height="26px" viewBox="-1 -1 26 26" version="1.1" xmlns="http://www.w3.org/2000/svg" xmlns:xlink="http://www.w3.org/1999/xlink" xmlns:sketch="http://www.bohemiancoding.com/sketch/ns">
    <!-- Generator: sketchtool 3.4 (381) - http://www.bohemiancoding.com/sketch -->
    <title>icons_settings</title>
    <desc>Created with sketchtool.</desc>
    <defs></defs>
    <g id="01-Sign-up" stroke="none" stroke-width="1" fill="none" fill-rule="evenodd" sketch:type="MSPage">
        <g id="01_2-Sign-up-2" sketch:type="MSArtboardGroup" transform="translate(-14.000000, -720.000000)" fill="#454545" opacity="0.9">
            <g id="Left-panel" sketch:type="MSLayerGroup" transform="translate(-4.000000, 0.000000)">
                <g id="right_bottom" transform="translate(0.000000, 626.000000)" sketch:type="MSShapeGroup">
                    <g id="Group-Copy-29" transform="translate(18.000000, 27.000000)">
                        <path d="M16,79 C16,77.8958278 15.6093789,76.9531289 14.828125,76.171875 C14.0468711,75.3906211 13.1041722,75 12,75 C10.8958278,75 9.95312891,75.3906211 9.171875,76.171875 C8.39062109,76.9531289 8,77.8958278 8,79 C8,80.1041722 8.39062109,81.0468711 9.171875,81.828125 C9.95312891,82.6093789 10.8958278,83 12,83 C13.1041722,83 14.0468711,82.6093789 14.828125,81.828125 C15.6093789,81.0468711 16,80.1041722 16,79 L16,79 Z M24,77.296875 L24,80.765625 C24,80.8906256 23.9583338,81.0104161 23.875,81.125 C23.7916662,81.2395839 23.6875006,81.3072916 23.5625,81.328125 L20.671875,81.765625 C20.4739573,82.3281278 20.2708344,82.8020814 20.0625,83.1875 C20.4270852,83.7083359 20.9843712,84.4270787 21.734375,85.34375 C21.8385422,85.4687506 21.890625,85.5989577 21.890625,85.734375 C21.890625,85.8697923 21.8437505,85.9895828 21.75,86.09375 C21.4687486,86.4791686 20.9531288,87.041663 20.203125,87.78125 C19.4531212,88.520837 18.9635428,88.890625 18.734375,88.890625 C18.6093744,88.890625 18.4739591,88.8437505 18.328125,88.75 L16.171875,87.0625 C15.7135394,87.3020845 15.2395858,87.4999992 14.75,87.65625 C14.5833325,89.0729238 14.4322923,90.0416641 14.296875,90.5625 C14.223958,90.8541681 14.0364598,91 13.734375,91 L10.265625,91 C10.1197909,91 9.99218805,90.9557296 9.8828125,90.8671875 C9.77343695,90.7786454 9.71354172,90.6666673 9.703125,90.53125 L9.265625,87.65625 C8.75520578,87.4895825 8.28646047,87.2968761 7.859375,87.078125 L5.65625,88.75 C5.55208281,88.8437505 5.42187578,88.890625 5.265625,88.890625 C5.11979094,88.890625 4.98958391,88.8333339 4.875,88.71875 C3.56249344,87.5312441 2.70312703,86.6562528 2.296875,86.09375 C2.22395797,85.9895828 2.1875,85.8697923 2.1875,85.734375 C2.1875,85.6093744 2.22916625,85.4895839 2.3125,85.375 C2.46875078,85.1562489 2.73437313,84.8098982 3.109375,84.3359375 C3.48437688,83.8619768 3.76562406,83.494793 3.953125,83.234375 C3.67187359,82.7135391 3.45833406,82.1979192 3.3125,81.6875 L0.453125,81.265625 C0.317707656,81.2447916 0.20833375,81.179688 0.125,81.0703125 C0.04166625,80.960937 0,80.8385423 0,80.703125 L0,77.234375 C0,77.1093744 0.04166625,76.9895839 0.125,76.875 C0.20833375,76.7604161 0.307291094,76.6927084 0.421875,76.671875 L3.328125,76.234375 C3.47395906,75.7552059 3.67708203,75.2760441 3.9375,74.796875 C3.52083125,74.203122 2.96354516,73.4843792 2.265625,72.640625 C2.16145781,72.5156244 2.109375,72.3906256 2.109375,72.265625 C2.109375,72.1614578 2.15624953,72.0416673 2.25,71.90625 C2.52083469,71.5312481 3.03385039,70.9713579 3.7890625,70.2265625 C4.54427461,69.4817671 5.03645719,69.109375 5.265625,69.109375 C5.40104234,69.109375 5.53645766,69.1614578 5.671875,69.265625 L7.828125,70.9375 C8.28646063,70.6979155 8.76041422,70.5000008 9.25,70.34375 C9.4166675,68.9270762 9.56770766,67.9583359 9.703125,67.4375 C9.77604203,67.1458319 9.96354016,67 10.265625,67 L13.734375,67 C13.8802091,67 14.007812,67.0442704 14.1171875,67.1328125 C14.226563,67.2213546 14.2864583,67.3333327 14.296875,67.46875 L14.734375,70.34375 C15.2447942,70.5104175 15.7135395,70.7031239 16.140625,70.921875 L18.359375,69.25 C18.4531255,69.1562495 18.5781242,69.109375 18.734375,69.109375 C18.8697923,69.109375 18.9999994,69.1614578 19.125,69.265625 C20.4687567,70.5052145 21.3281231,71.3906223 21.703125,71.921875 C21.776042,72.0052088 21.8125,72.1197909 21.8125,72.265625 C21.8125,72.3906256 21.7708338,72.5104161 21.6875,72.625 C21.5312492,72.8437511 21.2656269,73.1901018 20.890625,73.6640625 C20.5156231,74.1380232 20.2343759,74.505207 20.046875,74.765625 C20.3177097,75.2864609 20.5312492,75.7968725 20.6875,76.296875 L23.546875,76.734375 C23.6822923,76.7552084 23.7916662,76.820312 23.875,76.9296875 C23.9583338,77.039063 24,77.1614577 24,77.296875 L24,77.296875 Z" id="icons_settings"></path>
                    </g>
                </g>
            </g>
        </g>
    </g>
</svg>