<?xml version="1.0" encoding="UTF-8" standalone="no"?>
<svg width="12px" height="12px" viewBox="0 0 12 12" version="1.1" xmlns="http://www.w3.org/2000/svg" xmlns:xlink="http://www.w3.org/1999/xlink" xmlns:sketch="http://www.bohemiancoding.com/sketch/ns">
    <!-- Generator: bin/sketchtool 1.4 (305) - http://www.bohemiancoding.com/sketch -->
    <title>icon_settings_small</title>
    <desc>Created with bin/sketchtool.</desc>
    <defs></defs>
    <g id="06a-Room-settings" stroke="none" stroke-width="1" fill="none" fill-rule="evenodd" sketch:type="MSPage">
        <g id="06a_1-Room-settings-hover" sketch:type="MSArtboardGroup" transform="translate(-452.000000, -27.000000)" fill="#76CFA6">
            <path d="M460,33 C460,32.4479139 459.804689,31.9765645 459.414062,31.5859375 C459.023436,31.1953105 458.552086,31 458,31 C457.447914,31 456.976564,31.1953105 456.585938,31.5859375 C456.195311,31.9765645 456,32.4479139 456,33 C456,33.5520861 456.195311,34.0234355 456.585938,34.4140625 C456.976564,34.8046895 457.447914,35 458,35 C458.552086,35 459.023436,34.8046895 459.414062,34.4140625 C459.804689,34.0234355 460,33.5520861 460,33 L460,33 Z M464,32.1484375 L464,33.8828125 C464,33.9453128 463.979167,34.005208 463.9375,34.0625 C463.895833,34.119792 463.84375,34.1536458 463.78125,34.1640625 L462.335938,34.3828125 C462.236979,34.6640639 462.135417,34.9010407 462.03125,35.09375 C462.213543,35.354168 462.492186,35.7135394 462.867188,36.171875 C462.919271,36.2343753 462.945312,36.2994788 462.945312,36.3671875 C462.945312,36.4348962 462.921875,36.4947914 462.875,36.546875 C462.734374,36.7395843 462.476564,37.0208315 462.101562,37.390625 C461.726561,37.7604185 461.481771,37.9453125 461.367188,37.9453125 C461.304687,37.9453125 461.23698,37.9218752 461.164062,37.875 L460.085938,37.03125 C459.85677,37.1510423 459.619793,37.2499996 459.375,37.328125 C459.291666,38.0364619 459.216146,38.520832 459.148438,38.78125 C459.111979,38.9270841 459.01823,39 458.867188,39 L457.132812,39 C457.059895,39 456.996094,38.9778648 456.941406,38.9335938 C456.886718,38.8893227 456.856771,38.8333337 456.851562,38.765625 L456.632812,37.328125 C456.377603,37.2447912 456.14323,37.148438 455.929688,37.0390625 L454.828125,37.875 C454.776041,37.9218752 454.710938,37.9453125 454.632812,37.9453125 C454.559895,37.9453125 454.494792,37.916667 454.4375,37.859375 C453.781247,37.265622 453.351564,36.8281264 453.148438,36.546875 C453.111979,36.4947914 453.09375,36.4348962 453.09375,36.3671875 C453.09375,36.3046872 453.114583,36.244792 453.15625,36.1875 C453.234375,36.0781245 453.367187,35.9049491 453.554688,35.6679688 C453.742188,35.4309884 453.882812,35.2473965 453.976562,35.1171875 C453.835937,34.8567695 453.729167,34.5989596 453.65625,34.34375 L452.226562,34.1328125 C452.158854,34.1223958 452.104167,34.089844 452.0625,34.0351562 C452.020833,33.9804685 452,33.9192712 452,33.8515625 L452,32.1171875 C452,32.0546872 452.020833,31.994792 452.0625,31.9375 C452.104167,31.880208 452.153646,31.8463542 452.210938,31.8359375 L453.664062,31.6171875 C453.73698,31.377603 453.838541,31.138022 453.96875,30.8984375 C453.760416,30.601561 453.481773,30.2421896 453.132812,29.8203125 C453.080729,29.7578122 453.054688,29.6953128 453.054688,29.6328125 C453.054688,29.5807289 453.078125,29.5208337 453.125,29.453125 C453.260417,29.2656241 453.516925,28.9856789 453.894531,28.6132812 C454.272137,28.2408836 454.518229,28.0546875 454.632812,28.0546875 C454.700521,28.0546875 454.768229,28.0807289 454.835938,28.1328125 L455.914062,28.96875 C456.14323,28.8489577 456.380207,28.7500004 456.625,28.671875 C456.708334,27.9635381 456.783854,27.479168 456.851562,27.21875 C456.888021,27.0729159 456.98177,27 457.132812,27 L458.867188,27 C458.940105,27 459.003906,27.0221352 459.058594,27.0664062 C459.113282,27.1106773 459.143229,27.1666663 459.148438,27.234375 L459.367188,28.671875 C459.622397,28.7552088 459.85677,28.851562 460.070312,28.9609375 L461.179688,28.125 C461.226563,28.0781248 461.289062,28.0546875 461.367188,28.0546875 C461.434896,28.0546875 461.5,28.0807289 461.5625,28.1328125 C462.234378,28.7526073 462.664062,29.1953112 462.851562,29.4609375 C462.888021,29.5026044 462.90625,29.5598955 462.90625,29.6328125 C462.90625,29.6953128 462.885417,29.755208 462.84375,29.8125 C462.765625,29.9218755 462.632813,30.0950509 462.445312,30.3320312 C462.257812,30.5690116 462.117188,30.7526035 462.023438,30.8828125 C462.158855,31.1432305 462.265625,31.3984362 462.34375,31.6484375 L463.773438,31.8671875 C463.841146,31.8776042 463.895833,31.910156 463.9375,31.9648438 C463.979167,32.0195315 464,32.0807288 464,32.1484375 L464,32.1484375 Z" id="icon_settings_small" sketch:type="MSShapeGroup"></path>
        </g>
    </g>
</svg>