<?xml version="1.0" encoding="UTF-8" standalone="no"?>
<svg width="23px" height="20px" viewBox="-1 -1 23 20" version="1.1" xmlns="http://www.w3.org/2000/svg" xmlns:xlink="http://www.w3.org/1999/xlink" xmlns:sketch="http://www.bohemiancoding.com/sketch/ns">
    <!-- Generator: Sketch 3.4.3 (16618) - http://www.bohemiancoding.com/sketch -->
    <title>sound_indicator</title>
    <desc>Created with Sketch.</desc>
    <defs></defs>
    <g id="05-Voice-and-video" stroke="none" stroke-width="1" fill="none" fill-rule="evenodd" sketch:type="MSPage">
        <g id="05_2-Video-call" sketch:type="MSArtboardGroup" transform="translate(-247.000000, -668.000000)" fill="#FFFFFF">
            <g id="sound_indicator" sketch:type="MSLayerGroup" transform="translate(247.000000, 668.000000)">
                <path d="M5.769,6.7284 L7.8,4.6968 L7.8,13.0626 L5.4174,10.68 L1.2,10.68 L1.2,7.08 L5.4174,7.08 L5.769,6.7284 L5.769,6.7284 Z M0,5.88 L0,11.88 L4.9206,11.88 L9,15.9594 L9,1.8 L4.9206,5.88 L0,5.88 L0,5.88 Z" id="Fill-28" sketch:type="MSShapeGroup"></path>
                <path d="M17.1672,0 L16.2,0.72 C17.9172,3.021 18.9354,5.8728 18.9354,8.9586 C18.9354,12.0438 17.9172,14.8956 16.2,17.196 L17.1672,17.9166 C19.0314,15.417 20.1354,12.3168 20.1354,8.9586 C20.1354,5.6004 19.0314,2.4996 17.1672,0" id="Fill-29" sketch:type="MSShapeGroup"></path>
                <path d="M14.1606,15.9948 C15.579,14.094 16.4304,11.7462 16.4304,9.1974 C16.4304,6.6486 15.579,4.3008 14.1606,2.4 L13.2,3.1152 C14.469,4.8156 15.2304,6.9168 15.2304,9.1974 C15.2304,11.478 14.4696,13.5786 13.2,15.2796 L14.1606,15.9948" id="Fill-30" sketch:type="MSShapeGroup"></path>
                <path d="M11.7606,13.5024 C12.732,12.2016 13.314,10.5954 13.314,8.8512 C13.314,7.107 12.732,5.5002 11.7606,4.2 L10.8,4.9152 C11.6214,6.0156 12.114,7.3752 12.114,8.8512 C12.114,10.3272 11.6214,11.6862 10.8,12.7866 L11.7606,13.5024" id="Fill-31" sketch:type="MSShapeGroup"></path>
            </g>
        </g>
    </g>
</svg>