<?xml version="1.0" encoding="UTF-8" standalone="no"?>
<svg width="16px" height="26px" viewBox="0 0 16 26" version="1.1" xmlns="http://www.w3.org/2000/svg" xmlns:xlink="http://www.w3.org/1999/xlink" xmlns:sketch="http://www.bohemiancoding.com/sketch/ns">
    <!-- Generator: Sketch 3.4.2 (15857) - http://www.bohemiancoding.com/sketch -->
    <title>icon_voice</title>
    <desc>Created with Sketch.</desc>
    <defs></defs>
    <g id="Page-1" stroke="none" stroke-width="1" fill="none" fill-rule="evenodd" sketch:type="MSPage">
        <g id="icon_voice" sketch:type="MSLayerGroup" fill="#76CFA6">
            <path d="M15.690213,10.5130204 C15.690213,9.68172789 15.0096307,9.00560998 14.1739648,9.00560998 C13.3355096,9.00560998 12.6543693,9.68172789 12.6543693,10.5130204 L12.6554851,13.5200825 C12.6510222,13.5599846 11.9274851,17.4980943 7.84566437,17.4980943 C3.7599387,17.4980943 3.03472797,13.5815982 3.03361226,13.5500091 L3.03361226,10.5130204 C3.03361226,9.68172789 2.35302989,9.00560998 1.51680613,9.00560998 C0.680024521,9.00560998 0,9.68172789 0,10.5130204 L0,13.5500091 C0,15.5922177 1.86211801,19.602927 6.32830038,20.3771374 L6.32830038,22.9513732 L2.35358774,22.9513732 C1.51680613,22.9513732 0.836781609,23.6280454 0.836781609,24.4593379 C0.836781609,25.2900762 1.51680613,25.9661941 2.35358774,25.9661941 L13.3371831,25.9661941 C14.1717333,25.9661941 14.8506421,25.2900762 14.8506421,24.4593379 C14.8506421,23.6280454 14.1717333,22.9513732 13.3371831,22.9513732 L9.36079693,22.9513732 L9.36079693,20.3771374 C13.828095,19.602927 15.690213,15.5922177 15.690213,13.5500091 L15.690213,10.5130204 Z M13.3371831,23.7826658 C13.7098299,23.7826658 14.0138605,24.0863646 14.0138605,24.4593379 C14.0138605,24.8317569 13.7098299,25.1349016 13.3371831,25.1349016 L2.35358774,25.1349016 C1.97870958,25.1349016 1.67356322,24.8317569 1.67356322,24.4593379 C1.67356322,24.0863646 1.97870958,23.7826658 2.35358774,23.7826658 L6.74613333,23.7826658 C6.97764291,23.7826658 7.16508199,23.5970104 7.16508199,23.3670195 L7.16508199,20.0196816 C7.16508199,19.8113043 7.00888276,19.6350703 6.80024521,19.6079147 C2.63809349,19.0681288 0.836781609,15.334517 0.836781609,13.5500091 L0.836781609,10.5130204 C0.836781609,10.1400472 1.14192797,9.83690249 1.51680613,9.83690249 C1.89168429,9.83690249 2.19683065,10.1400472 2.19683065,10.5130204 L2.19683065,13.555551 C2.20519847,14.1812372 3.30696092,18.3293868 7.84566437,18.3293868 C12.2990161,18.3293868 13.491151,14.1175048 13.491151,13.5500091 L13.491151,10.5130204 C13.491151,10.1400472 13.797413,9.83690249 14.1739648,9.83690249 C14.5488429,9.83690249 14.8539893,10.1400472 14.8539893,10.5130204 L14.8539893,13.5500091 C14.8539893,15.334517 13.0532352,19.0681288 8.88940996,19.6079147 C8.68077241,19.6350703 8.52401533,19.8113043 8.52401533,20.0196816 L8.52401533,23.3670195 C8.52401533,23.5970104 8.71201226,23.7826658 8.94296398,23.7826658 L13.3371831,23.7826658 Z" id="Fill-200" sketch:type="MSShapeGroup"></path>
            <path d="M3.04309579,10.1578404 L3.04309579,8.37998277 L3.04309579,7.54869025 L3.04309579,6.79997279 L3.04309579,5.96868027 L3.04309579,5.63727166 C3.04309579,5.49650612 3.05257931,5.35795737 3.06429425,5.21996281 L3.21324138,4.38867029 C3.76384368,2.3436907 5.62875096,0.831292517 7.84510651,0.831292517 C10.0609042,0.831292517 11.9263693,2.3436907 12.4775295,4.38867029 L12.6259188,5.21996281 C12.6376337,5.35795737 12.6476751,5.49650612 12.6476751,5.63727166 L12.6476751,5.96868027 L12.6476751,6.79997279 L12.6476751,7.54869025 L12.6476751,8.37998277 L12.6476751,10.1578404 C12.6476751,10.3872771 12.8351142,10.5734866 13.0660659,10.5734866 C13.2970176,10.5734866 13.4844567,10.3872771 13.4844567,10.1578404 L13.4844567,5.63727166 C13.4844567,2.52934603 10.954587,0 7.84510651,0 C4.7350682,0 2.20631418,2.52934603 2.20631418,5.63727166 L2.20631418,10.1578404 C2.20631418,10.3872771 2.39375326,10.5734866 2.62470498,10.5734866 C2.8556567,10.5734866 3.04309579,10.3872771 3.04309579,10.1578404 Z" id="Path" sketch:type="MSShapeGroup"></path>
        </g>
    </g>
</svg>