<svg width="16" height="16" viewBox="0 0 16 16" fill="none" xmlns="http://www.w3.org/2000/svg">
<path fill-rule="evenodd" clip-rule="evenodd" d="M0 4.81815C0 3.76379 0.89543 2.90906 2 2.90906H9.33333C10.4379 2.90906 11.3333 3.76379 11.3333 4.81815V11.1818C11.3333 12.2361 10.4379 13.0909 9.33333 13.0909H2C0.895429 13.0909 0 12.2361 0 11.1818V4.81815ZM12.6667 6.09089L14.9169 4.37255C15.3534 4.03921 16 4.33587 16 4.86947V11.1305C16 11.6641 15.3534 11.9607 14.9169 11.6274L12.6667 9.90907V6.09089ZM7.82332 5.81539C7.96503 5.95709 7.96503 6.18685 7.82332 6.32855L6.17983 7.97204L7.89372 9.68593C8.03543 9.82763 8.03543 10.0574 7.89372 10.1991C7.75201 10.3408 7.52226 10.3408 7.38055 10.1991L5.66667 8.48521L3.95278 10.1991C3.81107 10.3408 3.58132 10.3408 3.43961 10.1991C3.29791 10.0574 3.29791 9.82763 3.43961 9.68593L5.1535 7.97204L3.51001 6.32855C3.36831 6.18685 3.36831 5.95709 3.51001 5.81539C3.65172 5.67368 3.88147 5.67368 4.02318 5.81539L5.66667 7.45887L7.31015 5.81539C7.45186 5.67368 7.68161 5.67368 7.82332 5.81539Z" fill="#737D8C"/>
</svg>
