<svg width="16" height="16" viewBox="0 0 16 16" fill="none" xmlns="http://www.w3.org/2000/svg">
<path d="M5.35116 10.6409C6.11185 11.4622 7.94306 12.8843 8.44217 13.1761C8.47169 13.1934 8.50549 13.2135 8.54328 13.2359C9.30489 13.6887 11.6913 15.1074 13.4301 13.7797C14.7772 12.7511 14.3392 11.594 13.8858 11.2501C13.5754 11.0086 12.6608 10.3431 11.8003 9.74356C10.9553 9.15489 10.4844 9.62653 10.1659 9.94543C10.1601 9.95129 10.1543 9.9571 10.1485 9.96285L9.50791 10.6035C9.34477 10.7666 9.0966 10.7071 8.8589 10.5204C8.00599 9.87084 7.37856 9.24399 7.06465 8.93008L7.06201 8.92744C6.74815 8.61357 6.12909 7.99392 5.47955 7.14101C5.29283 6.90331 5.23329 6.65515 5.39643 6.49201L6.03708 5.85136C6.04283 5.84561 6.04864 5.83981 6.0545 5.83396C6.3734 5.51555 6.84504 5.04464 6.25636 4.19966C5.65687 3.33915 4.9913 2.42455 4.74984 2.11412C4.40588 1.66071 3.2488 1.22269 2.22021 2.5698C0.89255 4.30858 2.31122 6.69502 2.76397 7.45663C2.78644 7.49443 2.80653 7.52822 2.82379 7.55774C3.11562 8.05685 4.52989 9.88025 5.35116 10.6409Z" fill="#737D8C"/>
<path d="M13.7979 2.05203C13.9599 1.8876 13.9599 1.62101 13.7979 1.45658C13.636 1.29214 13.3734 1.29214 13.2114 1.45658L11.3332 3.36362L9.4549 1.45658C9.29295 1.29214 9.03037 1.29214 8.86842 1.45658C8.70647 1.62101 8.70647 1.8876 8.86842 2.05203L10.7467 3.95907L8.78797 5.9478C8.62602 6.11223 8.62602 6.37883 8.78797 6.54326C8.94992 6.70769 9.21249 6.70769 9.37444 6.54326L11.3332 4.55453L13.2919 6.54326C13.4538 6.70769 13.7164 6.70769 13.8784 6.54326C14.0403 6.37883 14.0403 6.11223 13.8784 5.9478L11.9196 3.95907L13.7979 2.05203Z" fill="#737D8C"/>
</svg>
