<svg width="48" height="48" viewBox="0 0 48 48" fill="none" xmlns="http://www.w3.org/2000/svg">
<g filter="url(#filter0_d)">
<circle cx="24" cy="20" r="20" fill="white"/>
</g>
<path d="M24 25.8335C23.0833 25.8335 22.3333 26.5835 22.3333 27.5002C22.3333 28.4168 23.0833 29.1668 24 29.1668C24.9167 29.1668 25.6667 28.4168 25.6667 27.5002C25.6667 26.5835 24.9167 25.8335 24 25.8335ZM19 10.8335C18.0833 10.8335 17.3333 11.5835 17.3333 12.5002C17.3333 13.4168 18.0833 14.1668 19 14.1668C19.9167 14.1668 20.6667 13.4168 20.6667 12.5002C20.6667 11.5835 19.9167 10.8335 19 10.8335ZM19 15.8335C18.0833 15.8335 17.3333 16.5835 17.3333 17.5002C17.3333 18.4168 18.0833 19.1668 19 19.1668C19.9167 19.1668 20.6667 18.4168 20.6667 17.5002C20.6667 16.5835 19.9167 15.8335 19 15.8335ZM19 20.8335C18.0833 20.8335 17.3333 21.5835 17.3333 22.5002C17.3333 23.4168 18.0833 24.1668 19 24.1668C19.9167 24.1668 20.6667 23.4168 20.6667 22.5002C20.6667 21.5835 19.9167 20.8335 19 20.8335ZM29 14.1668C29.9167 14.1668 30.6667 13.4168 30.6667 12.5002C30.6667 11.5835 29.9167 10.8335 29 10.8335C28.0833 10.8335 27.3333 11.5835 27.3333 12.5002C27.3333 13.4168 28.0833 14.1668 29 14.1668ZM24 20.8335C23.0833 20.8335 22.3333 21.5835 22.3333 22.5002C22.3333 23.4168 23.0833 24.1668 24 24.1668C24.9167 24.1668 25.6667 23.4168 25.6667 22.5002C25.6667 21.5835 24.9167 20.8335 24 20.8335ZM29 20.8335C28.0833 20.8335 27.3333 21.5835 27.3333 22.5002C27.3333 23.4168 28.0833 24.1668 29 24.1668C29.9167 24.1668 30.6667 23.4168 30.6667 22.5002C30.6667 21.5835 29.9167 20.8335 29 20.8335ZM29 15.8335C28.0833 15.8335 27.3333 16.5835 27.3333 17.5002C27.3333 18.4168 28.0833 19.1668 29 19.1668C29.9167 19.1668 30.6667 18.4168 30.6667 17.5002C30.6667 16.5835 29.9167 15.8335 29 15.8335ZM24 15.8335C23.0833 15.8335 22.3333 16.5835 22.3333 17.5002C22.3333 18.4168 23.0833 19.1668 24 19.1668C24.9167 19.1668 25.6667 18.4168 25.6667 17.5002C25.6667 16.5835 24.9167 15.8335 24 15.8335ZM24 10.8335C23.0833 10.8335 22.3333 11.5835 22.3333 12.5002C22.3333 13.4168 23.0833 14.1668 24 14.1668C24.9167 14.1668 25.6667 13.4168 25.6667 12.5002C25.6667 11.5835 24.9167 10.8335 24 10.8335Z" fill="#737D8C"/>
<defs>
<filter id="filter0_d" x="0" y="0" width="48" height="48" filterUnits="userSpaceOnUse" color-interpolation-filters="sRGB">
<feFlood flood-opacity="0" result="BackgroundImageFix"/>
<feColorMatrix in="SourceAlpha" type="matrix" values="0 0 0 0 0 0 0 0 0 0 0 0 0 0 0 0 0 0 127 0"/>
<feOffset dy="4"/>
<feGaussianBlur stdDeviation="2"/>
<feColorMatrix type="matrix" values="0 0 0 0 0 0 0 0 0 0 0 0 0 0 0 0 0 0 0.15 0"/>
<feBlend mode="normal" in2="BackgroundImageFix" result="effect1_dropShadow"/>
<feBlend mode="normal" in="SourceGraphic" in2="effect1_dropShadow" result="shape"/>
</filter>
</defs>
</svg>
