<svg width="20" height="21" viewBox="0 0 20 21" fill="none" xmlns="http://www.w3.org/2000/svg">
    <path fill-rule="evenodd" clip-rule="evenodd" d="M6.09999 4.15C6.09999 1.99609 7.84608 0.25 9.99999 0.25C12.1539 0.25 13.9 1.99609 13.9 4.15V9.98254C13.9 12.1365 12.1539 13.8825 9.99999 13.8825C7.84608 13.8825 6.09999 12.1365 6.09999 9.98254V4.15ZM3.1748 8.73755C3.86516 8.73755 4.4248 9.29719 4.4248 9.98755C4.4248 13.0574 6.91483 15.5493 9.9915 15.5538C9.99433 15.5538 9.99717 15.5538 10 15.5538C10.0028 15.5538 10.0056 15.5538 10.0084 15.5538C13.085 15.5492 15.5748 13.0573 15.5748 9.98755C15.5748 9.29719 16.1344 8.73755 16.8248 8.73755C17.5152 8.73755 18.0748 9.29719 18.0748 9.98755C18.0748 14.0189 15.115 17.3576 11.25 17.9577V18.7513C11.25 19.4416 10.6904 20.0013 10 20.0013C9.30964 20.0013 8.75 19.4416 8.75 18.7513V17.9578C4.88483 17.3578 1.9248 14.0191 1.9248 9.98755C1.9248 9.29719 2.48445 8.73755 3.1748 8.73755Z" fill="#C1C6CD"/>
</svg>
