<svg width="14" height="14" viewBox="0 0 14 14" fill="none" xmlns="http://www.w3.org/2000/svg">
<path d="M4.4645 3.29384C4.4645 1.95795 5.59973 0.875 7.0001 0.875C8.40048 0.875 9.53571 1.95795 9.53571 3.29384V6.91127C9.53571 8.24716 8.40048 9.33011 7.0001 9.33011C5.59973 9.33011 4.4645 8.24716 4.4645 6.91127V3.29384Z" fill="white"/>
<path d="M2.56269 6.1391C3.01153 6.1391 3.37539 6.4862 3.37539 6.91437C3.37539 8.81701 4.99198 10.3617 6.99032 10.3666C6.99359 10.3666 6.99686 10.3666 7.00014 10.3666C7.0034 10.3666 7.00665 10.3666 7.0099 10.3666C9.00814 10.3616 10.6246 8.81694 10.6246 6.91437C10.6246 6.4862 10.9885 6.1391 11.4373 6.1391C11.8861 6.1391 12.25 6.4862 12.25 6.91437C12.25 9.41469 10.3257 11.4854 7.81283 11.8576V12.3497C7.81283 12.7779 7.44898 13.125 7.00014 13.125C6.5513 13.125 6.18744 12.7779 6.18744 12.3497V11.8576C3.67448 11.4855 1.75 9.41478 1.75 6.91437C1.75 6.4862 2.11386 6.1391 2.56269 6.1391Z" fill="white"/>
</svg>
