<svg width="14" height="14" viewBox="0 0 14 14" fill="none" xmlns="http://www.w3.org/2000/svg">
<path d="M1.9206 1.0544C1.68141 0.815201 1.29359 0.815201 1.0544 1.0544C0.815201 1.29359 0.815201 1.68141 1.0544 1.9206L4.55 5.41621V7C4.55 8.3531 5.6469 9.45 7 9.45C7.45436 9.45 7.87983 9.32632 8.24458 9.11079L9.12938 9.99558C8.52863 10.4234 7.7937 10.675 7 10.675C4.97035 10.675 3.325 9.02965 3.325 7C3.325 6.66173 3.05077 6.3875 2.7125 6.3875C2.37423 6.3875 2.1 6.66173 2.1 7C2.1 9.49877 3.97038 11.5607 6.3875 11.8621V12.5125C6.3875 12.8508 6.66173 13.125 7 13.125C7.33827 13.125 7.6125 12.8508 7.6125 12.5125V11.8621C8.50718 11.7505 9.32696 11.3978 10.0047 10.8709L12.0794 12.9456C12.3186 13.1848 12.7064 13.1848 12.9456 12.9456C13.1848 12.7064 13.1848 12.3186 12.9456 12.0794L1.9206 1.0544Z" fill="white"/>
<path d="M10.5474 7.96338L11.5073 8.92525C11.7601 8.33424 11.9 7.68346 11.9 7C11.9 6.66173 11.6258 6.3875 11.2875 6.3875C10.9492 6.3875 10.675 6.66173 10.675 7C10.675 7.33336 10.6306 7.65634 10.5474 7.96338Z" fill="white"/>
<path d="M4.81385 2.21784L9.45 6.86366V3.325C9.45 1.9719 8.3531 0.875 7 0.875C6.04532 0.875 5.21818 1.42104 4.81385 2.21784Z" fill="white"/>
</svg>
