<svg width="16" height="16" viewBox="0 0 16 16" fill="none" xmlns="http://www.w3.org/2000/svg">
<path fill-rule="evenodd" clip-rule="evenodd" d="M0 4.81815C0 3.76379 0.89543 2.90906 2 2.90906H9.33333C10.4379 2.90906 11.3333 3.76379 11.3333 4.81815V11.1818C11.3333 12.2361 10.4379 13.0909 9.33333 13.0909H2C0.895429 13.0909 0 12.2361 0 11.1818V4.81815ZM12.6667 6.09089L14.9169 4.37255C15.3534 4.03921 16 4.33587 16 4.86947V11.1305C16 11.6641 15.3534 11.9607 14.9169 11.6274L12.6667 9.90907V6.09089ZM3.68584 8.54792C3.68584 8.82819 3.45653 9.05751 3.17625 9.05751C2.89598 9.05751 2.66667 8.82819 2.66667 8.54792V6.50957C2.66667 6.22929 2.89598 5.99998 3.17625 5.99998H5.2146C5.49488 5.99998 5.72419 6.22929 5.72419 6.50957C5.72419 6.78984 5.49488 7.01916 5.2146 7.01916H4.39926L6.2083 8.82819L8.73076 6.30573C8.9295 6.10699 9.25054 6.10699 9.44928 6.30573C9.64802 6.50447 9.64802 6.82551 9.44928 7.02425L6.56501 9.90852C6.36627 10.1073 6.04523 10.1073 5.84649 9.90852L3.68584 7.74787V8.54792Z" fill="#8D97A5"/>
</svg>
