<svg width="50" height="49" viewBox="0 0 50 49" fill="none" xmlns="http://www.w3.org/2000/svg">
<g filter="url(#filter0_d)">
<circle cx="25" cy="20" r="20" fill="white"/>
</g>
<rect x="14.6008" y="12.8" width="20.8" height="14.4" rx="1.6" fill="white" stroke="#737D8C" stroke-width="1.6"/>
<path fill-rule="evenodd" clip-rule="evenodd" d="M24.3617 23.36C24.3617 23.7135 24.6483 24 25.0017 24C25.3552 24 25.6417 23.7135 25.6417 23.36L25.6417 18.1851L27.6692 20.2125C27.9191 20.4625 28.3243 20.4625 28.5743 20.2125C28.8242 19.9626 28.8242 19.5574 28.5743 19.3075L25.4543 16.1875C25.2043 15.9375 24.7991 15.9375 24.5492 16.1875L21.4292 19.3075C21.1792 19.5574 21.1792 19.9626 21.4292 20.2125C21.6791 20.4625 22.0843 20.4625 22.3343 20.2125L24.3617 18.1851L24.3617 23.36Z" fill="#737D8C"/>
<defs>
<filter id="filter0_d" x="0.947663" y="0" width="48.1047" height="48.1047" filterUnits="userSpaceOnUse" color-interpolation-filters="sRGB">
<feFlood flood-opacity="0" result="BackgroundImageFix"/>
<feColorMatrix in="SourceAlpha" type="matrix" values="0 0 0 0 0 0 0 0 0 0 0 0 0 0 0 0 0 0 127 0"/>
<feOffset dy="4.05234"/>
<feGaussianBlur stdDeviation="2.02617"/>
<feColorMatrix type="matrix" values="0 0 0 0 0 0 0 0 0 0 0 0 0 0 0 0 0 0 0.15 0"/>
<feBlend mode="normal" in2="BackgroundImageFix" result="effect1_dropShadow"/>
<feBlend mode="normal" in="SourceGraphic" in2="effect1_dropShadow" result="shape"/>
</filter>
</defs>
</svg>
