<svg width="48" height="47" viewBox="0 0 48 47" fill="none" xmlns="http://www.w3.org/2000/svg">
<g filter="url(#filter0_d)">
<circle cx="24" cy="20" r="20" fill="#737D8C"/>
</g>
<rect x="12.5618" y="12.8992" width="20.3525" height="14.4496" rx="2.43819" fill="white" stroke="#737D8C" stroke-width="1.12362"/>
<path fill-rule="evenodd" clip-rule="evenodd" d="M31.9132 20.5009C33.2675 20.5009 34.3655 19.4205 34.3655 18.0876C34.3655 16.7548 33.2675 15.6743 31.9132 15.6743C30.5589 15.6743 29.4609 16.7548 29.4609 18.0876C29.4609 19.4205 30.5589 20.5009 31.9132 20.5009ZM27.8242 26.132C27.8282 23.7187 28.976 21.3054 31.9113 21.3054C34.7818 21.3054 35.9984 23.7187 35.9984 26.132C35.9984 28.5453 32.7288 28.5453 31.9113 28.5453C31.0939 28.5453 27.8206 28.3403 27.8242 26.132Z" fill="white"/>
<path d="M27.8242 26.132L28.386 26.1329L27.8242 26.132ZM35.9984 26.132H35.4366H35.9984ZM33.8037 18.0876C33.8037 19.1017 32.9658 19.9391 31.9132 19.9391V21.0627C33.5693 21.0627 34.9273 19.7392 34.9273 18.0876H33.8037ZM31.9132 16.2361C32.9658 16.2361 33.8037 17.0735 33.8037 18.0876H34.9273C34.9273 16.4361 33.5693 15.1125 31.9132 15.1125V16.2361ZM30.0227 18.0876C30.0227 17.0735 30.8606 16.2361 31.9132 16.2361V15.1125C30.2571 15.1125 28.8991 16.4361 28.8991 18.0876H30.0227ZM31.9132 19.9391C30.8606 19.9391 30.0227 19.1017 30.0227 18.0876H28.8991C28.8991 19.7392 30.2571 21.0627 31.9132 21.0627V19.9391ZM31.9113 20.7436C30.2659 20.7436 29.0747 21.4314 28.3132 22.4845C27.5693 23.5133 27.2645 24.8471 27.2624 26.1311L28.386 26.1329C28.3879 25.0036 28.659 23.924 29.2238 23.1429C29.771 22.386 30.6214 21.8672 31.9113 21.8672V20.7436ZM36.5602 26.132C36.5602 24.8414 36.2364 23.5081 35.4845 22.4817C34.7168 21.4338 33.5275 20.7436 31.9113 20.7436V21.8672C33.1657 21.8672 34.0199 22.3836 34.5781 23.1457C35.1521 23.9293 35.4366 25.0093 35.4366 26.132H36.5602ZM31.9113 29.1071C32.3157 29.1071 33.4213 29.1105 34.4365 28.7775C34.9481 28.6096 35.4778 28.3438 35.8839 27.9122C36.3025 27.4673 36.5602 26.8767 36.5602 26.132H35.4366C35.4366 26.594 35.2857 26.9083 35.0656 27.1422C34.8331 27.3893 34.4943 27.576 34.0863 27.7098C33.2623 27.9801 32.3244 27.9835 31.9113 27.9835V29.1071ZM27.2624 26.1311C27.26 27.5996 28.3757 28.3418 29.3716 28.6961C30.3797 29.0547 31.4763 29.1071 31.9113 29.1071V27.9835C31.5289 27.9835 30.5802 27.9334 29.7482 27.6375C28.9039 27.3371 28.3848 26.8728 28.386 26.1329L27.2624 26.1311Z" fill="#737D8C"/>
<rect x="0.0339116" y="-0.787426" width="29.1443" height="3.36793" rx="1.68396" transform="matrix(0.681883 0.731461 -0.742244 0.670129 13.0943 8.71545)" fill="white" stroke="#737D8C" stroke-width="1.12362"/>
<defs>
<filter id="filter0_d" x="0.589744" y="0" width="46.8205" height="46.8205" filterUnits="userSpaceOnUse" color-interpolation-filters="sRGB">
<feFlood flood-opacity="0" result="BackgroundImageFix"/>
<feColorMatrix in="SourceAlpha" type="matrix" values="0 0 0 0 0 0 0 0 0 0 0 0 0 0 0 0 0 0 127 0"/>
<feOffset dy="3.41026"/>
<feGaussianBlur stdDeviation="1.70513"/>
<feColorMatrix type="matrix" values="0 0 0 0 0 0 0 0 0 0 0 0 0 0 0 0 0 0 0.15 0"/>
<feBlend mode="normal" in2="BackgroundImageFix" result="effect1_dropShadow"/>
<feBlend mode="normal" in="SourceGraphic" in2="effect1_dropShadow" result="shape"/>
</filter>
</defs>
</svg>
