<svg width="48" height="47" viewBox="0 0 48 47" fill="none" xmlns="http://www.w3.org/2000/svg">
<g filter="url(#filter0_d)">
<circle cx="24" cy="20" r="20" fill="white"/>
</g>
<rect x="12.5" y="12.5" width="20.4763" height="15.3319" rx="2.5" fill="#737D8C" stroke="white"/>
<path fill-rule="evenodd" clip-rule="evenodd" d="M31.912 20.5618C33.2664 20.5618 34.3643 19.4287 34.3643 18.0309C34.3643 16.6331 33.2664 15.5 31.912 15.5C30.5577 15.5 29.4598 16.6331 29.4598 18.0309C29.4598 19.4287 30.5577 20.5618 31.912 20.5618ZM27.8242 26.467C27.8282 23.9361 28.976 21.4052 31.9113 21.4052C34.7818 21.4052 35.9985 23.9361 35.9985 26.467C35.9985 28.9978 32.7288 28.9978 31.9114 28.9978C31.0939 28.9978 27.8206 28.7829 27.8242 26.467Z" fill="#737D8C"/>
<path d="M27.8242 26.467L27.3242 26.4662L27.8242 26.467ZM35.9985 26.467H36.4985H35.9985ZM33.8643 18.0309C33.8643 19.1675 32.9755 20.0618 31.912 20.0618V21.0618C33.5573 21.0618 34.8643 19.6898 34.8643 18.0309H33.8643ZM31.912 16C32.9755 16 33.8643 16.8943 33.8643 18.0309H34.8643C34.8643 16.372 33.5573 15 31.912 15V16ZM29.9598 18.0309C29.9598 16.8943 30.8486 16 31.912 16V15C30.2668 15 28.9598 16.372 28.9598 18.0309H29.9598ZM31.912 20.0618C30.8486 20.0618 29.9598 19.1675 29.9598 18.0309H28.9598C28.9598 19.6898 30.2668 21.0618 31.912 21.0618V20.0618ZM31.9113 20.9052C30.2753 20.9052 29.1023 21.622 28.3569 22.7032C27.6274 23.7612 27.3263 25.1361 27.3242 26.4662L28.3242 26.4677C28.3261 25.2669 28.6009 24.1109 29.1802 23.2708C29.7434 22.4538 30.612 21.9052 31.9113 21.9052V20.9052ZM36.4985 26.467C36.4985 25.1313 36.1789 23.7567 35.4412 22.7007C34.6893 21.6242 33.5177 20.9052 31.9113 20.9052V21.9052C33.1755 21.9052 34.0475 22.4516 34.6214 23.2733C35.2097 24.1154 35.4985 25.2717 35.4985 26.467H36.4985ZM31.9114 29.4978C32.3162 29.4978 33.416 29.5011 34.4241 29.1543C34.9326 28.9794 35.4519 28.7044 35.847 28.264C36.2515 27.8131 36.4985 27.2184 36.4985 26.467H35.4985C35.4985 26.9809 35.3367 27.3354 35.1026 27.5962C34.8591 27.8677 34.5099 28.0673 34.0988 28.2087C33.2677 28.4946 32.3239 28.4978 31.9114 28.4978V29.4978ZM27.3242 26.4662C27.3219 27.9345 28.3854 28.6964 29.3851 29.0693C30.3864 29.4429 31.4779 29.4978 31.9114 29.4978V28.4978C31.5274 28.4978 30.5735 28.4453 29.7346 28.1324C28.8943 27.8189 28.3229 27.3153 28.3242 26.4677L27.3242 26.4662Z" fill="white"/>
<defs>
<filter id="filter0_d" x="0.589744" y="0" width="46.8205" height="46.8205" filterUnits="userSpaceOnUse" color-interpolation-filters="sRGB">
<feFlood flood-opacity="0" result="BackgroundImageFix"/>
<feColorMatrix in="SourceAlpha" type="matrix" values="0 0 0 0 0 0 0 0 0 0 0 0 0 0 0 0 0 0 127 0"/>
<feOffset dy="3.41026"/>
<feGaussianBlur stdDeviation="1.70513"/>
<feColorMatrix type="matrix" values="0 0 0 0 0 0 0 0 0 0 0 0 0 0 0 0 0 0 0.15 0"/>
<feBlend mode="normal" in2="BackgroundImageFix" result="effect1_dropShadow"/>
<feBlend mode="normal" in="SourceGraphic" in2="effect1_dropShadow" result="shape"/>
</filter>
</defs>
</svg>
