<svg width="48" height="48" viewBox="0 0 48 48" fill="none" xmlns="http://www.w3.org/2000/svg">
<g filter="url(#filter0_d)">
<circle cx="24" cy="20" r="20" fill="#61708B"/>
</g>
<path d="M14.8334 11.6666L29.8334 26.6666" stroke="white" stroke-width="2" stroke-miterlimit="10" stroke-linecap="round"/>
<path fill-rule="evenodd" clip-rule="evenodd" d="M17 13.3333H17.676L28.1667 23.8458V26.1791C28.1595 26.1713 28.1521 26.1636 28.1446 26.1561L15.662 13.6474C16.0648 13.4464 16.5192 13.3333 17 13.3333ZM14.4359 14.7751C14.1593 15.2292 14 15.7626 14 16.3332V23.6666C14 25.3234 15.3431 26.6666 17 26.6666H26.2994L14.4778 14.8203C14.4632 14.8056 14.4492 14.7906 14.4359 14.7751ZM28.1667 16.3333V21.4863L20.0306 13.3333H25.1667C26.8235 13.3333 28.1667 14.6764 28.1667 16.3333Z" fill="white"/>
<path d="M29.8334 17.5L32.3753 15.4664C33.0301 14.9426 34 15.4087 34 16.2473V23.7527C34 24.5912 33.0301 25.0573 32.3753 24.5335L29.8334 22.5V17.5Z" fill="white"/>
<defs>
<filter id="filter0_d" x="0" y="0" width="48" height="48" filterUnits="userSpaceOnUse" color-interpolation-filters="sRGB">
<feFlood flood-opacity="0" result="BackgroundImageFix"/>
<feColorMatrix in="SourceAlpha" type="matrix" values="0 0 0 0 0 0 0 0 0 0 0 0 0 0 0 0 0 0 127 0"/>
<feOffset dy="4"/>
<feGaussianBlur stdDeviation="2"/>
<feColorMatrix type="matrix" values="0 0 0 0 0 0 0 0 0 0 0 0 0 0 0 0 0 0 0.15 0"/>
<feBlend mode="normal" in2="BackgroundImageFix" result="effect1_dropShadow"/>
<feBlend mode="normal" in="SourceGraphic" in2="effect1_dropShadow" result="shape"/>
</filter>
</defs>
</svg>
