<svg width="24" height="24" viewBox="0 0 24 24" fill="none" xmlns="http://www.w3.org/2000/svg">
<path fill-rule="evenodd" clip-rule="evenodd" d="M12.5203 22.4387C18.4279 22.4387 23.217 17.6492 23.217 11.7411C23.217 5.83295 18.4279 1.04346 12.5203 1.04346C6.61261 1.04346 1.82353 5.83295 1.82353 11.7411C1.82353 13.3962 2.19936 14.9635 2.87032 16.3623L0.795333 23.1065C0.727424 23.3273 0.934782 23.5337 1.1552 23.4648L7.85572 21.3707C9.26544 22.055 10.848 22.4387 12.5203 22.4387ZM5.68079 11.6412C5.68079 11.3264 5.93601 11.0712 6.25083 11.0712C6.56566 11.0712 6.82088 11.3264 6.82088 11.6412V12.5533C6.82088 12.8681 6.56566 13.1233 6.25083 13.1233C5.93601 13.1233 5.68079 12.8681 5.68079 12.5533V11.6412ZM18.7919 11.0712C18.477 11.0712 18.2218 11.3264 18.2218 11.6412V12.5533C18.2218 12.8681 18.477 13.1233 18.7919 13.1233C19.1067 13.1233 19.3619 12.8681 19.3619 12.5533V11.6412C19.3619 11.3264 19.1067 11.0712 18.7919 11.0712ZM8.189 10.045C8.189 9.73017 8.44422 9.47495 8.75905 9.47495C9.07388 9.47495 9.3291 9.73017 9.3291 10.045V14.3774C9.3291 14.6922 9.07388 14.9474 8.75905 14.9474C8.44422 14.9474 8.189 14.6922 8.189 14.3774V10.045ZM16.2836 9.47495C15.9688 9.47495 15.7136 9.73017 15.7136 10.045V14.3774C15.7136 14.6922 15.9688 14.9474 16.2836 14.9474C16.5985 14.9474 16.8537 14.6922 16.8537 14.3774V10.045C16.8537 9.73017 16.5985 9.47495 16.2836 9.47495ZM10.6972 7.30882C10.6972 6.99399 10.9524 6.73877 11.2672 6.73877C11.582 6.73877 11.8373 6.99399 11.8373 7.30882V16.4296C11.8373 16.7444 11.582 16.9996 11.2672 16.9996C10.9524 16.9996 10.6972 16.7444 10.6972 16.4296V7.30882ZM13.7754 6.73877C13.4606 6.73877 13.2054 6.99399 13.2054 7.30882V16.4296C13.2054 16.7444 13.4606 16.9996 13.7754 16.9996C14.0903 16.9996 14.3455 16.7444 14.3455 16.4296V7.30882C14.3455 6.99399 14.0903 6.73877 13.7754 6.73877Z" fill="#737D8C"/>
</svg>
