<svg width="24" height="24" viewBox="0 0 24 24" fill="none" xmlns="http://www.w3.org/2000/svg">
<path d="M6 19H18C18.55 19 19 18.55 19 18V6C19 5.45 18.55 5 18 5H13C12.45 5 12 4.55 12 4C12 3.45 12.45 3 13 3H19C20.11 3 21 3.9 21 5V19C21 20.1 20.1 21 19 21H5C3.9 21 3 20.1 3 19V13C3 12.45 3.45 12 4 12C4.55 12 5 12.45 5 13V18C5 18.55 5.45 19 6 19ZM10 4C10 4.55 9.55 5 9 5H6.41L15.54 14.13C15.93 14.52 15.93 15.15 15.54 15.54C15.15 15.93 14.52 15.93 14.13 15.54L5 6.41V9C5 9.55 4.55 10 4 10C3.45 10 3 9.55 3 9V4C3 3.44772 3.44772 3 4 3H9C9.55 3 10 3.45 10 4Z" fill="#737D8C"/>
</svg>
