<svg width="24" height="24" viewBox="0 0 24 24" fill="none" xmlns="http://www.w3.org/2000/svg">
<path fill-rule="evenodd" clip-rule="evenodd" d="M6.28571 3.66667C6.28571 2.74619 7.03191 2 7.95238 2H11.7619C12.6824 2 13.4286 2.74619 13.4286 3.66667V7.47619C13.4286 8.39666 12.6824 9.14286 11.7619 9.14286H7.95238C7.03191 9.14286 6.28571 8.39667 6.28571 7.47619V3.66667ZM16.5238 2C15.6033 2 14.8571 2.74619 14.8571 3.66667V7.47619C14.8571 8.39667 15.6033 9.14286 16.5238 9.14286H20.3333C21.2538 9.14286 22 8.39666 22 7.47619V3.66667C22 2.74619 21.2538 2 20.3333 2H16.5238ZM16.5238 10.5714C15.6033 10.5714 14.8571 11.3176 14.8571 12.2381V16.0476C14.8571 16.9681 15.6033 17.7143 16.5238 17.7143H20.3333C21.2538 17.7143 22 16.9681 22 16.0476V12.2381C22 11.3176 21.2538 10.5714 20.3333 10.5714H16.5238ZM3.63265 10.5714C2.73096 10.5714 2 11.3024 2 12.2041V20.3673C2 21.269 2.73097 22 3.63266 22H11.7959C12.6976 22 13.4286 21.269 13.4286 20.3673V12.2041C13.4286 11.3024 12.6976 10.5714 11.7959 10.5714H3.63265Z" fill="white"/>
</svg>
