<svg width="24" height="24" viewBox="0 0 24 24" fill="none" xmlns="http://www.w3.org/2000/svg">
<path d="M12.0084 7.75648C10.3211 7.69163 6.85136 8.12949 6.00781 8.35133C5.95792 8.36445 5.90044 8.37912 5.83616 8.39552C4.54101 8.72607 0.48272 9.76183 0.0442423 13.0436C-0.295466 15.5862 1.40575 16.3558 2.25618 16.2386C2.84479 16.1648 4.5301 15.8983 6.08724 15.6189C7.61629 15.3446 7.61551 14.3359 7.61499 13.6538C7.61498 13.6413 7.61497 13.6288 7.61497 13.6165L7.61497 12.2453C7.61497 11.8961 7.94315 11.6942 8.3958 11.6396C9.99822 11.422 11.3359 11.4213 12.0055 11.4213L12.0112 11.4213C12.6807 11.4213 14.0018 11.422 15.6042 11.6396C16.0569 11.6942 16.385 11.8961 16.385 12.2453L16.385 13.6165C16.385 13.6289 16.385 13.6413 16.385 13.6538C16.3845 14.3359 16.3837 15.3446 17.9128 15.619C19.4699 15.8983 21.1552 16.1648 21.7438 16.2386C22.5942 16.3558 24.2955 15.5862 23.9558 13.0436C23.5173 9.76183 19.459 8.72608 18.1638 8.39553C18.0996 8.37913 18.0421 8.36446 17.9922 8.35134C17.1487 8.1295 13.6956 7.69163 12.0084 7.75648Z" fill="black"/>
</svg>
