<svg width="24" height="24" viewBox="0 0 24 24" fill="none" xmlns="http://www.w3.org/2000/svg">
<path d="M8.02698 15.9613C9.16801 17.1932 11.9148 19.3263 12.6635 19.7641C12.7078 19.79 12.7585 19.8201 12.8152 19.8538C13.9576 20.5329 17.5373 22.6609 20.1454 20.6694C22.1661 19.1266 21.5091 17.3909 20.8289 16.875C20.3633 16.5128 18.9914 15.5145 17.7006 14.6152C16.4331 13.7322 15.7268 14.4397 15.2492 14.918C15.2404 14.9268 15.2317 14.9355 15.2231 14.9442L14.2621 15.9051C14.0174 16.1498 13.6451 16.0605 13.2886 15.7804C12.0092 14.8061 11.0681 13.8659 10.5972 13.395L10.5933 13.391C10.1225 12.9202 9.19387 11.9908 8.21957 10.7114C7.93949 10.3548 7.85018 9.9826 8.09489 9.73789L9.05586 8.77693C9.06448 8.7683 9.0732 8.7596 9.08199 8.75082C9.56034 8.27321 10.2678 7.56684 9.38479 6.29937C8.48555 5.0086 7.4872 3.6367 7.125 3.17106C6.60907 2.49094 4.87345 1.83392 3.33056 3.85458C1.33907 6.46274 3.46708 10.0424 4.1462 11.1848C4.17991 11.2415 4.21005 11.2922 4.23593 11.3365C4.67367 12.0851 6.79507 14.8202 8.02698 15.9613Z" fill="currentColor"/>
<path d="M20.6971 3.07817C20.94 2.83153 20.94 2.43163 20.6971 2.18499C20.4542 1.93834 20.0603 1.93834 19.8174 2.18499L17 5.04555L14.1826 2.18499C13.9397 1.93834 13.5458 1.93834 13.3029 2.18499C13.06 2.43163 13.06 2.83153 13.3029 3.07817L16.1203 5.93873L13.1822 8.92183C12.9393 9.16847 12.9393 9.56837 13.1822 9.81501C13.4251 10.0617 13.819 10.0617 14.0619 9.81501L17 6.83192L19.9381 9.81501C20.181 10.0617 20.5749 10.0617 20.8178 9.81501C21.0607 9.56837 21.0607 9.16847 20.8178 8.92182L17.8797 5.93873L20.6971 3.07817Z" fill="currentColor"/>
</svg>
