<svg width="24" height="24" viewBox="0 0 24 24" fill="none" xmlns="http://www.w3.org/2000/svg">
<path d="M1 3L19 21" stroke="white" stroke-width="2" stroke-miterlimit="10" stroke-linecap="round"/>
<path fill-rule="evenodd" clip-rule="evenodd" d="M3 5H4.41122L17 17.615V20.415C16.9914 20.4057 16.9825 20.3965 16.9735 20.3874L1.98909 5.37176C1.93823 5.32079 1.88324 5.27646 1.82519 5.23876C2.18599 5.08505 2.58306 5 3 5ZM0.386676 6.52565C0.140502 6.96107 0 7.46413 0 8V18C0 19.6569 1.34315 21 3 21H14.7593L0.573407 6.78449C0.495634 6.70656 0.433392 6.619 0.386676 6.52565ZM17 8V14.7837L7.2367 5H14C15.6569 5 17 6.34315 17 8Z" fill="white"/>
<path d="M19 10L22.3753 7.29976C23.0301 6.77595 24 7.24212 24 8.08062V17.9194C24 18.7579 23.0301 19.2241 22.3753 18.7002L19 16V10Z" fill="white"/>
</svg>
