<svg width="24" height="24" viewBox="0 0 24 24" fill="none" xmlns="http://www.w3.org/2000/svg">
<path d="M3 3L21 21" stroke="white" stroke-width="2" stroke-miterlimit="10" stroke-linecap="round"/>
<path fill-rule="evenodd" clip-rule="evenodd" d="M8 6.59209V12C8 14.2091 9.79086 16 12 16C13.4616 16 14.7402 15.216 15.4381 14.0457L8 6.59209ZM16.8804 15.491C15.7918 17.0102 14.0115 18 12 18C8.68629 18 6 15.3137 6 12C6 11.4477 5.55228 11 5 11C4.44772 11 4 11.4477 4 12C4 16.0796 7.05369 19.446 11 19.9381V21C11 21.5523 11.4477 22 12 22C12.5523 22 13 21.5523 13 21V19.9381C15.1511 19.6699 17.037 18.5476 18.3077 16.9213L16.8804 15.491ZM19.3589 15.1433L17.7917 13.5729C17.9275 13.0716 18 12.5443 18 12C18 11.4477 18.4477 11 19 11C19.5523 11 20 11.4477 20 12C20 13.1159 19.7715 14.1783 19.3589 15.1433ZM16 11.7774L8.43077 4.19238C9.09091 2.89149 10.4413 2 12 2C14.2091 2 16 3.79086 16 6V11.7774Z" fill="white"/>
</svg>
