<svg width="20" height="20" viewBox="0 0 20 20" fill="none" xmlns="http://www.w3.org/2000/svg">
<path d="M6.02698 13.9613C7.16801 15.1932 9.91484 17.3263 10.6635 17.7641C10.7078 17.79 10.7585 17.8201 10.8152 17.8538C11.9576 18.5329 15.5373 20.6609 18.1454 18.6694C20.1661 17.1266 19.5091 15.3909 18.8289 14.875C18.3633 14.5128 16.9914 13.5145 15.7006 12.6152C14.4331 11.7322 13.7268 12.4397 13.2492 12.918C13.2404 12.9268 13.2317 12.9355 13.2231 12.9442L12.2621 13.9051C12.0174 14.1498 11.6451 14.0605 11.2886 13.7804C10.0092 12.8061 9.06809 11.8659 8.59723 11.395L8.59326 11.391C8.12246 10.9202 7.19387 9.99076 6.21957 8.7114C5.93949 8.35485 5.85018 7.9826 6.09489 7.73789L7.05586 6.77693C7.06448 6.7683 7.0732 6.7596 7.08199 6.75082C7.56034 6.27321 8.2678 5.56684 7.38479 4.29937C6.48555 3.0086 5.4872 1.6367 5.125 1.17106C4.60907 0.490937 2.87345 -0.166084 1.33056 1.85458C-0.660932 4.46274 1.46708 8.04241 2.1462 9.18482C2.17991 9.24152 2.21005 9.29221 2.23593 9.33649C2.67367 10.0851 4.79507 12.8203 6.02698 13.9613Z" fill="black"/>
</svg>
