<svg width="24" height="24" viewBox="0 0 24 24" fill="none" xmlns="http://www.w3.org/2000/svg">
<path fill-rule="evenodd" clip-rule="evenodd" d="M8 6C8 3.79086 9.79086 2 12 2C14.2091 2 16 3.79086 16 6V12C16 14.2091 14.2091 16 12 16C9.79086 16 8 14.2091 8 12V6ZM5 11C5.55228 11 6 11.4477 6 12C6 15.3137 8.68629 18 12 18C15.3137 18 18 15.3137 18 12C18 11.4477 18.4477 11 19 11C19.5523 11 20 11.4477 20 12C20 16.0796 16.9463 19.446 13 19.9381V21C13 21.5523 12.5523 22 12 22C11.4477 22 11 21.5523 11 21V19.9381C7.05369 19.446 4 16.0796 4 12C4 11.4477 4.44772 11 5 11Z" fill="white"/>
</svg>
