<svg width="8" height="8" viewBox="0 0 8 8" fill="none" xmlns="http://www.w3.org/2000/svg">
<path d="M6.93567 1.68754C7.13093 1.49228 7.13093 1.17569 6.93567 0.980431C6.7404 0.785169 6.42382 0.785169 6.22856 0.980431L3.96395 3.24504L1.69934 0.980431C1.50408 0.785169 1.18749 0.785169 0.992231 0.980431C0.796969 1.17569 0.796969 1.49228 0.992231 1.68754L3.25684 3.95215L0.895226 6.31377C0.699964 6.50903 0.699964 6.82561 0.895226 7.02087C1.09049 7.21613 1.40707 7.21613 1.60233 7.02087L3.96395 4.65926L6.32557 7.02087C6.52083 7.21613 6.83741 7.21613 7.03267 7.02087C7.22793 6.82561 7.22793 6.50903 7.03267 6.31376L4.67106 3.95215L6.93567 1.68754Z" fill="currentColor"/>
</svg>
