<svg width="16" height="16" viewBox="0 0 16 16" fill="none" xmlns="http://www.w3.org/2000/svg">
<path d="M13.8711 3.3741C14.2616 2.98357 14.2616 2.35041 13.8711 1.95989C13.4806 1.56936 12.8474 1.56936 12.4569 1.95989L7.92765 6.48911L3.39843 1.95989C3.00791 1.56936 2.37474 1.56936 1.98422 1.95989C1.59369 2.35041 1.59369 2.98357 1.98422 3.3741L6.51344 7.90332L1.79021 12.6266C1.39968 13.0171 1.39968 13.6502 1.79021 14.0408C2.18073 14.4313 2.8139 14.4313 3.20442 14.0408L7.92765 9.31753L12.6509 14.0408C13.0414 14.4313 13.6746 14.4313 14.0651 14.0408C14.4556 13.6502 14.4556 13.0171 14.0651 12.6266L9.34187 7.90332L13.8711 3.3741Z" fill="currentColor"/>
</svg>
