<svg width="24" height="24" viewBox="0 0 24 24" fill="none" xmlns="http://www.w3.org/2000/svg">
<path d="M12.0077 23.4869C12.0051 23.4875 12.0025 23.4881 12 23.4886C11.9975 23.4881 11.9949 23.4875 11.9923 23.4869C11.9204 23.4706 11.8129 23.4452 11.6749 23.4092C11.3989 23.3373 11.0015 23.2235 10.5233 23.0575C9.56541 22.725 8.29205 22.186 7.02249 21.3608C4.48971 19.7145 2 16.954 2 12.405V3.44957L12 0.521L22 3.44957V12.405C22 16.954 19.5103 19.7145 16.9775 21.3608C15.7079 22.186 14.4346 22.725 13.4767 23.0575C12.9985 23.2235 12.6011 23.3373 12.3251 23.4092C12.1871 23.4452 12.0796 23.4706 12.0077 23.4869Z" fill="currentColor" stroke="white"/>
<path d="M1.5 12.405V3.075L12 0L22.5 3.075V12.405C22.5 21.945 12 24 12 24C12 24 1.5 21.945 1.5 12.405Z" fill="currentColor"/>
<path fill-rule="evenodd" clip-rule="evenodd" d="M12.0033 16.5C12.5774 16.5 13.0428 16.0346 13.0428 15.4605C13.0428 14.8865 12.5774 14.4211 12.0033 14.4211C11.4292 14.4211 10.9639 14.8865 10.9639 15.4605C10.9639 16.0346 11.4292 16.5 12.0033 16.5ZM10.5592 9.82291C10.5592 9.02285 11.2083 8.3792 12.0029 8.3792C12.7951 8.3792 13.4466 9.03065 13.4466 9.82291C13.4466 10.1898 13.2897 10.3208 12.6714 10.7479C12.3975 10.9372 12.0217 11.2001 11.7292 11.5858C11.416 11.9986 11.2233 12.5134 11.2233 13.168H12.7825C12.7825 12.8473 12.8677 12.6648 12.9714 12.5281C13.0957 12.3643 13.2758 12.2255 13.5577 12.0307C13.5873 12.0103 13.6185 11.989 13.6512 11.9668C14.1622 11.6192 15.0058 11.0455 15.0058 9.82291C15.0058 8.16955 13.6563 6.82001 12.0029 6.82001C10.3518 6.82001 9 8.15713 9 9.82291H10.5592Z" fill="white"/>
</svg>
