<svg width="16" height="16" viewBox="0 0 16 16" fill="none" xmlns="http://www.w3.org/2000/svg">
<path fill-rule="evenodd" clip-rule="evenodd" d="M8 16C12.4183 16 16 12.4183 16 8C16 3.58172 12.4183 0 8 0C3.58172 0 0 3.58172 0 8C0 12.4183 3.58172 16 8 16ZM6.77698 4.13517C6.71698 3.45117 7.22098 2.85117 7.90498 2.80317C8.57698 2.75517 9.17698 3.25917 9.24898 3.94317V4.13517L8.86498 8.93517C8.82898 9.37917 8.45698 9.71517 8.01298 9.71517H7.94098C7.52098 9.67917 7.19698 9.35517 7.16098 8.93517L6.77698 4.13517ZM9.0564 12.0673C9.0564 12.6505 8.58361 13.1233 8.0004 13.1233C7.41719 13.1233 6.9444 12.6505 6.9444 12.0673C6.9444 11.4841 7.41719 11.0113 8.0004 11.0113C8.58361 11.0113 9.0564 11.4841 9.0564 12.0673Z" fill="currentColor"/>
</svg>
