<svg width="25" height="24" viewBox="0 0 25 24" fill="none" xmlns="http://www.w3.org/2000/svg">
<path d="M12.5013 23.1499C15.1498 23.1499 17.4232 22.2702 19.3216 20.5107C21.2199 18.7513 22.271 16.5751 22.4747 13.9822C22.4932 13.7599 22.4238 13.5655 22.2663 13.3988C22.1089 13.2321 21.9098 13.1488 21.6691 13.1488C21.4468 13.1488 21.257 13.2275 21.0995 13.3849C20.9421 13.5423 20.8449 13.7414 20.8078 13.9822C20.6041 16.1121 19.7151 17.8947 18.1409 19.33C16.5666 20.7654 14.6868 21.4831 12.5013 21.4831C10.1863 21.4831 8.21843 20.6728 6.59788 19.0522C4.97732 17.4317 4.16704 15.4638 4.16704 13.1488C4.16704 10.8337 4.95417 8.86587 6.52842 7.24531C8.10268 5.62475 10.0473 4.81447 12.3624 4.81447H12.9736L11.529 6.25908C11.3623 6.42577 11.279 6.62024 11.279 6.84248C11.279 7.06473 11.3623 7.2592 11.529 7.42588C11.6957 7.59257 11.8902 7.67591 12.1124 7.67591C12.3346 7.67591 12.5291 7.59257 12.6958 7.42588L15.6128 4.50888C15.7054 4.41628 15.7702 4.32368 15.8073 4.23107C15.8443 4.13847 15.8628 4.0366 15.8628 3.92548C15.8628 3.81436 15.8443 3.71249 15.8073 3.61989C15.7702 3.52729 15.7054 3.43468 15.6128 3.34208L12.668 0.397297C12.5199 0.249131 12.3346 0.175049 12.1124 0.175049C11.8902 0.175049 11.6957 0.249131 11.529 0.397297C11.3808 0.563982 11.3068 0.758449 11.3068 0.980697C11.3068 1.20294 11.3808 1.38815 11.529 1.53632L13.1403 3.14761H12.5013C11.1123 3.14761 9.81121 3.4069 8.59811 3.92548C7.385 4.44406 6.3247 5.1571 5.41718 6.06462C4.50967 6.97213 3.79663 8.03244 3.27805 9.24554C2.75947 10.4586 2.50018 11.7597 2.50018 13.1488C2.50018 14.5378 2.75947 15.8389 3.27805 17.052C3.79663 18.2651 4.50967 19.3254 5.41718 20.2329C6.3247 21.1404 7.385 21.8535 8.59811 22.372C9.81121 22.8906 11.1123 23.1499 12.5013 23.1499Z" fill="#737D8C"/>
<path d="M9.51705 17.0895C9.05682 17.0895 8.64773 17.0107 8.28977 16.853C7.93395 16.6953 7.6527 16.4759 7.44602 16.1946C7.23935 15.9134 7.12962 15.5884 7.11683 15.2198H8.31854C8.32919 15.3967 8.38778 15.5511 8.49432 15.6832C8.60085 15.8132 8.74254 15.9144 8.91939 15.9869C9.09624 16.0593 9.29439 16.0955 9.51385 16.0955C9.74822 16.0955 9.95597 16.055 10.1371 15.9741C10.3182 15.891 10.4599 15.7759 10.5621 15.6289C10.6644 15.4819 10.7145 15.3125 10.7124 15.1207C10.7145 14.9226 10.6634 14.7479 10.5589 14.5966C10.4545 14.4453 10.3033 14.3271 10.1051 14.2418C9.90909 14.1566 9.67259 14.114 9.3956 14.114H8.81712V13.1999H9.3956C9.62358 13.1999 9.8228 13.1605 9.99325 13.0817C10.1658 13.0028 10.3011 12.892 10.3991 12.7493C10.4972 12.6044 10.5451 12.4371 10.543 12.2475C10.5451 12.0621 10.5036 11.9013 10.4183 11.7649C10.3352 11.6264 10.217 11.5188 10.0636 11.4421C9.91229 11.3654 9.73438 11.3271 9.52983 11.3271C9.32955 11.3271 9.14418 11.3633 8.97372 11.4357C8.80327 11.5082 8.66584 11.6115 8.56143 11.7457C8.45703 11.8778 8.40163 12.0355 8.39524 12.2188H7.25426C7.26278 11.8523 7.36825 11.5305 7.57067 11.2536C7.77521 10.9744 8.04794 10.7571 8.38885 10.6016C8.72976 10.4439 9.11222 10.3651 9.53622 10.3651C9.97301 10.3651 10.3523 10.4471 10.674 10.6112C10.9979 10.7731 11.2482 10.9915 11.4251 11.2663C11.6019 11.5412 11.6903 11.8448 11.6903 12.1772C11.6925 12.5458 11.5838 12.8548 11.3643 13.104C11.147 13.3533 10.8615 13.5163 10.5078 13.593V13.6442C10.968 13.7081 11.3207 13.8786 11.5657 14.1555C11.8129 14.4304 11.9354 14.7724 11.9332 15.1815C11.9332 15.5479 11.8288 15.8761 11.62 16.1658C11.4134 16.4535 11.1278 16.6793 10.7635 16.8434C10.4013 17.0075 9.9858 17.0895 9.51705 17.0895ZM15.0151 17.1246C14.4889 17.1246 14.0371 16.9915 13.66 16.7251C13.285 16.4567 12.9963 16.07 12.7939 15.565C12.5936 15.0579 12.4935 14.4474 12.4935 13.7337C12.4956 13.0199 12.5968 12.4126 12.7971 11.9119C12.9995 11.4091 13.2882 11.0256 13.6632 10.7614C14.0403 10.4972 14.491 10.3651 15.0151 10.3651C15.5393 10.3651 15.9899 10.4972 16.367 10.7614C16.7442 11.0256 17.0329 11.4091 17.2332 11.9119C17.4356 12.4148 17.5368 13.022 17.5368 13.7337C17.5368 14.4496 17.4356 15.0611 17.2332 15.5682C17.0329 16.0732 16.7442 16.4588 16.367 16.7251C15.992 16.9915 15.5414 17.1246 15.0151 17.1246ZM15.0151 16.1243C15.4242 16.1243 15.747 15.9229 15.9835 15.5202C16.2222 15.1154 16.3415 14.5199 16.3415 13.7337C16.3415 13.2138 16.2871 12.777 16.1785 12.4233C16.0698 12.0696 15.9164 11.8033 15.7183 11.6243C15.5201 11.4432 15.2857 11.3526 15.0151 11.3526C14.6082 11.3526 14.2864 11.555 14.0499 11.9599C13.8134 12.3626 13.6941 12.9538 13.692 13.7337C13.6898 14.2557 13.742 14.6946 13.8486 15.0504C13.9572 15.4062 14.1107 15.6747 14.3088 15.8558C14.507 16.0348 14.7424 16.1243 15.0151 16.1243Z" fill="#737D8C"/>
</svg>
