<svg width="8" height="8" viewBox="0 0 8 8" fill="none" xmlns="http://www.w3.org/2000/svg">
<path d="M6.72969 1.3953C6.61666 1.24999 6.40724 1.22381 6.26192 1.33683C6.11677 1.44973 6.09049 1.65882 6.20308 1.80412L6.20333 1.80444L6.20366 1.80487L6.20821 1.81093C6.21262 1.81686 6.21974 1.82655 6.22917 1.83983C6.24804 1.8664 6.27611 1.90725 6.31035 1.96105C6.37893 2.06883 6.4716 2.22754 6.56451 2.42663C6.75126 2.82681 6.93323 3.37775 6.93323 3.99995C6.93323 4.62214 6.75126 5.17309 6.56451 5.57327C6.4716 5.77236 6.37893 5.93107 6.31035 6.03885C6.27611 6.09265 6.24804 6.1335 6.22917 6.16007C6.21974 6.17335 6.21262 6.18304 6.20821 6.18897L6.20366 6.19503L6.20333 6.19546L6.20303 6.19584C6.09049 6.34114 6.11679 6.55018 6.26192 6.66307C6.40724 6.77609 6.61666 6.74991 6.72969 6.6046L6.48127 6.41138C6.72969 6.60459 6.72969 6.6046 6.72969 6.6046L6.73035 6.60374L6.7313 6.6025L6.73407 6.59889L6.7429 6.58715C6.7502 6.57735 6.76027 6.5636 6.77272 6.54607C6.7976 6.51104 6.83203 6.46082 6.87279 6.39676C6.9542 6.26883 7.06154 6.08468 7.16863 5.8552C7.38188 5.39823 7.5999 4.74918 7.5999 3.99995C7.5999 3.25072 7.38188 2.60166 7.16863 2.1447C7.06154 1.91522 6.9542 1.73107 6.87279 1.60313C6.83203 1.53908 6.7976 1.48886 6.77272 1.45383C6.76027 1.4363 6.7502 1.42255 6.7429 1.41275L6.73407 1.40101L6.7313 1.3974L6.73035 1.39616L6.72998 1.39568C6.72998 1.39568 6.72969 1.3953 6.46657 1.59995L6.72969 1.3953Z" fill="currentColor"/>
<path d="M5.86331 2.59538C5.75029 2.45006 5.54086 2.42388 5.39555 2.53691C5.25061 2.64963 5.22419 2.85826 5.33619 3.00353L5.33734 3.00506C5.33883 3.00705 5.34165 3.01088 5.34561 3.01646C5.35354 3.02763 5.36599 3.04572 5.38147 3.07005C5.41256 3.1189 5.45523 3.1919 5.49813 3.28384C5.58488 3.46974 5.66686 3.72069 5.66686 4.00002C5.66686 4.27936 5.58488 4.53031 5.49813 4.7162C5.45523 4.80815 5.41256 4.88114 5.38147 4.92999C5.36599 4.95433 5.35354 4.97241 5.34561 4.98358C5.34165 4.98916 5.33883 4.99299 5.33734 4.99499L5.33619 4.99652C5.22419 5.14179 5.25061 5.35041 5.39555 5.46314C5.54086 5.57616 5.75029 5.54999 5.86331 5.40467L5.60019 5.20002C5.86331 5.40467 5.86331 5.40467 5.86331 5.40467L5.8639 5.40391L5.86464 5.40295L5.86655 5.40046L5.87203 5.39317C5.87641 5.3873 5.88218 5.37941 5.88916 5.36959C5.9031 5.34995 5.9219 5.3225 5.94392 5.28791C5.98783 5.2189 6.04516 5.12047 6.10226 4.99813C6.21551 4.75545 6.33353 4.4064 6.33353 4.00002C6.33353 3.59365 6.21551 3.2446 6.10226 3.00192C6.04516 2.87957 5.98783 2.78114 5.94392 2.71214C5.9219 2.67755 5.9031 2.65009 5.88916 2.63046C5.88218 2.62064 5.87641 2.61275 5.87203 2.60688L5.86655 2.59959L5.86464 2.59709L5.8639 2.59614L5.86359 2.59573C5.86359 2.59573 5.86331 2.59538 5.60019 2.80002L5.86331 2.59538Z" fill="currentColor"/>
<path d="M1.20366 6.6047C1.31669 6.75001 1.52611 6.77619 1.67143 6.66317C1.81658 6.55027 1.84286 6.34118 1.73027 6.19588L1.73002 6.19556L1.72969 6.19513L1.72514 6.18907C1.72073 6.18314 1.71361 6.17345 1.70418 6.16017C1.68531 6.1336 1.65724 6.09275 1.623 6.03895C1.55442 5.93117 1.46175 5.77246 1.36884 5.57337C1.18209 5.17319 1.00011 4.62225 1.00011 4.00005C1.00011 3.37786 1.18209 2.82691 1.36884 2.42673C1.46175 2.22764 1.55442 2.06893 1.623 1.96115C1.65724 1.90735 1.68531 1.8665 1.70418 1.83993C1.71361 1.82665 1.72073 1.81696 1.72514 1.81103L1.72969 1.80497L1.73002 1.80454L1.73032 1.80416C1.84286 1.65886 1.81656 1.44982 1.67143 1.33693C1.52611 1.22391 1.31669 1.25009 1.20366 1.3954L1.45208 1.58862C1.20366 1.39541 1.20366 1.3954 1.20366 1.3954L1.203 1.39626L1.20205 1.3975L1.19928 1.40111L1.19045 1.41285C1.18315 1.42265 1.17308 1.4364 1.16063 1.45393C1.13575 1.48896 1.10132 1.53918 1.06056 1.60324C0.979147 1.73117 0.871814 1.91532 0.764721 2.1448C0.551471 2.60177 0.333448 3.25082 0.333448 4.00005C0.333448 4.74928 0.551471 5.39834 0.764721 5.8553C0.871814 6.08478 0.979147 6.26893 1.06056 6.39687C1.10132 6.46092 1.13575 6.51114 1.16063 6.54617C1.17308 6.5637 1.18315 6.57745 1.19045 6.58725L1.19928 6.59899L1.20205 6.6026L1.203 6.60384L1.20337 6.60432C1.20337 6.60432 1.20366 6.6047 1.46678 6.40005L1.20366 6.6047Z" fill="currentColor"/>
<path d="M2.07004 5.40462C2.18306 5.54994 2.39249 5.57612 2.5378 5.46309C2.68274 5.35037 2.70916 5.14174 2.59716 4.99647L2.59601 4.99494C2.59452 4.99295 2.5917 4.98912 2.58774 4.98354C2.57981 4.97237 2.56736 4.95428 2.55188 4.92995C2.52079 4.8811 2.47812 4.8081 2.43522 4.71616C2.34847 4.53026 2.26649 4.27931 2.26649 3.99998C2.26649 3.72064 2.34847 3.46969 2.43522 3.2838C2.47812 3.19185 2.52079 3.11886 2.55188 3.07001C2.56736 3.04567 2.57981 3.02759 2.58774 3.01642C2.5917 3.01084 2.59452 3.00701 2.59601 3.00501L2.59716 3.00348C2.70916 2.85821 2.68274 2.64959 2.5378 2.53686C2.39249 2.42384 2.18306 2.45001 2.07004 2.59533L2.33316 2.79998C2.07004 2.59533 2.07004 2.59533 2.07004 2.59533L2.06945 2.59609L2.06871 2.59705L2.0668 2.59954L2.06132 2.60683C2.05694 2.6127 2.05117 2.62059 2.04419 2.63041C2.03025 2.65005 2.01145 2.6775 1.98943 2.71209C1.94552 2.7811 1.88819 2.87953 1.83109 3.00187C1.71784 3.24455 1.59982 3.5936 1.59982 3.99998C1.59982 4.40635 1.71784 4.7554 1.83109 4.99808C1.88819 5.12043 1.94552 5.21886 1.98943 5.28786C2.01145 5.32245 2.03025 5.34991 2.04419 5.36954C2.05117 5.37936 2.05694 5.38725 2.06132 5.39312L2.0668 5.40041L2.06871 5.40291L2.06945 5.40386L2.06976 5.40427C2.06976 5.40427 2.07004 5.40462 2.33316 5.19998L2.07004 5.40462Z" fill="currentColor"/>
<circle cx="3.99992" cy="4.00016" r="0.666667" fill="currentColor"/>
</svg>
