<svg width="32" height="32" viewBox="0 0 32 32" fill="none" xmlns="http://www.w3.org/2000/svg">
<path fill-rule="evenodd" clip-rule="evenodd" d="M13.3333 1.85156C10.2958 1.85156 7.83333 4.314 7.83333 7.35156V13.1742H7C5.34315 13.1742 4 14.5174 4 16.1742V27.6666C4 29.3234 5.34315 30.6666 7 30.6666H25C26.6569 30.6666 28 29.3234 28 27.6666V16.1742C28 14.5174 26.6569 13.1742 25 13.1742H24.1667V7.35156C24.1667 4.314 21.7042 1.85156 18.6667 1.85156H13.3333ZM21.1667 13.1742V7.35156C21.1667 5.97085 20.0474 4.85156 18.6667 4.85156H13.3333C11.9526 4.85156 10.8333 5.97085 10.8333 7.35156V13.1742H21.1667Z" fill="currentColor"/>
</svg>
