<svg width="16" height="16" viewBox="0 0 16 16" fill="none" xmlns="http://www.w3.org/2000/svg">
<path fill-rule="evenodd" clip-rule="evenodd" d="M4.02266 2.96455C5.11589 2.10004 6.49866 1.5835 8 1.5835C11.3187 1.5835 14.049 4.10294 14.3825 7.3335H15.6723C15.9336 7.3335 16.0894 7.62498 15.9445 7.8426L13.9388 10.8543C13.8094 11.0488 13.524 11.0488 13.3945 10.8543L11.3888 7.8426C11.2439 7.62498 11.3997 7.3335 11.661 7.3335H12.8719C12.5465 4.93343 10.4893 3.0835 8 3.0835C6.84828 3.0835 5.79092 3.47857 4.95308 4.14112C4.8969 4.18555 4.84851 4.22129 4.81295 4.24673C4.7951 4.2595 4.78032 4.26979 4.7692 4.27743L4.75529 4.28689L4.75051 4.2901L4.74868 4.29132L4.74791 4.29183L4.74756 4.29206L4.74739 4.29217L4.74731 4.29223L4.33341 3.66694L4.74723 4.29228C4.40181 4.52087 3.93648 4.42616 3.70788 4.08073C3.47976 3.736 3.57362 3.27185 3.91734 3.04277L3.92021 3.04081L3.94013 3.02682C3.95912 3.01323 3.988 2.99197 4.02266 2.96455ZM3.12815 8.66683H4.33901C4.60027 8.66683 4.7561 8.37534 4.61118 8.15772L2.60551 5.14598C2.47603 4.95156 2.19064 4.95156 2.06116 5.14598L0.0554881 8.15772C-0.0894338 8.37534 0.0663988 8.66683 0.327661 8.66683H1.61755C1.95103 11.8974 4.68129 14.4168 8 14.4168C9.56831 14.4168 11.0069 13.8532 12.1215 12.9184C12.4388 12.6522 12.4803 12.1791 12.2141 11.8617C11.9479 11.5444 11.4749 11.5029 11.1575 11.7691C10.303 12.4859 9.20281 12.9168 8 12.9168C5.51071 12.9168 3.4535 11.0669 3.12815 8.66683Z" fill="currentColor"/>
</svg>
