<svg width="16" height="16" viewBox="0 0 16 16" fill="none" xmlns="http://www.w3.org/2000/svg">
<path fill-rule="evenodd" clip-rule="evenodd" d="M2.88867 0.138672C1.36989 0.138672 0.138672 1.36989 0.138672 2.88867V15.1109C0.138672 15.395 0.299174 15.6547 0.553262 15.7817C0.80735 15.9088 1.11141 15.8813 1.33867 15.7109L4.36089 13.4442C4.57726 13.2819 4.84043 13.1942 5.11089 13.1942H13.1109C14.6297 13.1942 15.8609 11.963 15.8609 10.4442V2.88822C15.8609 1.36922 14.6295 0.138672 13.1109 0.138672H2.88867ZM3.69421 5.33301C3.69421 4.91879 4.03 4.58301 4.44421 4.58301H11.5553C11.9695 4.58301 12.3053 4.91879 12.3053 5.33301C12.3053 5.74722 11.9695 6.08301 11.5553 6.08301H4.44421C4.03 6.08301 3.69421 5.74722 3.69421 5.33301ZM4.44421 7.24976C4.03 7.24976 3.69421 7.58554 3.69421 7.99976C3.69421 8.41397 4.03 8.74976 4.44421 8.74976H7.99977C8.41398 8.74976 8.74977 8.41397 8.74977 7.99976C8.74977 7.58554 8.41398 7.24976 7.99977 7.24976H4.44421Z" fill="currentColor"/>
</svg>
