<svg width="16" height="16" viewBox="0 0 16 16" fill="none" xmlns="http://www.w3.org/2000/svg">
<path d="M10 1H6V2.33333H10V1ZM7.33333 9.66667H8.66667V5.66667H7.33333V9.66667ZM12.6867 5.26L13.6333 4.31333C13.3467 3.97333 13.0333 3.65333 12.6933 3.37333L11.7467 4.32C10.7133 3.49333 9.41333 3 8 3C4.68667 3 2 5.68667 2 9C2 12.3133 4.68 15 8 15C11.32 15 14 12.3133 14 9C14 7.58667 13.5067 6.28667 12.6867 5.26ZM8 13.6667C5.42 13.6667 3.33333 11.58 3.33333 9C3.33333 6.42 5.42 4.33333 8 4.33333C10.58 4.33333 12.6667 6.42 12.6667 9C12.6667 11.58 10.58 13.6667 8 13.6667Z" fill="currentColor"/>
</svg>
