<svg width="180" height="30" viewBox="0 0 180 30" fill="none" xmlns="http://www.w3.org/2000/svg">
<path fill-rule="evenodd" clip-rule="evenodd" d="M127.789 0.851562H124.407V21.3236H127.789V13.1123C127.789 10.8626 129.129 9.569 131.228 9.569C133.211 9.569 134.144 10.8626 134.144 12.7748V21.2673H137.525V12.4374C137.525 9.1191 135.659 6.86946 132.045 6.86946C129.888 6.86946 128.43 7.76929 127.789 8.72541V0.851562ZM55.96 18.7365C53.2197 18.7365 51.8205 17.3304 51.6454 15.2495H48.2641C48.3805 18.399 50.4212 21.7173 55.785 21.7173C60.5656 21.7173 63.7724 19.4114 63.7724 15.9244C63.7724 11.4813 60.041 10.6939 56.8929 9.9628C54.5608 9.4566 52.4619 9.0066 52.4619 7.20688C52.4619 5.46338 53.9193 4.5073 56.2514 4.5073C58.8168 4.5073 60.1578 6.02583 60.1578 7.93802H63.5392C63.4228 4.33857 60.9738 1.52647 56.2514 1.52647C51.7622 1.52647 49.0801 4.16983 49.0801 7.26313C49.0801 11.5938 52.6365 12.3812 55.7268 12.9998C58.1753 13.506 60.3324 13.9559 60.3324 16.0369C60.2742 17.7804 58.6999 18.7365 55.96 18.7365ZM75.7243 15.3057C75.7243 17.6116 74.4418 18.8489 72.3429 18.8489C70.3022 18.8489 69.4862 17.5554 69.4862 15.6432V7.15064H66.1045V16.0931C66.1045 19.4114 67.9701 21.661 71.5265 21.661C73.9172 21.661 75.3747 20.6487 76.0161 19.5239V21.3798H79.106V7.15064H75.7243V15.3057ZM90.2419 21.661C87.968 21.661 86.3937 20.7049 85.5777 19.4676V27.004H82.196V7.15064H85.2859V9.1754C86.2187 7.71309 87.968 6.81321 90.2419 6.81321C94.6143 6.81321 97.0632 10.1877 97.0632 14.2371C97.0632 18.2865 94.6143 21.661 90.2419 21.661ZM89.6005 9.6253C87.0352 9.6253 85.4609 11.5938 85.4609 14.2371C85.4609 16.768 87.0352 18.7927 89.6005 18.7927C92.1658 18.7927 93.7401 16.8242 93.7401 14.2371C93.7401 11.65 92.1076 9.6253 89.6005 9.6253ZM122.425 7.03815C122.541 7.03815 122.891 7.03815 122.891 7.03815V10.0752C122.891 10.0752 122.483 10.019 122.133 10.019C119.743 10.019 118.344 11.2001 118.344 13.9559V21.3236H114.962V7.15064H118.052V9.1191C118.635 8.21925 119.86 7.03815 122.425 7.03815ZM112.746 15.1932C112.746 15.1932 112.746 14.6871 112.746 14.1809C112.746 10.019 109.89 6.81321 105.517 6.81321C101.144 6.81321 98.2293 10.0752 98.2293 14.1809C98.2293 18.399 101.086 21.6048 105.575 21.6048C109.015 21.6048 111.58 19.6363 112.455 16.8242H109.073C108.549 18.0615 107.208 18.8489 105.634 18.8489C103.302 18.8489 101.786 17.3867 101.552 15.137H112.746V15.1932ZM105.575 9.4566C107.733 9.4566 109.19 10.8064 109.423 12.7748H101.669C102.019 10.8626 103.418 9.4566 105.575 9.4566ZM154.083 14.1809C154.083 14.6871 154.083 15.1932 154.083 15.1932H142.889C143.122 17.4429 144.638 18.9052 146.97 18.9052C148.544 18.9052 149.827 18.1178 150.41 16.8805H153.791C152.917 19.6926 150.293 21.661 146.912 21.661C142.481 21.661 139.566 18.4553 139.566 14.2371C139.566 10.1314 142.481 6.86946 146.853 6.86946C151.226 6.81321 154.083 10.019 154.083 14.1809ZM150.702 12.7748C150.41 10.8064 149.011 9.4566 146.853 9.4566C144.696 9.4566 143.239 10.8064 142.947 12.7748H150.702ZM164.111 7.03815C164.111 7.03815 163.761 7.03815 163.644 7.03815C161.079 7.03815 159.855 8.21925 159.33 9.1191V7.15064H156.24V21.3236H159.622V13.9559C159.622 11.2001 161.021 10.019 163.411 10.019C163.761 10.019 164.17 10.0752 164.17 10.0752V7.03815H164.111ZM179.27 14.2371C179.27 18.2303 176.355 21.6048 171.632 21.6048C166.968 21.6048 164.053 18.174 164.053 14.2371C164.053 10.2439 166.968 6.81321 171.632 6.81321C176.355 6.81321 179.27 10.2439 179.27 14.2371ZM171.632 9.6815C169.183 9.6815 167.376 11.4813 167.376 14.2371C167.376 16.993 169.183 18.7927 171.632 18.7927C174.081 18.7927 175.888 16.993 175.888 14.2371C175.946 11.4813 174.139 9.6815 171.632 9.6815Z" fill="white"/>
<path fill-rule="evenodd" clip-rule="evenodd" d="M0.105835 10.0197L11.0667 0.121094H30.5398L41.5006 10.0197L20.8615 29.4793L0.105835 10.0197ZM12.2911 3.15816H18.2379L30.9479 15.7001L20.8033 25.2612L4.65343 10.0759L12.2911 3.15816Z" fill="#1161FE"/>
</svg>
