<svg viewBox="0 0 177 42" fill="none" xmlns="http://www.w3.org/2000/svg">
<path d="M166.722 33.2021C164.699 33.2021 162.949 32.791 161.473 31.9688C159.996 31.1467 158.854 29.9687 158.048 28.4348C157.241 26.9009 156.838 25.0664 156.838 22.9312V22.8944C156.838 20.7715 157.247 18.9492 158.066 17.4276C158.885 15.8937 160.033 14.7157 161.51 13.8935C162.987 13.0714 164.718 12.6603 166.703 12.6603C168.701 12.6603 170.438 13.0714 171.915 13.8935C173.404 14.7034 174.558 15.8753 175.377 17.4092C176.196 18.9308 176.606 20.7592 176.606 22.8944V22.9312C176.606 25.0786 176.196 26.9193 175.377 28.4532C174.571 29.9871 173.429 31.1651 171.952 31.9872C170.476 32.7971 168.732 33.2021 166.722 33.2021ZM166.741 28.987C167.622 28.987 168.385 28.7538 169.03 28.2875C169.688 27.8089 170.19 27.1218 170.538 26.226C170.898 25.3179 171.078 24.2196 171.078 22.9312V22.8944C171.078 21.6182 170.898 20.5322 170.538 19.6364C170.178 18.7406 169.669 18.0596 169.011 17.5933C168.354 17.1147 167.584 16.8754 166.703 16.8754C165.835 16.8754 165.071 17.1147 164.414 17.5933C163.768 18.0596 163.266 18.7406 162.906 19.6364C162.546 20.5322 162.366 21.6182 162.366 22.8944V22.9312C162.366 24.2196 162.54 25.3179 162.887 26.226C163.247 27.1218 163.756 27.8089 164.414 28.2875C165.071 28.7538 165.847 28.987 166.741 28.987Z" fill="currentColor"/>
<path d="M145.073 32.7971V13.0652H150.509V16.5073H150.62C150.918 15.2924 151.458 14.3476 152.24 13.6726C153.021 12.9977 153.996 12.6603 155.162 12.6603C155.46 12.6603 155.745 12.6787 156.018 12.7155C156.291 12.7523 156.527 12.8014 156.726 12.8628V17.5933C156.502 17.5074 156.217 17.4399 155.869 17.3908C155.522 17.3294 155.15 17.2988 154.752 17.2988C153.859 17.2988 153.096 17.4705 152.463 17.8141C151.83 18.1577 151.346 18.6608 151.011 19.3235C150.676 19.9861 150.509 20.796 150.509 21.7532V32.7971H145.073Z" fill="currentColor"/>
<path d="M133.736 33.2021C131.701 33.2021 129.951 32.791 128.487 31.9688C127.023 31.1344 125.894 29.9502 125.099 28.4164C124.318 26.8825 123.927 25.0663 123.927 22.968V22.9496C123.927 20.8512 124.318 19.0351 125.099 17.5012C125.894 15.9551 127.004 14.7648 128.431 13.9303C129.871 13.0836 131.565 12.6603 133.513 12.6603C135.461 12.6603 137.143 13.0714 138.557 13.8935C139.984 14.7034 141.083 15.8508 141.852 17.3356C142.634 18.8204 143.025 20.5567 143.025 22.5446V24.2012H126.589V20.8144H140.456L137.869 23.9804V21.9188C137.869 20.7653 137.689 19.8021 137.329 19.029C136.969 18.2436 136.466 17.6546 135.821 17.2619C135.188 16.8693 134.45 16.6729 133.606 16.6729C132.762 16.6729 132.011 16.8754 131.354 17.2803C130.708 17.6853 130.2 18.2804 129.827 19.0658C129.468 19.8389 129.288 20.7899 129.288 21.9188V23.9988C129.288 25.0909 129.468 26.0235 129.827 26.7966C130.2 27.5697 130.727 28.1648 131.41 28.582C132.092 28.987 132.905 29.1894 133.848 29.1894C134.593 29.1894 135.238 29.0729 135.784 28.8397C136.33 28.6066 136.777 28.3121 137.124 27.9562C137.472 27.6003 137.707 27.2383 137.831 26.8702L137.869 26.7598H142.857L142.801 26.9622C142.652 27.6862 142.361 28.4164 141.926 29.1526C141.492 29.8889 140.903 30.5638 140.158 31.1774C139.426 31.7909 138.526 32.2818 137.459 32.6499C136.404 33.018 135.163 33.2021 133.736 33.2021Z" fill="currentColor"/>
<path d="M103.246 32.7971V6.23633H108.681V16.4704H108.793C109.314 15.2433 110.09 14.3046 111.12 13.6542C112.162 12.9916 113.428 12.6602 114.917 12.6602C116.369 12.6602 117.616 12.9793 118.658 13.6174C119.701 14.2432 120.501 15.1329 121.06 16.2864C121.63 17.4398 121.916 18.8142 121.916 20.4094V32.7971H116.481V21.5138C116.481 20.1395 116.146 19.0658 115.475 18.2927C114.818 17.5073 113.868 17.1146 112.628 17.1146C111.833 17.1146 111.138 17.3049 110.543 17.6853C109.96 18.0534 109.5 18.5688 109.165 19.2314C108.843 19.8818 108.681 20.6365 108.681 21.4954V32.7971H103.246Z" fill="currentColor"/>
<path d="M89.9922 32.7971V13.0652H95.4275V16.5073H95.5391C95.837 15.2924 96.3768 14.3476 97.1586 13.6726C97.9403 12.9977 98.9145 12.6603 100.081 12.6603C100.379 12.6603 100.664 12.6787 100.937 12.7155C101.21 12.7523 101.446 12.8014 101.645 12.8628V17.5933C101.421 17.5074 101.136 17.4399 100.788 17.3908C100.441 17.3294 100.069 17.2988 99.6714 17.2988C98.778 17.2988 98.0148 17.4705 97.3819 17.8141C96.749 18.1577 96.2651 18.6608 95.93 19.3235C95.595 19.9861 95.4275 20.796 95.4275 21.7532V32.7971H89.9922Z" fill="currentColor"/>
<path d="M78.6553 33.2021C76.6201 33.2021 74.8704 32.791 73.4061 31.9688C71.9418 31.1344 70.8126 29.9502 70.0184 28.4164C69.2366 26.8825 68.8457 25.0663 68.8457 22.968V22.9496C68.8457 20.8512 69.2366 19.0351 70.0184 17.5012C70.8126 15.9551 71.9232 14.7648 73.3503 13.9303C74.7898 13.0836 76.4836 12.6603 78.4319 12.6603C80.3801 12.6603 82.0616 13.0714 83.4763 13.8935C84.9033 14.7034 86.0016 15.8508 86.7709 17.3356C87.5527 18.8204 87.9436 20.5567 87.9436 22.5446V24.2012H71.5075V20.8144H85.3749L82.7875 23.9804V21.9188C82.7875 20.7653 82.6076 19.8021 82.2477 19.029C81.8879 18.2436 81.3853 17.6546 80.74 17.2619C80.1071 16.8693 79.3688 16.6729 78.525 16.6729C77.6811 16.6729 76.9304 16.8754 76.2727 17.2803C75.6274 17.6853 75.1186 18.2804 74.7463 19.0658C74.3865 19.8389 74.2065 20.7899 74.2065 21.9188V23.9988C74.2065 25.0909 74.3865 26.0235 74.7463 26.7966C75.1186 27.5697 75.646 28.1648 76.3285 28.582C77.011 28.987 77.8238 29.1894 78.7669 29.1894C79.5115 29.1894 80.1568 29.0729 80.7028 28.8397C81.2488 28.6066 81.6955 28.3121 82.043 27.9562C82.3904 27.6003 82.6262 27.2383 82.7503 26.8702L82.7875 26.7598H87.7761L87.7202 26.9622C87.5713 27.6862 87.2797 28.4164 86.8454 29.1526C86.4111 29.8889 85.8216 30.5638 85.0771 31.1774C84.3449 31.7909 83.4452 32.2818 82.378 32.6499C81.3232 33.018 80.0823 33.2021 78.6553 33.2021Z" fill="currentColor"/>
<path d="M47.6992 39.2395V13.0652H53.1345V16.5073H53.2648C53.6247 15.7096 54.0962 15.0225 54.6794 14.4457C55.2751 13.869 55.9638 13.4272 56.7456 13.1204C57.5398 12.8137 58.4084 12.6603 59.3515 12.6603C61.0392 12.6603 62.4911 13.0714 63.7072 13.8935C64.9233 14.7034 65.8602 15.8753 66.5179 17.4092C67.1756 18.9431 67.5044 20.7776 67.5044 22.9128V22.9312C67.5044 25.0664 67.1756 26.9009 66.5179 28.4348C65.8726 29.9687 64.9481 31.1467 63.7444 31.9688C62.5407 32.791 61.1013 33.2021 59.426 33.2021C58.4829 33.2021 57.608 33.0487 56.8014 32.7419C55.9948 32.4351 55.2937 32.0057 54.6981 31.4535C54.1024 30.889 53.6185 30.2141 53.2462 29.4287H53.1345V39.2395H47.6992ZM57.5646 28.7477C58.4705 28.7477 59.2523 28.5145 59.91 28.0482C60.5677 27.5697 61.0764 26.8947 61.4363 26.0235C61.7962 25.1522 61.9761 24.1215 61.9761 22.9312V22.9128C61.9761 21.7102 61.7962 20.6733 61.4363 19.8021C61.0764 18.9308 60.5615 18.2682 59.8913 17.8141C59.2337 17.3478 58.4581 17.1147 57.5646 17.1147C56.6835 17.1147 55.908 17.354 55.2379 17.8325C54.5678 18.2988 54.0466 18.9676 53.6743 19.8389C53.302 20.6978 53.1159 21.7286 53.1159 22.9312V22.9496C53.1159 24.1276 53.302 25.1522 53.6743 26.0235C54.059 26.8947 54.5802 27.5697 55.2379 28.0482C55.908 28.5145 56.6835 28.7477 57.5646 28.7477Z" fill="currentColor"/>
<path d="M33.2915 33.202C31.8272 33.202 30.58 32.9075 29.5501 32.3185C28.5325 31.7172 27.7507 30.8644 27.2047 29.76C26.6711 28.6556 26.4043 27.3365 26.4043 25.8026V13.0652H31.8396V24.6798C31.8396 25.9682 32.1436 26.9683 32.7516 27.68C33.3721 28.3918 34.2904 28.7476 35.5065 28.7476C36.1146 28.7476 36.6606 28.6433 37.1445 28.4347C37.6409 28.2261 38.0628 27.9316 38.4103 27.5512C38.7577 27.1585 39.0245 26.6984 39.2107 26.1707C39.3968 25.6308 39.4899 25.0418 39.4899 24.4037V13.0652H44.9252V32.7971H39.4899V29.5391H39.3782C39.0308 30.2877 38.5716 30.938 38.0008 31.4902C37.4424 32.0424 36.7661 32.4658 35.9719 32.7603C35.1901 33.0548 34.2966 33.202 33.2915 33.202Z" fill="currentColor"/>
<path fill-rule="evenodd" clip-rule="evenodd" d="M16.3469 6.01948C17.2316 6.17899 18.0463 6.41693 18.7907 6.73331C20.3047 7.3714 21.4836 8.27333 22.3274 9.43908C23.1712 10.6048 23.6366 11.9608 23.7234 13.5069L23.7421 13.8567H18.4371L18.4185 13.6358C18.3192 12.9363 18.0524 12.3412 17.6181 11.8504C17.1837 11.3472 16.6067 10.9607 15.887 10.6907C15.1796 10.4208 14.3606 10.2858 13.4299 10.2858C12.4744 10.2858 11.6492 10.4269 10.9543 10.7091C10.2594 10.9791 9.72576 11.3534 9.35348 11.8319C8.99361 12.3105 8.81368 12.8689 8.81368 13.5069V13.5254C8.81368 14.3598 9.17354 15.0347 9.89328 15.5501C10.613 16.0655 11.7423 16.4766 13.281 16.7833L16.129 17.3539C18.0028 17.7221 19.5415 18.2313 20.7452 18.8817C21.9489 19.5321 22.8362 20.3542 23.407 21.3482C23.9902 22.3299 24.2819 23.514 24.2819 24.9007V24.9191C24.2819 26.6247 23.8475 28.1034 22.9789 29.3551C22.1226 30.5944 20.8817 31.5577 19.2561 32.2449C18.3812 32.6109 17.4115 32.8777 16.3469 33.0452V36.7987H11.3663L11.3663 33.1498C10.0896 33.0117 8.9285 32.7408 7.88298 32.3369C6.307 31.7111 5.06607 30.8215 4.16019 29.668C3.25431 28.5022 2.74553 27.1033 2.63385 25.4713L2.61523 25.1768H7.92021L7.95743 25.3792C8.08153 26.0664 8.39176 26.6616 8.88813 27.1647C9.39691 27.6555 10.0546 28.0421 10.8612 28.3243C11.6678 28.5943 12.5799 28.7292 13.5975 28.7292C14.6398 28.7292 15.5333 28.5943 16.2779 28.3243C17.0348 28.0421 17.6181 27.6494 18.0276 27.1463C18.4495 26.6309 18.6604 26.0357 18.6604 25.3608V25.3424C18.6604 24.4466 18.3006 23.7472 17.5808 23.2441C16.8735 22.7287 15.6822 22.2992 14.007 21.9556L11.1776 21.4034C8.53447 20.8757 6.54277 19.9861 5.20257 18.7344C3.86237 17.4828 3.19227 15.8569 3.19227 13.8567V13.8383C3.19227 12.2185 3.6328 10.8073 4.51386 9.60474C5.39492 8.3899 6.60482 7.45117 8.14357 6.78853C9.12666 6.35734 10.2009 6.06389 11.3663 5.90818L11.3663 2.32336L16.3469 2.32336V6.01948Z" fill="currentColor"/>
</svg>
