<svg width="18" height="18" viewBox="0 0 18 18" fill="none" xmlns="http://www.w3.org/2000/svg">
<path fill-rule="evenodd" clip-rule="evenodd" d="M2 2C1.44772 2 1 2.44772 1 3V4C1 4.55228 1.44772 5 2 5H16C16.5523 5 17 4.55228 17 4V3C17 2.44772 16.5523 2 16 2H2ZM2.5 6.5H15.5V13.5C15.5 14.8807 14.3807 16 13 16H5C3.61929 16 2.5 14.8807 2.5 13.5V6.5ZM6 9C6 8.72386 6.22386 8.5 6.5 8.5H11.5C11.7761 8.5 12 8.72386 12 9V9.5C12 9.77614 11.7761 10 11.5 10H6.5C6.22386 10 6 9.77614 6 9.5V9Z" fill="black"/>
</svg>
