<svg width="18" height="18" viewBox="0 0 18 18" fill="none" xmlns="http://www.w3.org/2000/svg">
<mask id="path-1-inside-1" fill="white">
<path fill-rule="evenodd" clip-rule="evenodd" d="M12.1332 16.3632C11.1709 16.7731 10.112 17 9 17C4.58172 17 1 13.4183 1 9C1 4.58172 4.58172 1 9 1C13.4183 1 17 4.58172 17 9C17 11.6173 15.7432 13.941 13.8001 15.4005V15.4005C13.4881 15.6349 13.1583 15.847 12.8133 16.0344C12.5926 16.1543 12.3657 16.2641 12.1332 16.3632ZM9.00004 9.39998C10.3255 9.39998 11.4 8.23592 11.4 6.79998C11.4 5.36404 10.3255 4.19998 9.00004 4.19998C7.67456 4.19998 6.60004 5.36404 6.60004 6.79998C6.60004 8.23592 7.67456 9.39998 9.00004 9.39998ZM8.99989 15.4001C10.7295 15.4001 12.2989 14.7139 13.4507 13.599C12.7384 11.8404 11.0141 10.6 9.00009 10.6C6.98597 10.6 5.26159 11.8406 4.54932 13.5992C5.7011 14.714 7.27038 15.4001 8.99989 15.4001Z"/>
</mask>
<path fill-rule="evenodd" clip-rule="evenodd" d="M12.1332 16.3632C11.1709 16.7731 10.112 17 9 17C4.58172 17 1 13.4183 1 9C1 4.58172 4.58172 1 9 1C13.4183 1 17 4.58172 17 9C17 11.6173 15.7432 13.941 13.8001 15.4005V15.4005C13.4881 15.6349 13.1583 15.847 12.8133 16.0344C12.5926 16.1543 12.3657 16.2641 12.1332 16.3632ZM9.00004 9.39998C10.3255 9.39998 11.4 8.23592 11.4 6.79998C11.4 5.36404 10.3255 4.19998 9.00004 4.19998C7.67456 4.19998 6.60004 5.36404 6.60004 6.79998C6.60004 8.23592 7.67456 9.39998 9.00004 9.39998ZM8.99989 15.4001C10.7295 15.4001 12.2989 14.7139 13.4507 13.599C12.7384 11.8404 11.0141 10.6 9.00009 10.6C6.98597 10.6 5.26159 11.8406 4.54932 13.5992C5.7011 14.714 7.27038 15.4001 8.99989 15.4001Z" fill="black"/>
<path d="M12.1332 16.3632L11.3492 14.5232L12.1332 16.3632ZM13.8001 15.4005H11.8001V19.4042L15.0013 16.9996L13.8001 15.4005ZM13.8001 15.4005H15.8001V11.3967L12.5989 13.8014L13.8001 15.4005ZM12.8133 16.0344L13.768 17.7919L13.768 17.7919L12.8133 16.0344ZM13.4507 13.599L14.8418 15.036L15.8107 14.098L15.3044 12.8481L13.4507 13.599ZM4.54932 13.5992L2.69558 12.8485L2.18935 14.0984L3.15837 15.0363L4.54932 13.5992ZM9 19C10.3863 19 11.7115 18.7168 12.9171 18.2031L11.3492 14.5232C10.6303 14.8295 9.83767 15 9 15V19ZM-1 9C-1 14.5228 3.47715 19 9 19V15C5.68629 15 3 12.3137 3 9H-1ZM9 -1C3.47715 -1 -1 3.47715 -1 9H3C3 5.68629 5.68629 3 9 3V-1ZM19 9C19 3.47715 14.5228 -1 9 -1V3C12.3137 3 15 5.68629 15 9H19ZM15.0013 16.9996C17.4256 15.1786 19 12.2729 19 9H15C15 10.9617 14.0607 12.7034 12.5989 13.8014L15.0013 16.9996ZM15.8001 15.4005V15.4005H11.8001V15.4005H15.8001ZM12.5989 13.8014C12.3645 13.9774 12.1171 14.1365 11.8586 14.277L13.768 17.7919C14.1995 17.5574 14.6116 17.2923 15.0013 16.9996L12.5989 13.8014ZM12.9171 18.2031C13.2082 18.0791 13.4921 17.9418 13.768 17.7919L11.8586 14.277C11.6932 14.3668 11.5233 14.449 11.3492 14.5232L12.9171 18.2031ZM9.40004 6.79998C9.40004 7.01655 9.31985 7.18185 9.22749 7.2819C9.13763 7.37925 9.05614 7.39998 9.00004 7.39998V11.4C11.5778 11.4 13.4 9.18675 13.4 6.79998H9.40004ZM9.00004 6.19998C9.05614 6.19998 9.13763 6.22071 9.22749 6.31806C9.31985 6.41811 9.40004 6.58341 9.40004 6.79998H13.4C13.4 4.41321 11.5778 2.19998 9.00004 2.19998V6.19998ZM8.60004 6.79998C8.60004 6.58341 8.68024 6.41811 8.77259 6.31806C8.86246 6.22071 8.94395 6.19998 9.00004 6.19998V2.19998C6.42228 2.19998 4.60004 4.41321 4.60004 6.79998H8.60004ZM9.00004 7.39998C8.94395 7.39998 8.86246 7.37925 8.77259 7.28189C8.68024 7.18184 8.60004 7.01655 8.60004 6.79998H4.60004C4.60004 9.18675 6.42228 11.4 9.00004 11.4V7.39998ZM12.0597 12.162C11.2659 12.9304 10.1898 13.4001 8.99989 13.4001V17.4001C11.2693 17.4001 13.332 16.4975 14.8418 15.036L12.0597 12.162ZM9.00009 12.6C10.1718 12.6 11.18 13.3204 11.597 14.3498L15.3044 12.8481C14.2968 10.3605 11.8564 8.60004 9.00009 8.60004V12.6ZM6.40306 14.35C6.82004 13.3204 7.82833 12.6 9.00009 12.6V8.60004C6.1436 8.60004 3.70313 10.3607 2.69558 12.8485L6.40306 14.35ZM8.99989 13.4001C7.81008 13.4001 6.73407 12.9304 5.94027 12.1621L3.15837 15.0363C4.66812 16.4976 6.73068 17.4001 8.99989 17.4001V13.4001Z" fill="black" mask="url(#path-1-inside-1)"/>
</svg>
