<svg width="16" height="16" viewBox="0 0 16 16" fill="none" xmlns="http://www.w3.org/2000/svg">
<path d="M11.3333 7.3335V8.66683H10.5533L13.56 11.6735C14.26 10.6202 14.6667 9.36016 14.6667 8.00016C14.6667 4.32016 11.68 1.3335 8.00001 1.3335C6.64001 1.3335 5.38001 1.74016 4.32668 2.44016L9.22001 7.3335H11.3333ZM0.926682 2.8135L2.44001 4.32683C1.74001 5.38016 1.33335 6.64016 1.33335 8.00016C1.33335 11.6802 4.32001 14.6668 8.00001 14.6668C9.36001 14.6668 10.62 14.2602 11.6733 13.5602L13.1867 15.0735L14.1267 14.1335L1.87335 1.8735L0.926682 2.8135ZM4.66668 7.3335H5.44668L6.78001 8.66683H4.66668V7.3335Z" fill="#737D8C"/>
</svg>
