<svg width="18" height="18" viewBox="0 0 18 18" fill="none" xmlns="http://www.w3.org/2000/svg">
<path d="M2 9.27V3.05L9 1L16 3.05V9.27C16 15.63 9 17 9 17C9 17 2 15.63 2 9.27Z" fill="#010101"/>
<path d="M12.6105 5.5396C12.4305 5.3496 12.1305 5.3396 11.9405 5.5196L7.67047 9.5196L6.10047 8.4196C5.89047 8.2796 5.60047 8.2796 5.40047 8.4596C5.16047 8.6596 5.14047 9.0196 5.34047 9.2596L7.15047 11.3396C7.18047 11.3696 7.21047 11.4096 7.25047 11.4296C7.59047 11.7096 8.10047 11.6596 8.38047 11.3196L8.41047 11.2796L12.6305 6.1696C12.7705 5.9896 12.7705 5.7196 12.6105 5.5396Z" fill="white"/>
</svg>
