<svg width="18" height="18" viewBox="0 0 18 18" fill="none" xmlns="http://www.w3.org/2000/svg">
<path d="M2 9.27V3.05L9 1L16 3.05V9.27C16 15.63 9 17 9 17C9 17 2 15.63 2 9.27Z" fill="#020202"/>
<path d="M8.92011 4.39997C8.35011 4.43997 7.93011 4.93997 7.98011 5.50997L8.30011 9.50997C8.33011 9.85997 8.60011 10.13 8.95011 10.16C8.97011 10.16 8.99011 10.16 9.01011 10.16C9.38011 10.16 9.69011 9.87997 9.72011 9.50997L10.0401 5.50997C10.0401 5.45997 10.0401 5.39997 10.0401 5.34997C9.98011 4.77997 9.48011 4.35997 8.92011 4.39997Z" fill="white"/>
<path d="M9.00012 13C9.48613 13 9.88012 12.606 9.88012 12.12C9.88012 11.634 9.48613 11.24 9.00012 11.24C8.51411 11.24 8.12012 11.634 8.12012 12.12C8.12012 12.606 8.51411 13 9.00012 13Z" fill="white"/>
</svg>
