<svg width="18" height="18" viewBox="0 0 18 18" fill="none" xmlns="http://www.w3.org/2000/svg">
<mask id="path-1-inside-1" fill="white">
<path fill-rule="evenodd" clip-rule="evenodd" d="M17 9C17 13.4183 13.4183 17 9 17C4.58172 17 1 13.4183 1 9C1 4.58172 4.58172 1 9 1C13.4183 1 17 4.58172 17 9ZM6.85231 7.13323L8.0052 5.98033C8.2981 5.68744 8.2981 5.21256 8.0052 4.91967C7.71231 4.62678 7.23744 4.62678 6.94454 4.91967L4.46967 7.39454C4.17678 7.68744 4.17678 8.16231 4.46967 8.4552L6.94454 10.9301C7.23744 11.223 7.71231 11.223 8.0052 10.9301C8.2981 10.6372 8.2981 10.1623 8.0052 9.86942L6.76901 8.63323H10.3537C11.0454 8.63323 11.725 9.27325 11.725 10.2166C11.725 11.1599 11.0454 11.7999 10.3537 11.7999H9.36384C8.94962 11.7999 8.61384 12.1357 8.61384 12.5499C8.61384 12.9641 8.94962 13.2999 9.36384 13.2999H10.3537C12.0051 13.2999 13.225 11.8506 13.225 10.2166C13.225 8.58255 12.0051 7.13323 10.3537 7.13323H6.85231Z"/>
</mask>
<path fill-rule="evenodd" clip-rule="evenodd" d="M17 9C17 13.4183 13.4183 17 9 17C4.58172 17 1 13.4183 1 9C1 4.58172 4.58172 1 9 1C13.4183 1 17 4.58172 17 9ZM6.85231 7.13323L8.0052 5.98033C8.2981 5.68744 8.2981 5.21256 8.0052 4.91967C7.71231 4.62678 7.23744 4.62678 6.94454 4.91967L4.46967 7.39454C4.17678 7.68744 4.17678 8.16231 4.46967 8.4552L6.94454 10.9301C7.23744 11.223 7.71231 11.223 8.0052 10.9301C8.2981 10.6372 8.2981 10.1623 8.0052 9.86942L6.76901 8.63323H10.3537C11.0454 8.63323 11.725 9.27325 11.725 10.2166C11.725 11.1599 11.0454 11.7999 10.3537 11.7999H9.36384C8.94962 11.7999 8.61384 12.1357 8.61384 12.5499C8.61384 12.9641 8.94962 13.2999 9.36384 13.2999H10.3537C12.0051 13.2999 13.225 11.8506 13.225 10.2166C13.225 8.58255 12.0051 7.13323 10.3537 7.13323H6.85231Z" fill="black"/>
<path d="M8.0052 5.98033L7.29995 5.27508L7.29995 5.27508L8.0052 5.98033ZM6.85231 7.13323L6.14705 6.42797L4.44442 8.13061H6.85231V7.13323ZM6.94454 4.91967L7.6498 5.62492L6.94454 4.91967ZM4.46967 7.39454L3.76442 6.68929L3.76442 6.68929L4.46967 7.39454ZM4.46967 8.4552L3.76442 9.16046H3.76442L4.46967 8.4552ZM6.94454 10.9301L7.6498 10.2248L7.6498 10.2248L6.94454 10.9301ZM6.76901 8.63323V7.63585H4.36113L6.06376 9.33848L6.76901 8.63323ZM9 17.9974C13.9691 17.9974 17.9974 13.9691 17.9974 9H16.0026C16.0026 12.8674 12.8674 16.0026 9 16.0026V17.9974ZM0.00262225 9C0.00262225 13.9691 4.03089 17.9974 9 17.9974V16.0026C5.13256 16.0026 1.99738 12.8674 1.99738 9H0.00262225ZM9 0.00262225C4.03089 0.00262225 0.00262225 4.03089 0.00262225 9H1.99738C1.99738 5.13256 5.13256 1.99738 9 1.99738V0.00262225ZM17.9974 9C17.9974 4.03089 13.9691 0.00262225 9 0.00262225V1.99738C12.8674 1.99738 16.0026 5.13256 16.0026 9H17.9974ZM7.29995 5.27508L6.14705 6.42797L7.55756 7.83848L8.71046 6.68558L7.29995 5.27508ZM7.29995 5.62492C7.20334 5.52832 7.20334 5.37168 7.29995 5.27508L8.71046 6.68558C9.39285 6.00319 9.39285 4.89681 8.71046 4.21442L7.29995 5.62492ZM7.6498 5.62492C7.55319 5.72153 7.39656 5.72153 7.29995 5.62492L8.71046 4.21442C8.02806 3.53202 6.92168 3.53202 6.23929 4.21442L7.6498 5.62492ZM5.17492 8.0998L7.6498 5.62492L6.23929 4.21442L3.76442 6.68929L5.17492 8.0998ZM5.17492 7.74995C5.27153 7.84656 5.27153 8.00319 5.17492 8.0998L3.76442 6.68929C3.08202 7.37169 3.08202 8.47806 3.76442 9.16046L5.17492 7.74995ZM7.6498 10.2248L5.17492 7.74995L3.76442 9.16046L6.23929 11.6353L7.6498 10.2248ZM7.29995 10.2248C7.39656 10.1282 7.55319 10.1282 7.6498 10.2248L6.23929 11.6353C6.92168 12.3177 8.02806 12.3177 8.71046 11.6353L7.29995 10.2248ZM7.29995 10.5747C7.20334 10.4781 7.20334 10.3214 7.29995 10.2248L8.71046 11.6353C9.39285 10.9529 9.39285 9.84656 8.71046 9.16416L7.29995 10.5747ZM6.06376 9.33848L7.29995 10.5747L8.71046 9.16416L7.47427 7.92797L6.06376 9.33848ZM6.76901 9.6306H10.3537V7.63585H6.76901V9.6306ZM10.3537 9.6306C10.4202 9.6306 10.7276 9.74669 10.7276 10.2166H12.7223C12.7223 8.79981 11.6705 7.63585 10.3537 7.63585V9.6306ZM10.7276 10.2166C10.7276 10.6865 10.4202 10.8025 10.3537 10.8025V12.7973C11.6705 12.7973 12.7223 11.6333 12.7223 10.2166H10.7276ZM10.3537 10.8025H9.36384V12.7973H10.3537V10.8025ZM9.36384 10.8025C8.39879 10.8025 7.61646 11.5849 7.61646 12.5499H9.61121C9.61121 12.6865 9.50046 12.7973 9.36384 12.7973V10.8025ZM7.61646 12.5499C7.61646 13.515 8.39879 14.2973 9.36384 14.2973V12.3025C9.50046 12.3025 9.61121 12.4133 9.61121 12.5499H7.61646ZM9.36384 14.2973H10.3537V12.3025H9.36384V14.2973ZM10.3537 14.2973C12.6497 14.2973 14.2223 12.3028 14.2223 10.2166H12.2276C12.2276 11.3984 11.3606 12.3025 10.3537 12.3025V14.2973ZM14.2223 10.2166C14.2223 8.13036 12.6497 6.13585 10.3537 6.13585V8.13061C11.3606 8.13061 12.2276 9.03475 12.2276 10.2166H14.2223ZM10.3537 6.13585H6.85231V8.13061H10.3537V6.13585Z" fill="black" mask="url(#path-1-inside-1)"/>
</svg>
