<svg width="16" height="16" viewBox="0 0 16 16" fill="none" xmlns="http://www.w3.org/2000/svg">
<path fill-rule="evenodd" clip-rule="evenodd" d="M11.393 1.00573C11.9421 1.06434 12.3398 1.55703 12.2812 2.1062L12.0245 4.51168H13.8482C14.4005 4.51168 14.8482 4.95939 14.8482 5.51168C14.8482 6.06396 14.4005 6.51168 13.8482 6.51168H13.0089C12.5534 5.89782 11.8231 5.5 11 5.5C10.1769 5.5 9.44663 5.89782 8.9911 6.51168H6.36673L6.05542 9.42868C5.70806 9.85802 5.5 10.4047 5.5 11C5.5 11.4052 5.5964 11.7879 5.76753 12.1264L5.55616 14.107C5.49755 14.6562 5.00485 15.0538 4.45569 14.9952C3.90652 14.9366 3.50884 14.4439 3.56745 13.8948L3.79318 11.7796H2.0005C1.44822 11.7796 1.0005 11.3319 1.0005 10.7796C1.0005 10.2273 1.44822 9.77962 2.0005 9.77962H4.00661L4.35537 6.51168H2.64188C2.0896 6.51168 1.64188 6.06396 1.64188 5.51168C1.64188 4.95939 2.0896 4.51168 2.64188 4.51168H4.56881L4.84817 1.89397C4.90677 1.3448 5.39947 0.947122 5.94864 1.00573C6.49781 1.06434 6.89548 1.55703 6.83688 2.1062L6.58016 4.51168H10.0131L10.2925 1.89397C10.3511 1.3448 10.8438 0.947122 11.393 1.00573Z" fill="#737D8C"/>
<path d="M8 11H14" stroke="#737D8C" stroke-width="2" stroke-linecap="round"/>
<path d="M11 8L11 14" stroke="#737D8C" stroke-width="2" stroke-linecap="round"/>
</svg>
