<svg width="18" height="18" viewBox="0 0 18 18" fill="none" xmlns="http://www.w3.org/2000/svg">
    <mask id="path-1-inside-1" fill="white">
        <path fill-rule="evenodd" clip-rule="evenodd" d="M9 17C13.4183 17 17 13.4183 17 9C17 4.58172 13.4183 1 9 1C4.58172 1 1 4.58172 1 9C1 13.4183 4.58172 17 9 17ZM8.33969 5.15616C8.38275 4.74419 8.0837 4.37532 7.67173 4.33225C7.25976 4.28918 6.89088 4.58824 6.84781 5.00021L6.68776 6.53131H5.65625C5.24204 6.53131 4.90625 6.8671 4.90625 7.28131C4.90625 7.69552 5.24204 8.03131 5.65625 8.03131H6.53095L6.32841 9.96881H5.39062C4.97641 9.96881 4.64062 10.3046 4.64062 10.7188C4.64062 11.133 4.97641 11.4688 5.39062 11.4688H6.17161L6.01969 12.9221C5.97662 13.3341 6.27568 13.7029 6.68765 13.746C7.09962 13.7891 7.46849 13.49 7.51156 13.078L7.67978 11.4688H9.49973L9.34781 12.9221C9.30475 13.3341 9.6038 13.7029 10.0158 13.746C10.4277 13.7891 10.7966 13.49 10.8397 13.078L11.0079 11.4688H12.2969C12.7111 11.4688 13.0469 11.133 13.0469 10.7188C13.0469 10.3046 12.7111 9.96881 12.2969 9.96881H11.1647L11.3673 8.03131H12.2969C12.7111 8.03131 13.0469 7.69552 13.0469 7.28131C13.0469 6.8671 12.7111 6.53131 12.2969 6.53131H11.5241L11.6678 5.15616C11.7109 4.74419 11.4118 4.37532 10.9999 4.33225C10.5879 4.28918 10.219 4.58824 10.1759 5.00021L10.0159 6.53131H8.19593L8.33969 5.15616ZM9.65654 9.96881H7.83659L8.03913 8.03131H9.85908L9.65654 9.96881Z"/>
    </mask>
    <path fill-rule="evenodd" clip-rule="evenodd" d="M9 17C13.4183 17 17 13.4183 17 9C17 4.58172 13.4183 1 9 1C4.58172 1 1 4.58172 1 9C1 13.4183 4.58172 17 9 17ZM8.33969 5.15616C8.38275 4.74419 8.0837 4.37532 7.67173 4.33225C7.25976 4.28918 6.89088 4.58824 6.84781 5.00021L6.68776 6.53131H5.65625C5.24204 6.53131 4.90625 6.8671 4.90625 7.28131C4.90625 7.69552 5.24204 8.03131 5.65625 8.03131H6.53095L6.32841 9.96881H5.39062C4.97641 9.96881 4.64062 10.3046 4.64062 10.7188C4.64062 11.133 4.97641 11.4688 5.39062 11.4688H6.17161L6.01969 12.9221C5.97662 13.3341 6.27568 13.7029 6.68765 13.746C7.09962 13.7891 7.46849 13.49 7.51156 13.078L7.67978 11.4688H9.49973L9.34781 12.9221C9.30475 13.3341 9.6038 13.7029 10.0158 13.746C10.4277 13.7891 10.7966 13.49 10.8397 13.078L11.0079 11.4688H12.2969C12.7111 11.4688 13.0469 11.133 13.0469 10.7188C13.0469 10.3046 12.7111 9.96881 12.2969 9.96881H11.1647L11.3673 8.03131H12.2969C12.7111 8.03131 13.0469 7.69552 13.0469 7.28131C13.0469 6.8671 12.7111 6.53131 12.2969 6.53131H11.5241L11.6678 5.15616C11.7109 4.74419 11.4118 4.37532 10.9999 4.33225C10.5879 4.28918 10.219 4.58824 10.1759 5.00021L10.0159 6.53131H8.19593L8.33969 5.15616ZM9.65654 9.96881H7.83659L8.03913 8.03131H9.85908L9.65654 9.96881Z" fill="currentColor"/>
    <path d="M7.67173 4.33225L7.5331 5.65836H7.5331L7.67173 4.33225ZM8.33969 5.15616L9.66579 5.29479V5.29479L8.33969 5.15616ZM6.84781 5.00021L5.52171 4.86158L5.52171 4.86158L6.84781 5.00021ZM6.68776 6.53131V7.86464H7.88898L8.01387 6.66994L6.68776 6.53131ZM6.53095 8.03131L7.85706 8.16994L8.01093 6.69798H6.53095V8.03131ZM6.32841 9.96881V11.3021H7.52963L7.65452 10.1074L6.32841 9.96881ZM6.17161 11.4688L7.49772 11.6074L7.65159 10.1355H6.17161V11.4688ZM6.01969 12.9221L4.69358 12.7835V12.7835L6.01969 12.9221ZM6.68765 13.746L6.82628 12.4199H6.82627L6.68765 13.746ZM7.51156 13.078L8.83767 13.2167L8.83767 13.2167L7.51156 13.078ZM7.67978 11.4688V10.1355H6.47857L6.35368 11.3302L7.67978 11.4688ZM9.49973 11.4688L10.8258 11.6074L10.9797 10.1355H9.49973V11.4688ZM9.34781 12.9221L10.6739 13.0607V13.0607L9.34781 12.9221ZM10.0158 13.746L10.1544 12.4199H10.1544L10.0158 13.746ZM10.8397 13.078L12.1658 13.2167V13.2167L10.8397 13.078ZM11.0079 11.4688V10.1355H9.80669L9.6818 11.3302L11.0079 11.4688ZM11.1647 9.96881L9.83861 9.83018L9.68473 11.3021H11.1647V9.96881ZM11.3673 8.03131V6.69798H10.166L10.0411 7.89268L11.3673 8.03131ZM11.5241 6.53131L10.198 6.39268L10.0441 7.86464H11.5241V6.53131ZM11.6678 5.15616L10.3417 5.01754V5.01754L11.6678 5.15616ZM10.9999 4.33225L11.1385 3.00614H11.1385L10.9999 4.33225ZM10.1759 5.00021L8.84983 4.86158L8.84983 4.86158L10.1759 5.00021ZM10.0159 6.53131V7.86464H11.2171L11.342 6.66994L10.0159 6.53131ZM8.19593 6.53131L6.86982 6.39268L6.71595 7.86464H8.19593V6.53131ZM7.83659 9.96881L6.51048 9.83018L6.35661 11.3021H7.83659V9.96881ZM9.65654 9.96881V11.3021H10.8578L10.9826 10.1074L9.65654 9.96881ZM8.03913 8.03131V6.69798H6.83791L6.71302 7.89268L8.03913 8.03131ZM9.85908 8.03131L11.1852 8.16994L11.3391 6.69798H9.85908V8.03131ZM15.6667 9C15.6667 12.6819 12.6819 15.6667 9 15.6667V18.3333C14.1547 18.3333 18.3333 14.1547 18.3333 9H15.6667ZM9 2.33333C12.6819 2.33333 15.6667 5.3181 15.6667 9H18.3333C18.3333 3.84534 14.1547 -0.333333 9 -0.333333V2.33333ZM2.33333 9C2.33333 5.3181 5.3181 2.33333 9 2.33333V-0.333333C3.84534 -0.333333 -0.333333 3.84534 -0.333333 9H2.33333ZM9 15.6667C5.3181 15.6667 2.33333 12.6819 2.33333 9H-0.333333C-0.333333 14.1547 3.84534 18.3333 9 18.3333V15.6667ZM7.5331 5.65836C7.21268 5.62486 6.98008 5.33796 7.01358 5.01754L9.66579 5.29479C9.78542 4.15043 8.95471 3.12577 7.81035 3.00614L7.5331 5.65836ZM8.17392 5.13884C8.14043 5.45925 7.85352 5.69185 7.5331 5.65836L7.81035 3.00614C6.666 2.88652 5.64134 3.71722 5.52171 4.86158L8.17392 5.13884ZM8.01387 6.66994L8.17392 5.13883L5.52171 4.86158L5.36165 6.39268L8.01387 6.66994ZM5.65625 7.86464H6.68776V5.19798H5.65625V7.86464ZM6.23958 7.28131C6.23958 7.60348 5.97842 7.86464 5.65625 7.86464V5.19798C4.50566 5.19798 3.57292 6.13072 3.57292 7.28131H6.23958ZM5.65625 6.69798C5.97842 6.69798 6.23958 6.95914 6.23958 7.28131H3.57292C3.57292 8.4319 4.50566 9.36464 5.65625 9.36464V6.69798ZM6.53095 6.69798H5.65625V9.36464H6.53095V6.69798ZM7.65452 10.1074L7.85706 8.16994L5.20485 7.89268L5.00231 9.83018L7.65452 10.1074ZM5.39062 11.3021H6.32841V8.63548H5.39062V11.3021ZM5.97396 10.7188C5.97396 11.041 5.71279 11.3021 5.39062 11.3021V8.63548C4.24003 8.63548 3.30729 9.56822 3.30729 10.7188H5.97396ZM5.39062 10.1355C5.71279 10.1355 5.97396 10.3966 5.97396 10.7188H3.30729C3.30729 11.8694 4.24003 12.8021 5.39062 12.8021V10.1355ZM6.17161 10.1355H5.39062V12.8021H6.17161V10.1355ZM7.3458 13.0607L7.49772 11.6074L4.8455 11.3302L4.69358 12.7835L7.3458 13.0607ZM6.82627 12.4199C7.14669 12.4534 7.37929 12.7403 7.3458 13.0607L4.69358 12.7835C4.57396 13.9278 5.40466 14.9525 6.54902 15.0721L6.82627 12.4199ZM6.18545 12.9394C6.21895 12.619 6.50585 12.3864 6.82628 12.4199L6.54902 15.0721C7.69338 15.1917 8.71804 14.361 8.83767 13.2167L6.18545 12.9394ZM6.35368 11.3302L6.18545 12.9394L8.83767 13.2167L9.00589 11.6074L6.35368 11.3302ZM9.49973 10.1355H7.67978V12.8021H9.49973V10.1355ZM10.6739 13.0607L10.8258 11.6074L8.17363 11.3302L8.02171 12.7835L10.6739 13.0607ZM10.1544 12.4199C10.4748 12.4534 10.7074 12.7403 10.6739 13.0607L8.02171 12.7835C7.90208 13.9278 8.73279 14.9525 9.87715 15.0721L10.1544 12.4199ZM9.51358 12.9394C9.54707 12.619 9.83398 12.3864 10.1544 12.4199L9.87714 15.0721C11.0215 15.1917 12.0462 14.361 12.1658 13.2167L9.51358 12.9394ZM9.6818 11.3302L9.51358 12.9394L12.1658 13.2167L12.334 11.6074L9.6818 11.3302ZM12.2969 10.1355H11.0079V12.8021H12.2969V10.1355ZM11.7135 10.7188C11.7135 10.3966 11.9747 10.1355 12.2969 10.1355V12.8021C13.4475 12.8021 14.3802 11.8694 14.3802 10.7188H11.7135ZM12.2969 11.3021C11.9747 11.3021 11.7135 11.041 11.7135 10.7188H14.3802C14.3802 9.56822 13.4475 8.63548 12.2969 8.63548V11.3021ZM11.1647 11.3021H12.2969V8.63548H11.1647V11.3021ZM10.0411 7.89268L9.83861 9.83018L12.4908 10.1074L12.6934 8.16994L10.0411 7.89268ZM12.2969 6.69798H11.3673V9.36464H12.2969V6.69798ZM11.7135 7.28131C11.7135 6.95914 11.9747 6.69798 12.2969 6.69798V9.36464C13.4475 9.36464 14.3802 8.4319 14.3802 7.28131H11.7135ZM12.2969 7.86464C11.9747 7.86464 11.7135 7.60348 11.7135 7.28131H14.3802C14.3802 6.13072 13.4475 5.19798 12.2969 5.19798V7.86464ZM11.5241 7.86464H12.2969V5.19798H11.5241V7.86464ZM10.3417 5.01754L10.198 6.39268L12.8502 6.66994L12.9939 5.29479L10.3417 5.01754ZM10.8612 5.65836C10.5408 5.62486 10.3082 5.33796 10.3417 5.01754L12.9939 5.29479C13.1135 4.15043 12.2828 3.12577 11.1385 3.00614L10.8612 5.65836ZM11.502 5.13884C11.4686 5.45925 11.1816 5.69185 10.8612 5.65836L11.1385 3.00614C9.99412 2.88652 8.96946 3.71722 8.84983 4.86158L11.502 5.13884ZM11.342 6.66994L11.502 5.13883L8.84983 4.86158L8.68978 6.39268L11.342 6.66994ZM8.19593 7.86464H10.0159V5.19798H8.19593V7.86464ZM7.01358 5.01754L6.86982 6.39268L9.52204 6.66994L9.66579 5.29479L7.01358 5.01754ZM7.83659 11.3021H9.65654V8.63548H7.83659V11.3021ZM6.71302 7.89268L6.51048 9.83018L9.16269 10.1074L9.36523 8.16994L6.71302 7.89268ZM9.85908 6.69798H8.03913V9.36464H9.85908V6.69798ZM10.9826 10.1074L11.1852 8.16994L8.53297 7.89268L8.33043 9.83018L10.9826 10.1074Z" fill="currentColor" mask="url(#path-1-inside-1)"/>
</svg>
