<svg width="16" height="16" viewBox="0 0 16 16" fill="none" xmlns="http://www.w3.org/2000/svg">
<path fill-rule="evenodd" clip-rule="evenodd" d="M10.393 1.0028C10.9421 1.06141 11.3398 1.5541 11.2812 2.10327L11.0245 4.50875H12.8482C13.4005 4.50875 13.8482 4.95647 13.8482 5.50875C13.8482 6.06103 13.4005 6.50875 12.8482 6.50875H12.6234C12.0135 6.18307 11.3277 6.00024 10.6028 6.00024C9.87794 6.00024 9.19219 6.18307 8.58222 6.50875H5.36673L5.01797 9.77669H6.14293C6.04993 10.1746 6.0005 10.5915 6.0005 11.0209C6.0005 11.2778 6.01819 11.5302 6.0523 11.7767H4.80453L4.55616 14.1041C4.49755 14.6532 4.00485 15.0509 3.45569 14.9923C2.90652 14.9337 2.50884 14.441 2.56745 13.8918L2.79318 11.7767H1.0005C0.448219 11.7767 0.00050354 11.329 0.00050354 10.7767C0.00050354 10.2244 0.448219 9.77669 1.0005 9.77669H3.00661L3.35537 6.50875H1.64188C1.0896 6.50875 0.64188 6.06103 0.64188 5.50875C0.64188 4.95647 1.0896 4.50875 1.64188 4.50875H3.56881L3.84817 1.89104C3.90677 1.34187 4.39947 0.944193 4.94864 1.0028C5.49781 1.06141 5.89548 1.5541 5.83688 2.10327L5.58016 4.50875H9.01315L9.29251 1.89104C9.35111 1.34187 9.84381 0.944193 10.393 1.0028Z" fill="#737D8C"/>
<path fill-rule="evenodd" clip-rule="evenodd" d="M12.3731 10.6811C12.3731 11.6155 11.6156 12.3731 10.6811 12.3731C9.74669 12.3731 8.98917 11.6155 8.98917 10.6811C8.98917 9.74667 9.74669 8.98915 10.6811 8.98915C11.6156 8.98915 12.3731 9.74667 12.3731 10.6811ZM13.5542 12.3993C13.8552 11.897 14.0283 11.3093 14.0283 10.6811C14.0283 8.83254 12.5297 7.33398 10.6811 7.33398C8.83255 7.33398 7.33398 8.83254 7.33398 10.6811C7.33398 12.5297 8.83255 14.0282 10.6811 14.0282C11.3093 14.0282 11.897 13.8552 12.3992 13.5542C12.4251 13.5903 12.4543 13.6247 12.4867 13.6571L13.9212 15.0916C14.2444 15.4148 14.7684 15.4148 15.0916 15.0916C15.4148 14.7684 15.4148 14.2444 15.0916 13.9212L13.6571 12.4867C13.6247 12.4543 13.5903 12.4252 13.5542 12.3993Z" fill="#737D8C"/>
</svg>
