<svg width="16" height="16" viewBox="0 0 16 16" fill="none" xmlns="http://www.w3.org/2000/svg">
<path fill-rule="evenodd" clip-rule="evenodd" d="M11.393 1.00262C11.9421 1.06122 12.3398 1.55392 12.2812 2.10309L12.0245 4.50857H13.8482C14.4004 4.50857 14.8482 4.95628 14.8482 5.50857C14.8482 6.06085 14.4004 6.50857 13.8482 6.50857H13.0598C12.6805 5.45391 11.6713 4.69975 10.486 4.69975C9.30072 4.69975 8.29156 5.45391 7.91221 6.50857H6.36671L6.19745 8.09457C5.28778 8.53869 4.66113 9.47279 4.66113 10.5533C4.66113 11.4255 5.06957 12.2024 5.70563 12.7031L5.55614 14.1039C5.49753 14.6531 5.00484 15.0507 4.45567 14.9921C3.9065 14.9335 3.50883 14.4408 3.56743 13.8917L3.79316 11.7765H2.00049C1.4482 11.7765 1.00049 11.3288 1.00049 10.7765C1.00049 10.2242 1.4482 9.77651 2.00049 9.77651H4.0066L4.35535 6.50857H2.64186C2.08958 6.50857 1.64186 6.06085 1.64186 5.50857C1.64186 4.95628 2.08958 4.50857 2.64186 4.50857H4.56879L4.84815 1.89085C4.90676 1.34169 5.39946 0.94401 5.94862 1.00262C6.49779 1.06122 6.89547 1.55392 6.83686 2.10309L6.58015 4.50857H10.0131L10.2925 1.89085C10.3511 1.34169 10.8438 0.94401 11.393 1.00262Z" fill="black"/>
<path fill-rule="evenodd" clip-rule="evenodd" d="M11.4108 7.28091C11.4108 6.72863 10.963 6.28091 10.4108 6.28091C9.85847 6.28091 9.41076 6.72863 9.41076 7.28091L9.41076 9.44016H7.28076C6.72848 9.44016 6.28076 9.88787 6.28076 10.4402C6.28076 10.9924 6.72848 11.4402 7.28076 11.4402H9.41076L9.41076 13.5994C9.41076 14.1517 9.85847 14.5994 10.4108 14.5994C10.963 14.5994 11.4108 14.1517 11.4108 13.5994V11.4402H13.539C14.0913 11.4402 14.539 10.9924 14.539 10.4402C14.539 9.88787 14.0913 9.44016 13.539 9.44016H11.4108V7.28091Z" fill="black"/>
</svg>
