<svg width="16" height="16" viewBox="0 0 16 16" fill="none" xmlns="http://www.w3.org/2000/svg">
<path d="M3.34474 4.9093C3.03141 5.10514 3.03141 5.56147 3.34474 5.7573L7.73468 8.50101C7.89681 8.60234 8.10254 8.60234 8.26467 8.50101L12.6546 5.7573C12.9679 5.56147 12.9679 5.10514 12.6546 4.9093L8.26467 2.16559C8.10254 2.06426 7.89681 2.06426 7.73468 2.16559L3.34474 4.9093ZM14.6663 5.3333V12C14.6663 12.3536 14.5259 12.6927 14.2758 12.9428C14.0258 13.1928 13.6866 13.3333 13.333 13.3333H2.66634C2.31272 13.3333 1.97358 13.1928 1.72353 12.9428C1.47348 12.6927 1.33301 12.3536 1.33301 12V5.3333C1.33301 4.84664 1.59301 4.42664 1.97967 4.1933L7.99967 0.426636L14.0197 4.1933C14.4063 4.42664 14.6663 4.84664 14.6663 5.3333Z" fill="currentColor"/>
</svg>
