<svg width="24" height="24" viewBox="0 0 24 24" fill="none" xmlns="http://www.w3.org/2000/svg">
<path fill-rule="evenodd" clip-rule="evenodd" d="M17 5H5C3.89543 5 3 5.89543 3 7V17.4C3 18.5046 3.89543 19.4 5 19.4H19C20.1046 19.4 21 18.5046 21 17.4V7.82929C20.6872 7.93985 20.3506 8 20 8C18.3431 8 17 6.65685 17 5ZM5.26294 10.3869C4.97723 10.2282 4.80002 9.92703 4.80002 9.60018C4.80002 8.91395 5.53722 8.48018 6.1371 8.81344L12 12.0706L17.8629 8.81344C18.4628 8.48018 19.2 8.91395 19.2 9.60018C19.2 9.92703 19.0228 10.2282 18.7371 10.3869L12.4371 13.8869C12.1653 14.0379 11.8348 14.0379 11.5629 13.8869L5.26294 10.3869Z" fill="#1B1D22"/>
<path d="M22 5C22 6.10457 21.1046 7 20 7C18.8954 7 18 6.10457 18 5C18 3.89543 18.8954 3 20 3C21.1046 3 22 3.89543 22 5Z" fill="#1B1D22"/>
</svg>
