<svg width="16" height="16" viewBox="0 0 16 16" fill="none" xmlns="http://www.w3.org/2000/svg">
<path fill-rule="evenodd" clip-rule="evenodd" d="M11.3831 1C11.7973 1 12.1331 1.33579 12.1331 1.75V3.30005L13.5833 3.30005C13.9975 3.30005 14.3333 3.63584 14.3333 4.05005C14.3333 4.46426 13.9975 4.80005 13.5833 4.80005L12.1331 4.80005V6.25C12.1331 6.66421 11.7973 7 11.3831 7C10.9689 7 10.6331 6.66421 10.6331 6.25V4.80005L9.08331 4.80005C8.6691 4.80005 8.33331 4.46426 8.33331 4.05005C8.33331 3.63583 8.6691 3.30005 9.08331 3.30005L10.6331 3.30005V1.75C10.6331 1.33579 10.9689 1 11.3831 1ZM5.74076 9.00014C6.88624 9.00014 7.81483 8.07155 7.81483 6.92607C7.81483 5.78059 6.88624 4.85199 5.74076 4.85199C4.59528 4.85199 3.66669 5.78059 3.66669 6.92607C3.66669 8.07155 4.59528 9.00014 5.74076 9.00014ZM5.88889 10.7778C3.00889 10.7778 1 12.2415 1 14.3333V14.926H10.7778V14.3333C10.7778 12.2356 8.76889 10.7778 5.88889 10.7778Z" fill="#737D8C"/>
</svg>
