<svg width="18" height="18" viewBox="0 0 18 18" fill="none" xmlns="http://www.w3.org/2000/svg">
<path fill-rule="evenodd" clip-rule="evenodd" d="M13 7C14.6569 7 16 5.65685 16 4C16 2.34315 14.6569 1 13 1C11.3431 1 10 2.34315 10 4C10 5.65685 11.3431 7 13 7ZM8.9677 2C6.34078 2.01817 4 4.25115 4 6.99989V10.3999C4 11.2999 3.5 11.8999 2.91 12.2499C2.51 12.4899 2 12.8199 2 13.2199C2 13.6799 2.29 13.9899 2.89 13.9899H9H15.11C15.71 13.9899 16 13.6699 16 13.2199C16 12.8199 15.5 12.4899 15.09 12.2499C14.49 11.8999 14 11.3099 14 10.3999V8.38838C13.6784 8.46136 13.3437 8.49989 13 8.49989C10.5147 8.49989 8.5 6.48517 8.5 3.99989C8.5 3.28151 8.66833 2.60245 8.9677 2ZM7.59 15C7.53 15.16 7.5 15.32 7.5 15.5C7.5 16.33 8.17 17 9 17C9.83 17 10.5 16.33 10.5 15.5C10.5 15.32 10.46 15.16 10.41 15H7.59Z" fill="black"/>
</svg>
