<svg width="18" height="18" viewBox="0 0 18 18" fill="none" xmlns="http://www.w3.org/2000/svg">
<path fill-rule="evenodd" clip-rule="evenodd" d="M7.59 15C7.53 15.16 7.5 15.32 7.5 15.5C7.5 16.33 8.17 17 9 17C9.83 17 10.5 16.33 10.5 15.5C10.5 15.32 10.46 15.16 10.41 15H7.59Z" fill="black"/>
<path fill-rule="evenodd" clip-rule="evenodd" d="M14 10.4C14 11.31 14.49 11.9 15.09 12.25C15.5 12.49 16 12.82 16 13.22C16 13.67 15.71 13.99 15.11 13.99H9H2.89C2.29 13.99 2 13.68 2 13.22C2 12.82 2.51 12.49 2.91 12.25C3.5 11.9 4 11.3 4 10.4V7C4 4.24 6.36 2 9 2C11.64 2 14 4.24 14 7V10.4ZM11.2402 6.1226C11.4223 5.9515 11.7099 5.96101 11.8824 6.14162C12.0358 6.31272 12.0358 6.56938 11.9016 6.74048L8.92075 10.685L8.892 10.723C8.62358 11.0462 8.13469 11.0938 7.80875 10.8276C7.7798 10.8132 7.75632 10.7881 7.73417 10.7643C7.72698 10.7566 7.71994 10.749 7.71289 10.7421L6.13071 8.99336C5.93899 8.76522 5.95816 8.42302 6.18823 8.2329C6.37995 8.0618 6.65795 8.0618 6.85926 8.19488L8.21138 9.012L11.2402 6.1226Z" fill="black"/>
<path d="M9 3C9.55228 3 10 2.55228 10 2C10 1.44772 9.55228 1 9 1C8.44772 1 8 1.44772 8 2C8 2.55228 8.44772 3 9 3Z" fill="black"/>
</svg>
