<svg width="309" height="96" viewBox="0 0 309 96" fill="none" xmlns="http://www.w3.org/2000/svg">
<rect x="8" y="8" width="32" height="32" rx="16" fill="#E1E6EC"/>
<mask id="path-2-inside-1_1772_38931" fill="white">
<path d="M52 0H309V48H52V0Z"/>
</mask>
<path d="M309 48V47.5H52V48V48.5H309V48Z" fill="#F0F2F5" mask="url(#path-2-inside-1_1772_38931)"/>
<path d="M48.7 25.938C48.7 25.3073 48.8467 24.75 49.14 24.266C49.4187 23.7673 49.8073 23.3787 50.306 23.1C50.79 22.8067 51.3473 22.66 51.978 22.66H64.386C65.0167 22.66 65.574 22.8067 66.058 23.1C66.5567 23.3787 66.9453 23.7673 67.224 24.266C67.5173 24.75 67.664 25.3073 67.664 25.938V25.982C67.664 26.6127 67.5173 27.1773 67.224 27.676C66.9453 28.16 66.5567 28.5487 66.058 28.842C65.574 29.1207 65.0167 29.26 64.386 29.26H51.978C51.3473 29.26 50.79 29.1207 50.306 28.842C49.8073 28.5487 49.4187 28.16 49.14 27.676C48.8467 27.1773 48.7 26.6127 48.7 25.982V25.938ZM61.0535 25.938C61.0535 25.3073 61.2002 24.75 61.4935 24.266C61.7722 23.7673 62.1608 23.3787 62.6595 23.1C63.1435 22.8067 63.7008 22.66 64.3315 22.66H76.7395C77.3702 22.66 77.9275 22.8067 78.4115 23.1C78.9102 23.3787 79.2988 23.7673 79.5775 24.266C79.8708 24.75 80.0175 25.3073 80.0175 25.938V25.982C80.0175 26.6127 79.8708 27.1773 79.5775 27.676C79.2988 28.16 78.9102 28.5487 78.4115 28.842C77.9275 29.1207 77.3702 29.26 76.7395 29.26H64.3315C63.7008 29.26 63.1435 29.1207 62.6595 28.842C62.1608 28.5487 61.7722 28.16 61.4935 27.676C61.2002 27.1773 61.0535 26.6127 61.0535 25.982V25.938ZM73.407 25.938C73.407 25.3073 73.5537 24.75 73.847 24.266C74.1257 23.7673 74.5144 23.3787 75.013 23.1C75.497 22.8067 76.0544 22.66 76.685 22.66H89.093C89.7237 22.66 90.281 22.8067 90.765 23.1C91.2637 23.3787 91.6524 23.7673 91.931 24.266C92.2244 24.75 92.371 25.3073 92.371 25.938V25.982C92.371 26.6127 92.2244 27.1773 91.931 27.676C91.6524 28.16 91.2637 28.5487 90.765 28.842C90.281 29.1207 89.7237 29.26 89.093 29.26H76.685C76.0544 29.26 75.497 29.1207 75.013 28.842C74.5144 28.5487 74.1257 28.16 73.847 27.676C73.5537 27.1773 73.407 26.6127 73.407 25.982V25.938ZM85.7605 25.938C85.7605 25.3073 85.9072 24.75 86.2005 24.266C86.4792 23.7673 86.8679 23.3787 87.3665 23.1C87.8505 22.8067 88.4079 22.66 89.0385 22.66H101.447C102.077 22.66 102.635 22.8067 103.119 23.1C103.617 23.3787 104.006 23.7673 104.285 24.266C104.578 24.75 104.725 25.3073 104.725 25.938V25.982C104.725 26.6127 104.578 27.1773 104.285 27.676C104.006 28.16 103.617 28.5487 103.119 28.842C102.635 29.1207 102.077 29.26 101.447 29.26H89.0385C88.4079 29.26 87.8505 29.1207 87.3665 28.842C86.8679 28.5487 86.4792 28.16 86.2005 27.676C85.9072 27.1773 85.7605 26.6127 85.7605 25.982V25.938ZM98.1141 25.938C98.1141 25.3073 98.2607 24.75 98.5541 24.266C98.8327 23.7673 99.2214 23.3787 99.7201 23.1C100.204 22.8067 100.761 22.66 101.392 22.66H113.8C114.431 22.66 114.988 22.8067 115.472 23.1C115.971 23.3787 116.359 23.7673 116.638 24.266C116.931 24.75 117.078 25.3073 117.078 25.938V25.982C117.078 26.6127 116.931 27.1773 116.638 27.676C116.359 28.16 115.971 28.5487 115.472 28.842C114.988 29.1207 114.431 29.26 113.8 29.26H101.392C100.761 29.26 100.204 29.1207 99.7201 28.842C99.2214 28.5487 98.8327 28.16 98.5541 27.676C98.2607 27.1773 98.1141 26.6127 98.1141 25.982V25.938ZM110.468 25.938C110.468 25.3073 110.614 24.75 110.908 24.266C111.186 23.7673 111.575 23.3787 112.074 23.1C112.558 22.8067 113.115 22.66 113.746 22.66H126.154C126.784 22.66 127.342 22.8067 127.826 23.1C128.324 23.3787 128.713 23.7673 128.992 24.266C129.285 24.75 129.432 25.3073 129.432 25.938V25.982C129.432 26.6127 129.285 27.1773 128.992 27.676C128.713 28.16 128.324 28.5487 127.826 28.842C127.342 29.1207 126.784 29.26 126.154 29.26H113.746C113.115 29.26 112.558 29.1207 112.074 28.842C111.575 28.5487 111.186 28.16 110.908 27.676C110.614 27.1773 110.468 26.6127 110.468 25.982V25.938ZM122.821 25.938C122.821 25.3073 122.968 24.75 123.261 24.266C123.54 23.7673 123.928 23.3787 124.427 23.1C124.911 22.8067 125.468 22.66 126.099 22.66H138.507C139.138 22.66 139.695 22.8067 140.179 23.1C140.678 23.3787 141.066 23.7673 141.345 24.266C141.638 24.75 141.785 25.3073 141.785 25.938V25.982C141.785 26.6127 141.638 27.1773 141.345 27.676C141.066 28.16 140.678 28.5487 140.179 28.842C139.695 29.1207 139.138 29.26 138.507 29.26H126.099C125.468 29.26 124.911 29.1207 124.427 28.842C123.928 28.5487 123.54 28.16 123.261 27.676C122.968 27.1773 122.821 26.6127 122.821 25.982V25.938ZM135.175 25.938C135.175 25.3073 135.321 24.75 135.615 24.266C135.893 23.7673 136.282 23.3787 136.781 23.1C137.265 22.8067 137.822 22.66 138.453 22.66H150.861C151.491 22.66 152.049 22.8067 152.533 23.1C153.031 23.3787 153.42 23.7673 153.699 24.266C153.992 24.75 154.139 25.3073 154.139 25.938V25.982C154.139 26.6127 153.992 27.1773 153.699 27.676C153.42 28.16 153.031 28.5487 152.533 28.842C152.049 29.1207 151.491 29.26 150.861 29.26H138.453C137.822 29.26 137.265 29.1207 136.781 28.842C136.282 28.5487 135.893 28.16 135.615 27.676C135.321 27.1773 135.175 26.6127 135.175 25.982V25.938ZM160.72 25.938C160.72 25.3073 160.866 24.75 161.16 24.266C161.438 23.7673 161.827 23.3787 162.326 23.1C162.81 22.8067 163.367 22.66 163.998 22.66H176.406C177.036 22.66 177.594 22.8067 178.078 23.1C178.576 23.3787 178.965 23.7673 179.244 24.266C179.537 24.75 179.684 25.3073 179.684 25.938V25.982C179.684 26.6127 179.537 27.1773 179.244 27.676C178.965 28.16 178.576 28.5487 178.078 28.842C177.594 29.1207 177.036 29.26 176.406 29.26H163.998C163.367 29.26 162.81 29.1207 162.326 28.842C161.827 28.5487 161.438 28.16 161.16 27.676C160.866 27.1773 160.72 26.6127 160.72 25.982V25.938ZM173.073 25.938C173.073 25.3073 173.22 24.75 173.513 24.266C173.792 23.7673 174.18 23.3787 174.679 23.1C175.163 22.8067 175.72 22.66 176.351 22.66H182.687C183.318 22.66 183.875 22.8067 184.359 23.1C184.858 23.3787 185.246 23.7673 185.525 24.266C185.818 24.75 185.965 25.3073 185.965 25.938V25.982C185.965 26.6127 185.818 27.1773 185.525 27.676C185.246 28.16 184.858 28.5487 184.359 28.842C183.875 29.1207 183.318 29.26 182.687 29.26H176.351C175.72 29.26 175.163 29.1207 174.679 28.842C174.18 28.5487 173.792 28.16 173.513 27.676C173.22 27.1773 173.073 26.6127 173.073 25.982V25.938ZM179.368 25.938C179.368 25.3073 179.515 24.75 179.808 24.266C180.087 23.7673 180.475 23.3787 180.974 23.1C181.458 22.8067 182.015 22.66 182.646 22.66H195.054C195.685 22.66 196.242 22.8067 196.726 23.1C197.225 23.3787 197.613 23.7673 197.892 24.266C198.185 24.75 198.332 25.3073 198.332 25.938V25.982C198.332 26.6127 198.185 27.1773 197.892 27.676C197.613 28.16 197.225 28.5487 196.726 28.842C196.242 29.1207 195.685 29.26 195.054 29.26H182.646C182.015 29.26 181.458 29.1207 180.974 28.842C180.475 28.5487 180.087 28.16 179.808 27.676C179.515 27.1773 179.368 26.6127 179.368 25.982V25.938ZM191.721 25.938C191.721 25.3073 191.868 24.75 192.161 24.266C192.44 23.7673 192.829 23.3787 193.327 23.1C193.811 22.8067 194.369 22.66 194.999 22.66H207.407C208.038 22.66 208.595 22.8067 209.079 23.1C209.578 23.3787 209.967 23.7673 210.245 24.266C210.539 24.75 210.685 25.3073 210.685 25.938V25.982C210.685 26.6127 210.539 27.1773 210.245 27.676C209.967 28.16 209.578 28.5487 209.079 28.842C208.595 29.1207 208.038 29.26 207.407 29.26H194.999C194.369 29.26 193.811 29.1207 193.327 28.842C192.829 28.5487 192.44 28.16 192.161 27.676C191.868 27.1773 191.721 26.6127 191.721 25.982V25.938ZM204.075 25.938C204.075 25.3073 204.222 24.75 204.515 24.266C204.794 23.7673 205.182 23.3787 205.681 23.1C206.165 22.8067 206.722 22.66 207.353 22.66H219.761C220.392 22.66 220.949 22.8067 221.433 23.1C221.932 23.3787 222.32 23.7673 222.599 24.266C222.892 24.75 223.039 25.3073 223.039 25.938V25.982C223.039 26.6127 222.892 27.1773 222.599 27.676C222.32 28.16 221.932 28.5487 221.433 28.842C220.949 29.1207 220.392 29.26 219.761 29.26H207.353C206.722 29.26 206.165 29.1207 205.681 28.842C205.182 28.5487 204.794 28.16 204.515 27.676C204.222 27.1773 204.075 26.6127 204.075 25.982V25.938ZM216.429 25.938C216.429 25.3073 216.575 24.75 216.869 24.266C217.147 23.7673 217.536 23.3787 218.035 23.1C218.519 22.8067 219.076 22.66 219.707 22.66H226.043C226.673 22.66 227.231 22.8067 227.715 23.1C228.213 23.3787 228.602 23.7673 228.881 24.266C229.174 24.75 229.321 25.3073 229.321 25.938V25.982C229.321 26.6127 229.174 27.1773 228.881 27.676C228.602 28.16 228.213 28.5487 227.715 28.842C227.231 29.1207 226.673 29.26 226.043 29.26H219.707C219.076 29.26 218.519 29.1207 218.035 28.842C217.536 28.5487 217.147 28.16 216.869 27.676C216.575 27.1773 216.429 26.6127 216.429 25.982V25.938ZM222.723 25.938C222.723 25.3073 222.87 24.75 223.163 24.266C223.442 23.7673 223.831 23.3787 224.329 23.1C224.813 22.8067 225.371 22.66 226.001 22.66H232.337C232.968 22.66 233.525 22.8067 234.009 23.1C234.508 23.3787 234.897 23.7673 235.175 24.266C235.469 24.75 235.615 25.3073 235.615 25.938V25.982C235.615 26.6127 235.469 27.1773 235.175 27.676C234.897 28.16 234.508 28.5487 234.009 28.842C233.525 29.1207 232.968 29.26 232.337 29.26H226.001C225.371 29.26 224.813 29.1207 224.329 28.842C223.831 28.5487 223.442 28.16 223.163 27.676C222.87 27.1773 222.723 26.6127 222.723 25.982V25.938ZM229.018 25.938C229.018 25.3073 229.165 24.75 229.458 24.266C229.737 23.7673 230.126 23.3787 230.624 23.1C231.108 22.8067 231.666 22.66 232.296 22.66H238.632C239.263 22.66 239.82 22.8067 240.304 23.1C240.803 23.3787 241.192 23.7673 241.47 24.266C241.764 24.75 241.91 25.3073 241.91 25.938V25.982C241.91 26.6127 241.764 27.1773 241.47 27.676C241.192 28.16 240.803 28.5487 240.304 28.842C239.82 29.1207 239.263 29.26 238.632 29.26H232.296C231.666 29.26 231.108 29.1207 230.624 28.842C230.126 28.5487 229.737 28.16 229.458 27.676C229.165 27.1773 229.018 26.6127 229.018 25.982V25.938Z" fill="#F0F2F5"/>
<rect x="8" y="56" width="32" height="32" rx="16" fill="#E1E6EC"/>
<mask id="path-6-inside-2_1772_38931" fill="white">
<path d="M52 48H309V96H52V48Z"/>
</mask>
<path d="M309 96V95.5H52V96V96.5H309V96Z" fill="#F0F2F5" mask="url(#path-6-inside-2_1772_38931)"/>
<path d="M48.7 73.938C48.7 73.3073 48.8467 72.75 49.14 72.266C49.4187 71.7673 49.8073 71.3787 50.306 71.1C50.79 70.8067 51.3473 70.66 51.978 70.66H64.386C65.0167 70.66 65.574 70.8067 66.058 71.1C66.5567 71.3787 66.9453 71.7673 67.224 72.266C67.5173 72.75 67.664 73.3073 67.664 73.938V73.982C67.664 74.6127 67.5173 75.1773 67.224 75.676C66.9453 76.16 66.5567 76.5487 66.058 76.842C65.574 77.1207 65.0167 77.26 64.386 77.26H51.978C51.3473 77.26 50.79 77.1207 50.306 76.842C49.8073 76.5487 49.4187 76.16 49.14 75.676C48.8467 75.1773 48.7 74.6127 48.7 73.982V73.938ZM61.0535 73.938C61.0535 73.3073 61.2002 72.75 61.4935 72.266C61.7722 71.7673 62.1608 71.3787 62.6595 71.1C63.1435 70.8067 63.7008 70.66 64.3315 70.66H76.7395C77.3702 70.66 77.9275 70.8067 78.4115 71.1C78.9102 71.3787 79.2988 71.7673 79.5775 72.266C79.8708 72.75 80.0175 73.3073 80.0175 73.938V73.982C80.0175 74.6127 79.8708 75.1773 79.5775 75.676C79.2988 76.16 78.9102 76.5487 78.4115 76.842C77.9275 77.1207 77.3702 77.26 76.7395 77.26H64.3315C63.7008 77.26 63.1435 77.1207 62.6595 76.842C62.1608 76.5487 61.7722 76.16 61.4935 75.676C61.2002 75.1773 61.0535 74.6127 61.0535 73.982V73.938ZM73.407 73.938C73.407 73.3073 73.5537 72.75 73.847 72.266C74.1257 71.7673 74.5144 71.3787 75.013 71.1C75.497 70.8067 76.0544 70.66 76.685 70.66H89.093C89.7237 70.66 90.281 70.8067 90.765 71.1C91.2637 71.3787 91.6524 71.7673 91.931 72.266C92.2244 72.75 92.371 73.3073 92.371 73.938V73.982C92.371 74.6127 92.2244 75.1773 91.931 75.676C91.6524 76.16 91.2637 76.5487 90.765 76.842C90.281 77.1207 89.7237 77.26 89.093 77.26H76.685C76.0544 77.26 75.497 77.1207 75.013 76.842C74.5144 76.5487 74.1257 76.16 73.847 75.676C73.5537 75.1773 73.407 74.6127 73.407 73.982V73.938ZM85.7605 73.938C85.7605 73.3073 85.9072 72.75 86.2005 72.266C86.4792 71.7673 86.8679 71.3787 87.3665 71.1C87.8505 70.8067 88.4079 70.66 89.0385 70.66H101.447C102.077 70.66 102.635 70.8067 103.119 71.1C103.617 71.3787 104.006 71.7673 104.285 72.266C104.578 72.75 104.725 73.3073 104.725 73.938V73.982C104.725 74.6127 104.578 75.1773 104.285 75.676C104.006 76.16 103.617 76.5487 103.119 76.842C102.635 77.1207 102.077 77.26 101.447 77.26H89.0385C88.4079 77.26 87.8505 77.1207 87.3665 76.842C86.8679 76.5487 86.4792 76.16 86.2005 75.676C85.9072 75.1773 85.7605 74.6127 85.7605 73.982V73.938ZM111.305 73.938C111.305 73.3073 111.452 72.75 111.745 72.266C112.024 71.7673 112.413 71.3787 112.911 71.1C113.395 70.8067 113.953 70.66 114.583 70.66H126.991C127.622 70.66 128.179 70.8067 128.663 71.1C129.162 71.3787 129.551 71.7673 129.829 72.266C130.123 72.75 130.269 73.3073 130.269 73.938V73.982C130.269 74.6127 130.123 75.1773 129.829 75.676C129.551 76.16 129.162 76.5487 128.663 76.842C128.179 77.1207 127.622 77.26 126.991 77.26H114.583C113.953 77.26 113.395 77.1207 112.911 76.842C112.413 76.5487 112.024 76.16 111.745 75.676C111.452 75.1773 111.305 74.6127 111.305 73.982V73.938ZM123.659 73.938C123.659 73.3073 123.806 72.75 124.099 72.266C124.378 71.7673 124.766 71.3787 125.265 71.1C125.749 70.8067 126.306 70.66 126.937 70.66H133.273C133.904 70.66 134.461 70.8067 134.945 71.1C135.444 71.3787 135.832 71.7673 136.111 72.266C136.404 72.75 136.551 73.3073 136.551 73.938V73.982C136.551 74.6127 136.404 75.1773 136.111 75.676C135.832 76.16 135.444 76.5487 134.945 76.842C134.461 77.1207 133.904 77.26 133.273 77.26H126.937C126.306 77.26 125.749 77.1207 125.265 76.842C124.766 76.5487 124.378 76.16 124.099 75.676C123.806 75.1773 123.659 74.6127 123.659 73.982V73.938ZM129.954 73.938C129.954 73.3073 130.101 72.75 130.394 72.266C130.673 71.7673 131.061 71.3787 131.56 71.1C132.044 70.8067 132.601 70.66 133.232 70.66H145.64C146.271 70.66 146.828 70.8067 147.312 71.1C147.811 71.3787 148.199 71.7673 148.478 72.266C148.771 72.75 148.918 73.3073 148.918 73.938V73.982C148.918 74.6127 148.771 75.1773 148.478 75.676C148.199 76.16 147.811 76.5487 147.312 76.842C146.828 77.1207 146.271 77.26 145.64 77.26H133.232C132.601 77.26 132.044 77.1207 131.56 76.842C131.061 76.5487 130.673 76.16 130.394 75.676C130.101 75.1773 129.954 74.6127 129.954 73.982V73.938ZM142.307 73.938C142.307 73.3073 142.454 72.75 142.747 72.266C143.026 71.7673 143.415 71.3787 143.913 71.1C144.397 70.8067 144.955 70.66 145.585 70.66H157.993C158.624 70.66 159.181 70.8067 159.665 71.1C160.164 71.3787 160.553 71.7673 160.831 72.266C161.125 72.75 161.271 73.3073 161.271 73.938V73.982C161.271 74.6127 161.125 75.1773 160.831 75.676C160.553 76.16 160.164 76.5487 159.665 76.842C159.181 77.1207 158.624 77.26 157.993 77.26H145.585C144.955 77.26 144.397 77.1207 143.913 76.842C143.415 76.5487 143.026 76.16 142.747 75.676C142.454 75.1773 142.307 74.6127 142.307 73.982V73.938ZM154.661 73.938C154.661 73.3073 154.808 72.75 155.101 72.266C155.38 71.7673 155.768 71.3787 156.267 71.1C156.751 70.8067 157.308 70.66 157.939 70.66H170.347C170.978 70.66 171.535 70.8067 172.019 71.1C172.518 71.3787 172.906 71.7673 173.185 72.266C173.478 72.75 173.625 73.3073 173.625 73.938V73.982C173.625 74.6127 173.478 75.1773 173.185 75.676C172.906 76.16 172.518 76.5487 172.019 76.842C171.535 77.1207 170.978 77.26 170.347 77.26H157.939C157.308 77.26 156.751 77.1207 156.267 76.842C155.768 76.5487 155.38 76.16 155.101 75.676C154.808 75.1773 154.661 74.6127 154.661 73.982V73.938ZM167.014 73.938C167.014 73.3073 167.161 72.75 167.454 72.266C167.733 71.7673 168.122 71.3787 168.62 71.1C169.104 70.8067 169.662 70.66 170.292 70.66H176.628C177.259 70.66 177.816 70.8067 178.3 71.1C178.799 71.3787 179.188 71.7673 179.466 72.266C179.76 72.75 179.906 73.3073 179.906 73.938V73.982C179.906 74.6127 179.76 75.1773 179.466 75.676C179.188 76.16 178.799 76.5487 178.3 76.842C177.816 77.1207 177.259 77.26 176.628 77.26H170.292C169.662 77.26 169.104 77.1207 168.62 76.842C168.122 76.5487 167.733 76.16 167.454 75.676C167.161 75.1773 167.014 74.6127 167.014 73.982V73.938ZM173.309 73.938C173.309 73.3073 173.456 72.75 173.749 72.266C174.028 71.7673 174.417 71.3787 174.915 71.1C175.399 70.8067 175.957 70.66 176.587 70.66H182.923C183.554 70.66 184.111 70.8067 184.595 71.1C185.094 71.3787 185.483 71.7673 185.761 72.266C186.055 72.75 186.201 73.3073 186.201 73.938V73.982C186.201 74.6127 186.055 75.1773 185.761 75.676C185.483 76.16 185.094 76.5487 184.595 76.842C184.111 77.1207 183.554 77.26 182.923 77.26H176.587C175.957 77.26 175.399 77.1207 174.915 76.842C174.417 76.5487 174.028 76.16 173.749 75.676C173.456 75.1773 173.309 74.6127 173.309 73.982V73.938ZM179.604 73.938C179.604 73.3073 179.751 72.75 180.044 72.266C180.323 71.7673 180.712 71.3787 181.21 71.1C181.694 70.8067 182.252 70.66 182.882 70.66H189.218C189.849 70.66 190.406 70.8067 190.89 71.1C191.389 71.3787 191.778 71.7673 192.056 72.266C192.35 72.75 192.496 73.3073 192.496 73.938V73.982C192.496 74.6127 192.35 75.1773 192.056 75.676C191.778 76.16 191.389 76.5487 190.89 76.842C190.406 77.1207 189.849 77.26 189.218 77.26H182.882C182.252 77.26 181.694 77.1207 181.21 76.842C180.712 76.5487 180.323 76.16 180.044 75.676C179.751 75.1773 179.604 74.6127 179.604 73.982V73.938Z" fill="#F0F2F5"/>
</svg>
