<svg width="18" height="18" viewBox="0 0 18 18" fill="none" xmlns="http://www.w3.org/2000/svg">
<path fill-rule="evenodd" clip-rule="evenodd" d="M9 16C12.866 16 16 12.866 16 9C16 5.13401 12.866 2 9 2C5.13401 2 2 5.13401 2 9C2 12.866 5.13401 16 9 16ZM5.96967 5.96967C6.26256 5.67678 6.73744 5.67678 7.03033 5.96967L9 7.93934L10.9697 5.96967C11.2626 5.67678 11.7374 5.67678 12.0303 5.96967C12.3232 6.26256 12.3232 6.73744 12.0303 7.03033L10.0607 9L12.0303 10.9697C12.3232 11.2626 12.3232 11.7374 12.0303 12.0303C11.7374 12.3232 11.2626 12.3232 10.9697 12.0303L9 10.0607L7.03033 12.0303C6.73744 12.3232 6.26256 12.3232 5.96967 12.0303C5.67678 11.7374 5.67678 11.2626 5.96967 10.9697L7.93934 9L5.96967 7.03033C5.67678 6.73744 5.67678 6.26256 5.96967 5.96967Z" fill="black"/>
</svg>
