<svg width="18" height="18" viewBox="0 0 18 18" fill="none" xmlns="http://www.w3.org/2000/svg">
<path d="M3 8V8C1.89543 8 1 7.10457 1 6V3C1 1.89543 1.89543 1 3 1H15C16.1046 1 17 1.89484 17 2.9994C17 3.88147 17 4.95392 17 6.00008C17 7.10465 16.1046 8 15 8H10.5" stroke="#737D8C" stroke-width="1.5" stroke-linecap="round"/>
<path fill-rule="evenodd" clip-rule="evenodd" d="M13.2011 16.7176C12.9087 17.011 12.9088 17.4866 13.2012 17.78C13.4936 18.0734 13.9677 18.0733 14.2601 17.78C14.9484 17.0894 15.6519 16.3829 16.1834 15.8491L16.8282 15.2014L17.0099 15.0188L17.0579 14.9706L17.0702 14.9582L17.0733 14.955L17.0741 14.9542L17.0743 14.954L17.0743 14.954L16.5444 14.4233L17.0744 14.954C17.3663 14.6606 17.3661 14.1855 17.0741 13.8922L14.2539 11.061C13.9616 10.7675 13.4875 10.7674 13.195 11.0606C12.9024 11.3539 12.9023 11.8295 13.1946 12.123L14.7442 13.6787L10.1137 13.6787C8.69795 13.6787 7.49996 12.4759 7.49996 10.9288L7.49996 7.00002C7.49996 6.58581 7.16417 6.25002 6.74996 6.25002C6.33574 6.25002 5.99996 6.58581 5.99996 7.00002L5.99996 10.9288C5.99996 13.2476 7.81395 15.1787 10.1137 15.1787H14.7341C14.2713 15.6436 13.7316 16.1854 13.2011 16.7176Z" fill="#737D8C"/>
</svg>
