<svg width="25" height="26" viewBox="0 0 25 26" fill="none" xmlns="http://www.w3.org/2000/svg">
<path d="M6.60352 12.0848C7.92382 12.0848 8.99414 11.0145 8.99414 9.69421C8.99414 8.37391 7.92382 7.30359 6.60352 7.30359C5.28321 7.30359 4.21289 8.37391 4.21289 9.69421C4.21289 11.0145 5.28321 12.0848 6.60352 12.0848Z" fill="#571EFA"/>
<path d="M20.1509 8.89624H10.5884V10.4907H20.1509V8.89624Z" fill="#341291"/>
<path d="M6.60352 18.1395C7.92382 18.1395 8.99414 17.0692 8.99414 15.7489C8.99414 14.4286 7.92382 13.3583 6.60352 13.3583C5.28321 13.3583 4.21289 14.4286 4.21289 15.7489C4.21289 17.0692 5.28321 18.1395 6.60352 18.1395Z" fill="#571EFA"/>
<path d="M20.1509 14.9509H10.5884V16.5454H20.1509V14.9509Z" fill="#341291"/>
</svg>
