<svg width="25" height="26" viewBox="0 0 25 26" fill="none" xmlns="http://www.w3.org/2000/svg">
<path d="M8.03809 12.4022C9.35839 12.4022 10.4287 11.3319 10.4287 10.0116C10.4287 8.69129 9.35839 7.62097 8.03809 7.62097C6.71778 7.62097 5.64746 8.69129 5.64746 10.0116C5.64746 11.3319 6.71778 12.4022 8.03809 12.4022Z" fill="#571EFA"/>
<path d="M16.9619 12.4022C18.2822 12.4022 19.3525 11.3319 19.3525 10.0116C19.3525 8.69129 18.2822 7.62097 16.9619 7.62097C15.6416 7.62097 14.5713 8.69129 14.5713 10.0116C14.5713 11.3319 15.6416 12.4022 16.9619 12.4022Z" fill="#341291"/>
<path d="M4.21289 17.8214C4.21289 15.7097 5.92434 13.996 8.03834 13.996C10.1523 13.996 11.8638 15.7074 11.8638 17.8214H4.21289Z" fill="#571EFA"/>
<path d="M13.1367 17.8214C13.1367 15.7097 14.8482 13.996 16.9622 13.996C19.0762 13.996 20.7876 15.7074 20.7876 17.8214H13.1367Z" fill="#341291"/>
</svg>
