<svg width="35" height="36" viewBox="0 0 35 36" fill="none" xmlns="http://www.w3.org/2000/svg">
<path d="M21.6929 25.8326V26.3232C21.6929 28.394 20.0294 30.0778 17.9837 30.0778H9.27732C7.23157 30.0778 5.56812 28.394 5.56812 26.3232V17.5102C5.56812 15.4394 7.23157 13.7556 9.27732 13.7556H9.76201V25.8349H21.6952L21.6929 25.8326Z" fill="#AA98FB"/>
<path d="M21.8544 22.8933H12.6633V12.6084C12.6633 9.09797 15.4851 6.2417 18.953 6.2417H21.8567C25.8572 6.2417 29.1135 9.53793 29.1135 13.5874V15.5453C29.1135 19.5948 25.8572 22.891 21.8567 22.891L21.8544 22.8933ZM16.855 18.6481H21.8544C23.5429 18.6481 24.9173 17.2568 24.9173 15.5476V13.5897C24.9173 11.8805 23.5429 10.4893 21.8544 10.4893H18.9508C17.7948 10.4893 16.855 11.4406 16.855 12.6107V18.6504V18.6481Z" fill="#571EFA"/>
</svg>
