<svg width="113" height="31" viewBox="0 0 113 31" fill="none" xmlns="http://www.w3.org/2000/svg">
<rect width="101" height="31" fill="white"/>
<path d="M20.7634 21.3042V21.6881C20.7634 23.3086 19.4467 24.6263 17.8274 24.6263H10.936C9.31669 24.6263 8 23.3086 8 21.6881V14.7914C8 13.1708 9.31669 11.8531 10.936 11.8531H11.3196V21.306H20.7652L20.7634 21.3042Z" fill="#927AFA"/>
<path d="M20.8913 19.0041H13.6162V10.9555C13.6162 8.20836 15.8497 5.97314 18.5948 5.97314H20.8931C24.0597 5.97314 26.6372 8.55266 26.6372 11.7216V13.2538C26.6372 16.4228 24.0597 19.0023 20.8931 19.0023L20.8913 19.0041ZM16.934 15.6819H20.8913C22.2278 15.6819 23.3157 14.5932 23.3157 13.2556V11.7234C23.3157 10.3859 22.2278 9.29713 20.8913 9.29713H18.593C17.6779 9.29713 16.934 10.0416 16.934 10.9573V15.6837V15.6819Z" fill="#571EFA"/>
<path d="M36.0164 12.3705C38.6912 12.3705 40.4006 14.3353 40.4006 16.7418C40.4006 19.1482 38.6912 21.1131 36.0164 21.1131C33.3416 21.1131 31.6143 19.1482 31.6143 16.7418C31.6143 14.3353 33.3236 12.3705 36.0164 12.3705ZM36.0164 20.0459C38.0644 20.0459 39.1487 18.5209 39.1487 16.7418C39.1487 14.9626 38.0644 13.4376 36.0164 13.4376C33.9684 13.4376 32.8679 14.9626 32.8679 16.7418C32.8679 18.5209 33.9504 20.0459 36.0164 20.0459Z" fill="black"/>
<path d="M42.0273 12.5399H43.281V14.6742C43.8736 13.2682 45.1272 12.3705 46.9555 12.3705C49.3096 12.3705 50.9001 14.1496 50.9001 16.758C50.9001 19.3664 49.3096 21.1131 46.9555 21.1131C45.093 21.1131 43.8574 20.1811 43.281 18.8094V24.0279H42.0273V12.5399ZM46.5646 20.0459C48.2577 20.0459 49.6465 18.995 49.6465 16.758C49.6465 14.521 48.2577 13.4376 46.5646 13.4376C44.8715 13.4376 43.3314 14.539 43.3314 16.758C43.3314 18.977 44.8895 20.0459 46.5646 20.0459Z" fill="black"/>
<path d="M56.2153 12.3706C58.6199 12.3706 60.2284 13.8793 60.2284 16.4535V16.9618H53.4739C53.5243 18.7247 54.4213 20.0785 56.2838 20.0785C57.8238 20.0785 58.7226 19.2655 59.027 18.0109H60.2626C59.9078 19.5016 58.8919 21.1114 56.318 21.1114C53.5927 21.1114 52.2725 19.078 52.2725 16.6211C52.2725 13.91 53.8467 12.3688 56.2171 12.3688L56.2153 12.3706ZM58.991 15.9794C58.8721 14.3354 57.7716 13.4035 56.1973 13.4035C54.7239 13.4035 53.6234 14.3516 53.4883 15.9794H58.991Z" fill="black"/>
<path d="M61.9883 12.5399H63.2419V14.8779C63.6994 13.3186 64.8846 12.3705 66.7291 12.3705C68.5735 12.3705 69.7425 13.5908 69.7425 15.7936V20.9436H68.4727V15.8946C68.4727 14.1496 67.7954 13.4376 66.3058 13.4376C64.4091 13.4376 63.2419 15.0311 63.2419 17.2844V20.9436H61.9883V12.5399Z" fill="black"/>
<path d="M71.8589 8.9978H76.2448C77.4859 8.9978 78.581 9.15102 79.5303 9.45566C80.4777 9.7603 81.254 10.3534 81.8574 11.2348C82.4608 12.1163 82.7634 13.3583 82.7634 14.9626C82.7634 16.5669 82.4608 17.8269 81.8574 18.7066C81.254 19.588 80.4777 20.1811 79.5303 20.4857C78.581 20.7904 77.4877 20.9436 76.2448 20.9436H71.8589V8.9978ZM76.2448 18.5552C77.1022 18.5552 77.7885 18.4867 78.3018 18.3515C78.8152 18.2163 79.2331 17.8918 79.5555 17.3763C79.8779 16.8625 80.0382 16.0568 80.0382 14.9626C80.0382 13.8684 79.8743 13.0771 79.5483 12.5561C79.2204 12.037 78.8026 11.7089 78.2946 11.5737C77.7867 11.4385 77.104 11.37 76.2466 11.37H74.5697V18.5552H76.2466H76.2448Z" fill="black"/>
<path d="M84.5322 14.2759C84.9105 13.6143 85.4346 13.1096 86.1065 12.7599C86.7783 12.4102 87.5493 12.2354 88.4174 12.2354C89.8404 12.2354 90.9518 12.6139 91.7533 13.371C92.5548 14.1281 92.9547 15.1736 92.9547 16.5057V17.2177H86.555C86.6 17.827 86.7928 18.3047 87.1314 18.649C87.47 18.9933 87.9329 19.1663 88.5201 19.1663C89.0281 19.1663 89.4477 19.06 89.781 18.8437C90.1142 18.6292 90.3249 18.3245 90.4168 17.9279H92.9727C92.8376 18.8761 92.3819 19.6458 91.6092 20.2317C90.8365 20.8193 89.8116 21.1131 88.5363 21.1131C87.5997 21.1131 86.7873 20.9239 86.0975 20.5453C85.4094 20.1668 84.8817 19.6386 84.5142 18.9608C84.1468 18.2831 83.9648 17.5043 83.9648 16.6229C83.9648 15.7414 84.154 14.9374 84.5322 14.2759ZM90.4492 15.8261C90.4042 15.2835 90.2042 14.8653 89.8476 14.5715C89.4928 14.2777 89.0317 14.1317 88.4679 14.1317C87.9041 14.1317 87.4664 14.2795 87.1224 14.5715C86.7783 14.8653 86.5838 15.2835 86.5388 15.8261H90.4492Z" fill="black"/>
<path d="M95.2406 20.2821C94.4949 19.7287 94.1221 18.9157 94.1221 17.8414H96.696C96.696 18.3281 96.8491 18.6868 97.1535 18.9175C97.4579 19.15 97.9262 19.2654 98.5585 19.2654C99.0214 19.2654 99.3564 19.2059 99.5653 19.087C99.7743 18.968 99.8788 18.7787 99.8788 18.5191C99.8788 18.3389 99.8175 18.1911 99.6932 18.0793C99.569 17.9657 99.3708 17.8702 99.1006 17.7909L96.4925 17.0789C95.9161 16.9329 95.4207 16.6697 95.0029 16.2911C94.585 15.9126 94.376 15.3898 94.376 14.7229C94.376 13.9207 94.7057 13.306 95.3667 12.8752C96.0278 12.4462 96.95 12.2317 98.1352 12.2317C99.4447 12.2317 100.466 12.4949 101.199 13.0194C101.932 13.544 102.3 14.3047 102.3 15.2979H99.7257C99.7257 14.4741 99.2015 14.0613 98.1514 14.0613C97.7785 14.0613 97.4849 14.1244 97.2706 14.247C97.0563 14.3714 96.9482 14.5354 96.9482 14.7391C96.9482 15.0888 97.258 15.343 97.8794 15.5016L99.877 15.9937C100.655 16.1866 101.28 16.4822 101.748 16.8842C102.217 17.2844 102.451 17.8468 102.451 18.5696C102.451 19.3952 102.121 20.0243 101.46 20.4587C100.799 20.8932 99.8211 21.1113 98.5224 21.1113C97.0779 21.1113 95.9827 20.8337 95.237 20.2803L95.2406 20.2821Z" fill="black"/>
<path d="M103.875 8.4895H106.449V15.7071L109.852 12.4029H113L108.751 16.5543L112.984 20.9436H109.852L106.449 17.3511V20.9436H103.875V8.4895Z" fill="black"/>
</svg>
