<svg width="18" height="18" viewBox="0 0 18 18" fill="none" xmlns="http://www.w3.org/2000/svg">
<ellipse cx="5" cy="5.75" rx="1.5" ry="1.75" fill="black"/>
<ellipse cx="13" cy="5.75" rx="1.5" ry="1.75" fill="black"/>
<path d="M4.66558 10.6543C4.47466 10.2867 4.0219 10.1435 3.65431 10.3344C3.28672 10.5253 3.1435 10.9781 3.33442 11.3457L4.66558 10.6543ZM14.678 11.3206C14.8551 10.9462 14.6951 10.4991 14.3206 10.322C13.9462 10.1449 13.4991 10.3049 13.322 10.6794L14.678 11.3206ZM4 11C3.33442 11.3457 3.33458 11.346 3.33475 11.3463C3.33481 11.3464 3.33499 11.3468 3.33512 11.347C3.33537 11.3475 3.33565 11.3481 3.33596 11.3486C3.33657 11.3498 3.33729 11.3512 3.3381 11.3527C3.33972 11.3558 3.34175 11.3596 3.34417 11.3641C3.34901 11.3731 3.35546 11.3849 3.36353 11.3993C3.37966 11.4282 3.40229 11.4677 3.43154 11.5162C3.48998 11.6131 3.57517 11.7467 3.68808 11.9048C3.91323 12.2199 4.25254 12.6377 4.71468 13.056C5.64215 13.8956 7.08135 14.75 9.06977 14.75V13.25C7.54656 13.25 6.45087 12.6044 5.72136 11.944C5.35502 11.6123 5.08532 11.2801 4.90858 11.0327C4.82054 10.9095 4.75657 10.8088 4.71608 10.7416C4.69586 10.7081 4.68159 10.6831 4.67318 10.668C4.66898 10.6605 4.66625 10.6555 4.66499 10.6531C4.66435 10.652 4.66409 10.6515 4.66419 10.6516C4.66424 10.6517 4.66438 10.652 4.66461 10.6524C4.66473 10.6527 4.66487 10.6529 4.66503 10.6532C4.66511 10.6534 4.66525 10.6537 4.66529 10.6537C4.66543 10.654 4.66558 10.6543 4 11ZM9.06977 14.75C11.0611 14.75 12.4696 13.893 13.3669 13.0451C13.8129 12.6236 14.1351 12.2027 14.3471 11.8853C14.4535 11.7261 14.5331 11.5914 14.5875 11.4936C14.6148 11.4446 14.6358 11.4047 14.6508 11.3754C14.6583 11.3608 14.6643 11.3488 14.6688 11.3396C14.6711 11.335 14.673 11.3311 14.6745 11.3279C14.6753 11.3263 14.676 11.3249 14.6765 11.3237C14.6768 11.3231 14.6771 11.3225 14.6774 11.322C14.6775 11.3218 14.6776 11.3214 14.6777 11.3213C14.6779 11.3209 14.678 11.3206 14 11C13.322 10.6794 13.3221 10.6791 13.3223 10.6788C13.3223 10.6787 13.3224 10.6784 13.3225 10.6783C13.3227 10.6779 13.3228 10.6776 13.3229 10.6774C13.3232 10.6769 13.3233 10.6766 13.3234 10.6764C13.3235 10.6762 13.3233 10.6766 13.3228 10.6776C13.3217 10.6798 13.3193 10.6846 13.3156 10.6919C13.3081 10.7066 13.2952 10.7312 13.2768 10.7642C13.24 10.8304 13.1813 10.9301 13.0998 11.0522C12.9361 11.2973 12.6842 11.6264 12.3366 11.9549C11.6466 12.607 10.5901 13.25 9.06977 13.25V14.75Z" fill="black"/>
</svg>
