<?xml version="1.0" encoding="UTF-8" standalone="no"?>
<!-- Created with Inkscape (http://www.inkscape.org/) -->
<svg xmlns:dc="http://purl.org/dc/elements/1.1/" xmlns:cc="http://creativecommons.org/ns#" xmlns:rdf="http://www.w3.org/1999/02/22-rdf-syntax-ns#" xmlns:svg="http://www.w3.org/2000/svg" xmlns="http://www.w3.org/2000/svg" xmlns:sodipodi="http://sodipodi.sourceforge.net/DTD/sodipodi-0.dtd" xmlns:inkscape="http://www.inkscape.org/namespaces/inkscape" version="1.1" width="1538" height="906" id="svg2" inkscape:version="0.48.1 " sodipodi:docname="Aa.svg">
  <metadata id="metadata11">
    <rdf:RDF>
      <cc:Work rdf:about="">
        <dc:format>image/svg+xml</dc:format>
        <dc:type rdf:resource="http://purl.org/dc/dcmitype/StillImage"/>
      </cc:Work>
    </rdf:RDF>
  </metadata>
  <sodipodi:namedview pagecolor="#ffffff" bordercolor="#666666" borderopacity="1" objecttolerance="10" gridtolerance="10" guidetolerance="10" inkscape:pageopacity="0" inkscape:pageshadow="2" inkscape:window-width="1280" inkscape:window-height="1004" id="namedview9" showgrid="false" fit-margin-top="0" fit-margin-left="0" fit-margin-right="0" fit-margin-bottom="0" inkscape:zoom="0.5" inkscape:cx="969.33049" inkscape:cy="459.95334" inkscape:window-x="-8" inkscape:window-y="-8" inkscape:window-maximized="1" inkscape:current-layer="svg2"/>
  <defs id="defs4"/>
  <rect width="1538" height="520" x="0" y="0" id="rect6" style="fill:#ffffff;stroke:none"/>
  <path d="m 1228.1684,905.42094 c -0.8486,-0.34611 -0.9012,-1.27239 -0.1882,-3.31761 0.9032,-2.5908 1.3196,-2.79311 4.7912,-2.32747 3.1486,0.42232 4.0752,0.12015 5.3907,-1.75805 2.5297,-3.61163 0.5773,-6.21707 -4.0134,-5.35585 -3.5209,0.66053 -3.5759,0.62101 -2.8976,-2.08148 2.1541,-8.58285 2.3587,-8.11006 -4.0601,-9.38286 -7.6411,-1.51518 -14.9522,-5.79543 -20.5679,-12.04136 -8.4321,-9.37855 -11.3564,-18.86594 -10.516,-34.11733 0.4281,-7.76935 1.0899,-10.79847 3.5397,-16.20137 7.4971,-16.5344 24.6215,-24.96575 47.6383,-23.45516 4.9834,0.32706 11.3107,1.17559 14.0607,1.88563 l 5,1.29098 0.2875,9.25 0.2876,9.25 -3.0376,0 c -1.7915,0 -3.0375,-0.52182 -3.0375,-1.27216 0,-2.59774 -6.1236,-8.60964 -10.4543,-10.26352 -5.5895,-2.13468 -16.4339,-1.64802 -21.8661,0.98128 -12.4162,6.00956 -18.0771,21.60998 -14.3021,39.41359 1.7539,8.27179 4.6517,13.82061 10.1916,19.51545 5.2511,5.39794 10.5483,7.5768 18.4851,7.6034 8.3942,0.0281 14.2709,-3.34478 17.9671,-10.31204 2.5112,-4.73381 3.407,-5.31453 5.8295,-3.77939 1.1274,0.71445 1.1378,2.36031 0.063,9.95439 l -1.2878,9.09842 -4.563,1.57679 c -2.5096,0.86723 -8.2755,1.8477 -12.813,2.17882 -7.8237,0.57092 -8.25,0.72355 -8.25,2.9535 0,1.78031 0.5532,2.35147 2.2775,2.35147 3.3398,0 6.4728,2.58646 7.2125,5.95437 0.8594,3.91315 -1.9254,9.7023 -5.5752,11.58968 -2.6399,1.36518 -12.9271,1.90479 -15.5922,0.81788 z m -594.96137,-4.20858 c -8.65698,-2.55218 -16.12303,-6.40218 -25.10316,-12.94488 l -7.75811,-5.65238 -12,-0.61549 c -13.30561,-0.68247 -17.95469,-2.16776 -26.5619,-8.48604 -18.96068,-13.91842 -19.64908,-49.33695 -1.29399,-66.576 13.81794,-12.97776 38.12696,-15.6592 55.62466,-6.13576 23.62235,12.8569 26.13024,50.785 4.67167,70.65186 -3.32994,3.08294 -6.59129,5.6071 -7.24744,5.60924 -2.04385,0.007 21.4567,12.86207 28.32821,15.49623 7.59179,2.91027 16.46185,3.29918 22.95954,1.00666 4.72676,-1.6677 5.53467,-1.46785 6.32785,1.56531 0.46331,1.77169 -0.34532,2.51791 -5.12929,4.73339 -7.54109,3.49233 -23.34269,4.14131 -32.81804,1.34786 z m -29.32328,-30.90454 c 16.74471,-8.74754 19.93258,-36.76066 6.21913,-54.65003 -12.70891,-16.57895 -34.98369,-14.06916 -43.35615,4.88511 -7.56464,17.12545 1.0661,43.60146 16.49791,50.6097 6.24578,2.83646 14.21695,2.5102 20.63911,-0.84478 z M 78.34576,880.67137 C 73.75278,878.66674 68.71373,872.43085 60.75067,858.89722 48.51691,838.10529 46.22409,835.05901 42.8085,835.05901 l -2.96274,0 0.02011,11.25 c 0.0367,20.53304 2.10121,27.5597 8.57472,29.18444 1.73171,0.43464 2.40517,1.29834 2.40517,3.08461 l 0,2.48095 -20.5,0 -20.5000005,0 0,-2.35534 c 0,-1.78382 0.7639105,-2.57443 3.1482405,-3.25824 1.73152,-0.4966 4.09402,-2.16992 5.25,-3.7185 2.05131,-2.74802 2.10176,-3.74827 2.10176,-41.66887 0,-37.92091 -0.05043,-38.92081 -2.10176,-41.66792 -1.15598,-1.54806 -3.51848,-3.22095 -5.25,-3.71755 -2.30057,-0.65979 -3.1482405,-1.49391 -3.1482405,-3.09791 0,-2.18524 0.113,-2.19792 25.3992005,-2.84857 26.91292,-0.69251 32.84354,-0.18028 40.42927,3.49191 6.62691,3.20803 12.15054,12.92844 12.16596,21.40949 0.01764,9.70956 -7.20315,20.67565 -16.73127,25.40948 l -4.98761,2.47798 11.02362,16.52202 c 12.96875,19.43734 17.04157,24.62974 20.87336,26.61124 3.57707,1.84978 3.9207,5.88454 0.57747,6.78049 -4.02217,1.0779 -17.17188,0.5861 -20.25,-0.75735 z M 53.32322,824.94363 c 13.40578,-3.72175 17.93029,-22.35039 7.78491,-32.05259 -4.7691,-4.56077 -9.83351,-6.21622 -16.2972,-5.32724 l -4.96517,0.68289 0,18.90616 0,18.90616 4.75,-0.006 c 2.6125,-0.003 6.53986,-0.50248 8.72746,-1.1098 z m 230.40482,55.7348 c -5.4807,-1.95853 -10.64835,-5.44617 -13.38407,-9.03288 -4.97177,-6.51833 -5.49387,-9.94553 -5.55465,-36.46227 -0.0635,-27.71556 -0.58495,-30.7607 -5.67192,-33.12427 -2.04356,-0.94951 -3.2361,-2.23399 -3.24947,-3.5 -0.0203,-1.9224 0.63852,-2 16.9787,-2 16.96286,0 16.9998,0.005 16.99947,2.25 -2.3e-4,1.5116 -0.59949,2.25 -1.82603,2.25 -1.00412,0 -2.91662,1.16107 -4.25,2.58015 l -2.42431,2.58014 0,27.16986 c 0,25.56994 0.12233,27.40306 2.07745,31.13018 3.0492,5.81281 9.13178,8.8028 16.95419,8.33409 8.41615,-0.50427 12.96866,-3.48904 16.32904,-10.70585 2.57854,-5.53769 2.6024,-5.812 2.62077,-30.13235 0.0165,-21.77756 -0.18011,-24.84699 -1.7441,-27.23412 -0.96946,-1.47969 -2.88196,-2.97127 -4.25,-3.31463 -1.55315,-0.38982 -2.48735,-1.33473 -2.48735,-2.51588 0,-1.76204 0.92456,-1.89159 13.5,-1.89159 12.57544,0 13.5,0.12955 13.5,1.89159 0,1.17782 -0.93246,2.12563 -2.47114,2.51181 -4.60493,1.15577 -4.9726,3.29948 -5.51769,32.17152 l -0.51117,27.07492 -3.01039,5.88212 c -3.5531,6.94257 -9.30778,11.74263 -16.71524,13.9424 -6.24847,1.8556 -20.87603,1.93755 -25.89209,0.14506 z m 390,0 c -5.54158,-1.98029 -10.65737,-5.45799 -13.48799,-9.16912 -4.71373,-6.18002 -5.38956,-10.75017 -5.45073,-36.85923 -0.0636,-27.14601 -0.6012,-30.23505 -5.67192,-32.59107 -2.04356,-0.94951 -3.2361,-2.23399 -3.24947,-3.5 -0.0203,-1.9224 0.63852,-2 16.9787,-2 16.80219,0 16.9998,0.0254 16.99947,2.18045 -2.3e-4,1.46515 -0.70554,2.28528 -2.15001,2.5 -1.18232,0.17575 -3.09482,1.58904 -4.25,3.14065 -1.96828,2.64373 -2.12108,4.2913 -2.43041,26.20578 -0.38003,26.92361 0.37161,32.60168 4.9333,37.26749 8.25256,8.44092 25.40532,6.08311 30.26617,-4.16037 3.06142,-6.45146 3.84721,-14.53375 3.47067,-35.69767 -0.39869,-22.40868 -1.06769,-25.20241 -6.35271,-26.52886 -1.55315,-0.38982 -2.48735,-1.33473 -2.48735,-2.51588 0,-1.76204 0.92456,-1.89159 13.5,-1.89159 12.54273,0 13.5,0.13321 13.5,1.87868 0,1.13437 -1.1601,2.35921 -2.92814,3.09156 -1.61048,0.66708 -3.27256,1.95917 -3.6935,2.87132 -0.42094,0.91214 -1.01578,13.84281 -1.32186,28.73481 l -0.5565,27.07638 -3.01039,5.88067 c -3.55319,6.94103 -9.30901,11.74153 -16.71524,13.94094 -6.24847,1.8556 -20.87603,1.93755 -25.89209,0.14506 z m 316.53025,-0.042 c -3.9972,-1.7403 -8.7515,-7.6663 -16.1078,-20.07745 -9.5001,-16.02813 -10.5794,-17.474 -13.0547,-17.48762 -2.2143,-0.0122 -2.25,0.18647 -2.25,12.51974 0,14.9525 1.2484,19.16756 5.9557,20.10902 2.3669,0.47339 3.0443,1.13729 3.0443,2.98386 l 0,2.375 -17,0 -17,0 0,-2.375 c 0,-1.84657 0.6773,-2.51047 3.0443,-2.98386 5.6971,-1.13942 6.1005,-3.84738 5.7585,-38.65649 l -0.3028,-30.82667 -2.4243,-2.57899 c -1.3334,-1.41844 -3.2459,-2.57899 -4.25,-2.57899 -1.1319,0 -1.8257,-0.7276 -1.8257,-1.91468 0,-1.64975 1.0149,-2.00979 7.335,-2.60203 4.0342,-0.37804 15.1717,-0.51546 24.75,-0.30538 15.5721,0.34154 17.8558,0.61449 21.5808,2.57939 6.6173,3.49058 10.3342,10.29702 10.3342,18.92404 0,8.1949 -4.6983,15.39252 -13.2272,20.26356 -2.7227,1.55502 -4.4816,3.11706 -3.9086,3.47119 0.573,0.35414 4.9919,6.59289 9.8198,13.8639 9.47761,14.27373 14.74551,20.72001 16.93241,20.72001 1.9276,0 1.757,4.64272 -0.1982,5.39301 -2.8378,1.08899 -13.84371,0.56118 -17.00571,-0.81556 z m -18.482,-47.04153 c 3.9749,-2.05548 7.8781,-6.99903 8.6111,-10.90613 0.9412,-5.01676 -1.2669,-11.63456 -5.0827,-15.2333 -3.5336,-3.33261 -6.9469,-4.28816 -12.8542,-3.59851 l -3.6047,0.42083 0,15.3906 0,15.39059 5.0496,0 c 2.7773,0 6.3237,-0.65884 7.8809,-1.46408 z m 445.12311,46.86849 c -2.9956,-0.80518 -5.6261,-1.64353 -5.8455,-1.863 -0.2195,-0.21947 -0.9509,-4.70607 -1.6254,-9.97023 l -1.2263,-9.57118 2.8218,0 c 1.552,0 2.8218,0.37285 2.8218,0.82856 0,2.60177 6.5622,10.26517 10.3675,12.10728 10.2851,4.97893 22.6374,0.29154 22.6288,-8.58705 -0.01,-5.82645 -2.8351,-9.30894 -12.4702,-15.34879 -13.5195,-8.4748 -18.74,-12.94976 -21.4363,-18.37504 -2.6882,-5.40895 -3.1685,-13.82648 -1.1396,-19.97413 1.3392,-4.05776 7.6216,-10.11714 12.9102,-12.45194 5.3243,-2.35054 21.988,-2.2747 28.8896,0.13148 l 5.25,1.83036 0,8.91964 0,8.91963 -2.8916,0 c -2.2447,0 -3.0309,-0.5552 -3.5144,-2.48166 -1.0483,-4.1764 -6.409,-9.39144 -10.8958,-10.59962 -12.0031,-3.23208 -21.6169,9.08233 -14.0817,18.03738 1.4391,1.71026 7.963,6.73324 14.4977,11.1622 12.6577,8.57897 17.3339,13.25049 18.9008,18.8817 3.4479,12.39137 -2.2789,23.33602 -14.6283,27.95649 -6.6265,2.47932 -20.9613,2.69821 -29.3331,0.44792 z M 106.84576,878.36307 c 0,-1.77263 0.55989,-2.30406 2.42742,-2.30406 1.43131,0 3.27792,-1.08123 4.5,-2.63486 1.99693,-2.53868 2.07258,-3.78216 2.07258,-34.06574 0,-21.97764 -0.34989,-32.08783 -1.16334,-33.61514 -1.4898,-2.7972 -3.86413,-4.61207 -6.08666,-4.65246 -1.19152,-0.0217 -1.75,-0.82963 -1.75,-2.5318 l 0,-2.5 30,0 30,0 0,10.56642 0,10.56642 -2.62543,-0.31642 c -1.97745,-0.23832 -2.90298,-1.15714 -3.75,-3.72276 -1.97142,-5.97144 -5.2632,-7.49274 -17.16613,-7.93336 l -10.45844,-0.38714 0,14.24191 0,14.2419 8.04338,-0.46562 c 8.7662,-0.50747 13.18069,-2.63575 13.77617,-6.64168 0.23574,-1.58587 1.02255,-2.1493 3,-2.14828 l 2.68045,0.001 0,12.99874 0,12.99874 -2.75,-1.3e-4 c -2.21816,-1e-4 -2.75,-0.45365 -2.75,-2.34514 0,-4.4655 -3.33448,-6.12071 -13.10354,-6.50449 l -8.89646,-0.3495 0,14.0428 c 0,16.92575 0.15546,17.1562 11.57328,17.1562 11.26032,0 17.13028,-2.85177 20.06902,-9.75 1.48525,-3.4864 4.94763,-4.4822 6.00489,-1.72703 0.69767,1.8181 -2.12048,13.5578 -4.23719,17.65107 l -1.49803,2.89687 -28.95598,-0.2314 -28.95599,-0.23139 0,-2.30406 z m 77,0.32094 c 0,-1.82914 0.677,-2.5104 2.94562,-2.96412 5.27616,-1.05524 5.52672,-2.53593 5.8652,-34.66088 0.35242,-33.44847 -0.0755,-36.4614 -5.53918,-39 -2.27872,-1.05877 -3.23472,-2.18979 -3.25,-3.84498 l -0.0216,-2.34498 22.75,0.41462 c 24.59801,0.4483 26.60468,0.83713 33.27158,6.44695 7.327,6.16527 9.22643,18.42741 4.26615,27.54107 -4.32635,7.94893 -11.80619,12.17002 -23.73025,13.39168 l -6.24614,0.63993 -1.55191,-3.87214 -1.55192,-3.87215 3.69517,-0.54051 c 4.69464,-0.68671 9.7927,-3.65977 12.49279,-7.28548 1.53565,-2.06208 2.08592,-4.22459 2.0357,-8 -0.12954,-9.73698 -5.60325,-15.69202 -15.15147,-16.48384 l -5.40357,-0.4481 0.31193,33.37896 c 0.3402,36.40295 0.501,37.42591 6.06194,38.56545 2.06989,0.42415 2.75,1.15089 2.75,2.93852 l 0,2.375 -17,0 -17,0 0,-2.375 z m 166,-0.36541 c 0,-1.54876 0.59432,-2.25959 1.88922,-2.25959 1.03906,0 2.95156,-0.8597 4.25,-1.91043 l 2.36078,-1.91044 0.30284,-30.99523 c 0.33901,-34.69725 -0.0448,-37.31658 -5.78535,-39.4834 -1.80059,-0.67965 -3.01749,-1.85712 -3.01749,-2.91974 0,-1.6189 1.38609,-1.80348 15.25,-2.03076 29.18278,-0.47841 35.29035,-0.15093 40.03664,2.14671 6.15228,2.97827 9.02693,7.29025 9.53405,14.30111 0.22793,3.15111 0.13665,6.83601 -0.20284,8.18866 -0.98519,3.92529 -5.64625,8.71869 -10.79969,11.10631 l -4.76356,2.20699 4.03487,1.20888 c 9.64101,2.88852 15.78782,12.96985 14.51437,23.80493 -1.07483,9.14516 -4.99934,14.28814 -14.10384,18.4828 -4.78167,2.20302 -6.05891,2.30403 -29.25,2.3132 l -24.25,0.01 0,-2.25958 z m 44.10212,-7.52952 c 5.09663,-3.40478 7.11982,-8.04137 6.55207,-15.01557 -0.85414,-10.49238 -8.18258,-16.7145 -19.6864,-16.7145 l -6.11188,0 0.32204,15.09063 c 0.3087,14.46494 0.41993,15.1698 2.68283,17 3.45351,2.79315 11.79782,2.6079 16.24134,-0.36056 z m -4.12961,-41.55277 c 6.1394,-2.35272 9.37042,-7.15933 8.73161,-12.98957 -0.85836,-7.83406 -7.17111,-12.18773 -17.672,-12.18773 l -6.03212,0 0,13.5 0,13.5 5.25,-0.0544 c 2.8875,-0.0299 7.26263,-0.82566 9.72251,-1.76832 z m 41.0278,49.13912 c -2.3e-4,-1.6162 0.68855,-2.26579 2.65079,-2.5 1.49042,-0.17789 3.57003,-1.55251 4.75,-3.13975 2.0249,-2.72378 2.0989,-3.90495 2.0989,-33.5 0,-24.58629 -0.2806,-31.17301 -1.41334,-33.17667 -1.76612,-3.12401 -4.06564,-4.92692 -6.33666,-4.9682 -1.13872,-0.0207 -1.75,-0.81773 -1.75,-2.2818 0,-2.25 0,-2.25 18,-2.25 18,0 18,0 18,2.25 0,1.56182 -0.59466,2.25 -1.94424,2.25 -1.06933,0 -3.20683,1.08552 -4.75,2.41228 l -2.80576,2.41227 -0.29018,31.53834 -0.29019,31.53834 2.55908,1.67678 c 2.02572,1.3273 4.19133,1.58228 10.39056,1.22342 9.51581,-0.55087 13.97218,-2.90581 16.62304,-8.78437 1.76371,-3.91122 3.62998,-4.8611 6.26454,-3.1885 0.98901,0.6279 0.82779,2.47556 -0.75653,8.67018 -1.10736,4.32974 -2.70897,8.93385 -3.55913,10.23136 l -1.54575,2.35912 -27.94741,-0.29461 -27.9474,-0.29461 -3.2e-4,-2.18358 z m 69.99969,0.30858 c 0,-1.84657 0.67735,-2.51047 3.04428,-2.98386 5.52163,-1.10432 5.95619,-3.83192 5.95198,-37.35902 -0.003,-27.84278 -0.13171,-29.992 -1.96898,-33.00528 -1.08088,-1.77274 -3.1042,-3.50903 -4.49626,-3.85841 -1.72238,-0.43229 -2.53102,-1.31946 -2.53102,-2.77684 0,-2.1048 0.29201,-2.14159 17,-2.14159 16.70799,0 17,0.0368 17,2.14159 0,1.44747 -0.80619,2.34393 -2.48735,2.76588 -1.36804,0.34336 -3.28054,1.83442 -4.25,3.31349 -1.58637,2.42025 -1.76265,5.74398 -1.76265,33.23412 0,33.95282 0.40746,36.67641 5.64357,37.72363 2.17974,0.43595 2.85643,1.13393 2.85643,2.94629 l 0,2.375 -17,0 -17,0 0,-2.375 z m 239,-0.1809 c 0,-1.64498 0.7619,-2.34648 3.04428,-2.80296 5.5234,-1.10468 5.95572,-3.82397 5.95572,-37.46114 0,-29.46595 -0.032,-29.93179 -2.28436,-33.28212 -1.2564,-1.86883 -3.2814,-3.54168 -4.5,-3.71743 -1.59212,-0.22962 -2.21564,-1.00352 -2.21564,-2.75 l 0,-2.43045 29.5,0 29.5,0 0,10.5 c 0,10.40288 -0.0221,10.5 -2.38871,10.5 -1.93278,0 -2.51255,-0.66015 -3.03755,-3.45865 -1.11511,-5.94404 -5.19985,-7.93997 -17.15508,-8.38252 l -10.11725,-0.37451 -0.6507,4.74741 c -0.35789,2.61108 -0.65071,9.02304 -0.65071,14.2488 l 0,9.50138 8.50734,-0.53075 c 9.36641,-0.58435 13.0735,-2.23293 14.08519,-6.26381 0.44736,-1.78242 1.30208,-2.48735 3.01588,-2.48735 l 2.39159,0 0,13 0,13 -2.5,0 c -1.70217,0 -2.51015,-0.55848 -2.5318,-1.75 -0.09,-4.94969 -4.8487,-7.25 -14.99835,-7.25 l -8.16164,0 0.34589,14.08156 c 0.41902,17.05826 0.31716,16.91844 12.32514,16.91844 10.59824,0 16.10984,-2.53892 18.99488,-8.75 1.45307,-3.12825 2.55924,-4.25 4.19098,-4.25 1.21928,0 2.52105,0.49218 2.89283,1.09373 0.91137,1.47462 -3.52441,17.7299 -5.33123,19.53672 -1.19247,1.19247 -6.27026,1.40054 -29.83189,1.22241 l -28.39481,-0.21467 0,-2.19409 z m 110,0.23637 c 0,-1.63954 0.93184,-2.73889 3.17861,-3.75 1.74823,-0.78676 4.11073,-2.70119 5.25,-4.25429 2.00857,-2.73819 2.07139,-3.96648 2.07139,-40.5 0,-42.38138 -0.0789,-42.89202 -6.98261,-45.17044 -2.73572,-0.90287 -3.51739,-1.69919 -3.51739,-3.58329 l 0,-2.42245 35.00003,0 35,0 0,12.5 0,12.5 -3,0 c -2.4434,0 -3.0007,-0.4175 -3.0038,-2.25 -0.006,-3.68002 -3.7717,-8.75522 -7.7681,-10.4698 -2.3649,-1.0146 -7.8417,-1.76992 -14.9781,-2.06566 l -11.25,-0.46621 0,17.12583 0,17.12584 8.25,-0.0564 c 10.996,-0.0752 14.7595,-1.43975 17.0823,-6.19356 1.4942,-3.05779 2.371,-3.75 4.75,-3.75 l 2.9177,0 0,15.06336 0,15.06336 -3.2107,-0.31336 c -2.2052,-0.21522 -3.3796,-0.93971 -3.75,-2.31336 -1.5861,-5.8819 -7.7059,-8.5 -19.8688,-8.5 l -6.3935,0 0.4074,17.75 c 0.4649,20.25664 1.317,23.21705 7.306,25.38269 2.6271,0.94998 3.5096,1.84718 3.5096,3.5682 l 0,2.29911 -20.5,0 -20.50003,0 0,-2.31953 z m 160.00004,-0.18047 c 0,-1.82738 0.5343,-2.5 1.9858,-2.5 3.0642,0 6.5638,-6.23208 14.17,-25.2338 10.1854,-25.4451 19.8442,-51.3179 19.8442,-53.1561 0,-1.25702 1.0416,-1.60562 4.75,-1.58968 l 4.75,0.0204 13.488,34.57116 c 14.6469,37.54145 17.3467,43.37673 20.762,44.87513 1.3796,0.60528 2.25,1.86247 2.25,3.25 0,2.26175 -0.01,2.26287 -17,2.26287 l -17,0 0,-2.375 c 0,-1.83416 0.6771,-2.51042 2.9733,-2.96967 4.2977,-0.85954 4.5569,-3.76832 1.2165,-13.65533 l -2.8717,-8.5 -11.8164,0 -11.8164,0 -2.3753,7 c -2.9928,8.81974 -2.8194,14.85664 0.44,15.31955 1.6285,0.23129 2.25,0.99088 2.25,2.75 l 0,2.43045 -13,0 -13,0 0,-2.5 z m 46,-35.01606 c 0,-1.52147 -7.346,-21.48394 -7.9058,-21.48394 -0.3646,0 -1.384,1.9125 -2.2654,4.25 -0.8815,2.3375 -2.7584,7.2875 -4.1709,11 l -2.5683,6.75 8.4552,0 c 4.6504,0 8.4552,-0.23223 8.4552,-0.51606 z m 43,35.14106 c 0,-1.78763 0.6801,-2.51437 2.75,-2.93852 5.4097,-1.10854 5.6526,-2.51711 6.0729,-35.21862 0.4336,-33.73618 0.01,-36.57273 -5.8054,-38.76736 -1.8006,-0.67965 -3.0175,-1.85712 -3.0175,-2.91974 0,-1.60228 1.1276,-1.78055 11.25,-1.77863 l 11.25,0.002 6.5,8.22651 c 3.575,4.52458 12.8,15.67027 20.5,24.76819 7.7,9.09792 15.0319,17.88254 16.2932,19.52137 l 2.2932,2.97968 -0.324,-22.59101 c -0.3531,-24.61611 -0.9122,-27.15552 -6.275,-28.50152 -1.5532,-0.38982 -2.4874,-1.33473 -2.4874,-2.51588 0,-1.76204 0.9246,-1.89159 13.5,-1.89159 12.6712,0 13.5,0.11851 13.5,1.93045 0,1.20948 -0.8028,2.04979 -2.1497,2.25 -1.1823,0.17575 -3.0948,1.58927 -4.25,3.14114 -2.0308,2.7282 -2.1104,4.04398 -2.4067,39.75 l -0.3064,36.92841 -4.3596,0 c -3.9436,0 -4.675,-0.4055 -7.6657,-4.25 -2.6438,-3.39855 -45.0085,-55.87008 -46.6265,-57.75 -0.2366,-0.275 -0.2337,10.75 0.01,24.5 0.4873,27.88205 1.0961,31.21762 5.8725,32.1729 2.2087,0.44174 2.8855,1.13416 2.8855,2.9521 l 0,2.375 -13.5,0 -13.5,0 0,-2.375 z m 175,-0.125 c 0,-1.48556 0.5726,-2.5 1.4111,-2.5 1.9763,0 5.6828,-4.69242 8.3296,-10.54523 3.6808,-8.13936 20.7947,-52.31425 23.7312,-61.25552 l 2.7261,-8.30074 4.4702,0.30074 4.4702,0.30075 13.267,34 c 7.2969,18.7 14.0683,35.575 15.0478,37.5 2.2357,4.39417 5.4905,8 7.2211,8 0.7474,0 1.3257,1.09054 1.3257,2.5 l 0,2.5 -17,0 -17,0 0,-2.5 c 0,-1.74074 0.5467,-2.5 1.8,-2.5 4.8396,0 5.2881,-4.226 1.6179,-15.24659 l -2.5821,-7.75341 -11.7355,0 -11.7355,0 -2.1282,6.75 c -4.0198,12.74955 -3.829,16.25 0.8858,16.25 1.3361,0 1.8776,0.72101 1.8776,2.5 l 0,2.5 -13,0 -13,0 0,-2.5 z m 42.4301,-44.75 c -1.8906,-5.6375 -3.7053,-10.925 -4.0327,-11.75 -0.3555,-0.896 -2.355,2.92935 -4.9656,9.5 -2.4037,6.05 -4.3842,11.3375 -4.4011,11.75 -0.017,0.4125 3.7645,0.75 8.4031,0.75 l 8.4339,0 -3.4376,-10.25 z m 45.5699,44.75 c 0,-1.95594 0.5103,-2.5 2.345,-2.5 1.2898,0 3.2023,-0.94657 4.25,-2.10349 1.7733,-1.95803 1.9253,-4.25747 2.1988,-33.25 0.1615,-17.13058 0.044,-32.14656 -0.2622,-33.36883 -0.7126,-2.84936 -4.3826,-6.27768 -6.7202,-6.27768 -1.2117,0 -1.8115,-0.74486 -1.8117,-2.25 -4e-4,-2.24511 0.037,-2.25 16.9994,-2.25 16.3496,0 16.9999,0.0767 17.0004,2.00589 3e-4,1.25096 -1.0887,2.488 -2.8935,3.28688 -1.5916,0.70454 -3.3582,2.50189 -3.9257,3.99411 -1.4572,3.83206 -2.2862,35.03653 -1.3785,51.89426 0.6331,11.7581 1.0835,14.53463 2.6359,16.25 1.0297,1.13787 2.7025,2.06886 3.7173,2.06886 1.3013,0 1.845,0.73667 1.845,2.5 l 0,2.5 -17,0 -17,0 0,-2.5 z m 112,-0.1797 c 0,-1.78982 0.555,-2.3203 2.4274,-2.3203 1.4313,0 3.2779,-1.08123 4.5,-2.63486 1.9969,-2.53868 2.0726,-3.78216 2.0726,-34.06574 0,-21.97764 -0.3499,-32.08783 -1.1633,-33.61514 -1.4898,-2.7972 -3.8642,-4.61207 -6.0867,-4.65246 -1.1915,-0.0217 -1.75,-0.82963 -1.75,-2.5318 l 0,-2.5 30,0 30,0 0,10.56642 0,10.56642 -2.6254,-0.31642 c -1.9775,-0.23832 -2.903,-1.15714 -3.75,-3.72276 -1.9714,-5.97144 -5.2632,-7.49274 -17.1662,-7.93336 l -10.4584,-0.38714 0,14.11342 0,14.11342 6.25,-0.0564 c 8.6759,-0.0784 12.907,-1.70537 14.75,-5.67192 1.0985,-2.36421 2.1692,-3.23378 4,-3.24861 l 2.5,-0.0203 0,12.99874 0,12.99874 -2.75,-1.3e-4 c -2.2182,-10e-5 -2.75,-0.45365 -2.75,-2.34514 0,-4.4655 -3.3345,-6.12071 -13.1035,-6.50449 l -8.8965,-0.3495 0,14.0428 c 0,16.92575 0.1555,17.1562 11.5733,17.1562 11.2603,0 17.1303,-2.85177 20.069,-9.75 1.4853,-3.4864 4.9476,-4.4822 6.0049,-1.72703 0.6977,1.81811 -2.1205,13.55781 -4.2372,17.6511 l -1.4981,2.8969 -28.9559,-0.21518 -28.956,-0.21519 0,-2.3203 z M 133.90171,787.1361 l -2.44404,-1.87843 5.94404,-9.08364 c 3.26923,-4.996 6.58219,-9.0907 7.36214,-9.09933 3.3814,-0.0374 14.14798,2.27588 13.87833,2.98187 -0.53699,1.40595 -20.27401,18.99078 -21.29642,18.97419 -0.55,-0.009 -2.09982,-0.86152 -3.44405,-1.89466 z M 6.8457595,718.05901 l 1523.0000405,0 0,9 -1523.0000405,0 0,-9 z M 586.48302,697.5942 c -7.9996,-2.85178 -12.49846,-10.30828 -11.04126,-18.30001 0.98201,-5.38561 4.03063,-9.15421 9.42839,-11.65502 l 4.72338,-2.18838 -2.87389,-1.64938 c -1.63336,-0.93742 -2.87388,-2.49913 -2.87388,-3.61797 0,-1.80948 7.33246,-9.12443 9.14627,-9.12443 0.43246,0 -0.19528,-1.66361 -1.39495,-3.69692 -5.12102,-8.67947 -1.02412,-21.22821 8.53692,-26.14849 5.17627,-2.6638 6.92377,-2.77651 25.0479,-1.61552 10.42643,0.6679 10.81449,0.77481 10.26365,2.82754 -0.31486,1.17336 -0.57863,2.47089 -0.58614,2.88339 -0.008,0.4125 -1.77098,0.75 -3.91882,0.75 l -3.90517,0 0.52717,5.81374 c 1.15016,12.68417 -7.87055,21.37143 -22.43352,21.60426 -7.56475,0.12095 -11.22621,1.7253 -8.27495,3.62588 0.8204,0.52833 5.7041,2.32387 10.85267,3.9901 16.55581,5.35793 19.61534,8.05417 18.9093,16.66402 -0.7333,8.9423 -7.92621,16.73891 -18.33199,19.87059 -5.95897,1.79339 -16.72296,1.7769 -21.80108,-0.0334 z m 22.26553,-6.17404 c 8.11826,-4.0455 11.63516,-11.75436 7.19552,-15.77218 -2.99104,-2.70685 -15.98139,-6.86235 -19.34756,-6.18912 -6.85315,1.37063 -13.25509,9.72617 -12.07352,15.75784 1.62388,8.28951 13.78843,11.4045 24.22556,6.20346 z m 2.67725,-45.24683 c 6.09507,-3.71677 8.44918,-14.26487 4.34738,-19.47946 -5.61089,-7.13309 -16.28984,0.81723 -16.38947,12.20172 -0.031,3.53752 0.47904,4.78129 2.76781,6.75 3.37361,2.90186 5.20967,3.00634 9.27428,0.52774 z m 37.91996,23.20471 c -4.39305,-0.89751 -6.74658,-3.82982 -7.24606,-9.02803 -1.27891,-13.30982 9.91905,-32.81692 22.451,-39.11016 6.51399,-3.27118 19.36303,-3.6012 27.92321,-0.71721 0.76799,0.25874 0.20007,3.67734 -1.77892,10.70823 -3.87061,13.75132 -6.08704,27.51528 -4.8139,29.89416 0.83512,1.56042 1.42755,1.66858 4.07825,0.74454 2.44664,-0.8529 3.28616,-0.7887 3.97755,0.30418 1.43948,2.27539 0.56465,3.14091 -5.14924,5.09452 -7.68214,2.62656 -11.1988,2.11456 -12.35347,-1.79855 l -0.91158,-3.0893 -4.09453,2.28848 c -6.91186,3.86311 -16.36062,5.8781 -22.08231,4.70914 z m 17.287,-8.99073 c 2.90785,-1.38138 5.9406,-3.50912 6.73944,-4.72831 1.33548,-2.0382 5.40892,-17.03942 6.99925,-25.77609 0.65169,-3.58011 0.5717,-3.703 -3.06376,-4.7068 -6.71643,-1.8545 -13.47129,3.04346 -18.85227,13.66982 -5.6449,11.14754 -7.06823,21.07805 -3.39033,23.65415 2.49697,1.74895 4.02682,1.46953 11.56767,-2.11277 z m 473.46924,8.6969 c -4.4875,-1.06532 -6.0707,-2.62272 -7.2974,-7.17837 -1.8601,-6.90777 2.444,-19.97461 9.7635,-29.64096 8.765,-11.57535 18.507,-15.48225 32.8918,-13.19073 3.7873,0.60331 7.1836,1.40921 7.5475,1.79089 0.3638,0.38169 -0.8999,6.76897 -2.8082,14.19397 -1.9084,7.425 -3.5561,16.425 -3.6616,20 l -0.1918,6.5 4.25,-0.18933 c 3.8132,-0.16987 4.25,0.0451 4.25,2.09168 0,1.90926 -0.9403,2.5657 -5.7698,4.02796 -7.9475,2.40631 -11.6356,1.89189 -12.0466,-1.68031 -0.1741,-1.5125 -0.4987,-2.75 -0.7215,-2.75 -0.2228,0 -2.8379,1.07592 -5.8114,2.39093 -4.7838,2.11563 -14.5333,4.78666 -16.4499,4.50671 -0.3854,-0.0563 -2.1605,-0.4489 -3.9446,-0.87244 z m 16.7438,-8.56017 c 2.475,-1.23687 5.2297,-3.085 6.1215,-4.10694 2.2127,-2.5355 6.1846,-15.58711 8.2404,-27.0779 0.548,-3.06333 0.3826,-3.2719 -3.4042,-4.29158 -3.2403,-0.87251 -4.6307,-0.76311 -7.4789,0.58848 -6.3482,3.0124 -12.6477,13.2318 -15.9145,25.81716 -3.1288,12.05382 0.7724,14.89945 12.4357,9.07078 z M 72.3422,666.80901 c -0.29792,-1.2375 1.48471,-10.53948 3.96141,-20.67107 4.88313,-19.97575 4.84188,-21.59887 -0.50995,-20.06399 -2.64691,0.75913 -2.9479,0.61349 -2.9479,-1.42642 0,-1.90445 0.92991,-2.54335 5.75,-3.95056 3.1625,-0.92329 7.325,-1.78204 9.25,-1.90833 3.29481,-0.21617 3.51883,-0.033 3.82114,3.12467 0.17663,1.84486 -1.54824,10.98546 -3.83303,20.31244 -2.28479,9.32697 -3.88662,17.65536 -3.55961,18.50751 0.47356,1.23409 1.52403,1.41 5.16216,0.86443 4.35231,-0.65267 4.5521,-0.57694 4.23848,1.60673 -0.25947,1.8066 -1.49333,2.65584 -5.82914,4.01204 -3.025,0.9462 -7.62892,1.74786 -10.23094,1.78146 -4.10396,0.053 -4.80274,-0.2371 -5.27262,-2.18891 z m 38.44514,0.40378 -2.27999,-1.84622 7.74711,-34.03485 c 4.2609,-18.71916 7.59954,-35.32586 7.4192,-36.90377 -0.33624,-2.94194 -0.69849,-3.09361 -4.5779,-1.91674 -1.91873,0.58208 -2.25,0.3115 -2.25,-1.83781 0,-2.91255 3.51212,-4.31961 13.25,-5.30834 5.57876,-0.56644 5.75,-0.51166 5.75,1.83949 0,1.33283 -1.575,9.56042 -3.5,18.28354 -1.925,8.72313 -3.5,16.44483 -3.5,17.15934 0,0.9701 1.0994,0.8128 4.34098,-0.6211 11.13679,-4.92633 20.84479,-4.66582 24.32973,0.65287 3.26299,4.97996 1.57352,17.86759 -3.72723,28.43205 -2.75816,5.49704 -10.96487,14.05226 -15.42216,16.07707 -5.85522,2.65985 -24.30497,2.67622 -27.57974,0.0245 z m 25.30456,-6.34106 c 5.01378,-3.54819 10.60306,-15.5393 12.17944,-26.12946 1.57926,-10.6096 -5.43316,-12.72608 -16.63374,-5.02037 -2.36578,1.6276 -4.26403,4.05091 -5.24369,6.69411 -1.81308,4.89183 -5.54815,20.85629 -5.54815,23.71395 0,4.20785 9.68271,4.67894 15.24614,0.74177 z m 38.19095,5.12071 c -2.7087,-2.8281 -2.93233,-3.62515 -2.87588,-10.25 0.14384,-16.88033 9.74022,-31.98815 22.95982,-36.14623 6.59562,-2.07457 12.39763,-1.3714 16.28674,1.97387 2.24295,1.92931 2.69223,3.13508 2.69223,7.22538 0,10.29527 -9.38873,18.10448 -22.90042,19.04775 -3.90477,0.27259 -7.43019,0.99517 -7.83427,1.60571 -1.12575,1.70097 -0.90186,7.48214 0.38439,9.92583 2.4953,4.74068 6.07507,4.85182 14.64923,0.4548 5.34199,-2.73948 6.4411,-3.00541 7.23469,-1.75038 1.76734,2.79494 0.94883,3.67269 -6.82804,7.32215 -6.47603,3.03901 -8.89698,3.65769 -14.3129,3.65769 -5.96903,0 -6.76607,-0.25849 -9.45559,-3.06657 z m 17.90733,-24.01208 c 8.50742,-2.3623 14.11946,-11.45747 9.75975,-15.81718 -2.74917,-2.74917 -5.2914,-2.65895 -8.82349,0.31311 -2.81321,2.36716 -7.38438,9.86779 -8.73489,14.33272 -0.56945,1.88263 -0.30219,2.24909 1.63682,2.24442 1.27457,-0.003 4.04738,-0.48595 6.16181,-1.07307 z m 33.65558,26.73796 c 0,-0.16634 1.79725,-7.92023 3.99389,-17.23087 2.19664,-9.31064 3.99664,-18.89845 4,-21.30625 l 0.006,-4.37781 -4,0.63963 c -3.54564,0.56697 -4,0.41263 -4,-1.35877 0,-2.19312 3.23326,-3.8726 11.34988,-5.89556 5.55297,-1.38401 7.65012,-0.43479 7.65012,3.46263 l 0,2.34742 3.54919,-2.40855 c 6.24272,-4.23642 10.05617,-5.01288 14.58653,-2.96998 2.16996,0.97852 3.80753,2.26505 3.63904,2.85896 -2.71523,9.57083 -4.2598,12.57984 -6.45738,12.57984 -1.96577,0 -2.31738,-0.51248 -2.31738,-3.37756 0,-7.27512 -6.32882,-7.32707 -10.91868,-0.0896 -2.85987,4.50955 -5.8166,14.76482 -8.16412,28.31686 -0.70022,4.04232 -1.75555,7.49159 -2.34517,7.66505 -1.7595,0.51763 -10.57203,1.47171 -10.57203,1.14458 z m 50.16231,-0.96374 c -1.1038,-1.32999 -0.49753,-4.92394 5.22025,-30.94557 l 2.36211,-10.75 -3.37233,0 c -1.85479,0 -3.37234,-0.25458 -3.37234,-0.56574 0,-1.56375 2.23882,-4.43426 3.45846,-4.43426 2.43799,0 7.11968,-4.73504 9.0838,-9.18731 2.19567,-4.97716 3.06864,-5.77633 6.33274,-5.79738 2.1483,-0.0138 2.31281,0.2949 1.72341,3.23469 -0.35838,1.7875 -0.92214,4.9375 -1.25281,7 l -0.60122,3.75 4.62781,0 c 4.72683,0 5.42279,0.76474 4.02082,4.41821 -0.43646,1.13741 -1.95115,1.58179 -5.39159,1.58179 -5.55895,0 -4.64644,-1.99935 -9.08206,19.8992 -3.2584,16.08668 -3.03849,17.56895 2.37615,16.01605 4.51857,-1.29591 4.88241,-1.18856 4.52404,1.33475 -0.2424,1.70674 -1.52679,2.65318 -5.31955,3.91983 -6.12238,2.04466 -13.85706,2.30979 -15.33769,0.52574 z m 40.33692,-1.2909 c -7.31849,-7.89678 -2.02251,-30.35434 9.6285,-40.8296 4.75383,-4.2741 12.17649,-7.57507 17.03353,-7.57507 3.07468,0 9.84899,3.15064 10.86791,5.05451 1.61177,3.01162 1.10968,10.20551 -0.94777,13.57966 -4.21634,6.91464 -13.30493,11.36583 -23.20713,11.36583 l -5.87427,0 0,5.27749 c 0,10.24466 4.25747,12.04248 15.44894,6.52372 3.56775,-1.75934 6.68349,-2.99684 6.92387,-2.75 0.24038,0.24683 0.59233,1.34879 0.78212,2.44879 0.27695,1.60517 -1.11318,2.74031 -7.04157,5.75 -6.4196,3.25906 -8.29143,3.75 -14.29775,3.75 -6.15503,0 -7.17424,-0.28393 -9.31638,-2.59533 z m 17.60155,-24.55762 c 5.28405,-1.79225 8.98974,-4.81945 10.59102,-8.65186 1.34708,-3.224 1.30962,-3.71715 -0.46346,-6.10134 -2.74839,-3.69567 -5.44694,-3.71882 -9.58874,-0.0823 -3.19538,2.80557 -8.6396,12.21147 -8.6396,14.92649 0,1.39498 3.84709,1.35175 8.10078,-0.091 z m 375.56589,26.48628 c -1.4121,-1.41209 -0.49635,-7.31278 4.30053,-27.71093 6.52564,-27.74946 10.0328,-44.08701 10.0328,-46.73626 0,-1.89618 -0.41008,-2.08128 -3.5,-1.57985 -3.18507,0.51686 -3.5,0.35214 -3.5,-1.83062 0,-2.50179 2.49482,-3.60921 12.43159,-5.51822 5.13187,-0.98591 6.56841,-0.33543 6.56841,2.97421 0,1.49473 -3.37203,17.30909 -7.49341,35.14302 -4.12138,17.83392 -7.49638,33.94899 -7.5,35.81124 l -0.007,3.38593 4.56827,-0.62615 c 4.29512,-0.58871 4.54924,-0.49408 4.25,1.58262 -0.24608,1.70777 -1.56582,2.599 -5.81827,3.92913 -5.61763,1.75716 -13.13532,2.37389 -14.33333,1.17588 z m 37.69651,-0.55471 c -1.22696,-1.98527 -0.52518,-6.31582 3.73334,-23.03745 2.21779,-8.70844 3.86412,-16.60025 3.65852,-17.53735 -0.39464,-1.79872 -0.64456,-1.83931 -5.00504,-0.81298 -2.32282,0.54672 -2.75,0.3257 -2.75,-1.42281 0,-2.38389 4.26826,-4.50174 12.04503,-5.97657 5.5554,-1.05356 7.95497,-0.51417 7.95497,1.78817 0,0.86111 -2.03747,10.06075 -4.52772,20.44365 -2.49025,10.3829 -4.23091,19.35824 -3.86815,19.94521 0.40381,0.65337 2.37994,0.83141 5.09599,0.45913 4.15435,-0.56941 4.41618,-0.46764 4.11815,1.6007 -0.24608,1.70777 -1.56582,2.599 -5.81827,3.92913 -6.50777,2.03559 -13.57724,2.3356 -14.63682,0.62117 z m 36.93415,-0.44618 c -0.35195,-0.91716 -0.0839,-4.17966 0.59561,-7.25 2.23077,-10.07932 7.10706,-33.14612 7.10706,-33.61925 0,-0.25475 -1.383,-0.46319 -3.07332,-0.46319 -4.34107,0 -3.53127,-2.79506 1.57419,-5.43338 3.03937,-1.57065 4.79234,-3.56657 7.30429,-8.31662 2.86014,-5.40847 3.68498,-6.25 6.12604,-6.25 l 2.82088,0 -1.34091,6.25 c -0.7375,3.4375 -1.35672,6.5875 -1.37604,7 -0.0193,0.4125 2.21487,0.75 4.96487,0.75 5.22417,0 5.34653,0.10501 4.36971,3.75 -0.52681,1.96578 -1.25664,2.25 -5.77774,2.25 l -5.17477,0 -3.36321,16.87589 c -1.84977,9.28174 -3.09223,17.58209 -2.76101,18.44522 0.48674,1.26841 1.23419,1.38809 3.89801,0.62411 4.58296,-1.31437 4.80901,-1.24748 4.80901,1.423 0,2.03243 -0.82461,2.5996 -5.8156,4 -7.74806,2.174 -14.04491,2.15886 -14.88707,-0.0358 z m 41.18134,-0.59713 c -2.4891,-2.14103 -2.92084,-3.31566 -3.27751,-8.91714 -0.80143,-12.58624 4.96033,-26.79564 13.51356,-33.32651 9.44521,-7.21196 19.76134,-8.16945 25.55856,-2.37222 2.68927,2.68927 2.92666,3.44793 2.49255,7.96583 -0.95175,9.90507 -10.44455,17.09963 -23.43382,17.76041 -8.12342,0.41324 -8.97803,1.38914 -7.3846,8.43267 1.73459,7.66754 4.88631,8.45451 14.89561,3.71933 6.63007,-3.13654 8.15698,-3.13462 8.15698,0.0103 0,3.19596 -12.0018,8.33042 -20.57731,8.80311 -6.38245,0.35181 -7.35876,0.14801 -9.94402,-2.07574 z m 21.50392,-26.72643 c 6.23588,-3.18131 8.912,-10.25791 5.36242,-14.18014 -4.46728,-4.93629 -12.73729,1.52875 -16.84366,13.16744 l -1.50891,4.2767 4.50698,-0.61775 c 2.47884,-0.33976 6.29627,-1.53057 8.48317,-2.64625 z m 239.01745,28.62244 c 0,-0.15095 1.7973,-7.89224 3.9939,-17.20288 2.1966,-9.31064 3.9966,-18.89845 4,-21.30625 l 0.01,-4.37781 -4,0.63963 c -3.5333,0.565 -4,0.409 -4,-1.33701 0,-2.42823 1.7598,-3.41176 9.8607,-5.5109 7.0388,-1.82394 9.1393,-1.12154 9.1393,3.05621 l 0,2.34742 3.5492,-2.40855 c 6.2243,-4.22395 10.0588,-5.01169 14.546,-2.98827 2.1476,0.96846 3.9049,2.03 3.905,2.35896 10e-5,0.32897 -1.0084,3.41063 -2.2411,6.84813 -1.8506,5.1607 -2.6349,6.25 -4.5002,6.25 -1.8993,0 -2.2589,-0.53761 -2.2589,-3.37756 0,-6.8353 -5.8766,-7.34525 -10.2643,-0.8907 -3.3365,4.90804 -5.0438,10.23476 -7.7788,24.26826 -1.2326,6.325 -2.5147,11.7795 -2.849,12.1211 -0.6001,0.61317 -11.1079,2.0418 -11.1079,1.51022 z m 115.3369,-1.19564 c -0.8204,-2.13815 0.1268,-8.29737 3.9889,-25.93568 l 3.2844,-15 -2.8051,-0.31336 c -3.3556,-0.37485 -3.9223,-3.69728 -0.7997,-4.68835 3.5153,-1.11572 7.5752,-5.23893 9.5369,-9.6856 2.1956,-4.97716 3.0686,-5.77633 6.3327,-5.79738 2.1483,-0.0138 2.3128,0.2949 1.7234,3.23469 -0.3584,1.7875 -0.9221,4.9375 -1.2528,7 l -0.6012,3.75 4.6278,0 c 4.7268,0 5.4228,0.76474 4.0208,4.41821 -0.4365,1.13741 -1.9511,1.58179 -5.3916,1.58179 -5.5589,0 -4.6464,-1.99935 -9.082,19.8992 -3.2584,16.08668 -3.0385,17.56895 2.3761,16.01605 4.5186,-1.29591 4.8824,-1.18856 4.5241,1.33475 -0.2424,1.70674 -1.5268,2.65318 -5.3196,3.91983 -6.6572,2.22326 -14.3601,2.35832 -15.1631,0.26585 z m 40.3475,-1.02402 c -7.5806,-7.58056 -2.3401,-30.24225 9.4433,-40.83659 4.7539,-4.2741 12.1765,-7.57507 17.0336,-7.57507 3.0746,0 9.8489,3.15064 10.8679,5.05451 1.6117,3.01162 1.1097,10.20551 -0.9478,13.57966 -4.236,6.94694 -13.3054,11.36583 -23.3273,11.36583 l -5.9945,0 0.4437,6.13438 c 0.7047,9.74183 4.284,11.07226 15.2456,5.66683 3.5678,-1.75934 6.6835,-2.99684 6.9239,-2.75 0.2404,0.24683 0.5923,1.34879 0.7821,2.44879 0.277,1.60517 -1.1131,2.74031 -7.0415,5.75 -6.3617,3.22966 -8.3201,3.75 -14.1137,3.75 -5.9033,0 -7.0439,-0.31691 -9.3153,-2.58834 z m 20.9638,-26.06151 c 6.9947,-3.4763 10.1287,-11.53689 5.7685,-14.83623 -2.896,-2.19131 -4.9961,-1.82214 -8.8415,1.55421 -3.2175,2.82496 -8.5752,12.19789 -8.5752,15.00161 0,1.65511 6.9107,0.6349 11.6482,-1.71959 z m 30.3518,27.78999 c 0,-0.4211 1.8262,-8.53073 4.0582,-18.0214 2.2321,-9.49066 3.9196,-18.68743 3.75,-20.43725 -0.2889,-2.98193 -0.5368,-3.16845 -3.9526,-2.97363 -2.8575,0.16299 -3.753,-0.20764 -4.1476,-1.71646 -0.4094,-1.56557 0.4565,-2.27844 4.6444,-3.82376 2.8312,-1.04469 6.8354,-2.20524 8.8983,-2.57899 3.8775,-0.70252 3.8119,-0.75636 6.2382,5.11443 0.046,0.11169 2.7184,-1.12581 5.9384,-2.75 6.8906,-3.47568 8.0459,-3.57172 12.2354,-1.01714 l 3.1627,1.92847 -2.1627,6.54366 c -1.8045,5.45984 -2.5354,6.54767 -4.4127,6.5678 -1.8837,0.0202 -2.25,-0.51316 -2.25,-3.27587 0,-8.71359 -8.2931,-6.99014 -12.8324,2.6668 -1.1405,2.42625 -3.3996,10.79115 -5.0203,18.58867 -1.6207,7.79751 -3.1044,14.30938 -3.297,14.4708 -0.8801,0.73741 -10.8503,1.39337 -10.8503,0.71387 z m 50,0.004 c 0,-0.44993 1.6055,-7.07882 3.5678,-14.73087 2.143,-8.35657 3.6406,-16.70834 3.75,-20.91281 l 0.1822,-7 -3.6261,0.27782 c -2.8502,0.21838 -3.7316,-0.12579 -4.1194,-1.60855 -0.4031,-1.54158 0.4424,-2.17134 4.6261,-3.44551 9.0914,-2.76884 11.233,-2.96735 12.9957,-1.20461 0.893,0.89304 1.6237,2.71656 1.6237,4.05228 0,1.33571 0.1846,2.42857 0.4102,2.42857 0.2256,0 3.1952,-1.31711 6.5992,-2.9269 8.06,-3.81178 18.7429,-5.81122 21.9315,-4.10474 2.0808,1.11364 2.2296,1.68889 1.6216,6.2718 -0.3681,2.77514 -1.9862,10.49389 -3.5958,17.15277 -1.6096,6.65889 -3.0481,13.68207 -3.1966,15.60707 -0.2701,3.49957 -0.2696,3.49999 3.9369,3.41687 2.8753,-0.0568 4.3893,0.39183 4.7828,1.41721 0.7928,2.06584 -0.152,2.73896 -6.4213,4.57513 -7.1119,2.08296 -13.6594,2.09937 -14.4511,0.0362 -0.3281,-0.85501 1.1988,-9.5718 3.393,-19.37064 4.3996,-19.64689 4.6522,-21.88331 2.5625,-22.68521 -2.157,-0.82771 -9.8081,2.92467 -14.3736,7.04934 -3.758,3.39506 -4.2389,4.45026 -6.5464,14.36267 -1.3698,5.88412 -2.8085,12.87169 -3.1972,15.52793 -0.3887,2.65625 -1.2127,4.98052 -1.8312,5.16506 -3.0329,0.90493 -10.6245,1.36873 -10.6245,0.64909 z m 68.5866,-0.77868 c -0.3451,-0.89925 1.44,-10.16294 3.967,-20.58598 2.5269,-10.42305 4.3597,-19.56265 4.0728,-20.31023 -0.3996,-1.04126 -1.2926,-1.13811 -3.8174,-0.41401 -1.8127,0.51987 -3.4113,0.94522 -3.5524,0.94522 -0.1411,0 -0.2566,-1.04282 -0.2566,-2.31738 0,-1.92728 0.8837,-2.58464 5.25,-3.90509 11.8483,-3.58317 15.5083,-2.97532 14.3116,2.37682 -0.2884,1.29011 -2.3493,9.96554 -4.5797,19.27874 -2.2305,9.3132 -3.805,17.58565 -3.4989,18.38322 0.425,1.10755 1.631,1.30285 5.105,0.82668 4.2741,-0.58582 4.5293,-0.49015 4.2303,1.58533 -0.616,4.27484 -19.7483,8.00248 -21.2317,4.13668 z m 37.7282,0.013 c -0.667,-1.73823 0.1431,-6.51266 4.0514,-23.87798 4.3211,-19.19952 4.259,-17.5 0.6399,-17.5 -4.3972,0 -3.6652,-2.75879 1.4416,-5.43338 2.9381,-1.53877 4.7503,-3.59913 7.095,-8.06662 2.5606,-4.87874 3.6713,-6.06167 5.9438,-6.32999 3.0352,-0.35839 3.0572,-0.10432 0.9151,10.57999 l -0.6516,3.25 5.232,0 c 4.36,0 5.1308,0.26361 4.625,1.58179 -0.3339,0.86998 -0.607,2.21998 -0.607,3 0,1.04837 -1.4016,1.41821 -5.3749,1.41821 l -5.3748,0 -3.3021,16.81783 c -1.8161,9.2498 -3.021,17.55015 -2.6775,18.44522 0.5108,1.33119 1.2244,1.45535 3.9203,0.68217 4.583,-1.31437 4.809,-1.24748 4.809,1.423 0,2.03243 -0.8246,2.5996 -5.8156,4 -7.6698,2.15204 -14.0459,2.15622 -14.8696,0.01 z m 41.1079,-0.69284 c -2.8636,-2.46515 -2.9227,-2.71596 -2.9227,-12.40489 0,-9.42498 0.1772,-10.24733 3.7779,-17.53054 4.4175,-8.93526 9.4869,-13.76972 17.6362,-16.81875 14.1948,-5.31096 24.3903,3.71132 18.1085,16.02466 -3.5519,6.96236 -13.026,11.98795 -22.6642,12.02242 -5.7893,0.0207 -6.1794,0.17273 -6.8013,2.65031 -0.836,3.33102 0.2087,8.35377 2.2092,10.62165 2.2738,2.5777 6.184,2.14649 13.1598,-1.45124 5.2021,-2.68289 6.3558,-2.96625 7.1252,-1.75 1.771,2.79954 0.8927,3.87615 -5.8013,7.11063 -5.1537,2.49024 -8.4237,3.3538 -13.8273,3.65166 -6.4168,0.3537 -7.3501,0.15528 -10,-2.12591 z m 21.7809,-26.91972 c 6.7573,-3.79782 9.0125,-11.26727 4.3284,-14.33638 -1.847,-1.21026 -3.1678,-1.38499 -5.25,-0.69455 -3.5265,1.1694 -8.5628,7.70652 -10.6449,13.81712 l -1.6069,4.7161 4.5904,-0.62919 c 2.5248,-0.34606 6.3871,-1.63895 8.583,-2.8731 z M 0.03074952,666.33697 c 0.18589,-0.96525 1.23280998,-1.91912 2.32649998,-2.11971 2.96934,-0.54462 5.56392,-3.17812 7.59014,-7.70399 C 12.63504,650.50997 20.92843,608.76035 21.15266,600.105 c 0.19124,-7.38221 0.16217,-7.47373 -3.01838,-9.5 -6.20484,-3.95302 -4.54678,-4.54599 12.71148,-4.54599 13.67213,0 16,0.22187 16,1.525 0,0.89786 -1.24628,1.77426 -3.03055,2.13111 -6.37733,1.27547 -8.79787,7.57085 -14.81875,38.54092 -5.6265,28.9415 -5.57142,28.38225 -3.04415,30.90952 1.92037,1.92036 2.96538,2.08474 10.76019,1.69252 10.48453,-0.52756 14.27227,-2.29212 17.93434,-8.35493 2.88488,-4.77612 2.99971,-4.85646 5.06823,-3.54607 1.14807,0.72729 1.1051,1.65384 -0.26598,5.73468 -0.89942,2.67699 -2.65468,6.66725 -3.90059,8.86725 l -2.2653,4 -26.79521,0.26648 c -25.0908805,0.24953 -26.77372048,0.15485 -26.45724048,-1.48852 z m 505.81501048,0.3044 c 0,-0.77971 1.6875,-2.24221 3.75,-3.25 2.61314,-1.27686 4.41478,-3.19659 5.9428,-6.33236 2.86495,-5.87937 11.52557,-48.4667 11.68434,-57.45601 0.11998,-6.79312 0.0476,-7.00388 -3.08862,-9 -6.71099,-4.2713 -5.19397,-4.54399 25.27887,-4.54399 27.95508,0 28.554,0.0422 27.94292,1.96751 -0.34345,1.08214 -1.18586,5.01964 -1.87201,8.75 -1.0582,5.75306 -1.58076,6.83099 -3.44292,7.10204 -1.78597,0.25996 -2.19538,-0.1719 -2.19538,-2.31574 0,-6.63849 -3.93904,-8.50381 -17.95771,-8.50381 l -9.65926,0 -2.77341,12.75 c -1.52539,7.0125 -2.99189,13.5375 -3.25891,14.5 -0.43605,1.57182 0.41227,1.7485 8.3319,1.73526 9.958,-0.0167 12.89321,-1.07922 15.81544,-5.7253 2.60032,-4.13428 5.99234,-4.46667 5.20411,-0.50996 -0.30131,1.5125 -1.34481,6.9125 -2.31889,12 -1.39695,7.29612 -2.12616,9.25 -3.45216,9.25 -1.061,0 -1.89842,-1.08654 -2.27023,-2.94562 -0.32469,-1.62341 -1.61519,-3.49757 -2.875,-4.17527 -2.39974,-1.29091 -18.12548,-1.86619 -19.2902,-0.70567 -0.67291,0.67047 -3.62555,15.08258 -4.92083,24.01901 -0.62263,4.29572 -0.46344,4.83445 1.8829,6.37183 2.06127,1.35059 4.27401,1.59332 11.30265,1.23987 10.43512,-0.52475 14.14294,-2.18983 18.43462,-8.27848 1.85684,-2.63433 3.6138,-4.15253 4.43909,-3.83584 1.9453,0.74649 1.7153,2.53441 -1.23369,9.5903 -4.37331,10.46377 -1.88171,9.71987 -32.55541,9.71987 -22.50243,0 -26.84501,-0.22932 -26.84501,-1.41764 z m 508.00004,0.0206 c 0,-0.79632 1.4625,-1.94639 3.25,-2.55573 6.313,-2.15204 8.3995,-7.85531 14.7154,-40.22403 5.439,-27.87451 5.3058,-32.33279 -1.0264,-34.34254 -1.127,-0.3577 -1.8745,-1.17468 -1.6611,-1.81551 0.2799,-0.84086 8.1083,-1.23916 28.1275,-1.43109 27.2671,-0.26141 27.7288,-0.23217 27.11,1.71752 -0.3463,1.0909 -1.1909,5.03558 -1.8771,8.76594 -1.0582,5.75306 -1.5808,6.83099 -3.4429,7.10204 -1.8531,0.26973 -2.1954,-0.15902 -2.1954,-2.75 0,-6.31335 -4.877,-8.39654 -18.436,-7.87487 l -7.9359,0.30532 -2.7801,13 c -1.529,7.15 -2.7953,13.5625 -2.814,14.25 -0.05,1.84588 15.2306,1.68167 18.8748,-0.20284 1.5452,-0.79906 3.3775,-2.82406 4.0717,-4.5 0.7733,-1.86701 1.9897,-3.04716 3.1408,-3.04716 2.3277,0 2.3432,-0.72552 -0.2725,12.75 -1.8335,9.44641 -2.4774,11.25 -4.0162,11.25 -1.1076,0 -1.8326,-0.72226 -1.8326,-1.82569 0,-4.6663 -9.3487,-8.13593 -17.9887,-6.67622 l -3.8217,0.64567 -2.0284,11.17812 c -3.5771,19.71167 -3.4262,21.49727 2.0062,23.74746 5.9794,2.47673 2.5276,3.42434 -13.4996,3.70605 -13.1362,0.2309 -15.6678,0.0415 -15.6678,-1.17244 z m -586.60593,-21.5115 c -4.4729,-2.0313 -8.39411,-8.30931 -8.39411,-13.43929 0,-7.94397 7.02183,-15.048 14.84652,-15.0203 9.3581,0.0331 15.14299,5.74947 15.14974,14.97026 0.009,11.7168 -10.73399,18.42493 -21.60215,13.48933 z m 508.98502,0.47197 c -1.7165,-0.74706 -4.4012,-3.03683 -5.966,-5.08839 -2.3201,-3.04189 -2.8312,-4.68814 -2.77,-8.9227 0.1328,-9.18737 5.8457,-14.83804 15.0014,-14.83804 4.5367,0 6.0476,0.49311 9.145,2.9845 6.9029,5.55235 7.9758,14.86135 2.4674,21.40775 -4.6298,5.50222 -11.5259,7.2214 -17.8778,4.45688 z m -597.86101,-35.5434 c -1.96696,-2.17347 -2.10855,-1.94576 9.25582,-14.8856 l 3.83405,-4.36558 5.69601,1.27471 c 3.1328,0.70109 5.696,1.57681 5.696,1.94605 0,0.67463 -21.41149,18.0104 -22.24473,18.0104 -0.24491,0 -1.25163,-0.89099 -2.23715,-1.97998 z m 508.75332,-10e-4 -2.21856,-1.79648 7.54875,-8.61112 c 4.15181,-4.73612 7.93058,-8.61112 8.39727,-8.61112 2.43896,0 11.01103,2.45787 10.77533,3.08961 -0.2482,0.66513 -18.87859,15.6473 -21.27923,17.11229 -0.55275,0.33731 -2.00335,-0.19512 -3.22356,-1.18318 z m 664.7652,0.009 -2.413,-1.82013 7.8111,-8.60375 c 4.2961,-4.73206 8.1715,-8.60375 8.6119,-8.60375 1.9787,0 10.9485,2.4031 10.9057,2.92175 -0.045,0.54079 -18.9279,15.77708 -21.3817,17.25213 -0.6165,0.37063 -2.2068,-0.14518 -3.534,-1.14625 z M 84.7416,604.95484 c -4.06383,-4.06382 -0.09785,-11.89583 6.02382,-11.89583 4.25734,0 6.48034,2.23375 6.48034,6.51167 0,6.67355 -7.83927,10.04906 -12.50416,5.38416 z m 674.85416,0.71212 c -2.45773,-1.86568 -2.31208,-8.04587 0.25,-10.60795 4.12463,-4.12463 12,-1.43247 12,4.10216 0,5.99403 -7.60416,10.03249 -12.25,6.50579 z m 664.14584,-0.71212 c -4.1348,-4.13482 -0.08,-11.89583 6.215,-11.89583 6.2819,0 8.9733,7.00683 4.4347,11.54545 -3.0807,3.08069 -7.7652,3.23481 -10.6497,0.35038 z M 547.64193,576.37055 c -1.52764,-1.7028 -1.16323,-2.31401 6.07071,-10.18218 l 7.69591,-8.37064 5.7186,1.27977 c 3.14524,0.70387 5.69594,1.54566 5.66823,1.87064 -0.0811,0.95093 -20.16265,16.33382 -21.92439,16.79452 -0.88213,0.23069 -2.33521,-0.39577 -3.22906,-1.39211 z" id="path8" style="fill:#000000;stroke:none" inkscape:connector-curvature="0"/>
  <path d="m 880.09985,520 2.3331,-6.03323 c 3.95348,-10.89901 8.05377,-19.21715 13.97126,-28.34278 6.26858,-9.66712 20.06674,-23.90682 25.80652,-26.63237 7.05438,-3.34973 15.82406,-4.52911 26.66883,-3.5865 9.31267,0.80945 37.92569,5.4882 49.47174,8.08952 8.7875,1.97982 21.6545,2.16927 27.7091,0.40796 11.6659,-3.39365 18.5772,-9.95372 21.8571,-20.74657 2.5161,-8.27952 2.4921,-15.8043 -0.066,-20.82255 -3.4364,-6.74046 -2.8513,-8.49357 5.5,-16.47939 4.125,-3.94445 7.5055,-7.59154 7.5123,-8.10463 0.035,-2.66984 -5.6801,-13.39015 -7.1515,-13.41431 -0.9016,-0.0148 -2.6827,-0.87243 -3.9581,-1.90585 l -2.3189,-1.87896 4.9581,-2.53468 c 6.77,-3.46098 11.7914,-8.84299 11.7914,-12.63824 0,-1.6396 -1.4264,-5.65909 -3.1697,-8.93218 -3.3456,-6.28111 -4.2406,-12.28266 -2.357,-15.80465 1.2446,-2.32696 3.3908,-3.30555 13.9333,-6.35291 8.859,-2.56071 12.0619,-5.15649 13.3248,-10.79924 1.0805,-4.82725 0.5496,-7.92986 -2.3492,-13.72965 -2.3601,-4.72215 -17.7305,-28.26979 -22.2077,-34.02258 -6.0165,-7.73056 -13.3458,-21.08638 -15.5135,-28.26967 -2.1368,-7.08067 -2.1511,-7.48201 -0.592,-16.6349 3.2959,-19.34875 1.3687,-35.39057 -8.0096,-66.66945 -6.9698,-23.24633 -8.8415,-28.88965 -11.024,-33.23882 -3.9459,-7.86291 -3.4187,-9.70362 4.6768,-16.33124 3.8749,-3.17235 7.4749,-6.57108 7.9999,-7.55272 2.4446,-4.5707 -0.2875,-13.377646 -4.9194,-15.858232 -2.9398,-1.574424 -4.5763,-0.493557 -7.561,4.994044 -2.2615,4.157798 -3.148,4.945138 -5.5683,4.945138 -3.9396,0 -4.6304,-1.65254 -2.1144,-5.057933 2.9334,-3.970264 2.7011,-4.606907 -1.9069,-5.225377 -3.4492,-0.462947 -5.2724,-1.810802 -12.75,-9.425825 -10.02517,-10.209413 -16.75985,-14.914201 -30.18512,-21.087042 -6.15448,-2.829758 -8.29797,-4.169127 -6.04008,-3.774095 1.925,0.336788 8.73118,0.874948 15.12496,1.195909 18.55284,0.931338 23.06254,-1.519787 27.38624,-14.885093 2.9356,-9.074438 4.3436,-13.271221 -2.3926,-19.606867 L 983.24593,0 1538,0 l 0,520 -657.90015,0 z" id="path10" style="fill:#e2011c;fill-opacity:1;stroke:none" inkscape:connector-curvature="0"/>
  <path d="m 407.03269,520 c -4.02615,-0.42259 -7.51712,-0.60622 -7.75773,-0.84698 -0.42336,-0.42364 4.12391,-3.34687 24.94924,-16.03873 6.67974,-4.07092 9.42789,-6.25303 8.49997,-6.74922 -0.7542,-0.40329 -6.58485,-1.04259 -12.95702,-1.42068 -9.46685,-0.56173 -12.21018,-0.40054 -14.99996,0.88133 -1.8778,0.86282 -9.37176,3.13221 -16.65323,5.04309 -18.05961,4.73937 -24.1369,7.99312 -29.93569,16.02741 L 356.01156,520 0,520 0,0 706.33891,0 692.65306,8.933712 c -7.53449,3.740681 -16.29044,8.936027 -19.4577,11.545213 -10.7438,8.850784 -25.21121,28.98535 -28.82375,40.114545 -1.32779,4.090519 -2.53322,5.623795 -6.60728,8.404319 -6.21686,4.242955 -13.6638,12.334344 -19.83005,21.546106 -8.37291,12.508265 -24.33208,40.697605 -27.46783,48.517565 -4.86453,12.13121 -4.42262,21.36873 2.75656,57.6223 3.16062,15.96059 6.58057,32.17135 7.59988,36.0239 1.01931,3.85256 2.13494,10.38189 2.47916,14.50963 0.61462,7.36995 1.09369,8.96549 5.40827,18.01195 1.1812,2.47664 2.14638,5.2872 2.14485,6.24567 -0.002,0.95848 0.89722,2.30511 1.99722,2.99253 1.14082,0.71294 1.99999,2.33358 1.99999,3.77259 0,1.73352 2.27753,5.02352 7.28009,10.51643 11.44468,12.56651 19.71983,24.34673 19.71983,28.07247 0,3.0599 -4.48855,3.8507 -11.72032,2.06489 -8.45242,-2.08723 -15.36663,-6.59548 -26.02957,-16.97197 -4.53749,-4.41559 -8.24997,-7.38428 -8.24997,-6.59707 0,0.7872 3.11105,4.89259 6.91344,9.12308 7.56226,8.41369 8.74836,10.70932 7.11305,13.76696 -1.43059,2.67488 -4.91133,3.4538 -9.62005,2.15279 -5.43384,-1.50135 -8.61786,0.59145 -7.72169,5.07533 0.54979,2.75079 0.39895,3.0744 -1.15493,2.47771 -3.0718,-1.17954 -9.79381,-2.53068 -15.83839,-3.18353 -5.55261,-0.59972 -5.96357,-0.84321 -9.32486,-5.52502 -2.54721,-3.54788 -4.5291,-5.18205 -7.19136,-5.92967 -9.92267,-2.78646 -34.60352,-7.08158 -51.17496,-8.90581 -29.1283,-3.20652 -36.14432,-3.45826 -50.09929,-1.79767 -10.71653,1.27523 -13.63063,2.02362 -19.49994,5.00792 -10.39013,5.28296 -28.40049,21.83684 -28.40049,26.10378 0,2.00179 3.9668,1.29557 8.49997,-1.51326 13.75675,-8.52393 60.8791,-20.55415 83.99976,-21.44495 11.45713,-0.44142 10.83603,0.10735 -2.91057,2.57163 -3.80081,0.68134 -12.80078,2.98711 -19.99994,5.12393 -7.19916,2.13682 -19.61437,5.42948 -27.58934,7.31702 -7.97498,1.88754 -16.97495,4.32093 -19.99995,5.40752 l -5.49998,1.97563 8.49998,0.0929 c 43.31042,0.47328 92.68111,14.22308 112.77337,31.40751 8.64519,7.39401 11.81112,8.29136 24.52784,6.95217 17.42771,-1.8353 39.9852,-10.15555 49.87766,-18.3972 4.29288,-3.5765 7.82427,-4.99845 7.81805,-3.14801 -0.011,3.26851 -5.69775,20.83949 -8.15546,25.19875 -2.7399,4.8598 -2.89551,5.55935 -1.46882,6.60326 0.87765,0.64219 1.34382,1.4197 1.03592,1.7278 -0.3079,0.30811 0.37409,0.8568 1.51554,1.21932 3.28187,1.04232 2.456,2.04962 -2.7818,3.39292 -5.10624,1.30957 -9.14281,3.60246 -9.14281,5.1934 0,0.51916 0.70156,0.94392 1.55902,0.94392 2.56836,0 0.65173,1.79599 -2.70362,2.53344 -2.29738,0.50493 -2.75645,0.91755 -1.73853,1.56267 0.99787,0.6324 1.03495,0.88083 0.13314,0.89189 -0.6875,0.008 -1.25,1.03115 -1.25,2.27271 0,1.54581 -0.94566,2.67626 -2.99999,3.5862 -5.00685,2.21772 -3.60329,3.41542 3.24999,2.7733 3.43749,-0.32208 5.57499,-0.31888 4.74999,0.007 -0.825,0.326 -6.44998,2.87226 -12.49996,5.65837 -6.04999,2.7861 -13.92496,6.09344 -17.49995,7.34964 -4.0469,1.42203 -6.6317,2.91965 -6.84898,3.96831 -0.34903,1.68455 1.5299,1.62864 6.25608,-0.18617 0.87608,-0.33641 1.58193,-0.22576 1.56854,0.2459 -0.0134,0.47166 -10.42862,6.48629 -23.14495,13.36585 -12.71632,6.87957 -24.61534,13.97177 -26.44224,15.76046 -1.8269,1.78869 -4.1644,3.25216 -5.19445,3.25216 -1.03648,0 -2.39106,1.13818 -3.03332,2.54874 -1.94236,4.26584 -1.54053,4.7847 3.08947,3.98931 6.87876,-1.18172 10.03143,-1.11665 10.48813,0.21643 0.24706,0.72119 -0.4018,1.25083 -1.53238,1.25083 -1.07848,0 -2.49891,0.64872 -3.1565,1.4416 -0.6576,0.79287 -2.39411,1.5809 -3.85893,1.75116 -1.70429,0.19809 -3.38832,1.45639 -4.6768,3.49447 -1.10743,1.7517 -2.9135,3.41625 -4.0135,3.699 -1.1,0.28275 0.475,0.32991 3.49999,0.10479 44.97975,-3.34738 53.35983,-5.01303 71.49979,-14.21143 15.47552,-7.84732 31.5404,-19.51294 42.96858,-31.20192 3.28277,-3.35769 6.32026,-6.10489 6.74998,-6.10489 1.55391,0 0.71091,5.61292 -1.58351,10.54343 -3.97092,8.53315 -12.30262,16.39355 -29.42819,27.76358 -8.63877,5.73546 -17.95686,11.1371 -20.70685,12.00365 -8.5921,2.70744 -22.46289,5.59149 -37.00425,7.69404 -47.37317,6.84973 -65.50213,12.04522 -83.45993,23.91834 -3.00547,1.98713 -6.1604,3.49498 -7.01096,3.3508 -0.85055,-0.1442 -3.11651,1.08049 -5.03546,2.72153 -5.3972,4.61553 -1.48698,3.83475 9.70697,-1.93827 11.47109,-5.91595 16.84901,-6.84823 7.80396,-1.35284 C 468.26197,515.77736 459.80757,520 451.53049,520 l -44.4978,0 z m -58.84628,-58.00609 c 1.79797,-0.75174 7.74599,-4.08411 13.21785,-7.40528 5.47185,-3.32116 11.97381,-6.95723 14.4488,-8.08015 2.475,-1.12292 9.44998,-4.27567 15.49996,-7.0061 12.68061,-5.72291 31.28983,-11.12284 32.36003,-9.39006 0.37595,0.60869 3.1487,1.27905 6.16169,1.4897 4.21712,0.29483 4.96023,0.5659 3.22816,1.17758 -1.2375,0.43703 -2.24999,1.19238 -2.24999,1.67856 0,1.81029 9.35862,1.26723 13.29885,-0.77171 1.54474,-0.79935 5.03442,-1.71715 7.75485,-2.03956 3.38239,-0.40086 4.94622,-1.0445 4.94622,-2.03577 0,-1.13141 0.85891,-1.30435 3.91331,-0.78797 4.2029,0.71054 13.24268,-0.99947 37.58657,-7.11004 16.48649,-4.13829 28.97302,-8.30307 39.93986,-13.3216 l 7.93994,-3.63339 -7.93994,-5.08832 c -19.35229,-12.40197 -38.78489,-20.01764 -81.43974,-31.91638 -7.42498,-2.07122 -13.94996,-4.21327 -14.49996,-4.7601 -0.66328,-0.65946 -0.32657,-0.75258 1,-0.27654 4.25887,1.52827 7.49998,1.8212 7.49998,0.67785 0,-1.48302 -3.22052,-2.67855 -9.54779,-3.54438 -5.78697,-0.79189 -9.52247,-2.51945 -5.50217,-2.5446 6.22227,-0.0389 -4.4744,-3.98443 -16.44995,-6.06765 -8.86581,-1.54226 -9.37649,-1.87234 -5.67342,-3.66698 3.22713,-1.56399 6.69815,-7.48229 5.78494,-9.86367 -0.77521,-2.0215 -1.7421,-1.813 -6.5374,1.40972 -9.24526,6.21332 -17.7253,16.3881 -22.49087,26.98568 -2.71847,6.04528 -1.77722,6.59994 12.21487,7.1982 11.45756,0.48989 11.63925,0.534 8.7019,2.11232 -1.64999,0.8866 -4.95972,1.91265 -7.35495,2.28013 -8.13505,1.24804 -12.65372,5.11052 -8.62085,7.36893 1.19765,0.67068 0.7224,1.23611 -2.21844,2.63944 -3.29639,1.57298 -3.5282,1.90597 -1.94436,2.79293 0.98904,0.55387 3.86485,0.84255 6.39069,0.64152 3.51035,-0.27937 5.11336,0.0988 6.80324,1.60504 l 2.21082,1.97054 -4.43631,2.81529 c -2.43996,1.54841 -5.19984,4.25903 -6.13304,6.02359 -0.93321,1.76456 -4.28424,5.96278 -7.44673,9.32937 -3.16249,3.36659 -5.74999,6.84873 -5.74999,7.73808 0,0.88935 -4.61248,5.3091 -10.24997,9.82165 -15.16084,12.13559 -21.74993,18.80571 -21.74993,22.01738 0,1.69941 -0.85669,3.22976 -2.35969,4.21521 -4.73298,3.10324 -7.20307,6.68833 -4.60817,6.68833 0.56765,0 2.50317,-0.61506 4.30113,-1.36679 z m 116.979,-11.69247 c 3.74691,-0.50098 8.08574,-1.66347 9.64183,-2.58329 l 2.82926,-1.6724 -4.82545,-2.40622 -4.82546,-2.40623 -4.81638,1.95233 c -2.64901,1.07378 -6.31721,2.52057 -8.15154,3.21509 -7.37774,2.79337 -8.34049,6.54833 -1.41483,5.51815 2.61249,-0.3886 7.81565,-1.11645 11.56257,-1.61743 z M 295.85329,404.79772 c 22.28474,-23.31593 38.01051,-37.14787 57.97156,-50.9901 6.78338,-4.70402 11.56186,-7.42367 11.79801,-6.71476 0.64796,1.94517 3.55369,1.37252 8.28443,-1.63267 5.43613,-3.4533 8.1557,-6.94827 14.94141,-19.20153 7.03977,-12.71203 9.69972,-15.8886 19.86183,-23.7194 4.75333,-3.66286 11.75288,-9.13147 15.55457,-12.15249 5.47828,-4.35332 6.7942,-5.04143 6.3436,-3.31717 -0.34903,1.33556 -0.10806,2.17557 0.62408,2.17557 2.27197,0 12.97636,-4.57183 13.35321,-5.70314 0.58911,-1.76851 -10.28662,-3.5947 -18.33131,-3.07807 -6.17604,0.39662 -8.36345,1.11361 -16.02694,5.25335 -18.00839,9.72796 -31.01712,20.22099 -55.85744,45.05542 -17.87619,17.87196 -31.95842,29.85516 -39.07611,33.25162 -2.31801,1.10611 -4.06373,3.42472 -6.87569,9.13205 -5.46526,11.09263 -15.22282,27.01189 -24.4853,39.94723 -8.75389,12.22507 -10.63279,16.4541 -3.82986,8.62024 2.33749,-2.69172 9.42497,-10.30849 15.74995,-16.92615 z m 222.99937,109.47441 c 26.76381,-5.56628 29.71823,-5.98074 48.49986,-6.80368 21.08966,-0.92408 23.77733,-1.47239 36.4644,-7.43905 4.06484,-1.91167 5.65902,-2.2593 6.22391,-1.35719 0.98329,1.57026 7.86429,-2.1798 21.3115,-11.61451 5.49999,-3.85884 13.27759,-8.79022 17.28355,-10.95861 6.0366,-3.26755 7.8834,-3.82993 10.78712,-3.28482 3.10037,0.58202 4.01841,0.2042 7.97761,-3.28314 10.97377,-9.66595 20.34373,-14.13422 29.70154,-14.16386 2.78254,-0.009 3.74998,0.40298 3.74998,1.59618 0,1.01826 0.55016,1.39679 1.5,1.03206 2.78793,-1.07054 1.52501,0.15388 -5.64453,5.47242 -8.30096,6.15786 -7.48499,8.00689 0.95403,2.16191 8.17,-5.65866 8.19049,-5.66711 8.19049,-3.37866 0,1.30392 -3.0753,4.57787 -8.74997,9.31518 -12.91096,10.77824 -22.05307,19.69214 -35.97101,35.07306 L 648.68072,520 l -158.32798,0 28.49992,-5.72787 z M 519.10265,310.57 c 0.9625,-0.25169 2.5375,-0.25169 3.49999,0 0.9625,0.2517 0.175,0.45763 -1.74999,0.45763 -1.92499,0 -2.71249,-0.20593 -1.75,-0.45763 z" id="path12" style="fill:#003189;fill-opacity:1;stroke:none" inkscape:connector-curvature="0"/>
  <path d="m 985.58435,272.51618 c -4.36729,-0.66056 -2.11359,-2.28362 3.17099,-2.28362 5.30149,0 8.09598,-2.03652 8.09598,-5.90005 0,-1.81652 -0.395,-2.11468 -2.0889,-1.5767 -1.46129,0.46412 -2.50169,0.0736 -3.46299,-1.29974 -0.89779,-1.28258 -3.06859,-2.18809 -6.26178,-2.61197 -5.70398,-0.75715 -14.94146,-6.26804 -13.28506,-7.92555 0.5656,-0.566 3.50229,-1.23439 6.52588,-1.4853 5.21089,-0.43242 5.55559,-0.63246 6.61288,-3.83819 0.7913,-2.39945 1.8917,-3.56466 3.78769,-4.01077 1.4697,-0.34583 3.79729,-1.66594 5.17229,-2.93357 1.37499,-1.26765 5.87497,-4.50778 9.99997,-7.20029 6.9349,-4.52665 11.2313,-9.35187 9.6953,-10.88883 -1.6182,-1.61932 -16.63368,-3.38153 -23.69526,-2.78087 -8.20358,0.69778 -22.33834,3.67961 -28.24992,5.95951 -6.06798,2.34021 -4.29419,0.30225 4.04289,-4.64494 11.25457,-6.6784 32.91969,-12.90523 44.90149,-12.90523 4.6484,0 20.2027,3.67603 22.0554,5.21245 3.6292,3.00955 -0.3293,13.57433 -7.0609,18.84516 l -2.8111,2.20098 2.3111,2.46601 2.311,2.46599 -2.3608,1.91632 c -1.2984,1.05398 -3.077,1.91633 -3.9524,1.91633 -0.8754,0 -3.0428,1.40755 -4.8166,3.12788 -2.73,2.64775 -3.0826,3.50264 -2.2975,5.56918 0.608,1.60019 0.5485,3.15002 -0.1726,4.49841 -0.6736,1.25938 -0.8423,4.12282 -0.4352,7.38372 0.8312,6.65701 -0.3683,9.04186 -5.2267,10.39202 -3.6026,1.00117 -16.79337,1.19557 -22.50515,0.33166 z" id="path14" style="fill:#7f7f7f;stroke:none" inkscape:connector-curvature="0"/>
</svg>