<svg xmlns="http://www.w3.org/2000/svg" width="10" height="13" viewBox="0 0 10 13">
    <path fill="#212121" fill-rule="nonzero" d="M7.47 6.156c.732.204 1.299.57 1.701 1.098.402.528.603 1.188.603 1.98 0 1.092-.375 1.941-1.125 2.547-.75.606-1.797.909-3.141.909H.918c-.288 0-.513-.081-.675-.243C.081 12.285 0 12.066 0 11.79V.9C0 .624.081.405.243.243.405.081.63 0 .918 0H5.31c1.308 0 2.331.291 3.069.873.738.582 1.107 1.395 1.107 2.439 0 .672-.177 1.254-.531 1.746-.354.492-.849.858-1.485 1.098zM1.818 5.49h3.204c1.776 0 2.664-.672 2.664-2.016 0-.672-.219-1.17-.657-1.494-.438-.324-1.107-.486-2.007-.486H1.818V5.49zm3.492 5.706c.924 0 1.602-.168 2.034-.504.432-.336.648-.858.648-1.566 0-.72-.219-1.257-.657-1.611-.438-.354-1.113-.531-2.025-.531H1.818v4.212H5.31z"/>
</svg>
