<svg xmlns="http://www.w3.org/2000/svg" width="13" height="11" viewBox="0 0 13 11">
    <g fill="#212121" fill-rule="nonzero">
        <path d="M1.05 2.375c.25.017.458.112.625.288.167.175.25.404.25.687 0 .3-.087.542-.262.725A.877.877 0 0 1 1 4.35c-.667 0-1-.492-1-1.475C0 1.858.317.975.95.225 1.1.075 1.25 0 1.4 0a.44.44 0 0 1 .325.125.44.44 0 0 1 .125.325c0 .15-.05.275-.15.375a2.26 2.26 0 0 0-.462.7 3.215 3.215 0 0 0-.188.85zm3.575 0c.25.017.458.112.625.288.167.175.25.404.25.687 0 .3-.087.542-.263.725a.877.877 0 0 1-.662.275c-.667 0-1-.492-1-1.475 0-1.017.317-1.9.95-2.65.15-.15.3-.225.45-.225A.44.44 0 0 1 5.3.125a.44.44 0 0 1 .125.325c0 .15-.05.275-.15.375a2.26 2.26 0 0 0-.463.7 3.215 3.215 0 0 0-.187.85zM11.95 7.975a.916.916 0 0 1-.625-.287c-.167-.176-.25-.405-.25-.688 0-.3.087-.542.262-.725A.877.877 0 0 1 12 6c.667 0 1 .492 1 1.475 0 1.017-.317 1.9-.95 2.65-.15.15-.3.225-.45.225a.44.44 0 0 1-.325-.125.44.44 0 0 1-.125-.325c0-.15.05-.275.15-.375a2.26 2.26 0 0 0 .462-.7c.092-.233.155-.517.188-.85zm-3.575 0a.916.916 0 0 1-.625-.287C7.583 7.512 7.5 7.283 7.5 7c0-.3.087-.542.262-.725A.877.877 0 0 1 8.425 6c.667 0 1 .492 1 1.475 0 1.017-.317 1.9-.95 2.65-.15.15-.3.225-.45.225a.44.44 0 0 1-.325-.125.44.44 0 0 1-.125-.325c0-.15.05-.275.15-.375a2.26 2.26 0 0 0 .462-.7c.092-.233.155-.517.188-.85z"/>
    </g>
</svg>
