<svg xmlns="http://www.w3.org/2000/svg" width="12" height="13" viewBox="0 0 12 13">
    <g fill="none" fill-rule="evenodd">
        <path fill="#212121" fill-rule="nonzero" d="M9.566 7.834l-.071-.085c.39.426.585.999.585 1.719 0 .684-.189 1.293-.567 1.827-.378.534-.912.948-1.602 1.242-.69.294-1.479.441-2.367.441a7.85 7.85 0 0 1-2.565-.423c-.822-.282-1.467-.663-1.935-1.143a.65.65 0 0 1-.234-.522c0-.132.039-.246.117-.342.078-.096.165-.144.261-.144.12 0 .258.06.414.18 1.128.936 2.442 1.404 3.942 1.404 1.092 0 1.935-.219 2.529-.657.594-.438.891-1.059.891-1.863 0-.468-.144-.846-.432-1.134a2.753 2.753 0 0 0-.696-.5h1.73zM5.616 0c.828 0 1.608.135 2.34.405.732.27 1.338.657 1.818 1.161.156.156.234.33.234.522a.526.526 0 0 1-.117.342c-.078.096-.165.144-.261.144-.12 0-.258-.06-.414-.18-.648-.528-1.233-.894-1.755-1.098C6.939 1.092 6.324.99 5.616.99c-1.068 0-1.902.228-2.502.684-.6.456-.9 1.092-.9 1.908 0 .492.132.891.396 1.197l.052.055H1.326c-.152-.354-.228-.765-.228-1.234 0-.708.189-1.335.567-1.881.378-.546.909-.969 1.593-1.269C3.942.15 4.728 0 5.616 0z"/>
        <rect width="12" height="1" y="5.834" fill="#000" rx=".5"/>
    </g>
</svg>
