<svg width="18" height="18" viewBox="0 0 18 18" fill="none" xmlns="http://www.w3.org/2000/svg">
<path fill-rule="evenodd" clip-rule="evenodd" d="M17 9C17 13.4183 13.4183 17 9 17C4.58172 17 1 13.4183 1 9C1 4.58172 4.58172 1 9 1C13.4183 1 17 4.58172 17 9ZM13.375 5.3266C13.5583 4.92826 13.0716 4.44152 12.6733 4.62491L7.66968 6.9285C7.33893 7.08077 7.08014 7.33956 6.92787 7.67031L4.62428 12.6739C4.44089 13.0722 4.92763 13.559 5.32597 13.3756L10.3295 11.072C10.6603 10.9197 10.9191 10.6609 11.0714 10.3302L13.375 5.3266Z" fill="black"/>
<path d="M9.8835 9.88413C9.39534 10.3723 8.60389 10.3723 8.11573 9.88413C7.62757 9.39597 7.62757 8.60452 8.11573 8.11636C8.60389 7.62821 9.39534 7.62821 9.8835 8.11636C10.3717 8.60452 10.3717 9.39597 9.8835 9.88413Z" fill="black"/>
</svg>
