<svg width="18" height="18" viewBox="0 0 18 18" fill="none" xmlns="http://www.w3.org/2000/svg">
<path d="M2 8.25C1.58579 8.25 1.25 8.58579 1.25 9C1.25 9.41421 1.58579 9.75 2 9.75L2 8.25ZM2 9.75C2.0026 9.75 2.00521 9.75 2.00781 9.75C2.01042 9.75 2.01302 9.75 2.01562 9.75C2.01823 9.75 2.02083 9.75 2.02344 9.75C2.02604 9.75 2.02865 9.75 2.03125 9.75C2.03385 9.75 2.03646 9.75 2.03906 9.75C2.04167 9.75 2.04427 9.75 2.04688 9.75C2.04948 9.75 2.05208 9.75 2.05469 9.75C2.05729 9.75 2.0599 9.75 2.0625 9.75C2.0651 9.75 2.06771 9.75 2.07031 9.75C2.07292 9.75 2.07552 9.75 2.07813 9.75C2.08073 9.75 2.08333 9.75 2.08594 9.75C2.08854 9.75 2.09115 9.75 2.09375 9.75C2.09635 9.75 2.09896 9.75 2.10156 9.75C2.10417 9.75 2.10677 9.75 2.10938 9.75C2.11198 9.75 2.11458 9.75 2.11719 9.75C2.11979 9.75 2.1224 9.75 2.125 9.75C2.1276 9.75 2.13021 9.75 2.13281 9.75C2.13542 9.75 2.13802 9.75 2.14062 9.75C2.14323 9.75 2.14583 9.75 2.14844 9.75C2.15104 9.75 2.15365 9.75 2.15625 9.75C2.15885 9.75 2.16146 9.75 2.16406 9.75C2.16667 9.75 2.16927 9.75 2.17188 9.75C2.17448 9.75 2.17708 9.75 2.17969 9.75C2.18229 9.75 2.1849 9.75 2.1875 9.75C2.1901 9.75 2.19271 9.75 2.19531 9.75C2.19792 9.75 2.20052 9.75 2.20313 9.75C2.20573 9.75 2.20833 9.75 2.21094 9.75C2.21354 9.75 2.21615 9.75 2.21875 9.75C2.22135 9.75 2.22396 9.75 2.22656 9.75C2.22917 9.75 2.23177 9.75 2.23438 9.75C2.23698 9.75 2.23958 9.75 2.24219 9.75C2.24479 9.75 2.2474 9.75 2.25 9.75C2.2526 9.75 2.25521 9.75 2.25781 9.75C2.26042 9.75 2.26302 9.75 2.26562 9.75C2.26823 9.75 2.27083 9.75 2.27344 9.75C2.27604 9.75 2.27865 9.75 2.28125 9.75C2.28385 9.75 2.28646 9.75 2.28906 9.75C2.29167 9.75 2.29427 9.75 2.29688 9.75C2.29948 9.75 2.30208 9.75 2.30469 9.75C2.30729 9.75 2.3099 9.75 2.3125 9.75C2.3151 9.75 2.31771 9.75 2.32031 9.75C2.32292 9.75 2.32552 9.75 2.32813 9.75C2.33073 9.75 2.33333 9.75 2.33594 9.75C2.33854 9.75 2.34115 9.75 2.34375 9.75C2.34635 9.75 2.34896 9.75 2.35156 9.75C2.35417 9.75 2.35677 9.75 2.35938 9.75C2.36198 9.75 2.36458 9.75 2.36719 9.75C2.36979 9.75 2.3724 9.75 2.375 9.75C2.3776 9.75 2.38021 9.75 2.38281 9.75C2.38542 9.75 2.38802 9.75 2.39063 9.75C2.39323 9.75 2.39583 9.75 2.39844 9.75C2.40104 9.75 2.40365 9.75 2.40625 9.75C2.40885 9.75 2.41146 9.75 2.41406 9.75C2.41667 9.75 2.41927 9.75 2.42188 9.75C2.42448 9.75 2.42708 9.75 2.42969 9.75C2.43229 9.75 2.4349 9.75 2.4375 9.75C2.4401 9.75 2.44271 9.75 2.44531 9.75C2.44792 9.75 2.45052 9.75 2.45313 9.75C2.45573 9.75 2.45833 9.75 2.46094 9.75C2.46354 9.75 2.46615 9.75 2.46875 9.75C2.47135 9.75 2.47396 9.75 2.47656 9.75C2.47917 9.75 2.48177 9.75 2.48438 9.75C2.48698 9.75 2.48958 9.75 2.49219 9.75C2.49479 9.75 2.4974 9.75 2.5 9.75C2.5026 9.75 2.50521 9.75 2.50781 9.75C2.51042 9.75 2.51302 9.75 2.51562 9.75C2.51823 9.75 2.52083 9.75 2.52344 9.75C2.52604 9.75 2.52865 9.75 2.53125 9.75C2.53385 9.75 2.53646 9.75 2.53906 9.75C2.54167 9.75 2.54427 9.75 2.54688 9.75C2.54948 9.75 2.55208 9.75 2.55469 9.75C2.55729 9.75 2.5599 9.75 2.5625 9.75C2.5651 9.75 2.56771 9.75 2.57031 9.75C2.57292 9.75 2.57552 9.75 2.57812 9.75C2.58073 9.75 2.58333 9.75 2.58594 9.75C2.58854 9.75 2.59115 9.75 2.59375 9.75C2.59635 9.75 2.59896 9.75 2.60156 9.75C2.60417 9.75 2.60677 9.75 2.60938 9.75C2.61198 9.75 2.61458 9.75 2.61719 9.75C2.61979 9.75 2.6224 9.75 2.625 9.75C2.6276 9.75 2.63021 9.75 2.63281 9.75C2.63542 9.75 2.63802 9.75 2.64062 9.75C2.64323 9.75 2.64583 9.75 2.64844 9.75C2.65104 9.75 2.65365 9.75 2.65625 9.75C2.65885 9.75 2.66146 9.75 2.66406 9.75C2.66667 9.75 2.66927 9.75 2.67188 9.75C2.67448 9.75 2.67708 9.75 2.67969 9.75C2.68229 9.75 2.6849 9.75 2.6875 9.75C2.6901 9.75 2.69271 9.75 2.69531 9.75C2.69792 9.75 2.70052 9.75 2.70312 9.75C2.70573 9.75 2.70833 9.75 2.71094 9.75C2.71354 9.75 2.71615 9.75 2.71875 9.75C2.72135 9.75 2.72396 9.75 2.72656 9.75C2.72917 9.75 2.73177 9.75 2.73438 9.75C2.73698 9.75 2.73958 9.75 2.74219 9.75C2.74479 9.75 2.7474 9.75 2.75 9.75C2.7526 9.75 2.75521 9.75 2.75781 9.75C2.76042 9.75 2.76302 9.75 2.76563 9.75C2.76823 9.75 2.77083 9.75 2.77344 9.75C2.77604 9.75 2.77865 9.75 2.78125 9.75C2.78385 9.75 2.78646 9.75 2.78906 9.75C2.79167 9.75 2.79427 9.75 2.79688 9.75C2.79948 9.75 2.80208 9.75 2.80469 9.75C2.80729 9.75 2.8099 9.75 2.8125 9.75C2.8151 9.75 2.81771 9.75 2.82031 9.75C2.82292 9.75 2.82552 9.75 2.82813 9.75C2.83073 9.75 2.83333 9.75 2.83594 9.75C2.83854 9.75 2.84115 9.75 2.84375 9.75C2.84635 9.75 2.84896 9.75 2.85156 9.75C2.85417 9.75 2.85677 9.75 2.85938 9.75C2.86198 9.75 2.86458 9.75 2.86719 9.75C2.86979 9.75 2.8724 9.75 2.875 9.75C2.8776 9.75 2.88021 9.75 2.88281 9.75C2.88542 9.75 2.88802 9.75 2.89063 9.75C2.89323 9.75 2.89583 9.75 2.89844 9.75C2.90104 9.75 2.90365 9.75 2.90625 9.75C2.90885 9.75 2.91146 9.75 2.91406 9.75C2.91667 9.75 2.91927 9.75 2.92188 9.75C2.92448 9.75 2.92708 9.75 2.92969 9.75C2.93229 9.75 2.9349 9.75 2.9375 9.75C2.9401 9.75 2.94271 9.75 2.94531 9.75C2.94792 9.75 2.95052 9.75 2.95313 9.75C2.95573 9.75 2.95833 9.75 2.96094 9.75C2.96354 9.75 2.96615 9.75 2.96875 9.75C2.97135 9.75 2.97396 9.75 2.97656 9.75C2.97917 9.75 2.98177 9.75 2.98438 9.75C2.98698 9.75 2.98958 9.75 2.99219 9.75C2.99479 9.75 2.9974 9.75 3 9.75C3.0026 9.75 3.00521 9.75 3.00781 9.75C3.01042 9.75 3.01302 9.75 3.01562 9.75C3.01823 9.75 3.02083 9.75 3.02344 9.75C3.02604 9.75 3.02865 9.75 3.03125 9.75C3.03385 9.75 3.03646 9.75 3.03906 9.75C3.04167 9.75 3.04427 9.75 3.04688 9.75C3.04948 9.75 3.05208 9.75 3.05469 9.75C3.05729 9.75 3.0599 9.75 3.0625 9.75C3.0651 9.75 3.06771 9.75 3.07031 9.75C3.07292 9.75 3.07552 9.75 3.07812 9.75C3.08073 9.75 3.08333 9.75 3.08594 9.75C3.08854 9.75 3.09115 9.75 3.09375 9.75C3.09635 9.75 3.09896 9.75 3.10156 9.75C3.10417 9.75 3.10677 9.75 3.10938 9.75C3.11198 9.75 3.11458 9.75 3.11719 9.75C3.11979 9.75 3.1224 9.75 3.125 9.75C3.1276 9.75 3.13021 9.75 3.13281 9.75C3.13542 9.75 3.13802 9.75 3.14062 9.75C3.14323 9.75 3.14583 9.75 3.14844 9.75C3.15104 9.75 3.15365 9.75 3.15625 9.75C3.15885 9.75 3.16146 9.75 3.16406 9.75C3.16667 9.75 3.16927 9.75 3.17188 9.75C3.17448 9.75 3.17708 9.75 3.17969 9.75C3.18229 9.75 3.1849 9.75 3.1875 9.75C3.1901 9.75 3.19271 9.75 3.19531 9.75C3.19792 9.75 3.20052 9.75 3.20312 9.75C3.20573 9.75 3.20833 9.75 3.21094 9.75C3.21354 9.75 3.21615 9.75 3.21875 9.75C3.22135 9.75 3.22396 9.75 3.22656 9.75C3.22917 9.75 3.23177 9.75 3.23438 9.75C3.23698 9.75 3.23958 9.75 3.24219 9.75C3.24479 9.75 3.2474 9.75 3.25 9.75C3.2526 9.75 3.25521 9.75 3.25781 9.75C3.26042 9.75 3.26302 9.75 3.26562 9.75C3.26823 9.75 3.27083 9.75 3.27344 9.75C3.27604 9.75 3.27865 9.75 3.28125 9.75C3.28385 9.75 3.28646 9.75 3.28906 9.75C3.29167 9.75 3.29427 9.75 3.29688 9.75C3.29948 9.75 3.30208 9.75 3.30469 9.75C3.30729 9.75 3.3099 9.75 3.3125 9.75C3.3151 9.75 3.31771 9.75 3.32031 9.75C3.32292 9.75 3.32552 9.75 3.32812 9.75C3.33073 9.75 3.33333 9.75 3.33594 9.75C3.33854 9.75 3.34115 9.75 3.34375 9.75C3.34635 9.75 3.34896 9.75 3.35156 9.75C3.35417 9.75 3.35677 9.75 3.35938 9.75C3.36198 9.75 3.36458 9.75 3.36719 9.75C3.36979 9.75 3.3724 9.75 3.375 9.75C3.3776 9.75 3.38021 9.75 3.38281 9.75C3.38542 9.75 3.38802 9.75 3.39062 9.75C3.39323 9.75 3.39583 9.75 3.39844 9.75C3.40104 9.75 3.40365 9.75 3.40625 9.75C3.40885 9.75 3.41146 9.75 3.41406 9.75C3.41667 9.75 3.41927 9.75 3.42188 9.75C3.42448 9.75 3.42708 9.75 3.42969 9.75C3.43229 9.75 3.4349 9.75 3.4375 9.75C3.4401 9.75 3.44271 9.75 3.44531 9.75C3.44792 9.75 3.45052 9.75 3.45312 9.75C3.45573 9.75 3.45833 9.75 3.46094 9.75C3.46354 9.75 3.46615 9.75 3.46875 9.75C3.47135 9.75 3.47396 9.75 3.47656 9.75C3.47917 9.75 3.48177 9.75 3.48438 9.75C3.48698 9.75 3.48958 9.75 3.49219 9.75C3.49479 9.75 3.4974 9.75 3.5 9.75C3.5026 9.75 3.50521 9.75 3.50781 9.75C3.51042 9.75 3.51302 9.75 3.51562 9.75C3.51823 9.75 3.52083 9.75 3.52344 9.75C3.52604 9.75 3.52865 9.75 3.53125 9.75C3.53385 9.75 3.53646 9.75 3.53906 9.75C3.54167 9.75 3.54427 9.75 3.54688 9.75C3.54948 9.75 3.55208 9.75 3.55469 9.75C3.55729 9.75 3.5599 9.75 3.5625 9.75C3.5651 9.75 3.56771 9.75 3.57031 9.75C3.57292 9.75 3.57552 9.75 3.57812 9.75C3.58073 9.75 3.58333 9.75 3.58594 9.75C3.58854 9.75 3.59115 9.75 3.59375 9.75C3.59635 9.75 3.59896 9.75 3.60156 9.75C3.60417 9.75 3.60677 9.75 3.60938 9.75C3.61198 9.75 3.61458 9.75 3.61719 9.75C3.61979 9.75 3.6224 9.75 3.625 9.75C3.6276 9.75 3.63021 9.75 3.63281 9.75C3.63542 9.75 3.63802 9.75 3.64062 9.75C3.64323 9.75 3.64583 9.75 3.64844 9.75C3.65104 9.75 3.65365 9.75 3.65625 9.75C3.65885 9.75 3.66146 9.75 3.66406 9.75C3.66667 9.75 3.66927 9.75 3.67188 9.75C3.67448 9.75 3.67708 9.75 3.67969 9.75C3.68229 9.75 3.6849 9.75 3.6875 9.75C3.6901 9.75 3.69271 9.75 3.69531 9.75C3.69792 9.75 3.70052 9.75 3.70312 9.75C3.70573 9.75 3.70833 9.75 3.71094 9.75C3.71354 9.75 3.71615 9.75 3.71875 9.75C3.72135 9.75 3.72396 9.75 3.72656 9.75C3.72917 9.75 3.73177 9.75 3.73438 9.75C3.73698 9.75 3.73958 9.75 3.74219 9.75C3.74479 9.75 3.7474 9.75 3.75 9.75C3.7526 9.75 3.75521 9.75 3.75781 9.75C3.76042 9.75 3.76302 9.75 3.76562 9.75C3.76823 9.75 3.77083 9.75 3.77344 9.75C3.77604 9.75 3.77865 9.75 3.78125 9.75C3.78385 9.75 3.78646 9.75 3.78906 9.75C3.79167 9.75 3.79427 9.75 3.79688 9.75C3.79948 9.75 3.80208 9.75 3.80469 9.75C3.80729 9.75 3.8099 9.75 3.8125 9.75C3.8151 9.75 3.81771 9.75 3.82031 9.75C3.82292 9.75 3.82552 9.75 3.82812 9.75C3.83073 9.75 3.83333 9.75 3.83594 9.75C3.83854 9.75 3.84115 9.75 3.84375 9.75C3.84635 9.75 3.84896 9.75 3.85156 9.75C3.85417 9.75 3.85677 9.75 3.85938 9.75C3.86198 9.75 3.86458 9.75 3.86719 9.75C3.86979 9.75 3.8724 9.75 3.875 9.75C3.8776 9.75 3.88021 9.75 3.88281 9.75C3.88542 9.75 3.88802 9.75 3.89062 9.75C3.89323 9.75 3.89583 9.75 3.89844 9.75C3.90104 9.75 3.90365 9.75 3.90625 9.75C3.90885 9.75 3.91146 9.75 3.91406 9.75C3.91667 9.75 3.91927 9.75 3.92188 9.75C3.92448 9.75 3.92708 9.75 3.92969 9.75C3.93229 9.75 3.9349 9.75 3.9375 9.75C3.9401 9.75 3.94271 9.75 3.94531 9.75C3.94792 9.75 3.95052 9.75 3.95312 9.75C3.95573 9.75 3.95833 9.75 3.96094 9.75C3.96354 9.75 3.96615 9.75 3.96875 9.75C3.97135 9.75 3.97396 9.75 3.97656 9.75C3.97917 9.75 3.98177 9.75 3.98438 9.75C3.98698 9.75 3.98958 9.75 3.99219 9.75C3.99479 9.75 3.9974 9.75 4 9.75C4.0026 9.75 4.00521 9.75 4.00781 9.75C4.01042 9.75 4.01302 9.75 4.01562 9.75C4.01823 9.75 4.02083 9.75 4.02344 9.75C4.02604 9.75 4.02865 9.75 4.03125 9.75C4.03385 9.75 4.03646 9.75 4.03906 9.75C4.04167 9.75 4.04427 9.75 4.04688 9.75C4.04948 9.75 4.05208 9.75 4.05469 9.75C4.05729 9.75 4.0599 9.75 4.0625 9.75C4.0651 9.75 4.06771 9.75 4.07031 9.75C4.07292 9.75 4.07552 9.75 4.07812 9.75C4.08073 9.75 4.08333 9.75 4.08594 9.75C4.08854 9.75 4.09115 9.75 4.09375 9.75C4.09635 9.75 4.09896 9.75 4.10156 9.75C4.10417 9.75 4.10677 9.75 4.10938 9.75C4.11198 9.75 4.11458 9.75 4.11719 9.75C4.11979 9.75 4.1224 9.75 4.125 9.75C4.1276 9.75 4.13021 9.75 4.13281 9.75C4.13542 9.75 4.13802 9.75 4.14062 9.75C4.14323 9.75 4.14583 9.75 4.14844 9.75C4.15104 9.75 4.15365 9.75 4.15625 9.75C4.15885 9.75 4.16146 9.75 4.16406 9.75C4.16667 9.75 4.16927 9.75 4.17188 9.75C4.17448 9.75 4.17708 9.75 4.17969 9.75C4.18229 9.75 4.1849 9.75 4.1875 9.75C4.1901 9.75 4.19271 9.75 4.19531 9.75C4.19792 9.75 4.20052 9.75 4.20312 9.75C4.20573 9.75 4.20833 9.75 4.21094 9.75C4.21354 9.75 4.21615 9.75 4.21875 9.75C4.22135 9.75 4.22396 9.75 4.22656 9.75C4.22917 9.75 4.23177 9.75 4.23438 9.75C4.23698 9.75 4.23958 9.75 4.24219 9.75C4.24479 9.75 4.2474 9.75 4.25 9.75C4.2526 9.75 4.25521 9.75 4.25781 9.75C4.26042 9.75 4.26302 9.75 4.26562 9.75C4.26823 9.75 4.27083 9.75 4.27344 9.75C4.27604 9.75 4.27865 9.75 4.28125 9.75C4.28385 9.75 4.28646 9.75 4.28906 9.75C4.29167 9.75 4.29427 9.75 4.29688 9.75C4.29948 9.75 4.30208 9.75 4.30469 9.75C4.30729 9.75 4.3099 9.75 4.3125 9.75C4.3151 9.75 4.31771 9.75 4.32031 9.75C4.32292 9.75 4.32552 9.75 4.32812 9.75C4.33073 9.75 4.33333 9.75 4.33594 9.75C4.33854 9.75 4.34115 9.75 4.34375 9.75C4.34635 9.75 4.34896 9.75 4.35156 9.75C4.35417 9.75 4.35677 9.75 4.35938 9.75C4.36198 9.75 4.36458 9.75 4.36719 9.75C4.36979 9.75 4.3724 9.75 4.375 9.75C4.3776 9.75 4.38021 9.75 4.38281 9.75C4.38542 9.75 4.38802 9.75 4.39062 9.75C4.39323 9.75 4.39583 9.75 4.39844 9.75C4.40104 9.75 4.40365 9.75 4.40625 9.75C4.40885 9.75 4.41146 9.75 4.41406 9.75C4.41667 9.75 4.41927 9.75 4.42188 9.75C4.42448 9.75 4.42708 9.75 4.42969 9.75C4.43229 9.75 4.4349 9.75 4.4375 9.75C4.4401 9.75 4.44271 9.75 4.44531 9.75C4.44792 9.75 4.45052 9.75 4.45312 9.75C4.45573 9.75 4.45833 9.75 4.46094 9.75C4.46354 9.75 4.46615 9.75 4.46875 9.75C4.47135 9.75 4.47396 9.75 4.47656 9.75C4.47917 9.75 4.48177 9.75 4.48438 9.75C4.48698 9.75 4.48958 9.75 4.49219 9.75C4.49479 9.75 4.4974 9.75 4.5 9.75C4.5026 9.75 4.50521 9.75 4.50781 9.75C4.51042 9.75 4.51302 9.75 4.51562 9.75C4.51823 9.75 4.52083 9.75 4.52344 9.75C4.52604 9.75 4.52865 9.75 4.53125 9.75C4.53385 9.75 4.53646 9.75 4.53906 9.75C4.54167 9.75 4.54427 9.75 4.54688 9.75C4.54948 9.75 4.55208 9.75 4.55469 9.75C4.55729 9.75 4.5599 9.75 4.5625 9.75C4.5651 9.75 4.56771 9.75 4.57031 9.75C4.57292 9.75 4.57552 9.75 4.57812 9.75C4.58073 9.75 4.58333 9.75 4.58594 9.75C4.58854 9.75 4.59115 9.75 4.59375 9.75C4.59635 9.75 4.59896 9.75 4.60156 9.75C4.60417 9.75 4.60677 9.75 4.60938 9.75C4.61198 9.75 4.61458 9.75 4.61719 9.75C4.61979 9.75 4.6224 9.75 4.625 9.75C4.6276 9.75 4.63021 9.75 4.63281 9.75C4.63542 9.75 4.63802 9.75 4.64062 9.75C4.64323 9.75 4.64583 9.75 4.64844 9.75C4.65104 9.75 4.65365 9.75 4.65625 9.75C4.65885 9.75 4.66146 9.75 4.66406 9.75C4.66667 9.75 4.66927 9.75 4.67188 9.75C4.67448 9.75 4.67708 9.75 4.67969 9.75C4.68229 9.75 4.6849 9.75 4.6875 9.75C4.6901 9.75 4.69271 9.75 4.69531 9.75C4.69792 9.75 4.70052 9.75 4.70312 9.75C4.70573 9.75 4.70833 9.75 4.71094 9.75C4.71354 9.75 4.71615 9.75 4.71875 9.75C4.72135 9.75 4.72396 9.75 4.72656 9.75C4.72917 9.75 4.73177 9.75 4.73438 9.75C4.73698 9.75 4.73958 9.75 4.74219 9.75C4.74479 9.75 4.7474 9.75 4.75 9.75C4.7526 9.75 4.75521 9.75 4.75781 9.75C4.76042 9.75 4.76302 9.75 4.76562 9.75C4.76823 9.75 4.77083 9.75 4.77344 9.75C4.77604 9.75 4.77865 9.75 4.78125 9.75C4.78385 9.75 4.78646 9.75 4.78906 9.75C4.79167 9.75 4.79427 9.75 4.79688 9.75C4.79948 9.75 4.80208 9.75 4.80469 9.75C4.80729 9.75 4.8099 9.75 4.8125 9.75C4.8151 9.75 4.81771 9.75 4.82031 9.75C4.82292 9.75 4.82552 9.75 4.82812 9.75C4.83073 9.75 4.83333 9.75 4.83594 9.75C4.83854 9.75 4.84115 9.75 4.84375 9.75C4.84635 9.75 4.84896 9.75 4.85156 9.75C4.85417 9.75 4.85677 9.75 4.85938 9.75C4.86198 9.75 4.86458 9.75 4.86719 9.75C4.86979 9.75 4.8724 9.75 4.875 9.75C4.8776 9.75 4.88021 9.75 4.88281 9.75C4.88542 9.75 4.88802 9.75 4.89062 9.75C4.89323 9.75 4.89583 9.75 4.89844 9.75C4.90104 9.75 4.90365 9.75 4.90625 9.75C4.90885 9.75 4.91146 9.75 4.91406 9.75C4.91667 9.75 4.91927 9.75 4.92188 9.75C4.92448 9.75 4.92708 9.75 4.92969 9.75C4.93229 9.75 4.9349 9.75 4.9375 9.75C4.9401 9.75 4.94271 9.75 4.94531 9.75C4.94792 9.75 4.95052 9.75 4.95312 9.75C4.95573 9.75 4.95833 9.75 4.96094 9.75C4.96354 9.75 4.96615 9.75 4.96875 9.75C4.97135 9.75 4.97396 9.75 4.97656 9.75C4.97917 9.75 4.98177 9.75 4.98438 9.75C4.98698 9.75 4.98958 9.75 4.99219 9.75C4.99479 9.75 4.9974 9.75 5 9.75C5.0026 9.75 5.00521 9.75 5.00781 9.75C5.01042 9.75 5.01302 9.75 5.01562 9.75C5.01823 9.75 5.02083 9.75 5.02344 9.75C5.02604 9.75 5.02865 9.75 5.03125 9.75C5.03385 9.75 5.03646 9.75 5.03906 9.75C5.04167 9.75 5.04427 9.75 5.04688 9.75C5.04948 9.75 5.05208 9.75 5.05469 9.75C5.05729 9.75 5.0599 9.75 5.0625 9.75C5.0651 9.75 5.06771 9.75 5.07031 9.75C5.07292 9.75 5.07552 9.75 5.07812 9.75C5.08073 9.75 5.08333 9.75 5.08594 9.75C5.08854 9.75 5.09115 9.75 5.09375 9.75C5.09635 9.75 5.09896 9.75 5.10156 9.75C5.10417 9.75 5.10677 9.75 5.10938 9.75C5.11198 9.75 5.11458 9.75 5.11719 9.75C5.11979 9.75 5.1224 9.75 5.125 9.75C5.1276 9.75 5.13021 9.75 5.13281 9.75C5.13542 9.75 5.13802 9.75 5.14062 9.75C5.14323 9.75 5.14583 9.75 5.14844 9.75C5.15104 9.75 5.15365 9.75 5.15625 9.75C5.15885 9.75 5.16146 9.75 5.16406 9.75C5.16667 9.75 5.16927 9.75 5.17188 9.75C5.17448 9.75 5.17708 9.75 5.17969 9.75C5.18229 9.75 5.1849 9.75 5.1875 9.75C5.1901 9.75 5.19271 9.75 5.19531 9.75C5.19792 9.75 5.20052 9.75 5.20312 9.75C5.20573 9.75 5.20833 9.75 5.21094 9.75C5.21354 9.75 5.21615 9.75 5.21875 9.75C5.22135 9.75 5.22396 9.75 5.22656 9.75C5.22917 9.75 5.23177 9.75 5.23438 9.75C5.23698 9.75 5.23958 9.75 5.24219 9.75C5.24479 9.75 5.2474 9.75 5.25 9.75C5.2526 9.75 5.25521 9.75 5.25781 9.75C5.26042 9.75 5.26302 9.75 5.26562 9.75C5.26823 9.75 5.27083 9.75 5.27344 9.75C5.27604 9.75 5.27865 9.75 5.28125 9.75C5.28385 9.75 5.28646 9.75 5.28906 9.75C5.29167 9.75 5.29427 9.75 5.29688 9.75C5.29948 9.75 5.30208 9.75 5.30469 9.75C5.30729 9.75 5.3099 9.75 5.3125 9.75C5.3151 9.75 5.31771 9.75 5.32031 9.75C5.32292 9.75 5.32552 9.75 5.32812 9.75C5.33073 9.75 5.33333 9.75 5.33594 9.75C5.33854 9.75 5.34115 9.75 5.34375 9.75C5.34635 9.75 5.34896 9.75 5.35156 9.75C5.35417 9.75 5.35677 9.75 5.35938 9.75C5.36198 9.75 5.36458 9.75 5.36719 9.75C5.36979 9.75 5.3724 9.75 5.375 9.75C5.3776 9.75 5.38021 9.75 5.38281 9.75C5.38542 9.75 5.38802 9.75 5.39062 9.75C5.39323 9.75 5.39583 9.75 5.39844 9.75C5.40104 9.75 5.40365 9.75 5.40625 9.75C5.40885 9.75 5.41146 9.75 5.41406 9.75C5.41667 9.75 5.41927 9.75 5.42188 9.75C5.42448 9.75 5.42708 9.75 5.42969 9.75C5.43229 9.75 5.4349 9.75 5.4375 9.75C5.4401 9.75 5.44271 9.75 5.44531 9.75C5.44792 9.75 5.45052 9.75 5.45312 9.75C5.45573 9.75 5.45833 9.75 5.46094 9.75C5.46354 9.75 5.46615 9.75 5.46875 9.75C5.47135 9.75 5.47396 9.75 5.47656 9.75C5.47917 9.75 5.48177 9.75 5.48438 9.75C5.48698 9.75 5.48958 9.75 5.49219 9.75C5.49479 9.75 5.4974 9.75 5.5 9.75C5.5026 9.75 5.50521 9.75 5.50781 9.75C5.51042 9.75 5.51302 9.75 5.51562 9.75C5.51823 9.75 5.52083 9.75 5.52344 9.75C5.52604 9.75 5.52865 9.75 5.53125 9.75C5.53385 9.75 5.53646 9.75 5.53906 9.75C5.54167 9.75 5.54427 9.75 5.54688 9.75C5.54948 9.75 5.55208 9.75 5.55469 9.75C5.55729 9.75 5.5599 9.75 5.5625 9.75C5.5651 9.75 5.56771 9.75 5.57031 9.75C5.57292 9.75 5.57552 9.75 5.57812 9.75C5.58073 9.75 5.58333 9.75 5.58594 9.75C5.58854 9.75 5.59115 9.75 5.59375 9.75C5.59635 9.75 5.59896 9.75 5.60156 9.75C5.60417 9.75 5.60677 9.75 5.60938 9.75C5.61198 9.75 5.61458 9.75 5.61719 9.75C5.61979 9.75 5.6224 9.75 5.625 9.75C5.6276 9.75 5.63021 9.75 5.63281 9.75C5.63542 9.75 5.63802 9.75 5.64062 9.75C5.64323 9.75 5.64583 9.75 5.64844 9.75C5.65104 9.75 5.65365 9.75 5.65625 9.75C5.65885 9.75 5.66146 9.75 5.66406 9.75C5.66667 9.75 5.66927 9.75 5.67188 9.75C5.67448 9.75 5.67708 9.75 5.67969 9.75C5.68229 9.75 5.6849 9.75 5.6875 9.75C5.6901 9.75 5.69271 9.75 5.69531 9.75C5.69792 9.75 5.70052 9.75 5.70312 9.75C5.70573 9.75 5.70833 9.75 5.71094 9.75C5.71354 9.75 5.71615 9.75 5.71875 9.75C5.72135 9.75 5.72396 9.75 5.72656 9.75C5.72917 9.75 5.73177 9.75 5.73438 9.75C5.73698 9.75 5.73958 9.75 5.74219 9.75C5.74479 9.75 5.7474 9.75 5.75 9.75C5.7526 9.75 5.75521 9.75 5.75781 9.75C5.76042 9.75 5.76302 9.75 5.76562 9.75C5.76823 9.75 5.77083 9.75 5.77344 9.75C5.77604 9.75 5.77865 9.75 5.78125 9.75C5.78385 9.75 5.78646 9.75 5.78906 9.75C5.79167 9.75 5.79427 9.75 5.79688 9.75C5.79948 9.75 5.80208 9.75 5.80469 9.75C5.80729 9.75 5.8099 9.75 5.8125 9.75C5.8151 9.75 5.81771 9.75 5.82031 9.75C5.82292 9.75 5.82552 9.75 5.82812 9.75C5.83073 9.75 5.83333 9.75 5.83594 9.75C5.83854 9.75 5.84115 9.75 5.84375 9.75C5.84635 9.75 5.84896 9.75 5.85156 9.75C5.85417 9.75 5.85677 9.75 5.85938 9.75C5.86198 9.75 5.86458 9.75 5.86719 9.75C5.86979 9.75 5.8724 9.75 5.875 9.75C5.8776 9.75 5.88021 9.75 5.88281 9.75C5.88542 9.75 5.88802 9.75 5.89062 9.75C5.89323 9.75 5.89583 9.75 5.89844 9.75C5.90104 9.75 5.90365 9.75 5.90625 9.75C5.90885 9.75 5.91146 9.75 5.91406 9.75C5.91667 9.75 5.91927 9.75 5.92188 9.75C5.92448 9.75 5.92708 9.75 5.92969 9.75C5.93229 9.75 5.9349 9.75 5.9375 9.75C5.9401 9.75 5.94271 9.75 5.94531 9.75C5.94792 9.75 5.95052 9.75 5.95312 9.75C5.95573 9.75 5.95833 9.75 5.96094 9.75C5.96354 9.75 5.96615 9.75 5.96875 9.75C5.97135 9.75 5.97396 9.75 5.97656 9.75C5.97917 9.75 5.98177 9.75 5.98438 9.75C5.98698 9.75 5.98958 9.75 5.99219 9.75C5.99479 9.75 5.9974 9.75 6 9.75V8.25C5.9974 8.25 5.99479 8.25 5.99219 8.25C5.98958 8.25 5.98698 8.25 5.98438 8.25C5.98177 8.25 5.97917 8.25 5.97656 8.25C5.97396 8.25 5.97135 8.25 5.96875 8.25C5.96615 8.25 5.96354 8.25 5.96094 8.25C5.95833 8.25 5.95573 8.25 5.95312 8.25C5.95052 8.25 5.94792 8.25 5.94531 8.25C5.94271 8.25 5.9401 8.25 5.9375 8.25C5.9349 8.25 5.93229 8.25 5.92969 8.25C5.92708 8.25 5.92448 8.25 5.92188 8.25C5.91927 8.25 5.91667 8.25 5.91406 8.25C5.91146 8.25 5.90885 8.25 5.90625 8.25C5.90365 8.25 5.90104 8.25 5.89844 8.25C5.89583 8.25 5.89323 8.25 5.89062 8.25C5.88802 8.25 5.88542 8.25 5.88281 8.25C5.88021 8.25 5.8776 8.25 5.875 8.25C5.8724 8.25 5.86979 8.25 5.86719 8.25C5.86458 8.25 5.86198 8.25 5.85938 8.25C5.85677 8.25 5.85417 8.25 5.85156 8.25C5.84896 8.25 5.84635 8.25 5.84375 8.25C5.84115 8.25 5.83854 8.25 5.83594 8.25C5.83333 8.25 5.83073 8.25 5.82812 8.25C5.82552 8.25 5.82292 8.25 5.82031 8.25C5.81771 8.25 5.8151 8.25 5.8125 8.25C5.8099 8.25 5.80729 8.25 5.80469 8.25C5.80208 8.25 5.79948 8.25 5.79688 8.25C5.79427 8.25 5.79167 8.25 5.78906 8.25C5.78646 8.25 5.78385 8.25 5.78125 8.25C5.77865 8.25 5.77604 8.25 5.77344 8.25C5.77083 8.25 5.76823 8.25 5.76562 8.25C5.76302 8.25 5.76042 8.25 5.75781 8.25C5.75521 8.25 5.7526 8.25 5.75 8.25C5.7474 8.25 5.74479 8.25 5.74219 8.25C5.73958 8.25 5.73698 8.25 5.73438 8.25C5.73177 8.25 5.72917 8.25 5.72656 8.25C5.72396 8.25 5.72135 8.25 5.71875 8.25C5.71615 8.25 5.71354 8.25 5.71094 8.25C5.70833 8.25 5.70573 8.25 5.70312 8.25C5.70052 8.25 5.69792 8.25 5.69531 8.25C5.69271 8.25 5.6901 8.25 5.6875 8.25C5.6849 8.25 5.68229 8.25 5.67969 8.25C5.67708 8.25 5.67448 8.25 5.67188 8.25C5.66927 8.25 5.66667 8.25 5.66406 8.25C5.66146 8.25 5.65885 8.25 5.65625 8.25C5.65365 8.25 5.65104 8.25 5.64844 8.25C5.64583 8.25 5.64323 8.25 5.64062 8.25C5.63802 8.25 5.63542 8.25 5.63281 8.25C5.63021 8.25 5.6276 8.25 5.625 8.25C5.6224 8.25 5.61979 8.25 5.61719 8.25C5.61458 8.25 5.61198 8.25 5.60938 8.25C5.60677 8.25 5.60417 8.25 5.60156 8.25C5.59896 8.25 5.59635 8.25 5.59375 8.25C5.59115 8.25 5.58854 8.25 5.58594 8.25C5.58333 8.25 5.58073 8.25 5.57812 8.25C5.57552 8.25 5.57292 8.25 5.57031 8.25C5.56771 8.25 5.5651 8.25 5.5625 8.25C5.5599 8.25 5.55729 8.25 5.55469 8.25C5.55208 8.25 5.54948 8.25 5.54688 8.25C5.54427 8.25 5.54167 8.25 5.53906 8.25C5.53646 8.25 5.53385 8.25 5.53125 8.25C5.52865 8.25 5.52604 8.25 5.52344 8.25C5.52083 8.25 5.51823 8.25 5.51562 8.25C5.51302 8.25 5.51042 8.25 5.50781 8.25C5.50521 8.25 5.5026 8.25 5.5 8.25C5.4974 8.25 5.49479 8.25 5.49219 8.25C5.48958 8.25 5.48698 8.25 5.48438 8.25C5.48177 8.25 5.47917 8.25 5.47656 8.25C5.47396 8.25 5.47135 8.25 5.46875 8.25C5.46615 8.25 5.46354 8.25 5.46094 8.25C5.45833 8.25 5.45573 8.25 5.45312 8.25C5.45052 8.25 5.44792 8.25 5.44531 8.25C5.44271 8.25 5.4401 8.25 5.4375 8.25C5.4349 8.25 5.43229 8.25 5.42969 8.25C5.42708 8.25 5.42448 8.25 5.42188 8.25C5.41927 8.25 5.41667 8.25 5.41406 8.25C5.41146 8.25 5.40885 8.25 5.40625 8.25C5.40365 8.25 5.40104 8.25 5.39844 8.25C5.39583 8.25 5.39323 8.25 5.39062 8.25C5.38802 8.25 5.38542 8.25 5.38281 8.25C5.38021 8.25 5.3776 8.25 5.375 8.25C5.3724 8.25 5.36979 8.25 5.36719 8.25C5.36458 8.25 5.36198 8.25 5.35938 8.25C5.35677 8.25 5.35417 8.25 5.35156 8.25C5.34896 8.25 5.34635 8.25 5.34375 8.25C5.34115 8.25 5.33854 8.25 5.33594 8.25C5.33333 8.25 5.33073 8.25 5.32812 8.25C5.32552 8.25 5.32292 8.25 5.32031 8.25C5.31771 8.25 5.3151 8.25 5.3125 8.25C5.3099 8.25 5.30729 8.25 5.30469 8.25C5.30208 8.25 5.29948 8.25 5.29688 8.25C5.29427 8.25 5.29167 8.25 5.28906 8.25C5.28646 8.25 5.28385 8.25 5.28125 8.25C5.27865 8.25 5.27604 8.25 5.27344 8.25C5.27083 8.25 5.26823 8.25 5.26562 8.25C5.26302 8.25 5.26042 8.25 5.25781 8.25C5.25521 8.25 5.2526 8.25 5.25 8.25C5.2474 8.25 5.24479 8.25 5.24219 8.25C5.23958 8.25 5.23698 8.25 5.23438 8.25C5.23177 8.25 5.22917 8.25 5.22656 8.25C5.22396 8.25 5.22135 8.25 5.21875 8.25C5.21615 8.25 5.21354 8.25 5.21094 8.25C5.20833 8.25 5.20573 8.25 5.20312 8.25C5.20052 8.25 5.19792 8.25 5.19531 8.25C5.19271 8.25 5.1901 8.25 5.1875 8.25C5.1849 8.25 5.18229 8.25 5.17969 8.25C5.17708 8.25 5.17448 8.25 5.17188 8.25C5.16927 8.25 5.16667 8.25 5.16406 8.25C5.16146 8.25 5.15885 8.25 5.15625 8.25C5.15365 8.25 5.15104 8.25 5.14844 8.25C5.14583 8.25 5.14323 8.25 5.14062 8.25C5.13802 8.25 5.13542 8.25 5.13281 8.25C5.13021 8.25 5.1276 8.25 5.125 8.25C5.1224 8.25 5.11979 8.25 5.11719 8.25C5.11458 8.25 5.11198 8.25 5.10938 8.25C5.10677 8.25 5.10417 8.25 5.10156 8.25C5.09896 8.25 5.09635 8.25 5.09375 8.25C5.09115 8.25 5.08854 8.25 5.08594 8.25C5.08333 8.25 5.08073 8.25 5.07812 8.25C5.07552 8.25 5.07292 8.25 5.07031 8.25C5.06771 8.25 5.0651 8.25 5.0625 8.25C5.0599 8.25 5.05729 8.25 5.05469 8.25C5.05208 8.25 5.04948 8.25 5.04688 8.25C5.04427 8.25 5.04167 8.25 5.03906 8.25C5.03646 8.25 5.03385 8.25 5.03125 8.25C5.02865 8.25 5.02604 8.25 5.02344 8.25C5.02083 8.25 5.01823 8.25 5.01562 8.25C5.01302 8.25 5.01042 8.25 5.00781 8.25C5.00521 8.25 5.0026 8.25 5 8.25C4.9974 8.25 4.99479 8.25 4.99219 8.25C4.98958 8.25 4.98698 8.25 4.98438 8.25C4.98177 8.25 4.97917 8.25 4.97656 8.25C4.97396 8.25 4.97135 8.25 4.96875 8.25C4.96615 8.25 4.96354 8.25 4.96094 8.25C4.95833 8.25 4.95573 8.25 4.95312 8.25C4.95052 8.25 4.94792 8.25 4.94531 8.25C4.94271 8.25 4.9401 8.25 4.9375 8.25C4.9349 8.25 4.93229 8.25 4.92969 8.25C4.92708 8.25 4.92448 8.25 4.92188 8.25C4.91927 8.25 4.91667 8.25 4.91406 8.25C4.91146 8.25 4.90885 8.25 4.90625 8.25C4.90365 8.25 4.90104 8.25 4.89844 8.25C4.89583 8.25 4.89323 8.25 4.89062 8.25C4.88802 8.25 4.88542 8.25 4.88281 8.25C4.88021 8.25 4.8776 8.25 4.875 8.25C4.8724 8.25 4.86979 8.25 4.86719 8.25C4.86458 8.25 4.86198 8.25 4.85938 8.25C4.85677 8.25 4.85417 8.25 4.85156 8.25C4.84896 8.25 4.84635 8.25 4.84375 8.25C4.84115 8.25 4.83854 8.25 4.83594 8.25C4.83333 8.25 4.83073 8.25 4.82812 8.25C4.82552 8.25 4.82292 8.25 4.82031 8.25C4.81771 8.25 4.8151 8.25 4.8125 8.25C4.8099 8.25 4.80729 8.25 4.80469 8.25C4.80208 8.25 4.79948 8.25 4.79688 8.25C4.79427 8.25 4.79167 8.25 4.78906 8.25C4.78646 8.25 4.78385 8.25 4.78125 8.25C4.77865 8.25 4.77604 8.25 4.77344 8.25C4.77083 8.25 4.76823 8.25 4.76562 8.25C4.76302 8.25 4.76042 8.25 4.75781 8.25C4.75521 8.25 4.7526 8.25 4.75 8.25C4.7474 8.25 4.74479 8.25 4.74219 8.25C4.73958 8.25 4.73698 8.25 4.73438 8.25C4.73177 8.25 4.72917 8.25 4.72656 8.25C4.72396 8.25 4.72135 8.25 4.71875 8.25C4.71615 8.25 4.71354 8.25 4.71094 8.25C4.70833 8.25 4.70573 8.25 4.70312 8.25C4.70052 8.25 4.69792 8.25 4.69531 8.25C4.69271 8.25 4.6901 8.25 4.6875 8.25C4.6849 8.25 4.68229 8.25 4.67969 8.25C4.67708 8.25 4.67448 8.25 4.67188 8.25C4.66927 8.25 4.66667 8.25 4.66406 8.25C4.66146 8.25 4.65885 8.25 4.65625 8.25C4.65365 8.25 4.65104 8.25 4.64844 8.25C4.64583 8.25 4.64323 8.25 4.64062 8.25C4.63802 8.25 4.63542 8.25 4.63281 8.25C4.63021 8.25 4.6276 8.25 4.625 8.25C4.6224 8.25 4.61979 8.25 4.61719 8.25C4.61458 8.25 4.61198 8.25 4.60938 8.25C4.60677 8.25 4.60417 8.25 4.60156 8.25C4.59896 8.25 4.59635 8.25 4.59375 8.25C4.59115 8.25 4.58854 8.25 4.58594 8.25C4.58333 8.25 4.58073 8.25 4.57812 8.25C4.57552 8.25 4.57292 8.25 4.57031 8.25C4.56771 8.25 4.5651 8.25 4.5625 8.25C4.5599 8.25 4.55729 8.25 4.55469 8.25C4.55208 8.25 4.54948 8.25 4.54688 8.25C4.54427 8.25 4.54167 8.25 4.53906 8.25C4.53646 8.25 4.53385 8.25 4.53125 8.25C4.52865 8.25 4.52604 8.25 4.52344 8.25C4.52083 8.25 4.51823 8.25 4.51562 8.25C4.51302 8.25 4.51042 8.25 4.50781 8.25C4.50521 8.25 4.5026 8.25 4.5 8.25C4.4974 8.25 4.49479 8.25 4.49219 8.25C4.48958 8.25 4.48698 8.25 4.48438 8.25C4.48177 8.25 4.47917 8.25 4.47656 8.25C4.47396 8.25 4.47135 8.25 4.46875 8.25C4.46615 8.25 4.46354 8.25 4.46094 8.25C4.45833 8.25 4.45573 8.25 4.45312 8.25C4.45052 8.25 4.44792 8.25 4.44531 8.25C4.44271 8.25 4.4401 8.25 4.4375 8.25C4.4349 8.25 4.43229 8.25 4.42969 8.25C4.42708 8.25 4.42448 8.25 4.42188 8.25C4.41927 8.25 4.41667 8.25 4.41406 8.25C4.41146 8.25 4.40885 8.25 4.40625 8.25C4.40365 8.25 4.40104 8.25 4.39844 8.25C4.39583 8.25 4.39323 8.25 4.39062 8.25C4.38802 8.25 4.38542 8.25 4.38281 8.25C4.38021 8.25 4.3776 8.25 4.375 8.25C4.3724 8.25 4.36979 8.25 4.36719 8.25C4.36458 8.25 4.36198 8.25 4.35938 8.25C4.35677 8.25 4.35417 8.25 4.35156 8.25C4.34896 8.25 4.34635 8.25 4.34375 8.25C4.34115 8.25 4.33854 8.25 4.33594 8.25C4.33333 8.25 4.33073 8.25 4.32812 8.25C4.32552 8.25 4.32292 8.25 4.32031 8.25C4.31771 8.25 4.3151 8.25 4.3125 8.25C4.3099 8.25 4.30729 8.25 4.30469 8.25C4.30208 8.25 4.29948 8.25 4.29688 8.25C4.29427 8.25 4.29167 8.25 4.28906 8.25C4.28646 8.25 4.28385 8.25 4.28125 8.25C4.27865 8.25 4.27604 8.25 4.27344 8.25C4.27083 8.25 4.26823 8.25 4.26562 8.25C4.26302 8.25 4.26042 8.25 4.25781 8.25C4.25521 8.25 4.2526 8.25 4.25 8.25C4.2474 8.25 4.24479 8.25 4.24219 8.25C4.23958 8.25 4.23698 8.25 4.23438 8.25C4.23177 8.25 4.22917 8.25 4.22656 8.25C4.22396 8.25 4.22135 8.25 4.21875 8.25C4.21615 8.25 4.21354 8.25 4.21094 8.25C4.20833 8.25 4.20573 8.25 4.20312 8.25C4.20052 8.25 4.19792 8.25 4.19531 8.25C4.19271 8.25 4.1901 8.25 4.1875 8.25C4.1849 8.25 4.18229 8.25 4.17969 8.25C4.17708 8.25 4.17448 8.25 4.17188 8.25C4.16927 8.25 4.16667 8.25 4.16406 8.25C4.16146 8.25 4.15885 8.25 4.15625 8.25C4.15365 8.25 4.15104 8.25 4.14844 8.25C4.14583 8.25 4.14323 8.25 4.14062 8.25C4.13802 8.25 4.13542 8.25 4.13281 8.25C4.13021 8.25 4.1276 8.25 4.125 8.25C4.1224 8.25 4.11979 8.25 4.11719 8.25C4.11458 8.25 4.11198 8.25 4.10938 8.25C4.10677 8.25 4.10417 8.25 4.10156 8.25C4.09896 8.25 4.09635 8.25 4.09375 8.25C4.09115 8.25 4.08854 8.25 4.08594 8.25C4.08333 8.25 4.08073 8.25 4.07812 8.25C4.07552 8.25 4.07292 8.25 4.07031 8.25C4.06771 8.25 4.0651 8.25 4.0625 8.25C4.0599 8.25 4.05729 8.25 4.05469 8.25C4.05208 8.25 4.04948 8.25 4.04688 8.25C4.04427 8.25 4.04167 8.25 4.03906 8.25C4.03646 8.25 4.03385 8.25 4.03125 8.25C4.02865 8.25 4.02604 8.25 4.02344 8.25C4.02083 8.25 4.01823 8.25 4.01562 8.25C4.01302 8.25 4.01042 8.25 4.00781 8.25C4.00521 8.25 4.0026 8.25 4 8.25C3.9974 8.25 3.99479 8.25 3.99219 8.25C3.98958 8.25 3.98698 8.25 3.98438 8.25C3.98177 8.25 3.97917 8.25 3.97656 8.25C3.97396 8.25 3.97135 8.25 3.96875 8.25C3.96615 8.25 3.96354 8.25 3.96094 8.25C3.95833 8.25 3.95573 8.25 3.95312 8.25C3.95052 8.25 3.94792 8.25 3.94531 8.25C3.94271 8.25 3.9401 8.25 3.9375 8.25C3.9349 8.25 3.93229 8.25 3.92969 8.25C3.92708 8.25 3.92448 8.25 3.92188 8.25C3.91927 8.25 3.91667 8.25 3.91406 8.25C3.91146 8.25 3.90885 8.25 3.90625 8.25C3.90365 8.25 3.90104 8.25 3.89844 8.25C3.89583 8.25 3.89323 8.25 3.89062 8.25C3.88802 8.25 3.88542 8.25 3.88281 8.25C3.88021 8.25 3.8776 8.25 3.875 8.25C3.8724 8.25 3.86979 8.25 3.86719 8.25C3.86458 8.25 3.86198 8.25 3.85938 8.25C3.85677 8.25 3.85417 8.25 3.85156 8.25C3.84896 8.25 3.84635 8.25 3.84375 8.25C3.84115 8.25 3.83854 8.25 3.83594 8.25C3.83333 8.25 3.83073 8.25 3.82812 8.25C3.82552 8.25 3.82292 8.25 3.82031 8.25C3.81771 8.25 3.8151 8.25 3.8125 8.25C3.8099 8.25 3.80729 8.25 3.80469 8.25C3.80208 8.25 3.79948 8.25 3.79688 8.25C3.79427 8.25 3.79167 8.25 3.78906 8.25C3.78646 8.25 3.78385 8.25 3.78125 8.25C3.77865 8.25 3.77604 8.25 3.77344 8.25C3.77083 8.25 3.76823 8.25 3.76562 8.25C3.76302 8.25 3.76042 8.25 3.75781 8.25C3.75521 8.25 3.7526 8.25 3.75 8.25C3.7474 8.25 3.74479 8.25 3.74219 8.25C3.73958 8.25 3.73698 8.25 3.73438 8.25C3.73177 8.25 3.72917 8.25 3.72656 8.25C3.72396 8.25 3.72135 8.25 3.71875 8.25C3.71615 8.25 3.71354 8.25 3.71094 8.25C3.70833 8.25 3.70573 8.25 3.70312 8.25C3.70052 8.25 3.69792 8.25 3.69531 8.25C3.69271 8.25 3.6901 8.25 3.6875 8.25C3.6849 8.25 3.68229 8.25 3.67969 8.25C3.67708 8.25 3.67448 8.25 3.67188 8.25C3.66927 8.25 3.66667 8.25 3.66406 8.25C3.66146 8.25 3.65885 8.25 3.65625 8.25C3.65365 8.25 3.65104 8.25 3.64844 8.25C3.64583 8.25 3.64323 8.25 3.64062 8.25C3.63802 8.25 3.63542 8.25 3.63281 8.25C3.63021 8.25 3.6276 8.25 3.625 8.25C3.6224 8.25 3.61979 8.25 3.61719 8.25C3.61458 8.25 3.61198 8.25 3.60938 8.25C3.60677 8.25 3.60417 8.25 3.60156 8.25C3.59896 8.25 3.59635 8.25 3.59375 8.25C3.59115 8.25 3.58854 8.25 3.58594 8.25C3.58333 8.25 3.58073 8.25 3.57812 8.25C3.57552 8.25 3.57292 8.25 3.57031 8.25C3.56771 8.25 3.5651 8.25 3.5625 8.25C3.5599 8.25 3.55729 8.25 3.55469 8.25C3.55208 8.25 3.54948 8.25 3.54688 8.25C3.54427 8.25 3.54167 8.25 3.53906 8.25C3.53646 8.25 3.53385 8.25 3.53125 8.25C3.52865 8.25 3.52604 8.25 3.52344 8.25C3.52083 8.25 3.51823 8.25 3.51562 8.25C3.51302 8.25 3.51042 8.25 3.50781 8.25C3.50521 8.25 3.5026 8.25 3.5 8.25C3.4974 8.25 3.49479 8.25 3.49219 8.25C3.48958 8.25 3.48698 8.25 3.48438 8.25C3.48177 8.25 3.47917 8.25 3.47656 8.25C3.47396 8.25 3.47135 8.25 3.46875 8.25C3.46615 8.25 3.46354 8.25 3.46094 8.25C3.45833 8.25 3.45573 8.25 3.45312 8.25C3.45052 8.25 3.44792 8.25 3.44531 8.25C3.44271 8.25 3.4401 8.25 3.4375 8.25C3.4349 8.25 3.43229 8.25 3.42969 8.25C3.42708 8.25 3.42448 8.25 3.42188 8.25C3.41927 8.25 3.41667 8.25 3.41406 8.25C3.41146 8.25 3.40885 8.25 3.40625 8.25C3.40365 8.25 3.40104 8.25 3.39844 8.25C3.39583 8.25 3.39323 8.25 3.39062 8.25C3.38802 8.25 3.38542 8.25 3.38281 8.25C3.38021 8.25 3.3776 8.25 3.375 8.25C3.3724 8.25 3.36979 8.25 3.36719 8.25C3.36458 8.25 3.36198 8.25 3.35938 8.25C3.35677 8.25 3.35417 8.25 3.35156 8.25C3.34896 8.25 3.34635 8.25 3.34375 8.25C3.34115 8.25 3.33854 8.25 3.33594 8.25C3.33333 8.25 3.33073 8.25 3.32812 8.25C3.32552 8.25 3.32292 8.25 3.32031 8.25C3.31771 8.25 3.3151 8.25 3.3125 8.25C3.3099 8.25 3.30729 8.25 3.30469 8.25C3.30208 8.25 3.29948 8.25 3.29688 8.25C3.29427 8.25 3.29167 8.25 3.28906 8.25C3.28646 8.25 3.28385 8.25 3.28125 8.25C3.27865 8.25 3.27604 8.25 3.27344 8.25C3.27083 8.25 3.26823 8.25 3.26562 8.25C3.26302 8.25 3.26042 8.25 3.25781 8.25C3.25521 8.25 3.2526 8.25 3.25 8.25C3.2474 8.25 3.24479 8.25 3.24219 8.25C3.23958 8.25 3.23698 8.25 3.23438 8.25C3.23177 8.25 3.22917 8.25 3.22656 8.25C3.22396 8.25 3.22135 8.25 3.21875 8.25C3.21615 8.25 3.21354 8.25 3.21094 8.25C3.20833 8.25 3.20573 8.25 3.20312 8.25C3.20052 8.25 3.19792 8.25 3.19531 8.25C3.19271 8.25 3.1901 8.25 3.1875 8.25C3.1849 8.25 3.18229 8.25 3.17969 8.25C3.17708 8.25 3.17448 8.25 3.17188 8.25C3.16927 8.25 3.16667 8.25 3.16406 8.25C3.16146 8.25 3.15885 8.25 3.15625 8.25C3.15365 8.25 3.15104 8.25 3.14844 8.25C3.14583 8.25 3.14323 8.25 3.14062 8.25C3.13802 8.25 3.13542 8.25 3.13281 8.25C3.13021 8.25 3.1276 8.25 3.125 8.25C3.1224 8.25 3.11979 8.25 3.11719 8.25C3.11458 8.25 3.11198 8.25 3.10938 8.25C3.10677 8.25 3.10417 8.25 3.10156 8.25C3.09896 8.25 3.09635 8.25 3.09375 8.25C3.09115 8.25 3.08854 8.25 3.08594 8.25C3.08333 8.25 3.08073 8.25 3.07812 8.25C3.07552 8.25 3.07292 8.25 3.07031 8.25C3.06771 8.25 3.0651 8.25 3.0625 8.25C3.0599 8.25 3.05729 8.25 3.05469 8.25C3.05208 8.25 3.04948 8.25 3.04688 8.25C3.04427 8.25 3.04167 8.25 3.03906 8.25C3.03646 8.25 3.03385 8.25 3.03125 8.25C3.02865 8.25 3.02604 8.25 3.02344 8.25C3.02083 8.25 3.01823 8.25 3.01562 8.25C3.01302 8.25 3.01042 8.25 3.00781 8.25C3.00521 8.25 3.0026 8.25 3 8.25C2.9974 8.25 2.99479 8.25 2.99219 8.25C2.98958 8.25 2.98698 8.25 2.98438 8.25C2.98177 8.25 2.97917 8.25 2.97656 8.25C2.97396 8.25 2.97135 8.25 2.96875 8.25C2.96615 8.25 2.96354 8.25 2.96094 8.25C2.95833 8.25 2.95573 8.25 2.95313 8.25C2.95052 8.25 2.94792 8.25 2.94531 8.25C2.94271 8.25 2.9401 8.25 2.9375 8.25C2.9349 8.25 2.93229 8.25 2.92969 8.25C2.92708 8.25 2.92448 8.25 2.92188 8.25C2.91927 8.25 2.91667 8.25 2.91406 8.25C2.91146 8.25 2.90885 8.25 2.90625 8.25C2.90365 8.25 2.90104 8.25 2.89844 8.25C2.89583 8.25 2.89323 8.25 2.89063 8.25C2.88802 8.25 2.88542 8.25 2.88281 8.25C2.88021 8.25 2.8776 8.25 2.875 8.25C2.8724 8.25 2.86979 8.25 2.86719 8.25C2.86458 8.25 2.86198 8.25 2.85938 8.25C2.85677 8.25 2.85417 8.25 2.85156 8.25C2.84896 8.25 2.84635 8.25 2.84375 8.25C2.84115 8.25 2.83854 8.25 2.83594 8.25C2.83333 8.25 2.83073 8.25 2.82813 8.25C2.82552 8.25 2.82292 8.25 2.82031 8.25C2.81771 8.25 2.8151 8.25 2.8125 8.25C2.8099 8.25 2.80729 8.25 2.80469 8.25C2.80208 8.25 2.79948 8.25 2.79688 8.25C2.79427 8.25 2.79167 8.25 2.78906 8.25C2.78646 8.25 2.78385 8.25 2.78125 8.25C2.77865 8.25 2.77604 8.25 2.77344 8.25C2.77083 8.25 2.76823 8.25 2.76563 8.25C2.76302 8.25 2.76042 8.25 2.75781 8.25C2.75521 8.25 2.7526 8.25 2.75 8.25C2.7474 8.25 2.74479 8.25 2.74219 8.25C2.73958 8.25 2.73698 8.25 2.73438 8.25C2.73177 8.25 2.72917 8.25 2.72656 8.25C2.72396 8.25 2.72135 8.25 2.71875 8.25C2.71615 8.25 2.71354 8.25 2.71094 8.25C2.70833 8.25 2.70573 8.25 2.70312 8.25C2.70052 8.25 2.69792 8.25 2.69531 8.25C2.69271 8.25 2.6901 8.25 2.6875 8.25C2.6849 8.25 2.68229 8.25 2.67969 8.25C2.67708 8.25 2.67448 8.25 2.67188 8.25C2.66927 8.25 2.66667 8.25 2.66406 8.25C2.66146 8.25 2.65885 8.25 2.65625 8.25C2.65365 8.25 2.65104 8.25 2.64844 8.25C2.64583 8.25 2.64323 8.25 2.64062 8.25C2.63802 8.25 2.63542 8.25 2.63281 8.25C2.63021 8.25 2.6276 8.25 2.625 8.25C2.6224 8.25 2.61979 8.25 2.61719 8.25C2.61458 8.25 2.61198 8.25 2.60938 8.25C2.60677 8.25 2.60417 8.25 2.60156 8.25C2.59896 8.25 2.59635 8.25 2.59375 8.25C2.59115 8.25 2.58854 8.25 2.58594 8.25C2.58333 8.25 2.58073 8.25 2.57812 8.25C2.57552 8.25 2.57292 8.25 2.57031 8.25C2.56771 8.25 2.5651 8.25 2.5625 8.25C2.5599 8.25 2.55729 8.25 2.55469 8.25C2.55208 8.25 2.54948 8.25 2.54688 8.25C2.54427 8.25 2.54167 8.25 2.53906 8.25C2.53646 8.25 2.53385 8.25 2.53125 8.25C2.52865 8.25 2.52604 8.25 2.52344 8.25C2.52083 8.25 2.51823 8.25 2.51562 8.25C2.51302 8.25 2.51042 8.25 2.50781 8.25C2.50521 8.25 2.5026 8.25 2.5 8.25C2.4974 8.25 2.49479 8.25 2.49219 8.25C2.48958 8.25 2.48698 8.25 2.48438 8.25C2.48177 8.25 2.47917 8.25 2.47656 8.25C2.47396 8.25 2.47135 8.25 2.46875 8.25C2.46615 8.25 2.46354 8.25 2.46094 8.25C2.45833 8.25 2.45573 8.25 2.45313 8.25C2.45052 8.25 2.44792 8.25 2.44531 8.25C2.44271 8.25 2.4401 8.25 2.4375 8.25C2.4349 8.25 2.43229 8.25 2.42969 8.25C2.42708 8.25 2.42448 8.25 2.42188 8.25C2.41927 8.25 2.41667 8.25 2.41406 8.25C2.41146 8.25 2.40885 8.25 2.40625 8.25C2.40365 8.25 2.40104 8.25 2.39844 8.25C2.39583 8.25 2.39323 8.25 2.39063 8.25C2.38802 8.25 2.38542 8.25 2.38281 8.25C2.38021 8.25 2.3776 8.25 2.375 8.25C2.3724 8.25 2.36979 8.25 2.36719 8.25C2.36458 8.25 2.36198 8.25 2.35938 8.25C2.35677 8.25 2.35417 8.25 2.35156 8.25C2.34896 8.25 2.34635 8.25 2.34375 8.25C2.34115 8.25 2.33854 8.25 2.33594 8.25C2.33333 8.25 2.33073 8.25 2.32813 8.25C2.32552 8.25 2.32292 8.25 2.32031 8.25C2.31771 8.25 2.3151 8.25 2.3125 8.25C2.3099 8.25 2.30729 8.25 2.30469 8.25C2.30208 8.25 2.29948 8.25 2.29688 8.25C2.29427 8.25 2.29167 8.25 2.28906 8.25C2.28646 8.25 2.28385 8.25 2.28125 8.25C2.27865 8.25 2.27604 8.25 2.27344 8.25C2.27083 8.25 2.26823 8.25 2.26562 8.25C2.26302 8.25 2.26042 8.25 2.25781 8.25C2.25521 8.25 2.2526 8.25 2.25 8.25C2.2474 8.25 2.24479 8.25 2.24219 8.25C2.23958 8.25 2.23698 8.25 2.23438 8.25C2.23177 8.25 2.22917 8.25 2.22656 8.25C2.22396 8.25 2.22135 8.25 2.21875 8.25C2.21615 8.25 2.21354 8.25 2.21094 8.25C2.20833 8.25 2.20573 8.25 2.20313 8.25C2.20052 8.25 2.19792 8.25 2.19531 8.25C2.19271 8.25 2.1901 8.25 2.1875 8.25C2.1849 8.25 2.18229 8.25 2.17969 8.25C2.17708 8.25 2.17448 8.25 2.17188 8.25C2.16927 8.25 2.16667 8.25 2.16406 8.25C2.16146 8.25 2.15885 8.25 2.15625 8.25C2.15365 8.25 2.15104 8.25 2.14844 8.25C2.14583 8.25 2.14323 8.25 2.14062 8.25C2.13802 8.25 2.13542 8.25 2.13281 8.25C2.13021 8.25 2.1276 8.25 2.125 8.25C2.1224 8.25 2.11979 8.25 2.11719 8.25C2.11458 8.25 2.11198 8.25 2.10938 8.25C2.10677 8.25 2.10417 8.25 2.10156 8.25C2.09896 8.25 2.09635 8.25 2.09375 8.25C2.09115 8.25 2.08854 8.25 2.08594 8.25C2.08333 8.25 2.08073 8.25 2.07813 8.25C2.07552 8.25 2.07292 8.25 2.07031 8.25C2.06771 8.25 2.0651 8.25 2.0625 8.25C2.0599 8.25 2.05729 8.25 2.05469 8.25C2.05208 8.25 2.04948 8.25 2.04688 8.25C2.04427 8.25 2.04167 8.25 2.03906 8.25C2.03646 8.25 2.03385 8.25 2.03125 8.25C2.02865 8.25 2.02604 8.25 2.02344 8.25C2.02083 8.25 2.01823 8.25 2.01562 8.25C2.01302 8.25 2.01042 8.25 2.00781 8.25C2.00521 8.25 2.0026 8.25 2 8.25L2 9.75Z" fill="white"/>
<path fill-rule="evenodd" clip-rule="evenodd" d="M7 1C6.44772 1 6 1.44772 6 2V8.99268L6.00092 8.24268L6.01459 8.24269L6.02826 8.24271L6.04193 8.24273L6.0556 8.24274L6.06927 8.24276L6.08295 8.24278L6.09662 8.24279L6.11029 8.24281L6.12396 8.24283L6.13763 8.24284L6.15131 8.24286L6.16498 8.24288L6.17865 8.24289L6.19232 8.24291L6.20599 8.24293L6.21967 8.24294L6.23334 8.24296L6.24701 8.24298L6.26068 8.24299L6.27435 8.24301L6.28802 8.24303L6.3017 8.24304L6.31537 8.24306L6.32904 8.24308L6.34271 8.24309L6.35638 8.24311L6.37006 8.24313L6.38373 8.24314L6.3974 8.24316L6.41107 8.24318L6.42474 8.24319L6.43842 8.24321L6.45209 8.24323L6.46576 8.24324L6.47943 8.24326L6.4931 8.24328L6.50677 8.24329L6.52045 8.24331L6.53412 8.24333L6.54779 8.24334L6.56146 8.24336L6.57513 8.24338L6.58881 8.24339L6.60248 8.24341L6.61615 8.24343L6.62982 8.24344L6.64349 8.24346L6.65717 8.24348L6.67084 8.24349L6.68451 8.24351L6.69818 8.24353L6.71185 8.24354L6.72552 8.24356L6.7392 8.24358L6.75287 8.24359L6.76654 8.24361L6.78021 8.24363L6.79388 8.24364L6.80756 8.24366L6.82123 8.24368L6.8349 8.24369L6.84857 8.24371L6.86224 8.24373L6.87592 8.24374L6.88959 8.24376L6.90326 8.24378L6.91693 8.24379L6.9306 8.24381L6.94427 8.24383L6.95795 8.24384L6.97162 8.24386L6.98529 8.24388L6.99896 8.24389L7.01263 8.24391L7.02631 8.24393L7.03998 8.24394L7.05365 8.24396L7.06732 8.24398L7.08099 8.24399L7.09467 8.24401L7.10834 8.24403L7.12201 8.24404L7.13568 8.24406L7.14935 8.24408L7.16302 8.24409L7.1767 8.24411L7.19037 8.24413L7.20404 8.24414L7.21771 8.24416L7.23138 8.24418L7.24506 8.24419L7.25873 8.24421L7.2724 8.24423L7.28607 8.24425L7.29974 8.24426L7.31342 8.24428L7.32709 8.2443L7.34076 8.24431L7.35443 8.24433L7.3681 8.24435L7.38177 8.24436L7.39545 8.24438L7.40912 8.2444L7.42279 8.24441L7.43646 8.24443L7.45013 8.24445L7.46381 8.24446L7.47748 8.24448L7.49115 8.2445L7.50482 8.24451L7.51849 8.24453L7.53217 8.24455L7.54584 8.24456L7.55951 8.24458L7.57318 8.2446L7.58685 8.24461L7.60052 8.24463L7.6142 8.24465L7.62787 8.24466L7.64154 8.24468L7.65521 8.2447L7.66888 8.24471L7.68256 8.24473L7.69623 8.24475L7.7099 8.24476L7.72357 8.24478L7.73724 8.2448L7.75092 8.24481L7.76459 8.24483L7.77826 8.24485L7.79193 8.24486L7.8056 8.24488L7.81927 8.2449L7.83295 8.24491L7.84662 8.24493L7.86029 8.24495L7.87396 8.24496L7.88763 8.24498L7.90131 8.245L7.91498 8.24501L7.92865 8.24503L7.94232 8.24505L7.95599 8.24506L7.96967 8.24508L7.98334 8.2451L7.99701 8.24511L8.01068 8.24513L8.02435 8.24515L8.03802 8.24516L8.0517 8.24518L8.06537 8.2452L8.07904 8.24521L8.09271 8.24523L8.10638 8.24525L8.12006 8.24526L8.13373 8.24528L8.1474 8.2453L8.16107 8.24531L8.17474 8.24533L8.18842 8.24535L8.20209 8.24536L8.21576 8.24538L8.22943 8.2454L8.2431 8.24541L8.25677 8.24543L8.27045 8.24545L8.28412 8.24546L8.29779 8.24548L8.31146 8.2455L8.32513 8.24551L8.33881 8.24553L8.35248 8.24555L8.36615 8.24556L8.37982 8.24558L8.39349 8.2456L8.40717 8.24561L8.42084 8.24563L8.43451 8.24565L8.44818 8.24566L8.46185 8.24568L8.47552 8.2457L8.4892 8.24571L8.50287 8.24573L8.51654 8.24575L8.53021 8.24576L8.54388 8.24578L8.55756 8.2458L8.57123 8.24581L8.5849 8.24583L8.59857 8.24585L8.61224 8.24586L8.62592 8.24588L8.63959 8.2459L8.65326 8.24591L8.66693 8.24593L8.6806 8.24595L8.69427 8.24596L8.70795 8.24598L8.72162 8.246L8.73529 8.24601L8.74896 8.24603L8.76263 8.24605L8.77631 8.24606L8.78998 8.24608L8.80365 8.2461L8.81732 8.24611L8.83099 8.24613L8.84467 8.24615L8.85834 8.24616L8.87201 8.24618L8.88568 8.2462L8.89935 8.24621L8.91302 8.24623L8.9267 8.24625L8.94037 8.24626L8.95404 8.24628L8.96771 8.2463L8.98138 8.24631L8.99506 8.24633L9.00873 8.24635L9.0224 8.24636L9.03607 8.24638L9.04974 8.2464L9.06342 8.24641L9.07709 8.24643L9.09076 8.24645L9.10443 8.24646L9.1181 8.24648L9.13177 8.2465L9.14545 8.24651L9.15912 8.24653L9.17279 8.24655L9.18646 8.24656L9.20013 8.24658L9.21381 8.2466L9.22748 8.24661L9.24115 8.24663L9.25482 8.24665L9.26849 8.24667L9.28217 8.24668L9.29584 8.2467L9.30951 8.24672L9.32318 8.24673L9.33685 8.24675L9.35052 8.24677L9.3642 8.24678L9.37787 8.2468L9.39154 8.24682L9.40521 8.24683L9.41888 8.24685L9.43256 8.24687L9.44623 8.24688L9.4599 8.2469L9.47357 8.24692L9.48724 8.24693L9.50091 8.24695L9.51459 8.24697L9.52826 8.24698L9.54193 8.247L9.5556 8.24702L9.56927 8.24703L9.58295 8.24705L9.59662 8.24707L9.61029 8.24708L9.62396 8.2471L9.63763 8.24712L9.65131 8.24713L9.66498 8.24715L9.67865 8.24717L9.69232 8.24718L9.70599 8.2472L9.71966 8.24722L9.73334 8.24723L9.74701 8.24725L9.76068 8.24727L9.77435 8.24728L9.78802 8.2473L9.8017 8.24732L9.81537 8.24733L9.82904 8.24735L9.84271 8.24737L9.85638 8.24738L9.87006 8.2474L9.88373 8.24742L9.8974 8.24743L9.91107 8.24745L9.92474 8.24747L9.93841 8.24748L9.95209 8.2475L9.96576 8.24752L9.97943 8.24753L9.9931 8.24755L10.0068 8.24757L10.0204 8.24758L10.0341 8.2476L10.0478 8.24762L10.0615 8.24763L10.0751 8.24765L10.0888 8.24767L10.1025 8.24768L10.1161 8.2477L10.1298 8.24772L10.1435 8.24773L10.1572 8.24775L10.1708 8.24777L10.1845 8.24778L10.1982 8.2478L10.2119 8.24782L10.2255 8.24783L10.2392 8.24785L10.2529 8.24787L10.2665 8.24788L10.2802 8.2479L10.2939 8.24792L10.3076 8.24793L10.3212 8.24795L10.3349 8.24797L10.3486 8.24798L10.3622 8.248L10.3759 8.24802L10.3896 8.24803L10.4033 8.24805L10.4169 8.24807L10.4306 8.24808L10.4443 8.2481L10.4579 8.24812L10.4716 8.24813L10.4853 8.24815L10.499 8.24817L10.5126 8.24818L10.5263 8.2482L10.54 8.24822L10.5536 8.24823L10.5673 8.24825L10.581 8.24827L10.5947 8.24828L10.6083 8.2483L10.622 8.24832L10.6357 8.24833L10.6494 8.24835L10.663 8.24837L10.6767 8.24838L10.6904 8.2484L10.704 8.24842L10.7177 8.24843L10.7314 8.24845L10.7451 8.24847L10.7587 8.24848L10.7724 8.2485L10.7861 8.24852L10.7997 8.24853L10.8134 8.24855L10.8271 8.24857L10.8408 8.24858L10.8544 8.2486L10.8681 8.24862L10.8818 8.24863L10.8954 8.24865L10.9091 8.24867L10.9228 8.24868L10.9365 8.2487L10.9501 8.24872L10.9638 8.24873L10.9775 8.24875L10.9911 8.24877L11.0048 8.24878L11.0185 8.2488L11.0322 8.24882L11.0458 8.24883L11.0595 8.24885L11.0732 8.24887L11.0869 8.24888L11.1005 8.2489L11.1142 8.24892L11.1279 8.24893L11.1415 8.24895L11.1552 8.24897L11.1689 8.24898L11.1826 8.249L11.1962 8.24902L11.2099 8.24903L11.2236 8.24905L11.2372 8.24907L11.2509 8.24908L11.2646 8.2491L11.2783 8.24912L11.2919 8.24914L11.3056 8.24915L11.3193 8.24917L11.3329 8.24919L11.3466 8.2492L11.3603 8.24922L11.374 8.24924L11.3876 8.24925L11.4013 8.24927L11.415 8.24929L11.4286 8.2493L11.4423 8.24932L11.456 8.24934L11.4697 8.24935L11.4833 8.24937L11.497 8.24939L11.5107 8.2494L11.5244 8.24942L11.538 8.24944L11.5517 8.24945L11.5654 8.24947L11.579 8.24949L11.5927 8.2495L11.6064 8.24952L11.6201 8.24954L11.6337 8.24955L11.6474 8.24957L11.6611 8.24959L11.6747 8.2496L11.6884 8.24962L11.7021 8.24964L11.7158 8.24965L11.7294 8.24967L11.7431 8.24969L11.7568 8.2497L11.7704 8.24972L11.7841 8.24974L11.7978 8.24975L11.8115 8.24977L11.8251 8.24979L11.8388 8.2498L11.8525 8.24982L11.8661 8.24984L11.8798 8.24985L11.8935 8.24987L11.9072 8.24989L11.9208 8.2499L11.9345 8.24992L11.9482 8.24994L11.9619 8.24995L11.9755 8.24997L11.9892 8.24999L12.0029 8.25L12.0165 8.25002L12.0302 8.25004L12.0439 8.25005L12.0576 8.25007L12.0712 8.25009L12.0849 8.2501L12.0986 8.25012L12.1122 8.25014L12.1259 8.25015L12.1396 8.25017L12.1533 8.25019L12.1669 8.2502L12.1806 8.25022L12.1943 8.25024L12.2044 8.25025L9.47343 5.51931C9.18053 5.22642 9.18053 4.75154 9.47343 4.45865C9.76632 4.16576 10.2412 4.16576 10.5341 4.45865L14.5378 8.46231C14.8306 8.7552 14.8306 9.23008 14.5378 9.52297L10.5341 13.5266C10.2412 13.8195 9.76632 13.8195 9.47343 13.5266C9.18053 13.2337 9.18053 12.7589 9.47343 12.466L12.1892 9.75023L12.1788 9.75022L12.1651 9.7502L12.1514 9.75019L12.1378 9.75017L12.1241 9.75015L12.1104 9.75014L12.0967 9.75012L12.0831 9.7501L12.0694 9.75008L12.0557 9.75007L12.0421 9.75005L12.0284 9.75004L12.0147 9.75002L12.001 9.75L11.9874 9.74998L11.9737 9.74997L11.96 9.74995L11.9463 9.74994L11.9327 9.74992L11.919 9.7499L11.9053 9.74988L11.8917 9.74987L11.878 9.74985L11.8643 9.74984L11.8506 9.74982L11.837 9.7498L11.8233 9.74978L11.8096 9.74977L11.796 9.74975L11.7823 9.74973L11.7686 9.74972L11.7549 9.7497L11.7413 9.74968L11.7276 9.74967L11.7139 9.74965L11.7003 9.74963L11.6866 9.74962L11.6729 9.7496L11.6592 9.74958L11.6456 9.74957L11.6319 9.74955L11.6182 9.74953L11.6046 9.74952L11.5909 9.7495L11.5772 9.74948L11.5635 9.74947L11.5499 9.74945L11.5362 9.74943L11.5225 9.74942L11.5088 9.7494L11.4952 9.74938L11.4815 9.74937L11.4678 9.74935L11.4542 9.74933L11.4405 9.74932L11.4268 9.7493L11.4131 9.74928L11.3995 9.74927L11.3858 9.74925L11.3721 9.74923L11.3585 9.74922L11.3448 9.7492L11.3311 9.74918L11.3174 9.74917L11.3038 9.74915L11.2901 9.74913L11.2764 9.74912L11.2628 9.7491L11.2491 9.74908L11.2354 9.74907L11.2217 9.74905L11.2081 9.74903L11.1944 9.74902L11.1807 9.749L11.1671 9.74898L11.1534 9.74897L11.1397 9.74895L11.126 9.74893L11.1124 9.74892L11.0987 9.7489L11.085 9.74888L11.0713 9.74887L11.0577 9.74885L11.044 9.74883L11.0303 9.74882L11.0167 9.7488L11.003 9.74878L10.9893 9.74877L10.9756 9.74875L10.962 9.74873L10.9483 9.74872L10.9346 9.7487L10.921 9.74868L10.9073 9.74867L10.8936 9.74865L10.8799 9.74863L10.8663 9.74862L10.8526 9.7486L10.8389 9.74858L10.8253 9.74857L10.8116 9.74855L10.7979 9.74853L10.7842 9.74852L10.7706 9.7485L10.7569 9.74848L10.7432 9.74847L10.7296 9.74845L10.7159 9.74843L10.7022 9.74842L10.6885 9.7484L10.6749 9.74838L10.6612 9.74837L10.6475 9.74835L10.6338 9.74833L10.6202 9.74832L10.6065 9.7483L10.5928 9.74828L10.5792 9.74827L10.5655 9.74825L10.5518 9.74823L10.5381 9.74822L10.5245 9.7482L10.5108 9.74818L10.4971 9.74817L10.4835 9.74815L10.4698 9.74813L10.4561 9.74812L10.4424 9.7481L10.4288 9.74808L10.4151 9.74807L10.4014 9.74805L10.3878 9.74803L10.3741 9.74802L10.3604 9.748L10.3467 9.74798L10.3331 9.74797L10.3194 9.74795L10.3057 9.74793L10.2921 9.74792L10.2784 9.7479L10.2647 9.74788L10.251 9.74787L10.2374 9.74785L10.2237 9.74783L10.21 9.74782L10.1963 9.7478L10.1827 9.74778L10.169 9.74777L10.1553 9.74775L10.1417 9.74773L10.128 9.74771L10.1143 9.7477L10.1006 9.74768L10.087 9.74767L10.0733 9.74765L10.0596 9.74763L10.046 9.74761L10.0323 9.7476L10.0186 9.74758L10.0049 9.74757L9.99127 9.74755L9.9776 9.74753L9.96393 9.74751L9.95026 9.7475L9.93658 9.74748L9.92291 9.74747L9.90924 9.74745L9.89557 9.74743L9.8819 9.74741L9.86822 9.7474L9.85455 9.74738L9.84088 9.74736L9.82721 9.74735L9.81354 9.74733L9.79987 9.74731L9.78619 9.7473L9.77252 9.74728L9.75885 9.74726L9.74518 9.74725L9.73151 9.74723L9.71783 9.74721L9.70416 9.7472L9.69049 9.74718L9.67682 9.74716L9.66315 9.74715L9.64947 9.74713L9.6358 9.74711L9.62213 9.7471L9.60846 9.74708L9.59479 9.74706L9.58112 9.74705L9.56744 9.74703L9.55377 9.74701L9.5401 9.747L9.52643 9.74698L9.51276 9.74696L9.49908 9.74695L9.48541 9.74693L9.47174 9.74691L9.45807 9.7469L9.4444 9.74688L9.43072 9.74686L9.41705 9.74685L9.40338 9.74683L9.38971 9.74681L9.37604 9.7468L9.36237 9.74678L9.34869 9.74676L9.33502 9.74675L9.32135 9.74673L9.30768 9.74671L9.29401 9.7467L9.28033 9.74668L9.26666 9.74666L9.25299 9.74665L9.23932 9.74663L9.22565 9.74661L9.21197 9.7466L9.1983 9.74658L9.18463 9.74656L9.17096 9.74655L9.15729 9.74653L9.14362 9.74651L9.12994 9.7465L9.11627 9.74648L9.1026 9.74646L9.08893 9.74645L9.07526 9.74643L9.06158 9.74641L9.04791 9.7464L9.03424 9.74638L9.02057 9.74636L9.0069 9.74635L8.99322 9.74633L8.97955 9.74631L8.96588 9.7463L8.95221 9.74628L8.93854 9.74626L8.92487 9.74625L8.91119 9.74623L8.89752 9.74621L8.88385 9.7462L8.87018 9.74618L8.85651 9.74616L8.84283 9.74615L8.82916 9.74613L8.81549 9.74611L8.80182 9.7461L8.78815 9.74608L8.77447 9.74606L8.7608 9.74605L8.74713 9.74603L8.73346 9.74601L8.71979 9.746L8.70612 9.74598L8.69244 9.74596L8.67877 9.74595L8.6651 9.74593L8.65143 9.74591L8.63776 9.7459L8.62408 9.74588L8.61041 9.74586L8.59674 9.74585L8.58307 9.74583L8.5694 9.74581L8.55572 9.7458L8.54205 9.74578L8.52838 9.74576L8.51471 9.74575L8.50104 9.74573L8.48737 9.74571L8.47369 9.7457L8.46002 9.74568L8.44635 9.74566L8.43268 9.74565L8.41901 9.74563L8.40533 9.74561L8.39166 9.7456L8.37799 9.74558L8.36432 9.74556L8.35065 9.74555L8.33697 9.74553L8.3233 9.74551L8.30963 9.7455L8.29596 9.74548L8.28229 9.74546L8.26862 9.74545L8.25494 9.74543L8.24127 9.74541L8.2276 9.7454L8.21393 9.74538L8.20026 9.74536L8.18658 9.74535L8.17291 9.74533L8.15924 9.74531L8.14557 9.7453L8.1319 9.74528L8.11822 9.74526L8.10455 9.74524L8.09088 9.74523L8.07721 9.74521L8.06354 9.7452L8.04987 9.74518L8.03619 9.74516L8.02252 9.74514L8.00885 9.74513L7.99518 9.74511L7.98151 9.7451L7.96783 9.74508L7.95416 9.74506L7.94049 9.74504L7.92682 9.74503L7.91315 9.74501L7.89947 9.745L7.8858 9.74498L7.87213 9.74496L7.85846 9.74494L7.84479 9.74493L7.83112 9.74491L7.81744 9.74489L7.80377 9.74488L7.7901 9.74486L7.77643 9.74484L7.76276 9.74483L7.74908 9.74481L7.73541 9.74479L7.72174 9.74478L7.70807 9.74476L7.6944 9.74474L7.68072 9.74473L7.66705 9.74471L7.65338 9.74469L7.63971 9.74468L7.62604 9.74466L7.61237 9.74464L7.59869 9.74463L7.58502 9.74461L7.57135 9.74459L7.55768 9.74458L7.54401 9.74456L7.53033 9.74454L7.51666 9.74453L7.50299 9.74451L7.48932 9.74449L7.47565 9.74448L7.46197 9.74446L7.4483 9.74444L7.43463 9.74443L7.42096 9.74441L7.40729 9.74439L7.39362 9.74438L7.37994 9.74436L7.36627 9.74434L7.3526 9.74433L7.33893 9.74431L7.32526 9.74429L7.31158 9.74428L7.29791 9.74426L7.28424 9.74424L7.27057 9.74423L7.2569 9.74421L7.24322 9.74419L7.22955 9.74418L7.21588 9.74416L7.20221 9.74414L7.18854 9.74413L7.17487 9.74411L7.16119 9.74409L7.14752 9.74408L7.13385 9.74406L7.12018 9.74404L7.10651 9.74403L7.09283 9.74401L7.07916 9.74399L7.06549 9.74398L7.05182 9.74396L7.03815 9.74394L7.02447 9.74393L7.0108 9.74391L6.99713 9.74389L6.98346 9.74388L6.96979 9.74386L6.95612 9.74384L6.94244 9.74383L6.92877 9.74381L6.9151 9.74379L6.90143 9.74378L6.88776 9.74376L6.87408 9.74374L6.86041 9.74373L6.84674 9.74371L6.83307 9.74369L6.8194 9.74368L6.80572 9.74366L6.79205 9.74364L6.77838 9.74363L6.76471 9.74361L6.75104 9.74359L6.73737 9.74358L6.72369 9.74356L6.71002 9.74354L6.69635 9.74353L6.68268 9.74351L6.66901 9.74349L6.65533 9.74348L6.64166 9.74346L6.62799 9.74344L6.61432 9.74343L6.60065 9.74341L6.58698 9.74339L6.5733 9.74338L6.55963 9.74336L6.54596 9.74334L6.53229 9.74333L6.51862 9.74331L6.50494 9.74329L6.49127 9.74328L6.4776 9.74326L6.46393 9.74324L6.45026 9.74323L6.43658 9.74321L6.42291 9.74319L6.40924 9.74318L6.39557 9.74316L6.3819 9.74314L6.36823 9.74313L6.35455 9.74311L6.34088 9.74309L6.32721 9.74308L6.31354 9.74306L6.29987 9.74304L6.28619 9.74303L6.27252 9.74301L6.25885 9.74299L6.24518 9.74298L6.23151 9.74296L6.21783 9.74294L6.20416 9.74293L6.19049 9.74291L6.17682 9.74289L6.16315 9.74288L6.14948 9.74286L6.1358 9.74284L6.12213 9.74283L6.10846 9.74281L6.09479 9.74279L6.08112 9.74277L6.06744 9.74276L6.05377 9.74274L6.0401 9.74273L6.02643 9.74271L6.01276 9.74269L6 9.74268V16C6 16.5523 6.44771 17 7 17H16C16.5523 17 17 16.5523 17 16V2C17 1.44772 16.5523 1 16 1H7Z" fill="white"/>
</svg>
