<svg width="21" height="20" viewBox="0 0 21 20" fill="none" xmlns="http://www.w3.org/2000/svg">
<path fill-rule="evenodd" clip-rule="evenodd" d="M1.12627 0.95955C1.51679 0.569025 2.14996 0.569025 2.54048 0.95955L17.5405 15.9595C17.931 16.3501 17.931 16.9832 17.5405 17.3738C17.15 17.7643 16.5168 17.7643 16.1263 17.3738L1.12627 2.37376C0.735743 1.98324 0.735743 1.35007 1.12627 0.95955ZM1.43587 4.77515C1.15931 5.2293 1 5.7627 1 6.33331V13.6666C1 15.3235 2.34315 16.6666 4 16.6666H13.2994L1.47784 4.82039C1.46319 4.80571 1.4492 4.79062 1.43587 4.77515ZM15.1667 6.33331V11.4864L7.03059 3.33331H12.1667C13.8235 3.33331 15.1667 4.67646 15.1667 6.33331ZM19.3753 5.46641L16.8334 7.49999V12.5L19.3753 14.5336C20.0301 15.0574 21 14.5912 21 13.7527V6.24728C21 5.40878 20.0301 4.9426 19.3753 5.46641Z" fill="#21262C"/>
</svg>
