<svg width="22" height="22" viewBox="0 0 22 22" fill="none" xmlns="http://www.w3.org/2000/svg">
<path d="M11.0071 7.39308C9.57295 7.33796 6.62364 7.71014 5.90662 7.8987C5.86422 7.90986 5.81537 7.92232 5.76073 7.93627C4.65985 8.21723 1.2103 9.09763 0.837594 11.8872C0.548842 14.0484 1.99488 14.7025 2.71774 14.6029C3.21806 14.5402 4.65057 14.3136 5.97414 14.0762C7.27383 13.843 7.27317 12.9856 7.27273 12.4058C7.27272 12.3951 7.27271 12.3846 7.27271 12.3741L7.27271 11.2085C7.27271 10.9117 7.55166 10.7401 7.93642 10.6937C9.29847 10.5087 10.4355 10.5082 11.0047 10.5082L11.0095 10.5082C11.5786 10.5082 12.7015 10.5087 14.0636 10.6938C14.4483 10.7401 14.7273 10.9117 14.7273 11.2085L14.7273 12.3741C14.7273 12.3846 14.7273 12.3952 14.7273 12.4058C14.7268 12.9856 14.7261 13.843 16.0258 14.0762C17.3494 14.3136 18.7819 14.5402 19.2822 14.6029C20.0051 14.7025 21.4511 14.0484 21.1624 11.8872C20.7897 9.09763 17.3401 8.21724 16.2393 7.93628C16.1846 7.92233 16.1358 7.90986 16.0934 7.89871C15.3763 7.71015 12.4412 7.33796 11.0071 7.39308Z" fill="white"/>
</svg>
