<svg width="24" height="24" viewBox="0 0 24 24" fill="none" xmlns="http://www.w3.org/2000/svg">
<path fill-rule="evenodd" clip-rule="evenodd" d="M3.4 4C2.07452 4 1 5.07452 1 6.4V17.6C1 18.9255 2.07452 20 3.4 20H20.6C21.9255 20 23 18.9255 23 17.6V6.4C23 5.07452 21.9255 4 20.6 4H3.4ZM11.9999 16C11.6464 16 11.3599 15.7135 11.3599 15.36V10.2049L9.38407 12.2166C9.13639 12.4688 8.73483 12.4688 8.48716 12.2166C8.23949 11.9644 8.23949 11.5556 8.48716 11.3034L11.5514 8.1834C11.7991 7.93122 12.2007 7.93122 12.4484 8.1834L15.5126 11.3034C15.7603 11.5556 15.7603 11.9644 15.5126 12.2166C15.265 12.4688 14.8634 12.4688 14.6157 12.2166L12.6399 10.2049V15.36C12.6399 15.7135 12.3534 16 11.9999 16Z" fill="#737D8C"/>
</svg>
