<svg width="24" height="24" viewBox="0 0 24 24" fill="none" xmlns="http://www.w3.org/2000/svg">
    <path fill-rule="evenodd" clip-rule="evenodd" d="M20 1C19.4477 1 19 1.44772 19 2V4H17C16.4477 4 16 4.44771 16 5C16 5.55228 16.4477 6 17 6H19V8C19 8.55228 19.4477 9 20 9C20.5523 9 21 8.55228 21 8V6H23C23.5523 6 24 5.55228 24 5C24 4.44772 23.5523 4 23 4H21V2C21 1.44772 20.5523 1 20 1ZM7 9.5C7 8.67 7.67 8 8.5 8C9.33 8 10 8.67 10 9.5C10 10.33 9.33 11 8.5 11C7.67 11 7 10.33 7 9.5ZM15.5 11C16.33 11 17 10.33 17 9.5C17 8.67 16.33 8 15.5 8C14.67 8 14 8.67 14 9.5C14 10.33 14.67 11 15.5 11ZM12 17.5C14.33 17.5 16.31 16.04 17.11 14H6.89001C7.69001 16.04 9.67001 17.5 12 17.5ZM4 12C4 7.58172 7.58172 4 12 4C12.6108 4 13.2045 4.06827 13.7742 4.1972C14.3129 4.3191 14.8484 3.98125 14.9703 3.44258C15.0922 2.90392 14.7543 2.36843 14.2156 2.24653C13.502 2.08504 12.7603 2 12 2C6.47715 2 2 6.47715 2 12C2 17.5228 6.47715 22 12 22C17.5228 22 22 17.5228 22 12C22 11.7878 21.9934 11.5771 21.9803 11.368C21.9459 10.8168 21.4711 10.3978 20.9199 10.4323C20.3687 10.4667 19.9498 10.9414 19.9842 11.4926C19.9947 11.6603 20 11.8295 20 12C20 16.4183 16.4183 20 12 20C7.58172 20 4 16.4183 4 12Z" fill="currentColor"/>
</svg>
