<svg height="18" viewBox="0 0 66 18" width="66" xmlns="http://www.w3.org/2000/svg">
    <g fill="#454545" fill-rule="evenodd">
        <path d="m.57375773.51260411v16.96465689h1.22032333v.4070323h-1.68861516v-17.77866867h1.68861516v.40697948z"/>
        <path d="m5.27530002 5.89064516v.85851027h.02442757c.22886998-.32679766.50453749-.58053959.82747736-.76043402.32272883-.17957771.69267726-.26973607 1.10937046-.26973607.4003378 0 .76611825.07785923 1.09702477.23304985.33101205.15545455.5823575.42920235.75398361.82171848.18782322-.27791789.44317838-.52326687.76611825-.73583578.32272886-.21246334.70475916-.31893255 1.14614376-.31893255.3350745 0 .6454576.04096187.9317297.12272727.2858501.0817654.5310227.21256891.7353596.39241056.2041259.18.363459.41505572.4781051.70506158.1143294.29053373.1716261.63987097.1716261 1.04880352v4.24324923l-1.7407414-.0000527v-3.59334902c0-.21246335-.0081249-.41278593-.0245331-.60096774-.0165137-.18791789-.0612536-.35134311-.1348001-.49053959-.0735993-.13887977-.1820197-.24936071-.3248392-.33117889-.1430305-.08144868-.3371849-.12256891-.5823047-.12256891-.2451199 0-.4433367.04729618-.59454494.1409912-.15131376.09417009-.2697057.21689736-.35543961.36797067-.08578668.15144282-.14303055.32304986-.17157335.51529619-.02875383.19203519-.04294609.38628739-.04294609.58249267v3.53190612h-1.7405831v-3.55645158c0-.18802346-.00427351-.37409384-.01213465-.55794721-.00833598-.18406452-.0429461-.35366569-.10435796-.50912023-.06130634-.15519062-.16350117-.27997654-.30647895-.37414663-.14303055-.09369502-.35343476-.1409912-.6312654-.1409912-.08182973 0-.19009187.01842228-.32478645.05531964-.13485285.03679179-.26569599.10641643-.39226563.20845162-.12683343.10229912-.23499006.24946627-.32489196.44144868-.08995466.19224633-.13485285.44350733-.13485285.75415249v3.67923172l-1.74053034.0000527v-6.34059234z"/>
        <path d="m14.4319985 6.82284457c.1796456-.26989442.4085683-.48642228.6865045-.65011143.2777251-.16347801.5901658-.27992376.937586-.3494956.347262-.06941349.696687-.10430499 1.0480641-.10430499.3187719 0 .641448.02259238.9683448.06740763.3268441.04513196.6251981.1331261.8949038.26377126.2696529.13075073.4902397.31280938.6619186.54570088.1716261.23299706.2574127.54168915.2574127.92602346v3.29880352c0 .286522.0163554.5601114.049119.8217185.032447.2617654.0897436.4579706.1715206.5887214h-1.7650635c-.0327635-.0981818-.059407-.1982112-.0797193-.3005103-.0205762-.1020352-.0348739-.2062874-.0428933-.312651-.2778834.2862053-.6048858.4865278-.9805322.6010205-.3760158.114176-.7601037.1716071-1.1523693.1716071-.3024693 0-.5844152-.0368446-.8458904-.1103226-.2615808-.0736364-.4902925-.1880235-.6863989-.3436364-.1961592-.155085-.3493723-.3513431-.4596921-.5884047-.1103197-.2370616-.1655587-.5194135-.1655587-.8463167 0-.3596305.0632584-.65612903.1901446-.88891495.1265696-.23315543.2899125-.41906745.490398-.55821115.2001161-.13893255.4288806-.24318475.6863989-.31265102.25736-.06941349.5167776-.12446921.7783056-.16558945.261528-.04075073.5188881-.07353079.7722911-.09802346.2532976-.02459824.4781051-.06144281.6742115-.11048094.1961592-.04903812.3512717-.12045747.4658122-.21457478.1142239-.09401173.1673526-.23093841.1593331-.41093841 0-.18791789-.0306004-.33724927-.0919067-.44757185-.0612536-.11032258-.1430306-.19631085-.2451199-.25759531-.1021948-.06128445-.2206922-.10219355-.3554396-.12272727-.1349056-.02016422-.2800993-.03061584-.4351589-.03061584-.3432523 0-.6129052.07363637-.8090644.22080352-.1960537.14716716-.3106997.39256892-.3432522.73583578h-1.7405831c.0243748-.40866862.1263586-.7481349.3063734-1.0177654zm3.4382729 2.45892669c-.110267.036739-.2288172.06730205-.3553869.09190029-.1267279.02454546-.2594703.0450264-.3983857.06128446-.1390208.016522-.2779361.03684458-.4167459.06139003-.1308432.02433431-.2595232.05732551-.3860401.09802346-.1268334.04112024-.2371531.09617595-.331012.16564223-.0941226.06951906-.169674.15756598-.2268651.26361287-.0572439.1063109-.0857867.2412845-.0857867.4047625 0 .1551906.0285428.2862053.0857867.3922522.0571911.1064692.1349583.1902405.2329852.2515249.0980268.0612845.2123563.104305.343305.1286921.1305793.0245982.2654321.0368446.4044002.0368446.3431995 0 .6086844-.0571144.7968242-.1717126.187876-.1143343.3266858-.2513666.416746-.4109384.0897963-.1593608.1450354-.3205162.165506-.4842581.0202596-.163478.0306004-.29433432.0306004-.39241057v-.65011144c-.073652.06561291-.1655588.1166569-.2759313.15350147z" fill-rule="nonzero"/>
        <path d="m24.4710969 5.89064516v1.16509091h-1.2747182v3.13965393c0 .294176.0489606.4904868.147093.5885103.0979213.098129.294186.1471671.588372.1471671.0980796 0 .1919385-.0040117.2818931-.0122463.0898492-.0080234.1756886-.0204809.2573601-.036739v1.3490499c-.1470931.0245454-.3105942.0408035-.4902925.0491437-.179751.0078651-.3554396.0121407-.5270657.0121407-.269653 0-.5251136-.0184751-.7661183-.0553196-.2411629-.0366862-.4535719-.1080528-.6373855-.2144692-.183919-.1061525-.3290071-.2575953-.4351589-.4538006-.1063628-.1960469-.159386-.453695-.159386-.7727332v-3.74035773h-1.0541314v-1.16509091h1.0541314v-1.90092668h1.7406359v1.90092668z"/>
        <path d="m26.9593852 5.89064516v1.17739003h.0245331c.0815659-.19636364.1918329-.37810557.3309065-.54585924.1389681-.16743695.2981958-.31064516.4779996-.42920234.1796455-.11834604.371795-.21035191.5762901-.27596481.2040731-.06529619.4166932-.09812903.6373855-.09812903.1143823 0 .2408991.02058651.3799727.06139002v1.61894429c-.0818297-.01646921-.1799093-.03082698-.294186-.04296775-.1144878-.01229912-.2247548-.01847507-.331012-.01847507-.3187192 0-.5883721.05331378-.8089061.15946628-.2206395.10631085-.398333.25131378-.5332386.43532551-.1348001.18406452-.2310331.39853372-.2881714.6438827-.0571384.24519061-.085734.51107331-.085734.79717302v2.85746043h-1.7405831v-6.34043404z"/>
        <path d="m30.121885 4.90946041v-1.43487976h1.7407414v1.43487976zm1.7407414.98118475v6.34048684h-1.7407414v-6.34048684z" fill-rule="nonzero"/>
        <path d="m32.7696121 5.89064516h1.9857029l1.1155433 1.6556305 1.1032504-1.6556305h1.9244494l-2.0837826 2.96794135 2.3413009 3.37259829h-1.9858612l-1.3238899-1.999003-1.3239427 1.999003h-1.9488242l2.279889-3.33570093z"/>
        <path d="m65.2811695 17.477261v-16.96465689h-1.2203233v-.40697948h1.6887206v17.77866867h-1.6887206v-.4070323z"/>
        <text font-family="HelveticaNeue-Bold, Helvetica Neue" font-size="12.109091" font-weight="bold"><tspan x="40.181818" y="12.327273">.org</tspan></text>
    </g>
</svg>
