<svg width="164px" height="48px" viewBox="0 0 157 46" version="1.1" xmlns="http://www.w3.org/2000/svg">
    <desc>Get it on F-Droid.</desc>
    <defs>
        <radialGradient cx="0.55528181%" cy="0.456156968%" fx="0.55528181%"
                        fy="0.456156968%"
                        r="99.5501799%"
                        gradientTransform="translate(0.005553,0.004562),scale(0.985441,1.000000),rotate(90.000001),translate(-0.005553,-0.004562)"
                        id="radialGradient-1">
            <stop stop-color="#FFFFFF" stop-opacity="0.098039" offset="0%" />
            <stop stop-color="#FFFFFF" stop-opacity="0" offset="100%" />
        </radialGradient>
    </defs>
    <g id="Page-1" stroke="none" stroke-width="1" fill="none" fill-rule="evenodd">
        <g id="F-Droid-badge">
            <rect id="Rectangle-path" fill="#000000" fill-rule="nonzero" x="0" y="0"
                  width="157"
                  height="46" rx="5.6097561" />
            <g id="Group" transform="translate(49.623214, 5.890244)" fill="#FFFFFF"
               fill-rule="nonzero">
                <path
                    d="M5.68003571,6.29863415 L5.68003571,4.42449878 L4.13843589,4.42449878 L4.13843589,3.64866951 L6.61432589,3.64866951 L6.61432589,6.64455976 C6.24995506,6.90316951 5.84820327,7.09946423 5.40907054,7.2334439 C4.96995649,7.36430642 4.50125542,7.42973768 4.00296732,7.42973768 C2.91295744,7.42973768 2.0596344,7.1119263 1.44299821,6.47630354 C0.829483333,5.83757671 0.522725893,4.94958037 0.522725893,3.81231451 C0.522725893,2.67194459 0.829483333,1.78394825 1.44299821,1.14832549 C2.0596344,0.509598659 2.91295744,0.190235244 4.00296732,0.190235244 C4.45765054,0.190235244 4.88898,0.24631878 5.29695571,0.358485854 C5.70805274,0.470652927 6.08644143,0.635785447 6.43212179,0.853883415 L6.43212179,1.85873098 C6.08332012,1.56274154 5.71271601,1.33995943 5.32030946,1.19038463 C4.92790292,1.04082854 4.51525458,0.966050488 4.08236446,0.966050488 C3.22903208,0.966050488 2.58748149,1.20440902 2.15771268,1.6811261 C1.73104649,2.15784317 1.51771339,2.86824398 1.51771339,3.81232854 C1.51771339,4.75329033 1.73104649,5.46212976 2.15771268,5.93884683 C2.58748149,6.4155639 3.22903208,6.65392244 4.08236446,6.65392244 C4.41559696,6.65392244 4.71301851,6.6258802 4.97462911,6.56979573 C5.2362397,6.51059598 5.47136589,6.4202387 5.68000768,6.2987239 L5.68003571,6.29863415 Z"
                    id="Shape" />
                <polygon id="Shape"
                         points="8.34342857 0.316390244 12.7531661 0.316390244 12.7531661 1.1109 9.28683036 1.1109 9.28683036 3.17666463 12.6082214 3.17666463 12.6082214 3.97117439 9.28683036 3.97117439 9.28683036 6.49963171 12.8372732 6.49963171 12.8372732 7.29414146 8.34342857 7.29414146 8.34342857 0.316446341" />
                <polygon id="Shape"
                         points="13.4319107 0.316390244 19.3320268 0.316390244 19.3320268 1.1109 16.8561368 1.1109 16.8561368 7.29425366 15.9078287 7.29425366 15.9078287 1.1109 13.4319387 1.1109 13.4319387 0.316390244" />
                <polygon id="Shape"
                         points="23.2920714 0.316390244 24.2356975 0.316390244 24.2356975 7.29408537 23.2920714 7.29408537" />
                <polygon id="Shape"
                         points="25.1480357 0.316390244 31.0481518 0.316390244 31.0481518 1.1109 28.5722618 1.1109 28.5722618 7.29425366 27.6239537 7.29425366 27.6239537 1.1109 25.1480637 1.1109 25.1480637 0.316390244" />
                <path
                    d="M37.8398036,0.956463415 C37.1546481,0.956463415 36.6096432,1.21195976 36.2047887,1.72295244 C35.803037,2.23394512 35.6021611,2.93032154 35.6021611,3.81208171 C35.6021611,4.69071911 35.803037,5.38553415 36.2047887,5.89652683 C36.6096432,6.40751951 37.1546481,6.66301585 37.8398036,6.66301585 C38.524959,6.66301585 39.066852,6.40751951 39.4654825,5.89652683 C39.8672343,5.38553415 40.0681102,4.69071911 40.0681102,3.81208171 C40.0681102,2.93032154 39.8672343,2.23394512 39.4654825,1.72295244 C39.0673754,1.21209065 38.5253515,0.956659756 37.8394111,0.956659756 L37.8398036,0.956463415 Z M37.8398036,0.18997439 C38.817708,0.18997439 39.5993998,0.518687398 40.1848789,1.17611341 C40.7703768,1.83043537 41.0631257,2.70908211 41.0631257,3.81205366 C41.0631257,4.91192114 40.7703768,5.79056789 40.1848789,6.4479939 C39.5993811,7.10231585 38.8176893,7.42947683 37.8398036,7.42947683 C36.8587965,7.42947683 36.0739835,7.10231585 35.4853643,6.4479939 C34.8998664,5.79369065 34.6071175,4.9150439 34.6071175,3.81205366 C34.6071175,2.70906341 34.8998664,1.83041667 35.4853643,1.17611341 C36.0739648,0.518687398 36.8587779,0.18997439 37.8398036,0.18997439 Z"
                    id="Shape" />
                <polygon id="Shape"
                         points="42.5385893 0.316390244 43.8092239 0.316390244 46.9018436 6.15390244 46.9018436 0.316390244 47.817462 0.316390244 47.817462 7.29408537 46.5468273 7.29408537 43.4542077 1.45657317 43.4542077 7.29408537 42.5385893 7.29408537" />
                <path
                    d="M14.4888571,14.6357134 L14.4888571,19.7020244 L13.8851641,19.7020244 C13.7044646,18.9049341 13.5319795,18.3009504 13.3677089,17.8900732 C13.2034365,17.4791959 12.981674,17.1176285 12.7024214,16.8053707 C11.9303365,15.9260976 10.3984651,15.486461 8.10680714,15.486461 C7.46615369,15.486461 7.03493637,15.5686346 6.81315518,15.7329817 C6.5995978,15.8891143 6.49281911,16.201372 6.49281911,16.6697549 L6.49281911,22.5369988 C7.74949196,22.5369988 8.64887768,22.269937 9.19097625,21.7358134 C9.73307482,21.2016898 10.1191173,20.2114744 10.3491036,18.7651671 L10.97744,18.7651671 L10.97744,27.3071427 L10.3491036,27.3071427 C10.1684059,25.8444362 9.80290431,24.8336516 9.25259875,24.274789 C8.70229506,23.7077923 7.78236851,23.4119618 6.49281911,23.3872976 L6.49281911,29.2668829 C6.49281911,29.9653724 6.66530417,30.4296545 7.01027429,30.6597293 C7.3552444,30.8815951 8.10678845,31.0171829 9.26490643,31.0664927 L9.26490643,31.695122 L0.184699286,31.695122 L0.184699286,31.0664927 C1.12105476,30.9678844 1.72475714,30.8076417 1.99580643,30.5857646 C2.26685571,30.3638988 2.40238036,29.9242622 2.40238036,29.2668549 L2.40238036,17.051611 C2.40238036,16.4024313 2.25042679,15.9545858 1.94651964,15.7080744 C1.6426125,15.4615443 1.05533905,15.3136337 0.184699286,15.2643427 L0.184699286,14.6357134 L14.4888571,14.6357134 Z"
                    id="Shape" />
                <polygon id="Shape"
                         points="21.6099286 24.4473171 21.6099286 27.380939 15.4743125 27.380939 15.4743125 24.4473171" />
                <path
                    d="M25.1956964,29.4035366 L25.1956964,16.9540854 C25.1956964,16.378861 25.0478548,15.9720976 24.7521714,15.7337951 C24.4564881,15.4954927 23.9061751,15.3393638 23.1012323,15.2654085 L23.1012323,14.6367793 L30.7891859,14.6367793 C33.7050871,14.6367793 35.9926145,15.3804553 37.651768,16.8678073 C39.3191267,18.3469504 40.1528061,20.3848813 40.1528061,22.9816 C40.1528061,25.5948114 39.3191267,27.7025837 37.651768,29.3049171 C35.9844093,30.8990976 33.7913623,31.6961878 31.072627,31.6961878 L23.1012323,31.6961878 L23.1012323,31.0675585 C23.8322355,31.0429074 24.3620171,30.8991013 24.690577,30.6361402 C25.027342,30.3731923 25.1957245,29.9623244 25.1957245,29.4035366 L25.1956964,29.4035366 Z M29.2737714,16.374878 L29.2737714,29.3541707 C29.2737714,29.9211675 29.3764382,30.3073898 29.5817718,30.5128378 C29.7871054,30.7100581 30.1731478,30.8086683 30.7398991,30.8086683 C32.3497659,30.8086683 33.585954,30.2293394 34.4484634,29.0706817 C34.8591492,28.503685 35.179476,27.7107085 35.4094436,26.6917524 C35.647635,25.6727963 35.7667307,24.5634671 35.7667307,23.3637646 C35.7667307,21.194285 35.4217606,19.4275858 34.7318204,18.0636671 C33.8776095,16.3462215 32.5552583,15.4874988 30.7647668,15.4874988 C29.7709194,15.4874988 29.2739957,15.7833293 29.2739957,16.3749902 L29.2737714,16.374878 Z"
                    id="Shape" />
                <path
                    d="M46.4748036,20.0576829 L46.4748036,22.1284683 C47.0661889,21.2820683 47.6247164,20.6739801 48.1503861,20.3042037 C48.6842608,19.9344272 49.2633198,19.749539 49.887563,19.749539 C50.4789484,19.749539 50.9676576,19.9385411 51.3536907,20.3165451 C51.7397238,20.6863215 51.9327404,21.1547175 51.9327404,21.7217329 C51.9327404,22.2147744 51.7848987,22.6215378 51.4892154,22.9420232 C51.193532,23.2542809 50.8116015,23.4104098 50.3434237,23.4104098 C50.0148826,23.4104098 49.7397307,23.3446709 49.5179682,23.2131932 C49.2962057,23.0817136 49.0662287,22.8475156 48.8280373,22.5105993 C48.556988,22.1161586 48.3228992,21.9189383 48.1257707,21.9189383 C47.7068798,21.9189383 47.3454807,22.1572407 47.0415736,22.6338456 C46.7376664,23.1022415 46.5857129,23.6651338 46.5857129,24.3225224 L46.5857129,29.0927785 C46.5857129,29.8734322 46.6965941,30.3911285 46.9183566,30.6458676 C47.1483429,30.8923976 47.6493692,31.0403082 48.4214354,31.0895993 L48.4214354,31.6935737 L41.706879,31.6935737 L41.7068818,31.0895993 C42.2654093,30.990991 42.6309109,30.8430804 42.8033866,30.6458676 C42.9840843,30.4486472 43.0744331,30.0911936 43.0744331,29.5735066 L43.0744331,22.1532017 C43.0744331,21.6437237 42.9799808,21.28627 42.7910761,21.0808407 C42.6103766,20.8754115 42.2489776,20.7357192 41.706879,20.6617639 L41.706879,20.0577895 L46.4749129,20.0577895 L46.4748036,20.0576829 Z"
                    id="Shape" />
                <path
                    d="M58.2021429,19.7519512 C59.8284386,19.7519512 61.1795731,20.3394984 62.2555464,21.5145927 C63.3397436,22.6814593 63.8818421,24.1482236 63.8818421,25.9148854 C63.8818421,27.673413 63.3397436,29.1361569 62.2555464,30.3031171 C61.1795731,31.4699837 59.8284386,32.0534171 58.2021429,32.0534171 C56.5512131,32.0534171 55.1877429,31.4699837 54.1117321,30.3031171 C53.0357588,29.1362504 52.4977721,27.6489171 52.4977721,25.8411171 C52.4977721,24.1236715 53.0480852,22.6814967 54.1487113,21.5145927 C55.2493373,20.3394984 56.6004718,19.7519512 58.2021148,19.7519512 L58.2021429,19.7519512 Z M58.2267862,20.5408232 C57.6929115,20.5408232 57.282235,20.7174931 56.9947568,21.0708329 C56.7155024,21.4159638 56.5142714,21.9952927 56.3910637,22.8088195 C56.2678599,23.6223463 56.2062579,24.7851553 56.2062579,26.2972463 C56.2062579,28.1461659 56.349997,29.4363163 56.6374752,30.1676976 C56.9331586,30.8990415 57.4547257,31.2647134 58.2021765,31.2647134 C58.9331797,31.2647134 59.4424204,30.8826049 59.7298986,30.1183878 C60.025582,29.3541707 60.1734236,28.0024065 60.1734236,26.0630951 C60.1734236,23.9923472 60.0296845,22.5542862 59.7422063,21.7489122 C59.4629519,20.943613 58.9578138,20.5409634 58.2267919,20.5409634 L58.2267862,20.5408232 Z"
                    id="Shape" />
                <path
                    d="M69.7332321,20.0576829 L69.7332321,29.6472805 C69.7332321,30.1238854 69.8194747,30.4690163 69.9919597,30.6826732 C70.1644448,30.8881024 70.4724545,31.0236902 70.9159888,31.0894366 L70.9159888,31.693411 L64.891383,31.693411 L64.8913942,31.0894366 C65.4663506,30.9497406 65.8318522,30.7936117 65.987899,30.62105 C66.1439589,30.4402663 66.2219888,30.0910215 66.2219888,29.5733159 L66.2219888,22.153011 C66.2219888,21.6353053 66.1398526,21.2860606 65.9755801,21.1052768 C65.8113077,20.9244931 65.4499086,20.7765825 64.891383,20.6615451 L64.891383,20.0575707 L69.7334312,20.0575707 L69.7332321,20.0576829 Z M66.5792143,14.8313537 C66.9652474,14.4451407 67.4293132,14.2520341 67.9714118,14.2520341 C68.5135104,14.2520341 68.9693617,14.4451407 69.3389659,14.8313537 C69.7167939,15.2175667 69.9057079,15.6818488 69.9057079,16.2242 C69.9057079,16.7747602 69.7167939,17.2349378 69.3389659,17.6047329 C68.9693617,17.9745093 68.5052959,18.1593976 67.9467684,18.1593976 C67.3882409,18.1593976 66.9241751,17.9745093 66.5545709,17.6047329 C66.1849667,17.2349565 66.0001646,16.7665606 66.0001646,16.1995451 C66.0001646,15.6654215 66.1931812,15.2093577 66.5792143,14.8313537 Z"
                    id="Shape" />
                <path
                    d="M80.0335536,32.0289024 L80.0335536,30.3895354 C79.4421682,31.0140508 78.9041815,31.4495736 78.4195936,31.6961037 C77.9349869,31.9344061 77.3559279,32.0535573 76.6824166,32.0535573 C75.360028,32.0535573 74.2676632,31.4947695 73.405322,30.3771939 C72.542906,29.2514093 72.111698,27.8298037 72.111698,26.1123768 C72.111698,24.2881028 72.5716613,22.7719728 73.4915879,21.5639866 C74.4115144,20.3560191 75.5655579,19.7520354 76.9537182,19.7520354 C77.5286746,19.7520354 78.0379154,19.8670821 78.4814404,20.0971756 C78.9249654,20.3272691 79.4177771,20.7340325 79.9598757,21.3174659 L79.9598757,16.6953073 C79.9598757,16.1200829 79.8489945,15.7502972 79.627232,15.58595 C79.4136746,15.421601 78.883893,15.3065542 78.0378873,15.2408098 L78.0378873,14.6368354 L83.4712087,14.6368354 L83.4712087,29.1447866 C83.4712087,29.6789102 83.5738755,30.0486959 83.7792091,30.2541439 C83.9927665,30.4595732 84.3870234,30.5787244 84.9619798,30.6115976 L84.9619798,31.1909171 L83.3972786,31.3881337 C82.1734636,31.5196133 81.0523154,31.7332702 80.0338339,32.0291044 L80.0335536,32.0289024 Z M79.9596318,28.8734146 L79.9596318,22.734939 C79.7789323,22.2583341 79.507883,21.8803301 79.1464839,21.6009268 C78.7933087,21.3133146 78.4072663,21.1695085 77.9883566,21.1695085 C77.2573534,21.1695085 76.7152548,21.5557309 76.3620609,22.3281756 C76.0170908,23.0923927 75.8446057,24.2880187 75.8446057,25.9150537 C75.8446057,27.5174431 76.0047738,28.7048415 76.3251098,29.4772488 C76.6454459,30.2496935 77.1423696,30.6359159 77.8158809,30.6359159 C78.3744084,30.6359159 78.90419,30.3483037 79.4052256,29.7730793 C79.553071,29.6087302 79.6803811,29.4361648 79.7871561,29.2553829 C79.9021474,29.0746011 79.959643,28.9472315 79.959643,28.8732744 L79.9596318,28.8734146 Z"
                    id="Shape" />
            </g>
            <path d="M40.46675,6.67476829 L37.3323571,10.7342683" id="Shape"
                  stroke="#769616"
                  stroke-width="1.84532927" fill="#8AB000" fill-rule="nonzero"
                  stroke-linecap="round" />
            <path
                d="M40.4527321,5.75 C40.7872823,5.75886341 41.014708,5.88950341 41.1763059,6.08111585 C39.6808809,7.85918415 39.428952,8.14166341 37.3875595,10.6732622 C36.6353612,11.6468354 35.8517911,11.1436683 36.6039893,10.1700951 L39.7395036,6.11031463 C39.9084496,5.88474354 40.1711695,5.75748902 40.4527882,5.7498878 L40.4527321,5.75 Z"
                id="Shape" fill-opacity="0.29804" fill="#FFFFFF"
                fill-rule="nonzero" />
            <path
                d="M41.1816607,6.09023171 C41.2730684,6.19940037 41.5956921,6.68413659 41.1982579,7.23888537 L38.0627436,11.2986659 C37.3105454,12.272239 37.2143829,10.8467159 37.2143829,10.8467159 C37.2143829,10.8467159 39.9695927,7.51788659 41.1817168,6.09020366 L41.1816607,6.09023171 Z"
                id="Shape" fill-opacity="0.2" fill="#263238" fill-rule="nonzero" />
            <path
                d="M40.6545893,5.92334146 C40.9778691,5.92334146 41.3627714,6.02785963 41.2626839,6.51281463 C41.1862782,6.88305854 37.8241036,10.9964122 37.8241036,10.9964122 C37.0719054,11.9699854 35.9844561,11.4955963 36.7366543,10.5221634 L39.8606739,6.48257805 C40.0526737,6.26852098 40.3096379,5.93371951 40.6546454,5.92322927 L40.6545893,5.92334146 Z"
                id="Shape" fill="#8AB000" fill-rule="nonzero" />
            <path d="M8.87470536,6.67476829 L12.0105,10.7342683" id="Shape"
                  stroke="#769616"
                  stroke-width="1.84532927" fill="#8AB000" fill-rule="nonzero"
                  stroke-linecap="round" />
            <path
                d="M8.89124643,5.75 C8.55669625,5.75886341 8.32927054,5.88950341 8.16767268,6.08111585 C9.66309768,7.85918415 9.91502661,8.14166341 11.9564191,10.6732622 C12.7086173,11.6468354 13.4921875,11.1436683 12.7399893,10.1700951 L9.604475,6.11087561 C9.43552898,5.88530451 9.17280911,5.75805 8.89119036,5.75044878 L8.89124643,5.75 Z"
                id="Shape" fill-opacity="0.29804" fill="#FFFFFF"
                fill-rule="nonzero" />
            <path
                d="M8.16147679,6.09023171 C8.07006914,6.19940037 7.74744536,6.68413659 8.14487964,7.23888537 L11.2803939,11.2986659 C12.0325921,12.272239 12.1287546,10.8467159 12.1287546,10.8467159 C12.1287546,10.8467159 9.37354482,7.51788659 8.16142071,6.09020366 L8.16147679,6.09023171 Z"
                id="Shape" fill-opacity="0.2" fill="#263238" fill-rule="nonzero" />
            <path
                d="M8.68966964,5.92334146 C8.36638982,5.92334146 7.9814875,6.02785963 8.081575,6.51281463 C8.15798073,6.88305854 11.5201554,10.9964122 11.5201554,10.9964122 C12.2723536,11.9699854 13.3598029,11.4955963 12.6076046,10.5221634 L9.483585,6.48257805 C9.29154036,6.26856585 9.03445286,5.93366341 8.68961357,5.92328537 L8.68966964,5.92334146 Z"
                id="Shape" fill="#8AB000" fill-rule="nonzero" />
            <rect id="Rectangle-path" fill="#AEEA00" fill-rule="nonzero" x="10.6535714"
                  y="9.25609756" width="28.0357143" height="9.53658537"
                  rx="2.21439512" />
            <rect id="Rectangle-path" fill-opacity="0.2" fill="#263238"
                  fill-rule="nonzero"
                  x="10.6535714" y="11.4113659" width="28.0357143" height="7.38131707"
                  rx="2.21439512" />
            <rect id="Rectangle-path" fill-opacity="0.29804" fill="#FFFFFF"
                  fill-rule="nonzero"
                  x="10.6535714" y="9.25806098" width="28.0357143" height="7.38131707"
                  rx="2.21439512" />
            <rect id="Rectangle-path" fill="#AEEA00" fill-rule="nonzero" x="10.6535714"
                  y="10.098122" width="28.0357143" height="7.85421951"
                  rx="2.21439512" />
            <rect id="Rectangle-path" fill="#1976D2" fill-rule="nonzero" x="10.6535714"
                  y="19.6341463" width="28.0357143" height="19.0731707"
                  rx="2.21439512" />
            <rect id="Rectangle-path" fill-opacity="0.2" fill="#263238"
                  fill-rule="nonzero"
                  x="10.6535714" y="29.1118293" width="28.0357143" height="9.5954878"
                  rx="2.21439512" />
            <rect id="Rectangle-path" fill-opacity="0.2" fill="#FFFFFF"
                  fill-rule="nonzero"
                  x="10.6535714" y="19.5752439" width="28.0357143" height="9.5954878"
                  rx="2.21439512" />
            <rect id="Rectangle-path" fill="#1976D2" fill-rule="nonzero" x="10.6535714"
                  y="20.4756098" width="28.0357143" height="17.3902439"
                  rx="2.21439512" />
            <path
                d="M24.6714286,24.5735366 C22.5461252,24.5735366 20.7467089,26.0384683 20.2201982,28.0061463 L22.5906179,28.0061463 C22.9995748,27.2788415 23.767473,26.7879598 24.6714005,26.7879598 C26.0087882,26.7879598 27.0692111,27.8488768 27.0692111,29.1868598 C27.0692111,30.5248427 26.0087882,31.5857598 24.6714005,31.5857598 C23.7068318,31.5857598 22.8924223,31.0301695 22.5099311,30.2205134 L20.1827425,30.2205134 C20.6565741,32.2619878 22.49339,33.8000988 24.6715407,33.8000988 C27.2051002,33.8000988 29.2825746,31.7215439 29.2825746,29.1869159 C29.2825746,26.6521756 27.204988,24.5737329 24.6715407,24.5737329 L24.6714286,24.5735366 Z"
                id="Shape" fill="#0D47A1" fill-rule="nonzero" />
            <ellipse id="Oval" stroke="#0D47A1" stroke-width="1.40243902"
                     stroke-linecap="round"
                     cx="24.6714286" cy="29.187561" rx="7.04593571"
                     ry="7.04921951" />
            <ellipse id="Oval" fill-opacity="0.2" fill="#263238" fill-rule="nonzero"
                     cx="17.5699821" cy="14.1480854" rx="2.49002"
                     ry="2.86013415" />
            <ellipse id="Oval" fill="#FFFFFF" fill-rule="nonzero" cx="17.5699821"
                     cy="14.5172073" rx="2.49002" ry="2.49118049" />
            <ellipse id="Oval" fill-opacity="0.2" fill="#263238" fill-rule="nonzero"
                     cx="31.9579107" cy="14.1480854" rx="2.49002"
                     ry="2.86013415" />
            <ellipse id="Oval" fill="#FFFFFF" fill-rule="nonzero" cx="31.9579107"
                     cy="14.5172073" rx="2.49002" ry="2.49118049" />
            <path
                d="M8.89152679,5.74242683 C8.53321466,5.73295225 8.20186636,5.93202601 8.04184972,6.25291205 C7.88183308,6.57379808 7.92213189,6.95837436 8.14518804,7.23908171 L10.8014598,10.6784232 C10.7075486,10.9245568 10.6536163,11.19065 10.6536163,11.4705768 L10.6536163,16.5785402 C10.6536163,17.8053098 11.6406977,18.7928512 12.8668957,18.7928512 L36.4760511,18.7928512 C37.7022491,18.7928512 38.6893306,17.8052817 38.6893306,16.5785402 L38.6893306,11.4705768 C38.6893306,11.1904873 38.6360487,10.9241305 38.5420337,10.6778622 L41.1977728,7.23908171 C41.4136365,6.96742572 41.4588967,6.59756916 41.3149131,6.28183678 C41.1709296,5.96610439 40.8620538,5.75789519 40.5154957,5.74295976 C40.2117646,5.72988939 39.9211038,5.86740249 39.7384859,6.11056707 L37.2114307,9.3827378 C36.9843414,9.30055488 36.7376271,9.25483537 36.4796986,9.25483537 L12.8705432,9.25483537 C12.6122305,9.25483537 12.3657882,9.30072317 12.1356991,9.38138305 L9.60687766,6.10921232 C9.43781797,5.88409848 9.17527379,5.74853032 8.89392945,5.74107207 L8.89152679,5.74242683 Z M12.8669911,19.6341463 C11.640793,19.6341463 10.6537116,20.6216878 10.6537116,21.8484573 L10.6537116,36.4930061 C10.6537116,37.7197756 11.640793,38.7073171 12.8669911,38.7073171 L36.4761464,38.7073171 C37.7023445,38.7073171 38.6894259,37.7197756 38.6894259,36.4930061 L38.6894259,21.8484573 C38.6922295,20.6232866 37.7053723,19.635689 36.4802116,19.635689 L12.8710562,19.635689 L12.8669911,19.6341463 Z"
                id="Shape" fill="url(#radialGradient-1)" fill-rule="nonzero" />
        </g>
    </g>
</svg>
