<svg width="24" height="24" viewBox="0 0 24 24" fill="none" xmlns="http://www.w3.org/2000/svg">
<path d="M8.31422 2.4647C8.07372 2.6004 7.98877 2.90537 8.12448 3.14587C8.26018 3.38637 8.56515 3.47132 8.80565 3.33562L8.31422 2.4647ZM18.9999 9.00016L18.4999 8.9999V9.00016H18.9999ZM18.4999 13.0002C18.4999 13.2763 18.7238 13.5002 18.9999 13.5002C19.2761 13.5002 19.4999 13.2763 19.4999 13.0002H18.4999ZM17 17.5004C17.2761 17.5004 17.5 17.2765 17.5 17.0004C17.5 16.7242 17.2761 16.5004 17 16.5004V17.5004ZM2 16.5004C1.72386 16.5004 1.5 16.7242 1.5 17.0004C1.5 17.2765 1.72386 17.5004 2 17.5004V16.5004ZM5 9.00036H5.5L5.5 8.99973L5 9.00036ZM6.22429 6.00974C6.35096 5.76436 6.25474 5.46276 6.00937 5.33608C5.764 5.2094 5.46239 5.30562 5.33571 5.551L6.22429 6.00974ZM14.1625 21.2509C14.301 21.012 14.2197 20.7061 13.9808 20.5675C13.742 20.4289 13.436 20.5103 13.2975 20.7491L14.1625 21.2509ZM10.7025 20.7491C10.5639 20.5103 10.2579 20.4289 10.0191 20.5675C9.78021 20.7061 9.6989 21.012 9.83746 21.2509L10.7025 20.7491ZM8.80565 3.33562C10.8187 2.19975 13.2834 2.21831 15.2791 3.38436L15.7836 2.52094C13.4809 1.17549 10.6369 1.15408 8.31422 2.4647L8.80565 3.33562ZM15.2791 3.38436C17.2748 4.55042 18.5011 6.68854 18.4999 8.9999L19.4999 9.00041C19.5013 6.33346 18.0863 3.86639 15.7836 2.52094L15.2791 3.38436ZM18.4999 9.00016V13.0002H19.4999V9.00016H18.4999ZM17 16.5004H2V17.5004H17V16.5004ZM2 17.5004C3.933 17.5004 5.5 15.9334 5.5 14.0004H4.5C4.5 15.3811 3.38071 16.5004 2 16.5004V17.5004ZM5.5 14.0004V9.00036H4.5V14.0004H5.5ZM5.5 8.99973C5.49869 7.95947 5.74707 6.93408 6.22429 6.00974L5.33571 5.551C4.78509 6.61755 4.49849 7.80069 4.5 9.00099L5.5 8.99973ZM13.2975 20.7491C13.0291 21.2117 12.5348 21.4965 12 21.4965V22.4965C12.8913 22.4965 13.7152 22.0219 14.1625 21.2509L13.2975 20.7491ZM12 21.4965C11.4652 21.4965 10.9708 21.2117 10.7025 20.7491L9.83746 21.2509C10.2847 22.0219 11.1086 22.4965 12 22.4965V21.4965Z" fill="#2E2F32"/>
<path d="M1 1L23 23" stroke="#2E2F32" stroke-linecap="round" stroke-linejoin="round"/>
</svg>
