<svg width="24" height="24" viewBox="0 0 24 24" fill="none" xmlns="http://www.w3.org/2000/svg">
<path d="M22 17.5C22.2761 17.5 22.5 17.2761 22.5 17C22.5 16.7239 22.2761 16.5 22 16.5V17.5ZM2 16.5C1.72386 16.5 1.5 16.7239 1.5 17C1.5 17.2761 1.72386 17.5 2 17.5V16.5ZM5 9H4.5H5ZM19 9H19.5H19ZM14.1625 21.2509C14.3011 21.012 14.2197 20.7061 13.9809 20.5675C13.742 20.4289 13.4361 20.5103 13.2975 20.7491L14.1625 21.2509ZM10.7025 20.7491C10.5639 20.5103 10.258 20.4289 10.0191 20.5675C9.78025 20.7061 9.69894 21.012 9.8375 21.2509L10.7025 20.7491ZM22 16.5H2V17.5H22V16.5ZM2 17.5C3.933 17.5 5.5 15.933 5.5 14H4.5C4.5 15.3807 3.38071 16.5 2 16.5V17.5ZM5.5 14V9H4.5V14H5.5ZM5.5 9C5.5 5.41015 8.41015 2.5 12 2.5V1.5C7.85786 1.5 4.5 4.85786 4.5 9H5.5ZM12 2.5C15.5899 2.5 18.5 5.41015 18.5 9H19.5C19.5 4.85786 16.1421 1.5 12 1.5V2.5ZM18.5 9V14H19.5V9H18.5ZM18.5 14C18.5 15.933 20.067 17.5 22 17.5V16.5C20.6193 16.5 19.5 15.3807 19.5 14H18.5ZM13.2975 20.7491C13.0292 21.2117 12.5348 21.4965 12 21.4965V22.4965C12.8913 22.4965 13.7153 22.0219 14.1625 21.2509L13.2975 20.7491ZM12 21.4965C11.4652 21.4965 10.9708 21.2117 10.7025 20.7491L9.8375 21.2509C10.2847 22.0219 11.1087 22.4965 12 22.4965V21.4965Z" fill="#2E2F32"/>
</svg>
