<svg width="16" height="16" viewBox="0 0 16 16" fill="none" xmlns="http://www.w3.org/2000/svg">
<path fill-rule="evenodd" clip-rule="evenodd" d="M6.62998 3.57476C7.55241 1.6636 9.6476 0.644608 11.692 1.13263C13.7342 1.62012 15.1666 3.47754 15.1667 5.60305V5.60308V6.01222C15.1667 6.95553 14.4163 7.73965 13.4668 7.73965C12.9349 7.73965 12.4655 7.49363 12.1555 7.11141C11.7768 7.49925 11.2519 7.74098 10.6668 7.74098C9.49647 7.74098 8.56689 6.77368 8.56689 5.60441C8.56689 4.43514 9.49647 3.46784 10.6668 3.46784C11.8348 3.46784 12.7629 4.43111 12.7668 5.59709L12.7668 5.60308V6.01222C12.7668 6.4247 13.0908 6.73965 13.4668 6.73965C13.8428 6.73965 14.1667 6.4247 14.1667 6.01222V5.60311V5.60308C14.1666 3.92595 13.0379 2.48201 11.4598 2.1053C9.8839 1.72911 8.25387 2.51086 7.53057 4.00944C6.80579 5.5111 7.19017 7.3233 8.44894 8.38151C9.70415 9.43672 11.5011 9.46808 12.7905 8.45807C13.0079 8.28778 13.3221 8.32596 13.4924 8.54335C13.6627 8.76074 13.6245 9.07501 13.4071 9.24529C11.745 10.5473 9.42229 10.5062 7.80545 9.14696C6.19216 7.79072 5.70903 5.48285 6.62998 3.57476ZM10.6668 4.46784C10.07 4.46784 9.56689 4.96597 9.56689 5.60441C9.56689 6.24285 10.07 6.74098 10.6668 6.74098C11.2637 6.74098 11.7668 6.24285 11.7668 5.60441C11.7668 4.96597 11.2637 4.46784 10.6668 4.46784ZM5.48951 2.14C5.61741 2.38474 5.5227 2.68682 5.27796 2.81472C3.92878 3.51981 3 4.95881 3 6.62506V10.0347C3 10.6137 2.8091 11.1505 2.48631 11.5805H13.8333C14.1095 11.5805 14.3333 11.8043 14.3333 12.0805C14.3333 12.3566 14.1095 12.5805 13.8333 12.5805H0.5C0.223858 12.5805 0 12.3566 0 12.0805C0 11.8043 0.223858 11.5805 0.5 11.5805C1.31782 11.5805 2 10.8991 2 10.0347V6.62506C2 4.58053 3.14094 2.80322 4.81479 1.92845C5.05953 1.80055 5.36161 1.89527 5.48951 2.14ZM5.76678 14.3741C6.00698 14.2379 6.31214 14.3222 6.44836 14.5624C6.59999 14.8298 6.8752 14.9886 7.16676 14.9886C7.45832 14.9886 7.73354 14.8298 7.88516 14.5624C8.02139 14.3222 8.32654 14.2379 8.56674 14.3741C8.80695 14.5104 8.89124 14.8155 8.75502 15.0557C8.42959 15.6296 7.82596 15.9886 7.16676 15.9886C6.50756 15.9886 5.90393 15.6296 5.5785 15.0557C5.44228 14.8155 5.52657 14.5104 5.76678 14.3741Z" fill="#2E2F32"/>
</svg>
