<svg width="24" height="24" viewBox="0 0 24 24" fill="none" xmlns="http://www.w3.org/2000/svg">
<path d="M12 16.5C12 18.9853 9.98528 21 7.5 21C6.21514 21 3 21 3 21C3 21 3 17.7004 3 16.5C3 14.0147 5.01472 12 7.5 12C9.98528 12 12 14.0147 12 16.5Z" stroke="#2E2F32" stroke-linejoin="round"/>
<path d="M8.25 12L17.1955 3.69345C18.0632 2.88776 19.4127 2.91274 20.25 3.75V3.75C21.0873 4.58726 21.1122 5.93682 20.3065 6.80449L12 15.75" stroke="#2E2F32"/>
<path d="M11.25 9C11.25 9 12.3929 9.45 13.5 10.5C14.6071 11.55 15 12.75 15 12.75" stroke="#2E2F32"/>
</svg>
