<svg width="24" height="24" viewBox="0 0 24 24" fill="none" xmlns="http://www.w3.org/2000/svg">
<path fill-rule="evenodd" clip-rule="evenodd" d="M12 2C9.23858 2 7 4.23858 7 7L17 7C17 4.23858 14.7614 2 12 2ZM2.29289 7.70711C1.90237 7.31658 1.90237 6.68342 2.29289 6.29289C2.68342 5.90237 3.31658 5.90237 3.70711 6.29289L6.41421 9H17.5858L20.2929 6.29289C20.6834 5.90237 21.3166 5.90237 21.7071 6.29289C22.0976 6.68342 22.0976 7.31658 21.7071 7.70711L19 10.4142V13H22C22.5523 13 23 13.4477 23 14C23 14.5523 22.5523 15 22 15H19C19 15.7795 18.8726 16.5292 18.6375 17.2295C18.6614 17.2493 18.6847 17.2705 18.7071 17.2929L21.7071 20.2929C22.0976 20.6834 22.0976 21.3166 21.7071 21.7071C21.3166 22.0976 20.6834 22.0976 20.2929 21.7071L17.6791 19.0933C16.5924 20.5983 14.9222 21.6542 13 21.9291L13 12C13 11.4477 12.5523 11 12 11C11.4477 11 11 11.4477 11 12V21.9291C9.07785 21.6542 7.40759 20.5983 6.32091 19.0933L3.70711 21.7071C3.31658 22.0976 2.68342 22.0976 2.29289 21.7071C1.90237 21.3166 1.90237 20.6834 2.29289 20.2929L5.29289 17.2929C5.31533 17.2705 5.33857 17.2493 5.36252 17.2295C5.1274 16.5292 5 15.7795 5 15H2C1.44772 15 1 14.5523 1 14C1 13.4477 1.44772 13 2 13H5V10.4142L2.29289 7.70711Z" fill="#FF5B55"/>
</svg>
