<svg width="24" height="24" viewBox="0 0 24 24" fill="none" xmlns="http://www.w3.org/2000/svg">
    <circle cx="12" cy="12" r="11.5" stroke="#2E2F32" stroke-linecap="round"/>
    <path d="M6.95508 14.75C8.02332 16.4046 9.88349 17.5 11.9995 17.5C14.1155 17.5 15.9757 16.4046 17.0439 14.75" stroke="#2E2F32" stroke-linecap="round"/>
    <path d="M8.8 9.5C8.8 9.88024 8.69689 10.2154 8.5407 10.4497C8.38357 10.6854 8.18847 10.8 8 10.8C7.81153 10.8 7.61643 10.6854 7.4593 10.4497C7.30311 10.2154 7.2 9.88024 7.2 9.5C7.2 9.11976 7.30311 8.78457 7.4593 8.55028C7.61643 8.31459 7.81153 8.2 8 8.2C8.18847 8.2 8.38357 8.31459 8.5407 8.55028C8.69689 8.78457 8.8 9.11976 8.8 9.5Z" fill="#2E2F32" stroke="#2E2F32" stroke-width="0.4"/>
    <path d="M16.8 9.5C16.8 9.88024 16.6969 10.2154 16.5407 10.4497C16.3836 10.6854 16.1885 10.8 16 10.8C15.8115 10.8 15.6164 10.6854 15.4593 10.4497C15.3031 10.2154 15.2 9.88024 15.2 9.5C15.2 9.11976 15.3031 8.78457 15.4593 8.55028C15.6164 8.31459 15.8115 8.2 16 8.2C16.1885 8.2 16.3836 8.31459 16.5407 8.55028C16.6969 8.78457 16.8 9.11976 16.8 9.5Z" fill="#2E2F32" stroke="#2E2F32" stroke-width="0.4"/>
</svg>
