<svg width="24" height="24" viewBox="0 0 24 24" fill="none" xmlns="http://www.w3.org/2000/svg">
<path d="M14.7273 16.8V15.6666C14.7273 14.4148 13.7504 13.4 12.5455 13.4H8.18182C6.97683 13.4 6 14.4148 6 15.6666V16.8" stroke="#27303A" stroke-linecap="round"/>
<path fill-rule="evenodd" clip-rule="evenodd" d="M10.3636 11.1333C11.5686 11.1333 12.5455 10.1185 12.5455 8.86664C12.5455 7.6148 11.5686 6.59998 10.3636 6.59998C9.15866 6.59998 8.18182 7.6148 8.18182 8.86664C8.18182 10.1185 9.15866 11.1333 10.3636 11.1333Z" stroke="#27303A" stroke-linecap="round"/>
<path d="M18 16.8V15.6666C17.9993 14.6337 17.3264 13.7319 16.3636 13.4736" stroke="#27303A" stroke-linecap="round"/>
<path d="M14.1818 6.67352C15.1472 6.93032 15.8225 7.83405 15.8225 8.86936C15.8225 9.90466 15.1472 10.8084 14.1818 11.0652" stroke="#27303A" stroke-linecap="round"/>
<circle cx="12" cy="12" r="11.5" stroke="#27303A" stroke-linecap="round"/>
</svg>
