<svg width="24" height="24" viewBox="0 0 24 24" fill="none" xmlns="http://www.w3.org/2000/svg">
<path d="M23.5 11.3334L23.5 11.3347C23.5043 13.0157 23.1116 14.6741 22.3537 16.1746L22.3527 16.1765C20.5186 19.8462 16.769 22.1651 12.6665 22.1667L12.6653 22.1667C10.9843 22.1711 9.32594 21.7783 7.82541 21.0204C7.70642 20.9603 7.56835 20.9502 7.44187 20.9923L1.73925 22.8932C1.34837 23.0235 0.976504 22.6516 1.1068 22.2607L3.00767 16.5581C3.04983 16.4317 3.03973 16.2936 2.97963 16.1746C2.22171 14.6741 1.82895 13.0157 1.83333 11.3347L1.83333 11.3335C1.83492 7.23102 4.15379 3.48136 7.82352 1.64729L7.82352 1.64729L7.82541 1.64634C9.32594 0.888416 10.9843 0.495653 12.6653 0.500038H12.6666H13.3194C18.8084 0.809695 23.1903 5.19159 23.5 10.6806L23.5 11.3334Z" stroke="#2E2F32" stroke-linecap="round" stroke-linejoin="round"/>
</svg>
