
<svg width="18px" height="18px" viewBox="0 0 18 18" version="1.1" xmlns="http://www.w3.org/2000/svg" xmlns:xlink="http://www.w3.org/1999/xlink">
    <g id="Page-1" stroke="none" stroke-width="1" fill="none" fill-rule="evenodd" stroke-linecap="round" stroke-linejoin="round">
        <g id="LifeBuoy" transform="translate(-1133.000000, -872.000000)" stroke="#B8BEC9" stroke-width="1">
            <g id="phone-copy" transform="translate(1134.000000, 873.000000)">
                <path d="M16.1904762,11.936 L16.1904762,14.336 C16.1923266,14.7865161 16.001896,15.2169267 15.6659678,15.5214919 C15.3300396,15.8260571 14.879747,15.9765505 14.4257143,15.936 C11.934675,15.6685126 9.54185647,14.8273156 7.43952381,13.48 C5.48357515,12.2517311 3.82527212,10.6129375 2.58238095,8.68 C1.21426795,6.59296319 0.362863382,4.21679565 0.0971428571,1.744 C0.0562402179,1.29669787 0.207458292,0.853001939 0.513858012,0.521296845 C0.820257732,0.18959175 1.25362391,0.000422952191 1.70809524,0 L4.13666667,0 C4.94931852,-0.00790412572 5.64197687,0.580773986 5.75571429,1.376 C5.85821863,2.14405316 6.04831623,2.89818151 6.32238095,3.624 C6.54478548,4.20870002 6.40253601,4.86784501 5.95809524,5.312 L4.93,6.328 C6.08240205,8.33083666 7.7604629,9.98915562 9.78714286,11.128 L10.8152381,10.112 C11.2646806,9.67278794 11.9316726,9.532212 12.5233333,9.752 C13.2577925,10.0228404 14.0208986,10.2107016 14.7980952,10.312 C15.6121222,10.4254883 16.2108681,11.1238341 16.1904762,11.936 Z" id="Path"></path>
            </g>
        </g>
    </g>
</svg>
