<svg width="24" height="24" viewBox="0 0 24 24" fill="none" xmlns="http://www.w3.org/2000/svg">
<mask id="mask0" mask-type="alpha" maskUnits="userSpaceOnUse" x="1" y="2" width="22" height="21">
<rect x="1" y="2" width="21.5" height="5" fill="white"/>
<rect x="1" y="17.7" width="21.5" height="5" fill="white"/>
</mask>
<g mask="url(#mask0)">
<path d="M3.16626 12.4014C3.16626 7.64675 6.99526 3.81775 11.75 3.81775C13.0964 3.81775 14.4429 4.15437 15.6631 4.74345H14.9899C14.5691 4.74345 14.2325 5.08006 14.2325 5.50083C14.2325 5.9216 14.5691 6.25822 14.9899 6.25822H17.3041C17.809 6.25822 18.1877 5.83745 18.1877 5.3746V3.06037C18.1877 2.6396 17.8511 2.30298 17.4303 2.30298C17.0096 2.30298 16.673 2.6396 16.673 3.06037V3.60737C16.6309 3.56529 16.5888 3.5653 16.5467 3.52322C15.074 2.72376 13.433 2.30298 11.75 2.30298C6.1958 2.30298 1.65149 6.84729 1.65149 12.4014C1.65149 14.0845 2.07226 15.7676 2.87172 17.2403C2.99795 17.4928 3.25041 17.619 3.54495 17.619C3.67118 17.619 3.79741 17.5769 3.92364 17.5348C4.30233 17.3245 4.42857 16.8616 4.21819 16.525C3.50288 15.2627 3.16626 13.8321 3.16626 12.4014Z" fill="#2E2F32"/>
<path d="M20.6281 7.56263C20.4177 7.18394 19.9548 7.05771 19.6182 7.2681C19.2395 7.47848 19.1133 7.94133 19.3237 8.27794C19.9969 9.54025 20.3756 10.9288 20.3756 12.4015C20.3756 17.1562 16.5045 20.9852 11.7919 20.9852C10.4454 20.9852 9.09897 20.6486 7.87874 20.0595H8.55198C8.97275 20.0595 9.30937 19.7229 9.30937 19.3021C9.30937 18.8813 8.97275 18.5447 8.55198 18.5447H6.23774C5.73282 18.5447 5.35413 18.9655 5.35413 19.4283V21.7426C5.35413 22.1633 5.69075 22.4999 6.11152 22.4999C6.53229 22.4999 6.8689 22.1633 6.8689 21.7426V21.1956C6.91098 21.2376 6.95306 21.2376 6.99514 21.2797C8.42575 22.0792 10.0667 22.4999 11.7498 22.4999C17.304 22.4999 21.8483 17.9556 21.8483 12.4015C21.8483 10.7184 21.4275 9.03532 20.6281 7.56263Z" fill="#2E2F32"/>
</g>
<path fill-rule="evenodd" clip-rule="evenodd" d="M1 11C1 9.89543 1.89543 9 3 9H21C22.1046 9 23 9.89543 23 11V14C23 15.1046 22.1046 16 21 16H3C1.89543 16 1 15.1046 1 14V11ZM6 12.5C6 13.3284 5.32843 14 4.5 14C3.67157 14 3 13.3284 3 12.5C3 11.6716 3.67157 11 4.5 11C5.32843 11 6 11.6716 6 12.5ZM9.5 14C10.3284 14 11 13.3284 11 12.5C11 11.6716 10.3284 11 9.5 11C8.67157 11 8 11.6716 8 12.5C8 13.3284 8.67157 14 9.5 14ZM16 12.5C16 13.3284 15.3284 14 14.5 14C13.6716 14 13 13.3284 13 12.5C13 11.6716 13.6716 11 14.5 11C15.3284 11 16 11.6716 16 12.5ZM19.5 14C20.3284 14 21 13.3284 21 12.5C21 11.6716 20.3284 11 19.5 11C18.6716 11 18 11.6716 18 12.5C18 13.3284 18.6716 14 19.5 14Z" fill="#2E2F32"/>
</svg>
