<svg width="24" height="24" viewBox="0 0 24 24" fill="none" xmlns="http://www.w3.org/2000/svg">
<mask id="mask0" mask-type="alpha" maskUnits="userSpaceOnUse" x="1" y="2" width="22" height="21">
<rect x="1" y="2" width="21.5" height="5" fill="white"/>
<rect x="1" y="17.7" width="21.5" height="5" fill="white"/>
</mask>
<g mask="url(#mask0)">
<path d="M3.16626 12.4014C3.16626 7.64675 6.99526 3.81775 11.75 3.81775C13.0964 3.81775 14.4429 4.15437 15.6631 4.74345H14.9899C14.5691 4.74345 14.2325 5.08006 14.2325 5.50083C14.2325 5.9216 14.5691 6.25822 14.9899 6.25822H17.3041C17.809 6.25822 18.1877 5.83745 18.1877 5.3746V3.06037C18.1877 2.6396 17.8511 2.30298 17.4303 2.30298C17.0096 2.30298 16.673 2.6396 16.673 3.06037V3.60737C16.6309 3.56529 16.5888 3.5653 16.5467 3.52322C15.074 2.72376 13.433 2.30298 11.75 2.30298C6.1958 2.30298 1.65149 6.84729 1.65149 12.4014C1.65149 14.0845 2.07226 15.7676 2.87172 17.2403C2.99795 17.4928 3.25041 17.619 3.54495 17.619C3.67118 17.619 3.79741 17.5769 3.92364 17.5348C4.30233 17.3245 4.42857 16.8616 4.21819 16.525C3.50288 15.2627 3.16626 13.8321 3.16626 12.4014Z" fill="#2E2F32"/>
<path d="M20.6281 7.56263C20.4177 7.18394 19.9548 7.05771 19.6182 7.2681C19.2395 7.47848 19.1133 7.94133 19.3237 8.27794C19.9969 9.54025 20.3756 10.9288 20.3756 12.4015C20.3756 17.1562 16.5045 20.9852 11.7919 20.9852C10.4454 20.9852 9.09897 20.6486 7.87874 20.0595H8.55198C8.97275 20.0595 9.30937 19.7229 9.30937 19.3021C9.30937 18.8813 8.97275 18.5447 8.55198 18.5447H6.23774C5.73282 18.5447 5.35413 18.9655 5.35413 19.4283V21.7426C5.35413 22.1633 5.69075 22.4999 6.11152 22.4999C6.53229 22.4999 6.8689 22.1633 6.8689 21.7426V21.1956C6.91098 21.2376 6.95306 21.2376 6.99514 21.2797C8.42575 22.0792 10.0667 22.4999 11.7498 22.4999C17.304 22.4999 21.8483 17.9556 21.8483 12.4015C21.8483 10.7184 21.4275 9.03532 20.6281 7.56263Z" fill="#2E2F32"/>
</g>
<path fill-rule="evenodd" clip-rule="evenodd" d="M3 9C1.89543 9 1 9.89543 1 11V14C1 15.1046 1.89543 16 3 16H21C22.1046 16 23 15.1046 23 14V11C23 9.89543 22.1046 9 21 9H3ZM5.25 10.5C4.83579 10.5 4.5 10.8358 4.5 11.25C4.5 11.6642 4.83579 12 5.25 12H7.75C8.16421 12 8.5 11.6642 8.5 11.25C8.5 10.8358 8.16421 10.5 7.75 10.5H5.25ZM9.5 11.25C9.5 10.8358 9.83579 10.5 10.25 10.5H10.75C11.1642 10.5 11.5 10.8358 11.5 11.25C11.5 11.6642 11.1642 12 10.75 12H10.25C9.83579 12 9.5 11.6642 9.5 11.25ZM13.25 10.5C12.8358 10.5 12.5 10.8358 12.5 11.25C12.5 11.6642 12.8358 12 13.25 12H15.75C16.1642 12 16.5 11.6642 16.5 11.25C16.5 10.8358 16.1642 10.5 15.75 10.5H13.25ZM17.5 11.25C17.5 10.8358 17.8358 10.5 18.25 10.5H18.75C19.1642 10.5 19.5 10.8358 19.5 11.25C19.5 11.6642 19.1642 12 18.75 12H18.25C17.8358 12 17.5 11.6642 17.5 11.25ZM5.25 13C4.83579 13 4.5 13.3358 4.5 13.75C4.5 14.1642 4.83579 14.5 5.25 14.5H5.75C6.16421 14.5 6.5 14.1642 6.5 13.75C6.5 13.3358 6.16421 13 5.75 13H5.25ZM7.5 13.75C7.5 13.3358 7.83579 13 8.25 13H10.75C11.1642 13 11.5 13.3358 11.5 13.75C11.5 14.1642 11.1642 14.5 10.75 14.5H8.25C7.83579 14.5 7.5 14.1642 7.5 13.75ZM13.25 13C12.8358 13 12.5 13.3358 12.5 13.75C12.5 14.1642 12.8358 14.5 13.25 14.5H13.75C14.1642 14.5 14.5 14.1642 14.5 13.75C14.5 13.3358 14.1642 13 13.75 13H13.25Z" fill="#2E2F32"/>
</svg>
