<svg width="24" height="24" viewBox="0 0 24 24" fill="none" xmlns="http://www.w3.org/2000/svg">
<path fill-rule="evenodd" clip-rule="evenodd" d="M8.09999 6.15C8.09999 3.99609 9.84608 2.25 12 2.25C14.1539 2.25 15.9 3.99609 15.9 6.15V11.9825C15.9 14.1365 14.1539 15.8825 12 15.8825C9.84608 15.8825 8.09999 14.1365 8.09999 11.9825V6.15ZM5.1748 10.7375C5.86516 10.7375 6.4248 11.2972 6.4248 11.9875C6.4248 15.0574 8.91483 17.5493 11.9915 17.5538C11.9943 17.5538 11.9972 17.5538 12 17.5538C12.0028 17.5538 12.0056 17.5538 12.0084 17.5538C15.085 17.5492 17.5748 15.0573 17.5748 11.9875C17.5748 11.2972 18.1344 10.7375 18.8248 10.7375C19.5152 10.7375 20.0748 11.2972 20.0748 11.9875C20.0748 16.0189 17.115 19.3576 13.25 19.9577V20.7513C13.25 21.4416 12.6904 22.0013 12 22.0013C11.3096 22.0013 10.75 21.4416 10.75 20.7513V19.9578C6.88482 19.3578 3.9248 16.0191 3.9248 11.9875C3.9248 11.2972 4.48445 10.7375 5.1748 10.7375Z" fill="currentColor"/>
</svg>
