<svg width="20" height="4" viewBox="0 0 20 4" fill="none" xmlns="http://www.w3.org/2000/svg">
<path fill-rule="evenodd" clip-rule="evenodd" d="M4.66699 2C4.66699 3.10457 3.77156 4 2.66699 4C1.56242 4 0.666992 3.10457 0.666992 2C0.666992 0.895431 1.56242 0 2.66699 0C3.77156 0 4.66699 0.895431 4.66699 2ZM12 2C12 3.10457 11.1046 4 10 4C8.89543 4 8 3.10457 8 2C8 0.895431 8.89543 0 10 0C11.1046 0 12 0.895431 12 2ZM17.333 4C18.4376 4 19.333 3.10457 19.333 2C19.333 0.895431 18.4376 0 17.333 0C16.2284 0 15.333 0.895431 15.333 2C15.333 3.10457 16.2284 4 17.333 4Z" fill="#737D8C"/>
</svg>
