<svg width="24" height="24" viewBox="0 0 24 24" fill="none" xmlns="http://www.w3.org/2000/svg">
<path fill-rule="evenodd" clip-rule="evenodd" d="M1 5.83341C1 4.82084 1.82084 4 2.83341 4H18.854C19.8665 4 20.6874 4.82084 20.6874 5.83341V7.39886C20.2664 7.14529 19.7766 7 19.254 7C17.6811 7 16.406 8.31596 16.406 9.93928C16.406 10.846 16.8038 11.6568 17.4291 12.196C15.358 13.05 14.51 15.3933 14.5063 17.7367C14.5056 18.2241 14.6298 18.6314 14.8394 18.9716H2.83341C1.82084 18.9716 1 18.1507 1 17.1382V5.83341Z" fill="#737D8C"/>
<path d="M19.2531 12.7868C16.5622 12.7868 15.51 15.1069 15.5063 17.4271C15.503 19.5501 18.5038 19.7472 19.2531 19.7472C20.0025 19.7472 22.9999 19.7472 22.9999 17.4271C22.9999 15.1069 21.8846 12.7868 19.2531 12.7868Z" fill="#737D8C"/>
<ellipse cx="19.2543" cy="9.93931" rx="1.99232" ry="2.05619" fill="#737D8C"/>
</svg>
