<?xml version="1.0" encoding="UTF-8" standalone="no"?>
<!--
Copyright (c) 2016, Missive
From https://github.com/missive/emoji-mart/blob/master/src/svgs/index.js
Licensed under BSD-3-Clause: https://github.com/missive/emoji-mart/blob/master/LICENSE
-->
<svg
    xmlns="http://www.w3.org/2000/svg"
    viewBox="0 0 24 24"
    width="24"
    height="24"
>
    <path d="M6.5 12C5.122 12 4 13.121 4 14.5S5.122 17 6.5 17 9 15.879 9 14.5 7.878 12 6.5 12m0 3c-.275 0-.5-.225-.5-.5s.225-.5.5-.5.5.225.5.5-.225.5-.5.5M17.5 12c-1.378 0-2.5 1.121-2.5 2.5s1.122 2.5 2.5 2.5 2.5-1.121 2.5-2.5-1.122-2.5-2.5-2.5m0 3c-.275 0-.5-.225-.5-.5s.225-.5.5-.5.5.225.5.5-.225.5-.5.5" />
    <path d="M22.482 9.494l-1.039-.346L21.4 9h.6c.552 0 1-.439 1-.992 0-.006-.003-.008-.003-.008H23c0-1-.889-2-1.984-2h-.642l-.731-1.717C19.262 3.012 18.091 2 16.764 2H7.236C5.909 2 4.738 3.012 4.357 4.283L3.626 6h-.642C1.889 6 1 7 1 8h.003S1 8.002 1 8.008C1 8.561 1.448 9 2 9h.6l-.043.148-1.039.346a2.001 2.001 0 0 0-1.359 2.097l.751 7.508a1 1 0 0 0 .994.901H3v1c0 1.103.896 2 2 2h2c1.104 0 2-.897 2-2v-1h6v1c0 1.103.896 2 2 2h2c1.104 0 2-.897 2-2v-1h1.096a.999.999 0 0 0 .994-.901l.751-7.508a2.001 2.001 0 0 0-1.359-2.097M6.273 4.857C6.402 4.43 6.788 4 7.236 4h9.527c.448 0 .834.43.963.857L19.313 9H4.688l1.585-4.143zM7 21H5v-1h2v1zm12 0h-2v-1h2v1zm2.189-3H2.811l-.662-6.607L3 11h18l.852.393L21.189 18z" />
</svg>
