<svg width="128" height="101" viewBox="0 0 128 101" fill="none" xmlns="http://www.w3.org/2000/svg">
<rect x="15" y="5" width="96" height="96" rx="48" fill="#0DBD8B"/>
<path fill-rule="evenodd" clip-rule="evenodd" d="M55.1775 28.415C55.1775 26.5635 56.6785 25.0625 58.53 25.0625C70.8736 25.0625 80.88 35.0689 80.88 47.4125C80.88 49.264 79.379 50.765 77.5275 50.765C75.676 50.765 74.175 49.264 74.175 47.4125C74.175 38.772 67.1705 31.7675 58.53 31.7675C56.6785 31.7675 55.1775 30.2665 55.1775 28.415Z" fill="white"/>
<path fill-rule="evenodd" clip-rule="evenodd" d="M70.8225 77.585C70.8225 79.4365 69.3215 80.9375 67.47 80.9375C55.1264 80.9375 45.12 70.9311 45.12 58.5875C45.12 56.736 46.621 55.235 48.4725 55.235C50.324 55.235 51.825 56.736 51.825 58.5875C51.825 67.228 58.8295 74.2325 67.47 74.2325C69.3215 74.2325 70.8225 75.7335 70.8225 77.585Z" fill="white"/>
<path fill-rule="evenodd" clip-rule="evenodd" d="M38.415 60.8228C36.5635 60.8228 35.0625 59.3218 35.0625 57.4703C35.0625 45.1267 45.0689 35.1203 57.4125 35.1203C59.264 35.1203 60.765 36.6212 60.765 38.4727C60.765 40.3243 59.264 41.8253 57.4125 41.8253C48.772 41.8253 41.7675 48.8298 41.7675 57.4703C41.7675 59.3218 40.2665 60.8228 38.415 60.8228Z" fill="white"/>
<path fill-rule="evenodd" clip-rule="evenodd" d="M87.585 45.1772C89.4365 45.1772 90.9375 46.6782 90.9375 48.5297C90.9375 60.8733 80.9311 70.8797 68.5875 70.8797C66.736 70.8797 65.235 69.3788 65.235 67.5272C65.235 65.6757 66.736 64.1747 68.5875 64.1747C77.228 64.1747 84.2325 57.1702 84.2325 48.5297C84.2325 46.6782 85.7335 45.1772 87.585 45.1772Z" fill="white"/>
<path d="M30.4463 73.0498C37.2216 73.9931 38.0613 74.7983 39.2002 81.8497C39.3267 82.5284 39.8558 83 40.4885 83C41.1442 83 41.6848 82.5169 41.7768 81.8382C42.7776 74.7868 43.7324 73.8206 50.5422 73.0498C51.2324 72.9693 51.75 72.4057 51.75 71.75C51.75 71.0828 51.2439 70.5422 50.5537 70.4502L41.7768 61.6503C41.6618 60.9716 41.1442 60.5 40.4885 60.5C39.8443 60.5 39.3037 60.9716 39.2002 61.6618C38.2109 68.7132 37.2561 69.6794 30.4463 70.4502C29.7561 70.5307 29.25 71.0828 29.25 71.75C29.25 72.4057 29.7446 72.9578 30.4463 73.0498ZM30.4463 73.0498L30.2783 74.257C30.2796 74.2571 30.281 74.2573 30.2823 74.2575M30.4463 73.0498L30.2878 74.2582C30.286 74.258 30.2842 74.2578 30.2823 74.2575M30.2823 74.2575C31.9721 74.4928 33.2099 74.7097 34.1585 74.9974C35.0904 75.2801 35.6632 75.6086 36.0746 76.0205C36.4888 76.4352 36.833 77.0281 37.1435 78.0026C37.4582 78.9903 37.7127 80.284 37.997 82.044L37.9993 82.0586L38.002 82.0731C38.2222 83.2538 39.1958 84.2188 40.4885 84.2188C41.7834 84.2188 42.8124 83.256 42.9839 82.0063C43.2331 80.2515 43.4698 78.9519 43.7759 77.957C44.0782 76.9743 44.4247 76.3703 44.8444 75.949C45.7105 75.0799 47.1972 74.6549 50.6792 74.2609L50.6834 74.2604C51.945 74.1132 52.9688 73.0664 52.9688 71.75C52.9688 70.4139 51.951 69.4069 50.7148 69.2421L50.7117 69.2417C49.0219 69.0208 47.7825 68.8106 46.8326 68.5257C45.9005 68.2462 45.3243 67.9163 44.9096 67.5011C44.4915 67.0825 44.1442 66.484 43.8322 65.5053C43.5161 64.5138 43.2615 63.2169 42.9803 61.4579L42.9804 61.4579L42.9785 61.4466C42.775 60.2465 41.802 59.2812 40.4885 59.2812C39.2028 59.2812 38.1821 60.2329 37.9949 61.481L37.9948 61.481L37.9932 61.4925C37.7468 63.2488 37.512 64.5493 37.2073 65.5446C36.9065 66.5271 36.561 67.1307 36.1421 67.5515C35.2777 68.42 33.7916 68.845 30.3093 69.2391L30.3093 69.2391L30.3051 69.2396C29.0355 69.3877 28.0312 70.4298 28.0312 71.75C28.0312 73.0579 29.0195 74.0893 30.2823 74.2575Z" fill="white" stroke="#0DBD8B" stroke-width="2.4375"/>
<path d="M94.7208 30.328L94.7236 30.3276C95.6801 30.2149 96.4375 29.4177 96.4375 28.4375C96.4375 27.4421 95.6859 26.6756 94.7465 26.5491L94.7444 26.5488C93.3498 26.3646 92.3142 26.188 91.5149 25.9458C90.7278 25.7074 90.2204 25.4198 89.848 25.0432C89.4729 24.6639 89.173 24.1319 88.9097 23.2975C88.6437 22.455 88.4318 21.3606 88.1997 19.8941L88.1997 19.8941L88.1984 19.8866C88.0461 18.9789 87.32 18.25 86.3343 18.25C85.3687 18.25 84.6075 18.9698 84.4677 19.9113L84.4677 19.9113L84.4666 19.9189C84.2632 21.3837 84.0677 22.4815 83.8111 23.328C83.557 24.1662 83.2586 24.7031 82.8824 25.0849C82.114 25.8648 80.8173 26.2201 77.9572 26.5471L77.9572 26.547L77.9544 26.5474C76.9927 26.6607 76.25 27.4529 76.25 28.4375C76.25 29.4121 76.9802 30.1969 77.939 30.3257C79.3337 30.5218 80.3679 30.7041 81.1658 30.9486C81.9523 31.1896 82.4569 31.4761 82.8265 31.8498C83.1984 32.2259 83.4957 32.7533 83.7578 33.5841C84.0226 34.4234 84.2345 35.515 84.4691 36.9822L84.4706 36.9918L84.4724 37.0014C84.6376 37.8963 85.3662 38.625 86.3343 38.625C87.3079 38.625 88.0744 37.8957 88.202 36.9553C88.4077 35.4915 88.6048 34.3942 88.8626 33.5481C89.1179 32.7097 89.4172 32.1725 89.7941 31.7904C90.5638 31.0102 91.861 30.6549 94.7208 30.328Z" fill="white" stroke="#0DBD8B" stroke-width="1.625"/>
<path d="M121.494 20C121.844 20 122.132 19.7423 122.181 19.3804C122.715 15.6196 123.224 15.1043 126.856 14.6933C127.224 14.6503 127.5 14.3497 127.5 14C127.5 13.6442 127.23 13.3558 126.862 13.3067C123.248 12.8344 122.782 12.3742 122.181 8.6135C122.12 8.25153 121.844 8 121.494 8C121.15 8 120.862 8.25153 120.807 8.61963C120.279 12.3804 119.77 12.8957 116.138 13.3067C115.77 13.3497 115.5 13.6442 115.5 14C115.5 14.3497 115.764 14.6442 116.138 14.6933C119.752 15.1963 120.199 15.6258 120.807 19.3865C120.874 19.7485 121.156 20 121.494 20Z" fill="#0DBD8B"/>
<path d="M114.372 9.5C114.568 9.5 114.73 9.35506 114.758 9.15146C115.058 7.03604 115.345 6.74617 117.388 6.51495C117.595 6.4908 117.75 6.3217 117.75 6.125C117.75 5.92485 117.598 5.76265 117.391 5.73505C115.359 5.46933 115.096 5.21051 114.758 3.09509C114.724 2.89149 114.568 2.75 114.372 2.75C114.178 2.75 114.016 2.89149 113.985 3.09854C113.688 5.21396 113.402 5.50383 111.359 5.73505C111.152 5.7592 111 5.92485 111 6.125C111 6.3217 111.148 6.48735 111.359 6.51495C113.391 6.79793 113.643 7.03949 113.985 9.15491C114.023 9.35851 114.182 9.5 114.372 9.5Z" fill="#0DBD8B"/>
<path d="M115.871 26C116.111 26 116.309 25.8229 116.343 25.574C116.71 22.9885 117.06 22.6342 119.557 22.3516C119.81 22.3221 120 22.1154 120 21.875C120 21.6304 119.814 21.4321 119.561 21.3984C117.077 21.0736 116.757 20.7573 116.343 18.1718C116.301 17.9229 116.111 17.75 115.871 17.75C115.635 17.75 115.436 17.9229 115.398 18.176C115.036 20.7615 114.686 21.1158 112.189 21.3984C111.936 21.4279 111.75 21.6304 111.75 21.875C111.75 22.1154 111.931 22.3179 112.189 22.3516C114.673 22.6975 114.981 22.9927 115.398 25.5782C115.445 25.8271 115.639 26 115.871 26Z" fill="#0DBD8B"/>
<path d="M5.61925 16.25C5.94709 16.25 6.21741 16.0084 6.26342 15.6691C6.7638 12.1434 7.24118 11.6603 10.6461 11.2749C10.9912 11.2347 11.25 10.9528 11.25 10.625C11.25 10.2914 10.9969 10.0211 10.6518 9.97508C7.26419 9.53221 6.82707 9.10084 6.26342 5.57515C6.20591 5.23581 5.94709 5 5.61925 5C5.29716 5 5.02684 5.23581 4.97508 5.5809C4.48045 9.1066 4.00307 9.58972 0.59816 9.97508C0.253068 10.0153 0 10.2914 0 10.625C0 10.9528 0.247316 11.2289 0.59816 11.2749C3.98581 11.7465 4.40568 12.1492 4.97508 15.6748C5.03834 16.0142 5.30291 16.25 5.61925 16.25Z" fill="#0DBD8B"/>
<path opacity="0.4" d="M13.1223 5.75C13.2753 5.75 13.4015 5.63727 13.4229 5.47891C13.6564 3.83359 13.8792 3.60813 15.4682 3.4283C15.6292 3.40951 15.75 3.27799 15.75 3.125C15.75 2.96933 15.6319 2.84317 15.4709 2.8217C13.89 2.61503 13.686 2.41373 13.4229 0.768405C13.3961 0.610046 13.2753 0.5 13.1223 0.5C12.972 0.5 12.8459 0.610046 12.8217 0.771089C12.5909 2.41641 12.3681 2.64187 10.7791 2.8217C10.6181 2.84049 10.5 2.96933 10.5 3.125C10.5 3.27799 10.6154 3.40683 10.7791 3.4283C12.36 3.64839 12.556 3.83627 12.8217 5.4816C12.8512 5.63995 12.9747 5.75 13.1223 5.75Z" fill="#0DBD8B"/>
<path opacity="0.4" d="M16.8723 12.5C17.0253 12.5 17.1515 12.3873 17.1729 12.2289C17.4064 10.5836 17.6292 10.3581 19.2182 10.1783C19.3792 10.1595 19.5 10.028 19.5 9.875C19.5 9.71933 19.3819 9.59317 19.2209 9.5717C17.64 9.36503 17.436 9.16373 17.1729 7.5184C17.1461 7.36005 17.0253 7.25 16.8723 7.25C16.722 7.25 16.5959 7.36005 16.5717 7.52109C16.3409 9.16641 16.1181 9.39187 14.5291 9.5717C14.3681 9.59049 14.25 9.71933 14.25 9.875C14.25 10.028 14.3654 10.1568 14.5291 10.1783C16.11 10.3984 16.306 10.5863 16.5717 12.2316C16.6012 12.39 16.7247 12.5 16.8723 12.5Z" fill="#0DBD8B"/>
</svg>
