<?xml version="1.0" encoding="UTF-8" standalone="no"?>
<!DOCTYPE svg PUBLIC "-//W3C//DTD SVG 1.1//EN" "http://www.w3.org/Graphics/SVG/1.1/DTD/svg11.dtd">
<svg width="100%" height="100%" viewBox="0 0 15 15" version="1.1" xmlns="http://www.w3.org/2000/svg" xmlns:xlink="http://www.w3.org/1999/xlink" xml:space="preserve" style="fill-rule:evenodd;clip-rule:evenodd;stroke-linejoin:round;stroke-miterlimit:1.41421;">
    <g transform="matrix(1,0,0,1,-0,-80)">
        <g id="icon_context_delete" transform="matrix(0.600982,0,0,0.600982,0,80)">
            <g transform="matrix(1.66394,0,0,1.66394,0,-133.116)">
                <path d="M7.508,86.728C8.739,85.523 9.979,84.326 11.196,83.109C11.277,83.034 11.364,82.99 11.472,82.968C11.512,82.964 11.549,82.962 11.589,82.964C11.668,82.973 11.743,82.994 11.811,83.036C11.994,83.148 12.086,83.371 12.036,83.579C12.017,83.657 11.98,83.724 11.93,83.787C10.749,85.064 9.524,86.299 8.285,87.52C9.489,88.752 10.686,89.991 11.904,91.209C11.958,91.267 12.001,91.331 12.026,91.408C12.042,91.458 12.05,91.51 12.05,91.562C12.05,91.82 11.846,92.041 11.589,92.061C11.454,92.071 11.33,92.025 11.225,91.942C9.948,90.762 8.713,89.536 7.492,88.297C6.261,89.501 5.021,90.698 3.804,91.916C3.745,91.97 3.681,92.013 3.605,92.038C3.555,92.054 3.502,92.062 3.45,92.062C3.192,92.062 2.972,91.858 2.952,91.602C2.941,91.466 2.987,91.342 3.07,91.238C4.251,89.96 5.476,88.726 6.715,87.505C5.511,86.273 4.314,85.034 3.096,83.816C3.042,83.757 2.999,83.693 2.974,83.617C2.908,83.413 2.983,83.184 3.156,83.058C3.221,83.01 3.294,82.984 3.372,82.968C3.412,82.964 3.449,82.962 3.489,82.964C3.598,82.977 3.689,83.014 3.775,83.082C5.052,84.263 6.287,85.488 7.508,86.728Z" style="fill:rgb(255,0,100);"/>
            </g>
        </g>
    </g>
</svg>
