<?xml version="1.0" encoding="utf-8"?>
<!-- Generator: Adobe Illustrator 19.1.0, SVG Export Plug-In . SVG Version: 6.00 Build 0)  -->
<svg version="1.1" id="Layer_1" xmlns="http://www.w3.org/2000/svg" xmlns:xlink="http://www.w3.org/1999/xlink" x="0px" y="0px"
	 viewBox="0 0 24 23" style="enable-background:new 0 0 24 23;" xml:space="preserve">
<style type="text/css">
	.st0{clip-path:url(#SVGID_2_);fill:#FF0064;}
	.st1{clip-path:url(#SVGID_4_);fill:#FFFFFF;}
</style>
<g>
	<g>
		<defs>
			<path id="SVGID_1_" d="M9.2,2.2c1.6-2.9,4.1-2.9,5.7,0l8.3,15.4c1.6,2.9,0.2,5.3-3.2,5.3H4c-3.3,0-4.7-2.4-3.2-5.3L9.2,2.2
				L9.2,2.2z M9.2,2.2"/>
		</defs>
		<clipPath id="SVGID_2_">
			<use xlink:href="#SVGID_1_"  style="overflow:visible;"/>
		</clipPath>
		<rect x="-4.8" y="-5" class="st0" width="33.6" height="32.9"/>
	</g>
	<g>
		<defs>
			<path id="SVGID_3_" d="M12.7,15L13,5.4H11l0.3,9.6H12.7L12.7,15z M12,19.1c0.7,0,1.2-0.5,1.2-1.2c0-0.7-0.5-1.2-1.2-1.2
				c-0.7,0-1.2,0.5-1.2,1.2C10.8,18.6,11.3,19.1,12,19.1L12,19.1L12,19.1z M12,19.1"/>
		</defs>
		<clipPath id="SVGID_4_">
			<use xlink:href="#SVGID_3_"  style="overflow:visible;"/>
		</clipPath>
		<rect x="5.8" y="0.4" class="st1" width="12.4" height="23.7"/>
	</g>
</g>
</svg>
