<svg width="20" height="20" viewBox="0 0 20 20" fill="none" xmlns="http://www.w3.org/2000/svg">
    <mask id="path-1-inside-1" fill="white">
        <path fill-rule="evenodd" clip-rule="evenodd" d="M10 20C15.5228 20 20 15.5228 20 10C20 4.47715 15.5228 0 10 0C4.47715 0 0 4.47715 0 10C0 15.5228 4.47715 20 10 20ZM7.99989 7.5C7.99989 8.33 7.32989 9 6.49989 9C5.66989 9 4.99989 8.33 4.99989 7.5C4.99989 6.67 5.66989 6 6.49989 6C7.32989 6 7.99989 6.67 7.99989 7.5ZM14.9999 7.5C14.9999 8.33 14.3299 9 13.4999 9C12.6699 9 11.9999 8.33 11.9999 7.5C11.9999 6.67 12.6699 6 13.4999 6C14.3299 6 14.9999 6.67 14.9999 7.5ZM9.99989 15.5C12.3299 15.5 14.3099 14.04 15.1099 12H4.88989C5.68989 14.04 7.66989 15.5 9.99989 15.5Z"/>
    </mask>
    <path fill-rule="evenodd" clip-rule="evenodd" d="M10 20C15.5228 20 20 15.5228 20 10C20 4.47715 15.5228 0 10 0C4.47715 0 0 4.47715 0 10C0 15.5228 4.47715 20 10 20ZM7.99989 7.5C7.99989 8.33 7.32989 9 6.49989 9C5.66989 9 4.99989 8.33 4.99989 7.5C4.99989 6.67 5.66989 6 6.49989 6C7.32989 6 7.99989 6.67 7.99989 7.5ZM14.9999 7.5C14.9999 8.33 14.3299 9 13.4999 9C12.6699 9 11.9999 8.33 11.9999 7.5C11.9999 6.67 12.6699 6 13.4999 6C14.3299 6 14.9999 6.67 14.9999 7.5ZM9.99989 15.5C12.3299 15.5 14.3099 14.04 15.1099 12H4.88989C5.68989 14.04 7.66989 15.5 9.99989 15.5Z" fill="#737D8C"/>
    <path d="M15.1099 12L16.0384 12.3641L16.5724 11.0026H15.1099V12ZM4.88989 12V11.0026H3.42744L3.96136 12.3641L4.88989 12ZM19.0026 10C19.0026 14.972 14.972 19.0026 10 19.0026V20.9974C16.0737 20.9974 20.9974 16.0737 20.9974 10H19.0026ZM10 0.997378C14.972 0.997378 19.0026 5.02799 19.0026 10H20.9974C20.9974 3.92632 16.0737 -0.997378 10 -0.997378V0.997378ZM0.997378 10C0.997378 5.02799 5.02799 0.997378 10 0.997378V-0.997378C3.92632 -0.997378 -0.997378 3.92632 -0.997378 10H0.997378ZM10 19.0026C5.02799 19.0026 0.997378 14.972 0.997378 10H-0.997378C-0.997378 16.0737 3.92632 20.9974 10 20.9974V19.0026ZM6.49989 9.99738C7.88073 9.99738 8.99727 8.88084 8.99727 7.5H7.00251C7.00251 7.77916 6.77906 8.00262 6.49989 8.00262V9.99738ZM4.00251 7.5C4.00251 8.88084 5.11906 9.99738 6.49989 9.99738V8.00262C6.22073 8.00262 5.99727 7.77916 5.99727 7.5H4.00251ZM6.49989 5.00262C5.11906 5.00262 4.00251 6.11916 4.00251 7.5H5.99727C5.99727 7.22084 6.22073 6.99738 6.49989 6.99738V5.00262ZM8.99727 7.5C8.99727 6.11916 7.88073 5.00262 6.49989 5.00262V6.99738C6.77906 6.99738 7.00251 7.22084 7.00251 7.5H8.99727ZM13.4999 9.99738C14.8807 9.99738 15.9973 8.88084 15.9973 7.5H14.0025C14.0025 7.77916 13.7791 8.00262 13.4999 8.00262V9.99738ZM11.0025 7.5C11.0025 8.88084 12.1191 9.99738 13.4999 9.99738V8.00262C13.2207 8.00262 12.9973 7.77916 12.9973 7.5H11.0025ZM13.4999 5.00262C12.1191 5.00262 11.0025 6.11916 11.0025 7.5H12.9973C12.9973 7.22084 13.2207 6.99738 13.4999 6.99738V5.00262ZM15.9973 7.5C15.9973 6.11916 14.8807 5.00262 13.4999 5.00262V6.99738C13.7791 6.99738 14.0025 7.22084 14.0025 7.5H15.9973ZM14.1814 11.6359C13.5241 13.3119 11.9006 14.5026 9.99989 14.5026V16.4974C12.7592 16.4974 15.0957 14.7681 16.0384 12.3641L14.1814 11.6359ZM4.88989 12.9974H15.1099V11.0026H4.88989V12.9974ZM9.99989 14.5026C8.09919 14.5026 6.47569 13.3119 5.81842 11.6359L3.96136 12.3641C4.9041 14.7681 7.24059 16.4974 9.99989 16.4974V14.5026Z" fill="#737D8C" mask="url(#path-1-inside-1)"/>
</svg>
