<svg width="84" height="84" viewBox="0 0 84 84" fill="none" xmlns="http://www.w3.org/2000/svg">
<path fill-rule="evenodd" clip-rule="evenodd" d="M36.7988 34.9062C37.077 33.5217 38.2978 32.5 39.7396 32.5H44.2604C45.7022 32.5 46.923 33.5217 47.2012 34.9062C47.2429 35.1137 47.3232 35.3141 47.4627 35.4731L48.0649 36.1595C48.2548 36.3759 48.5287 36.5 48.8166 36.5H52C53.1046 36.5 54 37.3954 54 38.5V49.5C54 50.6046 53.1046 51.5 52 51.5H32C30.8954 51.5 30 50.6046 30 49.5V38.5C30 37.3954 30.8954 36.5 32 36.5H35.1834C35.4713 36.5 35.7452 36.3759 35.9351 36.1595L36.5373 35.4731C36.6768 35.3141 36.7571 35.1137 36.7988 34.9062ZM42 47.5C44.2091 47.5 46 45.7091 46 43.5C46 41.2909 44.2091 39.5 42 39.5C39.7909 39.5 38 41.2909 38 43.5C38 45.7091 39.7909 47.5 42 47.5Z" fill="white"/>
<rect x="32" y="35" width="3" height="1" rx="0.5" fill="white"/>
<path fill-rule="evenodd" clip-rule="evenodd" d="M59.75 27C59.75 26.5858 59.4142 26.25 59 26.25C58.5858 26.25 58.25 26.5858 58.25 27V31.25L54 31.25C53.5858 31.25 53.25 31.5858 53.25 32C53.25 32.4142 53.5858 32.75 54 32.75L58.25 32.75V37C58.25 37.4142 58.5858 37.75 59 37.75C59.4142 37.75 59.75 37.4142 59.75 37V32.75L64 32.75C64.4142 32.75 64.75 32.4142 64.75 32C64.75 31.5858 64.4142 31.25 64 31.25L59.75 31.25V27Z" fill="white"/>
</svg>
