<svg xmlns="http://www.w3.org/2000/svg" width="19.977" height="22.975" fill="none"><path fill="currentColor" d="M9.976 22.975c-2.648 0-4.922-.88-6.82-2.64C1.258 18.577.206 16.4.003 13.808a.728.728 0 0 1 .208-.583.786.786 0 0 1 .598-.25c.222 0 .412.078.57.236.157.157.254.356.29.597.205 2.13 1.093 3.913 2.668 5.348 1.574 1.435 3.454 2.153 5.64 2.153 2.314 0 4.282-.81 5.903-2.43 1.62-1.621 2.43-3.59 2.43-5.904 0-2.315-.786-4.283-2.36-5.904-1.575-1.62-3.52-2.43-5.835-2.43h-.611l1.445 1.444a.8.8 0 0 1 .25.583.8.8 0 0 1-.25.584.8.8 0 0 1-.584.25.8.8 0 0 1-.583-.25L6.865 4.334a.846.846 0 0 1-.195-.278.816.816 0 0 1-.055-.306c0-.11.018-.213.055-.305a.846.846 0 0 1 .195-.278L9.81.222A.754.754 0 0 1 10.365 0a.85.85 0 0 1 .584.222.85.85 0 0 1 .222.584.754.754 0 0 1-.222.555L9.337 2.973h.64c1.388 0 2.69.259 3.903.777a10.021 10.021 0 0 1 3.18 2.14 10.02 10.02 0 0 1 2.14 3.18 9.824 9.824 0 0 1 .777 3.904c0 1.389-.259 2.69-.777 3.903a10.02 10.02 0 0 1-2.14 3.18 10.02 10.02 0 0 1-3.18 2.14 9.824 9.824 0 0 1-3.904.778z"/><path fill="currentColor" d="M7.017 16.914c-.46 0-.87-.078-1.227-.236a2.052 2.052 0 0 1-.844-.658 1.707 1.707 0 0 1-.33-.975h1.202c.011.177.07.331.176.463.107.13.248.231.425.304.177.072.375.108.595.108.234 0 .442-.04.623-.12.181-.084.323-.2.425-.346a.85.85 0 0 0 .15-.508.882.882 0 0 0-.153-.524 1.026 1.026 0 0 0-.454-.355 1.775 1.775 0 0 0-.71-.128h-.578v-.914h.579c.227 0 .427-.04.597-.118a.967.967 0 0 0 .406-.333.856.856 0 0 0 .144-.502.872.872 0 0 0-.125-.482.841.841 0 0 0-.354-.323 1.166 1.166 0 0 0-.534-.115c-.2 0-.386.036-.556.109-.17.072-.308.175-.413.31a.786.786 0 0 0-.166.473h-1.14a1.66 1.66 0 0 1 .316-.965 2.04 2.04 0 0 1 .818-.652c.34-.158.723-.237 1.147-.237.437 0 .816.082 1.138.246.324.162.574.38.751.655.177.275.265.579.265.911.002.369-.106.678-.326.927a1.53 1.53 0 0 1-.856.489v.051c.46.064.813.235 1.058.511.247.275.37.617.367 1.026 0 .367-.104.695-.313.985a2.076 2.076 0 0 1-.857.677 2.991 2.991 0 0 1-1.246.246zm5.498.036c-.526 0-.978-.134-1.355-.4-.375-.268-.664-.655-.866-1.16-.2-.507-.3-1.118-.3-1.831.002-.714.103-1.321.303-1.822.202-.503.491-.886.866-1.15.377-.265.828-.397 1.352-.397.524 0 .975.132 1.352.396.377.265.666.648.866 1.15.203.504.304 1.111.304 1.823 0 .716-.101 1.327-.304 1.834-.2.505-.489.89-.866 1.157-.375.266-.826.4-1.352.4zm0-1c.41 0 .732-.202.968-.605.24-.405.358-1 .358-1.786 0-.52-.054-.957-.163-1.31-.108-.354-.262-.62-.46-.8a1.008 1.008 0 0 0-.703-.271c-.407 0-.729.202-.965.607-.237.403-.356.994-.358 1.774-.002.522.05.96.157 1.316.108.356.262.625.46.806.198.179.433.268.706.268z"/></svg>