<svg width="25" height="24" viewBox="0 0 25 24" fill="none" xmlns="http://www.w3.org/2000/svg">
<g clip-path="url(#clip0)">
<path fill-rule="evenodd" clip-rule="evenodd" d="M10.4896 2.5C9.04778 2.5 7.827 3.52171 7.54879 4.90624C7.50711 5.11367 7.42679 5.31408 7.28726 5.47312L6.6851 6.15949C6.49523 6.37591 6.22129 6.5 5.93338 6.5H2.75C1.64543 6.5 0.75 7.39543 0.75 8.5V19.5C0.75 20.6046 1.64543 21.5 2.75 21.5H22.75C23.8546 21.5 24.75 20.6046 24.75 19.5V8.5C24.75 7.39543 23.8546 6.5 22.75 6.5H19.5666C19.2787 6.5 19.0048 6.37591 18.8149 6.15949L18.2127 5.47312C18.0732 5.31408 17.9929 5.11366 17.9512 4.90623C17.673 3.5217 16.4522 2.5 15.0104 2.5H10.4896ZM16.75 13.5C16.75 15.7091 14.9591 17.5 12.75 17.5C10.5409 17.5 8.75 15.7091 8.75 13.5C8.75 11.2909 10.5409 9.5 12.75 9.5C14.9591 9.5 16.75 11.2909 16.75 13.5ZM3.25 5C2.97386 5 2.75 5.22386 2.75 5.5C2.75 5.77614 2.97386 6 3.25 6H5.25C5.52614 6 5.75 5.77614 5.75 5.5C5.75 5.22386 5.52614 5 5.25 5H3.25Z" fill="black"/>
</g>
<defs>
<clipPath id="clip0">
<rect width="24" height="24" fill="white" transform="translate(0.75)"/>
</clipPath>
</defs>
</svg>
