<svg viewBox="0 0 24 24" xmlns="http://www.w3.org/2000/svg">
    <path d="M 12.046004,0 C 5.4431281,0 0.08988791,5.3729108 0.08988791,12.000001 c 0,2.059897 0.5163635,3.998954 1.42753269,5.692825 l -1.46565664,4.725598 c -0.26501811,0.853738 0.53179935,1.6561 1.38305454,1.392383 L 6.0478246,22.382286 C 7.8109429,23.410602 9.8598215,24 12.046004,24 18.648792,24 24,18.627023 24,12.000001 24,5.3729108 18.648792,0 12.046004,0 Z M 6.7319388,10.667139 c 0.7336504,0 1.3279866,0.596453 1.3279866,1.332862 0,0.736298 -0.5943362,1.332861 -1.3279866,1.33286 -0.7336504,0 -1.3279866,-0.596562 -1.3279865,-1.33286 0,-0.736409 0.5943361,-1.332862 1.3279865,-1.332862 z m 5.3140652,0 c 0.733607,0 1.327986,0.596453 1.327986,1.332862 0,0.736298 -0.594379,1.33286 -1.327986,1.33286 -0.733716,1e-6 -1.327987,-0.596562 -1.327987,-1.33286 0,-0.736409 0.594271,-1.332862 1.327987,-1.332862 z m 5.311946,0 c 0.733607,0 1.330105,0.596453 1.330105,1.332862 0,0.736298 -0.596498,1.332861 -1.330105,1.33286 -0.733715,0 -1.327987,-0.596562 -1.327987,-1.33286 0,-0.736409 0.594272,-1.332862 1.327987,-1.332862 z" />
</svg>
