<svg width="16" height="16" viewBox="0 0 16 16" fill="none" xmlns="http://www.w3.org/2000/svg">
<path fill-rule="evenodd" clip-rule="evenodd" d="M8 15C11.866 15 15 11.866 15 8C15 4.13401 11.866 1 8 1C4.13401 1 1 4.13401 1 8C1 11.866 4.13401 15 8 15ZM8 16C12.4183 16 16 12.4183 16 8C16 3.58172 12.4183 0 8 0C3.58172 0 0 3.58172 0 8C0 12.4183 3.58172 16 8 16Z" fill="#8D99A5"/>
<path d="M11.8697 4.95309C11.6784 4.7576 11.3597 4.74731 11.1578 4.93251L6.62066 9.04804L4.95244 7.91627C4.7293 7.77223 4.42116 7.77223 4.20865 7.95742C3.95363 8.1632 3.93238 8.5336 4.14489 8.78053L6.06813 10.9206C6.1 10.9515 6.13188 10.9926 6.17438 11.0132C6.53565 11.3013 7.07756 11.2498 7.37508 10.9L7.40695 10.8589L11.891 5.60128C12.0397 5.41608 12.0397 5.13828 11.8697 4.95309Z" fill="#8D99A5"/>
</svg>
