<svg xmlns="http://www.w3.org/2000/svg" fill="none" viewBox="0 0 11 14"><defs/><path fill="currentColor" fill-rule="evenodd" d="M.2192.234A.753.753 0 011.2815.2321l3.7243 3.7003L8.7181.2202A.753.753 0 019.7805.2185a.747.747 0 01.0017 1.0589L5.5396 5.52a.753.753 0 01-1.0624.0018L.221 1.2928A.747.747 0 01.2192.234zM9.7822 13.7663a.7529.7529 0 01-1.0623.0017l-3.7243-3.7003L1.2833 13.78a.753.753 0 01-1.0624.0018.7471.7471 0 01-.0017-1.059l4.2426-4.2426a.753.753 0 011.0624-.0017l4.2563 4.2289a.747.747 0 01.0017 1.0589z" clip-rule="evenodd"/></svg>