<svg width="25" height="25" viewBox="0 0 25 25" fill="none" xmlns="http://www.w3.org/2000/svg">
<mask id="path-1-inside-1" fill="white">
<path fill-rule="evenodd" clip-rule="evenodd" d="M22.5 12.5C22.5 18.0228 18.0228 22.5 12.5 22.5C6.97715 22.5 2.5 18.0228 2.5 12.5C2.5 6.97715 6.97715 2.5 12.5 2.5C18.0228 2.5 22.5 6.97715 22.5 12.5ZM16.8804 13.912C18.09 13.912 19.0705 12.8498 19.0705 11.5394C19.0705 10.229 18.09 9.16667 16.8804 9.16667C15.6708 9.16667 14.6902 10.229 14.6902 11.5394C14.6902 12.8498 15.6708 13.912 16.8804 13.912ZM13.3333 18.2461C13.3333 16.2941 11.9623 14.6623 10.1307 14.2611C9.81877 14.1991 9.49645 14.1667 9.16667 14.1667C7.16814 14.1667 5.44347 15.3594 4.64307 17.0833L8.33334 20.9483H13.3333L13.3333 18.2461ZM15.3333 20.9483H16.8804L20.5844 17.0833C19.8081 15.8356 18.4394 15.0071 16.8804 15.0071C16.0955 15.0071 15.3588 15.2171 14.7216 15.5849C15.1134 16.3884 15.3333 17.2913 15.3333 18.2461L15.3333 20.9483ZM11.6667 10.2083C11.6667 11.7041 10.5474 12.9167 9.16669 12.9167C7.78597 12.9167 6.66669 11.7041 6.66669 10.2083C6.66669 8.71256 7.78597 7.5 9.16669 7.5C10.5474 7.5 11.6667 8.71256 11.6667 10.2083Z"/>
</mask>
<path fill-rule="evenodd" clip-rule="evenodd" d="M22.5 12.5C22.5 18.0228 18.0228 22.5 12.5 22.5C6.97715 22.5 2.5 18.0228 2.5 12.5C2.5 6.97715 6.97715 2.5 12.5 2.5C18.0228 2.5 22.5 6.97715 22.5 12.5ZM16.8804 13.912C18.09 13.912 19.0705 12.8498 19.0705 11.5394C19.0705 10.229 18.09 9.16667 16.8804 9.16667C15.6708 9.16667 14.6902 10.229 14.6902 11.5394C14.6902 12.8498 15.6708 13.912 16.8804 13.912ZM13.3333 18.2461C13.3333 16.2941 11.9623 14.6623 10.1307 14.2611C9.81877 14.1991 9.49645 14.1667 9.16667 14.1667C7.16814 14.1667 5.44347 15.3594 4.64307 17.0833L8.33334 20.9483H13.3333L13.3333 18.2461ZM15.3333 20.9483H16.8804L20.5844 17.0833C19.8081 15.8356 18.4394 15.0071 16.8804 15.0071C16.0955 15.0071 15.3588 15.2171 14.7216 15.5849C15.1134 16.3884 15.3333 17.2913 15.3333 18.2461L15.3333 20.9483ZM11.6667 10.2083C11.6667 11.7041 10.5474 12.9167 9.16669 12.9167C7.78597 12.9167 6.66669 11.7041 6.66669 10.2083C6.66669 8.71256 7.78597 7.5 9.16669 7.5C10.5474 7.5 11.6667 8.71256 11.6667 10.2083Z" fill="black"/>
<path d="M10.1307 14.2611L10.4873 12.6331L10.4714 12.6296L10.4555 12.6264L10.1307 14.2611ZM13.3333 18.2461H11.6667V18.2461L13.3333 18.2461ZM4.64307 17.0833L3.13139 16.3815L2.65278 17.4123L3.43762 18.2343L4.64307 17.0833ZM8.33334 20.9483L7.12789 22.0993L7.6203 22.615H8.33334V20.9483ZM13.3333 20.9483V22.615H15L15 20.9483L13.3333 20.9483ZM16.8804 20.9483V22.615H17.5916L18.0837 22.1015L16.8804 20.9483ZM15.3333 20.9483L13.6667 20.9483L13.6667 22.615H15.3333V20.9483ZM20.5844 17.0833L21.7877 18.2365L22.6834 17.302L21.9996 16.2029L20.5844 17.0833ZM14.7216 15.5849L13.8884 14.1415L12.5423 14.9185L13.2236 16.3155L14.7216 15.5849ZM15.3333 18.2461H13.6667V18.2461L15.3333 18.2461ZM12.5 24.1667C18.9433 24.1667 24.1667 18.9433 24.1667 12.5H20.8333C20.8333 17.1024 17.1024 20.8333 12.5 20.8333V24.1667ZM0.833333 12.5C0.833333 18.9433 6.05668 24.1667 12.5 24.1667V20.8333C7.89763 20.8333 4.16667 17.1024 4.16667 12.5H0.833333ZM12.5 0.833333C6.05668 0.833333 0.833333 6.05668 0.833333 12.5H4.16667C4.16667 7.89763 7.89763 4.16667 12.5 4.16667V0.833333ZM24.1667 12.5C24.1667 6.05668 18.9433 0.833333 12.5 0.833333V4.16667C17.1024 4.16667 20.8333 7.89763 20.8333 12.5H24.1667ZM17.4039 11.5394C17.4039 12.0574 17.0464 12.2454 16.8804 12.2454V15.5787C19.1335 15.5787 20.7372 13.6421 20.7372 11.5394H17.4039ZM16.8804 10.8333C17.0464 10.8333 17.4039 11.0213 17.4039 11.5394H20.7372C20.7372 9.4366 19.1335 7.50001 16.8804 7.50001V10.8333ZM16.3569 11.5394C16.3569 11.0213 16.7143 10.8333 16.8804 10.8333V7.50001C14.6272 7.50001 13.0235 9.4366 13.0235 11.5394H16.3569ZM16.8804 12.2454C16.7143 12.2454 16.3569 12.0574 16.3569 11.5394H13.0235C13.0235 13.6421 14.6272 15.5787 16.8804 15.5787V12.2454ZM9.77412 15.8892C10.857 16.1264 11.6667 17.0936 11.6667 18.2461H15C15 15.4945 13.0676 13.1982 10.4873 12.6331L9.77412 15.8892ZM9.16667 15.8333C9.38675 15.8333 9.60029 15.855 9.8059 15.8958L10.4555 12.6264C10.0372 12.5433 9.60614 12.5 9.16667 12.5V15.8333ZM6.15474 17.7852C6.69734 16.6166 7.8526 15.8333 9.16667 15.8333V12.5C6.48369 12.5 4.18961 14.1023 3.13139 16.3815L6.15474 17.7852ZM9.53878 19.7974L5.84851 15.9324L3.43762 18.2343L7.12789 22.0993L9.53878 19.7974ZM13.3333 19.2817H8.33334V22.615H13.3333V19.2817ZM11.6667 18.2461L11.6667 20.9483L15 20.9483L15 18.2461L11.6667 18.2461ZM16.8804 19.2817H15.3333V22.615H16.8804V19.2817ZM19.3811 15.9301L15.6771 19.7951L18.0837 22.1015L21.7877 18.2365L19.3811 15.9301ZM16.8804 16.6738C17.8311 16.6738 18.6797 17.1768 19.1693 17.9638L21.9996 16.2029C20.9366 14.4944 19.0477 13.3405 16.8804 13.3405V16.6738ZM15.5549 17.0284C15.9465 16.8023 16.3969 16.6738 16.8804 16.6738V13.3405C15.7941 13.3405 14.7711 13.632 13.8884 14.1415L15.5549 17.0284ZM17 18.2461C17 17.0328 16.7201 15.8806 16.2196 14.8544L13.2236 16.3155C13.5068 16.8963 13.6667 17.5498 13.6667 18.2461H17ZM17 20.9483L17 18.2461L13.6667 18.2461L13.6667 20.9483L17 20.9483ZM9.16669 14.5833C11.591 14.5833 13.3334 12.4965 13.3334 10.2083H10C10 10.9117 9.50383 11.25 9.16669 11.25V14.5833ZM5.00002 10.2083C5.00002 12.4965 6.7424 14.5833 9.16669 14.5833V11.25C8.82955 11.25 8.33335 10.9117 8.33335 10.2083H5.00002ZM9.16669 5.83333C6.7424 5.83333 5.00002 7.92021 5.00002 10.2083H8.33335C8.33335 9.50492 8.82955 9.16667 9.16669 9.16667V5.83333ZM13.3334 10.2083C13.3334 7.92021 11.591 5.83333 9.16669 5.83333V9.16667C9.50383 9.16667 10 9.50492 10 10.2083H13.3334Z" fill="black" mask="url(#path-1-inside-1)"/>
<path d="M21.5 12.5C21.5 17.4706 17.4706 21.5 12.5 21.5C7.52944 21.5 3.5 17.4706 3.5 12.5C3.5 7.52944 7.52944 3.5 12.5 3.5C17.4706 3.5 21.5 7.52944 21.5 12.5Z" stroke="black" stroke-width="2"/>
</svg>
