<svg width="20" height="20" viewBox="0 0 20 20" fill="none" xmlns="http://www.w3.org/2000/svg">
<mask id="path-1-inside-1" fill="white">
<path fill-rule="evenodd" clip-rule="evenodd" d="M20 10C20 15.5228 15.5228 20 10 20C4.47715 20 0 15.5228 0 10C0 4.47715 4.47715 0 10 0C15.5228 0 20 4.47715 20 10ZM14.3804 11.412C15.59 11.412 16.5705 10.3498 16.5705 9.03936C16.5705 7.72896 15.59 6.66667 14.3804 6.66667C13.1708 6.66667 12.1902 7.72896 12.1902 9.03936C12.1902 10.3498 13.1708 11.412 14.3804 11.412ZM10.8333 15.7461C10.8333 13.7941 9.46231 12.1623 7.63071 11.7611C7.31877 11.6991 6.99645 11.6667 6.66667 11.6667C4.66814 11.6667 2.94347 12.8594 2.14307 14.5833L5.83334 18.4483H10.8333L10.8333 15.7461ZM12.8333 18.4483H14.3804L18.0844 14.5833C17.3081 13.3356 15.9394 12.5071 14.3804 12.5071C13.5955 12.5071 12.8588 12.7171 12.2216 13.0849C12.6134 13.8884 12.8333 14.7913 12.8333 15.7461L12.8333 18.4483ZM9.16669 7.70833C9.16669 9.2041 8.0474 10.4167 6.66669 10.4167C5.28597 10.4167 4.16669 9.2041 4.16669 7.70833C4.16669 6.21256 5.28597 5 6.66669 5C8.0474 5 9.16669 6.21256 9.16669 7.70833Z"/>
</mask>
<path fill-rule="evenodd" clip-rule="evenodd" d="M20 10C20 15.5228 15.5228 20 10 20C4.47715 20 0 15.5228 0 10C0 4.47715 4.47715 0 10 0C15.5228 0 20 4.47715 20 10ZM14.3804 11.412C15.59 11.412 16.5705 10.3498 16.5705 9.03936C16.5705 7.72896 15.59 6.66667 14.3804 6.66667C13.1708 6.66667 12.1902 7.72896 12.1902 9.03936C12.1902 10.3498 13.1708 11.412 14.3804 11.412ZM10.8333 15.7461C10.8333 13.7941 9.46231 12.1623 7.63071 11.7611C7.31877 11.6991 6.99645 11.6667 6.66667 11.6667C4.66814 11.6667 2.94347 12.8594 2.14307 14.5833L5.83334 18.4483H10.8333L10.8333 15.7461ZM12.8333 18.4483H14.3804L18.0844 14.5833C17.3081 13.3356 15.9394 12.5071 14.3804 12.5071C13.5955 12.5071 12.8588 12.7171 12.2216 13.0849C12.6134 13.8884 12.8333 14.7913 12.8333 15.7461L12.8333 18.4483ZM9.16669 7.70833C9.16669 9.2041 8.0474 10.4167 6.66669 10.4167C5.28597 10.4167 4.16669 9.2041 4.16669 7.70833C4.16669 6.21256 5.28597 5 6.66669 5C8.0474 5 9.16669 6.21256 9.16669 7.70833Z" fill="black"/>
<path d="M7.63071 11.7611L7.9873 10.1331L7.97144 10.1296L7.95552 10.1264L7.63071 11.7611ZM10.8333 15.7461H9.16665V15.7461L10.8333 15.7461ZM2.14307 14.5833L0.631393 13.8815L0.152784 14.9123L0.937622 15.7343L2.14307 14.5833ZM5.83334 18.4483L4.62789 19.5993L5.1203 20.115H5.83334V18.4483ZM10.8333 18.4483V20.115H12.5L12.5 18.4483L10.8333 18.4483ZM14.3804 18.4483V20.115H15.0916L15.5837 19.6015L14.3804 18.4483ZM12.8333 18.4483L11.1667 18.4483L11.1667 20.115H12.8333V18.4483ZM18.0844 14.5833L19.2877 15.7365L20.1834 14.802L19.4996 13.7029L18.0844 14.5833ZM12.2216 13.0849L11.3884 11.6415L10.0423 12.4185L10.7236 13.8155L12.2216 13.0849ZM12.8333 15.7461H11.1667V15.7461L12.8333 15.7461ZM10 21.6667C16.4433 21.6667 21.6667 16.4433 21.6667 10H18.3333C18.3333 14.6024 14.6024 18.3333 10 18.3333V21.6667ZM-1.66667 10C-1.66667 16.4433 3.55668 21.6667 10 21.6667V18.3333C5.39763 18.3333 1.66667 14.6024 1.66667 10H-1.66667ZM10 -1.66667C3.55668 -1.66667 -1.66667 3.55668 -1.66667 10H1.66667C1.66667 5.39763 5.39763 1.66667 10 1.66667V-1.66667ZM21.6667 10C21.6667 3.55668 16.4433 -1.66667 10 -1.66667V1.66667C14.6024 1.66667 18.3333 5.39763 18.3333 10H21.6667ZM14.9039 9.03936C14.9039 9.5574 14.5464 9.74538 14.3804 9.74538V13.0787C16.6335 13.0787 18.2372 11.1421 18.2372 9.03936H14.9039ZM14.3804 8.33334C14.5464 8.33334 14.9039 8.52132 14.9039 9.03936H18.2372C18.2372 6.9366 16.6335 5.00001 14.3804 5.00001V8.33334ZM13.8569 9.03936C13.8569 8.52132 14.2143 8.33334 14.3804 8.33334V5.00001C12.1272 5.00001 10.5235 6.9366 10.5235 9.03936H13.8569ZM14.3804 9.74538C14.2143 9.74538 13.8569 9.5574 13.8569 9.03936H10.5235C10.5235 11.1421 12.1272 13.0787 14.3804 13.0787V9.74538ZM7.27412 13.3892C8.35701 13.6264 9.16665 14.5936 9.16665 15.7461H12.5C12.5 12.9945 10.5676 10.6982 7.9873 10.1331L7.27412 13.3892ZM6.66667 13.3333C6.88675 13.3333 7.10029 13.355 7.3059 13.3958L7.95552 10.1264C7.53724 10.0433 7.10614 10 6.66667 10V13.3333ZM3.65474 15.2852C4.19734 14.1166 5.3526 13.3333 6.66667 13.3333V10C3.98369 10 1.68961 11.6023 0.631393 13.8815L3.65474 15.2852ZM7.03878 17.2974L3.34851 13.4324L0.937622 15.7343L4.62789 19.5993L7.03878 17.2974ZM10.8333 16.7817H5.83334V20.115H10.8333V16.7817ZM9.16665 15.7461L9.16666 18.4483L12.5 18.4483L12.5 15.7461L9.16665 15.7461ZM14.3804 16.7817H12.8333V20.115H14.3804V16.7817ZM16.8811 13.4301L13.1771 17.2951L15.5837 19.6015L19.2877 15.7365L16.8811 13.4301ZM14.3804 14.1738C15.3311 14.1738 16.1797 14.6768 16.6693 15.4638L19.4996 13.7029C18.4366 11.9944 16.5477 10.8405 14.3804 10.8405V14.1738ZM13.0549 14.5284C13.4465 14.3023 13.8969 14.1738 14.3804 14.1738V10.8405C13.2941 10.8405 12.2711 11.132 11.3884 11.6415L13.0549 14.5284ZM14.5 15.7461C14.5 14.5328 14.2201 13.3806 13.7196 12.3544L10.7236 13.8155C11.0068 14.3963 11.1667 15.0498 11.1667 15.7461H14.5ZM14.5 18.4483L14.5 15.7461L11.1667 15.7461L11.1667 18.4483L14.5 18.4483ZM6.66669 12.0833C9.09097 12.0833 10.8334 9.99646 10.8334 7.70833H7.50002C7.50002 8.41175 7.00383 8.75 6.66669 8.75V12.0833ZM2.50002 7.70833C2.50002 9.99646 4.2424 12.0833 6.66669 12.0833V8.75C6.32955 8.75 5.83335 8.41175 5.83335 7.70833H2.50002ZM6.66669 3.33333C4.2424 3.33333 2.50002 5.42021 2.50002 7.70833H5.83335C5.83335 7.00492 6.32955 6.66667 6.66669 6.66667V3.33333ZM10.8334 7.70833C10.8334 5.42021 9.09097 3.33333 6.66669 3.33333V6.66667C7.00383 6.66667 7.50002 7.00492 7.50002 7.70833H10.8334Z" fill="black" mask="url(#path-1-inside-1)"/>
<path d="M19 10C19 14.9706 14.9706 19 10 19C5.02944 19 1 14.9706 1 10C1 5.02944 5.02944 1 10 1C14.9706 1 19 5.02944 19 10Z" stroke="black" stroke-width="2"/>
</svg>
