<svg width="20" height="20" viewBox="0 0 20 20" fill="none" xmlns="http://www.w3.org/2000/svg">
<path fill-rule="evenodd" clip-rule="evenodd" d="M20 10C20 15.5228 15.5228 20 10 20C4.47715 20 0 15.5228 0 10C0 4.47715 4.47715 0 10 0C15.5228 0 20 4.47715 20 10ZM8.52525 4.00581C9.07433 4.06524 9.47127 4.55853 9.41184 5.10761L9.22345 6.84821H11.3843L11.596 4.89239C11.6554 4.34332 12.1487 3.94638 12.6978 4.00581C13.2469 4.06524 13.6438 4.55853 13.5844 5.10761L13.396 6.84821H14.3C14.8523 6.84821 15.3 7.29592 15.3 7.84821C15.3 8.40049 14.8523 8.84821 14.3 8.84821H13.1795L12.9319 11.1362H14.3C14.8523 11.1362 15.3 11.5839 15.3 12.1362C15.3 12.6884 14.8523 13.1362 14.3 13.1362H12.7154L12.502 15.1076C12.4426 15.6567 11.9493 16.0536 11.4002 15.9942C10.8512 15.9348 10.4542 15.4415 10.5136 14.8924L10.7037 13.1362H8.54287L8.32949 15.1076C8.27006 15.6567 7.77677 16.0536 7.22769 15.9942C6.67861 15.9348 6.28167 15.4415 6.3411 14.8924L6.53119 13.1362H5.5C4.94772 13.1362 4.5 12.6884 4.5 12.1362C4.5 11.5839 4.94772 11.1362 5.5 11.1362H6.74766L6.9953 8.84821H5.93922C5.38693 8.84821 4.93922 8.40049 4.93922 7.84821C4.93922 7.29592 5.38693 6.84821 5.93922 6.84821H7.21177L7.42345 4.89239C7.48288 4.34332 7.97618 3.94638 8.52525 4.00581ZM8.75934 11.1362H10.9202L11.1678 8.84821H9.00698L8.75934 11.1362Z" fill="black"/>
</svg>
