<svg width="24" height="24" viewBox="0 0 24 24" fill="none" xmlns="http://www.w3.org/2000/svg">
<path fill-rule="evenodd" clip-rule="evenodd" d="M22 12C22 17.5228 17.5228 22 12 22C6.47715 22 2 17.5228 2 12C2 6.47715 6.47715 2 12 2C17.5228 2 22 6.47715 22 12ZM10.5253 6.00581C11.0743 6.06524 11.4713 6.55853 11.4118 7.10761L11.2234 8.84821H13.3843L13.596 6.89239C13.6554 6.34332 14.1487 5.94638 14.6978 6.00581C15.2469 6.06524 15.6438 6.55853 15.5844 7.10761L15.396 8.84821H16.3C16.8523 8.84821 17.3 9.29592 17.3 9.84821C17.3 10.4005 16.8523 10.8482 16.3 10.8482H15.1795L14.9319 13.1362H16.3C16.8523 13.1362 17.3 13.5839 17.3 14.1362C17.3 14.6884 16.8523 15.1362 16.3 15.1362H14.7154L14.502 17.1076C14.4426 17.6567 13.9493 18.0536 13.4002 17.9942C12.8512 17.9348 12.4542 17.4415 12.5136 16.8924L12.7037 15.1362H10.5429L10.3295 17.1076C10.2701 17.6567 9.77677 18.0536 9.22769 17.9942C8.67861 17.9348 8.28167 17.4415 8.3411 16.8924L8.53119 15.1362H7.5C6.94772 15.1362 6.5 14.6884 6.5 14.1362C6.5 13.5839 6.94772 13.1362 7.5 13.1362H8.74766L8.9953 10.8482H7.93922C7.38693 10.8482 6.93922 10.4005 6.93922 9.84821C6.93922 9.29592 7.38693 8.84821 7.93922 8.84821H9.21177L9.42345 6.89239C9.48288 6.34332 9.97618 5.94638 10.5253 6.00581ZM10.7593 13.1362H12.9202L13.1678 10.8482H11.007L10.7593 13.1362Z" fill="black"/>
</svg>
