<svg width="25" height="25" viewBox="0 0 25 25" fill="none" xmlns="http://www.w3.org/2000/svg">
<path fill-rule="evenodd" clip-rule="evenodd" d="M22.5 12.5C22.5 18.0228 18.0228 22.5 12.5 22.5C6.97715 22.5 2.5 18.0228 2.5 12.5C2.5 6.97715 6.97715 2.5 12.5 2.5C18.0228 2.5 22.5 6.97715 22.5 12.5ZM11.0253 6.50581C11.5743 6.56524 11.9713 7.05853 11.9118 7.60761L11.7234 9.34821H13.8843L14.096 7.39239C14.1554 6.84332 14.6487 6.44638 15.1978 6.50581C15.7469 6.56524 16.1438 7.05853 16.0844 7.60761L15.896 9.34821H16.8C17.3523 9.34821 17.8 9.79592 17.8 10.3482C17.8 10.9005 17.3523 11.3482 16.8 11.3482H15.6795L15.4319 13.6362H16.8C17.3523 13.6362 17.8 14.0839 17.8 14.6362C17.8 15.1884 17.3523 15.6362 16.8 15.6362H15.2154L15.002 17.6076C14.9426 18.1567 14.4493 18.5536 13.9002 18.4942C13.3512 18.4348 12.9542 17.9415 13.0136 17.3924L13.2037 15.6362H11.0429L10.8295 17.6076C10.7701 18.1567 10.2768 18.5536 9.72769 18.4942C9.17861 18.4348 8.78167 17.9415 8.8411 17.3924L9.03119 15.6362H8C7.44772 15.6362 7 15.1884 7 14.6362C7 14.0839 7.44772 13.6362 8 13.6362H9.24766L9.4953 11.3482H8.43922C7.88693 11.3482 7.43922 10.9005 7.43922 10.3482C7.43922 9.79592 7.88693 9.34821 8.43922 9.34821H9.71177L9.92345 7.39239C9.98288 6.84332 10.4762 6.44638 11.0253 6.50581ZM11.2593 13.6362H13.4202L13.6678 11.3482H11.507L11.2593 13.6362Z" fill="black"/>
</svg>
