<svg width="24" height="24" viewBox="0 0 24 24" fill="none" xmlns="http://www.w3.org/2000/svg">
<mask id="path-1-inside-1" fill="white">
<path fill-rule="evenodd" clip-rule="evenodd" d="M22 12C22 17.5228 17.5228 22 12 22C6.47715 22 2 17.5228 2 12C2 6.47715 6.47715 2 12 2C17.5228 2 22 6.47715 22 12ZM16.3804 13.412C17.59 13.412 18.5705 12.3498 18.5705 11.0394C18.5705 9.72896 17.59 8.66667 16.3804 8.66667C15.1708 8.66667 14.1902 9.72896 14.1902 11.0394C14.1902 12.3498 15.1708 13.412 16.3804 13.412ZM12.8333 17.7461C12.8333 15.7941 11.4623 14.1623 9.63071 13.7611C9.31877 13.6991 8.99645 13.6667 8.66667 13.6667C6.66814 13.6667 4.94347 14.8594 4.14307 16.5833L7.83334 20.4483H12.8333L12.8333 17.7461ZM14.8333 20.4483H16.3804L20.0844 16.5833C19.3081 15.3356 17.9394 14.5071 16.3804 14.5071C15.5955 14.5071 14.8588 14.7171 14.2216 15.0849C14.6134 15.8884 14.8333 16.7913 14.8333 17.7461L14.8333 20.4483ZM11.1667 9.70833C11.1667 11.2041 10.0474 12.4167 8.66669 12.4167C7.28597 12.4167 6.16669 11.2041 6.16669 9.70833C6.16669 8.21256 7.28597 7 8.66669 7C10.0474 7 11.1667 8.21256 11.1667 9.70833Z"/>
</mask>
<path fill-rule="evenodd" clip-rule="evenodd" d="M22 12C22 17.5228 17.5228 22 12 22C6.47715 22 2 17.5228 2 12C2 6.47715 6.47715 2 12 2C17.5228 2 22 6.47715 22 12ZM16.3804 13.412C17.59 13.412 18.5705 12.3498 18.5705 11.0394C18.5705 9.72896 17.59 8.66667 16.3804 8.66667C15.1708 8.66667 14.1902 9.72896 14.1902 11.0394C14.1902 12.3498 15.1708 13.412 16.3804 13.412ZM12.8333 17.7461C12.8333 15.7941 11.4623 14.1623 9.63071 13.7611C9.31877 13.6991 8.99645 13.6667 8.66667 13.6667C6.66814 13.6667 4.94347 14.8594 4.14307 16.5833L7.83334 20.4483H12.8333L12.8333 17.7461ZM14.8333 20.4483H16.3804L20.0844 16.5833C19.3081 15.3356 17.9394 14.5071 16.3804 14.5071C15.5955 14.5071 14.8588 14.7171 14.2216 15.0849C14.6134 15.8884 14.8333 16.7913 14.8333 17.7461L14.8333 20.4483ZM11.1667 9.70833C11.1667 11.2041 10.0474 12.4167 8.66669 12.4167C7.28597 12.4167 6.16669 11.2041 6.16669 9.70833C6.16669 8.21256 7.28597 7 8.66669 7C10.0474 7 11.1667 8.21256 11.1667 9.70833Z" fill="black"/>
<path d="M9.63071 13.7611L9.9873 12.1331L9.97144 12.1296L9.95552 12.1264L9.63071 13.7611ZM12.8333 17.7461H11.1667V17.7461L12.8333 17.7461ZM4.14307 16.5833L2.63139 15.8815L2.15278 16.9123L2.93762 17.7343L4.14307 16.5833ZM7.83334 20.4483L6.62789 21.5993L7.1203 22.115H7.83334V20.4483ZM12.8333 20.4483V22.115H14.5L14.5 20.4483L12.8333 20.4483ZM16.3804 20.4483V22.115H17.0916L17.5837 21.6015L16.3804 20.4483ZM14.8333 20.4483L13.1667 20.4483L13.1667 22.115H14.8333V20.4483ZM20.0844 16.5833L21.2877 17.7365L22.1834 16.802L21.4996 15.7029L20.0844 16.5833ZM14.2216 15.0849L13.3884 13.6415L12.0423 14.4185L12.7236 15.8155L14.2216 15.0849ZM14.8333 17.7461H13.1667V17.7461L14.8333 17.7461ZM12 23.6667C18.4433 23.6667 23.6667 18.4433 23.6667 12H20.3333C20.3333 16.6024 16.6024 20.3333 12 20.3333V23.6667ZM0.333333 12C0.333333 18.4433 5.55668 23.6667 12 23.6667V20.3333C7.39763 20.3333 3.66667 16.6024 3.66667 12H0.333333ZM12 0.333333C5.55668 0.333333 0.333333 5.55668 0.333333 12H3.66667C3.66667 7.39763 7.39763 3.66667 12 3.66667V0.333333ZM23.6667 12C23.6667 5.55668 18.4433 0.333333 12 0.333333V3.66667C16.6024 3.66667 20.3333 7.39763 20.3333 12H23.6667ZM16.9039 11.0394C16.9039 11.5574 16.5464 11.7454 16.3804 11.7454V15.0787C18.6335 15.0787 20.2372 13.1421 20.2372 11.0394H16.9039ZM16.3804 10.3333C16.5464 10.3333 16.9039 10.5213 16.9039 11.0394H20.2372C20.2372 8.9366 18.6335 7.00001 16.3804 7.00001V10.3333ZM15.8569 11.0394C15.8569 10.5213 16.2143 10.3333 16.3804 10.3333V7.00001C14.1272 7.00001 12.5235 8.9366 12.5235 11.0394H15.8569ZM16.3804 11.7454C16.2143 11.7454 15.8569 11.5574 15.8569 11.0394H12.5235C12.5235 13.1421 14.1272 15.0787 16.3804 15.0787V11.7454ZM9.27412 15.3892C10.357 15.6264 11.1667 16.5936 11.1667 17.7461H14.5C14.5 14.9945 12.5676 12.6982 9.9873 12.1331L9.27412 15.3892ZM8.66667 15.3333C8.88675 15.3333 9.10029 15.355 9.3059 15.3958L9.95552 12.1264C9.53724 12.0433 9.10614 12 8.66667 12V15.3333ZM5.65474 17.2852C6.19734 16.1166 7.3526 15.3333 8.66667 15.3333V12C5.98369 12 3.68961 13.6023 2.63139 15.8815L5.65474 17.2852ZM9.03878 19.2974L5.34851 15.4324L2.93762 17.7343L6.62789 21.5993L9.03878 19.2974ZM12.8333 18.7817H7.83334V22.115H12.8333V18.7817ZM11.1667 17.7461L11.1667 20.4483L14.5 20.4483L14.5 17.7461L11.1667 17.7461ZM16.3804 18.7817H14.8333V22.115H16.3804V18.7817ZM18.8811 15.4301L15.1771 19.2951L17.5837 21.6015L21.2877 17.7365L18.8811 15.4301ZM16.3804 16.1738C17.3311 16.1738 18.1797 16.6768 18.6693 17.4638L21.4996 15.7029C20.4366 13.9944 18.5477 12.8405 16.3804 12.8405V16.1738ZM15.0549 16.5284C15.4465 16.3023 15.8969 16.1738 16.3804 16.1738V12.8405C15.2941 12.8405 14.2711 13.132 13.3884 13.6415L15.0549 16.5284ZM16.5 17.7461C16.5 16.5328 16.2201 15.3806 15.7196 14.3544L12.7236 15.8155C13.0068 16.3963 13.1667 17.0498 13.1667 17.7461H16.5ZM16.5 20.4483L16.5 17.7461L13.1667 17.7461L13.1667 20.4483L16.5 20.4483ZM8.66669 14.0833C11.091 14.0833 12.8334 11.9965 12.8334 9.70833H9.50002C9.50002 10.4117 9.00383 10.75 8.66669 10.75V14.0833ZM4.50002 9.70833C4.50002 11.9965 6.2424 14.0833 8.66669 14.0833V10.75C8.32955 10.75 7.83335 10.4117 7.83335 9.70833H4.50002ZM8.66669 5.33333C6.2424 5.33333 4.50002 7.42021 4.50002 9.70833H7.83335C7.83335 9.00492 8.32955 8.66667 8.66669 8.66667V5.33333ZM12.8334 9.70833C12.8334 7.42021 11.091 5.33333 8.66669 5.33333V8.66667C9.00383 8.66667 9.50002 9.00492 9.50002 9.70833H12.8334Z" fill="black" mask="url(#path-1-inside-1)"/>
<path d="M21 12C21 16.9706 16.9706 21 12 21C7.02944 21 3 16.9706 3 12C3 7.02944 7.02944 3 12 3C16.9706 3 21 7.02944 21 12Z" stroke="black" stroke-width="2"/>
</svg>
