<svg width="18" height="18" viewBox="0 0 18 18" fill="none" xmlns="http://www.w3.org/2000/svg">
<path fill-rule="evenodd" clip-rule="evenodd" d="M3 0C1.34315 0 0 1.34315 0 3V10C0 11.6569 1.34315 13 3 13H5V15C5 16.6569 6.34315 18 8 18H15C16.6569 18 18 16.6569 18 15V8C18 6.34315 16.6569 5 15 5H13V3C13 1.34315 11.6569 0 10 0H3ZM11 5V3C11 2.44772 10.5523 2 10 2H3C2.44772 2 2 2.44772 2 3V10C2 10.5523 2.44772 11 3 11H5V8C5 6.34315 6.34315 5 8 5H11ZM7 8C7 7.44772 7.44772 7 8 7H15C15.5523 7 16 7.44772 16 8V15C16 15.5523 15.5523 16 15 16H8C7.44772 16 7 15.5523 7 15V8Z" fill="#737D8C"/>
</svg>