<svg width="32" height="32" viewBox="0 0 32 32" fill="none" xmlns="http://www.w3.org/2000/svg">
  <g clip-path="url(#clip0_721_35674)">
  <path d="M5.33333 9.33313C5.33333 8.5998 5.93333 7.9998 6.66667 7.9998H28C28.7333 7.9998 29.3333 7.3998 29.3333 6.66646C29.3333 5.93313 28.7333 5.33313 28 5.33313H5.33333C3.86667 5.33313 2.66667 6.53313 2.66667 7.9998V22.6665H2C0.893333 22.6665 0 23.5598 0 24.6665C0 25.7731 0.893333 26.6665 2 26.6665H18.6667V22.6665H5.33333V9.33313ZM30.6667 10.6665H22.6667C21.9333 10.6665 21.3333 11.2665 21.3333 11.9998V25.3331C21.3333 26.0665 21.9333 26.6665 22.6667 26.6665H30.6667C31.4 26.6665 32 26.0665 32 25.3331V11.9998C32 11.2665 31.4 10.6665 30.6667 10.6665ZM29.3333 22.6665H24V13.3331H29.3333V22.6665Z" fill="currentColor"/>
  </g>
  <defs>
  <clipPath id="clip0_721_35674">
  <rect width="32" height="32" fill="white"/>
  </clipPath>
  </defs>
  </svg>
  