<svg width="40" height="29" viewBox="0 0 40 29" fill="none" xmlns="http://www.w3.org/2000/svg">
<path fill-rule="evenodd" clip-rule="evenodd" d="M0.260962 2.57584L18.9049 21.1615C19.5449 21.7995 20.5805 21.7995 21.2205 21.1615L39.7726 2.66735C39.9199 3.08419 40 3.53274 40 4V25C40 27.2091 38.2091 29 36 29H4C1.79086 29 0 27.2091 0 25V4C0 3.49835 0.0923447 3.01827 0.260962 2.57584ZM2.58227 0.258515C3.02293 0.0914515 3.50079 0 4 0H36C36.5334 0 37.0424 0.104395 37.5077 0.293868L20.0627 17.6843L2.58227 0.258515Z" fill="#737D8C"/>
</svg>
