<svg viewBox="0 0 57 46" width="57" height="46" xmlns="http://www.w3.org/2000/svg">
    <path fill="#737d8c" d="M 4,17 C 3.500492,17 3.024855,17.09642 2.583984,17.263672 L 20,34.679688 37.416016,17.263672 C 36.975147,17.096421 36.499499,17 36,17 Z M 0.263672,19.583984 C 0.096421,20.024855 0,20.500492 0,21 v 21 c 0,2.2091 1.79086,4 4,4 h 32 c 2.2091,0 4,-1.7909 4,-4 V 21 c 0,-0.499508 -0.09642,-0.975145 -0.263672,-1.416016 L 21.160156,38.160156 a 1.640164,1.640164 0 0 1 -0.533203,0.355469 1.640164,1.640164 0 0 1 -0.626953,0.125 1.640164,1.640164 0 0 1 -0.626953,-0.125 1.640164,1.640164 0 0 1 -0.533203,-0.355469 z" />
    <path fill="#0dbd8b" fill-opacity="0.1" d="m 57,16 a 16,16 0 0 1 -16,16 16,16 0 0 1 -16,-16 16,16 0 0 1 16,-16 16,16 0 0 1 16,16 z" />
    <path fill="#ffffff" d="m 53,16 a 12,12 0 0 1 -12,12 12,12 0 0 1 -12,-12 12,12 0 0 1 12,-12 12,12 0 0 1 12,12 z" />
    <path fill="#0dbd8b" d="m 49,16 a 8,8 0 0 1 -8,8 8,8 0 0 1 -8,-8 8,8 0 0 1 8,-8 8,8 0 0 1 8,8 z" />
</svg>
