<svg width="32" height="32" viewBox="0 0 32 32" fill="none" xmlns="http://www.w3.org/2000/svg">
<path fill-rule="evenodd" clip-rule="evenodd" d="M13.7701 16.617H22.3721L18.614 20.3751C18.3137 20.6754 18.3137 21.1683 18.614 21.4686C18.9143 21.769 19.3995 21.769 19.6998 21.4686L24.7747 16.3937C25.0751 16.0934 25.0751 15.6082 24.7747 15.3079L19.7075 10.2253C19.4072 9.92492 18.922 9.92492 18.6217 10.2253C18.3214 10.5256 18.3214 11.0107 18.6217 11.3111L22.3721 15.0768H13.7701C13.3465 15.0768 13 15.4234 13 15.8469C13 16.2705 13.3465 16.617 13.7701 16.617Z" fill="#86888A"/>
<rect x="7" y="10" width="1.5" height="12" rx="0.75" fill="#86888A"/>
</svg>
