<svg width="16" height="16" viewBox="0 0 16 16" fill="none" xmlns="http://www.w3.org/2000/svg">
    <path fill-rule="evenodd" clip-rule="evenodd" d="M14.3094 5.96587C15.3206 7.15704 15.3417 8.85457 14.3412 10.0548C13.0889 11.5571 10.9822 13.3332 8.02104 13.3332C5.05992 13.3332 2.9532 11.5571 1.70087 10.0548C0.700398 8.85457 0.721506 7.15704 1.7327 5.96587C3.01174 4.45918 5.1391 2.6665 8.02104 2.6665C10.903 2.6665 13.0303 4.45918 14.3094 5.96587ZM11.5556 7.99984C11.5556 9.96352 9.96369 11.5554 8.00001 11.5554C6.03633 11.5554 4.44446 9.96352 4.44446 7.99984C4.44446 6.03616 6.03633 4.44428 8.00001 4.44428C9.96369 4.44428 11.5556 6.03616 11.5556 7.99984ZM8.00001 9.77761C8.98185 9.77761 9.77779 8.98168 9.77779 7.99984C9.77779 7.018 8.98185 6.22206 8.00001 6.22206C7.01817 6.22206 6.22224 7.018 6.22224 7.99984C6.22224 8.98168 7.01817 9.77761 8.00001 9.77761Z" fill="white"/>
</svg>
