<svg xmlns="http://www.w3.org/2000/svg" width="19.977" height="22.975" fill="none"><path fill="currentColor" d="M10.001 22.975c2.649 0 4.922-.88 6.82-2.64 1.899-1.759 2.95-3.935 3.153-6.528a.728.728 0 0 0-.208-.583.786.786 0 0 0-.597-.25.776.776 0 0 0-.57.236 1.044 1.044 0 0 0-.291.597c-.204 2.13-1.093 3.913-2.667 5.348-1.575 1.435-3.454 2.153-5.64 2.153-2.315 0-4.283-.81-5.903-2.43-1.62-1.621-2.431-3.59-2.431-5.904 0-2.315.787-4.283 2.361-5.904 1.574-1.62 3.52-2.43 5.834-2.43h.611L9.03 6.083a.8.8 0 0 0-.25.583.8.8 0 0 0 .25.584.8.8 0 0 0 .583.25.8.8 0 0 0 .584-.25l2.917-2.917a.846.846 0 0 0 .194-.278.817.817 0 0 0 .056-.306.817.817 0 0 0-.056-.305.846.846 0 0 0-.194-.278L10.168.222A.754.754 0 0 0 9.612 0a.85.85 0 0 0-.583.222.85.85 0 0 0-.222.584c0 .222.074.407.222.555l1.611 1.612h-.639c-1.389 0-2.69.259-3.903.777a10.021 10.021 0 0 0-3.181 2.14 10.022 10.022 0 0 0-2.14 3.18A9.824 9.824 0 0 0 0 12.974c0 1.389.26 2.69.778 3.903a10.021 10.021 0 0 0 2.139 3.18 10.02 10.02 0 0 0 3.18 2.14 9.824 9.824 0 0 0 3.904.778z"/><path fill="currentColor" d="M7.017 16.914c-.46 0-.87-.078-1.227-.236a2.052 2.052 0 0 1-.844-.658 1.707 1.707 0 0 1-.33-.975h1.202c.011.177.07.331.176.463.107.13.248.231.425.304.177.072.375.108.595.108.234 0 .442-.04.623-.12.181-.084.323-.2.425-.346a.85.85 0 0 0 .15-.508.882.882 0 0 0-.153-.524 1.026 1.026 0 0 0-.454-.355 1.775 1.775 0 0 0-.71-.128h-.578v-.914h.578c.228 0 .428-.04.598-.118a.967.967 0 0 0 .406-.333.856.856 0 0 0 .144-.502.872.872 0 0 0-.125-.482.841.841 0 0 0-.355-.323 1.166 1.166 0 0 0-.533-.115c-.2 0-.386.036-.556.109-.17.072-.308.175-.413.31a.786.786 0 0 0-.166.473h-1.14a1.66 1.66 0 0 1 .315-.965 2.04 2.04 0 0 1 .819-.652c.34-.158.723-.237 1.147-.237.437 0 .816.082 1.138.246.324.162.574.38.75.655.178.275.266.579.266.911.002.369-.106.678-.326.927a1.53 1.53 0 0 1-.856.489v.051c.46.064.812.235 1.057.511.248.275.37.617.368 1.026 0 .367-.104.695-.313.985a2.076 2.076 0 0 1-.857.677 2.991 2.991 0 0 1-1.246.246zm5.498.036c-.526 0-.978-.134-1.355-.4-.375-.268-.664-.655-.866-1.16-.2-.507-.3-1.118-.3-1.831.001-.714.103-1.321.303-1.822.202-.503.491-.886.866-1.15.377-.265.828-.397 1.352-.397.524 0 .975.132 1.352.396.377.265.666.648.866 1.15.202.504.304 1.111.304 1.823 0 .716-.102 1.327-.304 1.834-.2.505-.489.89-.866 1.157-.375.266-.826.4-1.352.4zm0-1c.409 0 .732-.202.968-.605.239-.405.358-1 .358-1.786 0-.52-.054-.957-.163-1.31-.108-.354-.262-.62-.46-.8a1.008 1.008 0 0 0-.703-.271c-.407 0-.729.202-.965.607-.237.403-.356.994-.358 1.774-.002.522.05.96.156 1.316.109.356.262.625.46.806.199.179.434.268.707.268z"/></svg>