<svg viewBox="0 0 24 24" xmlns="http://www.w3.org/2000/svg">
    <path d="M 12 2 C 6.4771555 2 2 6.4771555 2 12 C 2 17.522794 6.4771555 22 12 22 C 17.522794 22 22 17.522794 22 12 C 22 6.4771555 17.522794 2 12 2 z M 8.6660156 7 C 10.046724 7 11.166016 8.2132159 11.166016 9.7089844 C 11.166016 11.204753 10.046724 12.416016 8.6660156 12.416016 C 7.285297 12.416016 6.1660156 11.204753 6.1660156 9.7089844 C 6.1660156 8.2132159 7.285297 7 8.6660156 7 z M 16.380859 8.6660156 C 17.590458 8.6660156 18.570312 9.7286238 18.570312 11.039062 C 18.570312 12.349461 17.590458 13.412109 16.380859 13.412109 C 15.171261 13.412109 14.189453 12.349461 14.189453 11.039062 C 14.189453 9.7286238 15.171261 8.6660156 16.380859 8.6660156 z M 8.6660156 13.666016 C 8.995795 13.666016 9.31892 13.699719 9.6308594 13.761719 C 11.462446 14.162917 12.833984 15.794098 12.833984 17.746094 L 12.833984 19.957031 C 12.560013 19.985187 12.281622 20 12 20 C 8.8339434 20 6.1088101 18.175143 4.8105469 15.517578 C 5.7276213 14.387632 7.1130646 13.666016 8.6660156 13.666016 z M 16.380859 14.507812 C 17.445748 14.507812 18.420522 14.894445 19.179688 15.537109 C 18.289454 17.346828 16.737071 18.766824 14.833984 19.484375 L 14.833984 17.746094 C 14.833984 16.791296 14.612503 15.887484 14.220703 15.083984 C 14.857901 14.716186 15.595961 14.507812 16.380859 14.507812 z" />
</svg>
