<svg width="18" height="18" viewBox="0 0 18 18" fill="none" xmlns="http://www.w3.org/2000/svg">
<path fill-rule="evenodd" clip-rule="evenodd" d="M2.33301 7.28322V14.9493C2.33301 16.0735 3.25744 16.9776 4.38152 16.9659C4.90089 16.9605 5.44431 16.9567 6 16.9543V11.5C6 10.6716 6.67157 10 7.5 10H10.5C11.3284 10 12 10.6716 12 11.5V16.9662C12.6022 16.9703 13.1579 16.9748 13.6449 16.9791C14.7592 16.989 15.6663 16.0899 15.6663 14.9756V7.28178C15.6663 6.89062 15.4946 6.52064 15.1965 6.2673L9.97115 1.82572C9.411 1.3496 8.58834 1.3496 8.0282 1.82572L2.80281 6.2673C2.50477 6.52064 2.33301 6.89206 2.33301 7.28322Z" fill="#737D8C"/>
</svg>
