<svg width="24" height="24" viewBox="0 0 24 24" fill="none" xmlns="http://www.w3.org/2000/svg">
    <path d="M20.2804 7.90031L13.2804 2.06697C12.5387 1.4489 11.4613 1.4489 10.7196 2.06698L3.71963 7.90031C3.26365 8.28029 3 8.84319 3 9.43675V20.5C3 21.6046 3.89543 22.5 5 22.5H7C8.10457 22.5 9 21.6046 9 20.5V16C9 14.8954 9.89543 14 11 14H13C14.1046 14 15 14.8954 15 16V20.5C15 21.6046 15.8954 22.5 17 22.5H19C20.1046 22.5 21 21.6046 21 20.5V9.43675C21 8.84319 20.7364 8.28029 20.2804 7.90031Z" fill="currentColor"/>
</svg>
