<?xml version="1.0" encoding="UTF-8" standalone="no"?>
<svg
   width="21.799"
   height="21.799"
   viewBox="0 0 21.799 21.799"
   fill="none"
   version="1.1"
   xmlns="http://www.w3.org/2000/svg"
   xmlns:svg="http://www.w3.org/2000/svg">
  <path
     d="m 19.188575,3.0855891 c -0.3391,-0.43594 -0.9674,-0.51448 -1.4033,-0.17541 -0.4355,0.3387 -0.5143,0.96596 -0.1766,1.40185 l 8e-4,9.8e-4 0.001,0.00129 0.0136,0.01816 c 0.0133,0.0178 0.0346,0.04686 0.0629,0.0867 0.0566,0.07972 0.1408,0.20227 0.2435,0.36368 0.2058,0.32333 0.4838,0.79947 0.7625,1.39672 0.5603,1.20054 1.1062,2.85339 1.1062,4.7199899 0,1.8666 -0.5459,3.5194 -1.1062,4.72 -0.2787,0.5972 -0.5567,1.0733 -0.7625,1.3967 -0.1027,0.1614 -0.1869,0.2839 -0.2435,0.3637 -0.0283,0.0398 -0.0496,0.0689 -0.0629,0.0867 l -0.0136,0.0181 -0.001,0.0013 -9e-4,0.0012 c -0.3376,0.4358 -0.2587,1.063 0.1767,1.4016 0.4359,0.3391 1.0642,0.2606 1.4033,-0.1754 l -0.7453,-0.5796 c 0.7453,0.5796 0.7453,0.5796 0.7453,0.5796 l 0.002,-0.0025 0.0028,-0.0038 0.0083,-0.0108 0.0265,-0.0352 c 0.0219,-0.0294 0.0521,-0.0707 0.0895,-0.1232 0.0746,-0.1051 0.1779,-0.2558 0.3002,-0.448 0.2442,-0.3838 0.5662,-0.9362 0.8875,-1.6247 0.6397,-1.3709 1.2938,-3.318 1.2938,-5.5657 0,-2.2477199 -0.6541,-4.1948699 -1.2938,-5.5657599 -0.3213,-0.68846 -0.6433,-1.2409 -0.8875,-1.6247 -0.1223,-0.19217 -0.2256,-0.34283 -0.3002,-0.44793 -0.0374,-0.05258 -0.0676,-0.09382 -0.0895,-0.12323 l -0.0265,-0.03521 -0.0083,-0.01085 -0.0028,-0.00371 -0.0012,-0.00143 c 0,0 -8e-4,-0.00114 -0.7902,0.6128 z"
     fill="currentColor" />
  <path
     d="m 16.589375,6.6858091 c -0.339,-0.43595 -0.9673,-0.51448 -1.4033,-0.17541 -0.4348,0.33819 -0.514,0.96407 -0.178,1.39987 l 0.0034,0.00458 c 0.0045,0.00599 0.0129,0.01748 0.0248,0.03422 0.0238,0.03351 0.0612,0.08776 0.1076,0.16077 0.0933,0.14655 0.2213,0.36554 0.35,0.64137 0.2603,0.55764 0.5062,1.3105399 0.5062,2.1485399 0,0.838 -0.2459,1.5909 -0.5062,2.1485 -0.1287,0.2759 -0.2567,0.4949 -0.35,0.6414 -0.0464,0.073 -0.0838,0.1273 -0.1076,0.1608 -0.0119,0.0167 -0.0203,0.0282 -0.0248,0.0342 l -0.0034,0.0046 c -0.336,0.4358 -0.2568,1.0617 0.178,1.3999 0.436,0.339 1.0643,0.2605 1.4033,-0.1755 l -0.7893,-0.6139 c 0.7893,0.6139 0.7893,0.6139 0.7893,0.6139 l 0.0018,-0.0022 0.0022,-0.0029 0.0058,-0.0075 0.0164,-0.0219 c 0.0131,-0.0176 0.0305,-0.0412 0.0514,-0.0707 0.0418,-0.0589 0.0982,-0.1413 0.1643,-0.245 0.1317,-0.2071 0.3037,-0.5024 0.475,-0.8694 0.3397,-0.728 0.6938,-1.7752 0.6938,-2.9943 0,-1.2190999 -0.3541,-2.2662799 -0.6938,-2.9943099 -0.1713,-0.36703 -0.3433,-0.66233 -0.475,-0.86935 -0.0661,-0.10377 -0.1225,-0.18613 -0.1643,-0.24503 -0.0209,-0.02947 -0.0383,-0.05314 -0.0514,-0.07074 l -0.0164,-0.02187 -0.0058,-0.00748 -0.0022,-0.00287 -9e-4,-0.00122 c 0,0 -9e-4,-0.00107 -0.7902,0.61287 z"
     fill="currentColor" />
  <path
     d="m 2.6104749,18.713449 c 0.33907,0.4359 0.96734,0.5144 1.40329,0.1754 0.43547,-0.3387 0.5143,-0.966 0.17653,-1.4019 l -7.6e-4,-10e-4 -9.7e-4,-0.0013 -0.01365,-0.0181 c -0.01325,-0.0178 -0.0346,-0.0469 -0.06289,-0.0867 -0.05661,-0.0797 -0.14082,-0.2023 -0.24354,-0.3637 -0.20576,-0.3233 -0.48376,-0.7995 -0.76248,-1.3967 -0.56025,-1.2006 -1.10618,-2.8534 -1.10618,-4.72 0,-1.8665999 0.54593,-3.5194099 1.10618,-4.7199499 0.27872,-0.59726 0.55672,-1.07339 0.76248,-1.39673 0.10272,-0.1614 0.18693,-0.28396 0.24354,-0.36368 0.02829,-0.03983 0.04964,-0.0689 0.06289,-0.0867 l 0.01365,-0.01815 9.7e-4,-0.00129 9.1e-4,-0.00117 c 0.33761,-0.43588 0.25873,-1.06302 -0.17668,-1.40166 -0.43595,-0.33907 -1.06422,-0.26054 -1.40329,0.17541 l 0.74526,0.57964 c -0.74527,-0.57963 -0.74526,-0.57964 -0.74526,-0.57964 l -0.00199,0.00256 -0.00287,0.00372 -0.0083,0.01085 -0.02649,0.0352 c -0.0219,0.02941 -0.05212,0.07066 -0.08945,0.12323 -0.07464,0.10511 -0.17792,0.25577 -0.30021,0.44793 -0.24424,0.38381 -0.56624,0.93625 -0.88752,1.62471 -0.63975001,1.37088 -1.29382000681,3.31804 -1.29382000681,5.5657199 0,2.2477 0.65406999681,4.1949 1.29382000681,5.5658 0.32128,0.6884 0.64328,1.2409 0.88752,1.6247 0.12229,0.1921 0.22557,0.3428 0.30021,0.4479 0.03733,0.0526 0.06755,0.0938 0.08945,0.1232 l 0.02649,0.0352 0.0083,0.0109 0.00287,0.0037 0.0011,0.0014 c 0,0 8.9e-4,0.0012 0.79024,-0.6128 z"
     fill="currentColor" />
  <path
     d="m 5.2095949,15.113149 c 0.33907,0.436 0.96735,0.5145 1.40329,0.1754 0.43481,-0.3381 0.51407,-0.964 0.17806,-1.3998 l -0.00343,-0.0046 c -0.00447,-0.006 -0.01292,-0.0175 -0.0248,-0.0342 -0.0238,-0.0335 -0.06114,-0.0878 -0.10761,-0.1608 -0.09326,-0.1465 -0.22126,-0.3655 -0.34997,-0.6414 -0.26026,-0.5576 -0.50619,-1.3105 -0.50619,-2.1485 0,-0.838 0.24593,-1.5908999 0.50619,-2.1485499 0.12871,-0.27582 0.25671,-0.49481 0.34997,-0.64136 0.04647,-0.07302 0.08381,-0.12727 0.10761,-0.16078 0.01188,-0.01673 0.02033,-0.02822 0.0248,-0.03422 l 0.00344,-0.00458 c 0.336,-0.43581 0.25674,-1.06168 -0.17807,-1.39986 -0.43594,-0.33907 -1.06422,-0.26054 -1.40329,0.17541 l 0.78935,0.61394 c -0.78935,-0.61394 -0.78935,-0.61394 -0.78935,-0.61394 l -0.00177,0.00228 -0.00222,0.00287 -0.00572,0.00749 -0.01646,0.02186 c -0.01311,0.01761 -0.03044,0.04128 -0.05137,0.07075 -0.04182,0.0589 -0.09823,0.14125 -0.16427,0.24503 -0.13174,0.20702 -0.30374,0.50231 -0.47502,0.86934 -0.33975,0.72803 -0.69382,1.77522 -0.69382,2.9943199 0,1.2191 0.35407,2.2663 0.69382,2.9943 0.17128,0.367 0.34328,0.6623 0.47502,0.8694 0.06604,0.1037 0.12245,0.1861 0.16427,0.245 0.02093,0.0295 0.03826,0.0531 0.05137,0.0707 l 0.01646,0.0219 0.00572,0.0075 0.00222,0.0029 9.4e-4,0.0012 c 0,0 8.3e-4,10e-4 0.79018,-0.6129 z"
     fill="currentColor" />
  <circle
     cx="10.999774"
     cy="10.898949"
     r="2"
     fill="currentColor" />
</svg>
