<svg width="32" height="32" viewBox="0 0 32 32" fill="none" xmlns="http://www.w3.org/2000/svg">
<path fill-rule="evenodd" clip-rule="evenodd" d="M15.1113 2.6665C11.1839 2.6665 8.00016 5.85026 8.00016 9.77762V13.3332L7.3335 13.3332C6.22893 13.3332 5.3335 14.2286 5.3335 15.3332V27.3332C5.3335 28.4377 6.22893 29.3332 7.3335 29.3332H24.6668C25.7714 29.3332 26.6668 28.4377 26.6668 27.3332V15.3332C26.6668 14.2286 25.7714 13.3332 24.6668 13.3332L24.0002 13.3332V9.77762C24.0002 5.85026 20.8164 2.6665 16.8891 2.6665H15.1113ZM20.4446 13.3332V9.77762C20.4446 7.81394 18.8527 6.22206 16.8891 6.22206H15.1113C13.1476 6.22206 11.5557 7.81394 11.5557 9.77762V13.3332H20.4446Z" fill="#8E99A4"/>
</svg>
