<svg width="25" height="25" viewBox="0 0 25 25" fill="none" xmlns="http://www.w3.org/2000/svg">
<path fill-rule="evenodd" clip-rule="evenodd" d="M10.7375 20C10.6625 20.2 10.625 20.4 10.625 20.625C10.625 21.6625 11.4625 22.5 12.5 22.5C13.5375 22.5 14.375 21.6625 14.375 20.625C14.375 20.4 14.325 20.2 14.2625 20H10.7375Z" fill="black"/>
<path fill-rule="evenodd" clip-rule="evenodd" d="M20.1125 16.5625C19.3625 16.125 18.75 15.3875 18.75 14.25V10C18.75 6.55 15.8 3.75 12.5 3.75C9.2 3.75 6.25 6.55 6.25 10V14.25C6.25 15.375 5.625 16.125 4.8875 16.5625C4.3875 16.8625 3.75 17.275 3.75 17.775C3.75 18.35 4.1125 18.7375 4.8625 18.7375H12.5H20.1375C20.8875 18.7375 21.25 18.3375 21.25 17.775C21.25 17.275 20.625 16.8625 20.1125 16.5625Z" fill="black"/>
<path d="M12.5 5C13.1904 5 13.75 4.44036 13.75 3.75C13.75 3.05964 13.1904 2.5 12.5 2.5C11.8096 2.5 11.25 3.05964 11.25 3.75C11.25 4.44036 11.8096 5 12.5 5Z" fill="black"/>
</svg>
