<svg width="24" height="24" viewBox="0 0 24 24" fill="none" xmlns="http://www.w3.org/2000/svg">
<path fill-rule="evenodd" clip-rule="evenodd" d="M10.2375 19.5C10.1625 19.7 10.125 19.9 10.125 20.125C10.125 21.1625 10.9625 22 12 22C13.0375 22 13.875 21.1625 13.875 20.125C13.875 19.9 13.825 19.7 13.7625 19.5H10.2375Z" fill="black"/>
<path fill-rule="evenodd" clip-rule="evenodd" d="M19.6125 16.0625C18.8625 15.625 18.25 14.8875 18.25 13.75V9.5C18.25 6.05 15.3 3.25 12 3.25C8.7 3.25 5.75 6.05 5.75 9.5V13.75C5.75 14.875 5.125 15.625 4.3875 16.0625C3.8875 16.3625 3.25 16.775 3.25 17.275C3.25 17.85 3.6125 18.2375 4.3625 18.2375H12H19.6375C20.3875 18.2375 20.75 17.8375 20.75 17.275C20.75 16.775 20.125 16.3625 19.6125 16.0625Z" fill="black"/>
<path d="M12 4.5C12.6904 4.5 13.25 3.94036 13.25 3.25C13.25 2.55964 12.6904 2 12 2C11.3096 2 10.75 2.55964 10.75 3.25C10.75 3.94036 11.3096 4.5 12 4.5Z" fill="black"/>
</svg>
