<svg width="20" height="20" viewBox="0 0 20 20" fill="none" xmlns="http://www.w3.org/2000/svg">
<path fill-rule="evenodd" clip-rule="evenodd" d="M8.2375 17.5C8.1625 17.7 8.125 17.9 8.125 18.125C8.125 19.1625 8.9625 20 10 20C11.0375 20 11.875 19.1625 11.875 18.125C11.875 17.9 11.825 17.7 11.7625 17.5H8.2375Z" fill="black"/>
<path fill-rule="evenodd" clip-rule="evenodd" d="M17.6125 14.0625C16.8625 13.625 16.25 12.8875 16.25 11.75V7.5C16.25 4.05 13.3 1.25 10 1.25C6.7 1.25 3.75 4.05 3.75 7.5V11.75C3.75 12.875 3.125 13.625 2.3875 14.0625C1.8875 14.3625 1.25 14.775 1.25 15.275C1.25 15.85 1.6125 16.2375 2.3625 16.2375H10H17.6375C18.3875 16.2375 18.75 15.8375 18.75 15.275C18.75 14.775 18.125 14.3625 17.6125 14.0625Z" fill="black"/>
<path d="M10 2.5C10.6904 2.5 11.25 1.94036 11.25 1.25C11.25 0.559644 10.6904 0 10 0C9.30964 0 8.75 0.559644 8.75 1.25C8.75 1.94036 9.30964 2.5 10 2.5Z" fill="black"/>
</svg>
