<svg width="16" height="16" viewBox="0 0 16 16" fill="none" xmlns="http://www.w3.org/2000/svg">
<path fill-rule="evenodd" clip-rule="evenodd" d="M8.78269 2.78285C8.78269 2.35063 8.43231 2.00024 8.00009 2.00024C7.56787 2.00024 7.21748 2.35063 7.21748 2.78285V7.21748L2.78285 7.21748C2.35063 7.21748 2.00024 7.56787 2.00024 8.00009C2.00024 8.43231 2.35063 8.78269 2.78285 8.78269L7.21748 8.7827V13.2176C7.21748 13.6498 7.56787 14.0002 8.00009 14.0002C8.43231 14.0002 8.7827 13.6498 8.7827 13.2176V8.7827L13.2176 8.7827C13.6498 8.7827 14.0002 8.43231 14.0002 8.00009C14.0002 7.56787 13.6498 7.21749 13.2176 7.21749L8.78269 7.21748V2.78285Z" fill="currentColor"/>
</svg>
