<svg width="16" height="16" viewBox="0 0 16 16" fill="none" xmlns="http://www.w3.org/2000/svg">
    <path fill-rule="evenodd" clip-rule="evenodd" d="M8.74986 3.55554C8.74986 3.14133 8.41408 2.80554 7.99986 2.80554C7.58565 2.80554 7.24986 3.14133 7.24986 3.55554V7.24999L3.55542 7.24999C3.14121 7.24999 2.80542 7.58577 2.80542 7.99999C2.80542 8.4142 3.14121 8.74999 3.55542 8.74999L7.24987 8.74999V12.4444C7.24987 12.8586 7.58565 13.1944 7.99987 13.1944C8.41408 13.1944 8.74987 12.8586 8.74987 12.4444V8.74999L12.4443 8.74999C12.8585 8.74999 13.1943 8.4142 13.1943 7.99999C13.1943 7.58577 12.8585 7.24999 12.4443 7.24999L8.74986 7.24999V3.55554Z" fill="#8E99A4"/>
</svg>
