<svg width="13" height="12" viewBox="0 0 13 12" fill="none" xmlns="http://www.w3.org/2000/svg">
  <path d="M7.16667 12V10.6667H8.5V12H7.16667ZM5.83333 10.6667V7.33333H7.16667V10.6667H5.83333ZM11.1667 8.66667V6H12.5V8.66667H11.1667ZM9.83333 6V4.66667H11.1667V6H9.83333ZM1.83333 7.33333V6H3.16667V7.33333H1.83333ZM0.5 6V4.66667H1.83333V6H0.5ZM6.5 1.33333V0H7.83333V1.33333H6.5ZM1.33333 3.16667H3.66667V0.833333H1.33333V3.16667ZM1 4C0.855556 4 0.736111 3.95278 0.641667 3.85833C0.547222 3.76389 0.5 3.64444 0.5 3.5V0.5C0.5 0.355556 0.547222 0.236111 0.641667 0.141667C0.736111 0.0472223 0.855556 0 1 0H4C4.14444 0 4.26389 0.0472223 4.35833 0.141667C4.45278 0.236111 4.5 0.355556 4.5 0.5V3.5C4.5 3.64444 4.45278 3.76389 4.35833 3.85833C4.26389 3.95278 4.14444 4 4 4H1ZM1.33333 11.1667H3.66667V8.83333H1.33333V11.1667ZM1 12C0.855556 12 0.736111 11.9528 0.641667 11.8583C0.547222 11.7639 0.5 11.6444 0.5 11.5V8.5C0.5 8.35556 0.547222 8.23611 0.641667 8.14167C0.736111 8.04722 0.855556 8 1 8H4C4.14444 8 4.26389 8.04722 4.35833 8.14167C4.45278 8.23611 4.5 8.35556 4.5 8.5V11.5C4.5 11.6444 4.45278 11.7639 4.35833 11.8583C4.26389 11.9528 4.14444 12 4 12H1ZM9.33333 3.16667H11.6667V0.833333H9.33333V3.16667ZM9 4C8.85556 4 8.73611 3.95278 8.64167 3.85833C8.54722 3.76389 8.5 3.64444 8.5 3.5V0.5C8.5 0.355556 8.54722 0.236111 8.64167 0.141667C8.73611 0.0472223 8.85556 0 9 0H12C12.1444 0 12.2639 0.0472223 12.3583 0.141667C12.4528 0.236111 12.5 0.355556 12.5 0.5V3.5C12.5 3.64444 12.4528 3.76389 12.3583 3.85833C12.2639 3.95278 12.1444 4 12 4H9ZM9.83333 12V10H8.5V8.66667H11.1667V10.6667H12.5V12H9.83333ZM7.16667 7.33333V6H9.83333V7.33333H7.16667ZM4.5 7.33333V6H3.16667V4.66667H7.16667V6H5.83333V7.33333H4.5ZM5.16667 4V1.33333H6.5V2.66667H7.83333V4H5.16667ZM2 2.5V1.5H3V2.5H2ZM2 10.5V9.5H3V10.5H2ZM10 2.5V1.5H11V2.5H10Z" fill="currentColor"/>
</svg>
  