<svg width="24" height="24" viewBox="0 0 24 24" fill="none" xmlns="http://www.w3.org/2000/svg">
<path fill-rule="evenodd" clip-rule="evenodd" d="M13.0759 13.6172C13.0273 13.7343 13.0004 13.8625 13 13.997C13 13.998 13 13.999 13 14L13 14.0007L13 20C13 20.5523 13.4477 21 14 21C14.5523 21 15 20.5523 15 20L15 16.4142L18.7929 20.2071C19.1834 20.5976 19.8166 20.5976 20.2071 20.2071C20.5976 19.8166 20.5976 19.1834 20.2071 18.7929L16.4142 15L20 15C20.5523 15 21 14.5523 21 14C21 13.4477 20.5523 13 20 13L14.0007 13L14 13C13.999 13 13.998 13 13.997 13C13.743 13.0008 13.4892 13.0977 13.295 13.2908C13.2943 13.2915 13.2936 13.2922 13.2929 13.2929C13.2922 13.2936 13.2915 13.2943 13.2908 13.295C13.196 13.3904 13.1243 13.5001 13.0759 13.6172ZM13.0759 13.6172C13.1262 13.4959 13.1996 13.3867 13.2908 13.295L13.0759 13.6172Z" fill="#737D8C"/>
<path fill-rule="evenodd" clip-rule="evenodd" d="M10.9241 10.3828C10.9727 10.2657 10.9996 10.1375 11 10.003C11 10.002 11 10.001 11 10V9.9993L11 4C11 3.44772 10.5523 3 10 3C9.44772 3 9 3.44772 9 4L9 7.58579L5.20711 3.79289C4.81658 3.40237 4.18342 3.40237 3.79289 3.79289C3.40237 4.18342 3.40237 4.81658 3.79289 5.20711L7.58579 9L4 9C3.44771 9 3 9.44771 3 10C3 10.5523 3.44771 11 4 11L9.9993 11H10C10.001 11 10.002 11 10.003 11C10.257 10.9992 10.5108 10.9023 10.705 10.7092C10.7057 10.7085 10.7064 10.7078 10.7071 10.7071C10.7078 10.7064 10.7085 10.7057 10.7092 10.705C10.804 10.6096 10.8757 10.4999 10.9241 10.3828ZM10.9241 10.3828C10.8738 10.5041 10.8004 10.6133 10.7092 10.705L10.9241 10.3828Z" fill="#737D8C"/>
</svg>
