<svg width="18" height="19" viewBox="0 0 18 19" fill="none" xmlns="http://www.w3.org/2000/svg">
<path fill-rule="evenodd" clip-rule="evenodd" d="M4.58365 3.90848C5.79757 2.94852 7.33285 2.375 9 2.375C12.6817 2.375 15.7112 5.1675 16.086 8.75H17.6314C17.9253 8.75 18.1006 9.07792 17.9376 9.32274L15.6812 12.711C15.5355 12.9297 15.2145 12.9297 15.0688 12.711L12.8124 9.32274C12.6494 9.07792 12.8247 8.75 13.1186 8.75H14.5754C14.2088 5.99798 11.8523 3.875 9 3.875C7.68247 3.875 6.4726 4.32705 5.51407 5.08504C5.45221 5.13396 5.39899 5.17326 5.36001 5.20114C5.34047 5.21513 5.32433 5.22637 5.31229 5.23463L5.29733 5.24482L5.29227 5.24821L5.29037 5.24948L5.28958 5.25L5.28923 5.25023L5.28906 5.25034L5.28898 5.2504L4.875 4.625L5.2889 5.25045C4.94347 5.47904 4.47814 5.38433 4.24955 5.0389C4.02136 4.69408 4.11534 4.22977 4.45929 4.00075L4.4633 3.99802C4.46789 3.99487 4.47605 3.9892 4.48719 3.98123C4.5096 3.9652 4.5433 3.94038 4.58365 3.90848ZM3.42456 10.25H4.88138C5.1753 10.25 5.35061 9.92208 5.18758 9.67726L2.93119 6.28905C2.78553 6.07032 2.46447 6.07032 2.31881 6.28905L0.0624241 9.67726C-0.100613 9.92207 0.0746987 10.25 0.368618 10.25H1.914C2.28878 13.8325 5.31828 16.625 9 16.625C10.7415 16.625 12.3388 15.9992 13.5764 14.9611C13.8938 14.6949 13.9353 14.2219 13.6691 13.9045C13.4029 13.5872 12.9298 13.5457 12.6125 13.8119C11.6349 14.6319 10.376 15.125 9 15.125C6.14769 15.125 3.79123 13.002 3.42456 10.25Z" fill="currentColor"/>
</svg>
