<svg xmlns="http://www.w3.org/2000/svg" width="17" height="16" fill="none">
<path 
    fill="currentColor" 
    fill-rule="evenodd" 
    d="M4.523 2.964a6.418 6.418 0 0 1 10.36 4.369h1.29c.26 0 .416.292.272.51l-2.006 3.011a.327.327 0 0 1-.544 0l-2.006-3.012a.327.327 0 0 1 .272-.509h1.21a4.918 4.918 0 0 0-7.918-3.192 3.684 3.684 0 0 1-.184.136l-.014.01-.004.003-.002.001h-.001v.001l-.415-.625.414.625a.75.75 0 0 1-.83-1.25l.003-.001.02-.014c.02-.014.048-.035.083-.063Zm-.895 5.703H4.84a.327.327 0 0 0 .272-.51L3.106 5.146a.327.327 0 0 0-.545 0L.555 8.157c-.144.218.011.51.273.51h1.29a6.418 6.418 0 0 0 10.503 4.251.75.75 0 0 0-.963-1.15 4.918 4.918 0 0 1-8.03-3.102Z" 
    clip-rule="evenodd"/>
</svg>
