<svg width="18" height="18" viewBox="0 0 18 18" fill="none" xmlns="http://www.w3.org/2000/svg">
<path fill-rule="evenodd" clip-rule="evenodd" d="M8.5 1.5C6.29086 1.5 4.5 3.29086 4.5 5.5V7.5C4.5 7.521 4.50016 7.54196 4.50048 7.56288C3.63762 7.78474 3 8.56791 3 9.5V14.5C3 15.6046 3.89543 16.5 5 16.5H13C14.1046 16.5 15 15.6046 15 14.5V9.5C15 8.56791 14.3624 7.78474 13.4995 7.56288C13.4998 7.54196 13.5 7.521 13.5 7.5V5.5C13.5 3.29086 11.7091 1.5 9.5 1.5H8.5ZM11.5 7.5V5.5C11.5 4.39543 10.6046 3.5 9.5 3.5H8.5C7.39543 3.5 6.5 4.39543 6.5 5.5V7.5H11.5Z" fill="black"/>
</svg>
