<svg width="20" height="20" viewBox="0 0 20 20" fill="none" xmlns="http://www.w3.org/2000/svg">
<path d="M 18.792 11.145 L 2.356 19.359 C 1.249 19.913 0.097 18.725 0.638 17.642 C 0.638 17.642 2.675 13.528 3.235 12.451 C 3.796 11.373 4.437 11.187 10.393 10.417 C 10.614 10.388 10.794 10.222 10.794 10 C 10.794 9.778 10.614 9.612 10.393 9.583 C 4.437 8.813 3.796 8.627 3.235 7.549 C 2.675 6.472 0.638 2.358 0.638 2.358 C 0.097 1.275 1.249 0.087 2.356 0.64 L 18.792 8.855 C 19.736 9.326 19.736 10.674 18.792 11.145 Z" fill="black"/>
</svg>
