<svg width="20" height="20" viewBox="0 0 20 20" fill="none" xmlns="http://www.w3.org/2000/svg">
<path fill-rule="evenodd" clip-rule="evenodd" d="M17.3625 7.2875C17.5625 7.8125 18.075 8.1625 18.6375 8.1625C19.3875 8.1625 20 8.775 20 9.525V10.475C20 11.225 19.3875 11.8375 18.6375 11.8375C18.075 11.8375 17.5625 12.1875 17.3625 12.7125C17.346 12.7538 17.3294 12.7958 17.3128 12.838C17.2538 12.9876 17.1932 13.1413 17.125 13.2875C16.8875 13.8 17 14.4 17.4 14.8C17.9375 15.325 17.9375 16.1875 17.4 16.725L16.725 17.4C16.2 17.9375 15.3375 17.9375 14.8 17.4C14.4125 17 13.8 16.8875 13.2875 17.125C13.1 17.2125 12.9125 17.2875 12.7125 17.3625C12.1875 17.5625 11.8375 18.075 11.8375 18.6375C11.8375 19.3875 11.225 20 10.475 20H9.525C8.775 20 8.1625 19.3875 8.1625 18.6375C8.1625 18.075 7.8125 17.5625 7.2875 17.3625C7.24617 17.346 7.20423 17.3294 7.16195 17.3128C7.01243 17.2538 6.85867 17.1932 6.7125 17.125C6.2 16.8875 5.6 17 5.2 17.4C4.675 17.9375 3.8125 17.9375 3.275 17.4L2.6 16.725C2.0625 16.2 2.0625 15.3375 2.6 14.8C3 14.4125 3.1125 13.8 2.875 13.2875C2.7875 13.1 2.7125 12.9125 2.6375 12.7125C2.4375 12.1875 1.925 11.8375 1.3625 11.8375C0.6125 11.8375 0 11.225 0 10.475V9.525C0 8.775 0.6125 8.1625 1.3625 8.1625C1.925 8.1625 2.4375 7.8125 2.6375 7.2875C2.67694 7.16129 2.72634 7.04005 2.77627 6.91751C2.80546 6.84587 2.83483 6.77379 2.8625 6.7C3.1 6.1875 2.9875 5.5875 2.5875 5.1875C2.05 4.6625 2.05 3.8 2.5875 3.2625L3.275 2.6C3.8 2.0625 4.6625 2.0625 5.2 2.6C5.5875 3 6.2 3.1125 6.7125 2.875C6.9 2.7875 7.0875 2.7 7.2875 2.6375C7.8125 2.4375 8.1625 1.925 8.1625 1.3625C8.1625 0.6125 8.775 0 9.525 0H10.475C11.225 0 11.8375 0.6125 11.8375 1.3625C11.8375 1.9375 12.1875 2.4375 12.7125 2.6375C12.7538 2.65403 12.7958 2.67056 12.838 2.68723C12.9876 2.74617 13.1413 2.80679 13.2875 2.875C13.8 3.1125 14.4 3 14.8 2.6C15.325 2.0625 16.1875 2.0625 16.725 2.6L17.4 3.275C17.9375 3.8 17.9375 4.6625 17.4 5.2C17 5.5875 16.8875 6.2 17.125 6.7125C17.2125 6.9 17.2875 7.0875 17.3625 7.2875ZM10 15C7.2375 15 5 12.7625 5 10C5 7.2375 7.2375 5 10 5C12.7625 5 15 7.2375 15 10C15 12.7625 12.7625 15 10 15Z" fill="black"/>
</svg>
