<svg width="25" height="25" viewBox="0 0 25 25" fill="none" xmlns="http://www.w3.org/2000/svg">
<path fill-rule="evenodd" clip-rule="evenodd" d="M19.8625 9.7875C20.0625 10.3125 20.575 10.6625 21.1375 10.6625C21.8875 10.6625 22.5 11.275 22.5 12.025V12.975C22.5 13.725 21.8875 14.3375 21.1375 14.3375C20.575 14.3375 20.0625 14.6875 19.8625 15.2125C19.846 15.2538 19.8294 15.2958 19.8128 15.338C19.7538 15.4876 19.6932 15.6413 19.625 15.7875C19.3875 16.3 19.5 16.9 19.9 17.3C20.4375 17.825 20.4375 18.6875 19.9 19.225L19.225 19.9C18.7 20.4375 17.8375 20.4375 17.3 19.9C16.9125 19.5 16.3 19.3875 15.7875 19.625C15.6 19.7125 15.4125 19.7875 15.2125 19.8625C14.6875 20.0625 14.3375 20.575 14.3375 21.1375C14.3375 21.8875 13.725 22.5 12.975 22.5H12.025C11.275 22.5 10.6625 21.8875 10.6625 21.1375C10.6625 20.575 10.3125 20.0625 9.7875 19.8625C9.74617 19.846 9.70423 19.8294 9.66195 19.8128C9.51243 19.7538 9.35867 19.6932 9.2125 19.625C8.7 19.3875 8.1 19.5 7.7 19.9C7.175 20.4375 6.3125 20.4375 5.775 19.9L5.1 19.225C4.5625 18.7 4.5625 17.8375 5.1 17.3C5.5 16.9125 5.6125 16.3 5.375 15.7875C5.2875 15.6 5.2125 15.4125 5.1375 15.2125C4.9375 14.6875 4.425 14.3375 3.8625 14.3375C3.1125 14.3375 2.5 13.725 2.5 12.975V12.025C2.5 11.275 3.1125 10.6625 3.8625 10.6625C4.425 10.6625 4.9375 10.3125 5.1375 9.7875C5.17694 9.66129 5.22634 9.54005 5.27627 9.41751C5.30546 9.34587 5.33483 9.27379 5.3625 9.2C5.6 8.6875 5.4875 8.0875 5.0875 7.6875C4.55 7.1625 4.55 6.3 5.0875 5.7625L5.775 5.1C6.3 4.5625 7.1625 4.5625 7.7 5.1C8.0875 5.5 8.7 5.6125 9.2125 5.375C9.4 5.2875 9.5875 5.2 9.7875 5.1375C10.3125 4.9375 10.6625 4.425 10.6625 3.8625C10.6625 3.1125 11.275 2.5 12.025 2.5H12.975C13.725 2.5 14.3375 3.1125 14.3375 3.8625C14.3375 4.4375 14.6875 4.9375 15.2125 5.1375C15.2538 5.15403 15.2958 5.17056 15.338 5.18723C15.4876 5.24617 15.6413 5.30679 15.7875 5.375C16.3 5.6125 16.9 5.5 17.3 5.1C17.825 4.5625 18.6875 4.5625 19.225 5.1L19.9 5.775C20.4375 6.3 20.4375 7.1625 19.9 7.7C19.5 8.0875 19.3875 8.7 19.625 9.2125C19.7125 9.4 19.7875 9.5875 19.8625 9.7875ZM12.5 17.5C9.7375 17.5 7.5 15.2625 7.5 12.5C7.5 9.7375 9.7375 7.5 12.5 7.5C15.2625 7.5 17.5 9.7375 17.5 12.5C17.5 15.2625 15.2625 17.5 12.5 17.5Z" fill="black"/>
</svg>
