<svg width="24" height="24" viewBox="0 0 24 24" fill="none" xmlns="http://www.w3.org/2000/svg">
<path fill-rule="evenodd" clip-rule="evenodd" d="M19.3625 9.2875C19.5625 9.8125 20.075 10.1625 20.6375 10.1625C21.3875 10.1625 22 10.775 22 11.525V12.475C22 13.225 21.3875 13.8375 20.6375 13.8375C20.075 13.8375 19.5625 14.1875 19.3625 14.7125C19.346 14.7538 19.3294 14.7958 19.3128 14.838C19.2538 14.9876 19.1932 15.1413 19.125 15.2875C18.8875 15.8 19 16.4 19.4 16.8C19.9375 17.325 19.9375 18.1875 19.4 18.725L18.725 19.4C18.2 19.9375 17.3375 19.9375 16.8 19.4C16.4125 19 15.8 18.8875 15.2875 19.125C15.1 19.2125 14.9125 19.2875 14.7125 19.3625C14.1875 19.5625 13.8375 20.075 13.8375 20.6375C13.8375 21.3875 13.225 22 12.475 22H11.525C10.775 22 10.1625 21.3875 10.1625 20.6375C10.1625 20.075 9.8125 19.5625 9.2875 19.3625C9.24617 19.346 9.20423 19.3294 9.16195 19.3128C9.01243 19.2538 8.85867 19.1932 8.7125 19.125C8.2 18.8875 7.6 19 7.2 19.4C6.675 19.9375 5.8125 19.9375 5.275 19.4L4.6 18.725C4.0625 18.2 4.0625 17.3375 4.6 16.8C5 16.4125 5.1125 15.8 4.875 15.2875C4.7875 15.1 4.7125 14.9125 4.6375 14.7125C4.4375 14.1875 3.925 13.8375 3.3625 13.8375C2.6125 13.8375 2 13.225 2 12.475V11.525C2 10.775 2.6125 10.1625 3.3625 10.1625C3.925 10.1625 4.4375 9.8125 4.6375 9.2875C4.67694 9.16129 4.72634 9.04005 4.77627 8.91751C4.80546 8.84587 4.83483 8.77379 4.8625 8.7C5.1 8.1875 4.9875 7.5875 4.5875 7.1875C4.05 6.6625 4.05 5.8 4.5875 5.2625L5.275 4.6C5.8 4.0625 6.6625 4.0625 7.2 4.6C7.5875 5 8.2 5.1125 8.7125 4.875C8.9 4.7875 9.0875 4.7 9.2875 4.6375C9.8125 4.4375 10.1625 3.925 10.1625 3.3625C10.1625 2.6125 10.775 2 11.525 2H12.475C13.225 2 13.8375 2.6125 13.8375 3.3625C13.8375 3.9375 14.1875 4.4375 14.7125 4.6375C14.7538 4.65403 14.7958 4.67056 14.838 4.68723C14.9876 4.74617 15.1413 4.80679 15.2875 4.875C15.8 5.1125 16.4 5 16.8 4.6C17.325 4.0625 18.1875 4.0625 18.725 4.6L19.4 5.275C19.9375 5.8 19.9375 6.6625 19.4 7.2C19 7.5875 18.8875 8.2 19.125 8.7125C19.2125 8.9 19.2875 9.0875 19.3625 9.2875ZM12 17C9.2375 17 7 14.7625 7 12C7 9.2375 9.2375 7 12 7C14.7625 7 17 9.2375 17 12C17 14.7625 14.7625 17 12 17Z" fill="black"/>
</svg>
