<svg width="24" height="24" viewBox="0 0 24 24" fill="none" xmlns="http://www.w3.org/2000/svg">
<path fill-rule="evenodd" clip-rule="evenodd" d="M2 12.1638C2 6.64097 6.47715 2.16382 12 2.16382C17.5228 2.16382 22 6.64097 22 12.1638C22 17.6867 17.5228 22.1638 12 22.1638C6.47715 22.1638 2 17.6867 2 12.1638ZM10.2814 7.58052L7.41682 7.58052L7.41682 10.4451L10.2814 10.4451L10.2814 7.58052ZM7.41682 6.43469C6.784 6.43469 6.271 6.94769 6.271 7.58052V10.4451C6.271 11.0779 6.784 11.5909 7.41682 11.5909H10.2814C10.9142 11.5909 11.4272 11.0779 11.4272 10.4451V7.58052C11.4272 6.9477 10.9142 6.43469 10.2814 6.43469H7.41682ZM7.41682 13.9462L10.2814 13.9462L10.2814 16.8108L7.41682 16.8108L7.41682 13.9462ZM6.271 13.9462C6.271 13.3134 6.784 12.8004 7.41682 12.8004H10.2814C10.9142 12.8004 11.4272 13.3134 11.4272 13.9462V16.8108C11.4272 17.4436 10.9142 17.9566 10.2814 17.9566H7.41682C6.784 17.9566 6.271 17.4436 6.271 16.8108V13.9462ZM16.6471 7.58052L13.7825 7.58052L13.7825 10.4451L16.6471 10.4451L16.6471 7.58052ZM13.7825 6.43469C13.1497 6.43469 12.6367 6.94769 12.6367 7.58052V10.4451C12.6367 11.0779 13.1497 11.5909 13.7825 11.5909H16.6471C17.2799 11.5909 17.7929 11.0779 17.7929 10.4451V7.58052C17.7929 6.9477 17.2799 6.43469 16.6471 6.43469H13.7825ZM15.2148 16.8108C14.4238 16.8108 13.7825 16.1695 13.7825 15.3785C13.7825 14.5875 14.4238 13.9462 15.2148 13.9462C16.0058 13.9462 16.6471 14.5875 16.6471 15.3785C16.6471 16.1695 16.0058 16.8108 15.2148 16.8108ZM12.6367 15.3785C12.6367 13.9546 13.7909 12.8004 15.2148 12.8004C16.6386 12.8004 17.7929 13.9546 17.7929 15.3785C17.7929 16.8023 16.6386 17.9566 15.2148 17.9566C13.7909 17.9566 12.6367 16.8023 12.6367 15.3785Z" fill="currentColor"/>
</svg>
