<svg width="16" height="16" viewBox="0 0 16 16" fill="none" xmlns="http://www.w3.org/2000/svg">
<path d="M7.97991 1.48403L4 4.80062L1 4.80062C0.447715 4.80062 0 5.24834 0 5.80062V10.2006C0 10.7529 0.447714 11.2006 0.999999 11.2006L4 11.2006L7.97991 14.5172C8.30557 14.7886 8.8 14.557 8.8 14.1331V1.86814C8.8 1.44422 8.30557 1.21265 7.97991 1.48403Z" fill="#737D8C"/>
<path d="M14.1258 2.79107C13.8998 2.50044 13.4809 2.44808 13.1903 2.67413C12.9 2.89992 12.8475 3.3181 13.0726 3.6087L13.0731 3.60935L13.0738 3.61021L13.0829 3.62231C13.0917 3.63418 13.1059 3.65355 13.1248 3.68011C13.1625 3.73326 13.2187 3.81496 13.2872 3.92256C13.4243 4.13812 13.6097 4.45554 13.7955 4.85371C14.169 5.65407 14.5329 6.75597 14.5329 8.00036C14.5329 9.24475 14.169 10.3466 13.7955 11.147C13.6097 11.5452 13.4243 11.8626 13.2872 12.0782C13.2187 12.1858 13.1625 12.2675 13.1248 12.3206C13.1059 12.3472 13.0917 12.3665 13.0829 12.3784L13.0738 12.3905L13.0731 12.3914L13.0725 12.3921C12.8475 12.6827 12.9 13.1008 13.1903 13.3266C13.4809 13.5526 13.8998 13.5003 14.1258 13.2097L13.629 12.8232C14.1258 13.2096 14.1258 13.2097 14.1258 13.2097L14.1272 13.2079L14.1291 13.2055L14.1346 13.1982L14.1523 13.1748C14.1669 13.1552 14.187 13.1277 14.2119 13.0926C14.2617 13.0225 14.3305 12.9221 14.4121 12.794C14.5749 12.5381 14.7895 12.1698 15.0037 11.7109C15.4302 10.7969 15.8663 9.49883 15.8663 8.00036C15.8663 6.50189 15.4302 5.20379 15.0037 4.28987C14.7895 3.83089 14.5749 3.4626 14.4121 3.20673C14.3305 3.07862 14.2617 2.97818 14.2119 2.90811C14.187 2.87306 14.1669 2.84556 14.1523 2.82596L14.1346 2.80249L14.1291 2.79525L14.1272 2.79278L14.1264 2.79183C14.1264 2.79183 14.1258 2.79107 13.5996 3.20036L14.1258 2.79107Z" fill="#737D8C"/>
<path d="M11.7264 5.19121C11.5004 4.90058 11.0815 4.84823 10.7909 5.07427C10.501 5.29973 10.4482 5.71698 10.6722 6.00752L10.6745 6.01057C10.6775 6.01457 10.6831 6.02223 10.691 6.03338C10.7069 6.05572 10.7318 6.09189 10.7628 6.14057C10.8249 6.23827 10.9103 6.38426 10.9961 6.56815C11.1696 6.93993 11.3335 7.44183 11.3335 8.00051C11.3335 8.55918 11.1696 9.06108 10.9961 9.43287C10.9103 9.61675 10.8249 9.76275 10.7628 9.86045C10.7318 9.90912 10.7069 9.94529 10.691 9.96763C10.6831 9.97879 10.6775 9.98645 10.6745 9.99044L10.6722 9.9935C10.4482 10.284 10.501 10.7013 10.7909 10.9267C11.0815 11.1528 11.5004 11.1004 11.7264 10.8098L11.2002 10.4005C11.7264 10.8098 11.7264 10.8098 11.7264 10.8098L11.7276 10.8083L11.7291 10.8064L11.7329 10.8014L11.7439 10.7868C11.7526 10.7751 11.7642 10.7593 11.7781 10.7396C11.806 10.7004 11.8436 10.6455 11.8876 10.5763C11.9755 10.4383 12.0901 10.2414 12.2043 9.99672C12.4308 9.51136 12.6669 8.81326 12.6669 8.00051C12.6669 7.18775 12.4308 6.48965 12.2043 6.0043C12.0901 5.75961 11.9755 5.56275 11.8876 5.42473C11.8436 5.35555 11.806 5.30065 11.7781 5.26138C11.7642 5.24173 11.7526 5.22596 11.7439 5.21422L11.7329 5.19964L11.7291 5.19465L11.7276 5.19274L11.727 5.19193C11.727 5.19193 11.7264 5.19121 11.2002 5.60051L11.7264 5.19121Z" fill="#737D8C"/>
</svg>
