<svg width="12" height="14" viewBox="0 0 12 14" fill="none" xmlns="http://www.w3.org/2000/svg">
<path d="M8 0H4V1.33333H8V0ZM5.33333 8.66667H6.66667V4.66667H5.33333V8.66667ZM10.6867 4.26L11.6333 3.31333C11.3467 2.97333 11.0333 2.65333 10.6933 2.37333L9.74667 3.32C8.71333 2.49333 7.41333 2 6 2C2.68667 2 0 4.68667 0 8C0 11.3133 2.68 14 6 14C9.32 14 12 11.3133 12 8C12 6.58667 11.5067 5.28667 10.6867 4.26ZM6 12.6667C3.42 12.6667 1.33333 10.58 1.33333 8C1.33333 5.42 3.42 3.33333 6 3.33333C8.58 3.33333 10.6667 5.42 10.6667 8C10.6667 10.58 8.58 12.6667 6 12.6667Z" fill="currentColor"/>
</svg>
