<svg width="12" height="17" viewBox="0 0 12 17" fill="none" xmlns="http://www.w3.org/2000/svg">
<path d="M0.857143 14.5C0.857143 15.4491 1.62857 16.5 2.57143 16.5H9.42857C10.3714 16.5 11.1429 15.2542 11.1429 14.3051V5.67692C11.1429 4.72781 10.3714 3.95128 9.42857 3.95128H2.57143C1.62857 3.95128 0.857143 4.72781 0.857143 5.67692V14.5ZM11.1429 1.36282H9L8.39143 0.750218C8.23714 0.59491 8.01429 0.5 7.79143 0.5H4.20857C3.98571 0.5 3.76286 0.59491 3.60857 0.750218L3 1.36282H0.857143C0.385714 1.36282 0 1.75109 0 2.22564C0 2.70019 0.385714 3.08846 0.857143 3.08846H11.1429C11.6143 3.08846 12 2.70019 12 2.22564C12 1.75109 11.6143 1.36282 11.1429 1.36282Z" fill="#737D8C"/>
</svg>
