<svg viewBox="0 0 20 20" xmlns="http://www.w3.org/2000/svg">
    <path d="M 10,0 C 4.4771555,0 0,4.4771555 0,10 0,15.522794 4.4771555,20 10,20 15.522794,20 20,15.522794 20,10 20,4.4771555 15.522794,0 10,0 Z M 6.6660156,5 C 8.046724,5 9.166016,6.2132159 9.166016,7.7089844 c 0,1.4957686 -1.119292,2.7070316 -2.5000004,2.7070316 -1.3807186,0 -2.5,-1.211263 -2.5,-2.7070316 C 4.1660156,6.2132159 5.285297,5 6.6660156,5 Z m 7.7148434,1.6660156 c 1.209599,0 2.189453,1.0626082 2.189453,2.3730464 0,1.310399 -0.979854,2.373047 -2.189453,2.373047 -1.209598,0 -2.191406,-1.062648 -2.191406,-2.373047 0,-1.3104382 0.981808,-2.3730464 2.191406,-2.3730464 z M 6.6660156,11.666016 c 0.3297794,0 0.6529044,0.0337 0.9648438,0.0957 1.8315866,0.401198 3.2031246,2.032379 3.2031246,3.984375 v 2.210937 C 10.560013,17.985187 10.281622,18 10,18 6.8339434,18 4.1088101,16.175143 2.8105469,13.517578 3.7276213,12.387632 5.1130646,11.666016 6.6660156,11.666016 Z m 7.7148434,0.841796 c 1.064889,0 2.039663,0.386633 2.798829,1.029297 -0.890234,1.809719 -2.442617,3.229715 -4.345704,3.947266 v -1.738281 c 0,-0.954798 -0.221481,-1.85861 -0.613281,-2.66211 0.637198,-0.367798 1.375258,-0.576172 2.160156,-0.576172 z" />
</svg>
