<svg width="18" height="18" viewBox="0 0 18 18" fill="none" xmlns="http://www.w3.org/2000/svg">
<mask id="path-1-inside-1" fill="white">
<path fill-rule="evenodd" clip-rule="evenodd" d="M9 17C13.4183 17 17 13.4183 17 9C17 4.58172 13.4183 1 9 1C4.58172 1 1 4.58172 1 9C1 13.4183 4.58172 17 9 17ZM8.3335 7.16667C8.3335 8.36328 7.43807 9.33333 6.3335 9.33333C5.22893 9.33333 4.3335 8.36328 4.3335 7.16667C4.3335 5.97005 5.22893 5 6.3335 5C7.43807 5 8.3335 5.97005 8.3335 7.16667ZM12.5043 10.1297C13.472 10.1297 14.2565 9.27984 14.2565 8.23152C14.2565 7.1832 13.472 6.33337 12.5043 6.33337C11.5367 6.33337 10.7522 7.1832 10.7522 8.23152C10.7522 9.27984 11.5367 10.1297 12.5043 10.1297ZM7.10447 10.4089C8.56975 10.7299 9.66656 12.0353 9.66656 13.5969L9.66656 15.7587H5.66657L2.71436 12.6667C3.35468 11.2876 4.73442 10.3334 6.33324 10.3334C6.59706 10.3334 6.85492 10.3594 7.10447 10.4089ZM11.1665 15.7586H12.5044L15.4676 12.6666C14.8466 11.6684 13.7516 11.0057 12.5044 11.0057C11.8406 11.0057 11.22 11.1934 10.6909 11.5195C10.9956 12.1471 11.1665 12.8519 11.1665 13.5969L11.1665 15.7586Z"/>
</mask>
<path fill-rule="evenodd" clip-rule="evenodd" d="M9 17C13.4183 17 17 13.4183 17 9C17 4.58172 13.4183 1 9 1C4.58172 1 1 4.58172 1 9C1 13.4183 4.58172 17 9 17ZM8.3335 7.16667C8.3335 8.36328 7.43807 9.33333 6.3335 9.33333C5.22893 9.33333 4.3335 8.36328 4.3335 7.16667C4.3335 5.97005 5.22893 5 6.3335 5C7.43807 5 8.3335 5.97005 8.3335 7.16667ZM12.5043 10.1297C13.472 10.1297 14.2565 9.27984 14.2565 8.23152C14.2565 7.1832 13.472 6.33337 12.5043 6.33337C11.5367 6.33337 10.7522 7.1832 10.7522 8.23152C10.7522 9.27984 11.5367 10.1297 12.5043 10.1297ZM7.10447 10.4089C8.56975 10.7299 9.66656 12.0353 9.66656 13.5969L9.66656 15.7587H5.66657L2.71436 12.6667C3.35468 11.2876 4.73442 10.3334 6.33324 10.3334C6.59706 10.3334 6.85492 10.3594 7.10447 10.4089ZM11.1665 15.7586H12.5044L15.4676 12.6666C14.8466 11.6684 13.7516 11.0057 12.5044 11.0057C11.8406 11.0057 11.22 11.1934 10.6909 11.5195C10.9956 12.1471 11.1665 12.8519 11.1665 13.5969L11.1665 15.7586Z" fill="black"/>
<path d="M9.66656 13.5969H8.33322V13.5969L9.66656 13.5969ZM7.10447 10.4089L7.38974 9.10648L7.37705 9.1037L7.36431 9.10117L7.10447 10.4089ZM9.66656 15.7587V17.092H10.9999L10.9999 15.7587L9.66656 15.7587ZM5.66657 15.7587L4.70222 16.6795L5.09614 17.092H5.66657V15.7587ZM2.71436 12.6667L1.50502 12.1052L1.12213 12.9299L1.75 13.5875L2.71436 12.6667ZM12.5044 15.7586V17.092H13.0733L13.467 16.6812L12.5044 15.7586ZM11.1665 15.7586L9.83313 15.7586L9.83313 17.092H11.1665V15.7586ZM15.4676 12.6666L16.4303 13.5892L17.1468 12.8416L16.5997 11.9623L15.4676 12.6666ZM10.6909 11.5195L9.99128 10.3845L8.96494 11.0171L9.49143 12.1018L10.6909 11.5195ZM11.1665 13.5969H9.83312V13.5969L11.1665 13.5969ZM15.6667 9C15.6667 12.6819 12.6819 15.6667 9 15.6667V18.3333C14.1547 18.3333 18.3333 14.1547 18.3333 9H15.6667ZM9 2.33333C12.6819 2.33333 15.6667 5.3181 15.6667 9H18.3333C18.3333 3.84534 14.1547 -0.333333 9 -0.333333V2.33333ZM2.33333 9C2.33333 5.3181 5.3181 2.33333 9 2.33333V-0.333333C3.84534 -0.333333 -0.333333 3.84534 -0.333333 9H2.33333ZM9 15.6667C5.3181 15.6667 2.33333 12.6819 2.33333 9H-0.333333C-0.333333 14.1547 3.84534 18.3333 9 18.3333V15.6667ZM6.3335 10.6667C8.27292 10.6667 9.66683 8.99717 9.66683 7.16667H7.00016C7.00016 7.7294 6.60321 8 6.3335 8V10.6667ZM3.00016 7.16667C3.00016 8.99717 4.39407 10.6667 6.3335 10.6667V8C6.06378 8 5.66683 7.7294 5.66683 7.16667H3.00016ZM6.3335 3.66667C4.39407 3.66667 3.00016 5.33616 3.00016 7.16667H5.66683C5.66683 6.60393 6.06378 6.33333 6.3335 6.33333V3.66667ZM9.66683 7.16667C9.66683 5.33616 8.27292 3.66667 6.3335 3.66667V6.33333C6.60321 6.33333 7.00016 6.60393 7.00016 7.16667H9.66683ZM12.9231 8.23152C12.9231 8.64596 12.6372 8.79634 12.5043 8.79634V11.463C14.3069 11.463 15.5898 9.91373 15.5898 8.23152H12.9231ZM12.5043 7.66671C12.6372 7.66671 12.9231 7.81709 12.9231 8.23152H15.5898C15.5898 6.54932 14.3069 5.00004 12.5043 5.00004V7.66671ZM12.0855 8.23152C12.0855 7.81709 12.3715 7.66671 12.5043 7.66671V5.00004C10.7018 5.00004 9.41886 6.54932 9.41886 8.23152H12.0855ZM12.5043 8.79634C12.3715 8.79634 12.0855 8.64596 12.0855 8.23152H9.41886C9.41886 9.91373 10.7018 11.463 12.5043 11.463V8.79634ZM10.9999 13.5969C10.9999 11.3957 9.45399 9.5586 7.38974 9.10648L6.8192 11.7114C7.68551 11.9011 8.33322 12.6749 8.33322 13.5969H10.9999ZM10.9999 15.7587L10.9999 13.5969L8.33322 13.5969L8.33323 15.7587L10.9999 15.7587ZM5.66657 17.092H9.66656V14.4254H5.66657V17.092ZM1.75 13.5875L4.70222 16.6795L6.63093 14.8379L3.67871 11.7459L1.75 13.5875ZM6.33324 9.00004C4.18685 9.00004 2.35159 10.2819 1.50502 12.1052L3.92369 13.2282C4.35777 12.2933 5.28198 11.6667 6.33324 11.6667V9.00004ZM7.36431 9.10117C7.0297 9.03469 6.68482 9.00004 6.33324 9.00004V11.6667C6.5093 11.6667 6.68013 11.684 6.84462 11.7167L7.36431 9.10117ZM12.5044 14.4253H11.1665V17.092H12.5044V14.4253ZM14.505 11.7441L11.5417 14.8361L13.467 16.6812L16.4303 13.5892L14.505 11.7441ZM12.5044 12.339C13.2649 12.339 13.9438 12.7414 14.3355 13.371L16.5997 11.9623C15.7493 10.5955 14.2382 9.67234 12.5044 9.67234V12.339ZM11.3906 12.6545C11.7163 12.4538 12.0958 12.339 12.5044 12.339V9.67234C11.5854 9.67234 10.7237 9.93304 9.99128 10.3845L11.3906 12.6545ZM12.4998 13.5969C12.4998 12.6459 12.2813 11.7425 11.8904 10.9373L9.49143 12.1018C9.70988 12.5518 9.83312 13.0578 9.83312 13.5969H12.4998ZM12.4998 15.7586L12.4998 13.5969L9.83312 13.5969L9.83313 15.7586L12.4998 15.7586Z" fill="black" mask="url(#path-1-inside-1)"/>
<path d="M16.25 9C16.25 13.0041 13.0041 16.25 9 16.25C4.99594 16.25 1.75 13.0041 1.75 9C1.75 4.99594 4.99594 1.75 9 1.75C13.0041 1.75 16.25 4.99594 16.25 9Z" stroke="black" stroke-width="1.5"/>
</svg>
