<svg xmlns="http://www.w3.org/2000/svg" width="16" height="16" fill="none" viewBox="0 0 16 16"><path fill="currentColor" fill-rule="evenodd" d="M1 2.75A.75.75 0 0 1 1.75 2h.005a.75.75 0 0 1 0 1.5H1.75A.75.75 0 0 1 1 2.75Zm2.495 0a.75.75 0 0 1 .75-.75h.01a.75.75 0 0 1 0 1.5h-.01a.75.75 0 0 1-.75-.75Zm2.5 0a.75.75 0 0 1 .75-.75h.01a.75.75 0 0 1 0 1.5h-.01a.75.75 0 0 1-.75-.75Zm2.5 0a.75.75 0 0 1 .75-.75h.01a.75.75 0 0 1 0 1.5h-.01a.75.75 0 0 1-.75-.75Zm2.5 0a.75.75 0 0 1 .75-.75h.01a.75.75 0 0 1 0 1.5h-.01a.75.75 0 0 1-.75-.75Zm2.5 0a.75.75 0 0 1 .75-.75h.005a.75.75 0 0 1 0 1.5h-.005a.75.75 0 0 1-.75-.75ZM1 6.75A.75.75 0 0 1 1.75 6h8.5a.75.75 0 0 1 0 1.5h-8.5A.75.75 0 0 1 1 6.75ZM1 9.75A.75.75 0 0 1 1.75 9h4.5a.75.75 0 0 1 0 1.5h-4.5A.75.75 0 0 1 1 9.75ZM1 13.75a.75.75 0 0 1 .75-.75h.005a.75.75 0 0 1 0 1.5H1.75a.75.75 0 0 1-.75-.75Zm2.495 0a.75.75 0 0 1 .75-.75h.01a.75.75 0 0 1 0 1.5h-.01a.75.75 0 0 1-.75-.75Zm2.5 0a.75.75 0 0 1 .75-.75h.01a.75.75 0 0 1 0 1.5h-.01a.75.75 0 0 1-.75-.75Zm2.5 0a.75.75 0 0 1 .75-.75h.01a.75.75 0 0 1 0 1.5h-.01a.75.75 0 0 1-.75-.75Zm2.5 0a.75.75 0 0 1 .75-.75h.01a.75.75 0 0 1 0 1.5h-.01a.75.75 0 0 1-.75-.75Zm2.5 0a.75.75 0 0 1 .75-.75h.005a.75.75 0 0 1 0 1.5h-.005a.75.75 0 0 1-.75-.75Z" clip-rule="evenodd"/></svg>