<svg width="16" height="16" viewBox="0 0 16 16" fill="none" xmlns="http://www.w3.org/2000/svg">
<path fill-rule="evenodd" clip-rule="evenodd" d="M8 16C12.4183 16 16 12.4183 16 8C16 3.58172 12.4183 0 8 0C3.58172 0 0 3.58172 0 8C0 12.4183 3.58172 16 8 16ZM6.9806 4.5101C6.9306 3.9401 7.3506 3.4401 7.9206 3.4001C8.4806 3.3601 8.9806 3.7801 9.0406 4.3501V4.5101L8.7206 8.5101C8.6906 8.8801 8.3806 9.1601 8.0106 9.1601H7.9506C7.6006 9.1301 7.3306 8.8601 7.3006 8.5101L6.9806 4.5101ZM8.88012 11.1202C8.88012 11.6062 8.48613 12.0002 8.00012 12.0002C7.51411 12.0002 7.12012 11.6062 7.12012 11.1202C7.12012 10.6342 7.51411 10.2402 8.00012 10.2402C8.48613 10.2402 8.88012 10.6342 8.88012 11.1202Z" fill="#8D99A5"/>
</svg>
