<svg width="20" height="20" viewBox="0 0 20 20" fill="none" xmlns="http://www.w3.org/2000/svg">
<path fill-rule="evenodd" clip-rule="evenodd" d="M13.4157 2C13.4922 2.92763 13.1763 3.84642 12.535 4.56125C11.9129 5.27979 10.9701 5.69366 9.97726 5.68417C9.91411 4.78324 10.2392 3.89596 10.881 3.21774C11.531 2.53034 12.436 2.09555 13.4157 2ZM16.5554 7.45058C15.4132 8.10257 14.7104 9.25238 14.6932 10.4972C14.6948 11.9055 15.6031 13.1765 17 13.7251C16.7313 14.5354 16.3264 15.3013 15.8001 15.9942C15.0934 16.9759 14.3523 17.935 13.1762 17.9527C12.6168 17.9647 12.2392 17.8153 11.8458 17.6597C11.4354 17.4974 11.0077 17.3282 10.3385 17.3282C9.62875 17.3282 9.18194 17.5028 8.75102 17.6712C8.37862 17.8167 8.01808 17.9576 7.50997 17.9772C6.38987 18.0157 5.53384 16.9294 4.80138 15.9569C3.33741 13.971 2.19745 10.3601 3.72573 7.90322C4.44339 6.70576 5.78524 5.94589 7.26033 5.90164C7.89561 5.8895 8.5052 6.11686 9.03964 6.31619C9.44837 6.46863 9.81314 6.60468 10.1118 6.60468C10.3744 6.60468 10.729 6.474 11.1423 6.32171C11.7932 6.08181 12.5898 5.78827 13.4015 5.86738C14.6627 5.90402 15.8316 6.49076 16.5554 7.45058Z" fill="#1B1D22"/>
</svg>
