<?xml version="1.0" encoding="UTF-8" standalone="no"?>
<svg width="17px" height="15px" viewBox="-1 -1 16 14" version="1.1" xmlns="http://www.w3.org/2000/svg" xmlns:xlink="http://www.w3.org/1999/xlink" xmlns:sketch="http://www.bohemiancoding.com/sketch/ns">
    <!-- Generator: Sketch 3.4.4 (17249) - http://www.bohemiancoding.com/sketch -->
    <title>icon_camera</title>
    <desc>Created with Sketch.</desc>
    <defs></defs>
    <g id="06a-Room-settings" stroke="none" stroke-width="1" fill="none" fill-rule="evenodd" sketch:type="MSPage">
        <g id="06_4-Room-settings-admin" sketch:type="MSArtboardGroup" transform="translate(-248.000000, -71.000000)" fill="#454545">
            <path d="M255.5,76.25 C256.119795,76.25 256.649737,76.4700499 257.089844,76.9101562 C257.52995,77.3502626 257.75,77.8802052 257.75,78.5 C257.75,79.1197948 257.52995,79.6497374 257.089844,80.0898438 C256.649737,80.5299501 256.119795,80.75 255.5,80.75 C254.880205,80.75 254.350263,80.5299501 253.910156,80.0898438 C253.47005,79.6497374 253.25,79.1197948 253.25,78.5 C253.25,77.8802052 253.47005,77.3502626 253.910156,76.9101562 C254.350263,76.4700499 254.880205,76.25 255.5,76.25 L255.5,76.25 Z M261,73 C261.552086,73 262.023436,73.1953105 262.414062,73.5859375 C262.804689,73.9765645 263,74.4479139 263,75 L263,82 C263,82.5520861 262.804689,83.0234355 262.414062,83.4140625 C262.023436,83.8046895 261.552086,84 261,84 L250,84 C249.447914,84 248.976564,83.8046895 248.585938,83.4140625 C248.195311,83.0234355 248,82.5520861 248,82 L248,75 C248,74.4479139 248.195311,73.9765645 248.585938,73.5859375 C248.976564,73.1953105 249.447914,73 250,73 L251.75,73 L252.148438,71.9375 C252.247396,71.6822904 252.428384,71.4622405 252.691406,71.2773438 C252.954428,71.092447 253.223957,71 253.5,71 L257.5,71 C257.776043,71 258.045572,71.092447 258.308594,71.2773438 C258.571616,71.4622405 258.752604,71.6822904 258.851562,71.9375 L259.25,73 L261,73 Z M255.5,82 C256.463546,82 257.287757,81.6575555 257.972656,80.9726562 C258.657556,80.287757 259,79.4635465 259,78.5 C259,77.5364535 258.657556,76.712243 257.972656,76.0273438 C257.287757,75.3424445 256.463546,75 255.5,75 C254.536454,75 253.712243,75.3424445 253.027344,76.0273438 C252.342444,76.712243 252,77.5364535 252,78.5 C252,79.4635465 252.342444,80.287757 253.027344,80.9726562 C253.712243,81.6575555 254.536454,82 255.5,82 L255.5,82 Z" id="icon_camera" sketch:type="MSShapeGroup"></path>
        </g>
    </g>
</svg>
