<?xml version="1.0" encoding="UTF-8" standalone="no"?>
<svg width="25px" height="26px" viewBox="-1 -1 25 26" version="1.1" xmlns="http://www.w3.org/2000/svg" xmlns:xlink="http://www.w3.org/1999/xlink" xmlns:sketch="http://www.bohemiancoding.com/sketch/ns">
    <!-- Generator: Sketch 3.4.3 (16618) - http://www.bohemiancoding.com/sketch -->
    <title>Fill 72 + Path 98</title>
    <desc>Created with Sketch.</desc>
    <defs></defs>
    <g id="05-Voice-and-video" stroke="none" stroke-width="1" fill="none" fill-rule="evenodd" sketch:type="MSPage">
        <g id="05_2-Video-call" sketch:type="MSArtboardGroup" transform="translate(-910.000000, -719.000000)" stroke="#FF0064">
            <g id="Fill-72-+-Path-98" sketch:type="MSLayerGroup" transform="translate(910.000000, 719.000000)">
                <path d="M17.8404444,24 C15.8137778,24 10.8875556,21.408 6.75022222,15.8448889 C2.88088889,10.6413333 1,6.88222222 1,4.35244444 C1,2.36088889 2.37511111,1.41022222 3.11422222,0.9 L3.29644444,0.772888889 C4.11288889,0.188888889 5.38222222,0 5.86888889,0 C6.72222222,0 7.08177778,0.499555556 7.29955556,0.935111111 C7.48488889,1.30311111 9.01777778,4.59511111 9.17288889,5.00444444 C9.41111111,5.63377778 9.33288889,6.55111111 8.596,7.07822222 L8.46622222,7.16844444 C8.10044444,7.42222222 7.42,7.89333333 7.32577778,8.46622222 C7.28,8.74488889 7.37333333,9.03644444 7.61111111,9.35688889 C8.79777778,10.956 12.5862222,15.6506667 13.2693333,16.2884444 C13.8044444,16.7884444 14.4826667,16.8595556 14.9444444,16.4702222 C15.4222222,16.0675556 15.6342222,15.8297778 15.6364444,15.8271111 L15.6857778,15.7795556 C15.7257778,15.7457778 16.0991111,15.4497778 16.7093333,15.4497778 C17.1497778,15.4497778 17.5973333,15.6017778 18.04,15.9008889 C19.1884444,16.6768889 21.7808889,18.4106667 21.7808889,18.4106667 L21.8226667,18.4426667 C22.1542222,18.7266667 22.6333333,19.5453333 22.0751111,20.6106667 C21.496,21.7168889 19.6986667,24 17.8404444,24 L17.8404444,24 Z" id="Fill-72" sketch:type="MSShapeGroup"></path>
                <path d="M19.8035085,4 L0,22.8035085" id="Path-98" sketch:type="MSShapeGroup"></path>
            </g>
        </g>
    </g>
</svg>