<?xml version="1.0" encoding="UTF-8" standalone="no"?>
<!DOCTYPE svg PUBLIC "-//W3C//DTD SVG 1.1//EN" "http://www.w3.org/Graphics/SVG/1.1/DTD/svg11.dtd">
<svg width="100%" height="100%" viewBox="0 0 15 15" version="1.1" xmlns="http://www.w3.org/2000/svg" xmlns:xlink="http://www.w3.org/1999/xlink" xml:space="preserve" style="fill-rule:evenodd;clip-rule:evenodd;stroke-linejoin:round;stroke-miterlimit:1.41421;">
    <g transform="matrix(1,0,0,1,-20,-60)">
        <g id="icon_context_fave_on" transform="matrix(0.600982,0,0,0.600982,20,60)">
            <clipPath id="_clip1">
                <rect x="0" y="0" width="25" height="25"/>
            </clipPath>
            <g clip-path="url(#_clip1)">
                <g transform="matrix(1.66394,0,0,1.66394,1.68116,1.96327)">
                    <clipPath id="_clip2">
                        <rect x="-1" y="-1" width="15" height="15"/>
                    </clipPath>
                    <g clip-path="url(#_clip2)">
                        <rect x="-6" y="-6" width="25" height="25" style="fill:rgb(74,74,74);fill-opacity:0;fill-rule:nonzero;"/>
                        <clipPath id="_clip3">
                            <path d="M11.76,7C12.241,7 12.307,7.257 11.919,7.574L7.204,11.426C6.813,11.745 6.187,11.743 5.8,11.426L1.084,7.574C0.694,7.255 0.767,7 1.243,7L3.467,7L3.467,2.003C3.467,1.449 3.846,1 4.336,1L8.664,1C9.144,1 9.533,1.438 9.533,2.003L9.533,7L11.76,7Z"/>
                        </clipPath>
                        <g clip-path="url(#_clip3)">
                            <rect x="-4.167" y="-4" width="21.338" height="20.665" style="fill:rgb(74,74,74);fill-rule:nonzero;"/>
                        </g>
                    </g>
                </g>
                <g transform="matrix(1.66394,0,0,1.66394,1.68116,1.96327)">
                    <path d="M8.737,0.502C8.882,0.514 9.02,0.542 9.155,0.598C9.544,0.759 9.832,1.105 9.958,1.503C10.008,1.664 10.03,1.829 10.033,1.998L10.033,6.5C10.63,6.5 11.226,6.491 11.822,6.501C11.882,6.504 11.882,6.504 11.942,6.51C12.067,6.527 12.188,6.556 12.301,6.614C12.494,6.715 12.636,6.904 12.665,7.122C12.682,7.246 12.662,7.376 12.613,7.492C12.541,7.662 12.419,7.799 12.282,7.921C10.713,9.244 9.104,10.519 7.515,11.818C7.423,11.889 7.328,11.952 7.223,12.003C6.836,12.19 6.376,12.215 5.969,12.079C5.814,12.028 5.673,11.951 5.539,11.857C3.901,10.585 2.306,9.258 0.72,7.921C0.583,7.798 0.46,7.66 0.389,7.488C0.284,7.235 0.332,6.938 0.528,6.743C0.596,6.676 0.678,6.622 0.766,6.585C0.915,6.521 1.077,6.503 1.238,6.5L2.967,6.5L2.967,1.998C2.968,1.927 2.968,1.928 2.973,1.858C2.991,1.692 3.025,1.532 3.088,1.378C3.229,1.035 3.495,0.744 3.84,0.6C3.975,0.543 4.116,0.515 4.262,0.502C5.753,0.459 7.246,0.46 8.737,0.502ZM4.343,1.5C4.313,1.501 4.285,1.503 4.256,1.511C4.096,1.559 4.003,1.732 3.977,1.886C3.972,1.915 3.969,1.944 3.967,1.973C3.932,3.648 3.967,5.324 3.967,7C3.964,7.047 3.96,7.091 3.948,7.137C3.905,7.286 3.792,7.41 3.647,7.466C3.588,7.489 3.529,7.497 3.467,7.5L1.784,7.5C3.234,8.685 4.656,9.904 6.134,11.053C6.16,11.071 6.187,11.087 6.215,11.102C6.433,11.202 6.7,11.184 6.892,11.035L11.219,7.5L9.533,7.5L9.487,7.498C9.441,7.491 9.397,7.483 9.353,7.466C9.223,7.416 9.118,7.311 9.067,7.181C9.05,7.137 9.042,7.093 9.035,7.046C8.957,5.357 9.069,3.663 9.033,1.972C9.021,1.793 8.941,1.581 8.757,1.516C8.732,1.507 8.707,1.503 8.68,1.501C7.235,1.46 5.789,1.5 4.343,1.5Z" style="fill:rgb(74,74,74);fill-rule:nonzero;"/>
                </g>
            </g>
        </g>
    </g>
</svg>
