<?xml version="1.0" encoding="utf-8"?>
<!-- Generator: Adobe Illustrator 21.0.0, SVG Export Plug-In . SVG Version: 6.00 Build 0)  -->
<svg version="1.1" id="Layer_2" xmlns="http://www.w3.org/2000/svg" xmlns:xlink="http://www.w3.org/1999/xlink" x="0px" y="0px"
	 viewBox="0 0 25 25" style="enable-background:new 0 0 25 25;" xml:space="preserve">
<style type="text/css">
	.st4{fill:none;stroke-miterlimit:10;}
</style>
<g id="icons_people" transform="translate(50.000000, 725.000000)">
	<path id="Oval-1-Copy-7" fill="#76CFA6" d="M-37.5-700c6.9,0,12.5-5.6,12.5-12.5S-30.6-725-37.5-725S-50-719.4-50-712.5
		S-44.4-700-37.5-700z"/>
	<g id="g4240_1_" transform="translate(6.945774,9.0366549)">
		<path id="path4242_1_" class="st4" stroke="#FFFFFF" d="M-38.8-714.1c0-3.2,0-5.7-5.7-5.7s-5.7,2.5-5.7,5.7C-46.2-714.1-43.8-714.1-38.8-714.1z"/>
		<circle id="circle4244_1_" class="st4" stroke="#FFFFFF" cx="-44.5" cy="-724.7" r="3.2"/>
	</g>
	<g>
		<path fill="#FFFFFF" d="M-45.8-708.7c0-2.5,0.3-4,4.5-4c0.3,0,0.6,0,0.8,0c-0.3-0.3-0.6-0.6-0.8-1c0,0,0,0-0.1,0
			c-5.5,0-5.5,2.7-5.5,5.5v0.5h2.7c0.1-0.3,0.1-0.7,0.2-1H-45.8z"/>
		<path fill="#FFFFFF" d="M-43.6-717.4c0-1.3,1-2.3,2.3-2.3c0.6,0,1.1,0.2,1.5,0.5c0.3-0.2,0.6-0.3,1-0.5c-0.6-0.7-1.5-1.1-2.4-1.1
			c-1.8,0-3.3,1.5-3.3,3.3c0,1.8,1.4,3.2,3.2,3.3c-0.1-0.3-0.2-0.7-0.3-1C-42.8-715.3-43.6-716.2-43.6-717.4z"/>
		<path fill="#FFFFFF" d="M-27.8-708.2c0-2.8,0-5.5-5.5-5.5c-0.2,0-0.3,0-0.5,0c-0.2,0.4-0.5,0.7-0.8,1c0.4,0,0.8-0.1,1.3-0.1
			c4.2,0,4.5,1.5,4.5,4h-2.4c0.1,0.3,0.2,0.7,0.2,1h3.1V-708.2z"/>
		<path fill="#FFFFFF" d="M-33.3-719.7c1.3,0,2.3,1,2.3,2.3c0,1.3-1,2.3-2.3,2.3c0,0,0,0,0,0c0,0.3-0.1,0.7-0.3,1c0.1,0,0.2,0,0.3,0
			c1.8,0,3.3-1.5,3.3-3.3c0-1.8-1.5-3.3-3.3-3.3c-1,0-1.9,0.5-2.5,1.2c0.3,0.1,0.6,0.3,0.9,0.5C-34.6-719.4-34-719.7-33.3-719.7z"/>
	</g>
</g>
</svg>
