<svg height="18" viewBox="0 0 66 18" width="66" xmlns="http://www.w3.org/2000/svg">
    <g fill="#454545" fill-rule="evenodd">
        <path d="m.57375773.51260411v16.96465689h1.22032333v.4070323h-1.68861516v-17.77866867h1.68861516v.40697948z"/>
        <path d="m5.27530002 5.89064516v.85851027h.02442757c.22886998-.32679766.50453749-.58053959.82747736-.76043402.32272883-.17957771.69267726-.26973607 1.10937046-.26973607.4003378 0 .76611825.07785923 1.09702477.23304985.33101205.15545455.5823575.42920235.75398361.82171848.18782322-.27791789.44317838-.52326687.76611825-.73583578.32272886-.21246334.70475916-.31893255 1.14614376-.31893255.3350745 0 .6454576.04096187.9317297.12272727.2858501.0817654.5310227.21256891.7353596.39241056.2041259.18.363459.41505572.4781051.70506158.1143294.29053373.1716261.63987097.1716261 1.04880352v4.24324923l-1.7407414-.0000527v-3.59334902c0-.21246335-.0081249-.41278593-.0245331-.60096774-.0165137-.18791789-.0612536-.35134311-.1348001-.49053959-.0735993-.13887977-.1820197-.24936071-.3248392-.33117889-.1430305-.08144868-.3371849-.12256891-.5823047-.12256891-.2451199 0-.4433367.04729618-.59454494.1409912-.15131376.09417009-.2697057.21689736-.35543961.36797067-.08578668.15144282-.14303055.32304986-.17157335.51529619-.02875383.19203519-.04294609.38628739-.04294609.58249267v3.53190612h-1.7405831v-3.55645158c0-.18802346-.00427351-.37409384-.01213465-.55794721-.00833598-.18406452-.0429461-.35366569-.10435796-.50912023-.06130634-.15519062-.16350117-.27997654-.30647895-.37414663-.14303055-.09369502-.35343476-.1409912-.6312654-.1409912-.08182973 0-.19009187.01842228-.32478645.05531964-.13485285.03679179-.26569599.10641643-.39226563.20845162-.12683343.10229912-.23499006.24946627-.32489196.44144868-.08995466.19224633-.13485285.44350733-.13485285.75415249v3.67923172l-1.74053034.0000527v-6.34059234z"/>
        <path d="m14.4319985 6.82284457c.1796456-.26989442.4085683-.48642228.6865045-.65011143.2777251-.16347801.5901658-.27992376.937586-.3494956.347262-.06941349.696687-.10430499 1.0480641-.10430499.3187719 0 .641448.02259238.9683448.06740763.3268441.04513196.6251981.1331261.8949038.26377126.2696529.13075073.4902397.31280938.6619186.54570088.1716261.23299706.2574127.54168915.2574127.92602346v3.29880352c0 .286522.0163554.5601114.049119.8217185.032447.2617654.0897436.4579706.1715206.5887214h-1.7650635c-.0327635-.0981818-.059407-.1982112-.0797193-.3005103-.0205762-.1020352-.0348739-.2062874-.0428933-.312651-.2778834.2862053-.6048858.4865278-.9805322.6010205-.3760158.114176-.7601037.1716071-1.1523693.1716071-.3024693 0-.5844152-.0368446-.8458904-.1103226-.2615808-.0736364-.4902925-.1880235-.6863989-.3436364-.1961592-.155085-.3493723-.3513431-.4596921-.5884047-.1103197-.2370616-.1655587-.5194135-.1655587-.8463167 0-.3596305.0632584-.65612903.1901446-.88891495.1265696-.23315543.2899125-.41906745.490398-.55821115.2001161-.13893255.4288806-.24318475.6863989-.31265102.25736-.06941349.5167776-.12446921.7783056-.16558945.261528-.04075073.5188881-.07353079.7722911-.09802346.2532976-.02459824.4781051-.06144281.6742115-.11048094.1961592-.04903812.3512717-.12045747.4658122-.21457478.1142239-.09401173.1673526-.23093841.1593331-.41093841 0-.18791789-.0306004-.33724927-.0919067-.44757185-.0612536-.11032258-.1430306-.19631085-.2451199-.25759531-.1021948-.06128445-.2206922-.10219355-.3554396-.12272727-.1349056-.02016422-.2800993-.03061584-.4351589-.03061584-.3432523 0-.6129052.07363637-.8090644.22080352-.1960537.14716716-.3106997.39256892-.3432522.73583578h-1.7405831c.0243748-.40866862.1263586-.7481349.3063734-1.0177654zm3.4382729 2.45892669c-.110267.036739-.2288172.06730205-.3553869.09190029-.1267279.02454546-.2594703.0450264-.3983857.06128446-.1390208.016522-.2779361.03684458-.4167459.06139003-.1308432.02433431-.2595232.05732551-.3860401.09802346-.1268334.04112024-.2371531.09617595-.331012.16564223-.0941226.06951906-.169674.15756598-.2268651.26361287-.0572439.1063109-.0857867.2412845-.0857867.4047625 0 .1551906.0285428.2862053.0857867.3922522.0571911.1064692.1349583.1902405.2329852.2515249.0980268.0612845.2123563.104305.343305.1286921.1305793.0245982.2654321.0368446.4044002.0368446.3431995 0 .6086844-.0571144.7968242-.1717126.187876-.1143343.3266858-.2513666.416746-.4109384.0897963-.1593608.1450354-.3205162.165506-.4842581.0202596-.163478.0306004-.29433432.0306004-.39241057v-.65011144c-.073652.06561291-.1655588.1166569-.2759313.15350147z" fill-rule="nonzero"/>
        <path d="m24.4710969 5.89064516v1.16509091h-1.2747182v3.13965393c0 .294176.0489606.4904868.147093.5885103.0979213.098129.294186.1471671.588372.1471671.0980796 0 .1919385-.0040117.2818931-.0122463.0898492-.0080234.1756886-.0204809.2573601-.036739v1.3490499c-.1470931.0245454-.3105942.0408035-.4902925.0491437-.179751.0078651-.3554396.0121407-.5270657.0121407-.269653 0-.5251136-.0184751-.7661183-.0553196-.2411629-.0366862-.4535719-.1080528-.6373855-.2144692-.183919-.1061525-.3290071-.2575953-.4351589-.4538006-.1063628-.1960469-.159386-.453695-.159386-.7727332v-3.74035773h-1.0541314v-1.16509091h1.0541314v-1.90092668h1.7406359v1.90092668z"/>
        <path d="m26.9593852 5.89064516v1.17739003h.0245331c.0815659-.19636364.1918329-.37810557.3309065-.54585924.1389681-.16743695.2981958-.31064516.4779996-.42920234.1796455-.11834604.371795-.21035191.5762901-.27596481.2040731-.06529619.4166932-.09812903.6373855-.09812903.1143823 0 .2408991.02058651.3799727.06139002v1.61894429c-.0818297-.01646921-.1799093-.03082698-.294186-.04296775-.1144878-.01229912-.2247548-.01847507-.331012-.01847507-.3187192 0-.5883721.05331378-.8089061.15946628-.2206395.10631085-.398333.25131378-.5332386.43532551-.1348001.18406452-.2310331.39853372-.2881714.6438827-.0571384.24519061-.085734.51107331-.085734.79717302v2.85746043h-1.7405831v-6.34043404z"/>
        <path d="m30.121885 4.90946041v-1.43487976h1.7407414v1.43487976zm1.7407414.98118475v6.34048684h-1.7407414v-6.34048684z" fill-rule="nonzero"/>
        <path d="m32.7696121 5.89064516h1.9857029l1.1155433 1.6556305 1.1032504-1.6556305h1.9244494l-2.0837826 2.96794135 2.3413009 3.37259829h-1.9858612l-1.3238899-1.999003-1.3239427 1.999003h-1.9488242l2.279889-3.33570093z"/>
        <path d="m65.2811695 17.477261v-16.96465689h-1.2203233v-.40697948h1.6887206v17.77866867h-1.6887206v-.4070323z"/>
        <path d="m40.9083636 10.4624727h1.9011273v1.8648h-1.9011273zm4.8194182-1.25934543c0 .2502558.024218.49445336.0726546.7326.0484366.23814663.1311812.45207183.2482363.64178183.1170552.18971.2724536.3410722.4662.4540909.1937465.1130187.4359258.1695273.7265455.1695273.2906196 0 .5348172-.0565086.7326-.1695273s.3551994-.2643809.4722545-.4540909c.1170552-.18971.1997998-.4036352.2482364-.64178183.0484366-.23814664.0726545-.4823442.0726545-.7326 0-.25025579-.0242179-.49647151-.0726545-.73865454s-.1311812-.45610817-.2482364-.64178182c-.1170551-.18567366-.2744717-.33703578-.4722545-.45409091s-.4419804-.17558182-.7326-.17558182c-.2906197 0-.532799.05852669-.7265455.17558182-.1937464.11705513-.3491448.26841725-.4662.45409091-.1170551.18567365-.1997997.39959879-.2482363.64178182s-.0726546.48839875-.0726546.73865454zm-1.7194909 0c0-.50051159.0766902-.95459796.2300727-1.36227272.1533826-.40767477.3713441-.75479857.6538909-1.04138182.2825469-.28658325.6215981-.50858103 1.0171637-.666s.8395612-.23612728 1.332-.23612728.9384525.07870831 1.3380545.23612728.7406713.37941675 1.0232182.666.5005083.63370705.6538909 1.04138182c.1533826.40767476.2300727.86176113.2300727 1.36227272 0 .5005116-.0766901.95257983-.2300727 1.35621823-.1533826.4036383-.371344.748744-.6538909 1.0353272-.2825469.2865833-.6236162.5065629-1.0232182.6599455s-.8456157.2300727-1.3380545.2300727-.9364344-.0766901-1.332-.2300727-.7346168-.3733622-1.0171637-.6599455c-.2825468-.2865832-.5005083-.6316889-.6538909-1.0353272-.1533825-.4036384-.2300727-.85570663-.2300727-1.35621823zm7.5924-3.13625454h1.6347273v1.16247272h.0242182c.0807276-.19374642.1897084-.3733628.3269454-.53885454.1372371-.16549174.2946537-.30676305.4722546-.42381818s.367308-.20787241.5691272-.27245455.411708-.09687273.6296728-.09687273c.1130187 0 .2381447.02018162.3753818.06054546v1.5984c-.0807277-.01614554-.1775995-.03027267-.2906182-.04238182s-.2219995-.01816364-.3269455-.01816364c-.3148379 0-.5812352.05247221-.7992.15741819-.2179647.10494598-.3935447.24823545-.5267454.42987272-.1332007.18163728-.2280543.39354425-.2845636.63572728-.0565094.24218303-.0847637.50454404-.0847637.78709091v2.82141815h-1.7194909zm7.2896727 4.78309087c.2421831 0 .4561082-.0484358.6417819-.1453091.1856736-.0968732.3390539-.2260355.4601454-.3874909.1210915-.1614553.2119088-.34510803.2724546-.5509636.0605457-.20585557.0908181-.42179887.0908181-.64783636 0-.25832857-.0242179-.50252613-.0726545-.7326-.0484366-.23007388-.1291631-.43390821-.2421818-.61150909-.1130188-.17760089-.2623627-.31887221-.4480364-.42381819-.1856736-.10494598-.4197804-.15741818-.7023273-.15741818-.242183 0-.4500536.04843588-.6236181.14530909s-.3188722.22805372-.4359273.39354546c-.1170551.16549173-.2018179.35519893-.2542909.56912727s-.0787091.43794428-.0787091.67205455c0 .22603749.0221998.45005343.0666.67205454s.1210903.42179911.2300727.59940001.2522718.3229085.4298727.4359273c.1776009.1130187.3995987.1695272.666.1695272zm3.0999273 1.0777091c0 .2502558-.0343087.5368348-.1029273.8597455-.0686185.3229107-.2159443.6236168-.4419818.9021273-.2260375.2785104-.5529797.5146353-.9808363.7083818-.4278567.1937464-1.0010146.2906182-1.719491.2906182-.3067651 0-.6195802-.0383451-.9384545-.1150364s-.6094896-.1957628-.8718545-.3572182c-.262365-.1614553-.4803265-.369326-.653891-.6236182s-.2724544-.5590346-.2966727-.9142363h1.7073818c.0807277.3229107.2381443.5469266.4722546.6720545.2341102.1251279.5045439.1876909.8113091.1876909.484366 0 .8375443-.1453076 1.0595454-.4359273.2220011-.2906196.3289637-.657925.3208909-1.1019272v-.8234182h-.0242181c-.1856737.3309835-.4500529.575181-.7931455.7326s-.7043436.2361273-1.0837636.2361273c-.4682206 0-.8718529-.0827447-1.2109091-.2482364-.3390563-.1654917-.6175626-.3915258-.8355273-.6781091-.2179647-.2865832-.3773995-.6215981-.4783091-1.0050545-.1009096-.3834565-.1513636-.78910699-.1513636-1.21696367 0-.40363838.0585267-.79314358.1755818-1.16852728.1170551-.37538369.2885989-.7063622.5146364-.99294545.2260374-.28658325.5065619-.51463552.8415818-.68416364.3350198-.16952812.7204887-.25429091 1.1564182-.25429091.4117111 0 .772962.07669015 1.0837636.23007273.3108015.15338259.5711444.41170728.7810364.77498182h.0242181v-.83552727h1.6347273z"/>
    </g>
</svg>
