<svg width="25" height="24" viewBox="0 0 25 24" fill="none" xmlns="http://www.w3.org/2000/svg">
<path d="M9.04155 21C6.6153 21 4.35363 20.2943 2.45 19.0767C4.06624 19.1813 6.91855 18.9308 8.69268 17.2386C6.0238 17.1161 4.82019 15.0692 4.6632 14.1945C4.88997 14.2819 5.97147 14.3869 6.582 14.142C3.51192 13.3722 3.04094 10.678 3.1456 9.85573C3.72124 10.2581 4.69809 10.3981 5.08185 10.3631C2.22109 8.31618 3.25027 5.23707 3.75613 4.57226C5.80911 7.4165 8.8859 9.01393 12.6923 9.10278C12.6205 8.78802 12.5826 8.46032 12.5826 8.12373C12.5826 5.70819 14.5351 3.75 16.9435 3.75C18.2019 3.75 19.3358 4.28457 20.1318 5.13963C20.9727 4.94258 22.2382 4.4813 22.8569 4.0824C22.5451 5.20208 21.5742 6.13612 20.9869 6.48231C20.9918 6.49408 20.9821 6.47048 20.9869 6.48231C21.5028 6.40428 22.8986 6.13603 23.45 5.76192C23.1773 6.39094 22.148 7.4368 21.3033 8.02232C21.4604 14.9535 16.1574 21 9.04155 21Z" fill="#1D9BF0"/>
</svg>
